G75*
G70*
%OFA0B0*%
%FSLAX24Y24*%
%IPPOS*%
%LPD*%
%AMOC8*
5,1,8,0,0,1.08239X$1,22.5*
%
%ADD10C,0.0520*%
%ADD11C,0.0740*%
%ADD12OC8,0.1000*%
%ADD13OC8,0.0600*%
%ADD14C,0.0551*%
D10*
X005401Y014163D02*
X005921Y014163D01*
X005921Y015163D02*
X005401Y015163D01*
X005401Y016163D02*
X005921Y016163D01*
X007901Y016163D02*
X008421Y016163D01*
X008421Y015163D02*
X007901Y015163D01*
X007901Y014163D02*
X008421Y014163D01*
X012401Y014163D02*
X012921Y014163D01*
X012921Y015163D02*
X012401Y015163D01*
X012401Y016163D02*
X012921Y016163D01*
X014901Y016163D02*
X015421Y016163D01*
X015421Y015163D02*
X014901Y015163D01*
X014901Y014163D02*
X015421Y014163D01*
D11*
X015161Y017163D03*
X012161Y017163D03*
X008661Y017163D03*
X005661Y017163D03*
X009411Y012913D03*
X011411Y012913D03*
X011411Y009913D03*
X009411Y009913D03*
D12*
X009661Y018663D03*
X011411Y018663D03*
X013661Y018663D03*
X015161Y018663D03*
X007161Y018663D03*
X005661Y018663D03*
D13*
X006411Y013163D03*
X007411Y009163D03*
X005411Y009163D03*
X013411Y009163D03*
X015411Y009163D03*
X014411Y013163D03*
D14*
X005411Y007413D03*
X006411Y007413D03*
X014411Y007413D03*
X015411Y007413D03*
M02*
