G75*
G70*
%OFA0B0*%
%FSLAX24Y24*%
%IPPOS*%
%LPD*%
%AMOC8*
5,1,8,0,0,1.08239X$1,22.5*
%
%ADD10C,0.0000*%
%ADD11C,0.0030*%
%ADD12C,0.0050*%
D10*
X005161Y006163D02*
X006661Y006163D01*
X006721Y006165D01*
X006782Y006170D01*
X006841Y006179D01*
X006900Y006192D01*
X006959Y006208D01*
X007016Y006228D01*
X007071Y006251D01*
X007126Y006278D01*
X007178Y006307D01*
X007229Y006340D01*
X007278Y006376D01*
X007324Y006414D01*
X007368Y006456D01*
X007410Y006500D01*
X007448Y006546D01*
X007484Y006595D01*
X007517Y006646D01*
X007546Y006698D01*
X007573Y006753D01*
X007596Y006808D01*
X007616Y006865D01*
X007632Y006924D01*
X007645Y006983D01*
X007654Y007042D01*
X007659Y007103D01*
X007661Y007163D01*
X007661Y007663D01*
X007663Y007723D01*
X007668Y007784D01*
X007677Y007843D01*
X007690Y007902D01*
X007706Y007961D01*
X007726Y008018D01*
X007749Y008073D01*
X007776Y008128D01*
X007805Y008180D01*
X007838Y008231D01*
X007874Y008280D01*
X007912Y008326D01*
X007954Y008370D01*
X007998Y008412D01*
X008044Y008450D01*
X008093Y008486D01*
X008144Y008519D01*
X008196Y008548D01*
X008251Y008575D01*
X008306Y008598D01*
X008363Y008618D01*
X008422Y008634D01*
X008481Y008647D01*
X008540Y008656D01*
X008601Y008661D01*
X008661Y008663D01*
X012161Y008663D01*
X012221Y008661D01*
X012282Y008656D01*
X012341Y008647D01*
X012400Y008634D01*
X012459Y008618D01*
X012516Y008598D01*
X012571Y008575D01*
X012626Y008548D01*
X012678Y008519D01*
X012729Y008486D01*
X012778Y008450D01*
X012824Y008412D01*
X012868Y008370D01*
X012910Y008326D01*
X012948Y008280D01*
X012984Y008231D01*
X013017Y008180D01*
X013046Y008128D01*
X013073Y008073D01*
X013096Y008018D01*
X013116Y007961D01*
X013132Y007902D01*
X013145Y007843D01*
X013154Y007784D01*
X013159Y007723D01*
X013161Y007663D01*
X013161Y007163D01*
X013163Y007103D01*
X013168Y007042D01*
X013177Y006983D01*
X013190Y006924D01*
X013206Y006865D01*
X013226Y006808D01*
X013249Y006753D01*
X013276Y006698D01*
X013305Y006646D01*
X013338Y006595D01*
X013374Y006546D01*
X013412Y006500D01*
X013454Y006456D01*
X013498Y006414D01*
X013544Y006376D01*
X013593Y006340D01*
X013644Y006307D01*
X013696Y006278D01*
X013751Y006251D01*
X013806Y006228D01*
X013863Y006208D01*
X013922Y006192D01*
X013981Y006179D01*
X014040Y006170D01*
X014101Y006165D01*
X014161Y006163D01*
X015661Y006163D01*
X015729Y006165D01*
X015796Y006170D01*
X015863Y006179D01*
X015930Y006192D01*
X015995Y006209D01*
X016060Y006228D01*
X016124Y006252D01*
X016186Y006279D01*
X016247Y006309D01*
X016305Y006342D01*
X016362Y006378D01*
X016417Y006418D01*
X016470Y006460D01*
X016521Y006506D01*
X016568Y006553D01*
X016614Y006604D01*
X016656Y006657D01*
X016696Y006712D01*
X016732Y006769D01*
X016765Y006827D01*
X016795Y006888D01*
X016822Y006950D01*
X016846Y007014D01*
X016865Y007079D01*
X016882Y007144D01*
X016895Y007211D01*
X016904Y007278D01*
X016909Y007345D01*
X016911Y007413D01*
X016911Y019663D01*
X016909Y019717D01*
X016903Y019770D01*
X016894Y019822D01*
X016881Y019874D01*
X016864Y019925D01*
X016843Y019975D01*
X016819Y020022D01*
X016792Y020068D01*
X016761Y020112D01*
X016728Y020154D01*
X016691Y020193D01*
X016652Y020230D01*
X016610Y020263D01*
X016566Y020294D01*
X016520Y020321D01*
X016473Y020345D01*
X016423Y020366D01*
X016372Y020383D01*
X016320Y020396D01*
X016268Y020405D01*
X016215Y020411D01*
X016161Y020413D01*
X004661Y020413D01*
X004607Y020411D01*
X004554Y020405D01*
X004502Y020396D01*
X004450Y020383D01*
X004399Y020366D01*
X004349Y020345D01*
X004302Y020321D01*
X004256Y020294D01*
X004212Y020263D01*
X004170Y020230D01*
X004131Y020193D01*
X004094Y020154D01*
X004061Y020112D01*
X004030Y020068D01*
X004003Y020022D01*
X003979Y019975D01*
X003958Y019925D01*
X003941Y019874D01*
X003928Y019822D01*
X003919Y019770D01*
X003913Y019717D01*
X003911Y019663D01*
X003911Y007413D01*
X003913Y007345D01*
X003918Y007278D01*
X003927Y007211D01*
X003940Y007144D01*
X003957Y007079D01*
X003976Y007014D01*
X004000Y006950D01*
X004027Y006888D01*
X004057Y006827D01*
X004090Y006769D01*
X004126Y006712D01*
X004166Y006657D01*
X004208Y006604D01*
X004254Y006553D01*
X004301Y006506D01*
X004352Y006460D01*
X004405Y006418D01*
X004460Y006378D01*
X004517Y006342D01*
X004575Y006309D01*
X004636Y006279D01*
X004698Y006252D01*
X004762Y006228D01*
X004827Y006209D01*
X004892Y006192D01*
X004959Y006179D01*
X005026Y006170D01*
X005093Y006165D01*
X005161Y006163D01*
X009906Y017163D02*
X009908Y017213D01*
X009914Y017263D01*
X009924Y017312D01*
X009938Y017360D01*
X009955Y017407D01*
X009976Y017452D01*
X010001Y017496D01*
X010029Y017537D01*
X010061Y017576D01*
X010095Y017613D01*
X010132Y017647D01*
X010172Y017677D01*
X010214Y017704D01*
X010258Y017728D01*
X010304Y017749D01*
X010351Y017765D01*
X010399Y017778D01*
X010449Y017787D01*
X010498Y017792D01*
X010549Y017793D01*
X010599Y017790D01*
X010648Y017783D01*
X010697Y017772D01*
X010745Y017757D01*
X010791Y017739D01*
X010836Y017717D01*
X010879Y017691D01*
X010920Y017662D01*
X010959Y017630D01*
X010995Y017595D01*
X011027Y017557D01*
X011057Y017517D01*
X011084Y017474D01*
X011107Y017430D01*
X011126Y017384D01*
X011142Y017336D01*
X011154Y017287D01*
X011162Y017238D01*
X011166Y017188D01*
X011166Y017138D01*
X011162Y017088D01*
X011154Y017039D01*
X011142Y016990D01*
X011126Y016942D01*
X011107Y016896D01*
X011084Y016852D01*
X011057Y016809D01*
X011027Y016769D01*
X010995Y016731D01*
X010959Y016696D01*
X010920Y016664D01*
X010879Y016635D01*
X010836Y016609D01*
X010791Y016587D01*
X010745Y016569D01*
X010697Y016554D01*
X010648Y016543D01*
X010599Y016536D01*
X010549Y016533D01*
X010498Y016534D01*
X010449Y016539D01*
X010399Y016548D01*
X010351Y016561D01*
X010304Y016577D01*
X010258Y016598D01*
X010214Y016622D01*
X010172Y016649D01*
X010132Y016679D01*
X010095Y016713D01*
X010061Y016750D01*
X010029Y016789D01*
X010001Y016830D01*
X009976Y016874D01*
X009955Y016919D01*
X009938Y016966D01*
X009924Y017014D01*
X009914Y017063D01*
X009908Y017113D01*
X009906Y017163D01*
D11*
X009788Y011398D02*
X009664Y011275D01*
X009541Y011398D01*
X009541Y011028D01*
X009419Y011090D02*
X009358Y011151D01*
X009172Y011151D01*
X009172Y011213D02*
X009172Y011028D01*
X009358Y011028D01*
X009419Y011090D01*
X009358Y011275D02*
X009234Y011275D01*
X009172Y011213D01*
X009051Y011275D02*
X009051Y011028D01*
X009051Y011275D02*
X008866Y011275D01*
X008804Y011213D01*
X008804Y011028D01*
X008683Y011090D02*
X008621Y011028D01*
X008436Y011028D01*
X008314Y011028D02*
X008314Y011398D01*
X008253Y011275D02*
X008129Y011275D01*
X008067Y011213D01*
X008067Y011028D01*
X007946Y011090D02*
X007946Y011213D01*
X007884Y011275D01*
X007761Y011275D01*
X007699Y011213D01*
X007699Y011151D01*
X007946Y011151D01*
X007946Y011090D02*
X007884Y011028D01*
X007761Y011028D01*
X007578Y011028D02*
X007393Y011028D01*
X007331Y011090D01*
X007393Y011151D01*
X007516Y011151D01*
X007578Y011213D01*
X007516Y011275D01*
X007331Y011275D01*
X007209Y011275D02*
X007086Y011275D01*
X007148Y011337D02*
X007148Y011090D01*
X007086Y011028D01*
X006964Y011090D02*
X006964Y011213D01*
X006902Y011275D01*
X006779Y011275D01*
X006717Y011213D01*
X006717Y011151D01*
X006964Y011151D01*
X006964Y011090D02*
X006902Y011028D01*
X006779Y011028D01*
X006596Y011028D02*
X006596Y011275D01*
X006596Y011151D02*
X006472Y011275D01*
X006410Y011275D01*
X006452Y010621D02*
X006452Y010428D01*
X006597Y010428D01*
X006646Y010476D01*
X006646Y010621D01*
X006747Y010573D02*
X006747Y010476D01*
X006795Y010428D01*
X006892Y010428D01*
X006940Y010476D01*
X006940Y010573D01*
X006892Y010621D01*
X006795Y010621D01*
X006747Y010573D01*
X007040Y010428D02*
X007137Y010428D01*
X007088Y010428D02*
X007088Y010718D01*
X007137Y010718D01*
X007238Y010670D02*
X007286Y010718D01*
X007383Y010718D01*
X007431Y010670D01*
X007431Y010476D01*
X007383Y010428D01*
X007286Y010428D01*
X007238Y010476D01*
X007827Y010476D02*
X007827Y010573D01*
X007876Y010621D01*
X008021Y010621D01*
X008021Y010718D02*
X008021Y010428D01*
X007876Y010428D01*
X007827Y010476D01*
X008122Y010476D02*
X008122Y010573D01*
X008170Y010621D01*
X008267Y010621D01*
X008315Y010573D01*
X008315Y010476D01*
X008267Y010428D01*
X008170Y010428D01*
X008122Y010476D01*
X008417Y010476D02*
X008417Y010525D01*
X008465Y010573D01*
X008610Y010573D01*
X008610Y010428D02*
X008610Y010718D01*
X008465Y010718D01*
X008417Y010670D01*
X008417Y010621D01*
X008465Y010573D01*
X008417Y010476D02*
X008465Y010428D01*
X008610Y010428D01*
X009006Y010428D02*
X009199Y010621D01*
X009199Y010670D01*
X009151Y010718D01*
X009103Y010670D01*
X009103Y010621D01*
X009199Y010525D01*
X009199Y010476D01*
X009151Y010428D01*
X009103Y010428D01*
X009006Y010525D01*
X008683Y011090D02*
X008683Y011213D01*
X008621Y011275D01*
X008436Y011275D01*
X008314Y011213D02*
X008253Y011275D01*
X009595Y010621D02*
X009595Y010380D01*
X009644Y010331D01*
X009692Y010331D01*
X009740Y010428D02*
X009595Y010428D01*
X009740Y010428D02*
X009789Y010476D01*
X009789Y010573D01*
X009740Y010621D01*
X009595Y010621D01*
X009890Y010573D02*
X009890Y010428D01*
X009890Y010573D02*
X009938Y010621D01*
X010083Y010621D01*
X010083Y010428D01*
X010184Y010428D02*
X010330Y010428D01*
X010378Y010476D01*
X010330Y010525D01*
X010184Y010525D01*
X010184Y010573D02*
X010184Y010428D01*
X010184Y010573D02*
X010233Y010621D01*
X010330Y010621D01*
X010479Y010428D02*
X010673Y010428D01*
X010673Y010718D01*
X010708Y011028D02*
X010708Y011275D01*
X010585Y011398D01*
X010461Y011275D01*
X010461Y011028D01*
X010340Y011090D02*
X010278Y011028D01*
X010155Y011028D01*
X010093Y011090D01*
X009972Y011090D02*
X009972Y011028D01*
X009910Y011028D01*
X009910Y011090D01*
X009972Y011090D01*
X009972Y011213D02*
X009972Y011275D01*
X009910Y011275D01*
X009910Y011213D01*
X009972Y011213D01*
X010093Y011337D02*
X010155Y011398D01*
X010278Y011398D01*
X010340Y011337D01*
X010340Y011090D01*
X010461Y011213D02*
X010708Y011213D01*
X010830Y011213D02*
X011077Y011213D01*
X011077Y011028D02*
X011077Y011398D01*
X010830Y011398D02*
X010830Y011028D01*
X011068Y010621D02*
X011262Y010428D01*
X011363Y010525D02*
X011556Y010525D01*
X011556Y010573D02*
X011508Y010621D01*
X011411Y010621D01*
X011363Y010573D01*
X011363Y010525D01*
X011411Y010428D02*
X011508Y010428D01*
X011556Y010476D01*
X011556Y010573D01*
X011656Y010428D02*
X011753Y010428D01*
X011705Y010428D02*
X011705Y010718D01*
X011753Y010718D01*
X011854Y010621D02*
X011854Y010428D01*
X011854Y010573D02*
X012048Y010573D01*
X012048Y010621D02*
X011951Y010718D01*
X011854Y010621D01*
X012048Y010621D02*
X012048Y010428D01*
X012443Y010428D02*
X012589Y010428D01*
X012637Y010476D01*
X012637Y010621D01*
X012738Y010573D02*
X012786Y010621D01*
X012931Y010621D01*
X012931Y010718D02*
X012931Y010428D01*
X012786Y010428D01*
X012738Y010476D01*
X012738Y010573D01*
X012443Y010621D02*
X012443Y010380D01*
X012492Y010331D01*
X012540Y010331D01*
X012488Y011028D02*
X012365Y011028D01*
X012303Y011090D01*
X012303Y011337D01*
X012550Y011090D01*
X012488Y011028D01*
X012550Y011090D02*
X012550Y011337D01*
X012488Y011398D01*
X012365Y011398D01*
X012303Y011337D01*
X012182Y011275D02*
X012058Y011398D01*
X012058Y011028D01*
X011935Y011028D02*
X012182Y011028D01*
X011813Y011028D02*
X011566Y011028D01*
X011690Y011028D02*
X011690Y011398D01*
X011813Y011275D01*
X011262Y010621D02*
X011068Y010428D01*
X009788Y011028D02*
X009788Y011398D01*
X012671Y011337D02*
X012733Y011398D01*
X012856Y011398D01*
X012918Y011337D01*
X012671Y011337D02*
X012671Y011275D01*
X012918Y011028D01*
X012671Y011028D01*
X013327Y010573D02*
X013327Y010428D01*
X013327Y010573D02*
X013376Y010621D01*
X013521Y010621D01*
X013521Y010428D01*
X013622Y010428D02*
X013767Y010428D01*
X013815Y010476D01*
X013815Y010573D01*
X013767Y010621D01*
X013622Y010621D01*
X013622Y010380D01*
X013670Y010331D01*
X013719Y010331D01*
X013915Y010428D02*
X014012Y010428D01*
X013964Y010428D02*
X013964Y010621D01*
X014012Y010621D01*
X014113Y010621D02*
X014258Y010621D01*
X014306Y010573D01*
X014258Y010525D01*
X014161Y010525D01*
X014113Y010476D01*
X014161Y010428D01*
X014306Y010428D01*
X014408Y010525D02*
X014601Y010525D01*
X014601Y010573D02*
X014553Y010621D01*
X014456Y010621D01*
X014408Y010573D01*
X014408Y010525D01*
X014456Y010428D02*
X014553Y010428D01*
X014601Y010476D01*
X014601Y010573D01*
X014702Y010476D02*
X014702Y010670D01*
X014751Y010718D01*
X014896Y010718D01*
X014896Y010428D01*
X014751Y010428D01*
X014702Y010476D01*
X013964Y010718D02*
X013964Y010767D01*
X014022Y011028D02*
X014146Y011151D01*
X014146Y011275D01*
X014022Y011398D01*
X013839Y011275D02*
X013900Y011213D01*
X013900Y011090D01*
X013839Y011028D01*
X013653Y011028D01*
X013532Y011028D02*
X013409Y011151D01*
X013409Y011275D01*
X013532Y011398D01*
X013653Y011275D02*
X013839Y011275D01*
X006351Y010573D02*
X006351Y010476D01*
X006303Y010428D01*
X006158Y010428D01*
X006158Y010380D02*
X006158Y010621D01*
X006303Y010621D01*
X006351Y010573D01*
X006254Y010331D02*
X006206Y010331D01*
X006158Y010380D01*
X006056Y010428D02*
X006056Y010718D01*
X006008Y010621D02*
X005911Y010621D01*
X005863Y010573D01*
X005863Y010428D01*
X006056Y010573D02*
X006008Y010621D01*
D12*
X005859Y011688D02*
X005451Y011688D01*
X005251Y011688D02*
X004844Y011688D01*
X005047Y011688D02*
X005047Y012299D01*
X005251Y012095D01*
X005655Y012299D02*
X005655Y011688D01*
X005859Y012095D02*
X005655Y012299D01*
X006059Y012197D02*
X006059Y011790D01*
X006161Y011688D01*
X006364Y011688D01*
X006466Y011790D01*
X006059Y012197D01*
X006161Y012299D01*
X006364Y012299D01*
X006466Y012197D01*
X006466Y011790D01*
X006667Y011688D02*
X007074Y011688D01*
X006667Y012095D01*
X006667Y012197D01*
X006769Y012299D01*
X006972Y012299D01*
X007074Y012197D01*
X007882Y012095D02*
X007882Y011586D01*
X007984Y011484D01*
X008086Y011484D01*
X008188Y011688D02*
X007882Y011688D01*
X008188Y011688D02*
X008289Y011790D01*
X008289Y012095D01*
X008490Y011993D02*
X008490Y011688D01*
X008795Y011688D01*
X008897Y011790D01*
X008795Y011891D01*
X008490Y011891D01*
X008490Y011993D02*
X008592Y012095D01*
X008795Y012095D01*
X009098Y012197D02*
X009098Y011790D01*
X009200Y011688D01*
X009505Y011688D01*
X009505Y012299D01*
X009200Y012299D01*
X009098Y012197D01*
X010314Y012095D02*
X010619Y011891D01*
X010314Y011688D01*
X010619Y011688D02*
X010619Y012299D01*
X010820Y012095D02*
X011125Y012095D01*
X011227Y011993D01*
X011227Y011790D01*
X011125Y011688D01*
X010820Y011688D01*
X011427Y011688D02*
X011733Y011688D01*
X011834Y011790D01*
X011733Y011891D01*
X011427Y011891D01*
X011427Y011993D02*
X011427Y011688D01*
X011427Y011993D02*
X011529Y012095D01*
X011733Y012095D01*
X012035Y011993D02*
X012442Y011993D01*
X012442Y011688D02*
X012442Y012299D01*
X012035Y012299D02*
X012035Y011688D01*
X013251Y011688D02*
X013353Y011790D01*
X013353Y012197D01*
X013455Y012095D02*
X013251Y012095D01*
X013656Y011993D02*
X013656Y011790D01*
X013757Y011688D01*
X013961Y011688D01*
X014063Y011790D01*
X014063Y011993D01*
X013961Y012095D01*
X013757Y012095D01*
X013656Y011993D01*
X014263Y011993D02*
X014263Y011790D01*
X014365Y011688D01*
X014670Y011688D01*
X014670Y012299D01*
X014670Y012095D02*
X014365Y012095D01*
X014263Y011993D01*
X014871Y011993D02*
X014871Y011790D01*
X014973Y011688D01*
X015176Y011688D01*
X015278Y011790D01*
X015278Y011993D01*
X015176Y012095D01*
X014973Y012095D01*
X014871Y011993D01*
X015479Y011993D02*
X015581Y011891D01*
X015886Y011891D01*
X015886Y011688D02*
X015886Y012299D01*
X015581Y012299D01*
X015479Y012197D01*
X015479Y011993D01*
X015682Y011891D02*
X015479Y011688D01*
M02*
