G75*
G70*
%OFA0B0*%
%FSLAX24Y24*%
%IPPOS*%
%LPD*%
%AMOC8*
5,1,8,0,0,1.08239X$1,22.5*
%
%ADD10C,0.0000*%
D10*
X005161Y006163D02*
X006661Y006163D01*
X006721Y006165D01*
X006782Y006170D01*
X006841Y006179D01*
X006900Y006192D01*
X006959Y006208D01*
X007016Y006228D01*
X007071Y006251D01*
X007126Y006278D01*
X007178Y006307D01*
X007229Y006340D01*
X007278Y006376D01*
X007324Y006414D01*
X007368Y006456D01*
X007410Y006500D01*
X007448Y006546D01*
X007484Y006595D01*
X007517Y006646D01*
X007546Y006698D01*
X007573Y006753D01*
X007596Y006808D01*
X007616Y006865D01*
X007632Y006924D01*
X007645Y006983D01*
X007654Y007042D01*
X007659Y007103D01*
X007661Y007163D01*
X007661Y007663D01*
X007663Y007723D01*
X007668Y007784D01*
X007677Y007843D01*
X007690Y007902D01*
X007706Y007961D01*
X007726Y008018D01*
X007749Y008073D01*
X007776Y008128D01*
X007805Y008180D01*
X007838Y008231D01*
X007874Y008280D01*
X007912Y008326D01*
X007954Y008370D01*
X007998Y008412D01*
X008044Y008450D01*
X008093Y008486D01*
X008144Y008519D01*
X008196Y008548D01*
X008251Y008575D01*
X008306Y008598D01*
X008363Y008618D01*
X008422Y008634D01*
X008481Y008647D01*
X008540Y008656D01*
X008601Y008661D01*
X008661Y008663D01*
X012161Y008663D01*
X012221Y008661D01*
X012282Y008656D01*
X012341Y008647D01*
X012400Y008634D01*
X012459Y008618D01*
X012516Y008598D01*
X012571Y008575D01*
X012626Y008548D01*
X012678Y008519D01*
X012729Y008486D01*
X012778Y008450D01*
X012824Y008412D01*
X012868Y008370D01*
X012910Y008326D01*
X012948Y008280D01*
X012984Y008231D01*
X013017Y008180D01*
X013046Y008128D01*
X013073Y008073D01*
X013096Y008018D01*
X013116Y007961D01*
X013132Y007902D01*
X013145Y007843D01*
X013154Y007784D01*
X013159Y007723D01*
X013161Y007663D01*
X013161Y007163D01*
X013163Y007103D01*
X013168Y007042D01*
X013177Y006983D01*
X013190Y006924D01*
X013206Y006865D01*
X013226Y006808D01*
X013249Y006753D01*
X013276Y006698D01*
X013305Y006646D01*
X013338Y006595D01*
X013374Y006546D01*
X013412Y006500D01*
X013454Y006456D01*
X013498Y006414D01*
X013544Y006376D01*
X013593Y006340D01*
X013644Y006307D01*
X013696Y006278D01*
X013751Y006251D01*
X013806Y006228D01*
X013863Y006208D01*
X013922Y006192D01*
X013981Y006179D01*
X014040Y006170D01*
X014101Y006165D01*
X014161Y006163D01*
X015661Y006163D01*
X015729Y006165D01*
X015796Y006170D01*
X015863Y006179D01*
X015930Y006192D01*
X015995Y006209D01*
X016060Y006228D01*
X016124Y006252D01*
X016186Y006279D01*
X016247Y006309D01*
X016305Y006342D01*
X016362Y006378D01*
X016417Y006418D01*
X016470Y006460D01*
X016521Y006506D01*
X016568Y006553D01*
X016614Y006604D01*
X016656Y006657D01*
X016696Y006712D01*
X016732Y006769D01*
X016765Y006827D01*
X016795Y006888D01*
X016822Y006950D01*
X016846Y007014D01*
X016865Y007079D01*
X016882Y007144D01*
X016895Y007211D01*
X016904Y007278D01*
X016909Y007345D01*
X016911Y007413D01*
X016911Y019663D01*
X016909Y019717D01*
X016903Y019770D01*
X016894Y019822D01*
X016881Y019874D01*
X016864Y019925D01*
X016843Y019975D01*
X016819Y020022D01*
X016792Y020068D01*
X016761Y020112D01*
X016728Y020154D01*
X016691Y020193D01*
X016652Y020230D01*
X016610Y020263D01*
X016566Y020294D01*
X016520Y020321D01*
X016473Y020345D01*
X016423Y020366D01*
X016372Y020383D01*
X016320Y020396D01*
X016268Y020405D01*
X016215Y020411D01*
X016161Y020413D01*
X004661Y020413D01*
X004607Y020411D01*
X004554Y020405D01*
X004502Y020396D01*
X004450Y020383D01*
X004399Y020366D01*
X004349Y020345D01*
X004302Y020321D01*
X004256Y020294D01*
X004212Y020263D01*
X004170Y020230D01*
X004131Y020193D01*
X004094Y020154D01*
X004061Y020112D01*
X004030Y020068D01*
X004003Y020022D01*
X003979Y019975D01*
X003958Y019925D01*
X003941Y019874D01*
X003928Y019822D01*
X003919Y019770D01*
X003913Y019717D01*
X003911Y019663D01*
X003911Y007413D01*
X003913Y007345D01*
X003918Y007278D01*
X003927Y007211D01*
X003940Y007144D01*
X003957Y007079D01*
X003976Y007014D01*
X004000Y006950D01*
X004027Y006888D01*
X004057Y006827D01*
X004090Y006769D01*
X004126Y006712D01*
X004166Y006657D01*
X004208Y006604D01*
X004254Y006553D01*
X004301Y006506D01*
X004352Y006460D01*
X004405Y006418D01*
X004460Y006378D01*
X004517Y006342D01*
X004575Y006309D01*
X004636Y006279D01*
X004698Y006252D01*
X004762Y006228D01*
X004827Y006209D01*
X004892Y006192D01*
X004959Y006179D01*
X005026Y006170D01*
X005093Y006165D01*
X005161Y006163D01*
X009906Y017163D02*
X009908Y017213D01*
X009914Y017263D01*
X009924Y017312D01*
X009938Y017360D01*
X009955Y017407D01*
X009976Y017452D01*
X010001Y017496D01*
X010029Y017537D01*
X010061Y017576D01*
X010095Y017613D01*
X010132Y017647D01*
X010172Y017677D01*
X010214Y017704D01*
X010258Y017728D01*
X010304Y017749D01*
X010351Y017765D01*
X010399Y017778D01*
X010449Y017787D01*
X010498Y017792D01*
X010549Y017793D01*
X010599Y017790D01*
X010648Y017783D01*
X010697Y017772D01*
X010745Y017757D01*
X010791Y017739D01*
X010836Y017717D01*
X010879Y017691D01*
X010920Y017662D01*
X010959Y017630D01*
X010995Y017595D01*
X011027Y017557D01*
X011057Y017517D01*
X011084Y017474D01*
X011107Y017430D01*
X011126Y017384D01*
X011142Y017336D01*
X011154Y017287D01*
X011162Y017238D01*
X011166Y017188D01*
X011166Y017138D01*
X011162Y017088D01*
X011154Y017039D01*
X011142Y016990D01*
X011126Y016942D01*
X011107Y016896D01*
X011084Y016852D01*
X011057Y016809D01*
X011027Y016769D01*
X010995Y016731D01*
X010959Y016696D01*
X010920Y016664D01*
X010879Y016635D01*
X010836Y016609D01*
X010791Y016587D01*
X010745Y016569D01*
X010697Y016554D01*
X010648Y016543D01*
X010599Y016536D01*
X010549Y016533D01*
X010498Y016534D01*
X010449Y016539D01*
X010399Y016548D01*
X010351Y016561D01*
X010304Y016577D01*
X010258Y016598D01*
X010214Y016622D01*
X010172Y016649D01*
X010132Y016679D01*
X010095Y016713D01*
X010061Y016750D01*
X010029Y016789D01*
X010001Y016830D01*
X009976Y016874D01*
X009955Y016919D01*
X009938Y016966D01*
X009924Y017014D01*
X009914Y017063D01*
X009908Y017113D01*
X009906Y017163D01*
M02*
