%
M48
M72
T01C0.0315
T02C0.0320
T03C0.0354
T04C0.0400
T05C0.0550
T06C0.1260
%
T01
X5411Y7413
X6411Y7413
X14411Y7413
X15411Y7413
T02
X15161Y14163
X15161Y15163
X15161Y16163
X12661Y16163
X12661Y15163
X12661Y14163
X8161Y14163
X8161Y15163
X8161Y16163
X5661Y16163
X5661Y15163
X5661Y14163
T03
X5661Y17163
X8661Y17163
X12161Y17163
X15161Y17163
X11411Y12913
X9411Y12913
X9411Y9913
X11411Y9913
T04
X13411Y9163
X15411Y9163
X14411Y13163
X7411Y9163
X5411Y9163
X6411Y13163
T05
X7161Y18663
X5661Y18663
X9661Y18663
X11411Y18663
X13661Y18663
X15161Y18663
T06
X10536Y17163
M30
