G75*
G70*
%OFA0B0*%
%FSLAX24Y24*%
%IPPOS*%
%LPD*%
%AMOC8*
5,1,8,0,0,1.08239X$1,22.5*
%
%ADD10C,0.0520*%
%ADD11C,0.0740*%
%ADD12OC8,0.1000*%
%ADD13OC8,0.0600*%
%ADD14C,0.0551*%
%ADD15C,0.0400*%
D10*
X005594Y014453D02*
X006114Y014453D01*
X006114Y015453D02*
X005594Y015453D01*
X005594Y016453D02*
X006114Y016453D01*
X008094Y016453D02*
X008614Y016453D01*
X008614Y015453D02*
X008094Y015453D01*
X008094Y014453D02*
X008614Y014453D01*
X017094Y014453D02*
X017614Y014453D01*
X017614Y015453D02*
X017094Y015453D01*
X017094Y016453D02*
X017614Y016453D01*
X019594Y016453D02*
X020114Y016453D01*
X020114Y015453D02*
X019594Y015453D01*
X019594Y014453D02*
X020114Y014453D01*
D11*
X019854Y017453D03*
X016854Y017453D03*
X015854Y014953D03*
X015854Y011953D03*
X009854Y011953D03*
X009854Y014953D03*
X008854Y017453D03*
X005854Y017453D03*
D12*
X005854Y018953D03*
X007354Y018953D03*
X014354Y018953D03*
X015854Y018953D03*
X018354Y018953D03*
X019854Y018953D03*
D13*
X019354Y013453D03*
X018354Y009453D03*
X020354Y009453D03*
X007354Y009453D03*
X005354Y009453D03*
X006354Y013453D03*
D14*
X005854Y006453D03*
X006854Y006453D03*
X018854Y006453D03*
X019854Y006453D03*
D15*
X005947Y005802D02*
X005564Y005947D01*
X005227Y006180D01*
X004955Y006487D01*
X004955Y006487D01*
X004764Y006850D01*
X004666Y007248D01*
X004654Y007453D01*
X004654Y007512D01*
X004654Y019953D01*
X004658Y019992D01*
X004688Y020064D01*
X004743Y020119D01*
X004815Y020149D01*
X004854Y020153D01*
X020794Y020153D01*
X020854Y020153D01*
X020893Y020149D01*
X020965Y020119D01*
X021020Y020064D01*
X021050Y019992D01*
X021054Y019953D01*
X021054Y007512D01*
X021054Y007453D01*
X021042Y007248D01*
X020944Y006850D01*
X020753Y006487D01*
X020481Y006180D01*
X020144Y005947D01*
X019761Y005802D01*
X019354Y005753D01*
X018947Y005802D01*
X018668Y005908D01*
X018719Y005891D01*
X018809Y005877D01*
X018854Y005877D01*
X018899Y005877D01*
X018989Y005891D01*
X019075Y005919D01*
X019156Y005960D01*
X019229Y006014D01*
X019293Y006078D01*
X019346Y006151D01*
X019376Y006208D01*
X019400Y006149D01*
X019551Y005999D01*
X019747Y005917D01*
X019961Y005917D01*
X020157Y005999D01*
X020308Y006149D01*
X020390Y006346D01*
X020390Y006559D01*
X020308Y006756D01*
X020157Y006907D01*
X019961Y006988D01*
X019747Y006988D01*
X019551Y006907D01*
X019400Y006756D01*
X019376Y006697D01*
X019346Y006754D01*
X019293Y006828D01*
X019229Y006892D01*
X019156Y006945D01*
X019075Y006986D01*
X018989Y007014D01*
X018899Y007028D01*
X018854Y007028D01*
X018854Y006453D01*
X018854Y006453D01*
X018854Y007028D01*
X018809Y007028D01*
X018719Y007014D01*
X018633Y006986D01*
X018552Y006945D01*
X018479Y006892D01*
X018415Y006828D01*
X018362Y006754D01*
X018321Y006674D01*
X018293Y006587D01*
X018278Y006498D01*
X018278Y006453D01*
X018854Y006453D01*
X018854Y006452D01*
X018854Y005877D01*
X018854Y006452D01*
X018854Y006452D01*
X018278Y006452D01*
X018278Y006407D01*
X018293Y006318D01*
X018321Y006232D01*
X018362Y006151D01*
X018415Y006078D01*
X018479Y006014D01*
X018552Y005960D01*
X018619Y005927D01*
X018564Y005947D01*
X018227Y006180D01*
X017955Y006487D01*
X017764Y006850D01*
X017666Y007248D01*
X017654Y007453D01*
X017654Y007512D01*
X017654Y007872D01*
X017654Y007873D01*
X017508Y008700D01*
X017221Y009489D01*
X016801Y010216D01*
X016801Y010216D01*
X016261Y010860D01*
X015690Y011339D01*
X015729Y011323D01*
X015979Y011323D01*
X016211Y011419D01*
X016388Y011596D01*
X016484Y011827D01*
X016484Y012078D01*
X016388Y012309D01*
X016211Y012487D01*
X015979Y012583D01*
X015729Y012583D01*
X015497Y012487D01*
X015320Y012309D01*
X015224Y012078D01*
X015224Y011827D01*
X015320Y011596D01*
X015378Y011538D01*
X014890Y011819D01*
X014101Y012107D01*
X013274Y012253D01*
X012434Y012253D01*
X011607Y012107D01*
X010818Y011819D01*
X010330Y011538D01*
X010388Y011596D01*
X010484Y011827D01*
X010484Y012078D01*
X010388Y012309D01*
X010211Y012487D01*
X009979Y012583D01*
X009729Y012583D01*
X009497Y012487D01*
X009320Y012309D01*
X009224Y012078D01*
X009224Y011827D01*
X009320Y011596D01*
X009497Y011419D01*
X009729Y011323D01*
X009979Y011323D01*
X010018Y011338D01*
X009447Y010860D01*
X009447Y010860D01*
X009447Y010860D01*
X008907Y010216D01*
X008487Y009489D01*
X008487Y009489D01*
X008200Y008700D01*
X008200Y008700D01*
X008054Y007873D01*
X008054Y007872D01*
X008054Y007512D01*
X008054Y007503D01*
X008054Y007453D01*
X008054Y007452D01*
X008042Y007248D01*
X007944Y006850D01*
X007753Y006487D01*
X007481Y006180D01*
X007144Y005947D01*
X007089Y005927D01*
X007156Y005960D01*
X007229Y006014D01*
X007293Y006078D01*
X007346Y006151D01*
X007387Y006232D01*
X007415Y006318D01*
X007430Y006407D01*
X007430Y006452D01*
X006854Y006452D01*
X006854Y005877D01*
X006899Y005877D01*
X006989Y005891D01*
X007040Y005908D01*
X006761Y005802D01*
X006354Y005753D01*
X005947Y005802D01*
X005961Y005917D02*
X005747Y005917D01*
X005551Y005999D01*
X005400Y006149D01*
X005318Y006346D01*
X005318Y006559D01*
X005400Y006756D01*
X005551Y006907D01*
X005747Y006988D01*
X005961Y006988D01*
X006157Y006907D01*
X006308Y006756D01*
X006332Y006697D01*
X006362Y006754D01*
X006415Y006828D01*
X006479Y006892D01*
X006552Y006945D01*
X006633Y006986D01*
X006719Y007014D01*
X006809Y007028D01*
X006854Y007028D01*
X006899Y007028D01*
X006989Y007014D01*
X007075Y006986D01*
X007156Y006945D01*
X007229Y006892D01*
X007293Y006828D01*
X007346Y006754D01*
X007387Y006674D01*
X007415Y006587D01*
X007430Y006498D01*
X007430Y006453D01*
X006854Y006453D01*
X006854Y006453D01*
X006854Y007028D01*
X006854Y006453D01*
X006854Y006452D01*
X006854Y006452D01*
X006854Y005877D01*
X006809Y005877D01*
X006719Y005891D01*
X006633Y005919D01*
X006552Y005960D01*
X006479Y006014D01*
X006415Y006078D01*
X006362Y006151D01*
X006332Y006208D01*
X006308Y006149D01*
X006157Y005999D01*
X005961Y005917D01*
X005817Y005851D02*
X006891Y005851D01*
X006854Y006250D02*
X006854Y006250D01*
X006854Y006648D02*
X006854Y006648D01*
X007396Y006648D02*
X007838Y006648D01*
X007992Y007047D02*
X004716Y007047D01*
X004870Y006648D02*
X005355Y006648D01*
X005358Y006250D02*
X005165Y006250D01*
X004654Y007445D02*
X008054Y007445D01*
X008054Y007844D02*
X004654Y007844D01*
X004654Y008242D02*
X008119Y008242D01*
X008190Y008641D02*
X004654Y008641D01*
X004654Y009039D02*
X004975Y009039D01*
X005122Y008893D02*
X004794Y009221D01*
X004794Y009685D01*
X005122Y010013D01*
X005586Y010013D01*
X005914Y009685D01*
X005914Y009221D01*
X005586Y008893D01*
X005122Y008893D01*
X005733Y009039D02*
X006975Y009039D01*
X007122Y008893D02*
X006794Y009221D01*
X006794Y009685D01*
X007122Y010013D01*
X007586Y010013D01*
X007914Y009685D01*
X007914Y009221D01*
X007586Y008893D01*
X007122Y008893D01*
X007733Y009039D02*
X008324Y009039D01*
X008469Y009438D02*
X007914Y009438D01*
X007762Y009837D02*
X008688Y009837D01*
X008907Y010216D02*
X008907Y010216D01*
X008923Y010235D02*
X004654Y010235D01*
X004654Y009837D02*
X004946Y009837D01*
X004794Y009438D02*
X004654Y009438D01*
X005762Y009837D02*
X006946Y009837D01*
X006794Y009438D02*
X005914Y009438D01*
X004654Y010634D02*
X009257Y010634D01*
X009653Y011032D02*
X004654Y011032D01*
X004654Y011431D02*
X009485Y011431D01*
X009224Y011829D02*
X004654Y011829D01*
X004654Y012228D02*
X009286Y012228D01*
X010422Y012228D02*
X012294Y012228D01*
X012434Y012253D02*
X012434Y012253D01*
X011607Y012107D02*
X011607Y012107D01*
X010845Y011829D02*
X010484Y011829D01*
X010818Y011819D02*
X010818Y011819D01*
X012327Y013664D02*
X012669Y013523D01*
X013039Y013523D01*
X013381Y013664D01*
X013642Y013926D01*
X013784Y014268D01*
X013784Y014638D01*
X013642Y014979D01*
X013381Y015241D01*
X013039Y015382D01*
X012669Y015382D01*
X012327Y015241D01*
X012066Y014979D01*
X011924Y014638D01*
X011924Y014268D01*
X012066Y013926D01*
X012327Y013664D01*
X012169Y013822D02*
X006776Y013822D01*
X006914Y013685D02*
X006586Y014013D01*
X006409Y014013D01*
X006555Y014158D01*
X006634Y014349D01*
X006634Y014556D01*
X006555Y014747D01*
X006409Y014893D01*
X006266Y014953D01*
X006409Y015012D01*
X006555Y015158D01*
X006634Y015349D01*
X006634Y015556D01*
X006555Y015747D01*
X006409Y015893D01*
X006266Y015953D01*
X006409Y016012D01*
X006555Y016158D01*
X006634Y016349D01*
X006634Y016556D01*
X006555Y016747D01*
X006409Y016893D01*
X006251Y016959D01*
X006388Y017096D01*
X006484Y017327D01*
X006484Y017578D01*
X006388Y017809D01*
X006211Y017987D01*
X005979Y018083D01*
X005729Y018083D01*
X005497Y017987D01*
X005320Y017809D01*
X005224Y017578D01*
X005224Y017327D01*
X005320Y017096D01*
X005457Y016959D01*
X005299Y016893D01*
X005153Y016747D01*
X005074Y016556D01*
X005074Y016349D01*
X005153Y016158D01*
X005299Y016012D01*
X005442Y015953D01*
X005299Y015893D01*
X005153Y015747D01*
X005074Y015556D01*
X005074Y015349D01*
X005153Y015158D01*
X005299Y015012D01*
X005442Y014953D01*
X005299Y014893D01*
X005153Y014747D01*
X005074Y014556D01*
X005074Y014349D01*
X005153Y014158D01*
X005299Y014012D01*
X005491Y013933D01*
X006042Y013933D01*
X005794Y013685D01*
X005794Y013221D01*
X006122Y012893D01*
X006586Y012893D01*
X006914Y013221D01*
X006914Y013685D01*
X006914Y013423D02*
X018794Y013423D01*
X018794Y013221D02*
X019122Y012893D01*
X019586Y012893D01*
X019914Y013221D01*
X019914Y013685D01*
X019666Y013933D01*
X020217Y013933D01*
X020409Y014012D01*
X020555Y014158D01*
X020634Y014349D01*
X020634Y014556D01*
X020555Y014747D01*
X020409Y014893D01*
X020266Y014953D01*
X020409Y015012D01*
X020555Y015158D01*
X020634Y015349D01*
X020634Y015556D01*
X020555Y015747D01*
X020409Y015893D01*
X020266Y015953D01*
X020409Y016012D01*
X020555Y016158D01*
X020634Y016349D01*
X020634Y016556D01*
X020555Y016747D01*
X020409Y016893D01*
X020251Y016959D01*
X020388Y017096D01*
X020484Y017327D01*
X020484Y017578D01*
X020388Y017809D01*
X020211Y017987D01*
X019979Y018083D01*
X019729Y018083D01*
X019497Y017987D01*
X019320Y017809D01*
X019224Y017578D01*
X019224Y017327D01*
X019320Y017096D01*
X019457Y016959D01*
X019299Y016893D01*
X019153Y016747D01*
X019074Y016556D01*
X019074Y016349D01*
X019153Y016158D01*
X019299Y016012D01*
X019442Y015953D01*
X019299Y015893D01*
X019153Y015747D01*
X019074Y015556D01*
X019074Y015349D01*
X019153Y015158D01*
X019299Y015012D01*
X019442Y014953D01*
X019299Y014893D01*
X019153Y014747D01*
X019074Y014556D01*
X019074Y014349D01*
X019153Y014158D01*
X019299Y014013D01*
X019122Y014013D01*
X018794Y013685D01*
X018794Y013221D01*
X018990Y013025D02*
X006718Y013025D01*
X005990Y013025D02*
X004654Y013025D01*
X004654Y012626D02*
X021054Y012626D01*
X021054Y013025D02*
X019718Y013025D01*
X019914Y013423D02*
X021054Y013423D01*
X021054Y013822D02*
X019776Y013822D01*
X019127Y014221D02*
X018081Y014221D01*
X018055Y014158D02*
X018134Y014349D01*
X018134Y014556D01*
X018055Y014747D01*
X017909Y014893D01*
X017766Y014953D01*
X017909Y015012D01*
X018055Y015158D01*
X018134Y015349D01*
X018134Y015556D01*
X018055Y015747D01*
X017909Y015893D01*
X017766Y015953D01*
X017909Y016012D01*
X018055Y016158D01*
X018134Y016349D01*
X018134Y016556D01*
X018055Y016747D01*
X017909Y016893D01*
X017717Y016973D01*
X017321Y016973D01*
X017359Y017010D01*
X017412Y017080D01*
X017456Y017156D01*
X017490Y017237D01*
X017513Y017322D01*
X017524Y017409D01*
X019224Y017409D01*
X019405Y017010D02*
X017359Y017010D01*
X017524Y017409D02*
X017524Y017452D01*
X016854Y017452D01*
X016854Y017453D01*
X016854Y017453D01*
X016854Y018123D01*
X016898Y018123D01*
X016985Y018111D01*
X017070Y018088D01*
X017151Y018055D01*
X017227Y018011D01*
X017297Y017957D01*
X017359Y017895D01*
X017412Y017826D01*
X017456Y017750D01*
X017490Y017668D01*
X017513Y017584D01*
X017524Y017496D01*
X017524Y017453D01*
X016854Y017453D01*
X016854Y018123D01*
X016810Y018123D01*
X016723Y018111D01*
X016638Y018088D01*
X016557Y018055D01*
X016481Y018011D01*
X016411Y017957D01*
X016349Y017895D01*
X016296Y017826D01*
X016252Y017750D01*
X016218Y017668D01*
X016195Y017584D01*
X016184Y017496D01*
X016184Y017453D01*
X016854Y017453D01*
X016854Y017452D01*
X016184Y017452D01*
X016184Y017409D01*
X009524Y017409D01*
X009524Y017452D01*
X008854Y017452D01*
X008854Y017453D01*
X008854Y017453D01*
X008854Y018123D01*
X008898Y018123D01*
X008985Y018111D01*
X009070Y018088D01*
X009151Y018055D01*
X009227Y018011D01*
X009297Y017957D01*
X009359Y017895D01*
X009412Y017826D01*
X009456Y017750D01*
X009490Y017668D01*
X009513Y017584D01*
X009524Y017496D01*
X009524Y017453D01*
X008854Y017453D01*
X008854Y018123D01*
X008810Y018123D01*
X008723Y018111D01*
X008638Y018088D01*
X008557Y018055D01*
X008481Y018011D01*
X008411Y017957D01*
X008349Y017895D01*
X008296Y017826D01*
X008252Y017750D01*
X008218Y017668D01*
X008195Y017584D01*
X008184Y017496D01*
X008184Y017453D01*
X008854Y017453D01*
X008854Y017452D01*
X008184Y017452D01*
X008184Y017409D01*
X006484Y017409D01*
X006303Y017010D02*
X008349Y017010D01*
X008387Y016973D01*
X007991Y016973D01*
X007799Y016893D01*
X007653Y016747D01*
X007574Y016556D01*
X007574Y016349D01*
X007653Y016158D01*
X007799Y016012D01*
X007942Y015953D01*
X007799Y015893D01*
X007653Y015747D01*
X007574Y015556D01*
X007574Y015349D01*
X007653Y015158D01*
X007799Y015012D01*
X007942Y014953D01*
X007799Y014893D01*
X007653Y014747D01*
X007574Y014556D01*
X007574Y014349D01*
X007653Y014158D01*
X007799Y014012D01*
X007991Y013933D01*
X008717Y013933D01*
X008909Y014012D01*
X009055Y014158D01*
X009134Y014349D01*
X009134Y014556D01*
X009055Y014747D01*
X008909Y014893D01*
X008766Y014953D01*
X008909Y015012D01*
X009055Y015158D01*
X009134Y015349D01*
X009134Y015556D01*
X009055Y015747D01*
X008909Y015893D01*
X008766Y015953D01*
X008909Y016012D01*
X009055Y016158D01*
X009134Y016349D01*
X009134Y016556D01*
X009055Y016747D01*
X009003Y016799D01*
X009070Y016817D01*
X009151Y016850D01*
X009227Y016894D01*
X009297Y016948D01*
X009359Y017010D01*
X009412Y017080D01*
X009456Y017156D01*
X009490Y017237D01*
X009513Y017322D01*
X009524Y017409D01*
X009359Y017010D02*
X016349Y017010D01*
X016411Y016948D01*
X016481Y016894D01*
X016557Y016850D01*
X016638Y016817D01*
X016705Y016799D01*
X016653Y016747D01*
X016574Y016556D01*
X016574Y016349D01*
X016653Y016158D01*
X016799Y016012D01*
X016942Y015953D01*
X016799Y015893D01*
X016653Y015747D01*
X016574Y015556D01*
X016574Y015349D01*
X016653Y015158D01*
X016799Y015012D01*
X016942Y014953D01*
X016799Y014893D01*
X016653Y014747D01*
X016574Y014556D01*
X016574Y014349D01*
X016653Y014158D01*
X016799Y014012D01*
X016991Y013933D01*
X017717Y013933D01*
X017909Y014012D01*
X018055Y014158D01*
X018108Y014619D02*
X019100Y014619D01*
X019294Y015018D02*
X017914Y015018D01*
X018134Y015416D02*
X019074Y015416D01*
X019221Y015815D02*
X017987Y015815D01*
X018078Y016213D02*
X019130Y016213D01*
X019097Y016612D02*
X018111Y016612D01*
X016721Y015815D02*
X008987Y015815D01*
X009078Y016213D02*
X016630Y016213D01*
X016597Y016612D02*
X009111Y016612D01*
X008349Y017010D02*
X008296Y017080D01*
X008252Y017156D01*
X008218Y017237D01*
X008195Y017322D01*
X008184Y017409D01*
X008285Y017807D02*
X006389Y017807D01*
X006169Y018193D02*
X006576Y018600D01*
X007023Y018153D01*
X007354Y018153D01*
X007685Y018153D01*
X008154Y018621D01*
X008154Y018952D01*
X007354Y018952D01*
X007354Y018153D01*
X007354Y018952D01*
X007354Y018952D01*
X007354Y018953D01*
X007354Y018953D01*
X007354Y019753D01*
X007685Y019753D01*
X008154Y019284D01*
X008154Y018953D01*
X007354Y018953D01*
X007354Y019753D01*
X007023Y019753D01*
X006576Y019306D01*
X006169Y019713D01*
X005539Y019713D01*
X005094Y019267D01*
X005094Y018638D01*
X005539Y018193D01*
X006169Y018193D01*
X006182Y018206D02*
X006969Y018206D01*
X007354Y018206D02*
X007354Y018206D01*
X007739Y018206D02*
X011950Y018206D01*
X011924Y018268D02*
X012066Y017926D01*
X012327Y017664D01*
X012669Y017523D01*
X013039Y017523D01*
X013381Y017664D01*
X013642Y017926D01*
X013784Y018268D01*
X013784Y018448D01*
X014039Y018193D01*
X014669Y018193D01*
X015076Y018600D01*
X015523Y018153D01*
X015854Y018153D01*
X016185Y018153D01*
X016654Y018621D01*
X016654Y018952D01*
X015854Y018952D01*
X015854Y018952D01*
X015854Y018153D01*
X015854Y018952D01*
X015854Y018953D01*
X015854Y018953D01*
X015854Y019753D01*
X016185Y019753D01*
X016654Y019284D01*
X016654Y018953D01*
X015854Y018953D01*
X015854Y019753D01*
X015523Y019753D01*
X015076Y019306D01*
X014669Y019713D01*
X014039Y019713D01*
X013594Y019267D01*
X013594Y019028D01*
X013381Y019241D01*
X013039Y019382D01*
X012669Y019382D01*
X012327Y019241D01*
X012066Y018979D01*
X011924Y018638D01*
X011924Y018268D01*
X011924Y018605D02*
X008137Y018605D01*
X008154Y019003D02*
X012089Y019003D01*
X012184Y017807D02*
X009423Y017807D01*
X008854Y017807D02*
X008854Y017807D01*
X007597Y016612D02*
X006611Y016612D01*
X006578Y016213D02*
X007630Y016213D01*
X007721Y015815D02*
X006487Y015815D01*
X006634Y015416D02*
X007574Y015416D01*
X007794Y015018D02*
X006414Y015018D01*
X006608Y014619D02*
X007600Y014619D01*
X007627Y014221D02*
X006581Y014221D01*
X005932Y013822D02*
X004654Y013822D01*
X004654Y014221D02*
X005127Y014221D01*
X005100Y014619D02*
X004654Y014619D01*
X004654Y015018D02*
X005294Y015018D01*
X005074Y015416D02*
X004654Y015416D01*
X004654Y015815D02*
X005221Y015815D01*
X005130Y016213D02*
X004654Y016213D01*
X004654Y016612D02*
X005097Y016612D01*
X005405Y017010D02*
X004654Y017010D01*
X004654Y017409D02*
X005224Y017409D01*
X005319Y017807D02*
X004654Y017807D01*
X004654Y018206D02*
X005526Y018206D01*
X005127Y018605D02*
X004654Y018605D01*
X004654Y019003D02*
X005094Y019003D01*
X005228Y019402D02*
X004654Y019402D01*
X004654Y019800D02*
X021054Y019800D01*
X021054Y019402D02*
X020480Y019402D01*
X020614Y019267D02*
X020169Y019713D01*
X019539Y019713D01*
X019132Y019306D01*
X018685Y019753D01*
X018354Y019753D01*
X018354Y018953D01*
X018354Y018953D01*
X018354Y019753D01*
X018023Y019753D01*
X017554Y019284D01*
X017554Y018953D01*
X018354Y018953D01*
X018354Y018952D01*
X018354Y018153D01*
X018685Y018153D01*
X019132Y018600D01*
X019539Y018193D01*
X020169Y018193D01*
X020614Y018638D01*
X020614Y019267D01*
X020614Y019003D02*
X021054Y019003D01*
X021054Y018605D02*
X020581Y018605D01*
X020182Y018206D02*
X021054Y018206D01*
X021054Y017807D02*
X020389Y017807D01*
X020484Y017409D02*
X021054Y017409D01*
X021054Y017010D02*
X020303Y017010D01*
X020611Y016612D02*
X021054Y016612D01*
X021054Y016213D02*
X020578Y016213D01*
X020487Y015815D02*
X021054Y015815D01*
X021054Y015416D02*
X020634Y015416D01*
X020414Y015018D02*
X021054Y015018D01*
X021054Y014619D02*
X020608Y014619D01*
X020581Y014221D02*
X021054Y014221D01*
X021054Y012228D02*
X016422Y012228D01*
X016484Y011829D02*
X021054Y011829D01*
X021054Y011431D02*
X016223Y011431D01*
X016055Y011032D02*
X021054Y011032D01*
X021054Y010634D02*
X016451Y010634D01*
X016261Y010860D02*
X016261Y010860D01*
X016261Y010860D01*
X016785Y010235D02*
X021054Y010235D01*
X021054Y009837D02*
X020762Y009837D01*
X020914Y009685D02*
X020586Y010013D01*
X020122Y010013D01*
X019794Y009685D01*
X019794Y009221D01*
X020122Y008893D01*
X020586Y008893D01*
X020914Y009221D01*
X020914Y009685D01*
X020914Y009438D02*
X021054Y009438D01*
X021054Y009039D02*
X020733Y009039D01*
X021054Y008641D02*
X017518Y008641D01*
X017508Y008700D02*
X017508Y008700D01*
X017384Y009039D02*
X017975Y009039D01*
X018122Y008893D02*
X017794Y009221D01*
X017794Y009685D01*
X018122Y010013D01*
X018586Y010013D01*
X018914Y009685D01*
X018914Y009221D01*
X018586Y008893D01*
X018122Y008893D01*
X018733Y009039D02*
X019975Y009039D01*
X019794Y009438D02*
X018914Y009438D01*
X018762Y009837D02*
X019946Y009837D01*
X021054Y008242D02*
X017589Y008242D01*
X017654Y007844D02*
X021054Y007844D01*
X021054Y007445D02*
X017654Y007445D01*
X017654Y007512D02*
X017654Y007512D01*
X017716Y007047D02*
X020992Y007047D01*
X020838Y006648D02*
X020353Y006648D01*
X020350Y006250D02*
X020543Y006250D01*
X019891Y005851D02*
X018818Y005851D01*
X018854Y006250D02*
X018854Y006250D01*
X018854Y006648D02*
X018854Y006648D01*
X018312Y006648D02*
X017870Y006648D01*
X018165Y006250D02*
X018315Y006250D01*
X017794Y009438D02*
X017239Y009438D01*
X017221Y009489D02*
X017221Y009489D01*
X017020Y009837D02*
X017946Y009837D01*
X015224Y011829D02*
X014863Y011829D01*
X014890Y011819D02*
X014890Y011819D01*
X015286Y012228D02*
X013414Y012228D01*
X013274Y012253D02*
X013274Y012253D01*
X014101Y012107D02*
X014101Y012107D01*
X013539Y013822D02*
X018931Y013822D01*
X016794Y015018D02*
X016484Y015018D01*
X016484Y015078D02*
X016388Y015309D01*
X016211Y015487D01*
X015979Y015583D01*
X015729Y015583D01*
X015497Y015487D01*
X015320Y015309D01*
X015224Y015078D01*
X015224Y014827D01*
X015320Y014596D01*
X015497Y014419D01*
X015729Y014323D01*
X015979Y014323D01*
X016211Y014419D01*
X016388Y014596D01*
X016484Y014827D01*
X016484Y015078D01*
X016574Y015416D02*
X016281Y015416D01*
X016398Y014619D02*
X016600Y014619D01*
X016627Y014221D02*
X013764Y014221D01*
X013784Y014619D02*
X015310Y014619D01*
X015224Y015018D02*
X013604Y015018D01*
X012104Y015018D02*
X010484Y015018D01*
X010484Y015078D02*
X010388Y015309D01*
X010211Y015487D01*
X009979Y015583D01*
X009729Y015583D01*
X009497Y015487D01*
X009320Y015309D01*
X009224Y015078D01*
X009224Y014827D01*
X009320Y014596D01*
X009497Y014419D01*
X009729Y014323D01*
X009979Y014323D01*
X010211Y014419D01*
X010388Y014596D01*
X010484Y014827D01*
X010484Y015078D01*
X010281Y015416D02*
X015427Y015416D01*
X016349Y017010D02*
X016296Y017080D01*
X016252Y017156D01*
X016218Y017237D01*
X016195Y017322D01*
X016184Y017409D01*
X016285Y017807D02*
X013524Y017807D01*
X013758Y018206D02*
X014026Y018206D01*
X014682Y018206D02*
X015469Y018206D01*
X015854Y018206D02*
X015854Y018206D01*
X016239Y018206D02*
X017969Y018206D01*
X018023Y018153D02*
X018354Y018153D01*
X018354Y018952D01*
X018354Y018952D01*
X017554Y018952D01*
X017554Y018621D01*
X018023Y018153D01*
X018354Y018206D02*
X018354Y018206D01*
X018739Y018206D02*
X019526Y018206D01*
X019319Y017807D02*
X017423Y017807D01*
X016854Y017807D02*
X016854Y017807D01*
X016637Y018605D02*
X017571Y018605D01*
X017554Y019003D02*
X016654Y019003D01*
X016536Y019402D02*
X017672Y019402D01*
X018354Y019402D02*
X018354Y019402D01*
X018354Y019003D02*
X018354Y019003D01*
X018354Y018605D02*
X018354Y018605D01*
X019036Y019402D02*
X019228Y019402D01*
X015854Y019402D02*
X015854Y019402D01*
X015854Y019003D02*
X015854Y019003D01*
X015854Y018605D02*
X015854Y018605D01*
X015172Y019402D02*
X014980Y019402D01*
X013728Y019402D02*
X008036Y019402D01*
X007354Y019402D02*
X007354Y019402D01*
X007354Y019003D02*
X007354Y019003D01*
X007354Y018605D02*
X007354Y018605D01*
X006672Y019402D02*
X006480Y019402D01*
X009134Y015416D02*
X009427Y015416D01*
X009224Y015018D02*
X008914Y015018D01*
X009108Y014619D02*
X009310Y014619D01*
X009081Y014221D02*
X011944Y014221D01*
X011924Y014619D02*
X010398Y014619D01*
X005794Y013423D02*
X004654Y013423D01*
X007393Y006250D02*
X007543Y006250D01*
M02*
