G75*
G70*
%OFA0B0*%
%FSLAX24Y24*%
%IPPOS*%
%LPD*%
%AMOC8*
5,1,8,0,0,1.08239X$1,22.5*
%
%ADD10C,0.0000*%
D10*
X004354Y007453D02*
X004354Y019953D01*
X004356Y019997D01*
X004362Y020040D01*
X004371Y020082D01*
X004384Y020124D01*
X004401Y020164D01*
X004421Y020203D01*
X004444Y020240D01*
X004471Y020274D01*
X004500Y020307D01*
X004533Y020336D01*
X004567Y020363D01*
X004604Y020386D01*
X004643Y020406D01*
X004683Y020423D01*
X004725Y020436D01*
X004767Y020445D01*
X004810Y020451D01*
X004854Y020453D01*
X020854Y020453D01*
X020898Y020451D01*
X020941Y020445D01*
X020983Y020436D01*
X021025Y020423D01*
X021065Y020406D01*
X021104Y020386D01*
X021141Y020363D01*
X021175Y020336D01*
X021208Y020307D01*
X021237Y020274D01*
X021264Y020240D01*
X021287Y020203D01*
X021307Y020164D01*
X021324Y020124D01*
X021337Y020082D01*
X021346Y020040D01*
X021352Y019997D01*
X021354Y019953D01*
X021354Y007453D01*
X021352Y007356D01*
X021345Y007260D01*
X021333Y007164D01*
X021317Y007069D01*
X021296Y006974D01*
X021270Y006881D01*
X021241Y006789D01*
X021206Y006699D01*
X021168Y006610D01*
X021125Y006524D01*
X021078Y006439D01*
X021027Y006357D01*
X020972Y006277D01*
X020913Y006201D01*
X020851Y006127D01*
X020785Y006056D01*
X020716Y005988D01*
X020644Y005924D01*
X020568Y005864D01*
X020490Y005807D01*
X020409Y005754D01*
X020326Y005705D01*
X020240Y005660D01*
X020153Y005619D01*
X020063Y005583D01*
X019972Y005551D01*
X019879Y005523D01*
X019786Y005500D01*
X019691Y005482D01*
X019595Y005468D01*
X019499Y005458D01*
X019402Y005454D01*
X019306Y005454D01*
X019209Y005458D01*
X019113Y005468D01*
X019017Y005482D01*
X018922Y005500D01*
X018829Y005523D01*
X018736Y005551D01*
X018645Y005583D01*
X018555Y005619D01*
X018468Y005660D01*
X018382Y005705D01*
X018299Y005754D01*
X018218Y005807D01*
X018140Y005864D01*
X018064Y005924D01*
X017992Y005988D01*
X017923Y006056D01*
X017857Y006127D01*
X017795Y006201D01*
X017736Y006277D01*
X017681Y006357D01*
X017630Y006439D01*
X017583Y006524D01*
X017540Y006610D01*
X017502Y006699D01*
X017467Y006789D01*
X017438Y006881D01*
X017412Y006974D01*
X017391Y007069D01*
X017375Y007164D01*
X017363Y007260D01*
X017356Y007356D01*
X017354Y007453D01*
X017349Y007670D01*
X017333Y007887D01*
X017307Y008103D01*
X017270Y008318D01*
X017223Y008530D01*
X017166Y008740D01*
X017099Y008947D01*
X017022Y009150D01*
X016935Y009349D01*
X016839Y009544D01*
X016733Y009734D01*
X016618Y009919D01*
X016495Y010098D01*
X016363Y010271D01*
X016222Y010437D01*
X016074Y010596D01*
X015919Y010748D01*
X015756Y010892D01*
X015586Y011029D01*
X015410Y011156D01*
X015228Y011276D01*
X015041Y011386D01*
X014848Y011487D01*
X014651Y011579D01*
X014450Y011661D01*
X014245Y011733D01*
X014036Y011795D01*
X013825Y011847D01*
X013612Y011889D01*
X013396Y011920D01*
X013180Y011941D01*
X012963Y011952D01*
X012745Y011952D01*
X012528Y011941D01*
X012312Y011920D01*
X012096Y011889D01*
X011883Y011847D01*
X011672Y011795D01*
X011463Y011733D01*
X011258Y011661D01*
X011057Y011579D01*
X010860Y011487D01*
X010667Y011386D01*
X010480Y011276D01*
X010298Y011156D01*
X010122Y011029D01*
X009952Y010892D01*
X009789Y010748D01*
X009634Y010596D01*
X009486Y010437D01*
X009345Y010271D01*
X009213Y010098D01*
X009090Y009919D01*
X008975Y009734D01*
X008869Y009544D01*
X008773Y009349D01*
X008686Y009150D01*
X008609Y008947D01*
X008542Y008740D01*
X008485Y008530D01*
X008438Y008318D01*
X008401Y008103D01*
X008375Y007887D01*
X008359Y007670D01*
X008354Y007453D01*
X008352Y007356D01*
X008345Y007260D01*
X008333Y007164D01*
X008317Y007069D01*
X008296Y006974D01*
X008270Y006881D01*
X008241Y006789D01*
X008206Y006699D01*
X008168Y006610D01*
X008125Y006524D01*
X008078Y006439D01*
X008027Y006357D01*
X007972Y006277D01*
X007913Y006201D01*
X007851Y006127D01*
X007785Y006056D01*
X007716Y005988D01*
X007644Y005924D01*
X007568Y005864D01*
X007490Y005807D01*
X007409Y005754D01*
X007326Y005705D01*
X007240Y005660D01*
X007153Y005619D01*
X007063Y005583D01*
X006972Y005551D01*
X006879Y005523D01*
X006786Y005500D01*
X006691Y005482D01*
X006595Y005468D01*
X006499Y005458D01*
X006402Y005454D01*
X006306Y005454D01*
X006209Y005458D01*
X006113Y005468D01*
X006017Y005482D01*
X005922Y005500D01*
X005829Y005523D01*
X005736Y005551D01*
X005645Y005583D01*
X005555Y005619D01*
X005468Y005660D01*
X005382Y005705D01*
X005299Y005754D01*
X005218Y005807D01*
X005140Y005864D01*
X005064Y005924D01*
X004992Y005988D01*
X004923Y006056D01*
X004857Y006127D01*
X004795Y006201D01*
X004736Y006277D01*
X004681Y006357D01*
X004630Y006439D01*
X004583Y006524D01*
X004540Y006610D01*
X004502Y006699D01*
X004467Y006789D01*
X004438Y006881D01*
X004412Y006974D01*
X004391Y007069D01*
X004375Y007164D01*
X004363Y007260D01*
X004356Y007356D01*
X004354Y007453D01*
X012224Y014453D02*
X012226Y014503D01*
X012232Y014553D01*
X012242Y014602D01*
X012256Y014650D01*
X012273Y014697D01*
X012294Y014742D01*
X012319Y014786D01*
X012347Y014827D01*
X012379Y014866D01*
X012413Y014903D01*
X012450Y014937D01*
X012490Y014967D01*
X012532Y014994D01*
X012576Y015018D01*
X012622Y015039D01*
X012669Y015055D01*
X012717Y015068D01*
X012767Y015077D01*
X012816Y015082D01*
X012867Y015083D01*
X012917Y015080D01*
X012966Y015073D01*
X013015Y015062D01*
X013063Y015047D01*
X013109Y015029D01*
X013154Y015007D01*
X013197Y014981D01*
X013238Y014952D01*
X013277Y014920D01*
X013313Y014885D01*
X013345Y014847D01*
X013375Y014807D01*
X013402Y014764D01*
X013425Y014720D01*
X013444Y014674D01*
X013460Y014626D01*
X013472Y014577D01*
X013480Y014528D01*
X013484Y014478D01*
X013484Y014428D01*
X013480Y014378D01*
X013472Y014329D01*
X013460Y014280D01*
X013444Y014232D01*
X013425Y014186D01*
X013402Y014142D01*
X013375Y014099D01*
X013345Y014059D01*
X013313Y014021D01*
X013277Y013986D01*
X013238Y013954D01*
X013197Y013925D01*
X013154Y013899D01*
X013109Y013877D01*
X013063Y013859D01*
X013015Y013844D01*
X012966Y013833D01*
X012917Y013826D01*
X012867Y013823D01*
X012816Y013824D01*
X012767Y013829D01*
X012717Y013838D01*
X012669Y013851D01*
X012622Y013867D01*
X012576Y013888D01*
X012532Y013912D01*
X012490Y013939D01*
X012450Y013969D01*
X012413Y014003D01*
X012379Y014040D01*
X012347Y014079D01*
X012319Y014120D01*
X012294Y014164D01*
X012273Y014209D01*
X012256Y014256D01*
X012242Y014304D01*
X012232Y014353D01*
X012226Y014403D01*
X012224Y014453D01*
X012224Y018453D02*
X012226Y018503D01*
X012232Y018553D01*
X012242Y018602D01*
X012256Y018650D01*
X012273Y018697D01*
X012294Y018742D01*
X012319Y018786D01*
X012347Y018827D01*
X012379Y018866D01*
X012413Y018903D01*
X012450Y018937D01*
X012490Y018967D01*
X012532Y018994D01*
X012576Y019018D01*
X012622Y019039D01*
X012669Y019055D01*
X012717Y019068D01*
X012767Y019077D01*
X012816Y019082D01*
X012867Y019083D01*
X012917Y019080D01*
X012966Y019073D01*
X013015Y019062D01*
X013063Y019047D01*
X013109Y019029D01*
X013154Y019007D01*
X013197Y018981D01*
X013238Y018952D01*
X013277Y018920D01*
X013313Y018885D01*
X013345Y018847D01*
X013375Y018807D01*
X013402Y018764D01*
X013425Y018720D01*
X013444Y018674D01*
X013460Y018626D01*
X013472Y018577D01*
X013480Y018528D01*
X013484Y018478D01*
X013484Y018428D01*
X013480Y018378D01*
X013472Y018329D01*
X013460Y018280D01*
X013444Y018232D01*
X013425Y018186D01*
X013402Y018142D01*
X013375Y018099D01*
X013345Y018059D01*
X013313Y018021D01*
X013277Y017986D01*
X013238Y017954D01*
X013197Y017925D01*
X013154Y017899D01*
X013109Y017877D01*
X013063Y017859D01*
X013015Y017844D01*
X012966Y017833D01*
X012917Y017826D01*
X012867Y017823D01*
X012816Y017824D01*
X012767Y017829D01*
X012717Y017838D01*
X012669Y017851D01*
X012622Y017867D01*
X012576Y017888D01*
X012532Y017912D01*
X012490Y017939D01*
X012450Y017969D01*
X012413Y018003D01*
X012379Y018040D01*
X012347Y018079D01*
X012319Y018120D01*
X012294Y018164D01*
X012273Y018209D01*
X012256Y018256D01*
X012242Y018304D01*
X012232Y018353D01*
X012226Y018403D01*
X012224Y018453D01*
M02*
