%
M48
M72
T01C0.0315
T02C0.0320
T03C0.0354
T04C0.0400
T05C0.0550
T06C0.1260
%
T01
X5854Y6453
X6854Y6453
X18854Y6453
X19854Y6453
T02
X19854Y14453
X19854Y15453
X19854Y16453
X17354Y16453
X17354Y15453
X17354Y14453
X8354Y14453
X8354Y15453
X8354Y16453
X5854Y16453
X5854Y15453
X5854Y14453
T03
X5854Y17453
X8854Y17453
X9854Y14953
X9854Y11953
X15854Y11953
X15854Y14953
X16854Y17453
X19854Y17453
T04
X19354Y13453
X18354Y9453
X20354Y9453
X7354Y9453
X5354Y9453
X6354Y13453
T05
X5854Y18953
X7354Y18953
X14354Y18953
X15854Y18953
X18354Y18953
X19854Y18953
T06
X12854Y18453
X12854Y14453
M30
