G75*
G70*
%OFA0B0*%
%FSLAX24Y24*%
%IPPOS*%
%LPD*%
%AMOC8*
5,1,8,0,0,1.08239X$1,22.5*
%
%ADD10C,0.0000*%
%ADD11C,0.0030*%
%ADD12C,0.0100*%
%ADD13R,0.0250X0.0500*%
%ADD14R,0.0500X0.0500*%
%ADD15C,0.0240*%
D10*
X004354Y007453D02*
X004354Y019953D01*
X004356Y019997D01*
X004362Y020040D01*
X004371Y020082D01*
X004384Y020124D01*
X004401Y020164D01*
X004421Y020203D01*
X004444Y020240D01*
X004471Y020274D01*
X004500Y020307D01*
X004533Y020336D01*
X004567Y020363D01*
X004604Y020386D01*
X004643Y020406D01*
X004683Y020423D01*
X004725Y020436D01*
X004767Y020445D01*
X004810Y020451D01*
X004854Y020453D01*
X020854Y020453D01*
X020898Y020451D01*
X020941Y020445D01*
X020983Y020436D01*
X021025Y020423D01*
X021065Y020406D01*
X021104Y020386D01*
X021141Y020363D01*
X021175Y020336D01*
X021208Y020307D01*
X021237Y020274D01*
X021264Y020240D01*
X021287Y020203D01*
X021307Y020164D01*
X021324Y020124D01*
X021337Y020082D01*
X021346Y020040D01*
X021352Y019997D01*
X021354Y019953D01*
X021354Y007453D01*
X021352Y007356D01*
X021345Y007260D01*
X021333Y007164D01*
X021317Y007069D01*
X021296Y006974D01*
X021270Y006881D01*
X021241Y006789D01*
X021206Y006699D01*
X021168Y006610D01*
X021125Y006524D01*
X021078Y006439D01*
X021027Y006357D01*
X020972Y006277D01*
X020913Y006201D01*
X020851Y006127D01*
X020785Y006056D01*
X020716Y005988D01*
X020644Y005924D01*
X020568Y005864D01*
X020490Y005807D01*
X020409Y005754D01*
X020326Y005705D01*
X020240Y005660D01*
X020153Y005619D01*
X020063Y005583D01*
X019972Y005551D01*
X019879Y005523D01*
X019786Y005500D01*
X019691Y005482D01*
X019595Y005468D01*
X019499Y005458D01*
X019402Y005454D01*
X019306Y005454D01*
X019209Y005458D01*
X019113Y005468D01*
X019017Y005482D01*
X018922Y005500D01*
X018829Y005523D01*
X018736Y005551D01*
X018645Y005583D01*
X018555Y005619D01*
X018468Y005660D01*
X018382Y005705D01*
X018299Y005754D01*
X018218Y005807D01*
X018140Y005864D01*
X018064Y005924D01*
X017992Y005988D01*
X017923Y006056D01*
X017857Y006127D01*
X017795Y006201D01*
X017736Y006277D01*
X017681Y006357D01*
X017630Y006439D01*
X017583Y006524D01*
X017540Y006610D01*
X017502Y006699D01*
X017467Y006789D01*
X017438Y006881D01*
X017412Y006974D01*
X017391Y007069D01*
X017375Y007164D01*
X017363Y007260D01*
X017356Y007356D01*
X017354Y007453D01*
X017349Y007670D01*
X017333Y007887D01*
X017307Y008103D01*
X017270Y008318D01*
X017223Y008530D01*
X017166Y008740D01*
X017099Y008947D01*
X017022Y009150D01*
X016935Y009349D01*
X016839Y009544D01*
X016733Y009734D01*
X016618Y009919D01*
X016495Y010098D01*
X016363Y010271D01*
X016222Y010437D01*
X016074Y010596D01*
X015919Y010748D01*
X015756Y010892D01*
X015586Y011029D01*
X015410Y011156D01*
X015228Y011276D01*
X015041Y011386D01*
X014848Y011487D01*
X014651Y011579D01*
X014450Y011661D01*
X014245Y011733D01*
X014036Y011795D01*
X013825Y011847D01*
X013612Y011889D01*
X013396Y011920D01*
X013180Y011941D01*
X012963Y011952D01*
X012745Y011952D01*
X012528Y011941D01*
X012312Y011920D01*
X012096Y011889D01*
X011883Y011847D01*
X011672Y011795D01*
X011463Y011733D01*
X011258Y011661D01*
X011057Y011579D01*
X010860Y011487D01*
X010667Y011386D01*
X010480Y011276D01*
X010298Y011156D01*
X010122Y011029D01*
X009952Y010892D01*
X009789Y010748D01*
X009634Y010596D01*
X009486Y010437D01*
X009345Y010271D01*
X009213Y010098D01*
X009090Y009919D01*
X008975Y009734D01*
X008869Y009544D01*
X008773Y009349D01*
X008686Y009150D01*
X008609Y008947D01*
X008542Y008740D01*
X008485Y008530D01*
X008438Y008318D01*
X008401Y008103D01*
X008375Y007887D01*
X008359Y007670D01*
X008354Y007453D01*
X008352Y007356D01*
X008345Y007260D01*
X008333Y007164D01*
X008317Y007069D01*
X008296Y006974D01*
X008270Y006881D01*
X008241Y006789D01*
X008206Y006699D01*
X008168Y006610D01*
X008125Y006524D01*
X008078Y006439D01*
X008027Y006357D01*
X007972Y006277D01*
X007913Y006201D01*
X007851Y006127D01*
X007785Y006056D01*
X007716Y005988D01*
X007644Y005924D01*
X007568Y005864D01*
X007490Y005807D01*
X007409Y005754D01*
X007326Y005705D01*
X007240Y005660D01*
X007153Y005619D01*
X007063Y005583D01*
X006972Y005551D01*
X006879Y005523D01*
X006786Y005500D01*
X006691Y005482D01*
X006595Y005468D01*
X006499Y005458D01*
X006402Y005454D01*
X006306Y005454D01*
X006209Y005458D01*
X006113Y005468D01*
X006017Y005482D01*
X005922Y005500D01*
X005829Y005523D01*
X005736Y005551D01*
X005645Y005583D01*
X005555Y005619D01*
X005468Y005660D01*
X005382Y005705D01*
X005299Y005754D01*
X005218Y005807D01*
X005140Y005864D01*
X005064Y005924D01*
X004992Y005988D01*
X004923Y006056D01*
X004857Y006127D01*
X004795Y006201D01*
X004736Y006277D01*
X004681Y006357D01*
X004630Y006439D01*
X004583Y006524D01*
X004540Y006610D01*
X004502Y006699D01*
X004467Y006789D01*
X004438Y006881D01*
X004412Y006974D01*
X004391Y007069D01*
X004375Y007164D01*
X004363Y007260D01*
X004356Y007356D01*
X004354Y007453D01*
X012224Y014453D02*
X012226Y014503D01*
X012232Y014553D01*
X012242Y014602D01*
X012256Y014650D01*
X012273Y014697D01*
X012294Y014742D01*
X012319Y014786D01*
X012347Y014827D01*
X012379Y014866D01*
X012413Y014903D01*
X012450Y014937D01*
X012490Y014967D01*
X012532Y014994D01*
X012576Y015018D01*
X012622Y015039D01*
X012669Y015055D01*
X012717Y015068D01*
X012767Y015077D01*
X012816Y015082D01*
X012867Y015083D01*
X012917Y015080D01*
X012966Y015073D01*
X013015Y015062D01*
X013063Y015047D01*
X013109Y015029D01*
X013154Y015007D01*
X013197Y014981D01*
X013238Y014952D01*
X013277Y014920D01*
X013313Y014885D01*
X013345Y014847D01*
X013375Y014807D01*
X013402Y014764D01*
X013425Y014720D01*
X013444Y014674D01*
X013460Y014626D01*
X013472Y014577D01*
X013480Y014528D01*
X013484Y014478D01*
X013484Y014428D01*
X013480Y014378D01*
X013472Y014329D01*
X013460Y014280D01*
X013444Y014232D01*
X013425Y014186D01*
X013402Y014142D01*
X013375Y014099D01*
X013345Y014059D01*
X013313Y014021D01*
X013277Y013986D01*
X013238Y013954D01*
X013197Y013925D01*
X013154Y013899D01*
X013109Y013877D01*
X013063Y013859D01*
X013015Y013844D01*
X012966Y013833D01*
X012917Y013826D01*
X012867Y013823D01*
X012816Y013824D01*
X012767Y013829D01*
X012717Y013838D01*
X012669Y013851D01*
X012622Y013867D01*
X012576Y013888D01*
X012532Y013912D01*
X012490Y013939D01*
X012450Y013969D01*
X012413Y014003D01*
X012379Y014040D01*
X012347Y014079D01*
X012319Y014120D01*
X012294Y014164D01*
X012273Y014209D01*
X012256Y014256D01*
X012242Y014304D01*
X012232Y014353D01*
X012226Y014403D01*
X012224Y014453D01*
X012224Y018453D02*
X012226Y018503D01*
X012232Y018553D01*
X012242Y018602D01*
X012256Y018650D01*
X012273Y018697D01*
X012294Y018742D01*
X012319Y018786D01*
X012347Y018827D01*
X012379Y018866D01*
X012413Y018903D01*
X012450Y018937D01*
X012490Y018967D01*
X012532Y018994D01*
X012576Y019018D01*
X012622Y019039D01*
X012669Y019055D01*
X012717Y019068D01*
X012767Y019077D01*
X012816Y019082D01*
X012867Y019083D01*
X012917Y019080D01*
X012966Y019073D01*
X013015Y019062D01*
X013063Y019047D01*
X013109Y019029D01*
X013154Y019007D01*
X013197Y018981D01*
X013238Y018952D01*
X013277Y018920D01*
X013313Y018885D01*
X013345Y018847D01*
X013375Y018807D01*
X013402Y018764D01*
X013425Y018720D01*
X013444Y018674D01*
X013460Y018626D01*
X013472Y018577D01*
X013480Y018528D01*
X013484Y018478D01*
X013484Y018428D01*
X013480Y018378D01*
X013472Y018329D01*
X013460Y018280D01*
X013444Y018232D01*
X013425Y018186D01*
X013402Y018142D01*
X013375Y018099D01*
X013345Y018059D01*
X013313Y018021D01*
X013277Y017986D01*
X013238Y017954D01*
X013197Y017925D01*
X013154Y017899D01*
X013109Y017877D01*
X013063Y017859D01*
X013015Y017844D01*
X012966Y017833D01*
X012917Y017826D01*
X012867Y017823D01*
X012816Y017824D01*
X012767Y017829D01*
X012717Y017838D01*
X012669Y017851D01*
X012622Y017867D01*
X012576Y017888D01*
X012532Y017912D01*
X012490Y017939D01*
X012450Y017969D01*
X012413Y018003D01*
X012379Y018040D01*
X012347Y018079D01*
X012319Y018120D01*
X012294Y018164D01*
X012273Y018209D01*
X012256Y018256D01*
X012242Y018304D01*
X012232Y018353D01*
X012226Y018403D01*
X012224Y018453D01*
D11*
X014132Y019691D02*
X014256Y019568D01*
X014379Y019691D01*
X014379Y019938D01*
X014501Y019753D02*
X014748Y019753D01*
X014624Y019876D02*
X014624Y019629D01*
X014132Y019691D02*
X014132Y019938D01*
X015514Y019876D02*
X015514Y019629D01*
X015576Y019568D01*
X015699Y019568D01*
X015761Y019629D01*
X015761Y019753D01*
X015638Y019753D01*
X015761Y019876D02*
X015699Y019938D01*
X015576Y019938D01*
X015514Y019876D01*
X015882Y019938D02*
X016129Y019568D01*
X016129Y019938D01*
X016251Y019938D02*
X016436Y019938D01*
X016498Y019876D01*
X016498Y019629D01*
X016436Y019568D01*
X016251Y019568D01*
X016251Y019938D01*
X015882Y019938D02*
X015882Y019568D01*
X017975Y019568D02*
X017975Y019938D01*
X018098Y019814D01*
X018222Y019938D01*
X018222Y019568D01*
X018343Y019629D02*
X018405Y019568D01*
X018528Y019568D01*
X018590Y019629D01*
X018590Y019753D01*
X018528Y019814D01*
X018405Y019814D01*
X018343Y019753D01*
X018343Y019629D01*
X018712Y019814D02*
X018835Y019814D01*
X018773Y019876D02*
X018773Y019629D01*
X018835Y019568D01*
X018957Y019629D02*
X019019Y019568D01*
X019142Y019568D01*
X019204Y019629D01*
X019204Y019753D01*
X019142Y019814D01*
X019019Y019814D01*
X018957Y019753D01*
X018957Y019629D01*
X019325Y019568D02*
X019325Y019814D01*
X019325Y019691D02*
X019449Y019814D01*
X019511Y019814D01*
X020001Y019876D02*
X020062Y019938D01*
X020186Y019938D01*
X020247Y019876D01*
X020247Y019814D01*
X020001Y019568D01*
X020247Y019568D01*
X015489Y013846D02*
X015304Y013661D01*
X015366Y013599D02*
X015119Y013846D01*
X015119Y013599D02*
X015489Y013599D01*
X015489Y013478D02*
X015489Y013231D01*
X015489Y013354D02*
X015119Y013354D01*
X015242Y013231D01*
X019156Y012661D02*
X019156Y012414D01*
X019156Y012538D02*
X019526Y012538D01*
X019464Y012293D02*
X019217Y012293D01*
X019156Y012231D01*
X019156Y012108D01*
X019217Y012046D01*
X019464Y012046D01*
X019526Y012108D01*
X019526Y012231D01*
X019464Y012293D01*
X019341Y011925D02*
X019217Y011925D01*
X019156Y011863D01*
X019156Y011678D01*
X019526Y011678D01*
X019403Y011678D02*
X019403Y011863D01*
X019341Y011925D01*
X019526Y011188D02*
X019341Y011003D01*
X019403Y010941D02*
X019156Y011188D01*
X019156Y010941D02*
X019526Y010941D01*
X019464Y010820D02*
X019217Y010820D01*
X019464Y010573D01*
X019526Y010635D01*
X019526Y010758D01*
X019464Y010820D01*
X019217Y010820D02*
X019156Y010758D01*
X019156Y010635D01*
X019217Y010573D01*
X019464Y010573D01*
X019526Y010451D02*
X019526Y010205D01*
X019279Y010451D01*
X019217Y010451D01*
X019156Y010390D01*
X019156Y010266D01*
X019217Y010205D01*
X019056Y007901D02*
X019056Y007531D01*
X019303Y007531D01*
X019424Y007531D02*
X019609Y007531D01*
X019671Y007592D01*
X019671Y007839D01*
X019609Y007901D01*
X019424Y007901D01*
X019424Y007531D01*
X019793Y007531D02*
X019793Y007901D01*
X019978Y007901D01*
X020039Y007839D01*
X020039Y007716D01*
X019978Y007654D01*
X019793Y007654D01*
X019916Y007654D02*
X020039Y007531D01*
X010589Y013218D02*
X010589Y013464D01*
X010589Y013586D02*
X010219Y013586D01*
X010404Y013648D02*
X010589Y013833D01*
X010466Y013586D02*
X010219Y013833D01*
X010219Y013341D02*
X010589Y013341D01*
X010342Y013218D02*
X010219Y013341D01*
X006576Y012551D02*
X006206Y012551D01*
X006206Y012674D02*
X006206Y012427D01*
X006267Y012306D02*
X006206Y012244D01*
X006206Y012121D01*
X006267Y012059D01*
X006514Y012059D01*
X006576Y012121D01*
X006576Y012244D01*
X006514Y012306D01*
X006267Y012306D01*
X006267Y011938D02*
X006206Y011876D01*
X006206Y011691D01*
X006576Y011691D01*
X006453Y011691D02*
X006453Y011876D01*
X006391Y011938D01*
X006267Y011938D01*
X006206Y011201D02*
X006453Y010954D01*
X006391Y011016D02*
X006576Y011201D01*
X006576Y010954D02*
X006206Y010954D01*
X006267Y010833D02*
X006206Y010771D01*
X006206Y010648D01*
X006267Y010586D01*
X006514Y010586D01*
X006267Y010833D01*
X006514Y010833D01*
X006576Y010771D01*
X006576Y010648D01*
X006514Y010586D01*
X006576Y010464D02*
X006576Y010218D01*
X006329Y010464D01*
X006267Y010464D01*
X006206Y010403D01*
X006206Y010279D01*
X006267Y010218D01*
X006119Y007901D02*
X006119Y007531D01*
X006366Y007531D01*
X006487Y007531D02*
X006672Y007531D01*
X006734Y007592D01*
X006734Y007839D01*
X006672Y007901D01*
X006487Y007901D01*
X006487Y007531D01*
X006856Y007531D02*
X006856Y007901D01*
X007041Y007901D01*
X007102Y007839D01*
X007102Y007716D01*
X007041Y007654D01*
X006856Y007654D01*
X006979Y007654D02*
X007102Y007531D01*
X006825Y019568D02*
X006825Y019814D01*
X006825Y019691D02*
X006949Y019814D01*
X007011Y019814D01*
X006704Y019753D02*
X006704Y019629D01*
X006642Y019568D01*
X006519Y019568D01*
X006457Y019629D01*
X006457Y019753D01*
X006519Y019814D01*
X006642Y019814D01*
X006704Y019753D01*
X006335Y019814D02*
X006212Y019814D01*
X006273Y019876D02*
X006273Y019629D01*
X006335Y019568D01*
X006090Y019629D02*
X006090Y019753D01*
X006028Y019814D01*
X005905Y019814D01*
X005843Y019753D01*
X005843Y019629D01*
X005905Y019568D01*
X006028Y019568D01*
X006090Y019629D01*
X005722Y019568D02*
X005722Y019938D01*
X005598Y019814D01*
X005475Y019938D01*
X005475Y019568D01*
X007501Y019568D02*
X007747Y019568D01*
X007624Y019568D02*
X007624Y019938D01*
X007501Y019814D01*
D12*
X008354Y017766D02*
X006354Y017766D01*
X006354Y017266D01*
X008354Y017266D01*
X008354Y017766D01*
X008854Y016516D02*
X008884Y016514D01*
X008914Y016509D01*
X008943Y016500D01*
X008970Y016487D01*
X008996Y016472D01*
X009020Y016453D01*
X009041Y016432D01*
X009060Y016408D01*
X009075Y016382D01*
X009088Y016355D01*
X009097Y016326D01*
X009102Y016296D01*
X009104Y016266D01*
X009104Y014766D01*
X009102Y014736D01*
X009097Y014706D01*
X009088Y014677D01*
X009075Y014650D01*
X009060Y014624D01*
X009041Y014600D01*
X009020Y014579D01*
X008996Y014560D01*
X008970Y014545D01*
X008943Y014532D01*
X008914Y014523D01*
X008884Y014518D01*
X008854Y014516D01*
X009604Y014453D02*
X009604Y012453D01*
X010104Y012453D01*
X010104Y014453D01*
X009604Y014453D01*
X007353Y015515D02*
X007357Y015587D01*
X007365Y015659D01*
X007377Y015730D01*
X007393Y015801D01*
X007412Y015870D01*
X007435Y015938D01*
X007462Y016005D01*
X007493Y016071D01*
X007527Y016134D01*
X007564Y016196D01*
X007605Y016256D01*
X007649Y016313D01*
X007696Y016368D01*
X007746Y016420D01*
X007798Y016469D01*
X007854Y016515D01*
X007353Y015516D02*
X007357Y015444D01*
X007365Y015372D01*
X007377Y015301D01*
X007393Y015230D01*
X007412Y015161D01*
X007435Y015093D01*
X007462Y015026D01*
X007493Y014960D01*
X007527Y014897D01*
X007564Y014835D01*
X007605Y014775D01*
X007649Y014718D01*
X007696Y014663D01*
X007746Y014611D01*
X007798Y014562D01*
X007854Y014516D01*
X006604Y014766D02*
X006604Y016266D01*
X006602Y016296D01*
X006597Y016326D01*
X006588Y016355D01*
X006575Y016382D01*
X006560Y016408D01*
X006541Y016432D01*
X006520Y016453D01*
X006496Y016472D01*
X006470Y016487D01*
X006443Y016500D01*
X006414Y016509D01*
X006384Y016514D01*
X006354Y016516D01*
X004853Y015516D02*
X004857Y015444D01*
X004865Y015372D01*
X004877Y015301D01*
X004893Y015230D01*
X004912Y015161D01*
X004935Y015093D01*
X004962Y015026D01*
X004993Y014960D01*
X005027Y014897D01*
X005064Y014835D01*
X005105Y014775D01*
X005149Y014718D01*
X005196Y014663D01*
X005246Y014611D01*
X005298Y014562D01*
X005354Y014516D01*
X006354Y014516D02*
X006384Y014518D01*
X006414Y014523D01*
X006443Y014532D01*
X006470Y014545D01*
X006496Y014560D01*
X006520Y014579D01*
X006541Y014600D01*
X006560Y014624D01*
X006575Y014650D01*
X006588Y014677D01*
X006597Y014706D01*
X006602Y014736D01*
X006604Y014766D01*
X004853Y015515D02*
X004857Y015587D01*
X004865Y015659D01*
X004877Y015730D01*
X004893Y015801D01*
X004912Y015870D01*
X004935Y015938D01*
X004962Y016005D01*
X004993Y016071D01*
X005027Y016134D01*
X005064Y016196D01*
X005105Y016256D01*
X005149Y016313D01*
X005196Y016368D01*
X005246Y016420D01*
X005298Y016469D01*
X005354Y016515D01*
X005104Y012953D02*
X007604Y012953D01*
X007604Y009953D01*
X005104Y009953D01*
X005104Y012953D01*
X005854Y006203D02*
X005854Y005953D01*
X006854Y005953D02*
X006854Y006203D01*
X015604Y012453D02*
X015604Y014453D01*
X016104Y014453D01*
X016104Y012453D01*
X015604Y012453D01*
X018104Y012953D02*
X020604Y012953D01*
X020604Y009953D01*
X018104Y009953D01*
X018104Y012953D01*
X018041Y014766D02*
X018041Y016266D01*
X018039Y016296D01*
X018034Y016326D01*
X018025Y016355D01*
X018012Y016382D01*
X017997Y016408D01*
X017978Y016432D01*
X017957Y016453D01*
X017933Y016472D01*
X017907Y016487D01*
X017880Y016500D01*
X017851Y016509D01*
X017821Y016514D01*
X017791Y016516D01*
X017291Y017266D02*
X017291Y017766D01*
X019291Y017766D01*
X019291Y017266D01*
X017291Y017266D01*
X016290Y015516D02*
X016294Y015444D01*
X016302Y015372D01*
X016314Y015301D01*
X016330Y015230D01*
X016349Y015161D01*
X016372Y015093D01*
X016399Y015026D01*
X016430Y014960D01*
X016464Y014897D01*
X016501Y014835D01*
X016542Y014775D01*
X016586Y014718D01*
X016633Y014663D01*
X016683Y014611D01*
X016735Y014562D01*
X016791Y014516D01*
X017791Y014516D02*
X017821Y014518D01*
X017851Y014523D01*
X017880Y014532D01*
X017907Y014545D01*
X017933Y014560D01*
X017957Y014579D01*
X017978Y014600D01*
X017997Y014624D01*
X018012Y014650D01*
X018025Y014677D01*
X018034Y014706D01*
X018039Y014736D01*
X018041Y014766D01*
X016290Y015515D02*
X016294Y015587D01*
X016302Y015659D01*
X016314Y015730D01*
X016330Y015801D01*
X016349Y015870D01*
X016372Y015938D01*
X016399Y016005D01*
X016430Y016071D01*
X016464Y016134D01*
X016501Y016196D01*
X016542Y016256D01*
X016586Y016313D01*
X016633Y016368D01*
X016683Y016420D01*
X016735Y016469D01*
X016791Y016515D01*
X018790Y015516D02*
X018794Y015444D01*
X018802Y015372D01*
X018814Y015301D01*
X018830Y015230D01*
X018849Y015161D01*
X018872Y015093D01*
X018899Y015026D01*
X018930Y014960D01*
X018964Y014897D01*
X019001Y014835D01*
X019042Y014775D01*
X019086Y014718D01*
X019133Y014663D01*
X019183Y014611D01*
X019235Y014562D01*
X019291Y014516D01*
X020291Y014516D02*
X020321Y014518D01*
X020351Y014523D01*
X020380Y014532D01*
X020407Y014545D01*
X020433Y014560D01*
X020457Y014579D01*
X020478Y014600D01*
X020497Y014624D01*
X020512Y014650D01*
X020525Y014677D01*
X020534Y014706D01*
X020539Y014736D01*
X020541Y014766D01*
X020541Y016266D01*
X020539Y016296D01*
X020534Y016326D01*
X020525Y016355D01*
X020512Y016382D01*
X020497Y016408D01*
X020478Y016432D01*
X020457Y016453D01*
X020433Y016472D01*
X020407Y016487D01*
X020380Y016500D01*
X020351Y016509D01*
X020321Y016514D01*
X020291Y016516D01*
X019291Y016515D02*
X019235Y016469D01*
X019183Y016420D01*
X019133Y016368D01*
X019086Y016313D01*
X019042Y016256D01*
X019001Y016196D01*
X018964Y016134D01*
X018930Y016071D01*
X018899Y016005D01*
X018872Y015938D01*
X018849Y015870D01*
X018830Y015801D01*
X018814Y015730D01*
X018802Y015659D01*
X018794Y015587D01*
X018790Y015515D01*
X018854Y006203D02*
X018854Y005953D01*
X019854Y005953D02*
X019854Y006203D01*
D13*
X019166Y017516D03*
D14*
X019041Y017503D03*
X006604Y017503D03*
D15*
X005854Y005953D02*
X005604Y005953D01*
X005854Y005953D02*
X006854Y005953D01*
X007104Y005953D01*
X018604Y005953D02*
X018854Y005953D01*
X019854Y005953D01*
X020104Y005953D01*
M02*
