G75*
G70*
%OFA0B0*%
%FSLAX24Y24*%
%IPPOS*%
%LPD*%
%AMOC8*
5,1,8,0,0,1.08239X$1,22.5*
%
%ADD10C,0.0000*%
D10*
X003097Y001522D02*
X003097Y017270D01*
X020814Y017270D01*
X020814Y001522D01*
X003097Y001522D01*
X018299Y016422D02*
X018301Y016472D01*
X018307Y016522D01*
X018317Y016571D01*
X018331Y016619D01*
X018348Y016666D01*
X018369Y016711D01*
X018394Y016755D01*
X018422Y016796D01*
X018454Y016835D01*
X018488Y016872D01*
X018525Y016906D01*
X018565Y016936D01*
X018607Y016963D01*
X018651Y016987D01*
X018697Y017008D01*
X018744Y017024D01*
X018792Y017037D01*
X018842Y017046D01*
X018891Y017051D01*
X018942Y017052D01*
X018992Y017049D01*
X019041Y017042D01*
X019090Y017031D01*
X019138Y017016D01*
X019184Y016998D01*
X019229Y016976D01*
X019272Y016950D01*
X019313Y016921D01*
X019352Y016889D01*
X019388Y016854D01*
X019420Y016816D01*
X019450Y016776D01*
X019477Y016733D01*
X019500Y016689D01*
X019519Y016643D01*
X019535Y016595D01*
X019547Y016546D01*
X019555Y016497D01*
X019559Y016447D01*
X019559Y016397D01*
X019555Y016347D01*
X019547Y016298D01*
X019535Y016249D01*
X019519Y016201D01*
X019500Y016155D01*
X019477Y016111D01*
X019450Y016068D01*
X019420Y016028D01*
X019388Y015990D01*
X019352Y015955D01*
X019313Y015923D01*
X019272Y015894D01*
X019229Y015868D01*
X019184Y015846D01*
X019138Y015828D01*
X019090Y015813D01*
X019041Y015802D01*
X018992Y015795D01*
X018942Y015792D01*
X018891Y015793D01*
X018842Y015798D01*
X018792Y015807D01*
X018744Y015820D01*
X018697Y015836D01*
X018651Y015857D01*
X018607Y015881D01*
X018565Y015908D01*
X018525Y015938D01*
X018488Y015972D01*
X018454Y016009D01*
X018422Y016048D01*
X018394Y016089D01*
X018369Y016133D01*
X018348Y016178D01*
X018331Y016225D01*
X018317Y016273D01*
X018307Y016322D01*
X018301Y016372D01*
X018299Y016422D01*
X019349Y002622D02*
X019351Y002672D01*
X019357Y002722D01*
X019367Y002771D01*
X019381Y002819D01*
X019398Y002866D01*
X019419Y002911D01*
X019444Y002955D01*
X019472Y002996D01*
X019504Y003035D01*
X019538Y003072D01*
X019575Y003106D01*
X019615Y003136D01*
X019657Y003163D01*
X019701Y003187D01*
X019747Y003208D01*
X019794Y003224D01*
X019842Y003237D01*
X019892Y003246D01*
X019941Y003251D01*
X019992Y003252D01*
X020042Y003249D01*
X020091Y003242D01*
X020140Y003231D01*
X020188Y003216D01*
X020234Y003198D01*
X020279Y003176D01*
X020322Y003150D01*
X020363Y003121D01*
X020402Y003089D01*
X020438Y003054D01*
X020470Y003016D01*
X020500Y002976D01*
X020527Y002933D01*
X020550Y002889D01*
X020569Y002843D01*
X020585Y002795D01*
X020597Y002746D01*
X020605Y002697D01*
X020609Y002647D01*
X020609Y002597D01*
X020605Y002547D01*
X020597Y002498D01*
X020585Y002449D01*
X020569Y002401D01*
X020550Y002355D01*
X020527Y002311D01*
X020500Y002268D01*
X020470Y002228D01*
X020438Y002190D01*
X020402Y002155D01*
X020363Y002123D01*
X020322Y002094D01*
X020279Y002068D01*
X020234Y002046D01*
X020188Y002028D01*
X020140Y002013D01*
X020091Y002002D01*
X020042Y001995D01*
X019992Y001992D01*
X019941Y001993D01*
X019892Y001998D01*
X019842Y002007D01*
X019794Y002020D01*
X019747Y002036D01*
X019701Y002057D01*
X019657Y002081D01*
X019615Y002108D01*
X019575Y002138D01*
X019538Y002172D01*
X019504Y002209D01*
X019472Y002248D01*
X019444Y002289D01*
X019419Y002333D01*
X019398Y002378D01*
X019381Y002425D01*
X019367Y002473D01*
X019357Y002522D01*
X019351Y002572D01*
X019349Y002622D01*
M02*
