G75*
G70*
%OFA0B0*%
%FSLAX24Y24*%
%IPPOS*%
%LPD*%
%AMOC8*
5,1,8,0,0,1.08239X$1,22.5*
%
%ADD10C,0.0000*%
%ADD11C,0.0060*%
%ADD12C,0.0040*%
%ADD13C,0.0100*%
%ADD14C,0.0030*%
%ADD15C,0.0160*%
D10*
X003097Y001522D02*
X003097Y017270D01*
X020814Y017270D01*
X020814Y001522D01*
X003097Y001522D01*
X018299Y016422D02*
X018301Y016472D01*
X018307Y016522D01*
X018317Y016571D01*
X018331Y016619D01*
X018348Y016666D01*
X018369Y016711D01*
X018394Y016755D01*
X018422Y016796D01*
X018454Y016835D01*
X018488Y016872D01*
X018525Y016906D01*
X018565Y016936D01*
X018607Y016963D01*
X018651Y016987D01*
X018697Y017008D01*
X018744Y017024D01*
X018792Y017037D01*
X018842Y017046D01*
X018891Y017051D01*
X018942Y017052D01*
X018992Y017049D01*
X019041Y017042D01*
X019090Y017031D01*
X019138Y017016D01*
X019184Y016998D01*
X019229Y016976D01*
X019272Y016950D01*
X019313Y016921D01*
X019352Y016889D01*
X019388Y016854D01*
X019420Y016816D01*
X019450Y016776D01*
X019477Y016733D01*
X019500Y016689D01*
X019519Y016643D01*
X019535Y016595D01*
X019547Y016546D01*
X019555Y016497D01*
X019559Y016447D01*
X019559Y016397D01*
X019555Y016347D01*
X019547Y016298D01*
X019535Y016249D01*
X019519Y016201D01*
X019500Y016155D01*
X019477Y016111D01*
X019450Y016068D01*
X019420Y016028D01*
X019388Y015990D01*
X019352Y015955D01*
X019313Y015923D01*
X019272Y015894D01*
X019229Y015868D01*
X019184Y015846D01*
X019138Y015828D01*
X019090Y015813D01*
X019041Y015802D01*
X018992Y015795D01*
X018942Y015792D01*
X018891Y015793D01*
X018842Y015798D01*
X018792Y015807D01*
X018744Y015820D01*
X018697Y015836D01*
X018651Y015857D01*
X018607Y015881D01*
X018565Y015908D01*
X018525Y015938D01*
X018488Y015972D01*
X018454Y016009D01*
X018422Y016048D01*
X018394Y016089D01*
X018369Y016133D01*
X018348Y016178D01*
X018331Y016225D01*
X018317Y016273D01*
X018307Y016322D01*
X018301Y016372D01*
X018299Y016422D01*
X019349Y002622D02*
X019351Y002672D01*
X019357Y002722D01*
X019367Y002771D01*
X019381Y002819D01*
X019398Y002866D01*
X019419Y002911D01*
X019444Y002955D01*
X019472Y002996D01*
X019504Y003035D01*
X019538Y003072D01*
X019575Y003106D01*
X019615Y003136D01*
X019657Y003163D01*
X019701Y003187D01*
X019747Y003208D01*
X019794Y003224D01*
X019842Y003237D01*
X019892Y003246D01*
X019941Y003251D01*
X019992Y003252D01*
X020042Y003249D01*
X020091Y003242D01*
X020140Y003231D01*
X020188Y003216D01*
X020234Y003198D01*
X020279Y003176D01*
X020322Y003150D01*
X020363Y003121D01*
X020402Y003089D01*
X020438Y003054D01*
X020470Y003016D01*
X020500Y002976D01*
X020527Y002933D01*
X020550Y002889D01*
X020569Y002843D01*
X020585Y002795D01*
X020597Y002746D01*
X020605Y002697D01*
X020609Y002647D01*
X020609Y002597D01*
X020605Y002547D01*
X020597Y002498D01*
X020585Y002449D01*
X020569Y002401D01*
X020550Y002355D01*
X020527Y002311D01*
X020500Y002268D01*
X020470Y002228D01*
X020438Y002190D01*
X020402Y002155D01*
X020363Y002123D01*
X020322Y002094D01*
X020279Y002068D01*
X020234Y002046D01*
X020188Y002028D01*
X020140Y002013D01*
X020091Y002002D01*
X020042Y001995D01*
X019992Y001992D01*
X019941Y001993D01*
X019892Y001998D01*
X019842Y002007D01*
X019794Y002020D01*
X019747Y002036D01*
X019701Y002057D01*
X019657Y002081D01*
X019615Y002108D01*
X019575Y002138D01*
X019538Y002172D01*
X019504Y002209D01*
X019472Y002248D01*
X019444Y002289D01*
X019419Y002333D01*
X019398Y002378D01*
X019381Y002425D01*
X019367Y002473D01*
X019357Y002522D01*
X019351Y002572D01*
X019349Y002622D01*
D11*
X007825Y006342D02*
X007398Y006342D01*
X007611Y006342D02*
X007611Y005702D01*
X007180Y005809D02*
X007074Y005702D01*
X006860Y005702D01*
X006753Y005809D01*
X006753Y006342D01*
X006536Y006236D02*
X006429Y006342D01*
X006216Y006342D01*
X006109Y006236D01*
X006109Y005809D01*
X006216Y005702D01*
X006429Y005702D01*
X006536Y005809D01*
X006536Y006236D01*
X007180Y006342D02*
X007180Y005809D01*
X007117Y007709D02*
X007117Y008136D01*
X007330Y007922D02*
X006903Y007922D01*
X006686Y007815D02*
X006686Y008242D01*
X006686Y007815D02*
X006472Y007602D01*
X006259Y007815D01*
X006259Y008242D01*
X006366Y009652D02*
X006579Y009652D01*
X006686Y009759D01*
X006686Y009972D01*
X006472Y009972D01*
X006259Y009759D02*
X006366Y009652D01*
X006259Y009759D02*
X006259Y010186D01*
X006366Y010292D01*
X006579Y010292D01*
X006686Y010186D01*
X006689Y011602D02*
X006689Y012242D01*
X007116Y011602D01*
X007116Y012242D01*
X006472Y012242D02*
X006259Y012242D01*
X006366Y012242D02*
X006366Y011602D01*
X006472Y011602D02*
X006259Y011602D01*
X006466Y013602D02*
X006359Y013709D01*
X006359Y014136D01*
X006466Y014242D01*
X006679Y014242D01*
X006786Y014136D01*
X006786Y013922D02*
X006572Y013922D01*
X006786Y013922D02*
X006786Y013709D01*
X006679Y013602D01*
X006466Y013602D01*
X006672Y015502D02*
X006459Y015715D01*
X006459Y016142D01*
X006886Y016142D02*
X006886Y015715D01*
X006672Y015502D01*
X007103Y015822D02*
X007530Y015822D01*
X007317Y016036D02*
X007317Y015609D01*
D12*
X017498Y015728D02*
X017959Y015728D01*
X017959Y016035D01*
X017882Y016265D02*
X017575Y016265D01*
X017652Y016189D02*
X017652Y016342D01*
X017729Y016495D02*
X017652Y016572D01*
X017652Y016802D01*
X017498Y016802D02*
X017959Y016802D01*
X017959Y016572D01*
X017882Y016495D01*
X017729Y016495D01*
X017882Y016265D02*
X017959Y016342D01*
X017882Y015114D02*
X017805Y015038D01*
X017805Y014884D01*
X017729Y014807D01*
X017652Y014884D01*
X017652Y015114D01*
X017882Y015114D02*
X017959Y015038D01*
X017959Y014807D01*
X017959Y014654D02*
X017959Y014424D01*
X017882Y014347D01*
X017729Y014347D01*
X017652Y014424D01*
X017652Y014654D01*
X017959Y014194D02*
X017959Y014040D01*
X017959Y014117D02*
X017652Y014117D01*
X017652Y014040D01*
X017652Y013887D02*
X017652Y013733D01*
X017575Y013810D02*
X017882Y013810D01*
X017959Y013887D01*
X018175Y013695D02*
X018482Y013695D01*
X018329Y013542D02*
X018329Y013849D01*
X017959Y013503D02*
X017882Y013580D01*
X017729Y013580D01*
X017652Y013503D01*
X017652Y013350D01*
X017729Y013273D01*
X017882Y013273D01*
X017959Y013350D01*
X017959Y013503D01*
X017882Y013119D02*
X017729Y013119D01*
X017652Y013043D01*
X017652Y012813D01*
X017498Y012813D02*
X017959Y012813D01*
X017959Y013043D01*
X017882Y013119D01*
X017882Y012659D02*
X017729Y012659D01*
X017652Y012582D01*
X017652Y012429D01*
X017729Y012352D01*
X017882Y012352D01*
X017959Y012429D01*
X017959Y012582D01*
X017882Y012659D01*
X017882Y012199D02*
X017729Y012199D01*
X017729Y012045D01*
X017882Y011892D02*
X017575Y011892D01*
X017498Y011969D01*
X017498Y012122D01*
X017575Y012199D01*
X017882Y012199D02*
X017959Y012122D01*
X017959Y011969D01*
X017882Y011892D01*
X018798Y012492D02*
X019259Y012492D01*
X019029Y012492D02*
X019029Y012799D01*
X019029Y012952D02*
X019029Y013259D01*
X018952Y013259D02*
X019259Y013259D01*
X019182Y013413D02*
X019259Y013489D01*
X019259Y013643D01*
X019182Y013719D01*
X019182Y013873D02*
X019259Y013873D01*
X019259Y013950D01*
X019182Y013950D01*
X019182Y013873D01*
X019029Y013873D02*
X019029Y013950D01*
X018952Y013950D01*
X018952Y013873D01*
X019029Y013873D01*
X018875Y013719D02*
X018798Y013643D01*
X018798Y013489D01*
X018875Y013413D01*
X019182Y013413D01*
X018952Y013259D02*
X018798Y013106D01*
X018952Y012952D01*
X019259Y012952D01*
X019259Y012799D02*
X018798Y012799D01*
X019898Y013533D02*
X019898Y013610D01*
X020359Y013610D01*
X020359Y013533D02*
X020359Y013687D01*
X020282Y013380D02*
X020129Y013380D01*
X020052Y013303D01*
X020052Y013150D01*
X020129Y013073D01*
X020282Y013073D01*
X020359Y013150D01*
X020359Y013303D01*
X020282Y013380D01*
X020052Y012920D02*
X020052Y012843D01*
X020205Y012689D01*
X020052Y012689D02*
X020359Y012689D01*
X020359Y012536D02*
X020282Y012459D01*
X019975Y012459D01*
X020052Y012382D02*
X020052Y012536D01*
X020129Y012229D02*
X020359Y012229D01*
X020129Y012229D02*
X020052Y012152D01*
X020052Y011922D01*
X020359Y011922D01*
X020282Y011769D02*
X020129Y011769D01*
X020052Y011692D01*
X020052Y011538D01*
X020129Y011462D01*
X020282Y011462D01*
X020359Y011538D01*
X020359Y011692D01*
X020282Y011769D01*
X020282Y011308D02*
X020359Y011232D01*
X020359Y011078D01*
X020282Y011001D01*
X019975Y011001D01*
X019898Y011078D01*
X019898Y011232D01*
X019975Y011308D01*
X020052Y010388D02*
X020052Y010157D01*
X020129Y010081D01*
X020205Y010157D01*
X020205Y010311D01*
X020282Y010388D01*
X020359Y010311D01*
X020359Y010081D01*
X020282Y009927D02*
X020205Y009851D01*
X020205Y009697D01*
X020129Y009620D01*
X020052Y009697D01*
X020052Y009927D01*
X020282Y009927D02*
X020359Y009851D01*
X020359Y009620D01*
X020205Y009467D02*
X020129Y009467D01*
X020052Y009390D01*
X020052Y009237D01*
X020129Y009160D01*
X020282Y009160D01*
X020359Y009237D01*
X020359Y009390D01*
X020205Y009467D02*
X020205Y009160D01*
X020359Y009007D02*
X020359Y008853D01*
X020359Y008930D02*
X019898Y008930D01*
X019898Y008853D01*
X020052Y008623D02*
X020129Y008700D01*
X020205Y008700D01*
X020205Y008393D01*
X020129Y008393D02*
X020282Y008393D01*
X020359Y008469D01*
X020359Y008623D01*
X020052Y008623D02*
X020052Y008469D01*
X020129Y008393D01*
X020052Y008239D02*
X020052Y008163D01*
X020205Y008009D01*
X020052Y008009D02*
X020359Y008009D01*
X020359Y007856D02*
X020359Y007702D01*
X020359Y007779D02*
X020052Y007779D01*
X020052Y007702D01*
X019898Y007779D02*
X019822Y007779D01*
X019898Y007549D02*
X020359Y007549D01*
X020205Y007395D01*
X020359Y007242D01*
X019898Y007242D01*
X019226Y002252D02*
X019072Y002252D01*
X018996Y002176D01*
X019226Y002252D02*
X019302Y002176D01*
X019302Y002099D01*
X018996Y001792D01*
X019302Y001792D01*
X018842Y001792D02*
X018535Y001792D01*
X018689Y001792D02*
X018689Y002252D01*
X018535Y002099D01*
X018382Y002176D02*
X018382Y001869D01*
X018305Y001792D01*
X018152Y001792D01*
X018075Y001869D01*
X018382Y002176D01*
X018305Y002252D01*
X018152Y002252D01*
X018075Y002176D01*
X018075Y001869D01*
X017921Y001792D02*
X017615Y001792D01*
X017921Y002099D01*
X017921Y002176D01*
X017845Y002252D01*
X017691Y002252D01*
X017615Y002176D01*
X017001Y002099D02*
X017001Y001945D01*
X016847Y001792D01*
X016694Y001792D02*
X016464Y001792D01*
X016387Y001869D01*
X016387Y002022D01*
X016464Y002099D01*
X016694Y002099D01*
X016847Y002252D02*
X017001Y002099D01*
X016233Y002252D02*
X016080Y002099D01*
X016080Y001945D01*
X016233Y001792D01*
X015466Y001792D02*
X015466Y002022D01*
X015389Y002099D01*
X015236Y002099D01*
X015159Y002022D01*
X015006Y002099D02*
X014776Y002099D01*
X014699Y002022D01*
X014699Y001869D01*
X014776Y001792D01*
X015006Y001792D01*
X015006Y001715D02*
X015006Y002099D01*
X015159Y002252D02*
X015159Y001792D01*
X015006Y001715D02*
X014929Y001638D01*
X014852Y001638D01*
X014546Y001792D02*
X014546Y002099D01*
X014546Y001792D02*
X014315Y001792D01*
X014239Y001869D01*
X014239Y002099D01*
X014085Y002022D02*
X014008Y002099D01*
X013855Y002099D01*
X013778Y002022D01*
X013778Y001869D01*
X013855Y001792D01*
X014008Y001792D01*
X014085Y001869D01*
X014085Y002022D01*
X013625Y001792D02*
X013471Y001792D01*
X013548Y001792D02*
X013548Y002252D01*
X013471Y002252D01*
X013318Y002176D02*
X013241Y002252D01*
X013088Y002252D01*
X013011Y002176D01*
X013011Y001869D01*
X013088Y001792D01*
X013241Y001792D01*
X013318Y001869D01*
X012397Y001869D02*
X012397Y002022D01*
X012320Y002099D01*
X012090Y002099D01*
X012090Y002252D02*
X012090Y001792D01*
X012320Y001792D01*
X012397Y001869D01*
X011937Y001869D02*
X011937Y002022D01*
X011860Y002099D01*
X011707Y002099D01*
X011630Y002022D01*
X011630Y001869D01*
X011707Y001792D01*
X011860Y001792D01*
X011937Y001869D01*
X011476Y001869D02*
X011400Y001792D01*
X011170Y001792D01*
X011170Y002252D01*
X011400Y002252D01*
X011476Y002176D01*
X011476Y002099D01*
X011400Y002022D01*
X011170Y002022D01*
X011400Y002022D02*
X011476Y001945D01*
X011476Y001869D01*
X010556Y001792D02*
X010326Y001792D01*
X010249Y001869D01*
X010249Y002099D01*
X010095Y002022D02*
X010095Y001869D01*
X010019Y001792D01*
X009789Y001792D01*
X009789Y002252D01*
X009789Y002099D02*
X010019Y002099D01*
X010095Y002022D01*
X010402Y001638D02*
X010479Y001638D01*
X010556Y001715D01*
X010556Y002099D01*
X009175Y002099D02*
X008945Y002099D01*
X008868Y002022D01*
X008868Y001869D01*
X008945Y001792D01*
X009175Y001792D01*
X009175Y002252D01*
X008714Y002022D02*
X008714Y001945D01*
X008407Y001945D01*
X008407Y001869D02*
X008407Y002022D01*
X008484Y002099D01*
X008638Y002099D01*
X008714Y002022D01*
X008638Y001792D02*
X008484Y001792D01*
X008407Y001869D01*
X008254Y001792D02*
X008254Y002022D01*
X008177Y002099D01*
X007947Y002099D01*
X007947Y001792D01*
X007794Y001792D02*
X007563Y001792D01*
X007487Y001869D01*
X007487Y002022D01*
X007563Y002099D01*
X007794Y002099D01*
X007794Y001715D01*
X007717Y001638D01*
X007640Y001638D01*
X007333Y001792D02*
X007180Y001792D01*
X007257Y001792D02*
X007257Y002099D01*
X007180Y002099D01*
X007026Y002099D02*
X006796Y002099D01*
X006720Y002022D01*
X006796Y001945D01*
X006950Y001945D01*
X007026Y001869D01*
X006950Y001792D01*
X006720Y001792D01*
X006566Y001945D02*
X006566Y002022D01*
X006489Y002099D01*
X006336Y002099D01*
X006259Y002022D01*
X006259Y001869D01*
X006336Y001792D01*
X006489Y001792D01*
X006566Y001945D02*
X006259Y001945D01*
X006106Y001869D02*
X006106Y002176D01*
X006029Y002252D01*
X005799Y002252D01*
X005799Y001792D01*
X006029Y001792D01*
X006106Y001869D01*
X005609Y002842D02*
X005148Y002842D01*
X005148Y003149D01*
X005148Y003302D02*
X005609Y003302D01*
X005609Y003609D01*
X005379Y003456D02*
X005379Y003302D01*
X005148Y003302D02*
X005148Y003609D01*
X005148Y003763D02*
X005148Y004069D01*
X005148Y003916D02*
X005609Y003916D01*
X005379Y002995D02*
X005379Y002842D01*
X007257Y002329D02*
X007257Y002252D01*
X008502Y004492D02*
X008656Y004645D01*
X008656Y004952D01*
X008809Y004952D02*
X009039Y004952D01*
X009116Y004876D01*
X009116Y004722D01*
X009039Y004645D01*
X008809Y004645D01*
X008809Y004492D02*
X008809Y004952D01*
X008963Y004645D02*
X009116Y004492D01*
X009270Y004492D02*
X009576Y004492D01*
X009730Y004569D02*
X009807Y004492D01*
X009960Y004492D01*
X010037Y004569D01*
X010037Y004722D01*
X009883Y004722D01*
X009730Y004569D02*
X009730Y004876D01*
X009807Y004952D01*
X009960Y004952D01*
X010037Y004876D01*
X009576Y004952D02*
X009270Y004952D01*
X009270Y004492D01*
X009270Y004722D02*
X009423Y004722D01*
X008502Y004492D02*
X008349Y004645D01*
X008349Y004952D01*
X017422Y014117D02*
X017498Y014117D01*
X018798Y014103D02*
X018952Y014257D01*
X018798Y014410D01*
X019259Y014410D01*
X019182Y014563D02*
X019105Y014640D01*
X019105Y014870D01*
X019029Y014870D02*
X019259Y014870D01*
X019259Y014640D01*
X019182Y014563D01*
X018952Y014640D02*
X018952Y014794D01*
X019029Y014870D01*
X018952Y015024D02*
X018952Y015254D01*
X019029Y015331D01*
X019259Y015331D01*
X019259Y015024D02*
X018952Y015024D01*
X018798Y014103D02*
X019259Y014103D01*
X019898Y014301D02*
X020052Y014454D01*
X019898Y014607D01*
X020359Y014607D01*
X020282Y014761D02*
X020129Y014761D01*
X020052Y014838D01*
X020052Y014991D01*
X020129Y015068D01*
X020282Y015068D01*
X020359Y014991D01*
X020359Y014838D01*
X020282Y014761D01*
X020282Y015221D02*
X020129Y015221D01*
X020052Y015298D01*
X020052Y015528D01*
X019898Y015528D02*
X020359Y015528D01*
X020359Y015298D01*
X020282Y015221D01*
X020282Y015682D02*
X020052Y015682D01*
X020282Y015682D02*
X020359Y015758D01*
X020359Y015989D01*
X020052Y015989D01*
X019898Y016142D02*
X019898Y016219D01*
X020359Y016219D01*
X020359Y016295D02*
X020359Y016142D01*
X020282Y016449D02*
X020129Y016449D01*
X020052Y016526D01*
X020052Y016679D01*
X020129Y016756D01*
X020205Y016756D01*
X020205Y016449D01*
X020282Y016449D02*
X020359Y016526D01*
X020359Y016679D01*
X020359Y014301D02*
X019898Y014301D01*
D13*
X012199Y007572D02*
X012201Y007598D01*
X012207Y007624D01*
X012216Y007648D01*
X012229Y007671D01*
X012245Y007692D01*
X012264Y007710D01*
X012285Y007726D01*
X012309Y007738D01*
X012333Y007746D01*
X012359Y007751D01*
X012386Y007752D01*
X012412Y007749D01*
X012437Y007742D01*
X012461Y007732D01*
X012484Y007718D01*
X012504Y007702D01*
X012521Y007682D01*
X012536Y007660D01*
X012547Y007636D01*
X012555Y007611D01*
X012559Y007585D01*
X012559Y007559D01*
X012555Y007533D01*
X012547Y007508D01*
X012536Y007484D01*
X012521Y007462D01*
X012504Y007442D01*
X012484Y007426D01*
X012461Y007412D01*
X012437Y007402D01*
X012412Y007395D01*
X012386Y007392D01*
X012359Y007393D01*
X012333Y007398D01*
X012309Y007406D01*
X012285Y007418D01*
X012264Y007434D01*
X012245Y007452D01*
X012229Y007473D01*
X012216Y007496D01*
X012207Y007520D01*
X012201Y007546D01*
X012199Y007572D01*
X010849Y004422D02*
X010851Y004448D01*
X010857Y004474D01*
X010866Y004498D01*
X010879Y004521D01*
X010895Y004542D01*
X010914Y004560D01*
X010935Y004576D01*
X010959Y004588D01*
X010983Y004596D01*
X011009Y004601D01*
X011036Y004602D01*
X011062Y004599D01*
X011087Y004592D01*
X011111Y004582D01*
X011134Y004568D01*
X011154Y004552D01*
X011171Y004532D01*
X011186Y004510D01*
X011197Y004486D01*
X011205Y004461D01*
X011209Y004435D01*
X011209Y004409D01*
X011205Y004383D01*
X011197Y004358D01*
X011186Y004334D01*
X011171Y004312D01*
X011154Y004292D01*
X011134Y004276D01*
X011111Y004262D01*
X011087Y004252D01*
X011062Y004245D01*
X011036Y004242D01*
X011009Y004243D01*
X010983Y004248D01*
X010959Y004256D01*
X010935Y004268D01*
X010914Y004284D01*
X010895Y004302D01*
X010879Y004323D01*
X010866Y004346D01*
X010857Y004370D01*
X010851Y004396D01*
X010849Y004422D01*
D14*
X011494Y004587D02*
X011494Y004780D01*
X011591Y004877D01*
X011687Y004780D01*
X011687Y004587D01*
X011687Y004732D02*
X011494Y004732D01*
X011788Y004877D02*
X011982Y004877D01*
X011885Y004877D02*
X011885Y004587D01*
X012180Y004587D02*
X012180Y004877D01*
X012083Y004877D02*
X012277Y004877D01*
X012378Y004877D02*
X012474Y004877D01*
X012426Y004877D02*
X012426Y004587D01*
X012378Y004587D02*
X012474Y004587D01*
X012574Y004587D02*
X012574Y004877D01*
X012768Y004587D01*
X012768Y004877D01*
X012869Y004877D02*
X012869Y004829D01*
X012966Y004732D01*
X012966Y004587D01*
X012966Y004732D02*
X013062Y004829D01*
X013062Y004877D01*
X013163Y004829D02*
X013212Y004877D01*
X013309Y004877D01*
X013357Y004829D01*
X013357Y004780D01*
X013163Y004587D01*
X013357Y004587D01*
X013458Y004732D02*
X013652Y004732D01*
X013603Y004587D02*
X013603Y004877D01*
X013458Y004732D01*
X012014Y008087D02*
X011965Y008087D01*
X011772Y008280D01*
X011724Y008280D01*
X011724Y008087D01*
X011869Y008382D02*
X011869Y008575D01*
X011869Y008676D02*
X011869Y008870D01*
X011965Y008971D02*
X012014Y009019D01*
X012014Y009116D01*
X011965Y009164D01*
X011772Y009164D02*
X011724Y009116D01*
X011724Y009019D01*
X011772Y008971D01*
X011965Y008971D01*
X012014Y008870D02*
X011724Y008870D01*
X011724Y008676D02*
X012014Y008676D01*
X012014Y008527D02*
X011724Y008527D01*
X011869Y008382D01*
X011724Y009265D02*
X011724Y009459D01*
X011724Y009362D02*
X012014Y009362D01*
X012014Y009560D02*
X012014Y009754D01*
X012014Y009657D02*
X011724Y009657D01*
X011820Y009560D01*
X011869Y009855D02*
X011772Y009951D01*
X011724Y010048D01*
X011869Y010000D02*
X011869Y009855D01*
X011965Y009855D01*
X012014Y009903D01*
X012014Y010000D01*
X011965Y010048D01*
X011917Y010048D01*
X011869Y010000D01*
X011869Y010149D02*
X011869Y010295D01*
X011917Y010343D01*
X011965Y010343D01*
X012014Y010295D01*
X012014Y010198D01*
X011965Y010149D01*
X011869Y010149D01*
X011772Y010246D01*
X011724Y010343D01*
X018241Y003377D02*
X018337Y003377D01*
X018289Y003377D02*
X018289Y003135D01*
X018241Y003087D01*
X018192Y003087D01*
X018144Y003135D01*
X018438Y003087D02*
X018438Y003377D01*
X018584Y003377D01*
X018632Y003329D01*
X018632Y003232D01*
X018584Y003184D01*
X018438Y003184D01*
X018733Y003280D02*
X018830Y003377D01*
X018830Y003087D01*
X018733Y003087D02*
X018927Y003087D01*
D15*
X014079Y004172D02*
X014079Y005272D01*
X012629Y007222D02*
X011229Y007222D01*
X010679Y005322D02*
X010679Y004172D01*
X011229Y011122D02*
X012629Y011122D01*
M02*
