%
M48
M72
T01C0.0236
T02C0.0320
T03C0.0394
T04C0.0400
T05C0.0470
T06C0.1260
%
T01
X9529Y8422
X9529Y9172
X9529Y9922
X9929Y10422
X9879Y7422
X13929Y7922
X14029Y8422
X14429Y8922
X13929Y9422
X15379Y5772
X12929Y2872
X10879Y2822
T02
X10429Y12872
X11429Y12872
X12429Y12872
X13429Y12872
X14429Y12872
X15429Y12872
X15429Y15872
X14429Y15872
X13429Y15872
X12429Y15872
X11429Y15872
X10429Y15872
X9429Y15872
X8429Y15872
X8429Y12872
X9429Y12872
T03
X7529Y6072
X8129Y3472
X16129Y3772
X16129Y4772
X17129Y4772
X17129Y3772
X17129Y2772
X16129Y2772
X16129Y5772
X16129Y6772
X17129Y6772
X17129Y5772
T04
X18779Y5822
X19779Y5822
X19779Y4822
X19779Y3822
X18779Y3822
X18779Y4822
T05
X5129Y6001
X5129Y7969
X5129Y9938
X5129Y11906
X5129Y13875
X5129Y15843
T06
X18929Y16422
X19979Y2622
M30
