G75*
G70*
%OFA0B0*%
%FSLAX24Y24*%
%IPPOS*%
%LPD*%
%AMOC8*
5,1,8,0,0,1.08239X$1,22.5*
%
%ADD10R,0.0280X0.0910*%
%ADD11R,0.0840X0.0300*%
%ADD12C,0.0560*%
%ADD13R,0.0552X0.0631*%
%ADD14R,0.0700X0.0700*%
%ADD15OC8,0.0700*%
%ADD16R,0.0640X0.0640*%
%ADD17OC8,0.0640*%
%ADD18R,0.0631X0.0827*%
%ADD19R,0.1536X0.0827*%
%ADD20R,0.0591X0.0670*%
%ADD21R,0.0827X0.0631*%
%ADD22R,0.0827X0.1536*%
%ADD23C,0.0745*%
%ADD24R,0.0631X0.0631*%
D10*
X010879Y003697D03*
X011379Y003697D03*
X011879Y003697D03*
X012379Y003697D03*
X012879Y003697D03*
X013379Y003697D03*
X013879Y003697D03*
X013879Y005747D03*
X013379Y005747D03*
X012879Y005747D03*
X012379Y005747D03*
X011879Y005747D03*
X011379Y005747D03*
X010879Y005747D03*
D11*
X010719Y007422D03*
X010719Y007922D03*
X010719Y008422D03*
X010719Y008922D03*
X010719Y009422D03*
X010719Y009922D03*
X010719Y010422D03*
X010719Y010922D03*
X013139Y010922D03*
X013139Y010422D03*
X013139Y009922D03*
X013139Y009422D03*
X013139Y008922D03*
X013139Y008422D03*
X013139Y007922D03*
X013139Y007422D03*
D12*
X013429Y012612D02*
X013429Y013132D01*
X014429Y013132D02*
X014429Y012612D01*
X015429Y012612D02*
X015429Y013132D01*
X015429Y015612D02*
X015429Y016132D01*
X014429Y016132D02*
X014429Y015612D01*
X013429Y015612D02*
X013429Y016132D01*
X012429Y016132D02*
X012429Y015612D01*
X011429Y015612D02*
X011429Y016132D01*
X010429Y016132D02*
X010429Y015612D01*
X009429Y015612D02*
X009429Y016132D01*
X008429Y016132D02*
X008429Y015612D01*
X008429Y013132D02*
X008429Y012612D01*
X009429Y012612D02*
X009429Y013132D01*
X010429Y013132D02*
X010429Y012612D01*
X011429Y012612D02*
X011429Y013132D01*
X012429Y013132D02*
X012429Y012612D01*
D13*
X014655Y011872D03*
X014655Y011072D03*
X015403Y011072D03*
X015403Y011872D03*
X015703Y009872D03*
X014955Y009872D03*
X014955Y009072D03*
X015703Y009072D03*
X015703Y008272D03*
X014955Y008272D03*
X014955Y007472D03*
X015703Y007472D03*
X012253Y002822D03*
X011505Y002822D03*
X008803Y008272D03*
X008803Y009072D03*
X008055Y009072D03*
X008055Y008272D03*
X008055Y009872D03*
X008803Y009872D03*
X008803Y010672D03*
X008055Y010672D03*
D14*
X017129Y002822D03*
D15*
X017129Y003822D03*
X017129Y004822D03*
X017129Y005822D03*
X016129Y005822D03*
X016129Y004822D03*
X016129Y003822D03*
X016129Y002822D03*
D16*
X018779Y005822D03*
D17*
X019779Y005822D03*
X019779Y004822D03*
X019779Y003822D03*
X018779Y003822D03*
X018779Y004822D03*
D18*
X010084Y005962D03*
X009179Y005962D03*
X008273Y005962D03*
D19*
X009179Y003482D03*
D20*
X017493Y007268D03*
X019265Y007268D03*
X019265Y010575D03*
X018379Y010575D03*
X017493Y010575D03*
D21*
X006619Y004327D03*
X006619Y003422D03*
X006619Y002516D03*
D22*
X004139Y003422D03*
D23*
X004776Y006001D02*
X005481Y006001D01*
X005481Y007969D02*
X004776Y007969D01*
X004776Y009938D02*
X005481Y009938D01*
X005481Y011906D02*
X004776Y011906D01*
X004776Y013875D02*
X005481Y013875D01*
X005481Y015843D02*
X004776Y015843D01*
D24*
X016679Y013361D03*
X016679Y011983D03*
X016679Y011061D03*
X016679Y009683D03*
M02*
