G75*
G70*
%OFA0B0*%
%FSLAX24Y24*%
%IPPOS*%
%LPD*%
%AMOC8*
5,1,8,0,0,1.08239X$1,22.5*
%
%ADD10C,0.0000*%
%ADD11C,0.0060*%
%ADD12C,0.0040*%
%ADD13C,0.0100*%
%ADD14C,0.0030*%
%ADD15C,0.0160*%
D10*
X003097Y001522D02*
X003097Y017270D01*
X020814Y017270D01*
X020814Y001522D01*
X003097Y001522D01*
D11*
X006216Y005702D02*
X006429Y005702D01*
X006536Y005809D01*
X006536Y006236D01*
X006429Y006342D01*
X006216Y006342D01*
X006109Y006236D01*
X006109Y005809D01*
X006216Y005702D01*
X006753Y005809D02*
X006860Y005702D01*
X007074Y005702D01*
X007180Y005809D01*
X007180Y006342D01*
X007398Y006342D02*
X007825Y006342D01*
X007611Y006342D02*
X007611Y005702D01*
X006753Y005809D02*
X006753Y006342D01*
X006472Y007602D02*
X006686Y007815D01*
X006686Y008242D01*
X006903Y007922D02*
X007330Y007922D01*
X007117Y008136D02*
X007117Y007709D01*
X006472Y007602D02*
X006259Y007815D01*
X006259Y008242D01*
X006366Y009652D02*
X006579Y009652D01*
X006686Y009759D01*
X006686Y009972D01*
X006472Y009972D01*
X006259Y009759D02*
X006366Y009652D01*
X006259Y009759D02*
X006259Y010186D01*
X006366Y010292D01*
X006579Y010292D01*
X006686Y010186D01*
X006689Y011602D02*
X006689Y012242D01*
X007116Y011602D01*
X007116Y012242D01*
X006472Y012242D02*
X006259Y012242D01*
X006366Y012242D02*
X006366Y011602D01*
X006472Y011602D02*
X006259Y011602D01*
X006466Y013602D02*
X006359Y013709D01*
X006359Y014136D01*
X006466Y014242D01*
X006679Y014242D01*
X006786Y014136D01*
X006786Y013922D02*
X006572Y013922D01*
X006786Y013922D02*
X006786Y013709D01*
X006679Y013602D01*
X006466Y013602D01*
X006672Y015502D02*
X006459Y015715D01*
X006459Y016142D01*
X006886Y016142D02*
X006886Y015715D01*
X006672Y015502D01*
X007103Y015822D02*
X007530Y015822D01*
X007317Y016036D02*
X007317Y015609D01*
D12*
X017448Y015428D02*
X017909Y015428D01*
X017909Y015735D01*
X017832Y015965D02*
X017909Y016042D01*
X017832Y015965D02*
X017525Y015965D01*
X017602Y015889D02*
X017602Y016042D01*
X017679Y016195D02*
X017602Y016272D01*
X017602Y016502D01*
X017448Y016502D02*
X017909Y016502D01*
X017909Y016272D01*
X017832Y016195D01*
X017679Y016195D01*
X018925Y016052D02*
X019232Y016052D01*
X019309Y016129D01*
X019232Y016282D02*
X019079Y016282D01*
X019002Y016359D01*
X019002Y016513D01*
X019079Y016589D01*
X019155Y016589D01*
X019155Y016282D01*
X019232Y016282D02*
X019309Y016359D01*
X019309Y016513D01*
X019309Y016743D02*
X019002Y016743D01*
X019002Y016896D02*
X019002Y016973D01*
X019002Y016896D02*
X019155Y016743D01*
X019002Y016129D02*
X019002Y015976D01*
X019002Y015822D02*
X019002Y015592D01*
X019079Y015515D01*
X019155Y015592D01*
X019155Y015745D01*
X019232Y015822D01*
X019309Y015745D01*
X019309Y015515D01*
X019155Y015362D02*
X019079Y015362D01*
X019002Y015285D01*
X019002Y015132D01*
X019079Y015055D01*
X019232Y015055D01*
X019309Y015132D01*
X019309Y015285D01*
X019155Y015362D02*
X019155Y015055D01*
X019079Y014901D02*
X019309Y014901D01*
X019079Y014901D02*
X019002Y014825D01*
X019002Y014671D01*
X019079Y014595D01*
X019002Y014441D02*
X019002Y014211D01*
X019079Y014134D01*
X019232Y014134D01*
X019309Y014211D01*
X019309Y014441D01*
X019309Y014595D02*
X018848Y014595D01*
X019079Y013981D02*
X019309Y013981D01*
X019079Y013981D02*
X019002Y013904D01*
X019002Y013674D01*
X019309Y013674D01*
X019309Y013520D02*
X019309Y013290D01*
X019232Y013213D01*
X019155Y013290D01*
X019155Y013520D01*
X019079Y013520D02*
X019309Y013520D01*
X019079Y013520D02*
X019002Y013444D01*
X019002Y013290D01*
X018848Y013060D02*
X019309Y013060D01*
X019309Y012753D02*
X018848Y012753D01*
X019002Y012907D01*
X018848Y013060D01*
X019002Y012600D02*
X019079Y012600D01*
X019079Y012523D01*
X019002Y012523D01*
X019002Y012600D01*
X019232Y012600D02*
X019309Y012600D01*
X019309Y012523D01*
X019232Y012523D01*
X019232Y012600D01*
X019232Y012369D02*
X019309Y012293D01*
X019309Y012139D01*
X019232Y012063D01*
X018925Y012063D01*
X018848Y012139D01*
X018848Y012293D01*
X018925Y012369D01*
X019002Y011909D02*
X018848Y011756D01*
X019002Y011602D01*
X019309Y011602D01*
X019309Y011449D02*
X018848Y011449D01*
X019079Y011449D02*
X019079Y011142D01*
X019309Y011142D02*
X018848Y011142D01*
X019079Y011602D02*
X019079Y011909D01*
X019002Y011909D02*
X019309Y011909D01*
X019975Y011308D02*
X019898Y011232D01*
X019898Y011078D01*
X019975Y011001D01*
X020282Y011001D01*
X020359Y011078D01*
X020359Y011232D01*
X020282Y011308D01*
X020282Y011462D02*
X020359Y011538D01*
X020359Y011692D01*
X020282Y011769D01*
X020129Y011769D01*
X020052Y011692D01*
X020052Y011538D01*
X020129Y011462D01*
X020282Y011462D01*
X020359Y011922D02*
X020052Y011922D01*
X020052Y012152D01*
X020129Y012229D01*
X020359Y012229D01*
X020282Y012459D02*
X019975Y012459D01*
X020052Y012382D02*
X020052Y012536D01*
X020052Y012689D02*
X020359Y012689D01*
X020359Y012536D02*
X020282Y012459D01*
X020205Y012689D02*
X020052Y012843D01*
X020052Y012920D01*
X020129Y013073D02*
X020282Y013073D01*
X020359Y013150D01*
X020359Y013303D01*
X020282Y013380D01*
X020129Y013380D01*
X020052Y013303D01*
X020052Y013150D01*
X020129Y013073D01*
X020359Y013533D02*
X020359Y013687D01*
X020359Y013610D02*
X019898Y013610D01*
X019898Y013533D01*
X019898Y014301D02*
X020052Y014454D01*
X019898Y014607D01*
X020359Y014607D01*
X020282Y014761D02*
X020129Y014761D01*
X020052Y014838D01*
X020052Y014991D01*
X020129Y015068D01*
X020282Y015068D01*
X020359Y014991D01*
X020359Y014838D01*
X020282Y014761D01*
X020282Y015221D02*
X020129Y015221D01*
X020052Y015298D01*
X020052Y015528D01*
X019898Y015528D02*
X020359Y015528D01*
X020359Y015298D01*
X020282Y015221D01*
X020282Y015682D02*
X020052Y015682D01*
X020282Y015682D02*
X020359Y015758D01*
X020359Y015989D01*
X020052Y015989D01*
X019898Y016142D02*
X019898Y016219D01*
X020359Y016219D01*
X020359Y016295D02*
X020359Y016142D01*
X020282Y016449D02*
X020129Y016449D01*
X020052Y016526D01*
X020052Y016679D01*
X020129Y016756D01*
X020205Y016756D01*
X020205Y016449D01*
X020282Y016449D02*
X020359Y016526D01*
X020359Y016679D01*
X020359Y014301D02*
X019898Y014301D01*
X018482Y013695D02*
X018175Y013695D01*
X018329Y013542D02*
X018329Y013849D01*
X017909Y013817D02*
X017602Y013817D01*
X017602Y013740D01*
X017602Y013587D02*
X017602Y013433D01*
X017525Y013510D02*
X017832Y013510D01*
X017909Y013587D01*
X017909Y013740D02*
X017909Y013894D01*
X017832Y014047D02*
X017679Y014047D01*
X017602Y014124D01*
X017602Y014354D01*
X017679Y014507D02*
X017602Y014584D01*
X017602Y014814D01*
X017755Y014738D02*
X017755Y014584D01*
X017679Y014507D01*
X017909Y014507D02*
X017909Y014738D01*
X017832Y014814D01*
X017755Y014738D01*
X017909Y014354D02*
X017909Y014124D01*
X017832Y014047D01*
X017448Y013817D02*
X017372Y013817D01*
X017679Y013280D02*
X017602Y013203D01*
X017602Y013050D01*
X017679Y012973D01*
X017832Y012973D01*
X017909Y013050D01*
X017909Y013203D01*
X017832Y013280D01*
X017679Y013280D01*
X017679Y012819D02*
X017602Y012743D01*
X017602Y012513D01*
X017448Y012513D02*
X017909Y012513D01*
X017909Y012743D01*
X017832Y012819D01*
X017679Y012819D01*
X017679Y012359D02*
X017602Y012282D01*
X017602Y012129D01*
X017679Y012052D01*
X017832Y012052D01*
X017909Y012129D01*
X017909Y012282D01*
X017832Y012359D01*
X017679Y012359D01*
X017679Y011899D02*
X017679Y011745D01*
X017679Y011899D02*
X017832Y011899D01*
X017909Y011822D01*
X017909Y011669D01*
X017832Y011592D01*
X017525Y011592D01*
X017448Y011669D01*
X017448Y011822D01*
X017525Y011899D01*
X020052Y010388D02*
X020052Y010157D01*
X020129Y010081D01*
X020205Y010157D01*
X020205Y010311D01*
X020282Y010388D01*
X020359Y010311D01*
X020359Y010081D01*
X020282Y009927D02*
X020205Y009851D01*
X020205Y009697D01*
X020129Y009620D01*
X020052Y009697D01*
X020052Y009927D01*
X020282Y009927D02*
X020359Y009851D01*
X020359Y009620D01*
X020205Y009467D02*
X020129Y009467D01*
X020052Y009390D01*
X020052Y009237D01*
X020129Y009160D01*
X020282Y009160D01*
X020359Y009237D01*
X020359Y009390D01*
X020205Y009467D02*
X020205Y009160D01*
X020359Y009007D02*
X020359Y008853D01*
X020359Y008930D02*
X019898Y008930D01*
X019898Y008853D01*
X020052Y008623D02*
X020129Y008700D01*
X020205Y008700D01*
X020205Y008393D01*
X020129Y008393D02*
X020282Y008393D01*
X020359Y008469D01*
X020359Y008623D01*
X020052Y008623D02*
X020052Y008469D01*
X020129Y008393D01*
X020052Y008239D02*
X020052Y008163D01*
X020205Y008009D01*
X020052Y008009D02*
X020359Y008009D01*
X020359Y007856D02*
X020359Y007702D01*
X020359Y007779D02*
X020052Y007779D01*
X020052Y007702D01*
X019898Y007779D02*
X019822Y007779D01*
X019898Y007549D02*
X020359Y007549D01*
X020205Y007395D01*
X020359Y007242D01*
X019898Y007242D01*
X019226Y002252D02*
X019072Y002252D01*
X018996Y002176D01*
X019226Y002252D02*
X019302Y002176D01*
X019302Y002099D01*
X018996Y001792D01*
X019302Y001792D01*
X018842Y001792D02*
X018535Y001792D01*
X018689Y001792D02*
X018689Y002252D01*
X018535Y002099D01*
X018382Y002176D02*
X018382Y001869D01*
X018305Y001792D01*
X018152Y001792D01*
X018075Y001869D01*
X018382Y002176D01*
X018305Y002252D01*
X018152Y002252D01*
X018075Y002176D01*
X018075Y001869D01*
X017921Y001792D02*
X017615Y001792D01*
X017921Y002099D01*
X017921Y002176D01*
X017845Y002252D01*
X017691Y002252D01*
X017615Y002176D01*
X017001Y002099D02*
X017001Y001945D01*
X016847Y001792D01*
X016694Y001792D02*
X016464Y001792D01*
X016387Y001869D01*
X016387Y002022D01*
X016464Y002099D01*
X016694Y002099D01*
X016847Y002252D02*
X017001Y002099D01*
X016233Y002252D02*
X016080Y002099D01*
X016080Y001945D01*
X016233Y001792D01*
X015466Y001792D02*
X015466Y002022D01*
X015389Y002099D01*
X015236Y002099D01*
X015159Y002022D01*
X015006Y002099D02*
X014776Y002099D01*
X014699Y002022D01*
X014699Y001869D01*
X014776Y001792D01*
X015006Y001792D01*
X015006Y001715D02*
X015006Y002099D01*
X015159Y002252D02*
X015159Y001792D01*
X015006Y001715D02*
X014929Y001638D01*
X014852Y001638D01*
X014546Y001792D02*
X014546Y002099D01*
X014546Y001792D02*
X014315Y001792D01*
X014239Y001869D01*
X014239Y002099D01*
X014085Y002022D02*
X014008Y002099D01*
X013855Y002099D01*
X013778Y002022D01*
X013778Y001869D01*
X013855Y001792D01*
X014008Y001792D01*
X014085Y001869D01*
X014085Y002022D01*
X013625Y001792D02*
X013471Y001792D01*
X013548Y001792D02*
X013548Y002252D01*
X013471Y002252D01*
X013318Y002176D02*
X013241Y002252D01*
X013088Y002252D01*
X013011Y002176D01*
X013011Y001869D01*
X013088Y001792D01*
X013241Y001792D01*
X013318Y001869D01*
X012397Y001869D02*
X012397Y002022D01*
X012320Y002099D01*
X012090Y002099D01*
X012090Y002252D02*
X012090Y001792D01*
X012320Y001792D01*
X012397Y001869D01*
X011937Y001869D02*
X011937Y002022D01*
X011860Y002099D01*
X011707Y002099D01*
X011630Y002022D01*
X011630Y001869D01*
X011707Y001792D01*
X011860Y001792D01*
X011937Y001869D01*
X011476Y001869D02*
X011400Y001792D01*
X011170Y001792D01*
X011170Y002252D01*
X011400Y002252D01*
X011476Y002176D01*
X011476Y002099D01*
X011400Y002022D01*
X011170Y002022D01*
X011400Y002022D02*
X011476Y001945D01*
X011476Y001869D01*
X010556Y001792D02*
X010326Y001792D01*
X010249Y001869D01*
X010249Y002099D01*
X010095Y002022D02*
X010095Y001869D01*
X010019Y001792D01*
X009789Y001792D01*
X009789Y002252D01*
X009789Y002099D02*
X010019Y002099D01*
X010095Y002022D01*
X010402Y001638D02*
X010479Y001638D01*
X010556Y001715D01*
X010556Y002099D01*
X009175Y002099D02*
X008945Y002099D01*
X008868Y002022D01*
X008868Y001869D01*
X008945Y001792D01*
X009175Y001792D01*
X009175Y002252D01*
X008714Y002022D02*
X008714Y001945D01*
X008407Y001945D01*
X008407Y001869D02*
X008407Y002022D01*
X008484Y002099D01*
X008638Y002099D01*
X008714Y002022D01*
X008638Y001792D02*
X008484Y001792D01*
X008407Y001869D01*
X008254Y001792D02*
X008254Y002022D01*
X008177Y002099D01*
X007947Y002099D01*
X007947Y001792D01*
X007794Y001792D02*
X007563Y001792D01*
X007487Y001869D01*
X007487Y002022D01*
X007563Y002099D01*
X007794Y002099D01*
X007794Y001715D01*
X007717Y001638D01*
X007640Y001638D01*
X007333Y001792D02*
X007180Y001792D01*
X007257Y001792D02*
X007257Y002099D01*
X007180Y002099D01*
X007026Y002099D02*
X006796Y002099D01*
X006720Y002022D01*
X006796Y001945D01*
X006950Y001945D01*
X007026Y001869D01*
X006950Y001792D01*
X006720Y001792D01*
X006566Y001945D02*
X006566Y002022D01*
X006489Y002099D01*
X006336Y002099D01*
X006259Y002022D01*
X006259Y001869D01*
X006336Y001792D01*
X006489Y001792D01*
X006566Y001945D02*
X006259Y001945D01*
X006106Y001869D02*
X006106Y002176D01*
X006029Y002252D01*
X005799Y002252D01*
X005799Y001792D01*
X006029Y001792D01*
X006106Y001869D01*
X005609Y002842D02*
X005148Y002842D01*
X005148Y003149D01*
X005148Y003302D02*
X005609Y003302D01*
X005609Y003609D01*
X005379Y003456D02*
X005379Y003302D01*
X005148Y003302D02*
X005148Y003609D01*
X005148Y003763D02*
X005148Y004069D01*
X005148Y003916D02*
X005609Y003916D01*
X005379Y002995D02*
X005379Y002842D01*
X007257Y002329D02*
X007257Y002252D01*
X008502Y004492D02*
X008656Y004645D01*
X008656Y004952D01*
X008809Y004952D02*
X009039Y004952D01*
X009116Y004876D01*
X009116Y004722D01*
X009039Y004645D01*
X008809Y004645D01*
X008809Y004492D02*
X008809Y004952D01*
X008963Y004645D02*
X009116Y004492D01*
X009270Y004492D02*
X009576Y004492D01*
X009730Y004569D02*
X009807Y004492D01*
X009960Y004492D01*
X010037Y004569D01*
X010037Y004722D01*
X009883Y004722D01*
X009730Y004569D02*
X009730Y004876D01*
X009807Y004952D01*
X009960Y004952D01*
X010037Y004876D01*
X009576Y004952D02*
X009270Y004952D01*
X009270Y004492D01*
X009270Y004722D02*
X009423Y004722D01*
X008502Y004492D02*
X008349Y004645D01*
X008349Y004952D01*
D13*
X010849Y004422D02*
X010851Y004448D01*
X010857Y004474D01*
X010866Y004498D01*
X010879Y004521D01*
X010895Y004542D01*
X010914Y004560D01*
X010935Y004576D01*
X010959Y004588D01*
X010983Y004596D01*
X011009Y004601D01*
X011036Y004602D01*
X011062Y004599D01*
X011087Y004592D01*
X011111Y004582D01*
X011134Y004568D01*
X011154Y004552D01*
X011171Y004532D01*
X011186Y004510D01*
X011197Y004486D01*
X011205Y004461D01*
X011209Y004435D01*
X011209Y004409D01*
X011205Y004383D01*
X011197Y004358D01*
X011186Y004334D01*
X011171Y004312D01*
X011154Y004292D01*
X011134Y004276D01*
X011111Y004262D01*
X011087Y004252D01*
X011062Y004245D01*
X011036Y004242D01*
X011009Y004243D01*
X010983Y004248D01*
X010959Y004256D01*
X010935Y004268D01*
X010914Y004284D01*
X010895Y004302D01*
X010879Y004323D01*
X010866Y004346D01*
X010857Y004370D01*
X010851Y004396D01*
X010849Y004422D01*
X012199Y007572D02*
X012201Y007598D01*
X012207Y007624D01*
X012216Y007648D01*
X012229Y007671D01*
X012245Y007692D01*
X012264Y007710D01*
X012285Y007726D01*
X012309Y007738D01*
X012333Y007746D01*
X012359Y007751D01*
X012386Y007752D01*
X012412Y007749D01*
X012437Y007742D01*
X012461Y007732D01*
X012484Y007718D01*
X012504Y007702D01*
X012521Y007682D01*
X012536Y007660D01*
X012547Y007636D01*
X012555Y007611D01*
X012559Y007585D01*
X012559Y007559D01*
X012555Y007533D01*
X012547Y007508D01*
X012536Y007484D01*
X012521Y007462D01*
X012504Y007442D01*
X012484Y007426D01*
X012461Y007412D01*
X012437Y007402D01*
X012412Y007395D01*
X012386Y007392D01*
X012359Y007393D01*
X012333Y007398D01*
X012309Y007406D01*
X012285Y007418D01*
X012264Y007434D01*
X012245Y007452D01*
X012229Y007473D01*
X012216Y007496D01*
X012207Y007520D01*
X012201Y007546D01*
X012199Y007572D01*
D14*
X012014Y008087D02*
X011965Y008087D01*
X011772Y008280D01*
X011724Y008280D01*
X011724Y008087D01*
X011869Y008382D02*
X011869Y008575D01*
X011869Y008676D02*
X011869Y008870D01*
X011965Y008971D02*
X012014Y009019D01*
X012014Y009116D01*
X011965Y009164D01*
X011772Y009164D02*
X011724Y009116D01*
X011724Y009019D01*
X011772Y008971D01*
X011965Y008971D01*
X012014Y008870D02*
X011724Y008870D01*
X011724Y008676D02*
X012014Y008676D01*
X012014Y008527D02*
X011724Y008527D01*
X011869Y008382D01*
X011724Y009265D02*
X011724Y009459D01*
X011724Y009362D02*
X012014Y009362D01*
X012014Y009560D02*
X012014Y009754D01*
X012014Y009657D02*
X011724Y009657D01*
X011820Y009560D01*
X011869Y009855D02*
X011772Y009951D01*
X011724Y010048D01*
X011869Y010000D02*
X011869Y009855D01*
X011965Y009855D01*
X012014Y009903D01*
X012014Y010000D01*
X011965Y010048D01*
X011917Y010048D01*
X011869Y010000D01*
X011869Y010149D02*
X011869Y010295D01*
X011917Y010343D01*
X011965Y010343D01*
X012014Y010295D01*
X012014Y010198D01*
X011965Y010149D01*
X011869Y010149D01*
X011772Y010246D01*
X011724Y010343D01*
X011788Y004877D02*
X011982Y004877D01*
X011885Y004877D02*
X011885Y004587D01*
X011687Y004587D02*
X011687Y004780D01*
X011591Y004877D01*
X011494Y004780D01*
X011494Y004587D01*
X011494Y004732D02*
X011687Y004732D01*
X012083Y004877D02*
X012277Y004877D01*
X012180Y004877D02*
X012180Y004587D01*
X012378Y004587D02*
X012474Y004587D01*
X012426Y004587D02*
X012426Y004877D01*
X012378Y004877D02*
X012474Y004877D01*
X012574Y004877D02*
X012768Y004587D01*
X012768Y004877D01*
X012869Y004877D02*
X012869Y004829D01*
X012966Y004732D01*
X012966Y004587D01*
X012966Y004732D02*
X013062Y004829D01*
X013062Y004877D01*
X013163Y004829D02*
X013212Y004877D01*
X013309Y004877D01*
X013357Y004829D01*
X013357Y004780D01*
X013163Y004587D01*
X013357Y004587D01*
X013458Y004732D02*
X013652Y004732D01*
X013603Y004587D02*
X013603Y004877D01*
X013458Y004732D01*
X012574Y004587D02*
X012574Y004877D01*
X017574Y002984D02*
X017864Y002984D01*
X017864Y003080D02*
X017864Y002887D01*
X017670Y002887D02*
X017574Y002984D01*
X018220Y006437D02*
X018124Y006534D01*
X018414Y006534D01*
X018414Y006630D02*
X018414Y006437D01*
D15*
X014079Y005272D02*
X014079Y004172D01*
X012629Y007222D02*
X011229Y007222D01*
X010679Y005322D02*
X010679Y004172D01*
X011229Y011122D02*
X012629Y011122D01*
M02*
