G75*
G70*
%OFA0B0*%
%FSLAX24Y24*%
%IPPOS*%
%LPD*%
%AMOC8*
5,1,8,0,0,1.08239X$1,22.5*
%
%ADD10R,0.0950X0.0320*%
%ADD11R,0.0820X0.0820*%
%ADD12OC8,0.0820*%
%ADD13R,0.0592X0.0671*%
%ADD14R,0.0552X0.0552*%
%ADD15R,0.0340X0.0880*%
%ADD16R,0.0671X0.0592*%
%ADD17R,0.0513X0.0395*%
%ADD18R,0.0671X0.0671*%
%ADD19R,0.1340X0.0552*%
%ADD20R,0.0580X0.0330*%
%ADD21R,0.0330X0.0580*%
%ADD22C,0.0437*%
D10*
X009930Y008405D03*
X009930Y008905D03*
X009930Y009405D03*
X009930Y009905D03*
X009930Y010405D03*
X009930Y010905D03*
X009930Y011405D03*
X011980Y011405D03*
X011980Y010905D03*
X011980Y010405D03*
X011980Y009905D03*
X011980Y009405D03*
X011980Y008905D03*
X011980Y008405D03*
D11*
X011955Y006455D03*
D12*
X011955Y005455D03*
X010955Y005455D03*
X010955Y006455D03*
X009955Y006455D03*
X009955Y005455D03*
D13*
X009656Y007780D03*
X010404Y007780D03*
D14*
X014005Y008342D03*
X014005Y009168D03*
X015005Y009168D03*
X015005Y008342D03*
X016005Y008342D03*
X016005Y009168D03*
X017005Y009168D03*
X017005Y008342D03*
X018005Y008342D03*
X018005Y009168D03*
X018005Y007168D03*
X018005Y006342D03*
X017005Y006342D03*
X017005Y007168D03*
X016005Y007168D03*
X016005Y006342D03*
X015005Y006342D03*
X015005Y007168D03*
X014005Y007168D03*
X014005Y006342D03*
X014005Y005168D03*
X014005Y004342D03*
X015005Y004342D03*
X015005Y005168D03*
X016005Y005168D03*
X016005Y004342D03*
X017005Y004342D03*
X017005Y005168D03*
X018005Y005168D03*
X018005Y004342D03*
X018005Y003168D03*
X018005Y002342D03*
X017005Y002342D03*
X017005Y003168D03*
X016005Y003168D03*
X016005Y002342D03*
X015005Y002342D03*
X015005Y003168D03*
X014005Y003168D03*
X014005Y002342D03*
D15*
X014119Y011356D03*
X014619Y011356D03*
X015119Y011356D03*
X015619Y011356D03*
X016119Y011356D03*
X016619Y011356D03*
X017119Y011356D03*
X017119Y013776D03*
X016619Y013776D03*
X016119Y013776D03*
X015619Y013776D03*
X015119Y013776D03*
X014619Y013776D03*
X014119Y013776D03*
D16*
X017882Y012930D03*
X017882Y012182D03*
X008508Y008155D03*
X008508Y007407D03*
D17*
X006507Y005841D03*
X007570Y005881D03*
X007570Y006550D03*
X007570Y007219D03*
X007570Y007888D03*
X007570Y008558D03*
X006507Y008558D03*
D18*
X006731Y003593D03*
X008109Y003593D03*
D19*
X007066Y013118D03*
X007066Y014692D03*
X007066Y015768D03*
X007066Y017342D03*
X009744Y017342D03*
X009744Y015768D03*
X009744Y014692D03*
X009744Y013118D03*
D20*
X008505Y006705D03*
X008505Y006305D03*
D21*
X008705Y003605D03*
X009105Y003605D03*
D22*
X007055Y006605D03*
X009605Y007205D03*
X013505Y007255D03*
X014505Y007255D03*
X015505Y007255D03*
X016505Y007255D03*
X017505Y007255D03*
X017505Y005255D03*
X016505Y005255D03*
X015505Y005255D03*
X014505Y005255D03*
X013505Y005255D03*
X013505Y003255D03*
X014505Y003255D03*
X015505Y003255D03*
X016505Y003255D03*
X017505Y003255D03*
X017505Y009255D03*
X016505Y009255D03*
X015505Y009255D03*
X014505Y009255D03*
X013505Y009255D03*
X009905Y011955D03*
X012480Y015855D03*
X017880Y011505D03*
M02*
