%
M48
M72
T01C0.0197
T02C0.0400
%
T01
X7055Y6605
X9605Y7205
X13505Y7255
X14505Y7255
X15505Y7255
X16505Y7255
X17505Y7255
X17505Y5255
X16505Y5255
X15505Y5255
X14505Y5255
X13505Y5255
X13505Y3255
X14505Y3255
X15505Y3255
X16505Y3255
X17505Y3255
X17505Y9255
X16505Y9255
X15505Y9255
X14505Y9255
X13505Y9255
X9905Y11955
X12480Y15855
X17880Y11505
T02
X11955Y6455
X11955Y5455
X10955Y5455
X10955Y6455
X9955Y6455
X9955Y5455
M30
