G75*
G70*
%OFA0B0*%
%FSLAX24Y24*%
%IPPOS*%
%LPD*%
%AMOC8*
5,1,8,0,0,1.08239X$1,22.5*
%
%ADD10R,0.0870X0.0240*%
%ADD11R,0.0512X0.0591*%
%ADD12R,0.0472X0.0472*%
%ADD13R,0.0260X0.0800*%
%ADD14R,0.0591X0.0512*%
%ADD15R,0.0433X0.0315*%
%ADD16R,0.0591X0.0591*%
%ADD17R,0.1260X0.0472*%
D10*
X009930Y008405D03*
X009930Y008905D03*
X009930Y009405D03*
X009930Y009905D03*
X009930Y010405D03*
X009930Y010905D03*
X009930Y011405D03*
X011980Y011405D03*
X011980Y010905D03*
X011980Y010405D03*
X011980Y009905D03*
X011980Y009405D03*
X011980Y008905D03*
X011980Y008405D03*
D11*
X010404Y007780D03*
X009656Y007780D03*
D12*
X014005Y008342D03*
X014005Y009168D03*
X015005Y009168D03*
X015005Y008342D03*
X016005Y008342D03*
X016005Y009168D03*
X017005Y009168D03*
X017005Y008342D03*
X018005Y008342D03*
X018005Y009168D03*
X018005Y007168D03*
X018005Y006342D03*
X017005Y006342D03*
X017005Y007168D03*
X016005Y007168D03*
X016005Y006342D03*
X015005Y006342D03*
X015005Y007168D03*
X014005Y007168D03*
X014005Y006342D03*
X014005Y005168D03*
X014005Y004342D03*
X015005Y004342D03*
X015005Y005168D03*
X016005Y005168D03*
X016005Y004342D03*
X017005Y004342D03*
X017005Y005168D03*
X018005Y005168D03*
X018005Y004342D03*
X018005Y003168D03*
X018005Y002342D03*
X017005Y002342D03*
X017005Y003168D03*
X016005Y003168D03*
X016005Y002342D03*
X015005Y002342D03*
X015005Y003168D03*
X014005Y003168D03*
X014005Y002342D03*
D13*
X014119Y011356D03*
X014619Y011356D03*
X015119Y011356D03*
X015619Y011356D03*
X016119Y011356D03*
X016619Y011356D03*
X017119Y011356D03*
X017119Y013776D03*
X016619Y013776D03*
X016119Y013776D03*
X015619Y013776D03*
X015119Y013776D03*
X014619Y013776D03*
X014119Y013776D03*
D14*
X017882Y012930D03*
X017882Y012182D03*
X008508Y008155D03*
X008508Y007407D03*
D15*
X006507Y005841D03*
X007570Y005881D03*
X007570Y006550D03*
X007570Y007219D03*
X007570Y007888D03*
X007570Y008558D03*
X006507Y008558D03*
D16*
X006731Y003593D03*
X008109Y003593D03*
D17*
X007066Y013118D03*
X007066Y014692D03*
X007066Y015768D03*
X007066Y017342D03*
X009744Y017342D03*
X009744Y015768D03*
X009744Y014692D03*
X009744Y013118D03*
M02*
