G75*
G70*
%OFA0B0*%
%FSLAX24Y24*%
%IPPOS*%
%LPD*%
%AMOC8*
5,1,8,0,0,1.08239X$1,22.5*
%
%ADD10C,0.0000*%
%ADD11R,0.0870X0.0240*%
%ADD12R,0.0740X0.0740*%
%ADD13OC8,0.0740*%
%ADD14R,0.0512X0.0591*%
%ADD15R,0.0472X0.0472*%
%ADD16R,0.0260X0.0800*%
%ADD17R,0.0591X0.0512*%
%ADD18R,0.0433X0.0315*%
%ADD19R,0.0591X0.0591*%
%ADD20R,0.1260X0.0472*%
%ADD21C,0.0080*%
%ADD22R,0.0500X0.0250*%
%ADD23R,0.0250X0.0500*%
%ADD24C,0.0160*%
%ADD25C,0.0357*%
%ADD26C,0.0100*%
D10*
X004992Y001305D02*
X004992Y019022D01*
X020740Y019022D01*
X020740Y001305D01*
X004992Y001305D01*
D11*
X009930Y008405D03*
X009930Y008905D03*
X009930Y009405D03*
X009930Y009905D03*
X009930Y010405D03*
X009930Y010905D03*
X009930Y011405D03*
X011980Y011405D03*
X011980Y010905D03*
X011980Y010405D03*
X011980Y009905D03*
X011980Y009405D03*
X011980Y008905D03*
X011980Y008405D03*
D12*
X011955Y006455D03*
D13*
X011955Y005455D03*
X010955Y005455D03*
X010955Y006455D03*
X009955Y006455D03*
X009955Y005455D03*
D14*
X009656Y007780D03*
X010404Y007780D03*
D15*
X014005Y008342D03*
X014005Y009168D03*
X015005Y009168D03*
X015005Y008342D03*
X016005Y008342D03*
X016005Y009168D03*
X017005Y009168D03*
X017005Y008342D03*
X018005Y008342D03*
X018005Y009168D03*
X018005Y007168D03*
X018005Y006342D03*
X017005Y006342D03*
X017005Y007168D03*
X016005Y007168D03*
X016005Y006342D03*
X015005Y006342D03*
X015005Y007168D03*
X014005Y007168D03*
X014005Y006342D03*
X014005Y005168D03*
X014005Y004342D03*
X015005Y004342D03*
X015005Y005168D03*
X016005Y005168D03*
X016005Y004342D03*
X017005Y004342D03*
X017005Y005168D03*
X018005Y005168D03*
X018005Y004342D03*
X018005Y003168D03*
X018005Y002342D03*
X017005Y002342D03*
X017005Y003168D03*
X016005Y003168D03*
X016005Y002342D03*
X015005Y002342D03*
X015005Y003168D03*
X014005Y003168D03*
X014005Y002342D03*
D16*
X014119Y011356D03*
X014619Y011356D03*
X015119Y011356D03*
X015619Y011356D03*
X016119Y011356D03*
X016619Y011356D03*
X017119Y011356D03*
X017119Y013776D03*
X016619Y013776D03*
X016119Y013776D03*
X015619Y013776D03*
X015119Y013776D03*
X014619Y013776D03*
X014119Y013776D03*
D17*
X017882Y012930D03*
X017882Y012182D03*
X008508Y008155D03*
X008508Y007407D03*
D18*
X007570Y007219D03*
X007570Y006550D03*
X007570Y005881D03*
X006507Y005841D03*
X007570Y007888D03*
X007570Y008558D03*
X006507Y008558D03*
D19*
X006731Y003593D03*
X008109Y003593D03*
D20*
X007066Y013118D03*
X007066Y014692D03*
X007066Y015768D03*
X007066Y017342D03*
X009744Y017342D03*
X009744Y015768D03*
X009744Y014692D03*
X009744Y013118D03*
D21*
X008505Y006655D02*
X008505Y006355D01*
X008755Y003605D02*
X009055Y003605D01*
D22*
X008505Y006305D03*
X008505Y006705D03*
D23*
X008705Y003605D03*
X009105Y003605D03*
D24*
X012580Y003605D01*
X012705Y003730D01*
X012705Y006455D01*
X011955Y006455D01*
X012705Y006455D02*
X012705Y008255D01*
X012580Y008380D01*
X011955Y008380D01*
X011980Y008405D01*
X011980Y008905D02*
X011080Y008905D01*
X010955Y008780D01*
X010955Y006455D01*
X010480Y007255D02*
X010080Y007255D01*
X009955Y007130D01*
X009955Y006455D01*
X009467Y005745D02*
X009405Y005683D01*
X009405Y005475D01*
X009935Y005475D01*
X009935Y005435D01*
X009975Y005435D01*
X009975Y004905D01*
X010183Y004905D01*
X010469Y005191D01*
X010735Y004925D01*
X011175Y004925D01*
X011455Y005205D01*
X011735Y004925D01*
X012175Y004925D01*
X012465Y005215D01*
X012465Y003845D01*
X009390Y003845D01*
X009390Y003921D01*
X009296Y004015D01*
X008914Y004015D01*
X008905Y004006D01*
X008896Y004015D01*
X008514Y004015D01*
X008509Y004010D01*
X008470Y004048D01*
X007747Y004048D01*
X007654Y003955D01*
X007654Y003232D01*
X007747Y003138D01*
X008470Y003138D01*
X008528Y003195D01*
X008896Y003195D01*
X008905Y003204D01*
X008914Y003195D01*
X009296Y003195D01*
X009390Y003289D01*
X009390Y003365D01*
X012628Y003365D01*
X012716Y003402D01*
X012841Y003527D01*
X012908Y003594D01*
X012945Y003682D01*
X012945Y008303D01*
X012908Y008391D01*
X012716Y008583D01*
X012628Y008620D01*
X012546Y008620D01*
X012511Y008655D01*
X012575Y008719D01*
X012575Y009091D01*
X012511Y009155D01*
X012521Y009165D01*
X013176Y009165D01*
X013218Y009063D01*
X013313Y008968D01*
X013438Y008917D01*
X013572Y008917D01*
X013601Y008928D01*
X013609Y008928D01*
X013609Y008866D01*
X013703Y008772D01*
X014307Y008772D01*
X014401Y008866D01*
X014401Y008932D01*
X014438Y008917D01*
X014572Y008917D01*
X014601Y008928D01*
X014609Y008928D01*
X014609Y008866D01*
X014703Y008772D01*
X015307Y008772D01*
X015401Y008866D01*
X015401Y008932D01*
X015438Y008917D01*
X015572Y008917D01*
X015601Y008928D01*
X015609Y008928D01*
X015609Y008866D01*
X015703Y008772D01*
X016307Y008772D01*
X016401Y008866D01*
X016401Y008932D01*
X016438Y008917D01*
X016572Y008917D01*
X016601Y008928D01*
X016609Y008928D01*
X016609Y008866D01*
X016703Y008772D01*
X017307Y008772D01*
X017401Y008866D01*
X017401Y008932D01*
X017438Y008917D01*
X017572Y008917D01*
X017601Y008928D01*
X017609Y008928D01*
X017609Y008866D01*
X017703Y008772D01*
X018307Y008772D01*
X018315Y008780D01*
X018315Y008730D01*
X018307Y008738D01*
X017703Y008738D01*
X017609Y008644D01*
X017609Y008582D01*
X017401Y008582D01*
X017401Y008644D01*
X017307Y008738D01*
X016703Y008738D01*
X016609Y008644D01*
X016609Y008582D01*
X016401Y008582D01*
X016401Y008644D01*
X016307Y008738D01*
X015703Y008738D01*
X015609Y008644D01*
X015609Y008582D01*
X015401Y008582D01*
X015401Y008644D01*
X015307Y008738D01*
X014703Y008738D01*
X014609Y008644D01*
X014609Y008582D01*
X014401Y008582D01*
X014401Y008644D01*
X014307Y008738D01*
X013703Y008738D01*
X013609Y008644D01*
X013609Y008039D01*
X013703Y007945D01*
X014307Y007945D01*
X014401Y008039D01*
X014401Y008102D01*
X014609Y008102D01*
X014609Y008039D01*
X014703Y007945D01*
X015307Y007945D01*
X015401Y008039D01*
X015401Y008102D01*
X015609Y008102D01*
X015609Y008039D01*
X015703Y007945D01*
X016307Y007945D01*
X016401Y008039D01*
X016401Y008102D01*
X016609Y008102D01*
X016609Y008039D01*
X016703Y007945D01*
X017307Y007945D01*
X017401Y008039D01*
X017401Y008102D01*
X017609Y008102D01*
X017609Y008039D01*
X017703Y007945D01*
X018307Y007945D01*
X018401Y008039D01*
X018401Y008102D01*
X018478Y008102D01*
X018566Y008138D01*
X018633Y008206D01*
X018758Y008331D01*
X018765Y008346D01*
X018765Y006582D01*
X018401Y006582D01*
X018401Y006644D01*
X018307Y006738D01*
X017703Y006738D01*
X017609Y006644D01*
X017609Y006582D01*
X017401Y006582D01*
X017401Y006644D01*
X017307Y006738D01*
X016703Y006738D01*
X016609Y006644D01*
X016609Y006582D01*
X016401Y006582D01*
X016401Y006644D01*
X016307Y006738D01*
X015703Y006738D01*
X015609Y006644D01*
X015609Y006582D01*
X015401Y006582D01*
X015401Y006644D01*
X015307Y006738D01*
X014703Y006738D01*
X014609Y006644D01*
X014609Y006582D01*
X014401Y006582D01*
X014401Y006644D01*
X014307Y006738D01*
X013703Y006738D01*
X013609Y006644D01*
X013609Y006039D01*
X013703Y005945D01*
X014307Y005945D01*
X014401Y006039D01*
X014401Y006102D01*
X014609Y006102D01*
X014609Y006039D01*
X014703Y005945D01*
X015307Y005945D01*
X015401Y006039D01*
X015401Y006102D01*
X015609Y006102D01*
X015609Y006039D01*
X015703Y005945D01*
X016307Y005945D01*
X016401Y006039D01*
X016401Y006102D01*
X016609Y006102D01*
X016609Y006039D01*
X016703Y005945D01*
X017307Y005945D01*
X017401Y006039D01*
X017401Y006102D01*
X017609Y006102D01*
X017609Y006039D01*
X017703Y005945D01*
X018307Y005945D01*
X018401Y006039D01*
X018401Y006102D01*
X018928Y006102D01*
X019016Y006138D01*
X019083Y006206D01*
X019140Y006262D01*
X019140Y004582D01*
X018401Y004582D01*
X018401Y004644D01*
X018307Y004738D01*
X017703Y004738D01*
X017609Y004644D01*
X017609Y004582D01*
X017401Y004582D01*
X017401Y004644D01*
X017307Y004738D01*
X016703Y004738D01*
X016609Y004644D01*
X016609Y004582D01*
X016401Y004582D01*
X016401Y004644D01*
X016307Y004738D01*
X015703Y004738D01*
X015609Y004644D01*
X015609Y004582D01*
X015401Y004582D01*
X015401Y004644D01*
X015307Y004738D01*
X014703Y004738D01*
X014609Y004644D01*
X014609Y004582D01*
X014401Y004582D01*
X014401Y004644D01*
X014307Y004738D01*
X013703Y004738D01*
X013609Y004644D01*
X013609Y004039D01*
X013703Y003945D01*
X014307Y003945D01*
X014401Y004039D01*
X014401Y004102D01*
X014609Y004102D01*
X014609Y004039D01*
X014703Y003945D01*
X015307Y003945D01*
X015401Y004039D01*
X015401Y004102D01*
X015609Y004102D01*
X015609Y004039D01*
X015703Y003945D01*
X016307Y003945D01*
X016401Y004039D01*
X016401Y004102D01*
X016609Y004102D01*
X016609Y004039D01*
X016703Y003945D01*
X017307Y003945D01*
X017401Y004039D01*
X017401Y004102D01*
X017609Y004102D01*
X017609Y004039D01*
X017703Y003945D01*
X018307Y003945D01*
X018401Y004039D01*
X018401Y004102D01*
X019303Y004102D01*
X019391Y004138D01*
X019458Y004206D01*
X019515Y004262D01*
X019515Y002582D01*
X018401Y002582D01*
X018401Y002644D01*
X018307Y002738D01*
X017703Y002738D01*
X017609Y002644D01*
X017609Y002582D01*
X017401Y002582D01*
X017401Y002644D01*
X017307Y002738D01*
X016703Y002738D01*
X016609Y002644D01*
X016609Y002582D01*
X016401Y002582D01*
X016401Y002644D01*
X016307Y002738D01*
X015703Y002738D01*
X015609Y002644D01*
X015609Y002582D01*
X015401Y002582D01*
X015401Y002644D01*
X015307Y002738D01*
X014703Y002738D01*
X014609Y002644D01*
X014609Y002582D01*
X014401Y002582D01*
X014401Y002644D01*
X014307Y002738D01*
X013703Y002738D01*
X013609Y002644D01*
X013609Y002039D01*
X013703Y001945D01*
X014307Y001945D01*
X014401Y002039D01*
X014401Y002102D01*
X014609Y002102D01*
X014609Y002039D01*
X014703Y001945D01*
X015307Y001945D01*
X015401Y002039D01*
X015401Y002102D01*
X015609Y002102D01*
X015609Y002039D01*
X015703Y001945D01*
X016307Y001945D01*
X016401Y002039D01*
X016401Y002102D01*
X016609Y002102D01*
X016609Y002039D01*
X016703Y001945D01*
X017307Y001945D01*
X017401Y002039D01*
X017401Y002102D01*
X017609Y002102D01*
X017609Y002039D01*
X017703Y001945D01*
X018307Y001945D01*
X018401Y002039D01*
X018401Y002102D01*
X019678Y002102D01*
X019766Y002138D01*
X019833Y002206D01*
X019958Y002331D01*
X019995Y002419D01*
X019995Y015828D01*
X019958Y015916D01*
X019891Y015983D01*
X019766Y016108D01*
X019678Y016145D01*
X014696Y016145D01*
X014608Y016108D01*
X014416Y015916D01*
X014379Y015828D01*
X014379Y014301D01*
X014360Y014320D01*
X014319Y014344D01*
X014273Y014356D01*
X014119Y014356D01*
X013965Y014356D01*
X013920Y014344D01*
X013879Y014320D01*
X013845Y014287D01*
X013821Y014246D01*
X013809Y014200D01*
X013809Y013776D01*
X013809Y013352D01*
X013821Y013307D01*
X013845Y013266D01*
X013879Y013232D01*
X013920Y013208D01*
X013965Y013196D01*
X014119Y013196D01*
X014119Y013776D01*
X013809Y013776D01*
X014119Y013776D01*
X014119Y013776D01*
X014119Y013776D01*
X014119Y014356D01*
X014119Y013776D01*
X014119Y013776D01*
X014119Y013196D01*
X014273Y013196D01*
X014319Y013208D01*
X014360Y013232D01*
X014383Y013256D01*
X014423Y013216D01*
X014815Y013216D01*
X014869Y013270D01*
X014923Y013216D01*
X015315Y013216D01*
X015369Y013270D01*
X015423Y013216D01*
X015815Y013216D01*
X015869Y013270D01*
X015923Y013216D01*
X016315Y013216D01*
X016369Y013270D01*
X016423Y013216D01*
X016815Y013216D01*
X016865Y013266D01*
X016865Y012454D01*
X016756Y012345D01*
X013857Y012345D01*
X013769Y012308D01*
X013702Y012241D01*
X013452Y011991D01*
X013415Y011903D01*
X013415Y011154D01*
X013406Y011145D01*
X012530Y011145D01*
X012559Y011174D01*
X012583Y011216D01*
X012595Y011261D01*
X012595Y011405D01*
X012595Y011549D01*
X012583Y011594D01*
X012559Y011636D01*
X012526Y011669D01*
X012484Y011693D01*
X012439Y011705D01*
X011980Y011705D01*
X011980Y011405D01*
X011980Y011405D01*
X012595Y011405D01*
X011980Y011405D01*
X011980Y011405D01*
X011980Y011405D01*
X011365Y011405D01*
X011365Y011549D01*
X011377Y011594D01*
X011401Y011636D01*
X011434Y011669D01*
X011476Y011693D01*
X011521Y011705D01*
X011980Y011705D01*
X011980Y011405D01*
X011365Y011405D01*
X011365Y011261D01*
X011377Y011216D01*
X011401Y011174D01*
X011434Y011141D01*
X011435Y011141D01*
X011385Y011091D01*
X011385Y010719D01*
X011449Y010655D01*
X011385Y010591D01*
X011385Y010219D01*
X011449Y010155D01*
X011385Y010091D01*
X011385Y009719D01*
X011449Y009655D01*
X011385Y009591D01*
X011385Y009219D01*
X011449Y009155D01*
X011439Y009145D01*
X011032Y009145D01*
X010944Y009108D01*
X010877Y009041D01*
X010845Y009009D01*
X010845Y009828D01*
X010808Y009916D01*
X010616Y010108D01*
X010528Y010145D01*
X010471Y010145D01*
X010461Y010155D01*
X010471Y010165D01*
X010878Y010165D01*
X010966Y010202D01*
X011033Y010269D01*
X011158Y010394D01*
X011195Y010482D01*
X011195Y017265D01*
X011158Y017353D01*
X011091Y017421D01*
X010966Y017546D01*
X010878Y017582D01*
X010534Y017582D01*
X010534Y017645D01*
X010440Y017739D01*
X009047Y017739D01*
X008954Y017645D01*
X008954Y017040D01*
X009047Y016946D01*
X010440Y016946D01*
X010534Y017040D01*
X010534Y017102D01*
X010715Y017102D01*
X010715Y014847D01*
X010666Y014896D01*
X010578Y014932D01*
X010534Y014932D01*
X010534Y014995D01*
X010440Y015089D01*
X009047Y015089D01*
X008954Y014995D01*
X008954Y014390D01*
X009047Y014296D01*
X010415Y014296D01*
X010415Y013529D01*
X010397Y013534D01*
X009782Y013534D01*
X009782Y013156D01*
X009705Y013156D01*
X009705Y013079D01*
X009782Y013079D01*
X009782Y012701D01*
X010397Y012701D01*
X010415Y012706D01*
X010415Y011685D01*
X010145Y011685D01*
X010145Y011716D01*
X010192Y011763D01*
X010243Y011888D01*
X010243Y012022D01*
X010192Y012147D01*
X010097Y012242D01*
X009972Y012293D01*
X009838Y012293D01*
X009713Y012242D01*
X009618Y012147D01*
X009567Y012022D01*
X009567Y011888D01*
X009618Y011763D01*
X009665Y011716D01*
X009665Y011685D01*
X009429Y011685D01*
X009335Y011591D01*
X009335Y011219D01*
X009399Y011155D01*
X009335Y011091D01*
X009335Y010719D01*
X009399Y010655D01*
X009335Y010591D01*
X009335Y010219D01*
X009399Y010155D01*
X009335Y010091D01*
X009335Y009719D01*
X009399Y009655D01*
X009335Y009591D01*
X009335Y009219D01*
X009399Y009155D01*
X009389Y009145D01*
X006182Y009145D01*
X006094Y009108D01*
X005969Y008983D01*
X005902Y008916D01*
X005865Y008828D01*
X005865Y003670D01*
X005902Y003582D01*
X006027Y003457D01*
X006094Y003390D01*
X006182Y003353D01*
X006276Y003353D01*
X006276Y003232D01*
X006369Y003138D01*
X007093Y003138D01*
X007186Y003232D01*
X007186Y003955D01*
X007093Y004048D01*
X006369Y004048D01*
X006345Y004024D01*
X006345Y005524D01*
X006790Y005524D01*
X006884Y005617D01*
X006884Y006065D01*
X006790Y006159D01*
X006345Y006159D01*
X006345Y008240D01*
X006790Y008240D01*
X006884Y008334D01*
X006884Y008665D01*
X007173Y008665D01*
X007173Y008558D01*
X007570Y008558D01*
X007966Y008558D01*
X007966Y008665D01*
X009389Y008665D01*
X009399Y008655D01*
X009389Y008645D01*
X009157Y008645D01*
X009069Y008608D01*
X009002Y008541D01*
X008951Y008490D01*
X008870Y008571D01*
X008146Y008571D01*
X008053Y008477D01*
X008053Y008383D01*
X007994Y008359D01*
X007938Y008302D01*
X007954Y008331D01*
X007966Y008377D01*
X007966Y008558D01*
X007570Y008558D01*
X007570Y008558D01*
X007570Y008558D01*
X007173Y008558D01*
X007173Y008377D01*
X007186Y008331D01*
X007209Y008290D01*
X007243Y008256D01*
X007284Y008233D01*
X007319Y008223D01*
X007284Y008214D01*
X007243Y008190D01*
X007209Y008156D01*
X007186Y008115D01*
X007173Y008070D01*
X007173Y007888D01*
X007173Y007707D01*
X007186Y007662D01*
X007209Y007620D01*
X007243Y007587D01*
X007284Y007563D01*
X007330Y007551D01*
X007570Y007551D01*
X007765Y007551D01*
X007765Y007537D01*
X007287Y007537D01*
X007193Y007443D01*
X007193Y006995D01*
X007287Y006902D01*
X007853Y006902D01*
X007932Y006981D01*
X008016Y007016D01*
X008069Y007069D01*
X008146Y006991D01*
X008265Y006991D01*
X008265Y006990D01*
X008189Y006990D01*
X008095Y006896D01*
X008095Y006514D01*
X008104Y006505D01*
X008095Y006496D01*
X008095Y006114D01*
X008189Y006020D01*
X008821Y006020D01*
X008866Y006065D01*
X008998Y006065D01*
X009018Y006045D01*
X009318Y005745D01*
X009467Y005745D01*
X009465Y005743D02*
X007966Y005743D01*
X007966Y005699D02*
X007966Y005881D01*
X007966Y006062D01*
X007954Y006108D01*
X007931Y006149D01*
X007897Y006182D01*
X007856Y006206D01*
X007810Y006218D01*
X007570Y006218D01*
X007570Y005881D01*
X007570Y005881D01*
X007570Y006218D01*
X007330Y006218D01*
X007284Y006206D01*
X007243Y006182D01*
X007209Y006149D01*
X007186Y006108D01*
X007173Y006062D01*
X007173Y005881D01*
X007570Y005881D01*
X007966Y005881D01*
X007570Y005881D01*
X007570Y005881D01*
X007570Y005881D01*
X007173Y005881D01*
X007173Y005699D01*
X007186Y005654D01*
X007209Y005613D01*
X007243Y005579D01*
X007284Y005555D01*
X007330Y005543D01*
X007570Y005543D01*
X007810Y005543D01*
X007856Y005555D01*
X007897Y005579D01*
X007931Y005613D01*
X007954Y005654D01*
X007966Y005699D01*
X007902Y005585D02*
X009405Y005585D01*
X009405Y005435D02*
X009405Y005227D01*
X009727Y004905D01*
X009935Y004905D01*
X009935Y005435D01*
X009405Y005435D01*
X009405Y005426D02*
X006345Y005426D01*
X006345Y005268D02*
X009405Y005268D01*
X009523Y005109D02*
X006345Y005109D01*
X006345Y004951D02*
X009682Y004951D01*
X009935Y004951D02*
X009975Y004951D01*
X009975Y005109D02*
X009935Y005109D01*
X009935Y005268D02*
X009975Y005268D01*
X009975Y005426D02*
X009935Y005426D01*
X010387Y005109D02*
X010551Y005109D01*
X010710Y004951D02*
X010228Y004951D01*
X011200Y004951D02*
X011710Y004951D01*
X011551Y005109D02*
X011359Y005109D01*
X012200Y004951D02*
X012465Y004951D01*
X012465Y005109D02*
X012359Y005109D01*
X012465Y004792D02*
X006345Y004792D01*
X006345Y004634D02*
X012465Y004634D01*
X012465Y004475D02*
X006345Y004475D01*
X006345Y004317D02*
X012465Y004317D01*
X012465Y004158D02*
X006345Y004158D01*
X006105Y003718D02*
X006230Y003593D01*
X006731Y003593D01*
X007186Y003524D02*
X007654Y003524D01*
X007654Y003366D02*
X007186Y003366D01*
X007162Y003207D02*
X007678Y003207D01*
X007654Y003683D02*
X007186Y003683D01*
X007186Y003841D02*
X007654Y003841D01*
X007698Y004000D02*
X007141Y004000D01*
X008109Y003593D02*
X008121Y003605D01*
X008705Y003605D01*
X009308Y003207D02*
X013167Y003207D01*
X013167Y003188D02*
X013218Y003063D01*
X013313Y002968D01*
X013438Y002917D01*
X013572Y002917D01*
X013601Y002928D01*
X013609Y002928D01*
X013609Y002866D01*
X013703Y002772D01*
X014307Y002772D01*
X014401Y002866D01*
X014401Y002932D01*
X014438Y002917D01*
X014572Y002917D01*
X014601Y002928D01*
X014609Y002928D01*
X014609Y002866D01*
X014703Y002772D01*
X015307Y002772D01*
X015401Y002866D01*
X015401Y002932D01*
X015438Y002917D01*
X015572Y002917D01*
X015601Y002928D01*
X015609Y002928D01*
X015609Y002866D01*
X015703Y002772D01*
X016307Y002772D01*
X016401Y002866D01*
X016401Y002932D01*
X016438Y002917D01*
X016572Y002917D01*
X016601Y002928D01*
X016609Y002928D01*
X016609Y002866D01*
X016703Y002772D01*
X017307Y002772D01*
X017401Y002866D01*
X017401Y002932D01*
X017438Y002917D01*
X017572Y002917D01*
X017601Y002928D01*
X017609Y002928D01*
X017609Y002866D01*
X017703Y002772D01*
X018307Y002772D01*
X018401Y002866D01*
X018401Y003471D01*
X018307Y003565D01*
X017703Y003565D01*
X017685Y003547D01*
X017572Y003593D01*
X017438Y003593D01*
X017325Y003547D01*
X017307Y003565D01*
X016703Y003565D01*
X016685Y003547D01*
X016572Y003593D01*
X016438Y003593D01*
X016325Y003547D01*
X016307Y003565D01*
X015703Y003565D01*
X015685Y003547D01*
X015572Y003593D01*
X015438Y003593D01*
X015325Y003547D01*
X015307Y003565D01*
X014703Y003565D01*
X014685Y003547D01*
X014572Y003593D01*
X014438Y003593D01*
X014325Y003547D01*
X014307Y003565D01*
X013703Y003565D01*
X013685Y003547D01*
X013572Y003593D01*
X013438Y003593D01*
X013313Y003542D01*
X013218Y003447D01*
X013167Y003322D01*
X013167Y003188D01*
X013233Y003049D02*
X005472Y003049D01*
X005472Y003207D02*
X006300Y003207D01*
X006153Y003366D02*
X005472Y003366D01*
X005472Y003524D02*
X005960Y003524D01*
X005865Y003683D02*
X005472Y003683D01*
X005472Y003841D02*
X005865Y003841D01*
X005865Y004000D02*
X005472Y004000D01*
X005472Y004158D02*
X005865Y004158D01*
X005865Y004317D02*
X005472Y004317D01*
X005472Y004475D02*
X005865Y004475D01*
X005865Y004634D02*
X005472Y004634D01*
X005472Y004792D02*
X005865Y004792D01*
X005865Y004951D02*
X005472Y004951D01*
X005472Y005109D02*
X005865Y005109D01*
X005865Y005268D02*
X005472Y005268D01*
X005472Y005426D02*
X005865Y005426D01*
X005865Y005585D02*
X005472Y005585D01*
X005472Y005743D02*
X005865Y005743D01*
X005865Y005902D02*
X005472Y005902D01*
X005472Y006060D02*
X005865Y006060D01*
X005865Y006219D02*
X005472Y006219D01*
X005472Y006377D02*
X005865Y006377D01*
X005865Y006536D02*
X005472Y006536D01*
X005472Y006694D02*
X005865Y006694D01*
X005865Y006853D02*
X005472Y006853D01*
X005472Y007011D02*
X005865Y007011D01*
X005865Y007170D02*
X005472Y007170D01*
X005472Y007328D02*
X005865Y007328D01*
X005865Y007487D02*
X005472Y007487D01*
X005472Y007645D02*
X005865Y007645D01*
X005865Y007804D02*
X005472Y007804D01*
X005472Y007962D02*
X005865Y007962D01*
X005865Y008121D02*
X005472Y008121D01*
X005472Y008279D02*
X005865Y008279D01*
X005865Y008438D02*
X005472Y008438D01*
X005472Y008596D02*
X005865Y008596D01*
X005865Y008755D02*
X005472Y008755D01*
X005472Y008913D02*
X005900Y008913D01*
X006057Y009072D02*
X005472Y009072D01*
X005472Y009230D02*
X009335Y009230D01*
X009335Y009389D02*
X005472Y009389D01*
X005472Y009547D02*
X009335Y009547D01*
X009348Y009706D02*
X005472Y009706D01*
X005472Y009864D02*
X009335Y009864D01*
X009335Y010023D02*
X005472Y010023D01*
X005472Y010181D02*
X009373Y010181D01*
X009335Y010340D02*
X005472Y010340D01*
X005472Y010498D02*
X009335Y010498D01*
X009397Y010657D02*
X005472Y010657D01*
X005472Y010815D02*
X009335Y010815D01*
X009335Y010974D02*
X005472Y010974D01*
X005472Y011132D02*
X009376Y011132D01*
X009335Y011291D02*
X005472Y011291D01*
X005472Y011449D02*
X009335Y011449D01*
X009351Y011608D02*
X005472Y011608D01*
X005472Y011766D02*
X009617Y011766D01*
X009567Y011925D02*
X005472Y011925D01*
X005472Y012083D02*
X009592Y012083D01*
X009713Y012242D02*
X005472Y012242D01*
X005472Y012400D02*
X010415Y012400D01*
X010415Y012242D02*
X010097Y012242D01*
X010218Y012083D02*
X010415Y012083D01*
X010415Y011925D02*
X010243Y011925D01*
X010193Y011766D02*
X010415Y011766D01*
X009905Y011955D02*
X009905Y011430D01*
X009930Y011405D01*
X009930Y010905D02*
X010530Y010905D01*
X010655Y011030D01*
X010655Y014567D01*
X010530Y014692D01*
X009744Y014692D01*
X009782Y015351D02*
X010397Y015351D01*
X010443Y015364D01*
X010484Y015387D01*
X010518Y015421D01*
X010541Y015462D01*
X010554Y015508D01*
X010554Y015729D01*
X010715Y015729D01*
X010715Y015887D02*
X010554Y015887D01*
X010554Y015806D02*
X010554Y016028D01*
X010541Y016073D01*
X010518Y016114D01*
X010484Y016148D01*
X010443Y016172D01*
X010397Y016184D01*
X009782Y016184D01*
X009782Y015806D01*
X009705Y015806D01*
X009705Y015729D01*
X009782Y015729D01*
X009782Y015351D01*
X009782Y015412D02*
X009705Y015412D01*
X009705Y015351D02*
X009090Y015351D01*
X009044Y015364D01*
X009003Y015387D01*
X008970Y015421D01*
X008946Y015462D01*
X008934Y015508D01*
X008934Y015729D01*
X007856Y015729D01*
X007856Y015887D02*
X008934Y015887D01*
X008934Y015806D02*
X009705Y015806D01*
X009705Y016184D01*
X009090Y016184D01*
X009044Y016172D01*
X009003Y016148D01*
X008970Y016114D01*
X008946Y016073D01*
X008934Y016028D01*
X008934Y015806D01*
X008934Y015729D02*
X009705Y015729D01*
X009782Y015729D01*
X009782Y015806D01*
X010554Y015806D01*
X010554Y015729D02*
X009782Y015729D01*
X009705Y015729D02*
X009705Y015351D01*
X009705Y015570D02*
X009782Y015570D01*
X009782Y015887D02*
X009705Y015887D01*
X009705Y016046D02*
X009782Y016046D01*
X010549Y016046D02*
X010715Y016046D01*
X010715Y016204D02*
X005472Y016204D01*
X005472Y016046D02*
X006276Y016046D01*
X006276Y016070D02*
X006370Y016164D01*
X007763Y016164D01*
X007856Y016070D01*
X007856Y015465D01*
X007763Y015371D01*
X006370Y015371D01*
X006276Y015465D01*
X006276Y016070D01*
X006276Y015887D02*
X005472Y015887D01*
X005472Y015729D02*
X006276Y015729D01*
X006276Y015570D02*
X005472Y015570D01*
X005472Y015412D02*
X006330Y015412D01*
X006370Y015089D02*
X006276Y014995D01*
X006276Y014390D01*
X006370Y014296D01*
X007763Y014296D01*
X007856Y014390D01*
X007856Y014995D01*
X007763Y015089D01*
X006370Y015089D01*
X006276Y014936D02*
X005472Y014936D01*
X005472Y014778D02*
X006276Y014778D01*
X006276Y014619D02*
X005472Y014619D01*
X005472Y014461D02*
X006276Y014461D01*
X006364Y014302D02*
X005472Y014302D01*
X005472Y014144D02*
X010415Y014144D01*
X010415Y013985D02*
X005472Y013985D01*
X005472Y013827D02*
X010415Y013827D01*
X010415Y013668D02*
X005472Y013668D01*
X005472Y013510D02*
X006366Y013510D01*
X006370Y013514D02*
X006276Y013420D01*
X006276Y012815D01*
X006370Y012721D01*
X007763Y012721D01*
X007856Y012815D01*
X007856Y013420D01*
X007763Y013514D01*
X006370Y013514D01*
X006276Y013351D02*
X005472Y013351D01*
X005472Y013193D02*
X006276Y013193D01*
X006276Y013034D02*
X005472Y013034D01*
X005472Y012876D02*
X006276Y012876D01*
X005472Y012717D02*
X009038Y012717D01*
X009044Y012714D02*
X009003Y012737D01*
X008970Y012771D01*
X008946Y012812D01*
X008934Y012858D01*
X008934Y013079D01*
X009705Y013079D01*
X009705Y012701D01*
X009090Y012701D01*
X009044Y012714D01*
X008934Y012876D02*
X007856Y012876D01*
X007856Y013034D02*
X008934Y013034D01*
X008934Y013156D02*
X009705Y013156D01*
X009705Y013534D01*
X009090Y013534D01*
X009044Y013522D01*
X009003Y013498D01*
X008970Y013464D01*
X008946Y013423D01*
X008934Y013378D01*
X008934Y013156D01*
X008934Y013193D02*
X007856Y013193D01*
X007856Y013351D02*
X008934Y013351D01*
X009023Y013510D02*
X007767Y013510D01*
X007768Y014302D02*
X009042Y014302D01*
X008954Y014461D02*
X007856Y014461D01*
X007856Y014619D02*
X008954Y014619D01*
X008954Y014778D02*
X007856Y014778D01*
X007856Y014936D02*
X008954Y014936D01*
X008979Y015412D02*
X007803Y015412D01*
X007856Y015570D02*
X008934Y015570D01*
X008938Y016046D02*
X007856Y016046D01*
X007763Y016946D02*
X007856Y017040D01*
X007856Y017645D01*
X007763Y017739D01*
X006370Y017739D01*
X006276Y017645D01*
X006276Y017040D01*
X006370Y016946D01*
X007763Y016946D01*
X007813Y016997D02*
X008997Y016997D01*
X008954Y017155D02*
X007856Y017155D01*
X007856Y017314D02*
X008954Y017314D01*
X008954Y017472D02*
X007856Y017472D01*
X007856Y017631D02*
X008954Y017631D01*
X009744Y017342D02*
X010830Y017342D01*
X010955Y017217D01*
X010955Y010530D01*
X010830Y010405D01*
X009930Y010405D01*
X009930Y009905D02*
X010480Y009905D01*
X010605Y009780D01*
X010605Y007805D01*
X010580Y007780D01*
X010404Y007780D01*
X010605Y007805D02*
X010605Y007380D01*
X010480Y007255D01*
X009605Y007205D02*
X009605Y007729D01*
X009656Y007780D01*
X009105Y008305D02*
X009205Y008405D01*
X009930Y008405D01*
X009930Y008905D02*
X006230Y008905D01*
X006105Y008780D01*
X006105Y003718D01*
X005472Y002890D02*
X013609Y002890D01*
X013696Y002732D02*
X005472Y002732D01*
X005472Y002573D02*
X013609Y002573D01*
X013609Y002415D02*
X005472Y002415D01*
X005472Y002256D02*
X013609Y002256D01*
X013609Y002098D02*
X005472Y002098D01*
X005472Y001939D02*
X020260Y001939D01*
X020260Y001785D02*
X005472Y001785D01*
X005472Y018542D01*
X020260Y018542D01*
X020260Y001785D01*
X020260Y002098D02*
X018401Y002098D01*
X018005Y002342D02*
X019630Y002342D01*
X019755Y002467D01*
X019755Y015780D01*
X019630Y015905D01*
X014744Y015905D01*
X014619Y015780D01*
X014619Y013776D01*
X015119Y013776D02*
X015119Y015405D01*
X015244Y015530D01*
X019255Y015530D01*
X019380Y015405D01*
X019380Y004467D01*
X019255Y004342D01*
X018005Y004342D01*
X017005Y004342D01*
X016005Y004342D01*
X015005Y004342D01*
X014005Y004342D01*
X013609Y004317D02*
X012945Y004317D01*
X012945Y004475D02*
X013609Y004475D01*
X013609Y004634D02*
X012945Y004634D01*
X012945Y004792D02*
X013683Y004792D01*
X013703Y004772D02*
X014307Y004772D01*
X014401Y004866D01*
X014401Y004932D01*
X014438Y004917D01*
X014572Y004917D01*
X014601Y004928D01*
X014609Y004928D01*
X014609Y004866D01*
X014703Y004772D01*
X015307Y004772D01*
X015401Y004866D01*
X015401Y004932D01*
X015438Y004917D01*
X015572Y004917D01*
X015601Y004928D01*
X015609Y004928D01*
X015609Y004866D01*
X015703Y004772D01*
X016307Y004772D01*
X016401Y004866D01*
X016401Y004932D01*
X016438Y004917D01*
X016572Y004917D01*
X016601Y004928D01*
X016609Y004928D01*
X016609Y004866D01*
X016703Y004772D01*
X017307Y004772D01*
X017401Y004866D01*
X017401Y004932D01*
X017438Y004917D01*
X017572Y004917D01*
X017601Y004928D01*
X017609Y004928D01*
X017609Y004866D01*
X017703Y004772D01*
X018307Y004772D01*
X018401Y004866D01*
X018401Y005471D01*
X018307Y005565D01*
X017703Y005565D01*
X017685Y005547D01*
X017572Y005593D01*
X017438Y005593D01*
X017325Y005547D01*
X017307Y005565D01*
X016703Y005565D01*
X016685Y005547D01*
X016572Y005593D01*
X016438Y005593D01*
X016325Y005547D01*
X016307Y005565D01*
X015703Y005565D01*
X015685Y005547D01*
X015572Y005593D01*
X015438Y005593D01*
X015325Y005547D01*
X015307Y005565D01*
X014703Y005565D01*
X014685Y005547D01*
X014572Y005593D01*
X014438Y005593D01*
X014325Y005547D01*
X014307Y005565D01*
X013703Y005565D01*
X013685Y005547D01*
X013572Y005593D01*
X013438Y005593D01*
X013313Y005542D01*
X013218Y005447D01*
X013167Y005322D01*
X013167Y005188D01*
X013218Y005063D01*
X013313Y004968D01*
X013438Y004917D01*
X013572Y004917D01*
X013601Y004928D01*
X013609Y004928D01*
X013609Y004866D01*
X013703Y004772D01*
X013356Y004951D02*
X012945Y004951D01*
X012945Y005109D02*
X013199Y005109D01*
X013167Y005268D02*
X012945Y005268D01*
X012945Y005426D02*
X013210Y005426D01*
X013416Y005585D02*
X012945Y005585D01*
X012945Y005743D02*
X019140Y005743D01*
X019140Y005585D02*
X017594Y005585D01*
X017416Y005585D02*
X016594Y005585D01*
X016416Y005585D02*
X015594Y005585D01*
X015416Y005585D02*
X014594Y005585D01*
X014416Y005585D02*
X013594Y005585D01*
X013505Y005255D02*
X013592Y005168D01*
X014005Y005168D01*
X014327Y004792D02*
X014683Y004792D01*
X014609Y004634D02*
X014401Y004634D01*
X014592Y005168D02*
X014505Y005255D01*
X014592Y005168D02*
X015005Y005168D01*
X015327Y004792D02*
X015683Y004792D01*
X015609Y004634D02*
X015401Y004634D01*
X015592Y005168D02*
X015505Y005255D01*
X015592Y005168D02*
X016005Y005168D01*
X016327Y004792D02*
X016683Y004792D01*
X016609Y004634D02*
X016401Y004634D01*
X016592Y005168D02*
X016505Y005255D01*
X016592Y005168D02*
X017005Y005168D01*
X017327Y004792D02*
X017683Y004792D01*
X017609Y004634D02*
X017401Y004634D01*
X017592Y005168D02*
X017505Y005255D01*
X017592Y005168D02*
X018005Y005168D01*
X018401Y005109D02*
X019140Y005109D01*
X019140Y004951D02*
X018401Y004951D01*
X018327Y004792D02*
X019140Y004792D01*
X019140Y004634D02*
X018401Y004634D01*
X018401Y005268D02*
X019140Y005268D01*
X019140Y005426D02*
X018401Y005426D01*
X018401Y006060D02*
X019140Y006060D01*
X019140Y005902D02*
X012945Y005902D01*
X012945Y006060D02*
X013609Y006060D01*
X013609Y006219D02*
X012945Y006219D01*
X012945Y006377D02*
X013609Y006377D01*
X013609Y006536D02*
X012945Y006536D01*
X012945Y006694D02*
X013659Y006694D01*
X013703Y006772D02*
X014307Y006772D01*
X014401Y006866D01*
X014401Y006932D01*
X014438Y006917D01*
X014572Y006917D01*
X014601Y006928D01*
X014609Y006928D01*
X014609Y006866D01*
X014703Y006772D01*
X015307Y006772D01*
X015401Y006866D01*
X015401Y006932D01*
X015438Y006917D01*
X015572Y006917D01*
X015601Y006928D01*
X015609Y006928D01*
X015609Y006866D01*
X015703Y006772D01*
X016307Y006772D01*
X016401Y006866D01*
X016401Y006932D01*
X016438Y006917D01*
X016572Y006917D01*
X016601Y006928D01*
X016609Y006928D01*
X016609Y006866D01*
X016703Y006772D01*
X017307Y006772D01*
X017401Y006866D01*
X017401Y006932D01*
X017438Y006917D01*
X017572Y006917D01*
X017601Y006928D01*
X017609Y006928D01*
X017609Y006866D01*
X017703Y006772D01*
X018307Y006772D01*
X018401Y006866D01*
X018401Y007471D01*
X018307Y007565D01*
X017703Y007565D01*
X017685Y007547D01*
X017572Y007593D01*
X017438Y007593D01*
X017325Y007547D01*
X017307Y007565D01*
X016703Y007565D01*
X016685Y007547D01*
X016572Y007593D01*
X016438Y007593D01*
X016325Y007547D01*
X016307Y007565D01*
X015703Y007565D01*
X015685Y007547D01*
X015572Y007593D01*
X015438Y007593D01*
X015325Y007547D01*
X015307Y007565D01*
X014703Y007565D01*
X014685Y007547D01*
X014572Y007593D01*
X014438Y007593D01*
X014325Y007547D01*
X014307Y007565D01*
X013703Y007565D01*
X013685Y007547D01*
X013572Y007593D01*
X013438Y007593D01*
X013313Y007542D01*
X013218Y007447D01*
X013167Y007322D01*
X013167Y007188D01*
X013218Y007063D01*
X013313Y006968D01*
X013438Y006917D01*
X013572Y006917D01*
X013601Y006928D01*
X013609Y006928D01*
X013609Y006866D01*
X013703Y006772D01*
X013622Y006853D02*
X012945Y006853D01*
X012945Y007011D02*
X013270Y007011D01*
X013174Y007170D02*
X012945Y007170D01*
X012945Y007328D02*
X013169Y007328D01*
X013258Y007487D02*
X012945Y007487D01*
X012945Y007645D02*
X018765Y007645D01*
X018765Y007487D02*
X018386Y007487D01*
X018401Y007328D02*
X018765Y007328D01*
X018765Y007170D02*
X018401Y007170D01*
X018401Y007011D02*
X018765Y007011D01*
X018765Y006853D02*
X018388Y006853D01*
X018351Y006694D02*
X018765Y006694D01*
X019005Y006467D02*
X018880Y006342D01*
X018005Y006342D01*
X017005Y006342D01*
X016005Y006342D01*
X015005Y006342D01*
X014005Y006342D01*
X014401Y006060D02*
X014609Y006060D01*
X014659Y006694D02*
X014351Y006694D01*
X014388Y006853D02*
X014622Y006853D01*
X014592Y007168D02*
X014505Y007255D01*
X014592Y007168D02*
X015005Y007168D01*
X015388Y006853D02*
X015622Y006853D01*
X015659Y006694D02*
X015351Y006694D01*
X015401Y006060D02*
X015609Y006060D01*
X016401Y006060D02*
X016609Y006060D01*
X016659Y006694D02*
X016351Y006694D01*
X016388Y006853D02*
X016622Y006853D01*
X016592Y007168D02*
X016505Y007255D01*
X016592Y007168D02*
X017005Y007168D01*
X017388Y006853D02*
X017622Y006853D01*
X017659Y006694D02*
X017351Y006694D01*
X017401Y006060D02*
X017609Y006060D01*
X017592Y007168D02*
X017505Y007255D01*
X017592Y007168D02*
X018005Y007168D01*
X017686Y007962D02*
X017324Y007962D01*
X017005Y008342D02*
X016005Y008342D01*
X015005Y008342D01*
X014005Y008342D01*
X013609Y008279D02*
X012945Y008279D01*
X012945Y008121D02*
X013609Y008121D01*
X013686Y007962D02*
X012945Y007962D01*
X012945Y007804D02*
X018765Y007804D01*
X018765Y007962D02*
X018324Y007962D01*
X018523Y008121D02*
X018765Y008121D01*
X018765Y008279D02*
X018707Y008279D01*
X018555Y008467D02*
X018430Y008342D01*
X018005Y008342D01*
X017005Y008342D01*
X017401Y008596D02*
X017609Y008596D01*
X017609Y008913D02*
X017401Y008913D01*
X017592Y009168D02*
X018005Y009168D01*
X017592Y009168D02*
X017505Y009255D01*
X017505Y009505D01*
X016619Y010391D01*
X016619Y011356D01*
X016119Y011356D02*
X016119Y009891D01*
X016505Y009505D01*
X016505Y009255D01*
X016592Y009168D01*
X017005Y009168D01*
X016609Y008913D02*
X016401Y008913D01*
X016401Y008596D02*
X016609Y008596D01*
X016686Y007962D02*
X016324Y007962D01*
X015686Y007962D02*
X015324Y007962D01*
X014686Y007962D02*
X014324Y007962D01*
X014401Y008596D02*
X014609Y008596D01*
X014609Y008913D02*
X014401Y008913D01*
X014592Y009168D02*
X015005Y009168D01*
X014592Y009168D02*
X014505Y009255D01*
X014505Y009455D01*
X015119Y010069D01*
X015119Y011356D01*
X014619Y011356D02*
X014605Y011342D01*
X014605Y010205D01*
X014305Y009905D01*
X011980Y009905D01*
X011980Y009405D02*
X013380Y009405D01*
X013505Y009280D01*
X013505Y009255D01*
X013592Y009168D01*
X014005Y009168D01*
X013609Y008913D02*
X012575Y008913D01*
X012575Y008755D02*
X018315Y008755D01*
X018555Y008467D02*
X018555Y014705D01*
X018455Y014805D01*
X016244Y014805D01*
X016119Y014680D01*
X016119Y013776D01*
X015619Y013776D02*
X015619Y015030D01*
X015744Y015155D01*
X018880Y015155D01*
X019005Y015030D01*
X019005Y006467D01*
X019096Y006219D02*
X019140Y006219D01*
X019995Y006219D02*
X020260Y006219D01*
X020260Y006377D02*
X019995Y006377D01*
X019995Y006536D02*
X020260Y006536D01*
X020260Y006694D02*
X019995Y006694D01*
X019995Y006853D02*
X020260Y006853D01*
X020260Y007011D02*
X019995Y007011D01*
X019995Y007170D02*
X020260Y007170D01*
X020260Y007328D02*
X019995Y007328D01*
X019995Y007487D02*
X020260Y007487D01*
X020260Y007645D02*
X019995Y007645D01*
X019995Y007804D02*
X020260Y007804D01*
X020260Y007962D02*
X019995Y007962D01*
X019995Y008121D02*
X020260Y008121D01*
X020260Y008279D02*
X019995Y008279D01*
X019995Y008438D02*
X020260Y008438D01*
X020260Y008596D02*
X019995Y008596D01*
X019995Y008755D02*
X020260Y008755D01*
X020260Y008913D02*
X019995Y008913D01*
X019995Y009072D02*
X020260Y009072D01*
X020260Y009230D02*
X019995Y009230D01*
X019995Y009389D02*
X020260Y009389D01*
X020260Y009547D02*
X019995Y009547D01*
X019995Y009706D02*
X020260Y009706D01*
X020260Y009864D02*
X019995Y009864D01*
X019995Y010023D02*
X020260Y010023D01*
X020260Y010181D02*
X019995Y010181D01*
X019995Y010340D02*
X020260Y010340D01*
X020260Y010498D02*
X019995Y010498D01*
X019995Y010657D02*
X020260Y010657D01*
X020260Y010815D02*
X019995Y010815D01*
X019995Y010974D02*
X020260Y010974D01*
X020260Y011132D02*
X019995Y011132D01*
X019995Y011291D02*
X020260Y011291D01*
X020260Y011449D02*
X019995Y011449D01*
X019995Y011608D02*
X020260Y011608D01*
X020260Y011766D02*
X019995Y011766D01*
X019995Y011925D02*
X020260Y011925D01*
X020260Y012083D02*
X019995Y012083D01*
X019995Y012242D02*
X020260Y012242D01*
X020260Y012400D02*
X019995Y012400D01*
X019995Y012559D02*
X020260Y012559D01*
X020260Y012717D02*
X019995Y012717D01*
X019995Y012876D02*
X020260Y012876D01*
X020260Y013034D02*
X019995Y013034D01*
X019995Y013193D02*
X020260Y013193D01*
X020260Y013351D02*
X019995Y013351D01*
X019995Y013510D02*
X020260Y013510D01*
X020260Y013668D02*
X019995Y013668D01*
X019995Y013827D02*
X020260Y013827D01*
X020260Y013985D02*
X019995Y013985D01*
X019995Y014144D02*
X020260Y014144D01*
X020260Y014302D02*
X019995Y014302D01*
X019995Y014461D02*
X020260Y014461D01*
X020260Y014619D02*
X019995Y014619D01*
X019995Y014778D02*
X020260Y014778D01*
X020260Y014936D02*
X019995Y014936D01*
X019995Y015095D02*
X020260Y015095D01*
X020260Y015253D02*
X019995Y015253D01*
X019995Y015412D02*
X020260Y015412D01*
X020260Y015570D02*
X019995Y015570D01*
X019995Y015729D02*
X020260Y015729D01*
X020260Y015887D02*
X019970Y015887D01*
X019891Y015983D02*
X019891Y015983D01*
X019829Y016046D02*
X020260Y016046D01*
X020260Y016204D02*
X011195Y016204D01*
X011195Y016046D02*
X014545Y016046D01*
X014404Y015887D02*
X011195Y015887D01*
X011195Y015729D02*
X014379Y015729D01*
X014379Y015570D02*
X011195Y015570D01*
X011195Y015412D02*
X014379Y015412D01*
X014379Y015253D02*
X011195Y015253D01*
X011195Y015095D02*
X014379Y015095D01*
X014379Y014936D02*
X011195Y014936D01*
X011195Y014778D02*
X014379Y014778D01*
X014379Y014619D02*
X011195Y014619D01*
X011195Y014461D02*
X014379Y014461D01*
X014378Y014302D02*
X014379Y014302D01*
X014119Y014302D02*
X014119Y014302D01*
X014119Y014144D02*
X014119Y014144D01*
X014119Y013985D02*
X014119Y013985D01*
X014119Y013827D02*
X014119Y013827D01*
X014119Y013668D02*
X014119Y013668D01*
X014119Y013510D02*
X014119Y013510D01*
X014119Y013351D02*
X014119Y013351D01*
X013810Y013351D02*
X011195Y013351D01*
X011195Y013193D02*
X016865Y013193D01*
X016865Y013034D02*
X011195Y013034D01*
X011195Y012876D02*
X016865Y012876D01*
X016865Y012717D02*
X011195Y012717D01*
X011195Y012559D02*
X016865Y012559D01*
X016811Y012400D02*
X011195Y012400D01*
X011195Y012242D02*
X013702Y012242D01*
X013544Y012083D02*
X011195Y012083D01*
X011195Y011925D02*
X013424Y011925D01*
X013415Y011766D02*
X011195Y011766D01*
X011195Y011608D02*
X011385Y011608D01*
X011365Y011449D02*
X011195Y011449D01*
X011195Y011291D02*
X011365Y011291D01*
X011426Y011132D02*
X011195Y011132D01*
X011195Y010974D02*
X011385Y010974D01*
X011385Y010815D02*
X011195Y010815D01*
X011195Y010657D02*
X011447Y010657D01*
X011385Y010498D02*
X011195Y010498D01*
X011104Y010340D02*
X011385Y010340D01*
X011423Y010181D02*
X010916Y010181D01*
X010702Y010023D02*
X011385Y010023D01*
X011385Y009864D02*
X010830Y009864D01*
X010845Y009706D02*
X011398Y009706D01*
X011385Y009547D02*
X010845Y009547D01*
X010845Y009389D02*
X011385Y009389D01*
X011385Y009230D02*
X010845Y009230D01*
X010845Y009072D02*
X010907Y009072D01*
X011980Y010405D02*
X013905Y010405D01*
X014105Y010605D01*
X014105Y011342D01*
X014119Y011356D01*
X013655Y011055D02*
X013655Y011855D01*
X013905Y012105D01*
X016855Y012105D01*
X017105Y012355D01*
X017105Y013762D01*
X017119Y013776D01*
X016630Y013765D02*
X016630Y014380D01*
X016705Y014455D01*
X018005Y014455D01*
X018105Y014355D01*
X018105Y012957D01*
X017882Y012930D01*
X017882Y012182D02*
X017880Y012180D01*
X017880Y011505D01*
X017882Y011481D02*
X017882Y012182D01*
X017882Y011481D02*
X017757Y011356D01*
X017119Y011356D01*
X015619Y011356D02*
X015619Y009369D01*
X015505Y009255D01*
X015592Y009168D01*
X016005Y009168D01*
X015609Y008913D02*
X015401Y008913D01*
X015401Y008596D02*
X015609Y008596D01*
X015505Y007255D02*
X015592Y007168D01*
X016005Y007168D01*
X014005Y007168D02*
X013592Y007168D01*
X013505Y007255D01*
X013609Y008438D02*
X012862Y008438D01*
X012686Y008596D02*
X013609Y008596D01*
X013215Y009072D02*
X012575Y009072D01*
X011980Y010905D02*
X013505Y010905D01*
X013655Y011055D01*
X013415Y011291D02*
X012595Y011291D01*
X012595Y011449D02*
X013415Y011449D01*
X013415Y011608D02*
X012575Y011608D01*
X011980Y011608D02*
X011980Y011608D01*
X011980Y011449D02*
X011980Y011449D01*
X010415Y012559D02*
X005472Y012559D01*
X005472Y015095D02*
X010715Y015095D01*
X010715Y015253D02*
X005472Y015253D01*
X005472Y016363D02*
X010715Y016363D01*
X010715Y016521D02*
X005472Y016521D01*
X005472Y016680D02*
X010715Y016680D01*
X010715Y016838D02*
X005472Y016838D01*
X005472Y016997D02*
X006320Y016997D01*
X006276Y017155D02*
X005472Y017155D01*
X005472Y017314D02*
X006276Y017314D01*
X006276Y017472D02*
X005472Y017472D01*
X005472Y017631D02*
X006276Y017631D01*
X005472Y017789D02*
X020260Y017789D01*
X020260Y017631D02*
X010534Y017631D01*
X011040Y017472D02*
X020260Y017472D01*
X020260Y017314D02*
X011175Y017314D01*
X011195Y017155D02*
X020260Y017155D01*
X020260Y016997D02*
X011195Y016997D01*
X011195Y016838D02*
X020260Y016838D01*
X020260Y016680D02*
X011195Y016680D01*
X011195Y016521D02*
X020260Y016521D01*
X020260Y016363D02*
X011195Y016363D01*
X010715Y016997D02*
X010490Y016997D01*
X010554Y015570D02*
X010715Y015570D01*
X010715Y015412D02*
X010508Y015412D01*
X010534Y014936D02*
X010715Y014936D01*
X011195Y014302D02*
X013861Y014302D01*
X013809Y014144D02*
X011195Y014144D01*
X011195Y013985D02*
X013809Y013985D01*
X013809Y013827D02*
X011195Y013827D01*
X011195Y013668D02*
X013809Y013668D01*
X013809Y013510D02*
X011195Y013510D01*
X009782Y013510D02*
X009705Y013510D01*
X009705Y013351D02*
X009782Y013351D01*
X009782Y013193D02*
X009705Y013193D01*
X009705Y013034D02*
X009782Y013034D01*
X009782Y012876D02*
X009705Y012876D01*
X009705Y012717D02*
X009782Y012717D01*
X009057Y008596D02*
X007966Y008596D01*
X007966Y008438D02*
X008053Y008438D01*
X008130Y008155D02*
X008005Y008030D01*
X008005Y007344D01*
X007880Y007219D01*
X007570Y007219D01*
X007570Y007551D02*
X007570Y007888D01*
X007570Y007551D01*
X007570Y007645D02*
X007570Y007645D01*
X007570Y007804D02*
X007570Y007804D01*
X007570Y007888D02*
X007570Y007888D01*
X007173Y007888D01*
X007570Y007888D01*
X007570Y007888D01*
X007570Y008558D01*
X007570Y008226D01*
X007570Y007888D01*
X007570Y007888D01*
X007570Y007962D02*
X007570Y007962D01*
X007570Y008121D02*
X007570Y008121D01*
X007570Y008279D02*
X007570Y008279D01*
X007570Y008438D02*
X007570Y008438D01*
X007570Y008558D02*
X007570Y008558D01*
X007173Y008596D02*
X006884Y008596D01*
X006884Y008438D02*
X007173Y008438D01*
X007220Y008279D02*
X006829Y008279D01*
X007189Y008121D02*
X006345Y008121D01*
X006345Y007962D02*
X007173Y007962D01*
X007173Y007804D02*
X006345Y007804D01*
X006345Y007645D02*
X007195Y007645D01*
X007237Y007487D02*
X006345Y007487D01*
X006345Y007328D02*
X007193Y007328D01*
X007193Y007170D02*
X006345Y007170D01*
X006345Y007011D02*
X007193Y007011D01*
X007122Y006943D02*
X006988Y006943D01*
X006863Y006892D01*
X006768Y006797D01*
X006717Y006672D01*
X006717Y006538D01*
X006768Y006413D01*
X006863Y006318D01*
X006988Y006267D01*
X007122Y006267D01*
X007215Y006305D01*
X007287Y006232D01*
X007853Y006232D01*
X007946Y006326D01*
X007946Y006774D01*
X007853Y006867D01*
X007287Y006867D01*
X007279Y006859D01*
X007247Y006892D01*
X007122Y006943D01*
X006824Y006853D02*
X006345Y006853D01*
X006345Y006694D02*
X006726Y006694D01*
X006717Y006536D02*
X006345Y006536D01*
X006345Y006377D02*
X006804Y006377D01*
X006884Y006060D02*
X007173Y006060D01*
X007173Y005902D02*
X006884Y005902D01*
X006884Y005743D02*
X007173Y005743D01*
X007237Y005585D02*
X006851Y005585D01*
X006345Y006219D02*
X008095Y006219D01*
X008095Y006377D02*
X007946Y006377D01*
X007946Y006536D02*
X008095Y006536D01*
X008095Y006694D02*
X007946Y006694D01*
X007868Y006853D02*
X008095Y006853D01*
X008127Y007011D02*
X008005Y007011D01*
X008505Y006705D02*
X008505Y007404D01*
X008508Y007407D01*
X008508Y008155D02*
X008130Y008155D01*
X009105Y008305D02*
X009105Y006355D01*
X009055Y006305D01*
X008505Y006305D01*
X008149Y006060D02*
X007966Y006060D01*
X007966Y005902D02*
X009162Y005902D01*
X009003Y006060D02*
X008861Y006060D01*
X007570Y006060D02*
X007570Y006060D01*
X007570Y005902D02*
X007570Y005902D01*
X007570Y005881D02*
X007570Y005543D01*
X007570Y005881D01*
X007570Y005881D01*
X007570Y005743D02*
X007570Y005743D01*
X007570Y005585D02*
X007570Y005585D01*
X007570Y006550D02*
X007515Y006605D01*
X007055Y006605D01*
X009312Y004000D02*
X012465Y004000D01*
X012945Y004000D02*
X013648Y004000D01*
X013609Y004158D02*
X012945Y004158D01*
X012945Y003841D02*
X019515Y003841D01*
X019515Y003683D02*
X012945Y003683D01*
X012838Y003524D02*
X013295Y003524D01*
X013184Y003366D02*
X012629Y003366D01*
X013505Y003255D02*
X013592Y003168D01*
X014005Y003168D01*
X014401Y002890D02*
X014609Y002890D01*
X014696Y002732D02*
X014314Y002732D01*
X014005Y002342D02*
X015005Y002342D01*
X016005Y002342D01*
X017005Y002342D01*
X018005Y002342D01*
X017696Y002732D02*
X017314Y002732D01*
X017401Y002890D02*
X017609Y002890D01*
X017592Y003168D02*
X017505Y003255D01*
X017592Y003168D02*
X018005Y003168D01*
X018401Y003207D02*
X019515Y003207D01*
X019515Y003049D02*
X018401Y003049D01*
X018401Y002890D02*
X019515Y002890D01*
X019515Y002732D02*
X018314Y002732D01*
X018401Y003366D02*
X019515Y003366D01*
X019515Y003524D02*
X018348Y003524D01*
X018362Y004000D02*
X019515Y004000D01*
X019515Y004158D02*
X019411Y004158D01*
X019995Y004158D02*
X020260Y004158D01*
X020260Y004000D02*
X019995Y004000D01*
X019995Y003841D02*
X020260Y003841D01*
X020260Y003683D02*
X019995Y003683D01*
X019995Y003524D02*
X020260Y003524D01*
X020260Y003366D02*
X019995Y003366D01*
X019995Y003207D02*
X020260Y003207D01*
X020260Y003049D02*
X019995Y003049D01*
X019995Y002890D02*
X020260Y002890D01*
X020260Y002732D02*
X019995Y002732D01*
X019995Y002573D02*
X020260Y002573D01*
X020260Y002415D02*
X019993Y002415D01*
X019884Y002256D02*
X020260Y002256D01*
X020260Y004317D02*
X019995Y004317D01*
X019995Y004475D02*
X020260Y004475D01*
X020260Y004634D02*
X019995Y004634D01*
X019995Y004792D02*
X020260Y004792D01*
X020260Y004951D02*
X019995Y004951D01*
X019995Y005109D02*
X020260Y005109D01*
X020260Y005268D02*
X019995Y005268D01*
X019995Y005426D02*
X020260Y005426D01*
X020260Y005585D02*
X019995Y005585D01*
X019995Y005743D02*
X020260Y005743D01*
X020260Y005902D02*
X019995Y005902D01*
X019995Y006060D02*
X020260Y006060D01*
X017648Y004000D02*
X017362Y004000D01*
X016648Y004000D02*
X016362Y004000D01*
X015648Y004000D02*
X015362Y004000D01*
X014648Y004000D02*
X014362Y004000D01*
X014505Y003255D02*
X014592Y003168D01*
X015005Y003168D01*
X015401Y002890D02*
X015609Y002890D01*
X015696Y002732D02*
X015314Y002732D01*
X015592Y003168D02*
X015505Y003255D01*
X015592Y003168D02*
X016005Y003168D01*
X016401Y002890D02*
X016609Y002890D01*
X016696Y002732D02*
X016314Y002732D01*
X016592Y003168D02*
X016505Y003255D01*
X016592Y003168D02*
X017005Y003168D01*
X017401Y002098D02*
X017609Y002098D01*
X016609Y002098D02*
X016401Y002098D01*
X015609Y002098D02*
X015401Y002098D01*
X014609Y002098D02*
X014401Y002098D01*
X016630Y013765D02*
X016619Y013776D01*
X020260Y017948D02*
X005472Y017948D01*
X005472Y018106D02*
X020260Y018106D01*
X020260Y018265D02*
X005472Y018265D01*
X005472Y018423D02*
X020260Y018423D01*
D25*
X017880Y011505D03*
X017505Y009255D03*
X016505Y009255D03*
X015505Y009255D03*
X014505Y009255D03*
X013505Y009255D03*
X013505Y007255D03*
X014505Y007255D03*
X015505Y007255D03*
X016505Y007255D03*
X017505Y007255D03*
X017505Y005255D03*
X016505Y005255D03*
X015505Y005255D03*
X014505Y005255D03*
X013505Y005255D03*
X013505Y003255D03*
X014505Y003255D03*
X015505Y003255D03*
X016505Y003255D03*
X017505Y003255D03*
X009605Y007205D03*
X007055Y006605D03*
X009905Y011955D03*
X012480Y015855D03*
D26*
X009105Y006355D02*
X009105Y006255D01*
X009405Y005955D01*
X010455Y005955D01*
X010955Y005455D01*
M02*
