%
M48
M72
T01C0.0315
T02C0.0320
T03C0.0394
T04C0.0400
T05C0.0430
%
T01
X24701Y21365
X25701Y21365
X26701Y21365
X27701Y21365
X28701Y21365
X29701Y21365
T02
X21701Y21765
X20701Y21765
X19701Y21765
X18701Y21765
X18701Y18765
X19701Y18765
X20701Y18765
X21701Y18765
T03
X21701Y23165
X22701Y23165
X23701Y23165
X24701Y23165
X25701Y23165
X26701Y23165
X27701Y23165
X20701Y23165
X19101Y23165
X18101Y23165
X17101Y23165
X16101Y23165
X15101Y23165
X14101Y23165
X13101Y23165
X12101Y23165
X15701Y4165
X16701Y4165
X17701Y4165
X18701Y4165
X19701Y4165
X20701Y4165
X22701Y4165
X23701Y4165
X24701Y4165
X25701Y4165
X26701Y4165
X27701Y4165
T04
X15401Y10365
X16401Y10365
X17401Y10365
X18401Y10365
X19401Y10365
X20401Y10365
X21401Y10365
X22401Y10365
X23401Y10365
T05
X25201Y10865
X25201Y11865
X25201Y9865
X25201Y8865
X16501Y17465
X16501Y18465
X16501Y19465
X16501Y20465
M30
