G75*
G70*
%OFA0B0*%
%FSLAX24Y24*%
%IPPOS*%
%LPD*%
%AMOC8*
5,1,8,0,0,1.08239X$1,22.5*
%
%ADD10C,0.0000*%
%ADD11C,0.0020*%
%ADD12C,0.0100*%
D10*
X000100Y007391D02*
X000100Y017233D01*
X000100Y027076D01*
X011911Y027076D01*
X011911Y017233D01*
X000100Y017233D01*
X011911Y017233D01*
X011911Y007391D01*
X000100Y007391D01*
X001375Y013456D02*
X001377Y013483D01*
X001383Y013510D01*
X001392Y013536D01*
X001405Y013560D01*
X001421Y013583D01*
X001440Y013602D01*
X001462Y013619D01*
X001486Y013633D01*
X001511Y013643D01*
X001538Y013650D01*
X001565Y013653D01*
X001593Y013652D01*
X001620Y013647D01*
X001646Y013639D01*
X001670Y013627D01*
X001693Y013611D01*
X001714Y013593D01*
X001731Y013572D01*
X001746Y013548D01*
X001757Y013523D01*
X001765Y013497D01*
X001769Y013470D01*
X001769Y013442D01*
X001765Y013415D01*
X001757Y013389D01*
X001746Y013364D01*
X001731Y013340D01*
X001714Y013319D01*
X001693Y013301D01*
X001671Y013285D01*
X001646Y013273D01*
X001620Y013265D01*
X001593Y013260D01*
X001565Y013259D01*
X001538Y013262D01*
X001511Y013269D01*
X001486Y013279D01*
X001462Y013293D01*
X001440Y013310D01*
X001421Y013329D01*
X001405Y013352D01*
X001392Y013376D01*
X001383Y013402D01*
X001377Y013429D01*
X001375Y013456D01*
X001375Y023298D02*
X001377Y023325D01*
X001383Y023352D01*
X001392Y023378D01*
X001405Y023402D01*
X001421Y023425D01*
X001440Y023444D01*
X001462Y023461D01*
X001486Y023475D01*
X001511Y023485D01*
X001538Y023492D01*
X001565Y023495D01*
X001593Y023494D01*
X001620Y023489D01*
X001646Y023481D01*
X001670Y023469D01*
X001693Y023453D01*
X001714Y023435D01*
X001731Y023414D01*
X001746Y023390D01*
X001757Y023365D01*
X001765Y023339D01*
X001769Y023312D01*
X001769Y023284D01*
X001765Y023257D01*
X001757Y023231D01*
X001746Y023206D01*
X001731Y023182D01*
X001714Y023161D01*
X001693Y023143D01*
X001671Y023127D01*
X001646Y023115D01*
X001620Y023107D01*
X001593Y023102D01*
X001565Y023101D01*
X001538Y023104D01*
X001511Y023111D01*
X001486Y023121D01*
X001462Y023135D01*
X001440Y023152D01*
X001421Y023171D01*
X001405Y023194D01*
X001392Y023218D01*
X001383Y023244D01*
X001377Y023271D01*
X001375Y023298D01*
X009545Y023298D02*
X009547Y023332D01*
X009553Y023366D01*
X009563Y023399D01*
X009576Y023430D01*
X009594Y023460D01*
X009614Y023488D01*
X009638Y023513D01*
X009664Y023535D01*
X009692Y023553D01*
X009723Y023569D01*
X009755Y023581D01*
X009789Y023589D01*
X009823Y023593D01*
X009857Y023593D01*
X009891Y023589D01*
X009925Y023581D01*
X009957Y023569D01*
X009987Y023553D01*
X010016Y023535D01*
X010042Y023513D01*
X010066Y023488D01*
X010086Y023460D01*
X010104Y023430D01*
X010117Y023399D01*
X010127Y023366D01*
X010133Y023332D01*
X010135Y023298D01*
X010133Y023264D01*
X010127Y023230D01*
X010117Y023197D01*
X010104Y023166D01*
X010086Y023136D01*
X010066Y023108D01*
X010042Y023083D01*
X010016Y023061D01*
X009988Y023043D01*
X009957Y023027D01*
X009925Y023015D01*
X009891Y023007D01*
X009857Y023003D01*
X009823Y023003D01*
X009789Y023007D01*
X009755Y023015D01*
X009723Y023027D01*
X009692Y023043D01*
X009664Y023061D01*
X009638Y023083D01*
X009614Y023108D01*
X009594Y023136D01*
X009576Y023166D01*
X009563Y023197D01*
X009553Y023230D01*
X009547Y023264D01*
X009545Y023298D01*
X009545Y013456D02*
X009547Y013490D01*
X009553Y013524D01*
X009563Y013557D01*
X009576Y013588D01*
X009594Y013618D01*
X009614Y013646D01*
X009638Y013671D01*
X009664Y013693D01*
X009692Y013711D01*
X009723Y013727D01*
X009755Y013739D01*
X009789Y013747D01*
X009823Y013751D01*
X009857Y013751D01*
X009891Y013747D01*
X009925Y013739D01*
X009957Y013727D01*
X009987Y013711D01*
X010016Y013693D01*
X010042Y013671D01*
X010066Y013646D01*
X010086Y013618D01*
X010104Y013588D01*
X010117Y013557D01*
X010127Y013524D01*
X010133Y013490D01*
X010135Y013456D01*
X010133Y013422D01*
X010127Y013388D01*
X010117Y013355D01*
X010104Y013324D01*
X010086Y013294D01*
X010066Y013266D01*
X010042Y013241D01*
X010016Y013219D01*
X009988Y013201D01*
X009957Y013185D01*
X009925Y013173D01*
X009891Y013165D01*
X009857Y013161D01*
X009823Y013161D01*
X009789Y013165D01*
X009755Y013173D01*
X009723Y013185D01*
X009692Y013201D01*
X009664Y013219D01*
X009638Y013241D01*
X009614Y013266D01*
X009594Y013294D01*
X009576Y013324D01*
X009563Y013355D01*
X009553Y013388D01*
X009547Y013422D01*
X009545Y013456D01*
D11*
X009905Y010496D02*
X009905Y010459D01*
X010052Y010312D01*
X010052Y010276D01*
X010126Y010276D02*
X010273Y010276D01*
X010200Y010276D02*
X010200Y010496D01*
X010273Y010423D01*
X010421Y010496D02*
X010421Y010276D01*
X010494Y010276D02*
X010347Y010276D01*
X010494Y010423D02*
X010421Y010496D01*
X010568Y010276D02*
X010715Y010276D01*
X010642Y010276D02*
X010642Y010496D01*
X010715Y010423D01*
X010052Y010496D02*
X009905Y010496D01*
X010006Y008371D02*
X010006Y008151D01*
X009970Y008151D02*
X010043Y008151D01*
X010117Y008224D02*
X010264Y008224D01*
X010264Y008187D02*
X010264Y008261D01*
X010227Y008298D01*
X010154Y008298D01*
X010117Y008261D01*
X010117Y008224D01*
X010154Y008151D02*
X010227Y008151D01*
X010264Y008187D01*
X010338Y008298D02*
X010412Y008151D01*
X010485Y008298D01*
X010559Y008261D02*
X010559Y008224D01*
X010706Y008224D01*
X010706Y008187D02*
X010706Y008261D01*
X010669Y008298D01*
X010596Y008298D01*
X010559Y008261D01*
X010596Y008151D02*
X010669Y008151D01*
X010706Y008187D01*
X010780Y008151D02*
X010927Y008151D01*
X010927Y008371D01*
X010927Y007996D02*
X010817Y007996D01*
X010780Y007959D01*
X010780Y007923D01*
X010817Y007886D01*
X010927Y007886D01*
X010927Y007776D02*
X010927Y007996D01*
X010817Y007886D02*
X010780Y007849D01*
X010780Y007812D01*
X010817Y007776D01*
X010927Y007776D01*
X010706Y007812D02*
X010669Y007776D01*
X010596Y007776D01*
X010559Y007812D01*
X010559Y007886D01*
X010596Y007923D01*
X010669Y007923D01*
X010706Y007886D01*
X010706Y007812D01*
X010485Y007776D02*
X010375Y007776D01*
X010338Y007812D01*
X010338Y007886D01*
X010375Y007923D01*
X010485Y007923D01*
X010485Y007996D02*
X010485Y007776D01*
X010043Y007812D02*
X010006Y007776D01*
X009933Y007776D01*
X009896Y007812D01*
X009822Y007776D02*
X009749Y007776D01*
X009785Y007776D02*
X009785Y007996D01*
X009822Y007996D01*
X009896Y007959D02*
X009933Y007996D01*
X010006Y007996D01*
X010043Y007959D01*
X010043Y007812D01*
X010043Y008371D02*
X010006Y008371D01*
X009675Y008334D02*
X009675Y008298D01*
X009638Y008261D01*
X009565Y008261D01*
X009528Y008224D01*
X009528Y008187D01*
X009565Y008151D01*
X009638Y008151D01*
X009675Y008187D01*
X009675Y008334D02*
X009638Y008371D01*
X009565Y008371D01*
X009528Y008334D01*
X009454Y008371D02*
X009454Y008151D01*
X009454Y008261D02*
X009417Y008298D01*
X009344Y008298D01*
X009307Y008261D01*
X009307Y008151D01*
X009233Y008151D02*
X009159Y008151D01*
X009196Y008151D02*
X009196Y008298D01*
X009233Y008298D01*
X009196Y008371D02*
X009196Y008408D01*
X009049Y008334D02*
X009049Y008151D01*
X009085Y008261D02*
X009012Y008261D01*
X009049Y008334D02*
X009012Y008371D01*
X008938Y008298D02*
X008865Y008298D01*
X008901Y008334D02*
X008901Y008187D01*
X008865Y008151D01*
X008791Y008187D02*
X008791Y008261D01*
X008754Y008298D01*
X008681Y008298D01*
X008644Y008261D01*
X008644Y008224D01*
X008791Y008224D01*
X008791Y008187D02*
X008754Y008151D01*
X008681Y008151D01*
X008570Y008151D02*
X008570Y008298D01*
X008570Y008224D02*
X008496Y008298D01*
X008460Y008298D01*
X008423Y007996D02*
X008423Y007776D01*
X008423Y007886D02*
X008386Y007923D01*
X008312Y007923D01*
X008276Y007886D01*
X008276Y007776D01*
X008165Y007812D02*
X008128Y007776D01*
X008165Y007812D02*
X008165Y007959D01*
X008202Y007923D02*
X008128Y007923D01*
X008054Y007923D02*
X007981Y007923D01*
X008017Y007959D02*
X008017Y007812D01*
X007981Y007776D01*
X007907Y007776D02*
X007797Y007776D01*
X007760Y007812D01*
X007760Y007886D01*
X007797Y007923D01*
X007907Y007923D01*
X007907Y007702D01*
X007686Y007776D02*
X007686Y007812D01*
X007649Y007812D01*
X007649Y007776D01*
X007686Y007776D01*
X007686Y007886D02*
X007686Y007923D01*
X007649Y007923D01*
X007649Y007886D01*
X007686Y007886D01*
X007575Y007776D02*
X007429Y007996D01*
X007208Y007996D02*
X007354Y007776D01*
X007133Y007923D02*
X007060Y007923D01*
X007097Y007959D02*
X007097Y007812D01*
X007060Y007776D01*
X006986Y007776D02*
X006986Y007996D01*
X006949Y007923D02*
X006986Y007886D01*
X006949Y007923D02*
X006876Y007923D01*
X006839Y007886D01*
X006839Y007776D01*
X006765Y007776D02*
X006692Y007776D01*
X006728Y007776D02*
X006728Y007923D01*
X006765Y007923D01*
X006728Y007996D02*
X006728Y008033D01*
X006618Y007923D02*
X006508Y007923D01*
X006471Y007886D01*
X006471Y007776D01*
X006397Y007776D02*
X006397Y007996D01*
X006287Y007923D02*
X006397Y007849D01*
X006287Y007776D01*
X006213Y007776D02*
X006139Y007776D01*
X006176Y007776D02*
X006176Y007996D01*
X006213Y007996D01*
X006065Y007959D02*
X006029Y007996D01*
X005955Y007996D01*
X005919Y007959D01*
X005919Y007923D01*
X005955Y007886D01*
X005919Y007849D01*
X005919Y007812D01*
X005955Y007776D01*
X006029Y007776D01*
X006065Y007812D01*
X005992Y007886D02*
X005955Y007886D01*
X005844Y007959D02*
X005808Y007996D01*
X005734Y007996D01*
X005698Y007959D01*
X005698Y007923D01*
X005734Y007886D01*
X005698Y007849D01*
X005698Y007812D01*
X005734Y007776D01*
X005808Y007776D01*
X005844Y007812D01*
X005771Y007886D02*
X005734Y007886D01*
X005623Y007923D02*
X005550Y007923D01*
X005587Y007959D02*
X005587Y007812D01*
X005550Y007776D01*
X005476Y007776D02*
X005439Y007776D01*
X005439Y007812D01*
X005476Y007812D01*
X005476Y007776D01*
X005366Y007812D02*
X005329Y007776D01*
X005219Y007776D01*
X005145Y007812D02*
X005108Y007776D01*
X005034Y007776D01*
X004998Y007812D01*
X004998Y007886D01*
X005034Y007923D01*
X005108Y007923D01*
X005145Y007886D01*
X005145Y007812D01*
X005219Y007923D02*
X005329Y007923D01*
X005366Y007886D01*
X005366Y007812D01*
X004924Y007812D02*
X004887Y007812D01*
X004887Y007776D01*
X004924Y007776D01*
X004924Y007812D01*
X004813Y007812D02*
X004776Y007776D01*
X004666Y007776D01*
X004666Y007923D01*
X004592Y007996D02*
X004592Y007776D01*
X004592Y007849D02*
X004482Y007923D01*
X004592Y007849D02*
X004482Y007776D01*
X004813Y007812D02*
X004813Y007923D01*
X006618Y007923D02*
X006618Y007776D01*
X008717Y007776D02*
X008754Y007776D01*
X008754Y007812D01*
X008717Y007812D01*
X008717Y007776D01*
X008791Y007702D01*
X008865Y007776D02*
X008865Y007886D01*
X008902Y007923D01*
X008975Y007923D01*
X009012Y007886D01*
X009086Y007923D02*
X009086Y007739D01*
X009123Y007702D01*
X009159Y007702D01*
X009196Y007776D02*
X009086Y007776D01*
X009012Y007776D02*
X009012Y007996D01*
X009086Y007923D02*
X009196Y007923D01*
X009233Y007886D01*
X009233Y007812D01*
X009196Y007776D01*
X009307Y007776D02*
X009307Y007923D01*
X009454Y007923D02*
X009454Y007812D01*
X009417Y007776D01*
X009307Y007776D01*
X009528Y007812D02*
X009528Y007886D01*
X009565Y007923D01*
X009638Y007923D01*
X009675Y007886D01*
X009675Y007812D01*
X009638Y007776D01*
X009565Y007776D01*
X009528Y007812D01*
X011222Y007776D02*
X011332Y007776D01*
X011369Y007812D01*
X011369Y007923D01*
X011443Y007886D02*
X011480Y007923D01*
X011590Y007923D01*
X011590Y007996D02*
X011590Y007776D01*
X011480Y007776D01*
X011443Y007812D01*
X011443Y007886D01*
X011480Y008151D02*
X011553Y008151D01*
X011590Y008187D01*
X011553Y008261D02*
X011480Y008261D01*
X011443Y008224D01*
X011443Y008187D01*
X011480Y008151D01*
X011369Y008151D02*
X011369Y008371D01*
X011259Y008371D01*
X011222Y008334D01*
X011222Y008187D01*
X011259Y008151D01*
X011369Y008151D01*
X011443Y008334D02*
X011480Y008371D01*
X011553Y008371D01*
X011590Y008334D01*
X011590Y008298D01*
X011553Y008261D01*
X011222Y007923D02*
X011222Y007739D01*
X011259Y007702D01*
X011296Y007702D01*
X006965Y013761D02*
X006818Y013761D01*
X006744Y013834D02*
X006744Y013687D01*
X006597Y013834D01*
X006597Y013687D01*
X006634Y013651D01*
X006707Y013651D01*
X006744Y013687D01*
X006855Y013651D02*
X006855Y013871D01*
X006965Y013761D01*
X006744Y013834D02*
X006707Y013871D01*
X006634Y013871D01*
X006597Y013834D01*
X006523Y013871D02*
X006523Y013761D01*
X006450Y013798D01*
X006413Y013798D01*
X006376Y013761D01*
X006376Y013687D01*
X006413Y013651D01*
X006486Y013651D01*
X006523Y013687D01*
X006523Y013871D02*
X006376Y013871D01*
X006302Y013834D02*
X006302Y013687D01*
X006155Y013834D01*
X006155Y013687D01*
X006192Y013651D01*
X006265Y013651D01*
X006302Y013687D01*
X006302Y013834D02*
X006265Y013871D01*
X006192Y013871D01*
X006155Y013834D01*
X006213Y017618D02*
X006139Y017618D01*
X006176Y017618D02*
X006176Y017838D01*
X006213Y017838D01*
X006287Y017765D02*
X006397Y017692D01*
X006287Y017618D01*
X006397Y017618D02*
X006397Y017838D01*
X006471Y017728D02*
X006471Y017618D01*
X006471Y017728D02*
X006508Y017765D01*
X006618Y017765D01*
X006618Y017618D01*
X006692Y017618D02*
X006765Y017618D01*
X006728Y017618D02*
X006728Y017765D01*
X006765Y017765D01*
X006728Y017838D02*
X006728Y017875D01*
X006839Y017728D02*
X006839Y017618D01*
X006839Y017728D02*
X006876Y017765D01*
X006949Y017765D01*
X006986Y017728D01*
X007060Y017765D02*
X007133Y017765D01*
X007097Y017802D02*
X007097Y017655D01*
X007060Y017618D01*
X006986Y017618D02*
X006986Y017838D01*
X007208Y017838D02*
X007354Y017618D01*
X007575Y017618D02*
X007429Y017838D01*
X007649Y017765D02*
X007649Y017728D01*
X007686Y017728D01*
X007686Y017765D01*
X007649Y017765D01*
X007649Y017655D02*
X007649Y017618D01*
X007686Y017618D01*
X007686Y017655D01*
X007649Y017655D01*
X007760Y017655D02*
X007760Y017728D01*
X007797Y017765D01*
X007907Y017765D01*
X007907Y017545D01*
X007907Y017618D02*
X007797Y017618D01*
X007760Y017655D01*
X007981Y017618D02*
X008017Y017655D01*
X008017Y017802D01*
X007981Y017765D02*
X008054Y017765D01*
X008128Y017765D02*
X008202Y017765D01*
X008165Y017802D02*
X008165Y017655D01*
X008128Y017618D01*
X008276Y017618D02*
X008276Y017728D01*
X008312Y017765D01*
X008386Y017765D01*
X008423Y017728D01*
X008423Y017838D02*
X008423Y017618D01*
X008717Y017618D02*
X008754Y017618D01*
X008754Y017655D01*
X008717Y017655D01*
X008717Y017618D01*
X008791Y017545D01*
X008865Y017618D02*
X008865Y017728D01*
X008902Y017765D01*
X008975Y017765D01*
X009012Y017728D01*
X009086Y017765D02*
X009086Y017582D01*
X009123Y017545D01*
X009159Y017545D01*
X009196Y017618D02*
X009086Y017618D01*
X009012Y017618D02*
X009012Y017838D01*
X009086Y017765D02*
X009196Y017765D01*
X009233Y017728D01*
X009233Y017655D01*
X009196Y017618D01*
X009307Y017618D02*
X009307Y017765D01*
X009307Y017618D02*
X009417Y017618D01*
X009454Y017655D01*
X009454Y017765D01*
X009528Y017728D02*
X009528Y017655D01*
X009565Y017618D01*
X009638Y017618D01*
X009675Y017655D01*
X009675Y017728D01*
X009638Y017765D01*
X009565Y017765D01*
X009528Y017728D01*
X009565Y017993D02*
X009638Y017993D01*
X009675Y018030D01*
X009638Y018103D02*
X009565Y018103D01*
X009528Y018067D01*
X009528Y018030D01*
X009565Y017993D01*
X009454Y017993D02*
X009454Y018213D01*
X009417Y018140D02*
X009344Y018140D01*
X009307Y018103D01*
X009307Y017993D01*
X009233Y017993D02*
X009159Y017993D01*
X009196Y017993D02*
X009196Y018140D01*
X009233Y018140D01*
X009196Y018213D02*
X009196Y018250D01*
X009049Y018177D02*
X009012Y018213D01*
X009049Y018177D02*
X009049Y017993D01*
X009085Y018103D02*
X009012Y018103D01*
X008938Y018140D02*
X008865Y018140D01*
X008901Y018177D02*
X008901Y018030D01*
X008865Y017993D01*
X008791Y018030D02*
X008791Y018103D01*
X008754Y018140D01*
X008681Y018140D01*
X008644Y018103D01*
X008644Y018067D01*
X008791Y018067D01*
X008791Y018030D02*
X008754Y017993D01*
X008681Y017993D01*
X008570Y017993D02*
X008570Y018140D01*
X008570Y018067D02*
X008496Y018140D01*
X008460Y018140D01*
X009417Y018140D02*
X009454Y018103D01*
X009528Y018177D02*
X009565Y018213D01*
X009638Y018213D01*
X009675Y018177D01*
X009675Y018140D01*
X009638Y018103D01*
X009785Y017838D02*
X009785Y017618D01*
X009749Y017618D02*
X009822Y017618D01*
X009896Y017655D02*
X009933Y017618D01*
X010006Y017618D01*
X010043Y017655D01*
X010043Y017802D01*
X010006Y017838D01*
X009933Y017838D01*
X009896Y017802D01*
X009822Y017838D02*
X009785Y017838D01*
X009970Y017993D02*
X010043Y017993D01*
X010006Y017993D02*
X010006Y018213D01*
X010043Y018213D01*
X010117Y018103D02*
X010117Y018067D01*
X010264Y018067D01*
X010264Y018103D02*
X010227Y018140D01*
X010154Y018140D01*
X010117Y018103D01*
X010154Y017993D02*
X010227Y017993D01*
X010264Y018030D01*
X010264Y018103D01*
X010338Y018140D02*
X010412Y017993D01*
X010485Y018140D01*
X010559Y018103D02*
X010559Y018067D01*
X010706Y018067D01*
X010706Y018103D02*
X010669Y018140D01*
X010596Y018140D01*
X010559Y018103D01*
X010596Y017993D02*
X010669Y017993D01*
X010706Y018030D01*
X010706Y018103D01*
X010780Y017993D02*
X010927Y017993D01*
X010927Y018213D01*
X010927Y017838D02*
X010817Y017838D01*
X010780Y017802D01*
X010780Y017765D01*
X010817Y017728D01*
X010927Y017728D01*
X010927Y017618D02*
X010927Y017838D01*
X010817Y017728D02*
X010780Y017692D01*
X010780Y017655D01*
X010817Y017618D01*
X010927Y017618D01*
X010706Y017655D02*
X010669Y017618D01*
X010596Y017618D01*
X010559Y017655D01*
X010559Y017728D01*
X010596Y017765D01*
X010669Y017765D01*
X010706Y017728D01*
X010706Y017655D01*
X010485Y017618D02*
X010485Y017838D01*
X010485Y017765D02*
X010375Y017765D01*
X010338Y017728D01*
X010338Y017655D01*
X010375Y017618D01*
X010485Y017618D01*
X011222Y017618D02*
X011332Y017618D01*
X011369Y017655D01*
X011369Y017765D01*
X011443Y017728D02*
X011443Y017655D01*
X011480Y017618D01*
X011590Y017618D01*
X011590Y017838D01*
X011590Y017765D02*
X011480Y017765D01*
X011443Y017728D01*
X011480Y017993D02*
X011553Y017993D01*
X011590Y018030D01*
X011553Y018103D02*
X011480Y018103D01*
X011443Y018067D01*
X011443Y018030D01*
X011480Y017993D01*
X011369Y017993D02*
X011259Y017993D01*
X011222Y018030D01*
X011222Y018177D01*
X011259Y018213D01*
X011369Y018213D01*
X011369Y017993D01*
X011443Y018177D02*
X011480Y018213D01*
X011553Y018213D01*
X011590Y018177D01*
X011590Y018140D01*
X011553Y018103D01*
X011222Y017765D02*
X011222Y017582D01*
X011259Y017545D01*
X011296Y017545D01*
X010715Y020118D02*
X010568Y020118D01*
X010642Y020118D02*
X010642Y020338D01*
X010715Y020265D01*
X010494Y020265D02*
X010421Y020338D01*
X010421Y020118D01*
X010494Y020118D02*
X010347Y020118D01*
X010273Y020118D02*
X010126Y020118D01*
X010200Y020118D02*
X010200Y020338D01*
X010273Y020265D01*
X010052Y020338D02*
X009905Y020338D01*
X009905Y020302D01*
X010052Y020155D01*
X010052Y020118D01*
X006965Y023603D02*
X006818Y023603D01*
X006744Y023530D02*
X006597Y023677D01*
X006597Y023530D01*
X006634Y023493D01*
X006707Y023493D01*
X006744Y023530D01*
X006744Y023677D01*
X006707Y023713D01*
X006634Y023713D01*
X006597Y023677D01*
X006523Y023713D02*
X006523Y023603D01*
X006450Y023640D01*
X006413Y023640D01*
X006376Y023603D01*
X006376Y023530D01*
X006413Y023493D01*
X006486Y023493D01*
X006523Y023530D01*
X006523Y023713D02*
X006376Y023713D01*
X006302Y023677D02*
X006265Y023713D01*
X006192Y023713D01*
X006155Y023677D01*
X006302Y023530D01*
X006265Y023493D01*
X006192Y023493D01*
X006155Y023530D01*
X006155Y023677D01*
X006302Y023677D02*
X006302Y023530D01*
X006855Y023493D02*
X006855Y023713D01*
X006965Y023603D01*
X006029Y017838D02*
X005955Y017838D01*
X005919Y017802D01*
X005919Y017765D01*
X005955Y017728D01*
X005919Y017692D01*
X005919Y017655D01*
X005955Y017618D01*
X006029Y017618D01*
X006065Y017655D01*
X005992Y017728D02*
X005955Y017728D01*
X005844Y017655D02*
X005808Y017618D01*
X005734Y017618D01*
X005698Y017655D01*
X005698Y017692D01*
X005734Y017728D01*
X005771Y017728D01*
X005734Y017728D02*
X005698Y017765D01*
X005698Y017802D01*
X005734Y017838D01*
X005808Y017838D01*
X005844Y017802D01*
X006029Y017838D02*
X006065Y017802D01*
X005623Y017765D02*
X005550Y017765D01*
X005587Y017802D02*
X005587Y017655D01*
X005550Y017618D01*
X005476Y017618D02*
X005439Y017618D01*
X005439Y017655D01*
X005476Y017655D01*
X005476Y017618D01*
X005366Y017655D02*
X005366Y017728D01*
X005329Y017765D01*
X005219Y017765D01*
X005145Y017728D02*
X005145Y017655D01*
X005108Y017618D01*
X005034Y017618D01*
X004998Y017655D01*
X004998Y017728D01*
X005034Y017765D01*
X005108Y017765D01*
X005145Y017728D01*
X005219Y017618D02*
X005329Y017618D01*
X005366Y017655D01*
X004924Y017655D02*
X004887Y017655D01*
X004887Y017618D01*
X004924Y017618D01*
X004924Y017655D01*
X004813Y017655D02*
X004776Y017618D01*
X004666Y017618D01*
X004666Y017765D01*
X004592Y017692D02*
X004482Y017618D01*
X004592Y017618D02*
X004592Y017838D01*
X004482Y017765D02*
X004592Y017692D01*
X004813Y017655D02*
X004813Y017765D01*
D12*
X003475Y014266D02*
X003477Y014288D01*
X003483Y014309D01*
X003492Y014328D01*
X003504Y014346D01*
X003520Y014362D01*
X003537Y014374D01*
X003557Y014383D01*
X003578Y014389D01*
X003600Y014391D01*
X003622Y014389D01*
X003643Y014383D01*
X003662Y014374D01*
X003680Y014362D01*
X003696Y014346D01*
X003708Y014328D01*
X003717Y014309D01*
X003723Y014288D01*
X003725Y014266D01*
X003723Y014244D01*
X003717Y014223D01*
X003708Y014204D01*
X003696Y014186D01*
X003680Y014170D01*
X003663Y014158D01*
X003643Y014149D01*
X003622Y014143D01*
X003600Y014141D01*
X003578Y014143D01*
X003557Y014149D01*
X003537Y014158D01*
X003520Y014170D01*
X003504Y014186D01*
X003492Y014203D01*
X003483Y014223D01*
X003477Y014244D01*
X003475Y014266D01*
X003475Y024108D02*
X003477Y024130D01*
X003483Y024151D01*
X003492Y024170D01*
X003504Y024188D01*
X003520Y024204D01*
X003537Y024216D01*
X003557Y024225D01*
X003578Y024231D01*
X003600Y024233D01*
X003622Y024231D01*
X003643Y024225D01*
X003662Y024216D01*
X003680Y024204D01*
X003696Y024188D01*
X003708Y024170D01*
X003717Y024151D01*
X003723Y024130D01*
X003725Y024108D01*
X003723Y024086D01*
X003717Y024065D01*
X003708Y024046D01*
X003696Y024028D01*
X003680Y024012D01*
X003663Y024000D01*
X003643Y023991D01*
X003622Y023985D01*
X003600Y023983D01*
X003578Y023985D01*
X003557Y023991D01*
X003537Y024000D01*
X003520Y024012D01*
X003504Y024028D01*
X003492Y024045D01*
X003483Y024065D01*
X003477Y024086D01*
X003475Y024108D01*
M02*
