G75*
G70*
%OFA0B0*%
%FSLAX24Y24*%
%IPPOS*%
%LPD*%
%AMOC8*
5,1,8,0,0,1.08239X$1,22.5*
%
%ADD10C,0.0000*%
D10*
X000100Y007391D02*
X000100Y017233D01*
X000100Y027076D01*
X011911Y027076D01*
X011911Y017233D01*
X000100Y017233D01*
X011911Y017233D01*
X011911Y007391D01*
X000100Y007391D01*
X001375Y013456D02*
X001377Y013483D01*
X001383Y013510D01*
X001392Y013536D01*
X001405Y013560D01*
X001421Y013583D01*
X001440Y013602D01*
X001462Y013619D01*
X001486Y013633D01*
X001511Y013643D01*
X001538Y013650D01*
X001565Y013653D01*
X001593Y013652D01*
X001620Y013647D01*
X001646Y013639D01*
X001670Y013627D01*
X001693Y013611D01*
X001714Y013593D01*
X001731Y013572D01*
X001746Y013548D01*
X001757Y013523D01*
X001765Y013497D01*
X001769Y013470D01*
X001769Y013442D01*
X001765Y013415D01*
X001757Y013389D01*
X001746Y013364D01*
X001731Y013340D01*
X001714Y013319D01*
X001693Y013301D01*
X001671Y013285D01*
X001646Y013273D01*
X001620Y013265D01*
X001593Y013260D01*
X001565Y013259D01*
X001538Y013262D01*
X001511Y013269D01*
X001486Y013279D01*
X001462Y013293D01*
X001440Y013310D01*
X001421Y013329D01*
X001405Y013352D01*
X001392Y013376D01*
X001383Y013402D01*
X001377Y013429D01*
X001375Y013456D01*
X001375Y023298D02*
X001377Y023325D01*
X001383Y023352D01*
X001392Y023378D01*
X001405Y023402D01*
X001421Y023425D01*
X001440Y023444D01*
X001462Y023461D01*
X001486Y023475D01*
X001511Y023485D01*
X001538Y023492D01*
X001565Y023495D01*
X001593Y023494D01*
X001620Y023489D01*
X001646Y023481D01*
X001670Y023469D01*
X001693Y023453D01*
X001714Y023435D01*
X001731Y023414D01*
X001746Y023390D01*
X001757Y023365D01*
X001765Y023339D01*
X001769Y023312D01*
X001769Y023284D01*
X001765Y023257D01*
X001757Y023231D01*
X001746Y023206D01*
X001731Y023182D01*
X001714Y023161D01*
X001693Y023143D01*
X001671Y023127D01*
X001646Y023115D01*
X001620Y023107D01*
X001593Y023102D01*
X001565Y023101D01*
X001538Y023104D01*
X001511Y023111D01*
X001486Y023121D01*
X001462Y023135D01*
X001440Y023152D01*
X001421Y023171D01*
X001405Y023194D01*
X001392Y023218D01*
X001383Y023244D01*
X001377Y023271D01*
X001375Y023298D01*
X009545Y023298D02*
X009547Y023332D01*
X009553Y023366D01*
X009563Y023399D01*
X009576Y023430D01*
X009594Y023460D01*
X009614Y023488D01*
X009638Y023513D01*
X009664Y023535D01*
X009692Y023553D01*
X009723Y023569D01*
X009755Y023581D01*
X009789Y023589D01*
X009823Y023593D01*
X009857Y023593D01*
X009891Y023589D01*
X009925Y023581D01*
X009957Y023569D01*
X009987Y023553D01*
X010016Y023535D01*
X010042Y023513D01*
X010066Y023488D01*
X010086Y023460D01*
X010104Y023430D01*
X010117Y023399D01*
X010127Y023366D01*
X010133Y023332D01*
X010135Y023298D01*
X010133Y023264D01*
X010127Y023230D01*
X010117Y023197D01*
X010104Y023166D01*
X010086Y023136D01*
X010066Y023108D01*
X010042Y023083D01*
X010016Y023061D01*
X009988Y023043D01*
X009957Y023027D01*
X009925Y023015D01*
X009891Y023007D01*
X009857Y023003D01*
X009823Y023003D01*
X009789Y023007D01*
X009755Y023015D01*
X009723Y023027D01*
X009692Y023043D01*
X009664Y023061D01*
X009638Y023083D01*
X009614Y023108D01*
X009594Y023136D01*
X009576Y023166D01*
X009563Y023197D01*
X009553Y023230D01*
X009547Y023264D01*
X009545Y023298D01*
X009545Y013456D02*
X009547Y013490D01*
X009553Y013524D01*
X009563Y013557D01*
X009576Y013588D01*
X009594Y013618D01*
X009614Y013646D01*
X009638Y013671D01*
X009664Y013693D01*
X009692Y013711D01*
X009723Y013727D01*
X009755Y013739D01*
X009789Y013747D01*
X009823Y013751D01*
X009857Y013751D01*
X009891Y013747D01*
X009925Y013739D01*
X009957Y013727D01*
X009987Y013711D01*
X010016Y013693D01*
X010042Y013671D01*
X010066Y013646D01*
X010086Y013618D01*
X010104Y013588D01*
X010117Y013557D01*
X010127Y013524D01*
X010133Y013490D01*
X010135Y013456D01*
X010133Y013422D01*
X010127Y013388D01*
X010117Y013355D01*
X010104Y013324D01*
X010086Y013294D01*
X010066Y013266D01*
X010042Y013241D01*
X010016Y013219D01*
X009988Y013201D01*
X009957Y013185D01*
X009925Y013173D01*
X009891Y013165D01*
X009857Y013161D01*
X009823Y013161D01*
X009789Y013165D01*
X009755Y013173D01*
X009723Y013185D01*
X009692Y013201D01*
X009664Y013219D01*
X009638Y013241D01*
X009614Y013266D01*
X009594Y013294D01*
X009576Y013324D01*
X009563Y013355D01*
X009553Y013388D01*
X009547Y013422D01*
X009545Y013456D01*
M02*
