G75*
G70*
%OFA0B0*%
%FSLAX24Y24*%
%IPPOS*%
%LPD*%
%AMOC8*
5,1,8,0,0,1.08239X$1,22.5*
%
%ADD10C,0.0000*%
%ADD11R,0.0591X0.1102*%
%ADD12R,0.0276X0.0709*%
%ADD13R,0.0394X0.0709*%
%ADD14C,0.0520*%
%ADD15R,0.0472X0.0472*%
%ADD16R,0.0433X0.0394*%
%ADD17C,0.0160*%
%ADD18C,0.0356*%
%ADD19C,0.0240*%
D10*
X000100Y007391D02*
X000100Y017233D01*
X000100Y027076D01*
X011911Y027076D01*
X011911Y017233D01*
X000100Y017233D01*
X011911Y017233D01*
X011911Y007391D01*
X000100Y007391D01*
X001375Y013456D02*
X001377Y013483D01*
X001383Y013510D01*
X001392Y013536D01*
X001405Y013560D01*
X001421Y013583D01*
X001440Y013602D01*
X001462Y013619D01*
X001486Y013633D01*
X001511Y013643D01*
X001538Y013650D01*
X001565Y013653D01*
X001593Y013652D01*
X001620Y013647D01*
X001646Y013639D01*
X001670Y013627D01*
X001693Y013611D01*
X001714Y013593D01*
X001731Y013572D01*
X001746Y013548D01*
X001757Y013523D01*
X001765Y013497D01*
X001769Y013470D01*
X001769Y013442D01*
X001765Y013415D01*
X001757Y013389D01*
X001746Y013364D01*
X001731Y013340D01*
X001714Y013319D01*
X001693Y013301D01*
X001671Y013285D01*
X001646Y013273D01*
X001620Y013265D01*
X001593Y013260D01*
X001565Y013259D01*
X001538Y013262D01*
X001511Y013269D01*
X001486Y013279D01*
X001462Y013293D01*
X001440Y013310D01*
X001421Y013329D01*
X001405Y013352D01*
X001392Y013376D01*
X001383Y013402D01*
X001377Y013429D01*
X001375Y013456D01*
X001375Y023298D02*
X001377Y023325D01*
X001383Y023352D01*
X001392Y023378D01*
X001405Y023402D01*
X001421Y023425D01*
X001440Y023444D01*
X001462Y023461D01*
X001486Y023475D01*
X001511Y023485D01*
X001538Y023492D01*
X001565Y023495D01*
X001593Y023494D01*
X001620Y023489D01*
X001646Y023481D01*
X001670Y023469D01*
X001693Y023453D01*
X001714Y023435D01*
X001731Y023414D01*
X001746Y023390D01*
X001757Y023365D01*
X001765Y023339D01*
X001769Y023312D01*
X001769Y023284D01*
X001765Y023257D01*
X001757Y023231D01*
X001746Y023206D01*
X001731Y023182D01*
X001714Y023161D01*
X001693Y023143D01*
X001671Y023127D01*
X001646Y023115D01*
X001620Y023107D01*
X001593Y023102D01*
X001565Y023101D01*
X001538Y023104D01*
X001511Y023111D01*
X001486Y023121D01*
X001462Y023135D01*
X001440Y023152D01*
X001421Y023171D01*
X001405Y023194D01*
X001392Y023218D01*
X001383Y023244D01*
X001377Y023271D01*
X001375Y023298D01*
X009545Y023298D02*
X009547Y023332D01*
X009553Y023366D01*
X009563Y023399D01*
X009576Y023430D01*
X009594Y023460D01*
X009614Y023488D01*
X009638Y023513D01*
X009664Y023535D01*
X009692Y023553D01*
X009723Y023569D01*
X009755Y023581D01*
X009789Y023589D01*
X009823Y023593D01*
X009857Y023593D01*
X009891Y023589D01*
X009925Y023581D01*
X009957Y023569D01*
X009987Y023553D01*
X010016Y023535D01*
X010042Y023513D01*
X010066Y023488D01*
X010086Y023460D01*
X010104Y023430D01*
X010117Y023399D01*
X010127Y023366D01*
X010133Y023332D01*
X010135Y023298D01*
X010133Y023264D01*
X010127Y023230D01*
X010117Y023197D01*
X010104Y023166D01*
X010086Y023136D01*
X010066Y023108D01*
X010042Y023083D01*
X010016Y023061D01*
X009988Y023043D01*
X009957Y023027D01*
X009925Y023015D01*
X009891Y023007D01*
X009857Y023003D01*
X009823Y023003D01*
X009789Y023007D01*
X009755Y023015D01*
X009723Y023027D01*
X009692Y023043D01*
X009664Y023061D01*
X009638Y023083D01*
X009614Y023108D01*
X009594Y023136D01*
X009576Y023166D01*
X009563Y023197D01*
X009553Y023230D01*
X009547Y023264D01*
X009545Y023298D01*
X009545Y013456D02*
X009547Y013490D01*
X009553Y013524D01*
X009563Y013557D01*
X009576Y013588D01*
X009594Y013618D01*
X009614Y013646D01*
X009638Y013671D01*
X009664Y013693D01*
X009692Y013711D01*
X009723Y013727D01*
X009755Y013739D01*
X009789Y013747D01*
X009823Y013751D01*
X009857Y013751D01*
X009891Y013747D01*
X009925Y013739D01*
X009957Y013727D01*
X009987Y013711D01*
X010016Y013693D01*
X010042Y013671D01*
X010066Y013646D01*
X010086Y013618D01*
X010104Y013588D01*
X010117Y013557D01*
X010127Y013524D01*
X010133Y013490D01*
X010135Y013456D01*
X010133Y013422D01*
X010127Y013388D01*
X010117Y013355D01*
X010104Y013324D01*
X010086Y013294D01*
X010066Y013266D01*
X010042Y013241D01*
X010016Y013219D01*
X009988Y013201D01*
X009957Y013185D01*
X009925Y013173D01*
X009891Y013165D01*
X009857Y013161D01*
X009823Y013161D01*
X009789Y013165D01*
X009755Y013173D01*
X009723Y013185D01*
X009692Y013201D01*
X009664Y013219D01*
X009638Y013241D01*
X009614Y013266D01*
X009594Y013294D01*
X009576Y013324D01*
X009563Y013355D01*
X009553Y013388D01*
X009547Y013422D01*
X009545Y013456D01*
D11*
X010608Y013849D03*
X011474Y017983D03*
X010608Y023692D03*
X011474Y008141D03*
X000726Y008141D03*
X000726Y013849D03*
X000726Y017983D03*
X000726Y023692D03*
D12*
X001269Y024460D03*
X001742Y024460D03*
X001742Y014617D03*
X001269Y014617D03*
D13*
X002254Y014617D03*
X002903Y014617D03*
X003887Y014617D03*
X004872Y014617D03*
X005852Y014617D03*
X006840Y014617D03*
X007824Y014617D03*
X008809Y014617D03*
X009793Y014617D03*
X009793Y024460D03*
X008809Y024460D03*
X007824Y024460D03*
X006840Y024460D03*
X005852Y024460D03*
X004872Y024460D03*
X003887Y024460D03*
X002903Y024460D03*
X002254Y024460D03*
D14*
X003600Y025973D02*
X003600Y026493D01*
X004600Y026493D02*
X004600Y025973D01*
X005600Y025973D02*
X005600Y026493D01*
X006600Y026493D02*
X006600Y025973D01*
X007600Y025973D02*
X007600Y026493D01*
X008600Y026493D02*
X008600Y025973D01*
X008600Y016651D02*
X008600Y016131D01*
X007600Y016131D02*
X007600Y016651D01*
X006600Y016651D02*
X006600Y016131D01*
X005600Y016131D02*
X005600Y016651D01*
X004600Y016651D02*
X004600Y016131D01*
X003600Y016131D02*
X003600Y016651D01*
D15*
X001725Y016554D03*
X001725Y015727D03*
X001725Y025570D03*
X001725Y026397D03*
D16*
X002350Y026443D03*
X002350Y025774D03*
X002350Y016600D03*
X002350Y015931D03*
D17*
X002350Y015745D01*
X002444Y015418D01*
X002350Y015391D01*
X002256Y015418D01*
X002350Y015745D01*
X002350Y015391D01*
X002507Y015111D02*
X002530Y015121D01*
X002620Y015211D01*
X002668Y015327D01*
X002668Y015368D01*
X002681Y015391D01*
X002681Y015391D01*
X002672Y015422D01*
X002668Y015436D01*
X002668Y015454D01*
X002651Y015496D01*
X002622Y015594D01*
X002625Y015594D01*
X002707Y015676D01*
X002707Y016186D01*
X002627Y016266D01*
X002707Y016346D01*
X002707Y016855D01*
X002625Y016937D01*
X002075Y016937D01*
X002044Y016906D01*
X002019Y016930D01*
X001431Y016930D01*
X001349Y016848D01*
X001349Y016260D01*
X001431Y016178D01*
X001993Y016178D01*
X001993Y016104D01*
X001431Y016104D01*
X001349Y016022D01*
X001349Y015433D01*
X001431Y015351D01*
X001505Y015351D01*
X001505Y015123D01*
X001477Y015139D01*
X001431Y015151D01*
X001269Y015151D01*
X001108Y015151D01*
X001062Y015139D01*
X001021Y015115D01*
X000987Y015082D01*
X000964Y015041D01*
X000951Y014995D01*
X000951Y014617D01*
X000951Y014581D01*
X000794Y014581D01*
X000794Y013917D01*
X001201Y013917D01*
X001201Y014083D01*
X001269Y014083D01*
X001269Y014617D01*
X000951Y014617D01*
X001269Y014617D01*
X001269Y014617D01*
X001269Y014617D01*
X001269Y015151D01*
X001269Y014617D01*
X001269Y014617D01*
X001269Y014083D01*
X001431Y014083D01*
X001477Y014095D01*
X001518Y014119D01*
X001534Y014135D01*
X001546Y014123D01*
X001938Y014123D01*
X001968Y014153D01*
X001999Y014123D01*
X002508Y014123D01*
X002578Y014193D01*
X002648Y014123D01*
X003158Y014123D01*
X003240Y014205D01*
X003240Y015029D01*
X003158Y015111D01*
X003123Y015111D01*
X003123Y015171D01*
X007691Y015171D01*
X007820Y015300D01*
X007820Y015789D01*
X007827Y015792D01*
X007939Y015904D01*
X008000Y016051D01*
X008000Y016730D01*
X007939Y016877D01*
X007827Y016990D01*
X007680Y017051D01*
X007520Y017051D01*
X007373Y016990D01*
X007261Y016877D01*
X007200Y016730D01*
X007200Y016051D01*
X007261Y015904D01*
X007373Y015792D01*
X007380Y015789D01*
X007380Y015611D01*
X002812Y015611D01*
X002683Y015482D01*
X002683Y015111D01*
X002648Y015111D01*
X002578Y015041D01*
X002508Y015111D01*
X002507Y015111D01*
X002566Y015157D02*
X002683Y015157D01*
X002683Y015316D02*
X002663Y015316D01*
X002681Y015391D02*
X002681Y015391D01*
X002683Y015474D02*
X002660Y015474D01*
X002663Y015633D02*
X007380Y015633D01*
X007374Y015791D02*
X006826Y015791D01*
X006827Y015792D02*
X006939Y015904D01*
X007000Y016051D01*
X007000Y016730D01*
X006939Y016877D01*
X006827Y016990D01*
X006680Y017051D01*
X006520Y017051D01*
X006373Y016990D01*
X006261Y016877D01*
X006200Y016730D01*
X006200Y016051D01*
X006261Y015904D01*
X006373Y015792D01*
X006520Y015731D01*
X006680Y015731D01*
X006827Y015792D01*
X006958Y015950D02*
X007242Y015950D01*
X007200Y016108D02*
X007000Y016108D01*
X007000Y016267D02*
X007200Y016267D01*
X007200Y016425D02*
X007000Y016425D01*
X007000Y016584D02*
X007200Y016584D01*
X007205Y016742D02*
X006995Y016742D01*
X006916Y016901D02*
X007284Y016901D01*
X007600Y016391D02*
X007600Y015391D01*
X002903Y015391D01*
X002903Y014617D01*
X003240Y014682D02*
X003511Y014682D01*
X003511Y014636D02*
X003869Y014636D01*
X003869Y015151D01*
X003667Y015151D01*
X003621Y015139D01*
X003580Y015115D01*
X003547Y015082D01*
X003523Y015041D01*
X003511Y014995D01*
X003511Y014636D01*
X003511Y014599D02*
X003511Y014239D01*
X003523Y014193D01*
X003547Y014152D01*
X003580Y014119D01*
X003621Y014095D01*
X003667Y014083D01*
X003869Y014083D01*
X003869Y014599D01*
X003511Y014599D01*
X003511Y014523D02*
X003240Y014523D01*
X003240Y014365D02*
X003511Y014365D01*
X003519Y014206D02*
X003240Y014206D01*
X003420Y013910D02*
X003330Y013821D01*
X003282Y013704D01*
X003282Y013577D01*
X003330Y013461D01*
X003420Y013371D01*
X003537Y013323D01*
X003577Y013323D01*
X003601Y013310D01*
X003604Y013311D01*
X003645Y013323D01*
X003663Y013323D01*
X003705Y013340D01*
X003954Y013412D01*
X003981Y013404D01*
X004011Y013421D01*
X005941Y013421D01*
X006070Y013550D01*
X006070Y014123D01*
X006107Y014123D01*
X006189Y014205D01*
X006189Y015029D01*
X006107Y015111D01*
X005597Y015111D01*
X005515Y015029D01*
X005515Y014205D01*
X005597Y014123D01*
X005630Y014123D01*
X005630Y013861D01*
X005130Y013861D01*
X005168Y013952D01*
X005168Y013993D01*
X005181Y014016D01*
X005181Y014016D01*
X005168Y014061D01*
X005168Y014079D01*
X005151Y014121D01*
X005145Y014141D01*
X005209Y014205D01*
X005209Y015029D01*
X005126Y015111D01*
X004617Y015111D01*
X004535Y015029D01*
X004535Y014205D01*
X004565Y014175D01*
X004549Y014121D01*
X004532Y014079D01*
X004532Y014061D01*
X004520Y014020D01*
X004519Y014016D01*
X004532Y013993D01*
X004532Y013952D01*
X004570Y013861D01*
X004011Y013861D01*
X003981Y013877D01*
X003954Y013870D01*
X003705Y013941D01*
X003663Y013959D01*
X003645Y013959D01*
X003601Y013972D01*
X003601Y013972D01*
X003601Y013972D01*
X003577Y013959D01*
X003537Y013959D01*
X003420Y013910D01*
X003399Y013889D02*
X000794Y013889D01*
X000794Y013917D02*
X000794Y013782D01*
X001201Y013782D01*
X001201Y013544D01*
X001253Y013669D01*
X001359Y013775D01*
X001497Y013833D01*
X001647Y013833D01*
X001786Y013775D01*
X001892Y013669D01*
X001949Y013531D01*
X001949Y013381D01*
X001892Y013242D01*
X001786Y013136D01*
X001647Y013079D01*
X001497Y013079D01*
X001359Y013136D01*
X001253Y013242D01*
X001201Y013367D01*
X001201Y013275D01*
X001189Y013229D01*
X001165Y013188D01*
X001132Y013154D01*
X001091Y013130D01*
X001045Y013118D01*
X000794Y013118D01*
X000794Y013782D01*
X000658Y013782D01*
X000658Y013118D01*
X000407Y013118D01*
X000361Y013130D01*
X000350Y013137D01*
X000350Y008853D01*
X000361Y008860D01*
X000407Y008872D01*
X000658Y008872D01*
X000658Y008208D01*
X000794Y008208D01*
X001201Y008208D01*
X001201Y008716D01*
X001189Y008761D01*
X001165Y008802D01*
X001132Y008836D01*
X001091Y008860D01*
X001045Y008872D01*
X000794Y008872D01*
X000794Y008208D01*
X000794Y008073D01*
X001201Y008073D01*
X001201Y007641D01*
X010999Y007641D01*
X010999Y008073D01*
X011406Y008073D01*
X011406Y008208D01*
X010999Y008208D01*
X010999Y008716D01*
X011011Y008761D01*
X011035Y008802D01*
X011068Y008836D01*
X011109Y008860D01*
X011155Y008872D01*
X011406Y008872D01*
X011406Y008208D01*
X011542Y008208D01*
X011542Y008872D01*
X011731Y008872D01*
X011731Y017053D01*
X003779Y017053D01*
X003831Y017027D01*
X003887Y016986D01*
X003936Y016937D01*
X003976Y016881D01*
X004008Y016820D01*
X004029Y016754D01*
X004040Y016685D01*
X004040Y016391D01*
X003600Y016391D01*
X003600Y016391D01*
X003160Y016391D01*
X003160Y016685D01*
X003171Y016754D01*
X003192Y016820D01*
X003224Y016881D01*
X003264Y016937D01*
X003313Y016986D01*
X003369Y017027D01*
X003421Y017053D01*
X000350Y017053D01*
X000350Y014562D01*
X000361Y014568D01*
X000407Y014581D01*
X000658Y014581D01*
X000658Y013917D01*
X000794Y013917D01*
X000794Y014048D02*
X000658Y014048D01*
X000658Y014206D02*
X000794Y014206D01*
X000794Y014365D02*
X000658Y014365D01*
X000658Y014523D02*
X000794Y014523D01*
X000951Y014682D02*
X000350Y014682D01*
X000350Y014840D02*
X000951Y014840D01*
X000952Y014999D02*
X000350Y014999D01*
X000350Y015157D02*
X001505Y015157D01*
X001505Y015316D02*
X000350Y015316D01*
X000350Y015474D02*
X001349Y015474D01*
X001349Y015633D02*
X000350Y015633D01*
X000350Y015791D02*
X001349Y015791D01*
X001349Y015950D02*
X000350Y015950D01*
X000350Y016108D02*
X001993Y016108D01*
X001725Y015727D02*
X001725Y014617D01*
X001742Y014617D01*
X001830Y013731D02*
X003293Y013731D01*
X003284Y013572D02*
X001932Y013572D01*
X001949Y013414D02*
X003377Y013414D01*
X003627Y013546D02*
X003600Y013641D01*
X003627Y013735D01*
X003954Y013641D01*
X003627Y013546D01*
X003600Y013641D02*
X003954Y013641D01*
X005850Y013641D01*
X005850Y014617D01*
X005852Y014617D01*
X006070Y014048D02*
X007528Y014048D01*
X007532Y014061D02*
X007520Y014020D01*
X007519Y014016D01*
X007532Y013993D01*
X007532Y013952D01*
X007580Y013836D01*
X007670Y013746D01*
X007787Y013698D01*
X007913Y013698D01*
X008030Y013746D01*
X008120Y013836D01*
X008168Y013952D01*
X008168Y013993D01*
X008181Y014016D01*
X008181Y014016D01*
X008168Y014061D01*
X008168Y014079D01*
X008151Y014121D01*
X008134Y014178D01*
X008161Y014205D01*
X008161Y015029D01*
X008079Y015111D01*
X007570Y015111D01*
X007488Y015029D01*
X007488Y014205D01*
X007554Y014138D01*
X007549Y014121D01*
X007532Y014079D01*
X007532Y014061D01*
X007488Y014206D02*
X007208Y014206D01*
X007205Y014193D02*
X007217Y014239D01*
X007217Y014599D01*
X006859Y014599D01*
X006859Y014636D01*
X006822Y014636D01*
X006822Y015151D01*
X006620Y015151D01*
X006574Y015139D01*
X006533Y015115D01*
X006499Y015082D01*
X006476Y015041D01*
X006463Y014995D01*
X006463Y014636D01*
X006822Y014636D01*
X006822Y014599D01*
X006463Y014599D01*
X006463Y014239D01*
X006476Y014193D01*
X006499Y014152D01*
X006533Y014119D01*
X006574Y014095D01*
X006620Y014083D01*
X006822Y014083D01*
X006822Y014599D01*
X006859Y014599D01*
X006859Y014083D01*
X007061Y014083D01*
X007106Y014095D01*
X007148Y014119D01*
X007181Y014152D01*
X007205Y014193D01*
X007217Y014365D02*
X007488Y014365D01*
X007488Y014523D02*
X007217Y014523D01*
X007217Y014636D02*
X007217Y014995D01*
X007205Y015041D01*
X007181Y015082D01*
X007148Y015115D01*
X007106Y015139D01*
X007061Y015151D01*
X006859Y015151D01*
X006859Y014636D01*
X007217Y014636D01*
X007217Y014682D02*
X007488Y014682D01*
X007488Y014840D02*
X007217Y014840D01*
X007216Y014999D02*
X007488Y014999D01*
X007820Y015316D02*
X011731Y015316D01*
X011731Y015474D02*
X007820Y015474D01*
X007820Y015633D02*
X011731Y015633D01*
X011731Y015791D02*
X008826Y015791D01*
X008827Y015792D02*
X008939Y015904D01*
X009000Y016051D01*
X009000Y016730D01*
X008939Y016877D01*
X008827Y016990D01*
X008680Y017051D01*
X008520Y017051D01*
X008373Y016990D01*
X008261Y016877D01*
X008200Y016730D01*
X008200Y016051D01*
X008261Y015904D01*
X008373Y015792D01*
X008520Y015731D01*
X008680Y015731D01*
X008827Y015792D01*
X008958Y015950D02*
X011731Y015950D01*
X011731Y016108D02*
X009000Y016108D01*
X009000Y016267D02*
X011731Y016267D01*
X011731Y016425D02*
X009000Y016425D01*
X009000Y016584D02*
X011731Y016584D01*
X011731Y016742D02*
X008995Y016742D01*
X008916Y016901D02*
X011731Y016901D01*
X011406Y017916D02*
X010999Y017916D01*
X010999Y017483D01*
X001201Y017483D01*
X001201Y017916D01*
X000794Y017916D01*
X000794Y018051D01*
X001201Y018051D01*
X001201Y018558D01*
X001189Y018604D01*
X001165Y018645D01*
X001132Y018678D01*
X001091Y018702D01*
X001045Y018714D01*
X000794Y018714D01*
X000794Y018051D01*
X000658Y018051D01*
X000658Y018714D01*
X000407Y018714D01*
X000361Y018702D01*
X000350Y018696D01*
X000350Y022979D01*
X000361Y022973D01*
X000407Y022961D01*
X000658Y022961D01*
X000658Y023624D01*
X000794Y023624D01*
X000794Y023760D01*
X000658Y023760D01*
X000658Y024423D01*
X000407Y024423D01*
X000361Y024411D01*
X000350Y024404D01*
X000350Y026896D01*
X003421Y026896D01*
X003369Y026870D01*
X003313Y026829D01*
X003264Y026780D01*
X003224Y026724D01*
X003192Y026662D01*
X003171Y026596D01*
X003160Y026528D01*
X003160Y026233D01*
X003160Y025939D01*
X003171Y025870D01*
X003192Y025804D01*
X003224Y025743D01*
X003264Y025687D01*
X003313Y025638D01*
X003369Y025597D01*
X003431Y025566D01*
X003497Y025544D01*
X003565Y025533D01*
X003600Y025533D01*
X003635Y025533D01*
X003703Y025544D01*
X003769Y025566D01*
X003831Y025597D01*
X003887Y025638D01*
X003936Y025687D01*
X003976Y025743D01*
X004008Y025804D01*
X004029Y025870D01*
X004040Y025939D01*
X004040Y026233D01*
X003600Y026233D01*
X003600Y025533D01*
X003600Y026233D01*
X003600Y026233D01*
X003160Y026233D01*
X003600Y026233D01*
X003600Y026233D01*
X003600Y026233D01*
X004040Y026233D01*
X004040Y026528D01*
X004029Y026596D01*
X004008Y026662D01*
X003976Y026724D01*
X003936Y026780D01*
X003887Y026829D01*
X003831Y026870D01*
X003779Y026896D01*
X011731Y026896D01*
X011731Y018714D01*
X011542Y018714D01*
X011542Y018051D01*
X011406Y018051D01*
X011406Y017916D01*
X011406Y018010D02*
X000794Y018010D01*
X000794Y018169D02*
X000658Y018169D01*
X000658Y018327D02*
X000794Y018327D01*
X000794Y018486D02*
X000658Y018486D01*
X000658Y018644D02*
X000794Y018644D01*
X001166Y018644D02*
X011034Y018644D01*
X011035Y018645D02*
X011011Y018604D01*
X010999Y018558D01*
X010999Y018051D01*
X011406Y018051D01*
X011406Y018714D01*
X011155Y018714D01*
X011109Y018702D01*
X011068Y018678D01*
X011035Y018645D01*
X010999Y018486D02*
X001201Y018486D01*
X001201Y018327D02*
X010999Y018327D01*
X010999Y018169D02*
X001201Y018169D01*
X001201Y017852D02*
X010999Y017852D01*
X010999Y017693D02*
X001201Y017693D01*
X001201Y017535D02*
X010999Y017535D01*
X011406Y018169D02*
X011542Y018169D01*
X011542Y018327D02*
X011406Y018327D01*
X011406Y018486D02*
X011542Y018486D01*
X011542Y018644D02*
X011406Y018644D01*
X011731Y018803D02*
X000350Y018803D01*
X000350Y018961D02*
X011731Y018961D01*
X011731Y019120D02*
X000350Y019120D01*
X000350Y019278D02*
X011731Y019278D01*
X011731Y019437D02*
X000350Y019437D01*
X000350Y019595D02*
X011731Y019595D01*
X011731Y019754D02*
X000350Y019754D01*
X000350Y019912D02*
X011731Y019912D01*
X011731Y020071D02*
X000350Y020071D01*
X000350Y020229D02*
X011731Y020229D01*
X011731Y020388D02*
X000350Y020388D01*
X000350Y020546D02*
X011731Y020546D01*
X011731Y020705D02*
X000350Y020705D01*
X000350Y020863D02*
X011731Y020863D01*
X011731Y021022D02*
X000350Y021022D01*
X000350Y021180D02*
X011731Y021180D01*
X011731Y021339D02*
X000350Y021339D01*
X000350Y021497D02*
X011731Y021497D01*
X011731Y021656D02*
X000350Y021656D01*
X000350Y021814D02*
X011731Y021814D01*
X011731Y021973D02*
X000350Y021973D01*
X000350Y022131D02*
X011731Y022131D01*
X011731Y022290D02*
X000350Y022290D01*
X000350Y022448D02*
X011731Y022448D01*
X011731Y022607D02*
X000350Y022607D01*
X000350Y022765D02*
X011731Y022765D01*
X011731Y022924D02*
X010138Y022924D01*
X010109Y022895D02*
X010208Y022994D01*
X010243Y022973D01*
X010289Y022961D01*
X010540Y022961D01*
X010540Y023624D01*
X010676Y023624D01*
X010676Y023760D01*
X010540Y023760D01*
X010540Y024423D01*
X010289Y024423D01*
X010243Y024411D01*
X010202Y024387D01*
X010169Y024354D01*
X010145Y024313D01*
X010133Y024267D01*
X010133Y023760D01*
X010540Y023760D01*
X010540Y023624D01*
X010186Y023624D01*
X010109Y023701D01*
X009935Y023774D01*
X009746Y023774D01*
X009571Y023701D01*
X009437Y023567D01*
X009365Y023393D01*
X009365Y023204D01*
X009437Y023029D01*
X009571Y022895D01*
X009746Y022823D01*
X009935Y022823D01*
X010109Y022895D01*
X010540Y023082D02*
X010676Y023082D01*
X010676Y022961D02*
X010927Y022961D01*
X010973Y022973D01*
X011014Y022997D01*
X011047Y023030D01*
X011071Y023071D01*
X011083Y023117D01*
X011083Y023624D01*
X010676Y023624D01*
X010676Y022961D01*
X010676Y023241D02*
X010540Y023241D01*
X010540Y023399D02*
X010676Y023399D01*
X010676Y023558D02*
X010540Y023558D01*
X010540Y023716D02*
X010073Y023716D01*
X010133Y023875D02*
X009070Y023875D01*
X009070Y023972D02*
X009146Y024047D01*
X009146Y024872D01*
X009064Y024954D01*
X008554Y024954D01*
X008472Y024872D01*
X008472Y024047D01*
X008554Y023965D01*
X008630Y023965D01*
X008630Y023769D01*
X008613Y023739D01*
X008621Y023713D01*
X008549Y023463D01*
X008532Y023422D01*
X008532Y023403D01*
X008520Y023362D01*
X008519Y023359D01*
X008532Y023336D01*
X008532Y023295D01*
X008580Y023178D01*
X008670Y023089D01*
X008787Y023040D01*
X008913Y023040D01*
X009030Y023089D01*
X009120Y023178D01*
X009168Y023295D01*
X009168Y023336D01*
X009181Y023359D01*
X009168Y023403D01*
X009168Y023422D01*
X009151Y023464D01*
X009079Y023713D01*
X009087Y023739D01*
X009070Y023769D01*
X009070Y023972D01*
X009131Y024033D02*
X009470Y024033D01*
X009456Y024047D02*
X009538Y023965D01*
X010048Y023965D01*
X010130Y024047D01*
X010130Y024872D01*
X010048Y024954D01*
X009538Y024954D01*
X009456Y024872D01*
X009456Y024047D01*
X009456Y024192D02*
X009146Y024192D01*
X009146Y024350D02*
X009456Y024350D01*
X009456Y024509D02*
X009146Y024509D01*
X009146Y024667D02*
X009456Y024667D01*
X009456Y024826D02*
X009146Y024826D01*
X008850Y024460D02*
X008850Y023713D01*
X008944Y023385D01*
X008850Y023358D01*
X008756Y023385D01*
X008850Y023713D01*
X008850Y023358D01*
X009015Y023082D02*
X009415Y023082D01*
X009365Y023241D02*
X009146Y023241D01*
X009181Y023359D02*
X009181Y023359D01*
X009181Y023359D01*
X009169Y023399D02*
X009368Y023399D01*
X009433Y023558D02*
X009124Y023558D01*
X009080Y023716D02*
X009607Y023716D01*
X009542Y022924D02*
X001653Y022924D01*
X001647Y022921D02*
X001786Y022979D01*
X001892Y023085D01*
X001949Y023223D01*
X001949Y023373D01*
X001892Y023512D01*
X001786Y023618D01*
X001647Y023675D01*
X001497Y023675D01*
X001359Y023618D01*
X001253Y023512D01*
X001201Y023387D01*
X001201Y023624D01*
X000794Y023624D01*
X000794Y022961D01*
X001045Y022961D01*
X001091Y022973D01*
X001132Y022997D01*
X001165Y023030D01*
X001189Y023071D01*
X001201Y023117D01*
X001201Y023210D01*
X001253Y023085D01*
X001359Y022979D01*
X001497Y022921D01*
X001647Y022921D01*
X001492Y022924D02*
X000350Y022924D01*
X000658Y023082D02*
X000794Y023082D01*
X000794Y023241D02*
X000658Y023241D01*
X000658Y023399D02*
X000794Y023399D01*
X000794Y023558D02*
X000658Y023558D01*
X000794Y023716D02*
X003383Y023716D01*
X003420Y023753D02*
X003330Y023663D01*
X003282Y023547D01*
X003282Y023420D01*
X003330Y023303D01*
X003420Y023214D01*
X003537Y023165D01*
X003577Y023165D01*
X003601Y023152D01*
X003604Y023153D01*
X003645Y023165D01*
X003663Y023165D01*
X003705Y023183D01*
X003954Y023254D01*
X003981Y023247D01*
X004011Y023263D01*
X005941Y023263D01*
X006070Y023392D01*
X006070Y023965D01*
X006107Y023965D01*
X006189Y024047D01*
X006189Y024872D01*
X006107Y024954D01*
X005597Y024954D01*
X005515Y024872D01*
X005515Y024047D01*
X005597Y023965D01*
X005630Y023965D01*
X005630Y023703D01*
X005130Y023703D01*
X005168Y023795D01*
X005168Y023836D01*
X005181Y023859D01*
X005168Y023903D01*
X005168Y023922D01*
X005151Y023964D01*
X005145Y023984D01*
X005209Y024047D01*
X005209Y024872D01*
X005126Y024954D01*
X004617Y024954D01*
X004535Y024872D01*
X004535Y024047D01*
X004565Y024017D01*
X004549Y023963D01*
X004532Y023922D01*
X004532Y023903D01*
X004519Y023859D01*
X004532Y023836D01*
X004532Y023795D01*
X004570Y023703D01*
X004011Y023703D01*
X003981Y023720D01*
X003954Y023712D01*
X003705Y023784D01*
X003663Y023801D01*
X003645Y023801D01*
X003601Y023814D01*
X003601Y023814D01*
X003601Y023814D01*
X003577Y023801D01*
X003537Y023801D01*
X003420Y023753D01*
X003287Y023558D02*
X001846Y023558D01*
X001938Y023399D02*
X003290Y023399D01*
X003393Y023241D02*
X001949Y023241D01*
X001889Y023082D02*
X008685Y023082D01*
X008554Y023241D02*
X003907Y023241D01*
X003954Y023483D02*
X003627Y023389D01*
X003600Y023483D01*
X003627Y023578D01*
X003954Y023483D01*
X003600Y023483D01*
X003667Y023925D02*
X003869Y023925D01*
X003869Y024441D01*
X003906Y024441D01*
X003906Y023925D01*
X004108Y023925D01*
X004154Y023938D01*
X004195Y023961D01*
X004228Y023995D01*
X004252Y024036D01*
X004264Y024082D01*
X004264Y024441D01*
X003906Y024441D01*
X003906Y024478D01*
X004264Y024478D01*
X004264Y024838D01*
X004252Y024883D01*
X004228Y024924D01*
X004195Y024958D01*
X004154Y024982D01*
X004108Y024994D01*
X003906Y024994D01*
X003906Y024478D01*
X003869Y024478D01*
X003869Y024441D01*
X003511Y024441D01*
X003511Y024082D01*
X003523Y024036D01*
X003547Y023995D01*
X003580Y023961D01*
X003621Y023938D01*
X003667Y023925D01*
X003524Y024033D02*
X003226Y024033D01*
X003240Y024047D02*
X003240Y024872D01*
X003158Y024954D01*
X003123Y024954D01*
X003123Y025013D01*
X007691Y025013D01*
X007820Y025142D01*
X007820Y025631D01*
X007827Y025634D01*
X007939Y025747D01*
X008000Y025894D01*
X008000Y026573D01*
X007939Y026720D01*
X007827Y026832D01*
X007680Y026893D01*
X007520Y026893D01*
X007373Y026832D01*
X007261Y026720D01*
X007200Y026573D01*
X007200Y025894D01*
X007261Y025747D01*
X007373Y025634D01*
X007380Y025631D01*
X007380Y025453D01*
X002812Y025453D01*
X002683Y025324D01*
X002683Y024954D01*
X002648Y024954D01*
X002578Y024884D01*
X002508Y024954D01*
X002507Y024954D01*
X002530Y024964D01*
X002620Y025053D01*
X002668Y025170D01*
X002668Y025211D01*
X002681Y025234D01*
X002668Y025278D01*
X002668Y025297D01*
X002651Y025339D01*
X002622Y025437D01*
X002625Y025437D01*
X002707Y025519D01*
X002707Y026028D01*
X002627Y026108D01*
X002707Y026188D01*
X002707Y026698D01*
X002625Y026780D01*
X002075Y026780D01*
X002044Y026748D01*
X002019Y026773D01*
X001431Y026773D01*
X001349Y026691D01*
X001349Y026102D01*
X001431Y026020D01*
X001993Y026020D01*
X001993Y025946D01*
X001431Y025946D01*
X001349Y025864D01*
X001349Y025276D01*
X001431Y025194D01*
X001505Y025194D01*
X001505Y024965D01*
X001477Y024982D01*
X001431Y024994D01*
X001269Y024994D01*
X001108Y024994D01*
X001062Y024982D01*
X001021Y024958D01*
X000987Y024924D01*
X000964Y024883D01*
X000951Y024838D01*
X000951Y024460D01*
X001269Y024460D01*
X001269Y024994D01*
X001269Y024460D01*
X001269Y024460D01*
X001269Y024460D01*
X000951Y024460D01*
X000951Y024423D01*
X000794Y024423D01*
X000794Y023760D01*
X001201Y023760D01*
X001201Y023925D01*
X001269Y023925D01*
X001269Y024460D01*
X001269Y024460D01*
X001269Y023925D01*
X001431Y023925D01*
X001477Y023938D01*
X001518Y023961D01*
X001534Y023977D01*
X001546Y023965D01*
X001938Y023965D01*
X001968Y023996D01*
X001999Y023965D01*
X002508Y023965D01*
X002578Y024035D01*
X002648Y023965D01*
X003158Y023965D01*
X003240Y024047D01*
X003240Y024192D02*
X003511Y024192D01*
X003511Y024350D02*
X003240Y024350D01*
X003240Y024509D02*
X003511Y024509D01*
X003511Y024478D02*
X003869Y024478D01*
X003869Y024994D01*
X003667Y024994D01*
X003621Y024982D01*
X003580Y024958D01*
X003547Y024924D01*
X003523Y024883D01*
X003511Y024838D01*
X003511Y024478D01*
X003511Y024667D02*
X003240Y024667D01*
X003240Y024826D02*
X003511Y024826D01*
X003631Y024984D02*
X003123Y024984D01*
X002903Y025233D02*
X007600Y025233D01*
X007600Y026233D01*
X007931Y026728D02*
X008269Y026728D01*
X008261Y026720D02*
X008200Y026573D01*
X008200Y025894D01*
X008261Y025747D01*
X008373Y025634D01*
X008520Y025573D01*
X008680Y025573D01*
X008827Y025634D01*
X008939Y025747D01*
X009000Y025894D01*
X009000Y026573D01*
X008939Y026720D01*
X008827Y026832D01*
X008680Y026893D01*
X008520Y026893D01*
X008373Y026832D01*
X008261Y026720D01*
X008200Y026569D02*
X008000Y026569D01*
X008000Y026411D02*
X008200Y026411D01*
X008200Y026252D02*
X008000Y026252D01*
X008000Y026094D02*
X008200Y026094D01*
X008200Y025935D02*
X008000Y025935D01*
X007952Y025777D02*
X008248Y025777D01*
X008412Y025618D02*
X007820Y025618D01*
X007820Y025460D02*
X011731Y025460D01*
X011731Y025618D02*
X008788Y025618D01*
X008952Y025777D02*
X011731Y025777D01*
X011731Y025935D02*
X009000Y025935D01*
X009000Y026094D02*
X011731Y026094D01*
X011731Y026252D02*
X009000Y026252D01*
X009000Y026411D02*
X011731Y026411D01*
X011731Y026569D02*
X009000Y026569D01*
X008931Y026728D02*
X011731Y026728D01*
X011731Y026886D02*
X008696Y026886D01*
X008504Y026886D02*
X007696Y026886D01*
X007504Y026886D02*
X006696Y026886D01*
X006680Y026893D02*
X006520Y026893D01*
X006373Y026832D01*
X006261Y026720D01*
X006200Y026573D01*
X006200Y025894D01*
X006261Y025747D01*
X006373Y025634D01*
X006520Y025573D01*
X006680Y025573D01*
X006827Y025634D01*
X006939Y025747D01*
X007000Y025894D01*
X007000Y026573D01*
X006939Y026720D01*
X006827Y026832D01*
X006680Y026893D01*
X006504Y026886D02*
X005696Y026886D01*
X005680Y026893D02*
X005520Y026893D01*
X005373Y026832D01*
X005261Y026720D01*
X005200Y026573D01*
X005200Y025894D01*
X005261Y025747D01*
X005373Y025634D01*
X005520Y025573D01*
X005680Y025573D01*
X005827Y025634D01*
X005939Y025747D01*
X006000Y025894D01*
X006000Y026573D01*
X005939Y026720D01*
X005827Y026832D01*
X005680Y026893D01*
X005504Y026886D02*
X004696Y026886D01*
X004680Y026893D02*
X004520Y026893D01*
X004373Y026832D01*
X004261Y026720D01*
X004200Y026573D01*
X004200Y025894D01*
X004261Y025747D01*
X004373Y025634D01*
X004520Y025573D01*
X004680Y025573D01*
X004827Y025634D01*
X004939Y025747D01*
X005000Y025894D01*
X005000Y026573D01*
X004939Y026720D01*
X004827Y026832D01*
X004680Y026893D01*
X004504Y026886D02*
X003798Y026886D01*
X003973Y026728D02*
X004269Y026728D01*
X004200Y026569D02*
X004033Y026569D01*
X004040Y026411D02*
X004200Y026411D01*
X004200Y026252D02*
X004040Y026252D01*
X004040Y026094D02*
X004200Y026094D01*
X004200Y025935D02*
X004039Y025935D01*
X003994Y025777D02*
X004248Y025777D01*
X004412Y025618D02*
X003860Y025618D01*
X003869Y024984D02*
X003906Y024984D01*
X003906Y024826D02*
X003869Y024826D01*
X003869Y024667D02*
X003906Y024667D01*
X003906Y024509D02*
X003869Y024509D01*
X003869Y024350D02*
X003906Y024350D01*
X003906Y024192D02*
X003869Y024192D01*
X003869Y024033D02*
X003906Y024033D01*
X003940Y023716D02*
X003968Y023716D01*
X003988Y023716D02*
X004564Y023716D01*
X004524Y023875D02*
X001201Y023875D01*
X001269Y024033D02*
X001269Y024033D01*
X001269Y024192D02*
X001269Y024192D01*
X001269Y024350D02*
X001269Y024350D01*
X001269Y024509D02*
X001269Y024509D01*
X001269Y024667D02*
X001269Y024667D01*
X001269Y024826D02*
X001269Y024826D01*
X001269Y024984D02*
X001269Y024984D01*
X001349Y025301D02*
X000350Y025301D01*
X000350Y025143D02*
X001505Y025143D01*
X001505Y024984D02*
X001467Y024984D01*
X001349Y025460D02*
X000350Y025460D01*
X000350Y025618D02*
X001349Y025618D01*
X001349Y025777D02*
X000350Y025777D01*
X000350Y025935D02*
X001420Y025935D01*
X001357Y026094D02*
X000350Y026094D01*
X000350Y026252D02*
X001349Y026252D01*
X001349Y026411D02*
X000350Y026411D01*
X000350Y026569D02*
X001349Y026569D01*
X001386Y026728D02*
X000350Y026728D01*
X000350Y026886D02*
X003402Y026886D01*
X003227Y026728D02*
X002677Y026728D01*
X002707Y026569D02*
X003167Y026569D01*
X003160Y026411D02*
X002707Y026411D01*
X002707Y026252D02*
X003160Y026252D01*
X003160Y026094D02*
X002641Y026094D01*
X002707Y025935D02*
X003161Y025935D01*
X003206Y025777D02*
X002707Y025777D01*
X002707Y025618D02*
X003340Y025618D01*
X003600Y025618D02*
X003600Y025618D01*
X003600Y025777D02*
X003600Y025777D01*
X003600Y025935D02*
X003600Y025935D01*
X003600Y026094D02*
X003600Y026094D01*
X002903Y025233D02*
X002903Y024460D01*
X002683Y024984D02*
X002551Y024984D01*
X002657Y025143D02*
X002683Y025143D01*
X002681Y025234D02*
X002681Y025234D01*
X002681Y025234D01*
X002683Y025301D02*
X002666Y025301D01*
X002648Y025460D02*
X007380Y025460D01*
X007380Y025618D02*
X006788Y025618D01*
X006952Y025777D02*
X007248Y025777D01*
X007200Y025935D02*
X007000Y025935D01*
X007000Y026094D02*
X007200Y026094D01*
X007200Y026252D02*
X007000Y026252D01*
X007000Y026411D02*
X007200Y026411D01*
X007200Y026569D02*
X007000Y026569D01*
X006931Y026728D02*
X007269Y026728D01*
X007820Y025301D02*
X011731Y025301D01*
X011731Y025143D02*
X007820Y025143D01*
X007570Y024954D02*
X008079Y024954D01*
X008161Y024872D01*
X008161Y024047D01*
X008134Y024020D01*
X008151Y023964D01*
X008168Y023922D01*
X008168Y023903D01*
X008181Y023859D01*
X008181Y023859D01*
X008181Y023859D01*
X008168Y023836D01*
X008168Y023795D01*
X008120Y023678D01*
X008030Y023589D01*
X007913Y023540D01*
X007787Y023540D01*
X007670Y023589D01*
X007580Y023678D01*
X007532Y023795D01*
X007532Y023836D01*
X007519Y023859D01*
X007520Y023862D01*
X007532Y023903D01*
X007532Y023922D01*
X007549Y023963D01*
X007554Y023981D01*
X007488Y024047D01*
X007488Y024872D01*
X007570Y024954D01*
X007488Y024826D02*
X007217Y024826D01*
X007217Y024838D02*
X007205Y024883D01*
X007181Y024924D01*
X007148Y024958D01*
X007106Y024982D01*
X007061Y024994D01*
X006859Y024994D01*
X006859Y024478D01*
X007217Y024478D01*
X007217Y024838D01*
X007217Y024667D02*
X007488Y024667D01*
X007488Y024509D02*
X007217Y024509D01*
X007217Y024441D02*
X007217Y024082D01*
X007205Y024036D01*
X007181Y023995D01*
X007148Y023961D01*
X007106Y023938D01*
X007061Y023925D01*
X006859Y023925D01*
X006859Y024441D01*
X006859Y024478D01*
X006822Y024478D01*
X006822Y024994D01*
X006620Y024994D01*
X006574Y024982D01*
X006533Y024958D01*
X006499Y024924D01*
X006476Y024883D01*
X006463Y024838D01*
X006463Y024478D01*
X006822Y024478D01*
X006822Y024441D01*
X006859Y024441D01*
X007217Y024441D01*
X007217Y024350D02*
X007488Y024350D01*
X007488Y024192D02*
X007217Y024192D01*
X007203Y024033D02*
X007502Y024033D01*
X007524Y023875D02*
X006070Y023875D01*
X006070Y023716D02*
X007564Y023716D01*
X007744Y023558D02*
X006070Y023558D01*
X006070Y023399D02*
X008531Y023399D01*
X008576Y023558D02*
X007956Y023558D01*
X008136Y023716D02*
X008620Y023716D01*
X008630Y023875D02*
X008176Y023875D01*
X008147Y024033D02*
X008486Y024033D01*
X008472Y024192D02*
X008161Y024192D01*
X008161Y024350D02*
X008472Y024350D01*
X008472Y024509D02*
X008161Y024509D01*
X008161Y024667D02*
X008472Y024667D01*
X008472Y024826D02*
X008161Y024826D01*
X007850Y024460D02*
X007850Y024213D01*
X007944Y023885D01*
X007850Y023858D01*
X007756Y023885D01*
X007850Y024213D01*
X007850Y023858D01*
X007097Y024984D02*
X011731Y024984D01*
X011731Y024826D02*
X010130Y024826D01*
X010130Y024667D02*
X011731Y024667D01*
X011731Y024509D02*
X010130Y024509D01*
X010130Y024350D02*
X010167Y024350D01*
X010133Y024192D02*
X010130Y024192D01*
X010116Y024033D02*
X010133Y024033D01*
X010540Y024033D02*
X010676Y024033D01*
X010676Y023875D02*
X010540Y023875D01*
X010676Y023760D02*
X010676Y024423D01*
X010927Y024423D01*
X010973Y024411D01*
X011014Y024387D01*
X011047Y024354D01*
X011071Y024313D01*
X011083Y024267D01*
X011083Y023760D01*
X010676Y023760D01*
X010676Y023716D02*
X011731Y023716D01*
X011731Y023558D02*
X011083Y023558D01*
X011083Y023399D02*
X011731Y023399D01*
X011731Y023241D02*
X011083Y023241D01*
X011074Y023082D02*
X011731Y023082D01*
X011731Y023875D02*
X011083Y023875D01*
X011083Y024033D02*
X011731Y024033D01*
X011731Y024192D02*
X011083Y024192D01*
X011049Y024350D02*
X011731Y024350D01*
X010676Y024350D02*
X010540Y024350D01*
X010540Y024192D02*
X010676Y024192D01*
X008284Y016901D02*
X007916Y016901D01*
X007995Y016742D02*
X008205Y016742D01*
X008200Y016584D02*
X008000Y016584D01*
X008000Y016425D02*
X008200Y016425D01*
X008200Y016267D02*
X008000Y016267D01*
X008000Y016108D02*
X008200Y016108D01*
X008242Y015950D02*
X007958Y015950D01*
X007826Y015791D02*
X008374Y015791D01*
X008554Y015111D02*
X008472Y015029D01*
X008472Y014205D01*
X008554Y014123D01*
X008630Y014123D01*
X008630Y013927D01*
X008613Y013897D01*
X008621Y013870D01*
X008549Y013621D01*
X008532Y013579D01*
X008532Y013561D01*
X008520Y013520D01*
X008519Y013516D01*
X008532Y013493D01*
X008532Y013452D01*
X008580Y013336D01*
X008670Y013246D01*
X008787Y013198D01*
X008913Y013198D01*
X009030Y013246D01*
X009120Y013336D01*
X009168Y013452D01*
X009168Y013493D01*
X009181Y013516D01*
X009181Y013516D01*
X009168Y013561D01*
X009168Y013579D01*
X009151Y013621D01*
X009079Y013870D01*
X009087Y013897D01*
X009070Y013927D01*
X009070Y014129D01*
X009146Y014205D01*
X009146Y015029D01*
X009064Y015111D01*
X008554Y015111D01*
X008472Y014999D02*
X008161Y014999D01*
X008161Y014840D02*
X008472Y014840D01*
X008472Y014682D02*
X008161Y014682D01*
X008161Y014523D02*
X008472Y014523D01*
X008472Y014365D02*
X008161Y014365D01*
X008161Y014206D02*
X008472Y014206D01*
X008630Y014048D02*
X008172Y014048D01*
X008181Y014016D02*
X008181Y014016D01*
X008142Y013889D02*
X008616Y013889D01*
X008581Y013731D02*
X007993Y013731D01*
X007944Y014043D02*
X007850Y014016D01*
X007756Y014043D01*
X007850Y014370D01*
X007944Y014043D01*
X007850Y014016D02*
X007850Y014370D01*
X007850Y014617D01*
X007558Y013889D02*
X006070Y013889D01*
X006070Y013731D02*
X007707Y013731D01*
X008532Y013572D02*
X006070Y013572D01*
X006189Y014206D02*
X006472Y014206D01*
X006463Y014365D02*
X006189Y014365D01*
X006189Y014523D02*
X006463Y014523D01*
X006463Y014682D02*
X006189Y014682D01*
X006189Y014840D02*
X006463Y014840D01*
X006464Y014999D02*
X006189Y014999D01*
X006374Y015791D02*
X005826Y015791D01*
X005827Y015792D02*
X005939Y015904D01*
X006000Y016051D01*
X006000Y016730D01*
X005939Y016877D01*
X005827Y016990D01*
X005680Y017051D01*
X005520Y017051D01*
X005373Y016990D01*
X005261Y016877D01*
X005200Y016730D01*
X005200Y016051D01*
X005261Y015904D01*
X005373Y015792D01*
X005520Y015731D01*
X005680Y015731D01*
X005827Y015792D01*
X005958Y015950D02*
X006242Y015950D01*
X006200Y016108D02*
X006000Y016108D01*
X006000Y016267D02*
X006200Y016267D01*
X006200Y016425D02*
X006000Y016425D01*
X006000Y016584D02*
X006200Y016584D01*
X006205Y016742D02*
X005995Y016742D01*
X005916Y016901D02*
X006284Y016901D01*
X006822Y014999D02*
X006859Y014999D01*
X006859Y014840D02*
X006822Y014840D01*
X006822Y014682D02*
X006859Y014682D01*
X006859Y014523D02*
X006822Y014523D01*
X006822Y014365D02*
X006859Y014365D01*
X006859Y014206D02*
X006822Y014206D01*
X005630Y014048D02*
X005172Y014048D01*
X005181Y014016D02*
X005181Y014016D01*
X005142Y013889D02*
X005630Y013889D01*
X005515Y014206D02*
X005209Y014206D01*
X005209Y014365D02*
X005515Y014365D01*
X005515Y014523D02*
X005209Y014523D01*
X005209Y014682D02*
X005515Y014682D01*
X005515Y014840D02*
X005209Y014840D01*
X005209Y014999D02*
X005515Y014999D01*
X005374Y015791D02*
X004826Y015791D01*
X004827Y015792D02*
X004939Y015904D01*
X005000Y016051D01*
X005000Y016730D01*
X004939Y016877D01*
X004827Y016990D01*
X004680Y017051D01*
X004520Y017051D01*
X004373Y016990D01*
X004261Y016877D01*
X004200Y016730D01*
X004200Y016051D01*
X004261Y015904D01*
X004373Y015792D01*
X004520Y015731D01*
X004680Y015731D01*
X004827Y015792D01*
X004958Y015950D02*
X005242Y015950D01*
X005200Y016108D02*
X005000Y016108D01*
X005000Y016267D02*
X005200Y016267D01*
X005200Y016425D02*
X005000Y016425D01*
X005000Y016584D02*
X005200Y016584D01*
X005205Y016742D02*
X004995Y016742D01*
X004916Y016901D02*
X005284Y016901D01*
X004374Y015791D02*
X003881Y015791D01*
X003887Y015795D02*
X003936Y015844D01*
X003976Y015900D01*
X004008Y015962D01*
X004029Y016028D01*
X004040Y016096D01*
X004040Y016391D01*
X003600Y016391D01*
X003600Y016391D01*
X003160Y016391D01*
X003160Y016096D01*
X003171Y016028D01*
X003192Y015962D01*
X003224Y015900D01*
X003264Y015844D01*
X003313Y015795D01*
X003369Y015754D01*
X003431Y015723D01*
X003497Y015702D01*
X003565Y015691D01*
X003600Y015691D01*
X003600Y016391D01*
X003600Y015691D01*
X003635Y015691D01*
X003703Y015702D01*
X003769Y015723D01*
X003831Y015754D01*
X003887Y015795D01*
X004002Y015950D02*
X004242Y015950D01*
X004200Y016108D02*
X004040Y016108D01*
X004040Y016267D02*
X004200Y016267D01*
X004200Y016425D02*
X004040Y016425D01*
X004040Y016584D02*
X004200Y016584D01*
X004205Y016742D02*
X004031Y016742D01*
X003962Y016901D02*
X004284Y016901D01*
X003600Y016391D02*
X003600Y016391D01*
X003600Y016267D02*
X003600Y016267D01*
X003600Y016108D02*
X003600Y016108D01*
X003600Y015950D02*
X003600Y015950D01*
X003600Y015791D02*
X003600Y015791D01*
X003319Y015791D02*
X002707Y015791D01*
X002707Y015950D02*
X003198Y015950D01*
X003160Y016108D02*
X002707Y016108D01*
X002628Y016267D02*
X003160Y016267D01*
X003160Y016425D02*
X002707Y016425D01*
X002707Y016584D02*
X003160Y016584D01*
X003169Y016742D02*
X002707Y016742D01*
X002661Y016901D02*
X003238Y016901D01*
X002350Y016600D02*
X002350Y016554D01*
X001725Y016554D01*
X001349Y016584D02*
X000350Y016584D01*
X000350Y016742D02*
X001349Y016742D01*
X001401Y016901D02*
X000350Y016901D01*
X000350Y016425D02*
X001349Y016425D01*
X001349Y016267D02*
X000350Y016267D01*
X001269Y014999D02*
X001269Y014999D01*
X001269Y014840D02*
X001269Y014840D01*
X001269Y014682D02*
X001269Y014682D01*
X001269Y014523D02*
X001269Y014523D01*
X001269Y014365D02*
X001269Y014365D01*
X001269Y014206D02*
X001269Y014206D01*
X001201Y014048D02*
X004528Y014048D01*
X004535Y014206D02*
X004255Y014206D01*
X004252Y014193D02*
X004264Y014239D01*
X004264Y014599D01*
X003906Y014599D01*
X003906Y014636D01*
X003869Y014636D01*
X003869Y014599D01*
X003906Y014599D01*
X003906Y014083D01*
X004108Y014083D01*
X004154Y014095D01*
X004195Y014119D01*
X004228Y014152D01*
X004252Y014193D01*
X004264Y014365D02*
X004535Y014365D01*
X004535Y014523D02*
X004264Y014523D01*
X004264Y014636D02*
X004264Y014995D01*
X004252Y015041D01*
X004228Y015082D01*
X004195Y015115D01*
X004154Y015139D01*
X004108Y015151D01*
X003906Y015151D01*
X003906Y014636D01*
X004264Y014636D01*
X004264Y014682D02*
X004535Y014682D01*
X004535Y014840D02*
X004264Y014840D01*
X004263Y014999D02*
X004535Y014999D01*
X004850Y014617D02*
X004850Y014370D01*
X004944Y014043D01*
X004850Y014016D01*
X004756Y014043D01*
X004850Y014370D01*
X004850Y014016D01*
X004558Y013889D02*
X003886Y013889D01*
X003869Y014206D02*
X003906Y014206D01*
X003906Y014365D02*
X003869Y014365D01*
X003869Y014523D02*
X003906Y014523D01*
X003906Y014682D02*
X003869Y014682D01*
X003869Y014840D02*
X003906Y014840D01*
X003906Y014999D02*
X003869Y014999D01*
X003512Y014999D02*
X003240Y014999D01*
X003240Y014840D02*
X003511Y014840D01*
X003123Y015157D02*
X011731Y015157D01*
X011731Y014999D02*
X010130Y014999D01*
X010130Y015029D02*
X010048Y015111D01*
X009538Y015111D01*
X009456Y015029D01*
X009456Y014205D01*
X009538Y014123D01*
X010048Y014123D01*
X010130Y014205D01*
X010130Y015029D01*
X010130Y014840D02*
X011731Y014840D01*
X011731Y014682D02*
X010130Y014682D01*
X010202Y014545D02*
X010169Y014511D01*
X010145Y014470D01*
X010133Y014424D01*
X010133Y013917D01*
X010540Y013917D01*
X010540Y013782D01*
X010186Y013782D01*
X010109Y013859D01*
X009935Y013931D01*
X009746Y013931D01*
X009571Y013859D01*
X009437Y013725D01*
X009365Y013550D01*
X009365Y013361D01*
X009437Y013186D01*
X009571Y013053D01*
X009746Y012980D01*
X009935Y012980D01*
X010109Y013053D01*
X010208Y013151D01*
X010243Y013130D01*
X010289Y013118D01*
X010540Y013118D01*
X010540Y013782D01*
X010676Y013782D01*
X010676Y013917D01*
X011083Y013917D01*
X011083Y014424D01*
X011071Y014470D01*
X011047Y014511D01*
X011014Y014545D01*
X010973Y014568D01*
X010927Y014581D01*
X010676Y014581D01*
X010676Y013917D01*
X010540Y013917D01*
X010540Y014581D01*
X010289Y014581D01*
X010243Y014568D01*
X010202Y014545D01*
X010181Y014523D02*
X010130Y014523D01*
X010130Y014365D02*
X010133Y014365D01*
X010130Y014206D02*
X010133Y014206D01*
X010133Y014048D02*
X009070Y014048D01*
X009084Y013889D02*
X009645Y013889D01*
X009443Y013731D02*
X009119Y013731D01*
X009168Y013572D02*
X009374Y013572D01*
X009365Y013414D02*
X009152Y013414D01*
X009181Y013516D02*
X009181Y013516D01*
X009039Y013255D02*
X009409Y013255D01*
X009527Y013097D02*
X001691Y013097D01*
X001897Y013255D02*
X008661Y013255D01*
X008548Y013414D02*
X003998Y013414D01*
X001454Y013097D02*
X000350Y013097D01*
X000350Y012938D02*
X011731Y012938D01*
X011731Y012780D02*
X000350Y012780D01*
X000350Y012621D02*
X011731Y012621D01*
X011731Y012463D02*
X000350Y012463D01*
X000350Y012304D02*
X011731Y012304D01*
X011731Y012146D02*
X000350Y012146D01*
X000350Y011987D02*
X011731Y011987D01*
X011731Y011829D02*
X000350Y011829D01*
X000350Y011670D02*
X011731Y011670D01*
X011731Y011512D02*
X000350Y011512D01*
X000350Y011353D02*
X011731Y011353D01*
X011731Y011195D02*
X000350Y011195D01*
X000350Y011036D02*
X011731Y011036D01*
X011731Y010878D02*
X000350Y010878D01*
X000350Y010719D02*
X011731Y010719D01*
X011731Y010561D02*
X000350Y010561D01*
X000350Y010402D02*
X011731Y010402D01*
X011731Y010244D02*
X000350Y010244D01*
X000350Y010085D02*
X011731Y010085D01*
X011731Y009927D02*
X000350Y009927D01*
X000350Y009768D02*
X011731Y009768D01*
X011731Y009610D02*
X000350Y009610D01*
X000350Y009451D02*
X011731Y009451D01*
X011731Y009293D02*
X000350Y009293D01*
X000350Y009134D02*
X011731Y009134D01*
X011731Y008976D02*
X000350Y008976D01*
X000658Y008817D02*
X000794Y008817D01*
X000794Y008659D02*
X000658Y008659D01*
X000658Y008500D02*
X000794Y008500D01*
X000794Y008342D02*
X000658Y008342D01*
X000794Y008183D02*
X011406Y008183D01*
X011406Y008342D02*
X011542Y008342D01*
X011542Y008500D02*
X011406Y008500D01*
X011406Y008659D02*
X011542Y008659D01*
X011542Y008817D02*
X011406Y008817D01*
X011050Y008817D02*
X001150Y008817D01*
X001201Y008659D02*
X010999Y008659D01*
X010999Y008500D02*
X001201Y008500D01*
X001201Y008342D02*
X010999Y008342D01*
X010999Y008025D02*
X001201Y008025D01*
X001201Y007866D02*
X010999Y007866D01*
X010999Y007708D02*
X001201Y007708D01*
X001196Y013255D02*
X001248Y013255D01*
X001213Y013572D02*
X001201Y013572D01*
X001201Y013731D02*
X001315Y013731D01*
X000794Y013731D02*
X000658Y013731D01*
X000658Y013572D02*
X000794Y013572D01*
X000794Y013414D02*
X000658Y013414D01*
X000658Y013255D02*
X000794Y013255D01*
X001192Y023082D02*
X001255Y023082D01*
X001206Y023399D02*
X001201Y023399D01*
X001201Y023558D02*
X001299Y023558D01*
X000951Y024509D02*
X000350Y024509D01*
X000350Y024667D02*
X000951Y024667D01*
X000951Y024826D02*
X000350Y024826D01*
X000350Y024984D02*
X001072Y024984D01*
X000794Y024350D02*
X000658Y024350D01*
X000658Y024192D02*
X000794Y024192D01*
X000794Y024033D02*
X000658Y024033D01*
X000658Y023875D02*
X000794Y023875D01*
X001725Y024460D02*
X001725Y025570D01*
X001725Y026397D02*
X002350Y026397D01*
X002350Y026443D01*
X002350Y025774D02*
X002350Y025588D01*
X002444Y025260D01*
X002350Y025233D01*
X002256Y025260D01*
X002350Y025588D01*
X002350Y025233D01*
X001742Y024460D02*
X001725Y024460D01*
X002576Y024033D02*
X002580Y024033D01*
X003954Y023483D02*
X005850Y023483D01*
X005850Y024460D01*
X005852Y024460D01*
X005630Y023875D02*
X005176Y023875D01*
X005181Y023859D02*
X005181Y023859D01*
X005181Y023859D01*
X005136Y023716D02*
X005630Y023716D01*
X005529Y024033D02*
X005194Y024033D01*
X005209Y024192D02*
X005515Y024192D01*
X005515Y024350D02*
X005209Y024350D01*
X005209Y024509D02*
X005515Y024509D01*
X005515Y024667D02*
X005209Y024667D01*
X005209Y024826D02*
X005515Y024826D01*
X005412Y025618D02*
X004788Y025618D01*
X004952Y025777D02*
X005248Y025777D01*
X005200Y025935D02*
X005000Y025935D01*
X005000Y026094D02*
X005200Y026094D01*
X005200Y026252D02*
X005000Y026252D01*
X005000Y026411D02*
X005200Y026411D01*
X005200Y026569D02*
X005000Y026569D01*
X004931Y026728D02*
X005269Y026728D01*
X005788Y025618D02*
X006412Y025618D01*
X006248Y025777D02*
X005952Y025777D01*
X006000Y025935D02*
X006200Y025935D01*
X006200Y026094D02*
X006000Y026094D01*
X006000Y026252D02*
X006200Y026252D01*
X006200Y026411D02*
X006000Y026411D01*
X006000Y026569D02*
X006200Y026569D01*
X006269Y026728D02*
X005931Y026728D01*
X006583Y024984D02*
X004144Y024984D01*
X004264Y024826D02*
X004535Y024826D01*
X004535Y024667D02*
X004264Y024667D01*
X004264Y024509D02*
X004535Y024509D01*
X004535Y024350D02*
X004264Y024350D01*
X004264Y024192D02*
X004535Y024192D01*
X004549Y024033D02*
X004251Y024033D01*
X004756Y023885D02*
X004850Y023858D01*
X004944Y023885D01*
X004850Y024213D01*
X004756Y023885D01*
X004850Y023858D02*
X004850Y024213D01*
X004850Y024460D01*
X006189Y024509D02*
X006463Y024509D01*
X006463Y024441D02*
X006463Y024082D01*
X006476Y024036D01*
X006499Y023995D01*
X006533Y023961D01*
X006574Y023938D01*
X006620Y023925D01*
X006822Y023925D01*
X006822Y024441D01*
X006463Y024441D01*
X006463Y024350D02*
X006189Y024350D01*
X006189Y024192D02*
X006463Y024192D01*
X006477Y024033D02*
X006175Y024033D01*
X006189Y024667D02*
X006463Y024667D01*
X006463Y024826D02*
X006189Y024826D01*
X006822Y024826D02*
X006859Y024826D01*
X006859Y024984D02*
X006822Y024984D01*
X006822Y024667D02*
X006859Y024667D01*
X006859Y024509D02*
X006822Y024509D01*
X006822Y024350D02*
X006859Y024350D01*
X006859Y024192D02*
X006822Y024192D01*
X006822Y024033D02*
X006859Y024033D01*
X009146Y014999D02*
X009456Y014999D01*
X009456Y014840D02*
X009146Y014840D01*
X009146Y014682D02*
X009456Y014682D01*
X009456Y014523D02*
X009146Y014523D01*
X009146Y014365D02*
X009456Y014365D01*
X009456Y014206D02*
X009146Y014206D01*
X008850Y013870D02*
X008850Y013516D01*
X008944Y013543D01*
X008850Y013870D01*
X008756Y013543D01*
X008850Y013516D01*
X008850Y013870D02*
X008850Y014617D01*
X010035Y013889D02*
X010540Y013889D01*
X010676Y013889D02*
X011731Y013889D01*
X011731Y013731D02*
X011083Y013731D01*
X011083Y013782D02*
X011083Y013275D01*
X011071Y013229D01*
X011047Y013188D01*
X011014Y013154D01*
X010973Y013130D01*
X010927Y013118D01*
X010676Y013118D01*
X010676Y013782D01*
X011083Y013782D01*
X011083Y013572D02*
X011731Y013572D01*
X011731Y013414D02*
X011083Y013414D01*
X011078Y013255D02*
X011731Y013255D01*
X011731Y013097D02*
X010153Y013097D01*
X010540Y013255D02*
X010676Y013255D01*
X010676Y013414D02*
X010540Y013414D01*
X010540Y013572D02*
X010676Y013572D01*
X010676Y013731D02*
X010540Y013731D01*
X010540Y014048D02*
X010676Y014048D01*
X010676Y014206D02*
X010540Y014206D01*
X010540Y014365D02*
X010676Y014365D01*
X010676Y014523D02*
X010540Y014523D01*
X011035Y014523D02*
X011731Y014523D01*
X011731Y014365D02*
X011083Y014365D01*
X011083Y014206D02*
X011731Y014206D01*
X011731Y014048D02*
X011083Y014048D01*
D18*
X008850Y013516D03*
X007850Y014016D03*
X004850Y014016D03*
X003600Y013641D03*
X002350Y015391D03*
X003600Y023483D03*
X002350Y025233D03*
X004850Y023858D03*
X007850Y023858D03*
X008850Y023358D03*
D19*
X008809Y024460D02*
X008850Y024460D01*
X007850Y024460D02*
X007824Y024460D01*
X004872Y024460D02*
X004850Y024460D01*
X004872Y014617D02*
X004850Y014617D01*
X007824Y014617D02*
X007850Y014617D01*
X008809Y014617D02*
X008850Y014617D01*
M02*
