G75*
G70*
%OFA0B0*%
%FSLAX24Y24*%
%IPPOS*%
%LPD*%
%AMOC8*
5,1,8,0,0,1.08239X$1,22.5*
%
%ADD10C,0.0434*%
%ADD11C,0.0631*%
%ADD12R,0.0520X0.0920*%
%ADD13R,0.1457X0.0906*%
%ADD14R,0.0276X0.0906*%
%ADD15C,0.0560*%
%ADD16R,0.0552X0.0670*%
%ADD17R,0.0670X0.0552*%
D10*
X001572Y013456D03*
X001572Y023298D03*
D11*
X009840Y023298D03*
X009840Y013456D03*
D12*
X009440Y011611D03*
X010350Y011611D03*
X011260Y011611D03*
X011260Y021453D03*
X010350Y021453D03*
X009440Y021453D03*
D13*
X010350Y019013D03*
X010350Y009171D03*
D14*
X007100Y012867D03*
X006600Y012867D03*
X006100Y012867D03*
X005600Y012867D03*
X005100Y012867D03*
X004600Y012867D03*
X004100Y012867D03*
X003600Y012867D03*
X003600Y014914D03*
X004100Y014914D03*
X004600Y014914D03*
X005100Y014914D03*
X005600Y014914D03*
X006100Y014914D03*
X006600Y014914D03*
X007100Y014914D03*
X007100Y022710D03*
X006600Y022710D03*
X006100Y022710D03*
X005600Y022710D03*
X005100Y022710D03*
X004600Y022710D03*
X004100Y022710D03*
X003600Y022710D03*
X003600Y024757D03*
X004100Y024757D03*
X004600Y024757D03*
X005100Y024757D03*
X005600Y024757D03*
X006100Y024757D03*
X006600Y024757D03*
X007100Y024757D03*
D15*
X007600Y025973D02*
X007600Y026493D01*
X008600Y026493D02*
X008600Y025973D01*
X006600Y025973D02*
X006600Y026493D01*
X005600Y026493D02*
X005600Y025973D01*
X004600Y025973D02*
X004600Y026493D01*
X003600Y026493D02*
X003600Y025973D01*
X003600Y016651D02*
X003600Y016131D01*
X004600Y016131D02*
X004600Y016651D01*
X005600Y016651D02*
X005600Y016131D01*
X006600Y016131D02*
X006600Y016651D01*
X007600Y016651D02*
X007600Y016131D01*
X008600Y016131D02*
X008600Y016651D01*
D16*
X010456Y014891D03*
X011244Y014891D03*
X011244Y024733D03*
X010456Y024733D03*
D17*
X002475Y012747D03*
X002475Y013534D03*
X002475Y022590D03*
X002475Y023377D03*
M02*
