G75*
G70*
%OFA0B0*%
%FSLAX24Y24*%
%IPPOS*%
%LPD*%
%AMOC8*
5,1,8,0,0,1.08239X$1,22.5*
%
%ADD10C,0.0000*%
%ADD11R,0.0480X0.0880*%
%ADD12R,0.1417X0.0866*%
%ADD13R,0.0236X0.0866*%
%ADD14C,0.0520*%
%ADD15R,0.0512X0.0630*%
%ADD16R,0.0630X0.0512*%
%ADD17C,0.0160*%
%ADD18C,0.0356*%
%ADD19C,0.0240*%
D10*
X000100Y007391D02*
X000100Y017233D01*
X000100Y027076D01*
X011911Y027076D01*
X011911Y017233D01*
X000100Y017233D01*
X011911Y017233D01*
X011911Y007391D01*
X000100Y007391D01*
X001375Y013456D02*
X001377Y013483D01*
X001383Y013510D01*
X001392Y013536D01*
X001405Y013560D01*
X001421Y013583D01*
X001440Y013602D01*
X001462Y013619D01*
X001486Y013633D01*
X001511Y013643D01*
X001538Y013650D01*
X001565Y013653D01*
X001593Y013652D01*
X001620Y013647D01*
X001646Y013639D01*
X001670Y013627D01*
X001693Y013611D01*
X001714Y013593D01*
X001731Y013572D01*
X001746Y013548D01*
X001757Y013523D01*
X001765Y013497D01*
X001769Y013470D01*
X001769Y013442D01*
X001765Y013415D01*
X001757Y013389D01*
X001746Y013364D01*
X001731Y013340D01*
X001714Y013319D01*
X001693Y013301D01*
X001671Y013285D01*
X001646Y013273D01*
X001620Y013265D01*
X001593Y013260D01*
X001565Y013259D01*
X001538Y013262D01*
X001511Y013269D01*
X001486Y013279D01*
X001462Y013293D01*
X001440Y013310D01*
X001421Y013329D01*
X001405Y013352D01*
X001392Y013376D01*
X001383Y013402D01*
X001377Y013429D01*
X001375Y013456D01*
X001375Y023298D02*
X001377Y023325D01*
X001383Y023352D01*
X001392Y023378D01*
X001405Y023402D01*
X001421Y023425D01*
X001440Y023444D01*
X001462Y023461D01*
X001486Y023475D01*
X001511Y023485D01*
X001538Y023492D01*
X001565Y023495D01*
X001593Y023494D01*
X001620Y023489D01*
X001646Y023481D01*
X001670Y023469D01*
X001693Y023453D01*
X001714Y023435D01*
X001731Y023414D01*
X001746Y023390D01*
X001757Y023365D01*
X001765Y023339D01*
X001769Y023312D01*
X001769Y023284D01*
X001765Y023257D01*
X001757Y023231D01*
X001746Y023206D01*
X001731Y023182D01*
X001714Y023161D01*
X001693Y023143D01*
X001671Y023127D01*
X001646Y023115D01*
X001620Y023107D01*
X001593Y023102D01*
X001565Y023101D01*
X001538Y023104D01*
X001511Y023111D01*
X001486Y023121D01*
X001462Y023135D01*
X001440Y023152D01*
X001421Y023171D01*
X001405Y023194D01*
X001392Y023218D01*
X001383Y023244D01*
X001377Y023271D01*
X001375Y023298D01*
X009545Y023298D02*
X009547Y023332D01*
X009553Y023366D01*
X009563Y023399D01*
X009576Y023430D01*
X009594Y023460D01*
X009614Y023488D01*
X009638Y023513D01*
X009664Y023535D01*
X009692Y023553D01*
X009723Y023569D01*
X009755Y023581D01*
X009789Y023589D01*
X009823Y023593D01*
X009857Y023593D01*
X009891Y023589D01*
X009925Y023581D01*
X009957Y023569D01*
X009987Y023553D01*
X010016Y023535D01*
X010042Y023513D01*
X010066Y023488D01*
X010086Y023460D01*
X010104Y023430D01*
X010117Y023399D01*
X010127Y023366D01*
X010133Y023332D01*
X010135Y023298D01*
X010133Y023264D01*
X010127Y023230D01*
X010117Y023197D01*
X010104Y023166D01*
X010086Y023136D01*
X010066Y023108D01*
X010042Y023083D01*
X010016Y023061D01*
X009988Y023043D01*
X009957Y023027D01*
X009925Y023015D01*
X009891Y023007D01*
X009857Y023003D01*
X009823Y023003D01*
X009789Y023007D01*
X009755Y023015D01*
X009723Y023027D01*
X009692Y023043D01*
X009664Y023061D01*
X009638Y023083D01*
X009614Y023108D01*
X009594Y023136D01*
X009576Y023166D01*
X009563Y023197D01*
X009553Y023230D01*
X009547Y023264D01*
X009545Y023298D01*
X009545Y013456D02*
X009547Y013490D01*
X009553Y013524D01*
X009563Y013557D01*
X009576Y013588D01*
X009594Y013618D01*
X009614Y013646D01*
X009638Y013671D01*
X009664Y013693D01*
X009692Y013711D01*
X009723Y013727D01*
X009755Y013739D01*
X009789Y013747D01*
X009823Y013751D01*
X009857Y013751D01*
X009891Y013747D01*
X009925Y013739D01*
X009957Y013727D01*
X009987Y013711D01*
X010016Y013693D01*
X010042Y013671D01*
X010066Y013646D01*
X010086Y013618D01*
X010104Y013588D01*
X010117Y013557D01*
X010127Y013524D01*
X010133Y013490D01*
X010135Y013456D01*
X010133Y013422D01*
X010127Y013388D01*
X010117Y013355D01*
X010104Y013324D01*
X010086Y013294D01*
X010066Y013266D01*
X010042Y013241D01*
X010016Y013219D01*
X009988Y013201D01*
X009957Y013185D01*
X009925Y013173D01*
X009891Y013165D01*
X009857Y013161D01*
X009823Y013161D01*
X009789Y013165D01*
X009755Y013173D01*
X009723Y013185D01*
X009692Y013201D01*
X009664Y013219D01*
X009638Y013241D01*
X009614Y013266D01*
X009594Y013294D01*
X009576Y013324D01*
X009563Y013355D01*
X009553Y013388D01*
X009547Y013422D01*
X009545Y013456D01*
D11*
X009440Y011611D03*
X010350Y011611D03*
X011260Y011611D03*
X011260Y021453D03*
X010350Y021453D03*
X009440Y021453D03*
D12*
X010350Y019013D03*
X010350Y009171D03*
D13*
X007100Y012867D03*
X006600Y012867D03*
X006100Y012867D03*
X005600Y012867D03*
X005100Y012867D03*
X004600Y012867D03*
X004100Y012867D03*
X003600Y012867D03*
X003600Y014914D03*
X004100Y014914D03*
X004600Y014914D03*
X005100Y014914D03*
X005600Y014914D03*
X006100Y014914D03*
X006600Y014914D03*
X007100Y014914D03*
X007100Y022710D03*
X006600Y022710D03*
X006100Y022710D03*
X005600Y022710D03*
X005100Y022710D03*
X004600Y022710D03*
X004100Y022710D03*
X003600Y022710D03*
X003600Y024757D03*
X004100Y024757D03*
X004600Y024757D03*
X005100Y024757D03*
X005600Y024757D03*
X006100Y024757D03*
X006600Y024757D03*
X007100Y024757D03*
D14*
X007600Y025973D02*
X007600Y026493D01*
X008600Y026493D02*
X008600Y025973D01*
X006600Y025973D02*
X006600Y026493D01*
X005600Y026493D02*
X005600Y025973D01*
X004600Y025973D02*
X004600Y026493D01*
X003600Y026493D02*
X003600Y025973D01*
X003600Y016651D02*
X003600Y016131D01*
X004600Y016131D02*
X004600Y016651D01*
X005600Y016651D02*
X005600Y016131D01*
X006600Y016131D02*
X006600Y016651D01*
X007600Y016651D02*
X007600Y016131D01*
X008600Y016131D02*
X008600Y016651D01*
D15*
X010456Y014891D03*
X011244Y014891D03*
X011244Y024733D03*
X010456Y024733D03*
D16*
X002475Y023377D03*
X002475Y022590D03*
X002475Y013534D03*
X002475Y012747D03*
D17*
X002427Y012780D02*
X000600Y012780D01*
X000600Y012938D02*
X001980Y012938D01*
X001980Y013027D02*
X001980Y012795D01*
X002427Y012795D01*
X002427Y012699D01*
X002523Y012699D01*
X002523Y012311D01*
X002814Y012311D01*
X002859Y012323D01*
X002880Y012335D01*
X002880Y011800D01*
X003009Y011671D01*
X008816Y011671D01*
X008945Y011800D01*
X008945Y012171D01*
X009065Y012171D01*
X009056Y012161D01*
X009032Y012120D01*
X009020Y012074D01*
X009020Y011651D01*
X009400Y011651D01*
X009400Y011571D01*
X009020Y011571D01*
X009020Y011147D01*
X009032Y011101D01*
X009056Y011060D01*
X009089Y011027D01*
X009131Y011003D01*
X009176Y010991D01*
X009400Y010991D01*
X009400Y011571D01*
X009480Y011571D01*
X009480Y011651D01*
X009860Y011651D01*
X009860Y012074D01*
X009848Y012120D01*
X009824Y012161D01*
X009815Y012171D01*
X010032Y012171D01*
X009970Y012109D01*
X009970Y011113D01*
X010052Y011031D01*
X010648Y011031D01*
X010730Y011113D01*
X010730Y012109D01*
X010648Y012191D01*
X010570Y012191D01*
X010570Y012482D01*
X010441Y012611D01*
X008634Y012611D01*
X008505Y012482D01*
X008505Y012111D01*
X003320Y012111D01*
X003320Y013390D01*
X003362Y013378D01*
X003342Y013358D01*
X003342Y012376D01*
X003424Y012294D01*
X003776Y012294D01*
X003850Y012368D01*
X003924Y012294D01*
X004276Y012294D01*
X004350Y012368D01*
X004424Y012294D01*
X004776Y012294D01*
X004850Y012368D01*
X004924Y012294D01*
X005276Y012294D01*
X005350Y012368D01*
X005424Y012294D01*
X005776Y012294D01*
X005850Y012368D01*
X005924Y012294D01*
X006276Y012294D01*
X006350Y012368D01*
X006424Y012294D01*
X006776Y012294D01*
X006850Y012368D01*
X006924Y012294D01*
X007276Y012294D01*
X007358Y012376D01*
X007358Y013296D01*
X008439Y013296D01*
X008469Y013279D01*
X008496Y013287D01*
X008740Y013216D01*
X008745Y013215D01*
X008787Y013198D01*
X008805Y013198D01*
X008849Y013185D01*
X008849Y013185D01*
X008849Y013185D01*
X008873Y013198D01*
X008913Y013198D01*
X009030Y013246D01*
X009120Y013336D01*
X009168Y013452D01*
X009168Y013579D01*
X009120Y013696D01*
X009030Y013785D01*
X008913Y013834D01*
X008873Y013834D01*
X008849Y013847D01*
X008805Y013834D01*
X008787Y013834D01*
X008745Y013816D01*
X008730Y013812D01*
X008496Y013745D01*
X008469Y013752D01*
X008439Y013736D01*
X008005Y013736D01*
X008030Y013746D01*
X008120Y013836D01*
X008168Y013952D01*
X008168Y014079D01*
X008120Y014196D01*
X008030Y014285D01*
X007913Y014334D01*
X007873Y014334D01*
X007849Y014347D01*
X007805Y014334D01*
X007787Y014334D01*
X007745Y014316D01*
X007730Y014312D01*
X007496Y014245D01*
X007469Y014252D01*
X007439Y014236D01*
X006320Y014236D01*
X006320Y014385D01*
X006350Y014415D01*
X006424Y014341D01*
X006776Y014341D01*
X006826Y014391D01*
X006838Y014371D01*
X006871Y014337D01*
X006912Y014314D01*
X006958Y014301D01*
X007100Y014301D01*
X007242Y014301D01*
X007288Y014314D01*
X007329Y014337D01*
X007362Y014371D01*
X007386Y014412D01*
X007398Y014458D01*
X007398Y014914D01*
X007100Y014914D01*
X007100Y014301D01*
X007100Y014914D01*
X007100Y014914D01*
X007100Y014914D01*
X007398Y014914D01*
X007398Y015371D01*
X007386Y015417D01*
X007362Y015458D01*
X007329Y015491D01*
X007288Y015515D01*
X007242Y015527D01*
X007100Y015527D01*
X006958Y015527D01*
X006912Y015515D01*
X006871Y015491D01*
X006838Y015458D01*
X006826Y015438D01*
X006820Y015444D01*
X006820Y015789D01*
X006827Y015792D01*
X006939Y015904D01*
X007000Y016051D01*
X007000Y016730D01*
X006939Y016877D01*
X006827Y016990D01*
X006680Y017051D01*
X006520Y017051D01*
X006373Y016990D01*
X006261Y016877D01*
X006200Y016730D01*
X006200Y016051D01*
X006261Y015904D01*
X006373Y015792D01*
X006380Y015789D01*
X006380Y015444D01*
X006350Y015414D01*
X006276Y015487D01*
X005924Y015487D01*
X005850Y015414D01*
X005820Y015444D01*
X005820Y015789D01*
X005827Y015792D01*
X005939Y015904D01*
X006000Y016051D01*
X006000Y016730D01*
X005939Y016877D01*
X005827Y016990D01*
X005680Y017051D01*
X005520Y017051D01*
X005373Y016990D01*
X005261Y016877D01*
X005200Y016730D01*
X005200Y016051D01*
X005261Y015904D01*
X005373Y015792D01*
X005380Y015789D01*
X005380Y015444D01*
X005350Y015414D01*
X005276Y015487D01*
X004924Y015487D01*
X004850Y015414D01*
X004820Y015444D01*
X004820Y015789D01*
X004827Y015792D01*
X004939Y015904D01*
X005000Y016051D01*
X005000Y016730D01*
X004939Y016877D01*
X004827Y016990D01*
X004680Y017051D01*
X004520Y017051D01*
X004373Y016990D01*
X004261Y016877D01*
X004200Y016730D01*
X004200Y016051D01*
X004261Y015904D01*
X004373Y015792D01*
X004380Y015789D01*
X004380Y015444D01*
X004350Y015414D01*
X004276Y015487D01*
X003924Y015487D01*
X003850Y015414D01*
X003776Y015487D01*
X003424Y015487D01*
X003342Y015405D01*
X003342Y014423D01*
X003380Y014385D01*
X003380Y014052D01*
X003363Y014022D01*
X003371Y013995D01*
X003343Y013898D01*
X003246Y013870D01*
X003219Y013877D01*
X003189Y013861D01*
X002918Y013861D01*
X002848Y013930D01*
X002570Y013930D01*
X002570Y014980D01*
X002587Y015010D01*
X002579Y015036D01*
X002646Y015270D01*
X002651Y015286D01*
X002668Y015327D01*
X002668Y015346D01*
X002681Y015390D01*
X002681Y015390D01*
X002681Y015390D01*
X002668Y015413D01*
X002668Y015454D01*
X002620Y015571D01*
X002530Y015660D01*
X002413Y015709D01*
X002287Y015709D01*
X002170Y015660D01*
X002080Y015571D01*
X002032Y015454D01*
X002032Y015413D01*
X002019Y015390D01*
X002032Y015346D01*
X002032Y015327D01*
X002049Y015286D01*
X002051Y015281D01*
X002121Y015036D01*
X002113Y015010D01*
X002130Y014980D01*
X002130Y013930D01*
X002102Y013930D01*
X002020Y013848D01*
X002020Y013221D01*
X002077Y013163D01*
X002050Y013147D01*
X002016Y013113D01*
X001992Y013072D01*
X001980Y013027D01*
X002006Y013097D02*
X001691Y013097D01*
X001647Y013079D02*
X001786Y013136D01*
X001892Y013242D01*
X001949Y013381D01*
X001949Y013531D01*
X001892Y013669D01*
X001786Y013775D01*
X001647Y013833D01*
X001497Y013833D01*
X001359Y013775D01*
X001253Y013669D01*
X001196Y013531D01*
X001196Y013381D01*
X001253Y013242D01*
X001359Y013136D01*
X001497Y013079D01*
X001647Y013079D01*
X001454Y013097D02*
X000600Y013097D01*
X000600Y013255D02*
X001248Y013255D01*
X001196Y013414D02*
X000600Y013414D01*
X000600Y013572D02*
X001213Y013572D01*
X001315Y013731D02*
X000600Y013731D01*
X000600Y013889D02*
X002061Y013889D01*
X002020Y013731D02*
X001830Y013731D01*
X001932Y013572D02*
X002020Y013572D01*
X002020Y013414D02*
X001949Y013414D01*
X001897Y013255D02*
X002020Y013255D01*
X001980Y012699D02*
X001980Y012467D01*
X001992Y012422D01*
X002016Y012381D01*
X002050Y012347D01*
X002091Y012323D01*
X002136Y012311D01*
X002427Y012311D01*
X002427Y012699D01*
X001980Y012699D01*
X001980Y012621D02*
X000600Y012621D01*
X000600Y012463D02*
X001981Y012463D01*
X002427Y012463D02*
X002523Y012463D01*
X002523Y012621D02*
X002427Y012621D01*
X002880Y012304D02*
X000600Y012304D01*
X000600Y012146D02*
X002880Y012146D01*
X002880Y011987D02*
X000600Y011987D01*
X000600Y011829D02*
X002880Y011829D01*
X003100Y011891D02*
X008725Y011891D01*
X008725Y012391D01*
X010350Y012391D01*
X010350Y011611D01*
X010693Y012146D02*
X010917Y012146D01*
X010880Y012109D02*
X010880Y011113D01*
X010962Y011031D01*
X011558Y011031D01*
X011640Y011113D01*
X011640Y012109D01*
X011558Y012191D01*
X011480Y012191D01*
X011480Y014436D01*
X011558Y014436D01*
X011640Y014518D01*
X011640Y015264D01*
X011558Y015346D01*
X011480Y015346D01*
X011480Y016482D01*
X011351Y016611D01*
X009000Y016611D01*
X009000Y016730D01*
X008939Y016877D01*
X008827Y016990D01*
X008680Y017051D01*
X008520Y017051D01*
X008373Y016990D01*
X008261Y016877D01*
X008200Y016730D01*
X008200Y016051D01*
X008261Y015904D01*
X008373Y015792D01*
X008520Y015731D01*
X008680Y015731D01*
X008827Y015792D01*
X008939Y015904D01*
X009000Y016051D01*
X009000Y016171D01*
X011040Y016171D01*
X011040Y015346D01*
X010930Y015346D01*
X010872Y015288D01*
X010856Y015316D01*
X010823Y015350D01*
X010782Y015373D01*
X010736Y015386D01*
X010504Y015386D01*
X010504Y014939D01*
X010408Y014939D01*
X010408Y014843D01*
X010020Y014843D01*
X010020Y014552D01*
X010033Y014506D01*
X010056Y014465D01*
X010090Y014432D01*
X010131Y014408D01*
X010177Y014396D01*
X010408Y014396D01*
X010408Y014843D01*
X010504Y014843D01*
X010504Y014396D01*
X010736Y014396D01*
X010782Y014408D01*
X010823Y014432D01*
X010856Y014465D01*
X010872Y014493D01*
X010930Y014436D01*
X011040Y014436D01*
X011040Y012191D01*
X010962Y012191D01*
X010880Y012109D01*
X010880Y011987D02*
X010730Y011987D01*
X010730Y011829D02*
X010880Y011829D01*
X010880Y011670D02*
X010730Y011670D01*
X010730Y011512D02*
X010880Y011512D01*
X010880Y011353D02*
X010730Y011353D01*
X010730Y011195D02*
X010880Y011195D01*
X010957Y011036D02*
X010653Y011036D01*
X011117Y009744D02*
X009583Y009744D01*
X009501Y009662D01*
X009501Y008680D01*
X009583Y008598D01*
X011117Y008598D01*
X011199Y008680D01*
X011199Y009662D01*
X011117Y009744D01*
X011199Y009610D02*
X011731Y009610D01*
X011731Y009768D02*
X000600Y009768D01*
X000600Y009610D02*
X009501Y009610D01*
X009501Y009451D02*
X000600Y009451D01*
X000600Y009293D02*
X009501Y009293D01*
X009501Y009134D02*
X000600Y009134D01*
X000600Y008976D02*
X009501Y008976D01*
X009501Y008817D02*
X000600Y008817D01*
X000600Y008659D02*
X009522Y008659D01*
X009480Y010991D02*
X009704Y010991D01*
X009749Y011003D01*
X009791Y011027D01*
X009824Y011060D01*
X009848Y011101D01*
X009860Y011147D01*
X009860Y011571D01*
X009480Y011571D01*
X009480Y010991D01*
X009480Y011036D02*
X009400Y011036D01*
X009400Y011195D02*
X009480Y011195D01*
X009480Y011353D02*
X009400Y011353D01*
X009400Y011512D02*
X009480Y011512D01*
X009860Y011512D02*
X009970Y011512D01*
X009970Y011670D02*
X009860Y011670D01*
X009860Y011829D02*
X009970Y011829D01*
X009970Y011987D02*
X009860Y011987D01*
X009833Y012146D02*
X010007Y012146D01*
X009970Y011353D02*
X009860Y011353D01*
X009860Y011195D02*
X009970Y011195D01*
X010047Y011036D02*
X009800Y011036D01*
X009080Y011036D02*
X000600Y011036D01*
X000600Y010878D02*
X011731Y010878D01*
X011731Y011036D02*
X011563Y011036D01*
X011640Y011195D02*
X011731Y011195D01*
X011731Y011353D02*
X011640Y011353D01*
X011640Y011512D02*
X011731Y011512D01*
X011731Y011670D02*
X011640Y011670D01*
X011640Y011829D02*
X011731Y011829D01*
X011731Y011987D02*
X011640Y011987D01*
X011603Y012146D02*
X011731Y012146D01*
X011731Y012304D02*
X011480Y012304D01*
X011480Y012463D02*
X011731Y012463D01*
X011731Y012621D02*
X011480Y012621D01*
X011480Y012780D02*
X011731Y012780D01*
X011731Y012938D02*
X011480Y012938D01*
X011480Y013097D02*
X011731Y013097D01*
X011731Y013255D02*
X011480Y013255D01*
X011480Y013414D02*
X011731Y013414D01*
X011731Y013572D02*
X011480Y013572D01*
X011480Y013731D02*
X011731Y013731D01*
X011731Y013889D02*
X011480Y013889D01*
X011480Y014048D02*
X011731Y014048D01*
X011731Y014206D02*
X011480Y014206D01*
X011480Y014365D02*
X011731Y014365D01*
X011731Y014523D02*
X011640Y014523D01*
X011640Y014682D02*
X011731Y014682D01*
X011731Y014840D02*
X011640Y014840D01*
X011640Y014999D02*
X011731Y014999D01*
X011731Y015157D02*
X011640Y015157D01*
X011588Y015316D02*
X011731Y015316D01*
X011731Y015474D02*
X011480Y015474D01*
X011480Y015633D02*
X011731Y015633D01*
X011731Y015791D02*
X011480Y015791D01*
X011480Y015950D02*
X011731Y015950D01*
X011731Y016108D02*
X011480Y016108D01*
X011480Y016267D02*
X011731Y016267D01*
X011731Y016425D02*
X011480Y016425D01*
X011378Y016584D02*
X011731Y016584D01*
X011731Y016742D02*
X008995Y016742D01*
X008916Y016901D02*
X011731Y016901D01*
X011731Y017053D02*
X011731Y007641D01*
X000600Y007641D01*
X000600Y017053D01*
X003421Y017053D01*
X003369Y017027D01*
X003313Y016986D01*
X003264Y016937D01*
X003224Y016881D01*
X003192Y016820D01*
X003171Y016754D01*
X003160Y016685D01*
X003160Y016391D01*
X003600Y016391D01*
X003600Y016391D01*
X004040Y016391D01*
X004040Y016685D01*
X004029Y016754D01*
X004008Y016820D01*
X003976Y016881D01*
X003936Y016937D01*
X003887Y016986D01*
X003831Y017027D01*
X003779Y017053D01*
X011731Y017053D01*
X011731Y017483D02*
X000600Y017483D01*
X000600Y026896D01*
X003421Y026896D01*
X003369Y026870D01*
X003313Y026829D01*
X003264Y026780D01*
X003224Y026724D01*
X003192Y026662D01*
X003171Y026596D01*
X003160Y026528D01*
X003160Y026233D01*
X003160Y025939D01*
X003171Y025870D01*
X003192Y025804D01*
X003224Y025743D01*
X003264Y025687D01*
X003313Y025638D01*
X003369Y025597D01*
X003431Y025566D01*
X003497Y025544D01*
X003565Y025533D01*
X003600Y025533D01*
X003635Y025533D01*
X003703Y025544D01*
X003769Y025566D01*
X003831Y025597D01*
X003887Y025638D01*
X003936Y025687D01*
X003976Y025743D01*
X004008Y025804D01*
X004029Y025870D01*
X004040Y025939D01*
X004040Y026233D01*
X003600Y026233D01*
X003600Y025533D01*
X003600Y026233D01*
X003600Y026233D01*
X003160Y026233D01*
X003600Y026233D01*
X003600Y026233D01*
X003600Y026233D01*
X004040Y026233D01*
X004040Y026528D01*
X004029Y026596D01*
X004008Y026662D01*
X003976Y026724D01*
X003936Y026780D01*
X003887Y026829D01*
X003831Y026870D01*
X003779Y026896D01*
X011731Y026896D01*
X011731Y017483D01*
X011731Y017535D02*
X000600Y017535D01*
X000600Y017693D02*
X011731Y017693D01*
X011731Y017852D02*
X000600Y017852D01*
X000600Y018010D02*
X011731Y018010D01*
X011731Y018169D02*
X000600Y018169D01*
X000600Y018327D02*
X011731Y018327D01*
X011731Y018486D02*
X011162Y018486D01*
X011199Y018522D02*
X011117Y018440D01*
X009583Y018440D01*
X009501Y018522D01*
X009501Y019504D01*
X009583Y019586D01*
X011117Y019586D01*
X011199Y019504D01*
X011199Y018522D01*
X011199Y018644D02*
X011731Y018644D01*
X011731Y018803D02*
X011199Y018803D01*
X011199Y018961D02*
X011731Y018961D01*
X011731Y019120D02*
X011199Y019120D01*
X011199Y019278D02*
X011731Y019278D01*
X011731Y019437D02*
X011199Y019437D01*
X011731Y019595D02*
X000600Y019595D01*
X000600Y019437D02*
X009501Y019437D01*
X009501Y019278D02*
X000600Y019278D01*
X000600Y019120D02*
X009501Y019120D01*
X009501Y018961D02*
X000600Y018961D01*
X000600Y018803D02*
X009501Y018803D01*
X009501Y018644D02*
X000600Y018644D01*
X000600Y018486D02*
X009538Y018486D01*
X008600Y016391D02*
X011260Y016391D01*
X011260Y015016D01*
X011260Y014891D01*
X011244Y014891D01*
X011260Y014891D02*
X011260Y011611D01*
X011040Y012304D02*
X010570Y012304D01*
X010570Y012463D02*
X011040Y012463D01*
X011040Y012621D02*
X007358Y012621D01*
X007358Y012463D02*
X008505Y012463D01*
X008505Y012304D02*
X007286Y012304D01*
X007358Y012780D02*
X011040Y012780D01*
X011040Y012938D02*
X007358Y012938D01*
X007358Y013097D02*
X009527Y013097D01*
X009571Y013053D02*
X009746Y012980D01*
X009935Y012980D01*
X010109Y013053D01*
X010243Y013186D01*
X010315Y013361D01*
X010315Y013550D01*
X010243Y013725D01*
X010109Y013859D01*
X009935Y013931D01*
X009746Y013931D01*
X009571Y013859D01*
X009437Y013725D01*
X009365Y013550D01*
X009365Y013361D01*
X009437Y013186D01*
X009571Y013053D01*
X009409Y013255D02*
X009039Y013255D01*
X009152Y013414D02*
X009365Y013414D01*
X009374Y013572D02*
X009168Y013572D01*
X009085Y013731D02*
X009443Y013731D01*
X009645Y013889D02*
X008142Y013889D01*
X008168Y014048D02*
X011040Y014048D01*
X011040Y014206D02*
X008109Y014206D01*
X007849Y014347D02*
X007849Y014347D01*
X007849Y014347D01*
X007823Y014110D02*
X007850Y014016D01*
X007823Y013921D01*
X007496Y014016D01*
X007823Y014110D01*
X007850Y014016D02*
X007496Y014016D01*
X006100Y014016D01*
X006100Y014914D01*
X005911Y015474D02*
X005820Y015474D01*
X005820Y015633D02*
X006380Y015633D01*
X006374Y015791D02*
X005826Y015791D01*
X005958Y015950D02*
X006242Y015950D01*
X006200Y016108D02*
X006000Y016108D01*
X006000Y016267D02*
X006200Y016267D01*
X006200Y016425D02*
X006000Y016425D01*
X006000Y016584D02*
X006200Y016584D01*
X006205Y016742D02*
X005995Y016742D01*
X005916Y016901D02*
X006284Y016901D01*
X006600Y016391D02*
X006600Y014914D01*
X006800Y014365D02*
X006844Y014365D01*
X007100Y014365D02*
X007100Y014365D01*
X007100Y014523D02*
X007100Y014523D01*
X007100Y014682D02*
X007100Y014682D01*
X007100Y014840D02*
X007100Y014840D01*
X007100Y014914D02*
X007100Y015527D01*
X007100Y014914D01*
X007100Y014914D01*
X007100Y014999D02*
X007100Y014999D01*
X007100Y015157D02*
X007100Y015157D01*
X007100Y015316D02*
X007100Y015316D01*
X007100Y015474D02*
X007100Y015474D01*
X007346Y015474D02*
X011040Y015474D01*
X011040Y015633D02*
X006820Y015633D01*
X006826Y015791D02*
X007374Y015791D01*
X007373Y015792D02*
X007520Y015731D01*
X007680Y015731D01*
X007827Y015792D01*
X007939Y015904D01*
X008000Y016051D01*
X008000Y016730D01*
X007939Y016877D01*
X007827Y016990D01*
X007680Y017051D01*
X007520Y017051D01*
X007373Y016990D01*
X007261Y016877D01*
X007200Y016730D01*
X007200Y016051D01*
X007261Y015904D01*
X007373Y015792D01*
X007242Y015950D02*
X006958Y015950D01*
X007000Y016108D02*
X007200Y016108D01*
X007200Y016267D02*
X007000Y016267D01*
X007000Y016425D02*
X007200Y016425D01*
X007200Y016584D02*
X007000Y016584D01*
X006995Y016742D02*
X007205Y016742D01*
X007284Y016901D02*
X006916Y016901D01*
X006854Y015474D02*
X006820Y015474D01*
X006380Y015474D02*
X006289Y015474D01*
X006320Y014365D02*
X006400Y014365D01*
X005600Y014914D02*
X005600Y016391D01*
X005374Y015791D02*
X004826Y015791D01*
X004820Y015633D02*
X005380Y015633D01*
X005380Y015474D02*
X005289Y015474D01*
X005242Y015950D02*
X004958Y015950D01*
X005000Y016108D02*
X005200Y016108D01*
X005200Y016267D02*
X005000Y016267D01*
X005000Y016425D02*
X005200Y016425D01*
X005200Y016584D02*
X005000Y016584D01*
X004995Y016742D02*
X005205Y016742D01*
X005284Y016901D02*
X004916Y016901D01*
X004600Y016391D02*
X004600Y014914D01*
X004820Y015474D02*
X004911Y015474D01*
X004380Y015474D02*
X004289Y015474D01*
X004380Y015633D02*
X002558Y015633D01*
X002660Y015474D02*
X003411Y015474D01*
X003342Y015316D02*
X002663Y015316D01*
X002614Y015157D02*
X003342Y015157D01*
X003342Y014999D02*
X002581Y014999D01*
X002570Y014840D02*
X003342Y014840D01*
X003342Y014682D02*
X002570Y014682D01*
X002570Y014523D02*
X003342Y014523D01*
X003380Y014365D02*
X002570Y014365D01*
X002570Y014206D02*
X003380Y014206D01*
X003378Y014048D02*
X002570Y014048D01*
X002475Y013641D02*
X002475Y013534D01*
X002475Y013641D02*
X002350Y013641D01*
X002350Y015036D01*
X002256Y015364D01*
X002350Y015391D01*
X002444Y015364D01*
X002350Y015036D01*
X002350Y015391D01*
X002142Y015633D02*
X000600Y015633D01*
X000600Y015791D02*
X003319Y015791D01*
X003313Y015795D02*
X003369Y015754D01*
X003431Y015723D01*
X003497Y015702D01*
X003565Y015691D01*
X003600Y015691D01*
X003600Y016391D01*
X003600Y016391D01*
X003160Y016391D01*
X003160Y016096D01*
X003171Y016028D01*
X003192Y015962D01*
X003224Y015900D01*
X003264Y015844D01*
X003313Y015795D01*
X003198Y015950D02*
X000600Y015950D01*
X000600Y016108D02*
X003160Y016108D01*
X003160Y016267D02*
X000600Y016267D01*
X000600Y016425D02*
X003160Y016425D01*
X003160Y016584D02*
X000600Y016584D01*
X000600Y016742D02*
X003169Y016742D01*
X003238Y016901D02*
X000600Y016901D01*
X000600Y015474D02*
X002040Y015474D01*
X002019Y015390D02*
X002019Y015390D01*
X002019Y015390D01*
X002037Y015316D02*
X000600Y015316D01*
X000600Y015157D02*
X002086Y015157D01*
X002119Y014999D02*
X000600Y014999D01*
X000600Y014840D02*
X002130Y014840D01*
X002130Y014682D02*
X000600Y014682D01*
X000600Y014523D02*
X002130Y014523D01*
X002130Y014365D02*
X000600Y014365D01*
X000600Y014206D02*
X002130Y014206D01*
X002130Y014048D02*
X000600Y014048D01*
X000600Y011670D02*
X009020Y011670D01*
X009020Y011512D02*
X000600Y011512D01*
X000600Y011353D02*
X009020Y011353D01*
X009020Y011195D02*
X000600Y011195D01*
X000600Y010719D02*
X011731Y010719D01*
X011731Y010561D02*
X000600Y010561D01*
X000600Y010402D02*
X011731Y010402D01*
X011731Y010244D02*
X000600Y010244D01*
X000600Y010085D02*
X011731Y010085D01*
X011731Y009927D02*
X000600Y009927D01*
X000600Y008500D02*
X011731Y008500D01*
X011731Y008342D02*
X000600Y008342D01*
X000600Y008183D02*
X011731Y008183D01*
X011731Y008025D02*
X000600Y008025D01*
X000600Y007866D02*
X011731Y007866D01*
X011731Y007708D02*
X000600Y007708D01*
X003100Y011891D02*
X003100Y013641D01*
X002475Y013641D01*
X002889Y013889D02*
X003314Y013889D01*
X003246Y013641D02*
X003573Y013735D01*
X003600Y013641D01*
X003573Y013546D01*
X003246Y013641D01*
X003100Y013641D01*
X003246Y013641D02*
X003600Y013641D01*
X003694Y013668D01*
X003600Y013995D01*
X003506Y013668D01*
X003600Y013641D01*
X003600Y013995D01*
X003600Y014914D01*
X003789Y015474D02*
X003911Y015474D01*
X003769Y015723D02*
X003831Y015754D01*
X003887Y015795D01*
X003936Y015844D01*
X003976Y015900D01*
X004008Y015962D01*
X004029Y016028D01*
X004040Y016096D01*
X004040Y016391D01*
X003600Y016391D01*
X003600Y015691D01*
X003635Y015691D01*
X003703Y015702D01*
X003769Y015723D01*
X003881Y015791D02*
X004374Y015791D01*
X004242Y015950D02*
X004002Y015950D01*
X004040Y016108D02*
X004200Y016108D01*
X004200Y016267D02*
X004040Y016267D01*
X004040Y016425D02*
X004200Y016425D01*
X004200Y016584D02*
X004040Y016584D01*
X004031Y016742D02*
X004205Y016742D01*
X004284Y016901D02*
X003962Y016901D01*
X003600Y016391D02*
X003600Y016391D01*
X003600Y016267D02*
X003600Y016267D01*
X003600Y016108D02*
X003600Y016108D01*
X003600Y015950D02*
X003600Y015950D01*
X003600Y015791D02*
X003600Y015791D01*
X004100Y014914D02*
X004100Y013516D01*
X008496Y013516D01*
X008823Y013610D01*
X008850Y013516D01*
X008823Y013421D01*
X008496Y013516D01*
X008850Y013516D01*
X008849Y013847D02*
X008849Y013847D01*
X008849Y013847D01*
X008605Y013255D02*
X007358Y013255D01*
X006914Y012304D02*
X006786Y012304D01*
X006414Y012304D02*
X006286Y012304D01*
X005914Y012304D02*
X005786Y012304D01*
X005414Y012304D02*
X005286Y012304D01*
X004914Y012304D02*
X004786Y012304D01*
X004414Y012304D02*
X004286Y012304D01*
X003914Y012304D02*
X003786Y012304D01*
X003414Y012304D02*
X003320Y012304D01*
X003320Y012146D02*
X008505Y012146D01*
X008945Y012146D02*
X009047Y012146D01*
X009020Y011987D02*
X008945Y011987D01*
X008945Y011829D02*
X009020Y011829D01*
X010035Y013889D02*
X011040Y013889D01*
X011040Y013731D02*
X010237Y013731D01*
X010306Y013572D02*
X011040Y013572D01*
X011040Y013414D02*
X010315Y013414D01*
X010272Y013255D02*
X011040Y013255D01*
X011040Y013097D02*
X010153Y013097D01*
X010028Y014523D02*
X007398Y014523D01*
X007398Y014682D02*
X010020Y014682D01*
X010020Y014840D02*
X007398Y014840D01*
X007398Y014999D02*
X010020Y014999D01*
X010020Y014939D02*
X010408Y014939D01*
X010408Y015386D01*
X010177Y015386D01*
X010131Y015373D01*
X010090Y015350D01*
X010056Y015316D01*
X007398Y015316D01*
X007398Y015157D02*
X010020Y015157D01*
X010020Y015229D02*
X010020Y014939D01*
X010020Y015229D02*
X010033Y015275D01*
X010056Y015316D01*
X010408Y015316D02*
X010504Y015316D01*
X010504Y015157D02*
X010408Y015157D01*
X010408Y014999D02*
X010504Y014999D01*
X010504Y014840D02*
X010408Y014840D01*
X010408Y014682D02*
X010504Y014682D01*
X010504Y014523D02*
X010408Y014523D01*
X010857Y015316D02*
X010900Y015316D01*
X011040Y015791D02*
X008826Y015791D01*
X008958Y015950D02*
X011040Y015950D01*
X011040Y016108D02*
X009000Y016108D01*
X008374Y015791D02*
X007826Y015791D01*
X007958Y015950D02*
X008242Y015950D01*
X008200Y016108D02*
X008000Y016108D01*
X008000Y016267D02*
X008200Y016267D01*
X008200Y016425D02*
X008000Y016425D01*
X008000Y016584D02*
X008200Y016584D01*
X008205Y016742D02*
X007995Y016742D01*
X007916Y016901D02*
X008284Y016901D01*
X007356Y014365D02*
X011040Y014365D01*
X011199Y009451D02*
X011731Y009451D01*
X011731Y009293D02*
X011199Y009293D01*
X011199Y009134D02*
X011731Y009134D01*
X011731Y008976D02*
X011199Y008976D01*
X011199Y008817D02*
X011731Y008817D01*
X011731Y008659D02*
X011178Y008659D01*
X011731Y019754D02*
X000600Y019754D01*
X000600Y019912D02*
X011731Y019912D01*
X011731Y020071D02*
X000600Y020071D01*
X000600Y020229D02*
X011731Y020229D01*
X011731Y020388D02*
X000600Y020388D01*
X000600Y020546D02*
X011731Y020546D01*
X011731Y020705D02*
X000600Y020705D01*
X000600Y020863D02*
X009100Y020863D01*
X009089Y020869D02*
X009131Y020846D01*
X009176Y020833D01*
X009400Y020833D01*
X009400Y021413D01*
X009480Y021413D01*
X009480Y020833D01*
X009704Y020833D01*
X009749Y020846D01*
X009791Y020869D01*
X009824Y020903D01*
X009848Y020944D01*
X009860Y020990D01*
X009860Y021413D01*
X009480Y021413D01*
X009480Y021493D01*
X009860Y021493D01*
X009860Y021917D01*
X009848Y021963D01*
X009824Y022004D01*
X009815Y022013D01*
X010032Y022013D01*
X009970Y021951D01*
X009970Y020955D01*
X010052Y020873D01*
X010648Y020873D01*
X010730Y020955D01*
X010730Y021951D01*
X010648Y022033D01*
X010570Y022033D01*
X010570Y022324D01*
X010441Y022453D01*
X008634Y022453D01*
X008505Y022324D01*
X008505Y021953D01*
X003320Y021953D01*
X003320Y023233D01*
X003362Y023221D01*
X003342Y023201D01*
X003342Y022219D01*
X003424Y022137D01*
X003776Y022137D01*
X003850Y022210D01*
X003924Y022137D01*
X004276Y022137D01*
X004350Y022210D01*
X004424Y022137D01*
X004776Y022137D01*
X004850Y022210D01*
X004924Y022137D01*
X005276Y022137D01*
X005350Y022210D01*
X005424Y022137D01*
X005776Y022137D01*
X005850Y022210D01*
X005924Y022137D01*
X006276Y022137D01*
X006350Y022210D01*
X006424Y022137D01*
X006776Y022137D01*
X006850Y022210D01*
X006924Y022137D01*
X007276Y022137D01*
X007358Y022219D01*
X007358Y023138D01*
X008439Y023138D01*
X008469Y023122D01*
X008496Y023129D01*
X008740Y023059D01*
X008745Y023058D01*
X008787Y023040D01*
X008805Y023040D01*
X008849Y023027D01*
X008849Y023027D01*
X008873Y023040D01*
X008913Y023040D01*
X009030Y023089D01*
X009120Y023178D01*
X009168Y023295D01*
X009168Y023422D01*
X009120Y023538D01*
X009030Y023628D01*
X008913Y023676D01*
X008873Y023676D01*
X008849Y023689D01*
X008805Y023676D01*
X008787Y023676D01*
X008745Y023659D01*
X008730Y023655D01*
X008496Y023587D01*
X008469Y023595D01*
X008439Y023578D01*
X008005Y023578D01*
X008030Y023589D01*
X008120Y023678D01*
X008168Y023795D01*
X008168Y023922D01*
X008120Y024038D01*
X008030Y024128D01*
X007913Y024176D01*
X007873Y024176D01*
X007849Y024189D01*
X007805Y024176D01*
X007787Y024176D01*
X007745Y024159D01*
X007730Y024155D01*
X007496Y024087D01*
X007469Y024095D01*
X007439Y024078D01*
X006320Y024078D01*
X006320Y024228D01*
X006350Y024258D01*
X006424Y024184D01*
X006776Y024184D01*
X006826Y024234D01*
X006838Y024213D01*
X006871Y024180D01*
X006912Y024156D01*
X006958Y024144D01*
X007100Y024144D01*
X007242Y024144D01*
X007288Y024156D01*
X007329Y024180D01*
X007362Y024213D01*
X007386Y024254D01*
X007398Y024300D01*
X007398Y024757D01*
X007398Y025214D01*
X007386Y025259D01*
X007362Y025300D01*
X007329Y025334D01*
X007288Y025358D01*
X007242Y025370D01*
X007100Y025370D01*
X006958Y025370D01*
X006912Y025358D01*
X006871Y025334D01*
X006838Y025300D01*
X006826Y025280D01*
X006820Y025286D01*
X006820Y025631D01*
X006827Y025634D01*
X006939Y025747D01*
X007000Y025894D01*
X007000Y026573D01*
X006939Y026720D01*
X006827Y026832D01*
X006680Y026893D01*
X006520Y026893D01*
X006373Y026832D01*
X006261Y026720D01*
X006200Y026573D01*
X006200Y025894D01*
X006261Y025747D01*
X006373Y025634D01*
X006380Y025631D01*
X006380Y025286D01*
X006350Y025256D01*
X006276Y025330D01*
X005924Y025330D01*
X005850Y025256D01*
X005820Y025286D01*
X005820Y025631D01*
X005827Y025634D01*
X005939Y025747D01*
X006000Y025894D01*
X006000Y026573D01*
X005939Y026720D01*
X005827Y026832D01*
X005680Y026893D01*
X005520Y026893D01*
X005373Y026832D01*
X005261Y026720D01*
X005200Y026573D01*
X005200Y025894D01*
X005261Y025747D01*
X005373Y025634D01*
X005380Y025631D01*
X005380Y025286D01*
X005350Y025256D01*
X005276Y025330D01*
X004924Y025330D01*
X004850Y025256D01*
X004820Y025286D01*
X004820Y025631D01*
X004827Y025634D01*
X004939Y025747D01*
X005000Y025894D01*
X005000Y026573D01*
X004939Y026720D01*
X004827Y026832D01*
X004680Y026893D01*
X004520Y026893D01*
X004373Y026832D01*
X004261Y026720D01*
X004200Y026573D01*
X004200Y025894D01*
X004261Y025747D01*
X004373Y025634D01*
X004380Y025631D01*
X004380Y025286D01*
X004350Y025256D01*
X004276Y025330D01*
X003924Y025330D01*
X003850Y025256D01*
X003776Y025330D01*
X003424Y025330D01*
X003342Y025248D01*
X003342Y024266D01*
X003380Y024228D01*
X003380Y023894D01*
X003363Y023864D01*
X003371Y023838D01*
X003343Y023740D01*
X003246Y023712D01*
X003219Y023720D01*
X003189Y023703D01*
X002918Y023703D01*
X002848Y023773D01*
X002570Y023773D01*
X002570Y024822D01*
X002587Y024852D01*
X002579Y024879D01*
X002646Y025113D01*
X002651Y025128D01*
X002668Y025170D01*
X002668Y025188D01*
X002681Y025233D01*
X002668Y025256D01*
X002668Y025297D01*
X002620Y025413D01*
X002530Y025503D01*
X002413Y025551D01*
X002287Y025551D01*
X002170Y025503D01*
X002080Y025413D01*
X002032Y025297D01*
X002032Y025256D01*
X002019Y025233D01*
X002019Y025233D01*
X002019Y025233D01*
X002032Y025188D01*
X002032Y025170D01*
X002049Y025128D01*
X002051Y025123D01*
X002121Y024879D01*
X002113Y024852D01*
X002130Y024822D01*
X002130Y023773D01*
X002102Y023773D01*
X002020Y023691D01*
X002020Y023063D01*
X002077Y023006D01*
X002050Y022990D01*
X002016Y022956D01*
X001992Y022915D01*
X001980Y022869D01*
X001980Y022638D01*
X002427Y022638D01*
X002427Y022542D01*
X001980Y022542D01*
X001980Y022310D01*
X001992Y022264D01*
X002016Y022223D01*
X002050Y022190D01*
X002091Y022166D01*
X002136Y022154D01*
X002427Y022154D01*
X002427Y022542D01*
X002523Y022542D01*
X002523Y022154D01*
X002814Y022154D01*
X002859Y022166D01*
X002880Y022178D01*
X002880Y021642D01*
X003009Y021513D01*
X008816Y021513D01*
X008945Y021642D01*
X008945Y022013D01*
X009065Y022013D01*
X009056Y022004D01*
X009032Y021963D01*
X009020Y021917D01*
X009020Y021493D01*
X009400Y021493D01*
X009400Y021413D01*
X009020Y021413D01*
X009020Y020990D01*
X009032Y020944D01*
X009056Y020903D01*
X009089Y020869D01*
X009020Y021022D02*
X000600Y021022D01*
X000600Y021180D02*
X009020Y021180D01*
X009020Y021339D02*
X000600Y021339D01*
X000600Y021497D02*
X009020Y021497D01*
X009020Y021656D02*
X008945Y021656D01*
X008945Y021814D02*
X009020Y021814D01*
X009038Y021973D02*
X008945Y021973D01*
X008725Y021733D02*
X008725Y022233D01*
X010350Y022233D01*
X010350Y021453D01*
X010730Y021497D02*
X010880Y021497D01*
X010880Y021339D02*
X010730Y021339D01*
X010730Y021180D02*
X010880Y021180D01*
X010880Y021022D02*
X010730Y021022D01*
X010880Y020955D02*
X010962Y020873D01*
X011558Y020873D01*
X011640Y020955D01*
X011640Y021951D01*
X011558Y022033D01*
X011480Y022033D01*
X011480Y024278D01*
X011558Y024278D01*
X011640Y024360D01*
X011640Y025106D01*
X011558Y025188D01*
X011480Y025188D01*
X011480Y026324D01*
X011351Y026453D01*
X009000Y026453D01*
X009000Y026573D01*
X008939Y026720D01*
X008827Y026832D01*
X008680Y026893D01*
X008520Y026893D01*
X008373Y026832D01*
X008261Y026720D01*
X008200Y026573D01*
X008200Y025894D01*
X008261Y025747D01*
X008373Y025634D01*
X008520Y025573D01*
X008680Y025573D01*
X008827Y025634D01*
X008939Y025747D01*
X009000Y025894D01*
X009000Y026013D01*
X011040Y026013D01*
X011040Y025188D01*
X010930Y025188D01*
X010872Y025131D01*
X010856Y025159D01*
X010823Y025192D01*
X010782Y025216D01*
X010736Y025228D01*
X010504Y025228D01*
X010504Y024781D01*
X010408Y024781D01*
X010408Y024685D01*
X010504Y024685D01*
X010504Y024238D01*
X010736Y024238D01*
X010782Y024251D01*
X010823Y024274D01*
X010856Y024308D01*
X010872Y024336D01*
X010930Y024278D01*
X011040Y024278D01*
X011040Y022033D01*
X010962Y022033D01*
X010880Y021951D01*
X010880Y020955D01*
X011260Y021453D02*
X011260Y024733D01*
X011260Y024858D01*
X011260Y026233D01*
X008600Y026233D01*
X008788Y025618D02*
X011040Y025618D01*
X011040Y025460D02*
X006820Y025460D01*
X006820Y025618D02*
X007412Y025618D01*
X007373Y025634D02*
X007520Y025573D01*
X007680Y025573D01*
X007827Y025634D01*
X007939Y025747D01*
X008000Y025894D01*
X008000Y026573D01*
X007939Y026720D01*
X007827Y026832D01*
X007680Y026893D01*
X007520Y026893D01*
X007373Y026832D01*
X007261Y026720D01*
X007200Y026573D01*
X007200Y025894D01*
X007261Y025747D01*
X007373Y025634D01*
X007248Y025777D02*
X006952Y025777D01*
X007000Y025935D02*
X007200Y025935D01*
X007200Y026094D02*
X007000Y026094D01*
X007000Y026252D02*
X007200Y026252D01*
X007200Y026411D02*
X007000Y026411D01*
X007000Y026569D02*
X007200Y026569D01*
X007269Y026728D02*
X006931Y026728D01*
X006696Y026886D02*
X007504Y026886D01*
X007696Y026886D02*
X008504Y026886D01*
X008696Y026886D02*
X011731Y026886D01*
X011731Y026728D02*
X008931Y026728D01*
X009000Y026569D02*
X011731Y026569D01*
X011731Y026411D02*
X011394Y026411D01*
X011480Y026252D02*
X011731Y026252D01*
X011731Y026094D02*
X011480Y026094D01*
X011480Y025935D02*
X011731Y025935D01*
X011731Y025777D02*
X011480Y025777D01*
X011480Y025618D02*
X011731Y025618D01*
X011731Y025460D02*
X011480Y025460D01*
X011480Y025301D02*
X011731Y025301D01*
X011731Y025143D02*
X011603Y025143D01*
X011640Y024984D02*
X011731Y024984D01*
X011731Y024826D02*
X011640Y024826D01*
X011640Y024667D02*
X011731Y024667D01*
X011731Y024509D02*
X011640Y024509D01*
X011630Y024350D02*
X011731Y024350D01*
X011731Y024192D02*
X011480Y024192D01*
X011480Y024033D02*
X011731Y024033D01*
X011731Y023875D02*
X011480Y023875D01*
X011480Y023716D02*
X011731Y023716D01*
X011731Y023558D02*
X011480Y023558D01*
X011480Y023399D02*
X011731Y023399D01*
X011731Y023241D02*
X011480Y023241D01*
X011480Y023082D02*
X011731Y023082D01*
X011731Y022924D02*
X011480Y022924D01*
X011480Y022765D02*
X011731Y022765D01*
X011731Y022607D02*
X011480Y022607D01*
X011480Y022448D02*
X011731Y022448D01*
X011731Y022290D02*
X011480Y022290D01*
X011480Y022131D02*
X011731Y022131D01*
X011731Y021973D02*
X011618Y021973D01*
X011640Y021814D02*
X011731Y021814D01*
X011731Y021656D02*
X011640Y021656D01*
X011640Y021497D02*
X011731Y021497D01*
X011731Y021339D02*
X011640Y021339D01*
X011640Y021180D02*
X011731Y021180D01*
X011731Y021022D02*
X011640Y021022D01*
X011731Y020863D02*
X009780Y020863D01*
X009860Y021022D02*
X009970Y021022D01*
X009970Y021180D02*
X009860Y021180D01*
X009860Y021339D02*
X009970Y021339D01*
X009970Y021497D02*
X009860Y021497D01*
X009860Y021656D02*
X009970Y021656D01*
X009970Y021814D02*
X009860Y021814D01*
X009842Y021973D02*
X009992Y021973D01*
X010446Y022448D02*
X011040Y022448D01*
X011040Y022290D02*
X010570Y022290D01*
X010570Y022131D02*
X011040Y022131D01*
X010902Y021973D02*
X010708Y021973D01*
X010730Y021814D02*
X010880Y021814D01*
X010880Y021656D02*
X010730Y021656D01*
X011040Y022607D02*
X007358Y022607D01*
X007358Y022765D02*
X011040Y022765D01*
X011040Y022924D02*
X010138Y022924D01*
X010109Y022895D02*
X010243Y023029D01*
X010315Y023204D01*
X010315Y023393D01*
X010243Y023567D01*
X010109Y023701D01*
X009935Y023774D01*
X009746Y023774D01*
X009571Y023701D01*
X009437Y023567D01*
X009365Y023393D01*
X009365Y023204D01*
X009437Y023029D01*
X009571Y022895D01*
X009746Y022823D01*
X009935Y022823D01*
X010109Y022895D01*
X010265Y023082D02*
X011040Y023082D01*
X011040Y023241D02*
X010315Y023241D01*
X010313Y023399D02*
X011040Y023399D01*
X011040Y023558D02*
X010247Y023558D01*
X010073Y023716D02*
X011040Y023716D01*
X011040Y023875D02*
X008168Y023875D01*
X008136Y023716D02*
X009607Y023716D01*
X009433Y023558D02*
X009100Y023558D01*
X009168Y023399D02*
X009368Y023399D01*
X009365Y023241D02*
X009146Y023241D01*
X009015Y023082D02*
X009415Y023082D01*
X009542Y022924D02*
X007358Y022924D01*
X007358Y023082D02*
X008659Y023082D01*
X008823Y023264D02*
X008496Y023358D01*
X008823Y023453D01*
X008850Y023358D01*
X008823Y023264D01*
X008850Y023358D02*
X008496Y023358D01*
X004100Y023358D01*
X004100Y024757D01*
X003895Y025301D02*
X003805Y025301D01*
X003860Y025618D02*
X004380Y025618D01*
X004380Y025460D02*
X002573Y025460D01*
X002666Y025301D02*
X003395Y025301D01*
X003342Y025143D02*
X002657Y025143D01*
X002681Y025233D02*
X002681Y025233D01*
X002681Y025233D01*
X002609Y024984D02*
X003342Y024984D01*
X003342Y024826D02*
X002572Y024826D01*
X002570Y024667D02*
X003342Y024667D01*
X003342Y024509D02*
X002570Y024509D01*
X002570Y024350D02*
X003342Y024350D01*
X003380Y024192D02*
X002570Y024192D01*
X002570Y024033D02*
X003380Y024033D01*
X003369Y023875D02*
X002570Y023875D01*
X002475Y023483D02*
X002350Y023483D01*
X002350Y024879D01*
X002256Y025206D01*
X002350Y025233D01*
X002444Y025206D01*
X002350Y024879D01*
X002350Y025233D01*
X002127Y025460D02*
X000600Y025460D01*
X000600Y025618D02*
X003340Y025618D01*
X003206Y025777D02*
X000600Y025777D01*
X000600Y025935D02*
X003161Y025935D01*
X003160Y026094D02*
X000600Y026094D01*
X000600Y026252D02*
X003160Y026252D01*
X003160Y026411D02*
X000600Y026411D01*
X000600Y026569D02*
X003167Y026569D01*
X003227Y026728D02*
X000600Y026728D01*
X000600Y026886D02*
X003402Y026886D01*
X003798Y026886D02*
X004504Y026886D01*
X004696Y026886D02*
X005504Y026886D01*
X005696Y026886D02*
X006504Y026886D01*
X006269Y026728D02*
X005931Y026728D01*
X006000Y026569D02*
X006200Y026569D01*
X006200Y026411D02*
X006000Y026411D01*
X006000Y026252D02*
X006200Y026252D01*
X006200Y026094D02*
X006000Y026094D01*
X006000Y025935D02*
X006200Y025935D01*
X006248Y025777D02*
X005952Y025777D01*
X005820Y025618D02*
X006380Y025618D01*
X006380Y025460D02*
X005820Y025460D01*
X005820Y025301D02*
X005895Y025301D01*
X006100Y024757D02*
X006100Y023858D01*
X007496Y023858D01*
X007823Y023953D01*
X007850Y023858D01*
X007823Y023764D01*
X007496Y023858D01*
X007850Y023858D01*
X007849Y024189D02*
X007849Y024189D01*
X007849Y024189D01*
X008122Y024033D02*
X011040Y024033D01*
X011040Y024192D02*
X007341Y024192D01*
X007398Y024350D02*
X010032Y024350D01*
X010033Y024349D02*
X010056Y024308D01*
X010090Y024274D01*
X010131Y024251D01*
X010177Y024238D01*
X010408Y024238D01*
X010408Y024685D01*
X010020Y024685D01*
X010020Y024395D01*
X010033Y024349D01*
X010020Y024509D02*
X007398Y024509D01*
X007398Y024667D02*
X010020Y024667D01*
X010020Y024781D02*
X010408Y024781D01*
X010408Y025228D01*
X010177Y025228D01*
X010131Y025216D01*
X010090Y025192D01*
X010056Y025159D01*
X010033Y025118D01*
X010020Y025072D01*
X010020Y024781D01*
X010020Y024826D02*
X007398Y024826D01*
X007398Y024757D02*
X007100Y024757D01*
X007100Y025370D01*
X007100Y024757D01*
X007100Y024757D01*
X007100Y024757D01*
X007398Y024757D01*
X007398Y024984D02*
X010020Y024984D01*
X010047Y025143D02*
X007398Y025143D01*
X007361Y025301D02*
X011040Y025301D01*
X010884Y025143D02*
X010865Y025143D01*
X010504Y025143D02*
X010408Y025143D01*
X010408Y024984D02*
X010504Y024984D01*
X010504Y024826D02*
X010408Y024826D01*
X010408Y024667D02*
X010504Y024667D01*
X010504Y024509D02*
X010408Y024509D01*
X010408Y024350D02*
X010504Y024350D01*
X011040Y025777D02*
X008952Y025777D01*
X009000Y025935D02*
X011040Y025935D01*
X011244Y024733D02*
X011260Y024733D01*
X009480Y021339D02*
X009400Y021339D01*
X009400Y021180D02*
X009480Y021180D01*
X009480Y021022D02*
X009400Y021022D01*
X009400Y020863D02*
X009480Y020863D01*
X008725Y021733D02*
X003100Y021733D01*
X003100Y023483D01*
X002475Y023483D01*
X002475Y023377D01*
X002045Y023716D02*
X000600Y023716D01*
X000600Y023558D02*
X001299Y023558D01*
X001253Y023512D02*
X001196Y023373D01*
X001196Y023223D01*
X001253Y023085D01*
X001359Y022979D01*
X001497Y022921D01*
X001647Y022921D01*
X001786Y022979D01*
X001892Y023085D01*
X001949Y023223D01*
X001949Y023373D01*
X001892Y023512D01*
X001786Y023618D01*
X001647Y023675D01*
X001497Y023675D01*
X001359Y023618D01*
X001253Y023512D01*
X001206Y023399D02*
X000600Y023399D01*
X000600Y023241D02*
X001196Y023241D01*
X001255Y023082D02*
X000600Y023082D01*
X000600Y022924D02*
X001492Y022924D01*
X001653Y022924D02*
X001997Y022924D01*
X001980Y022765D02*
X000600Y022765D01*
X000600Y022607D02*
X002427Y022607D01*
X002427Y022448D02*
X002523Y022448D01*
X002523Y022290D02*
X002427Y022290D01*
X002880Y022131D02*
X000600Y022131D01*
X000600Y021973D02*
X002880Y021973D01*
X002880Y021814D02*
X000600Y021814D01*
X000600Y021656D02*
X002880Y021656D01*
X003320Y021973D02*
X008505Y021973D01*
X008505Y022131D02*
X003320Y022131D01*
X003320Y022290D02*
X003342Y022290D01*
X003342Y022448D02*
X003320Y022448D01*
X003320Y022607D02*
X003342Y022607D01*
X003342Y022765D02*
X003320Y022765D01*
X003320Y022924D02*
X003342Y022924D01*
X003342Y023082D02*
X003320Y023082D01*
X003573Y023389D02*
X003246Y023483D01*
X003573Y023578D01*
X003600Y023483D01*
X003573Y023389D01*
X003600Y023483D02*
X003694Y023510D01*
X003600Y023838D01*
X003506Y023510D01*
X003600Y023483D01*
X003246Y023483D01*
X003100Y023483D01*
X003212Y023716D02*
X002905Y023716D01*
X003232Y023716D02*
X003260Y023716D01*
X003600Y023838D02*
X003600Y023483D01*
X003600Y023838D02*
X003600Y024757D01*
X003600Y025618D02*
X003600Y025618D01*
X003600Y025777D02*
X003600Y025777D01*
X003600Y025935D02*
X003600Y025935D01*
X003600Y026094D02*
X003600Y026094D01*
X004040Y026094D02*
X004200Y026094D01*
X004200Y026252D02*
X004040Y026252D01*
X004040Y026411D02*
X004200Y026411D01*
X004200Y026569D02*
X004033Y026569D01*
X003973Y026728D02*
X004269Y026728D01*
X004600Y026233D02*
X004600Y024757D01*
X004380Y025301D02*
X004305Y025301D01*
X004248Y025777D02*
X003994Y025777D01*
X004039Y025935D02*
X004200Y025935D01*
X004820Y025618D02*
X005380Y025618D01*
X005380Y025460D02*
X004820Y025460D01*
X004820Y025301D02*
X004895Y025301D01*
X004952Y025777D02*
X005248Y025777D01*
X005200Y025935D02*
X005000Y025935D01*
X005000Y026094D02*
X005200Y026094D01*
X005200Y026252D02*
X005000Y026252D01*
X005000Y026411D02*
X005200Y026411D01*
X005200Y026569D02*
X005000Y026569D01*
X004931Y026728D02*
X005269Y026728D01*
X005600Y026233D02*
X005600Y024757D01*
X005380Y025301D02*
X005305Y025301D01*
X006305Y025301D02*
X006380Y025301D01*
X006600Y024757D02*
X006600Y026233D01*
X006820Y025301D02*
X006839Y025301D01*
X007100Y025301D02*
X007100Y025301D01*
X007100Y025143D02*
X007100Y025143D01*
X007100Y024984D02*
X007100Y024984D01*
X007100Y024826D02*
X007100Y024826D01*
X007100Y024757D02*
X007100Y024144D01*
X007100Y024757D01*
X007100Y024757D01*
X007100Y024667D02*
X007100Y024667D01*
X007100Y024509D02*
X007100Y024509D01*
X007100Y024350D02*
X007100Y024350D01*
X007100Y024192D02*
X007100Y024192D01*
X006859Y024192D02*
X006784Y024192D01*
X006416Y024192D02*
X006320Y024192D01*
X007358Y022448D02*
X008629Y022448D01*
X008505Y022290D02*
X007358Y022290D01*
X008849Y023027D02*
X008849Y023027D01*
X008849Y023689D02*
X008849Y023689D01*
X008849Y023689D01*
X008412Y025618D02*
X007788Y025618D01*
X007952Y025777D02*
X008248Y025777D01*
X008200Y025935D02*
X008000Y025935D01*
X008000Y026094D02*
X008200Y026094D01*
X008200Y026252D02*
X008000Y026252D01*
X008000Y026411D02*
X008200Y026411D01*
X008200Y026569D02*
X008000Y026569D01*
X007931Y026728D02*
X008269Y026728D01*
X003342Y013255D02*
X003320Y013255D01*
X003320Y013097D02*
X003342Y013097D01*
X003342Y012938D02*
X003320Y012938D01*
X003320Y012780D02*
X003342Y012780D01*
X003342Y012621D02*
X003320Y012621D01*
X003320Y012463D02*
X003342Y012463D01*
X001985Y022290D02*
X000600Y022290D01*
X000600Y022448D02*
X001980Y022448D01*
X002020Y023082D02*
X001889Y023082D01*
X001949Y023241D02*
X002020Y023241D01*
X002020Y023399D02*
X001938Y023399D01*
X002020Y023558D02*
X001846Y023558D01*
X002130Y023875D02*
X000600Y023875D01*
X000600Y024033D02*
X002130Y024033D01*
X002130Y024192D02*
X000600Y024192D01*
X000600Y024350D02*
X002130Y024350D01*
X002130Y024509D02*
X000600Y024509D01*
X000600Y024667D02*
X002130Y024667D01*
X002128Y024826D02*
X000600Y024826D01*
X000600Y024984D02*
X002091Y024984D01*
X002043Y025143D02*
X000600Y025143D01*
X000600Y025301D02*
X002034Y025301D01*
D18*
X002350Y025233D03*
X003600Y023483D03*
X004850Y023858D03*
X007850Y023858D03*
X008850Y023358D03*
X007850Y014016D03*
X008850Y013516D03*
X004850Y014016D03*
X003600Y013641D03*
X002350Y015391D03*
D19*
X004816Y014063D02*
X004850Y014016D01*
X004897Y013982D01*
X005100Y014267D01*
X004816Y014063D01*
X004850Y014016D02*
X005100Y014016D01*
X005100Y014267D01*
X005100Y014914D01*
X004897Y023825D02*
X004850Y023858D01*
X004816Y023905D01*
X005100Y024109D01*
X004897Y023825D01*
X004850Y023858D02*
X005100Y023858D01*
X005100Y024109D01*
X005100Y024757D01*
M02*
