G75*
G70*
%OFA0B0*%
%FSLAX24Y24*%
%IPPOS*%
%LPD*%
%AMOC8*
5,1,8,0,0,1.08239X$1,22.5*
%
%ADD10R,0.0631X0.1142*%
%ADD11R,0.0316X0.0749*%
%ADD12R,0.0434X0.0749*%
%ADD13C,0.0434*%
%ADD14C,0.0631*%
%ADD15C,0.0560*%
%ADD16R,0.0512X0.0512*%
%ADD17R,0.0473X0.0434*%
D10*
X000726Y008141D03*
X000726Y013849D03*
X000726Y017983D03*
X000726Y023692D03*
X010608Y023692D03*
X011474Y017983D03*
X010608Y013849D03*
X011474Y008141D03*
D11*
X001742Y014617D03*
X001269Y014617D03*
X001269Y024460D03*
X001742Y024460D03*
D12*
X002254Y024460D03*
X002903Y024460D03*
X003887Y024460D03*
X004872Y024460D03*
X005852Y024460D03*
X006840Y024460D03*
X007824Y024460D03*
X008809Y024460D03*
X009793Y024460D03*
X009793Y014617D03*
X008809Y014617D03*
X007824Y014617D03*
X006840Y014617D03*
X005852Y014617D03*
X004872Y014617D03*
X003887Y014617D03*
X002903Y014617D03*
X002254Y014617D03*
D13*
X001572Y013456D03*
X001572Y023298D03*
D14*
X009840Y023298D03*
X009840Y013456D03*
D15*
X008600Y016131D02*
X008600Y016651D01*
X007600Y016651D02*
X007600Y016131D01*
X006600Y016131D02*
X006600Y016651D01*
X005600Y016651D02*
X005600Y016131D01*
X004600Y016131D02*
X004600Y016651D01*
X003600Y016651D02*
X003600Y016131D01*
X003600Y025973D02*
X003600Y026493D01*
X004600Y026493D02*
X004600Y025973D01*
X005600Y025973D02*
X005600Y026493D01*
X006600Y026493D02*
X006600Y025973D01*
X007600Y025973D02*
X007600Y026493D01*
X008600Y026493D02*
X008600Y025973D01*
D16*
X001725Y025570D03*
X001725Y026397D03*
X001725Y016554D03*
X001725Y015727D03*
D17*
X002350Y015931D03*
X002350Y016600D03*
X002350Y025774D03*
X002350Y026443D03*
M02*
