%
M48
M72
T01C0.0236
T02C0.0320
T03C0.0394
T04C0.0591
%
T01
X3600Y13641
X2350Y15391
X4850Y14016
X7850Y14016
X8850Y13516
X8850Y23358
X7850Y23858
X4850Y23858
X3600Y23483
X2350Y25233
T02
X3600Y26233
X4600Y26233
X5600Y26233
X6600Y26233
X7600Y26233
X8600Y26233
X8600Y16391
X7600Y16391
X6600Y16391
X5600Y16391
X4600Y16391
X3600Y16391
T03
X1572Y13456
X1572Y23298
T04
X9840Y23298
X9840Y13456
M30
