G75*
G70*
%OFA0B0*%
%FSLAX24Y24*%
%IPPOS*%
%LPD*%
%AMOC8*
5,1,8,0,0,1.08239X$1,22.5*
%
%ADD10C,0.0000*%
%ADD11C,0.0030*%
%ADD12C,0.0020*%
D10*
X000100Y007391D02*
X000100Y017233D01*
X000100Y027076D01*
X011911Y027076D01*
X011911Y017233D01*
X000100Y017233D01*
X011911Y017233D01*
X011911Y007391D01*
X000100Y007391D01*
X001375Y013456D02*
X001377Y013483D01*
X001383Y013510D01*
X001392Y013536D01*
X001405Y013560D01*
X001421Y013583D01*
X001440Y013602D01*
X001462Y013619D01*
X001486Y013633D01*
X001511Y013643D01*
X001538Y013650D01*
X001565Y013653D01*
X001593Y013652D01*
X001620Y013647D01*
X001646Y013639D01*
X001670Y013627D01*
X001693Y013611D01*
X001714Y013593D01*
X001731Y013572D01*
X001746Y013548D01*
X001757Y013523D01*
X001765Y013497D01*
X001769Y013470D01*
X001769Y013442D01*
X001765Y013415D01*
X001757Y013389D01*
X001746Y013364D01*
X001731Y013340D01*
X001714Y013319D01*
X001693Y013301D01*
X001671Y013285D01*
X001646Y013273D01*
X001620Y013265D01*
X001593Y013260D01*
X001565Y013259D01*
X001538Y013262D01*
X001511Y013269D01*
X001486Y013279D01*
X001462Y013293D01*
X001440Y013310D01*
X001421Y013329D01*
X001405Y013352D01*
X001392Y013376D01*
X001383Y013402D01*
X001377Y013429D01*
X001375Y013456D01*
X001375Y023298D02*
X001377Y023325D01*
X001383Y023352D01*
X001392Y023378D01*
X001405Y023402D01*
X001421Y023425D01*
X001440Y023444D01*
X001462Y023461D01*
X001486Y023475D01*
X001511Y023485D01*
X001538Y023492D01*
X001565Y023495D01*
X001593Y023494D01*
X001620Y023489D01*
X001646Y023481D01*
X001670Y023469D01*
X001693Y023453D01*
X001714Y023435D01*
X001731Y023414D01*
X001746Y023390D01*
X001757Y023365D01*
X001765Y023339D01*
X001769Y023312D01*
X001769Y023284D01*
X001765Y023257D01*
X001757Y023231D01*
X001746Y023206D01*
X001731Y023182D01*
X001714Y023161D01*
X001693Y023143D01*
X001671Y023127D01*
X001646Y023115D01*
X001620Y023107D01*
X001593Y023102D01*
X001565Y023101D01*
X001538Y023104D01*
X001511Y023111D01*
X001486Y023121D01*
X001462Y023135D01*
X001440Y023152D01*
X001421Y023171D01*
X001405Y023194D01*
X001392Y023218D01*
X001383Y023244D01*
X001377Y023271D01*
X001375Y023298D01*
X009545Y023298D02*
X009547Y023332D01*
X009553Y023366D01*
X009563Y023399D01*
X009576Y023430D01*
X009594Y023460D01*
X009614Y023488D01*
X009638Y023513D01*
X009664Y023535D01*
X009692Y023553D01*
X009723Y023569D01*
X009755Y023581D01*
X009789Y023589D01*
X009823Y023593D01*
X009857Y023593D01*
X009891Y023589D01*
X009925Y023581D01*
X009957Y023569D01*
X009987Y023553D01*
X010016Y023535D01*
X010042Y023513D01*
X010066Y023488D01*
X010086Y023460D01*
X010104Y023430D01*
X010117Y023399D01*
X010127Y023366D01*
X010133Y023332D01*
X010135Y023298D01*
X010133Y023264D01*
X010127Y023230D01*
X010117Y023197D01*
X010104Y023166D01*
X010086Y023136D01*
X010066Y023108D01*
X010042Y023083D01*
X010016Y023061D01*
X009988Y023043D01*
X009957Y023027D01*
X009925Y023015D01*
X009891Y023007D01*
X009857Y023003D01*
X009823Y023003D01*
X009789Y023007D01*
X009755Y023015D01*
X009723Y023027D01*
X009692Y023043D01*
X009664Y023061D01*
X009638Y023083D01*
X009614Y023108D01*
X009594Y023136D01*
X009576Y023166D01*
X009563Y023197D01*
X009553Y023230D01*
X009547Y023264D01*
X009545Y023298D01*
X009545Y013456D02*
X009547Y013490D01*
X009553Y013524D01*
X009563Y013557D01*
X009576Y013588D01*
X009594Y013618D01*
X009614Y013646D01*
X009638Y013671D01*
X009664Y013693D01*
X009692Y013711D01*
X009723Y013727D01*
X009755Y013739D01*
X009789Y013747D01*
X009823Y013751D01*
X009857Y013751D01*
X009891Y013747D01*
X009925Y013739D01*
X009957Y013727D01*
X009987Y013711D01*
X010016Y013693D01*
X010042Y013671D01*
X010066Y013646D01*
X010086Y013618D01*
X010104Y013588D01*
X010117Y013557D01*
X010127Y013524D01*
X010133Y013490D01*
X010135Y013456D01*
X010133Y013422D01*
X010127Y013388D01*
X010117Y013355D01*
X010104Y013324D01*
X010086Y013294D01*
X010066Y013266D01*
X010042Y013241D01*
X010016Y013219D01*
X009988Y013201D01*
X009957Y013185D01*
X009925Y013173D01*
X009891Y013165D01*
X009857Y013161D01*
X009823Y013161D01*
X009789Y013165D01*
X009755Y013173D01*
X009723Y013185D01*
X009692Y013201D01*
X009664Y013219D01*
X009638Y013241D01*
X009614Y013266D01*
X009594Y013294D01*
X009576Y013324D01*
X009563Y013355D01*
X009553Y013388D01*
X009547Y013422D01*
X009545Y013456D01*
D11*
X001335Y015704D02*
X001335Y015801D01*
X001287Y015849D01*
X001335Y015950D02*
X001142Y015950D01*
X001045Y016047D01*
X001142Y016144D01*
X001335Y016144D01*
X001335Y016245D02*
X001045Y016245D01*
X001045Y016390D01*
X001093Y016439D01*
X001190Y016439D01*
X001238Y016390D01*
X001238Y016245D01*
X001238Y016342D02*
X001335Y016439D01*
X001335Y016540D02*
X001335Y016685D01*
X001287Y016733D01*
X001093Y016733D01*
X001045Y016685D01*
X001045Y016540D01*
X001335Y016540D01*
X001190Y016144D02*
X001190Y015950D01*
X001093Y015849D02*
X001045Y015801D01*
X001045Y015704D01*
X001093Y015656D01*
X001287Y015656D01*
X001335Y015704D01*
X001287Y025498D02*
X001093Y025498D01*
X001045Y025547D01*
X001045Y025643D01*
X001093Y025692D01*
X001142Y025793D02*
X001045Y025890D01*
X001142Y025986D01*
X001335Y025986D01*
X001335Y026088D02*
X001045Y026088D01*
X001045Y026233D01*
X001093Y026281D01*
X001190Y026281D01*
X001238Y026233D01*
X001238Y026088D01*
X001238Y026184D02*
X001335Y026281D01*
X001335Y026382D02*
X001335Y026527D01*
X001287Y026576D01*
X001093Y026576D01*
X001045Y026527D01*
X001045Y026382D01*
X001335Y026382D01*
X001190Y025986D02*
X001190Y025793D01*
X001142Y025793D02*
X001335Y025793D01*
X001287Y025692D02*
X001335Y025643D01*
X001335Y025547D01*
X001287Y025498D01*
D12*
X002995Y025905D02*
X003032Y025868D01*
X003178Y025868D01*
X003215Y025905D01*
X003215Y025978D01*
X003178Y026015D01*
X003105Y026015D01*
X003105Y025942D01*
X003032Y026015D02*
X002995Y025978D01*
X002995Y025905D01*
X002995Y026089D02*
X003215Y026236D01*
X002995Y026236D01*
X002995Y026310D02*
X002995Y026420D01*
X003032Y026457D01*
X003178Y026457D01*
X003215Y026420D01*
X003215Y026310D01*
X002995Y026310D01*
X002995Y026089D02*
X003215Y026089D01*
X003995Y026126D02*
X004032Y026089D01*
X004068Y026089D01*
X004105Y026126D01*
X004105Y026199D01*
X004142Y026236D01*
X004178Y026236D01*
X004215Y026199D01*
X004215Y026126D01*
X004178Y026089D01*
X004178Y026015D02*
X004215Y025978D01*
X004215Y025905D01*
X004178Y025868D01*
X004105Y025905D02*
X004105Y025978D01*
X004142Y026015D01*
X004178Y026015D01*
X004105Y025905D02*
X004068Y025868D01*
X004032Y025868D01*
X003995Y025905D01*
X003995Y025978D01*
X004032Y026015D01*
X003995Y026126D02*
X003995Y026199D01*
X004032Y026236D01*
X004995Y026199D02*
X004995Y026126D01*
X005032Y026089D01*
X005178Y026089D01*
X005215Y026126D01*
X005215Y026199D01*
X005178Y026236D01*
X005142Y026310D02*
X004995Y026457D01*
X004995Y026310D02*
X005215Y026310D01*
X005105Y026347D02*
X005215Y026457D01*
X005178Y026015D02*
X005142Y026015D01*
X005105Y025978D01*
X005105Y025905D01*
X005068Y025868D01*
X005032Y025868D01*
X004995Y025905D01*
X004995Y025978D01*
X005032Y026015D01*
X004995Y026199D02*
X005032Y026236D01*
X005178Y026015D02*
X005215Y025978D01*
X005215Y025905D01*
X005178Y025868D01*
X005995Y025868D02*
X006068Y025942D01*
X005995Y026015D01*
X006215Y026015D01*
X006178Y026089D02*
X006215Y026126D01*
X006215Y026199D01*
X006178Y026236D01*
X006032Y026236D01*
X005995Y026199D01*
X005995Y026126D01*
X006032Y026089D01*
X006178Y026089D01*
X006178Y026310D02*
X006215Y026347D01*
X006215Y026420D01*
X006178Y026457D01*
X006142Y026457D01*
X006105Y026420D01*
X006105Y026347D01*
X006068Y026310D01*
X006032Y026310D01*
X005995Y026347D01*
X005995Y026420D01*
X006032Y026457D01*
X005995Y026531D02*
X005995Y026605D01*
X005995Y026568D02*
X006215Y026568D01*
X006215Y026531D02*
X006215Y026605D01*
X006215Y025868D02*
X005995Y025868D01*
X006995Y025868D02*
X007068Y025942D01*
X006995Y026015D01*
X007215Y026015D01*
X007215Y026089D02*
X007215Y026163D01*
X007215Y026126D02*
X006995Y026126D01*
X006995Y026089D02*
X006995Y026163D01*
X007032Y026237D02*
X007068Y026237D01*
X007105Y026273D01*
X007105Y026347D01*
X007142Y026383D01*
X007178Y026383D01*
X007215Y026347D01*
X007215Y026273D01*
X007178Y026237D01*
X007032Y026237D02*
X006995Y026273D01*
X006995Y026347D01*
X007032Y026383D01*
X007032Y026458D02*
X007178Y026458D01*
X007215Y026494D01*
X007215Y026568D01*
X007178Y026604D01*
X007032Y026604D01*
X006995Y026568D01*
X006995Y026494D01*
X007032Y026458D01*
X006995Y025868D02*
X007215Y025868D01*
X007995Y026089D02*
X008105Y026089D01*
X008068Y026163D01*
X008068Y026199D01*
X008105Y026236D01*
X008178Y026236D01*
X008215Y026199D01*
X008215Y026126D01*
X008178Y026089D01*
X008105Y026015D02*
X008105Y025868D01*
X008032Y025942D02*
X008178Y025942D01*
X007995Y026089D02*
X007995Y026236D01*
X007995Y026310D02*
X008142Y026310D01*
X008215Y026384D01*
X008142Y026457D01*
X007995Y026457D01*
X007178Y016762D02*
X007032Y016762D01*
X006995Y016725D01*
X006995Y016652D01*
X007032Y016615D01*
X007178Y016615D01*
X007215Y016652D01*
X007215Y016725D01*
X007178Y016762D01*
X007178Y016541D02*
X007215Y016504D01*
X007215Y016431D01*
X007178Y016394D01*
X007105Y016431D02*
X007105Y016504D01*
X007142Y016541D01*
X007178Y016541D01*
X007105Y016431D02*
X007068Y016394D01*
X007032Y016394D01*
X006995Y016431D01*
X006995Y016504D01*
X007032Y016541D01*
X006995Y016320D02*
X006995Y016247D01*
X006995Y016283D02*
X007215Y016283D01*
X007215Y016247D02*
X007215Y016320D01*
X007215Y016173D02*
X006995Y016173D01*
X007068Y016099D01*
X006995Y016026D01*
X007215Y016026D01*
X007995Y016247D02*
X008105Y016247D01*
X008068Y016320D01*
X008068Y016357D01*
X008105Y016394D01*
X008178Y016394D01*
X008215Y016357D01*
X008215Y016283D01*
X008178Y016247D01*
X008105Y016173D02*
X008105Y016026D01*
X008032Y016099D02*
X008178Y016099D01*
X007995Y016247D02*
X007995Y016394D01*
X007995Y016468D02*
X008142Y016468D01*
X008215Y016541D01*
X008142Y016615D01*
X007995Y016615D01*
X006215Y016578D02*
X006215Y016504D01*
X006178Y016468D01*
X006178Y016394D02*
X006032Y016394D01*
X005995Y016357D01*
X005995Y016283D01*
X006032Y016247D01*
X006178Y016247D01*
X006215Y016283D01*
X006215Y016357D01*
X006178Y016394D01*
X006068Y016468D02*
X006105Y016504D01*
X006105Y016578D01*
X006142Y016615D01*
X006178Y016615D01*
X006215Y016578D01*
X006215Y016689D02*
X006215Y016762D01*
X006215Y016725D02*
X005995Y016725D01*
X005995Y016689D02*
X005995Y016762D01*
X006032Y016615D02*
X005995Y016578D01*
X005995Y016504D01*
X006032Y016468D01*
X006068Y016468D01*
X005995Y016173D02*
X006215Y016173D01*
X006215Y016026D02*
X005995Y016026D01*
X006068Y016099D01*
X005995Y016173D01*
X005215Y016136D02*
X005215Y016062D01*
X005178Y016026D01*
X005105Y016062D02*
X005105Y016136D01*
X005142Y016173D01*
X005178Y016173D01*
X005215Y016136D01*
X005178Y016247D02*
X005215Y016283D01*
X005215Y016357D01*
X005178Y016394D01*
X005142Y016468D02*
X004995Y016615D01*
X004995Y016468D02*
X005215Y016468D01*
X005105Y016504D02*
X005215Y016615D01*
X005032Y016394D02*
X004995Y016357D01*
X004995Y016283D01*
X005032Y016247D01*
X005178Y016247D01*
X005105Y016062D02*
X005068Y016026D01*
X005032Y016026D01*
X004995Y016062D01*
X004995Y016136D01*
X005032Y016173D01*
X004215Y016136D02*
X004215Y016062D01*
X004178Y016026D01*
X004105Y016062D02*
X004105Y016136D01*
X004142Y016173D01*
X004178Y016173D01*
X004215Y016136D01*
X004178Y016247D02*
X004215Y016283D01*
X004215Y016357D01*
X004178Y016394D01*
X004142Y016394D01*
X004105Y016357D01*
X004105Y016283D01*
X004068Y016247D01*
X004032Y016247D01*
X003995Y016283D01*
X003995Y016357D01*
X004032Y016394D01*
X004032Y016173D02*
X003995Y016136D01*
X003995Y016062D01*
X004032Y016026D01*
X004068Y016026D01*
X004105Y016062D01*
X003215Y016062D02*
X003178Y016026D01*
X003032Y016026D01*
X002995Y016062D01*
X002995Y016136D01*
X003032Y016173D01*
X003105Y016173D02*
X003105Y016099D01*
X003105Y016173D02*
X003178Y016173D01*
X003215Y016136D01*
X003215Y016062D01*
X003215Y016247D02*
X002995Y016247D01*
X003215Y016394D01*
X002995Y016394D01*
X002995Y016468D02*
X002995Y016578D01*
X003032Y016615D01*
X003178Y016615D01*
X003215Y016578D01*
X003215Y016468D01*
X002995Y016468D01*
M02*
