G75*
G70*
%OFA0B0*%
%FSLAX24Y24*%
%IPPOS*%
%LPD*%
%AMOC8*
5,1,8,0,0,1.08239X$1,22.5*
%
%ADD10R,0.0440X0.0840*%
%ADD11R,0.1377X0.0826*%
%ADD12R,0.0196X0.0826*%
%ADD13R,0.0472X0.0590*%
%ADD14R,0.0590X0.0472*%
D10*
X009440Y011611D03*
X010350Y011611D03*
X011260Y011611D03*
X011260Y021453D03*
X010350Y021453D03*
X009440Y021453D03*
D11*
X010350Y019013D03*
X010350Y009171D03*
D12*
X007100Y012867D03*
X006600Y012867D03*
X006100Y012867D03*
X005600Y012867D03*
X005100Y012867D03*
X004600Y012867D03*
X004100Y012867D03*
X003600Y012867D03*
X003600Y014914D03*
X004100Y014914D03*
X004600Y014914D03*
X005100Y014914D03*
X005600Y014914D03*
X006100Y014914D03*
X006600Y014914D03*
X007100Y014914D03*
X007100Y022710D03*
X006600Y022710D03*
X006100Y022710D03*
X005600Y022710D03*
X005100Y022710D03*
X004600Y022710D03*
X004100Y022710D03*
X003600Y022710D03*
X003600Y024757D03*
X004100Y024757D03*
X004600Y024757D03*
X005100Y024757D03*
X005600Y024757D03*
X006100Y024757D03*
X006600Y024757D03*
X007100Y024757D03*
D13*
X010456Y024733D03*
X011244Y024733D03*
X011244Y014891D03*
X010456Y014891D03*
D14*
X002475Y012747D03*
X002475Y013534D03*
X002475Y022590D03*
X002475Y023377D03*
M02*
