G75*
G70*
%OFA0B0*%
%FSLAX24Y24*%
%IPPOS*%
%LPD*%
%AMOC8*
5,1,8,0,0,1.08239X$1,22.5*
%
%ADD10C,0.0020*%
%ADD11C,0.0050*%
%ADD12C,0.0030*%
D10*
X000967Y003212D02*
X001077Y003322D01*
X001040Y003359D02*
X001187Y003212D01*
X001187Y003359D02*
X000967Y003359D01*
X001003Y003433D02*
X001150Y003433D01*
X001187Y003470D01*
X001187Y003543D01*
X001150Y003580D01*
X001003Y003580D01*
X000967Y003543D01*
X000967Y003470D01*
X001003Y003433D01*
X001003Y003875D02*
X001077Y003875D01*
X001077Y003949D01*
X001150Y004022D02*
X001003Y004022D01*
X000967Y003985D01*
X000967Y003912D01*
X001003Y003875D01*
X000967Y004096D02*
X001113Y004096D01*
X001187Y004170D01*
X001113Y004243D01*
X000967Y004243D01*
X000967Y004317D02*
X001187Y004317D01*
X001113Y004391D01*
X001187Y004464D01*
X000967Y004464D01*
X001077Y004243D02*
X001077Y004096D01*
X001150Y004022D02*
X001187Y003985D01*
X001187Y003912D01*
X001150Y003875D01*
X001067Y005225D02*
X001177Y005335D01*
X001140Y005372D02*
X001287Y005225D01*
X001287Y005372D02*
X001067Y005372D01*
X001103Y005446D02*
X001067Y005483D01*
X001067Y005556D01*
X001103Y005593D01*
X001250Y005446D01*
X001103Y005446D01*
X001103Y005593D02*
X001250Y005593D01*
X001287Y005556D01*
X001287Y005483D01*
X001250Y005446D01*
X001067Y005667D02*
X001067Y005814D01*
X001067Y005741D02*
X001287Y005741D01*
X001213Y005814D01*
X002617Y004914D02*
X002617Y004767D01*
X002617Y004841D02*
X002837Y004841D01*
X002763Y004914D01*
X002800Y004693D02*
X002653Y004693D01*
X002800Y004546D01*
X002653Y004546D01*
X002617Y004583D01*
X002617Y004656D01*
X002653Y004693D01*
X002653Y004472D02*
X002617Y004435D01*
X002617Y004325D01*
X002763Y004325D01*
X002727Y004251D02*
X002727Y004178D01*
X002837Y004251D02*
X002837Y004104D01*
X002837Y004251D02*
X002617Y004251D01*
X002653Y004472D02*
X002763Y004472D01*
X002800Y004546D02*
X002837Y004583D01*
X002837Y004656D01*
X002800Y004693D01*
X002690Y003104D02*
X002580Y003104D01*
X002580Y002884D01*
X002580Y002957D02*
X002690Y002957D01*
X002726Y002994D01*
X002726Y003068D01*
X002690Y003104D01*
X002653Y002957D02*
X002726Y002884D01*
X002505Y002921D02*
X002469Y002884D01*
X002395Y002884D01*
X002359Y002921D01*
X002505Y003068D01*
X002505Y002921D01*
X002505Y003068D02*
X002469Y003104D01*
X002395Y003104D01*
X002359Y003068D01*
X002359Y002921D01*
X002284Y002921D02*
X002284Y002957D01*
X002248Y002994D01*
X002211Y002994D01*
X002248Y002994D02*
X002284Y003031D01*
X002284Y003068D01*
X002248Y003104D01*
X002174Y003104D01*
X002138Y003068D01*
X002138Y002921D02*
X002174Y002884D01*
X002248Y002884D01*
X002284Y002921D01*
X002063Y002921D02*
X002027Y002884D01*
X001953Y002884D01*
X001917Y002921D01*
X001990Y002994D02*
X002027Y002994D01*
X002063Y002957D01*
X002063Y002921D01*
X002027Y002994D02*
X002063Y003031D01*
X002063Y003068D01*
X002027Y003104D01*
X001953Y003104D01*
X001917Y003068D01*
D11*
X002907Y002974D02*
X005057Y002974D01*
X005057Y005274D01*
X002907Y005274D01*
X002907Y002974D01*
D12*
X003122Y003989D02*
X003122Y004183D01*
X003218Y004279D01*
X003315Y004183D01*
X003315Y003989D01*
X003416Y004037D02*
X003465Y003989D01*
X003561Y003989D01*
X003610Y004037D01*
X003610Y004086D01*
X003561Y004134D01*
X003465Y004134D01*
X003416Y004183D01*
X003416Y004231D01*
X003465Y004279D01*
X003561Y004279D01*
X003610Y004231D01*
X003711Y004279D02*
X003711Y004134D01*
X003808Y004183D01*
X003856Y004183D01*
X003904Y004134D01*
X003904Y004037D01*
X003856Y003989D01*
X003759Y003989D01*
X003711Y004037D01*
X003711Y004279D02*
X003904Y004279D01*
X004006Y004231D02*
X004054Y004279D01*
X004151Y004279D01*
X004199Y004231D01*
X004006Y004037D01*
X004054Y003989D01*
X004151Y003989D01*
X004199Y004037D01*
X004199Y004231D01*
X004300Y004231D02*
X004349Y004279D01*
X004445Y004279D01*
X004494Y004231D01*
X004494Y004183D01*
X004445Y004134D01*
X004494Y004086D01*
X004494Y004037D01*
X004445Y003989D01*
X004349Y003989D01*
X004300Y004037D01*
X004397Y004134D02*
X004445Y004134D01*
X004595Y004134D02*
X004692Y004183D01*
X004740Y004183D01*
X004788Y004134D01*
X004788Y004037D01*
X004740Y003989D01*
X004643Y003989D01*
X004595Y004037D01*
X004595Y004134D02*
X004595Y004279D01*
X004788Y004279D01*
X004006Y004231D02*
X004006Y004037D01*
X003315Y004134D02*
X003122Y004134D01*
M02*
