G75*
G70*
%OFA0B0*%
%FSLAX24Y24*%
%IPPOS*%
%LPD*%
%AMOC8*
5,1,8,0,0,1.08239X$1,22.5*
%
%ADD10C,0.0000*%
%ADD11R,0.0450X0.0165*%
%ADD12R,0.0591X0.0512*%
%ADD13R,0.0591X0.0591*%
%ADD14R,0.0512X0.0591*%
%ADD15C,0.0600*%
%ADD16C,0.0160*%
%ADD17C,0.0500*%
D10*
X000101Y000381D02*
X000101Y005527D01*
X010221Y005527D01*
X010221Y000381D01*
X000101Y000381D01*
X001710Y002981D02*
X001712Y003029D01*
X001718Y003077D01*
X001728Y003124D01*
X001741Y003170D01*
X001759Y003215D01*
X001779Y003259D01*
X001804Y003301D01*
X001832Y003340D01*
X001862Y003377D01*
X001896Y003411D01*
X001933Y003443D01*
X001971Y003472D01*
X002012Y003497D01*
X002055Y003519D01*
X002100Y003537D01*
X002146Y003551D01*
X002193Y003562D01*
X002241Y003569D01*
X002289Y003572D01*
X002337Y003571D01*
X002385Y003566D01*
X002433Y003557D01*
X002479Y003545D01*
X002524Y003528D01*
X002568Y003508D01*
X002610Y003485D01*
X002650Y003458D01*
X002688Y003428D01*
X002723Y003395D01*
X002755Y003359D01*
X002785Y003321D01*
X002811Y003280D01*
X002833Y003237D01*
X002853Y003193D01*
X002868Y003148D01*
X002880Y003101D01*
X002888Y003053D01*
X002892Y003005D01*
X002892Y002957D01*
X002888Y002909D01*
X002880Y002861D01*
X002868Y002814D01*
X002853Y002769D01*
X002833Y002725D01*
X002811Y002682D01*
X002785Y002641D01*
X002755Y002603D01*
X002723Y002567D01*
X002688Y002534D01*
X002650Y002504D01*
X002610Y002477D01*
X002568Y002454D01*
X002524Y002434D01*
X002479Y002417D01*
X002433Y002405D01*
X002385Y002396D01*
X002337Y002391D01*
X002289Y002390D01*
X002241Y002393D01*
X002193Y002400D01*
X002146Y002411D01*
X002100Y002425D01*
X002055Y002443D01*
X002012Y002465D01*
X001971Y002490D01*
X001933Y002519D01*
X001896Y002551D01*
X001862Y002585D01*
X001832Y002622D01*
X001804Y002661D01*
X001779Y002703D01*
X001759Y002747D01*
X001741Y002792D01*
X001728Y002838D01*
X001718Y002885D01*
X001712Y002933D01*
X001710Y002981D01*
D11*
X004977Y002906D03*
X004977Y002656D03*
X004977Y002406D03*
X004977Y002156D03*
X004977Y001906D03*
X007024Y001906D03*
X007024Y002156D03*
X007024Y002406D03*
X007024Y002656D03*
X007024Y002906D03*
X007024Y003156D03*
X007024Y003406D03*
X007024Y003656D03*
X004977Y003656D03*
X004977Y003406D03*
X004977Y003156D03*
D12*
X004351Y002565D03*
X004351Y001896D03*
X007701Y003646D03*
X007701Y004315D03*
D13*
X007951Y002970D03*
X007951Y001592D03*
D14*
X006335Y004181D03*
X005666Y004181D03*
D15*
X008801Y004281D02*
X009401Y004281D01*
X009401Y003281D02*
X008801Y003281D01*
X008801Y002281D02*
X009401Y002281D01*
X009401Y001281D02*
X008801Y001281D01*
D16*
X008386Y001238D02*
X008386Y001861D01*
X008665Y001861D01*
X008713Y001841D01*
X009488Y001841D01*
X009650Y001908D01*
X009774Y002031D01*
X009841Y002193D01*
X009841Y002368D01*
X009774Y002530D01*
X009650Y002654D01*
X009488Y002721D01*
X008852Y002721D01*
X008972Y002841D01*
X009488Y002841D01*
X009650Y002908D01*
X009774Y003031D01*
X009841Y003193D01*
X009841Y003368D01*
X009774Y003530D01*
X009650Y003654D01*
X009488Y003721D01*
X008713Y003721D01*
X008552Y003654D01*
X008428Y003530D01*
X008361Y003368D01*
X008361Y003348D01*
X008304Y003405D01*
X008206Y003405D01*
X008136Y003593D01*
X008136Y003960D01*
X008054Y004042D01*
X007347Y004042D01*
X007266Y003960D01*
X007266Y003378D01*
X006741Y003378D01*
X006659Y003296D01*
X006659Y003046D01*
X006659Y002765D01*
X006659Y002515D01*
X006659Y002265D01*
X006659Y002126D01*
X006555Y002126D01*
X006555Y003745D01*
X006649Y003745D01*
X006731Y003827D01*
X006731Y004534D01*
X006705Y004561D01*
X008459Y004561D01*
X008428Y004530D01*
X008361Y004368D01*
X008361Y004193D01*
X008428Y004031D01*
X008552Y003908D01*
X008713Y003841D01*
X009488Y003841D01*
X009650Y003908D01*
X009774Y004031D01*
X009841Y004193D01*
X009841Y004368D01*
X009774Y004530D01*
X009650Y004654D01*
X009488Y004721D01*
X008972Y004721D01*
X008692Y005001D01*
X008510Y005001D01*
X005910Y005001D01*
X005781Y004872D01*
X005525Y004616D01*
X005352Y004616D01*
X005270Y004534D01*
X005270Y003827D01*
X005352Y003745D01*
X005381Y003745D01*
X005381Y003072D01*
X005342Y003033D01*
X005342Y003046D01*
X005342Y003296D01*
X005342Y003546D01*
X005260Y003628D01*
X004694Y003628D01*
X004612Y003546D01*
X004612Y003296D01*
X004612Y003046D01*
X004612Y002961D01*
X003997Y002961D01*
X003974Y002938D01*
X003981Y002981D01*
X003906Y003476D01*
X003689Y003927D01*
X003348Y004294D01*
X002915Y004544D01*
X002914Y004544D01*
X002426Y004656D01*
X001927Y004618D01*
X001461Y004436D01*
X001069Y004123D01*
X000787Y003709D01*
X000640Y003231D01*
X000640Y003231D01*
X000640Y002730D01*
X000787Y002252D01*
X001069Y001838D01*
X001069Y001838D01*
X001069Y001838D01*
X001461Y001526D01*
X001927Y001343D01*
X002426Y001305D01*
X002426Y001305D01*
X002914Y001417D01*
X002915Y001417D01*
X003348Y001667D01*
X003348Y001667D01*
X003689Y002034D01*
X003689Y002034D01*
X003906Y002485D01*
X003906Y002485D01*
X003916Y002548D01*
X003916Y002251D01*
X003997Y002169D01*
X004704Y002169D01*
X004718Y002183D01*
X005260Y002183D01*
X005342Y002265D01*
X005342Y002436D01*
X005367Y002436D01*
X005692Y002761D01*
X005821Y002889D01*
X005821Y003745D01*
X005980Y003745D01*
X006001Y003766D01*
X006021Y003745D01*
X006115Y003745D01*
X006115Y001997D01*
X006115Y001814D01*
X006244Y001686D01*
X006739Y001686D01*
X006741Y001683D01*
X006936Y001683D01*
X007247Y001372D01*
X007429Y001372D01*
X007516Y001372D01*
X007516Y001238D01*
X007597Y001156D01*
X008304Y001156D01*
X008386Y001238D01*
X008338Y001190D02*
X009901Y001190D01*
X009901Y001349D02*
X008386Y001349D01*
X008386Y001508D02*
X009901Y001508D01*
X009901Y001666D02*
X008386Y001666D01*
X008386Y001825D02*
X009901Y001825D01*
X009901Y001983D02*
X009726Y001983D01*
X009819Y002142D02*
X009901Y002142D01*
X009901Y002300D02*
X009841Y002300D01*
X009803Y002459D02*
X009901Y002459D01*
X009901Y002617D02*
X009686Y002617D01*
X009901Y002776D02*
X008907Y002776D01*
X009101Y003281D02*
X008201Y002381D01*
X007701Y002381D01*
X007426Y002656D01*
X007024Y002656D01*
X006659Y002617D02*
X006555Y002617D01*
X006555Y002459D02*
X006659Y002459D01*
X006659Y002300D02*
X006555Y002300D01*
X006555Y002142D02*
X006659Y002142D01*
X007024Y002156D02*
X007024Y001906D01*
X006335Y001906D01*
X006335Y004181D01*
X006731Y004203D02*
X008361Y004203D01*
X008361Y004361D02*
X006731Y004361D01*
X006731Y004520D02*
X008424Y004520D01*
X008601Y004781D02*
X009101Y004281D01*
X009778Y004520D02*
X009901Y004520D01*
X009901Y004678D02*
X009590Y004678D01*
X009901Y004837D02*
X008856Y004837D01*
X008697Y004995D02*
X009901Y004995D01*
X009901Y005131D02*
X000401Y005131D01*
X000401Y000681D01*
X009901Y000681D01*
X009901Y005131D01*
X008601Y004781D02*
X006001Y004781D01*
X005666Y004446D01*
X005666Y004181D01*
X005601Y004115D01*
X005601Y002981D01*
X005276Y002656D01*
X004977Y002656D01*
X005390Y002459D02*
X006115Y002459D01*
X006115Y002617D02*
X005549Y002617D01*
X005707Y002776D02*
X006115Y002776D01*
X006115Y002934D02*
X005821Y002934D01*
X005821Y003093D02*
X006115Y003093D01*
X006115Y003251D02*
X005821Y003251D01*
X005821Y003410D02*
X006115Y003410D01*
X006115Y003569D02*
X005821Y003569D01*
X005821Y003727D02*
X006115Y003727D01*
X006555Y003727D02*
X007266Y003727D01*
X007266Y003886D02*
X006731Y003886D01*
X006731Y004044D02*
X008422Y004044D01*
X008604Y003886D02*
X008136Y003886D01*
X008136Y003727D02*
X009901Y003727D01*
X009901Y003886D02*
X009597Y003886D01*
X009779Y004044D02*
X009901Y004044D01*
X009901Y004203D02*
X009841Y004203D01*
X009841Y004361D02*
X009901Y004361D01*
X009901Y003569D02*
X009735Y003569D01*
X009823Y003410D02*
X009901Y003410D01*
X009901Y003251D02*
X009841Y003251D01*
X009799Y003093D02*
X009901Y003093D01*
X009901Y002934D02*
X009677Y002934D01*
X008466Y003569D02*
X008145Y003569D01*
X008204Y003410D02*
X008378Y003410D01*
X007266Y003410D02*
X006555Y003410D01*
X006555Y003251D02*
X006659Y003251D01*
X006659Y003093D02*
X006555Y003093D01*
X006555Y002934D02*
X006659Y002934D01*
X006659Y002776D02*
X006555Y002776D01*
X007024Y002406D02*
X007326Y002406D01*
X007651Y002081D01*
X008901Y002081D01*
X009101Y002281D01*
X007951Y001592D02*
X007338Y001592D01*
X007024Y001906D01*
X006953Y001666D02*
X003346Y001666D01*
X003494Y001825D02*
X004612Y001825D01*
X004612Y001765D02*
X004694Y001683D01*
X005260Y001683D01*
X005342Y001765D01*
X005342Y002046D01*
X005260Y002128D01*
X004694Y002128D01*
X004612Y002046D01*
X004612Y001765D01*
X004612Y001983D02*
X003641Y001983D01*
X003741Y002142D02*
X006115Y002142D01*
X006115Y002300D02*
X005342Y002300D01*
X004977Y002406D02*
X004360Y002406D01*
X004351Y002565D01*
X003916Y002459D02*
X003893Y002459D01*
X003916Y002300D02*
X003817Y002300D01*
X003964Y003093D02*
X004612Y003093D01*
X004612Y003251D02*
X003940Y003251D01*
X003916Y003410D02*
X004612Y003410D01*
X004635Y003569D02*
X003861Y003569D01*
X003906Y003476D02*
X003906Y003476D01*
X003785Y003727D02*
X005381Y003727D01*
X005270Y003886D02*
X003709Y003886D01*
X003689Y003927D02*
X003689Y003927D01*
X003580Y004044D02*
X005270Y004044D01*
X005270Y004203D02*
X003433Y004203D01*
X003348Y004294D02*
X003348Y004294D01*
X003232Y004361D02*
X005270Y004361D01*
X005270Y004520D02*
X002957Y004520D01*
X002426Y004656D02*
X002426Y004656D01*
X001927Y004618D02*
X001927Y004618D01*
X001676Y004520D02*
X000401Y004520D01*
X000401Y004678D02*
X005587Y004678D01*
X005746Y004837D02*
X000401Y004837D01*
X000401Y004995D02*
X005905Y004995D01*
X005381Y003569D02*
X005320Y003569D01*
X005342Y003410D02*
X005381Y003410D01*
X005381Y003251D02*
X005342Y003251D01*
X005342Y003093D02*
X005381Y003093D01*
X006555Y003569D02*
X007266Y003569D01*
X006115Y001983D02*
X005342Y001983D01*
X005342Y001825D02*
X006115Y001825D01*
X007111Y001508D02*
X003072Y001508D01*
X002618Y001349D02*
X007516Y001349D01*
X007563Y001190D02*
X000401Y001190D01*
X000401Y001349D02*
X001911Y001349D01*
X001927Y001343D02*
X001927Y001343D01*
X001507Y001508D02*
X000401Y001508D01*
X000401Y001666D02*
X001285Y001666D01*
X001461Y001526D02*
X001461Y001526D01*
X001086Y001825D02*
X000401Y001825D01*
X000401Y001983D02*
X000970Y001983D01*
X000862Y002142D02*
X000401Y002142D01*
X000401Y002300D02*
X000772Y002300D01*
X000787Y002252D02*
X000787Y002252D01*
X000723Y002459D02*
X000401Y002459D01*
X000401Y002617D02*
X000674Y002617D01*
X000640Y002730D02*
X000640Y002730D01*
X000640Y002776D02*
X000401Y002776D01*
X000401Y002934D02*
X000640Y002934D01*
X000640Y003093D02*
X000401Y003093D01*
X000401Y003251D02*
X000646Y003251D01*
X000695Y003410D02*
X000401Y003410D01*
X000401Y003569D02*
X000744Y003569D01*
X000799Y003727D02*
X000401Y003727D01*
X000401Y003886D02*
X000907Y003886D01*
X001015Y004044D02*
X000401Y004044D01*
X000401Y004203D02*
X001169Y004203D01*
X001069Y004123D02*
X001069Y004123D01*
X001368Y004361D02*
X000401Y004361D01*
X000401Y001032D02*
X009901Y001032D01*
X009901Y000873D02*
X000401Y000873D01*
X000401Y000715D02*
X009901Y000715D01*
D17*
X007951Y002970D02*
X007701Y003646D01*
M02*
