G75*
G70*
%OFA0B0*%
%FSLAX24Y24*%
%IPPOS*%
%LPD*%
%AMOC8*
5,1,8,0,0,1.08239X$1,22.5*
%
%ADD10R,0.0450X0.0165*%
%ADD11R,0.0512X0.0591*%
%ADD12R,0.0591X0.0591*%
%ADD13C,0.0600*%
%ADD14C,0.0160*%
%ADD15C,0.0356*%
%ADD16C,0.0120*%
D10*
X005290Y001986D03*
X005290Y002236D03*
X005290Y002486D03*
X005290Y002736D03*
X005290Y002986D03*
X005290Y003236D03*
X005290Y003486D03*
X005290Y003736D03*
X007337Y003736D03*
X007337Y003486D03*
X007337Y003236D03*
X007337Y002986D03*
X007337Y002736D03*
X007337Y002486D03*
X007337Y002236D03*
X007337Y001986D03*
D11*
X005948Y001511D03*
X005279Y001511D03*
X005979Y004211D03*
X006648Y004211D03*
X007329Y004211D03*
X007998Y004211D03*
D12*
X008013Y003300D03*
X008013Y001922D03*
D13*
X008863Y002411D02*
X009463Y002411D01*
X009463Y001411D02*
X008863Y001411D01*
X008863Y003411D02*
X009463Y003411D01*
X009463Y004411D02*
X008863Y004411D01*
D14*
X007998Y004211D02*
X007998Y003416D01*
X008013Y003300D01*
X008488Y002736D02*
X007337Y002736D01*
X007337Y002486D02*
X009163Y002486D01*
X009163Y002411D01*
X008488Y002736D02*
X009163Y003411D01*
X007337Y002236D02*
X007337Y001986D01*
X007949Y001986D01*
X008013Y001922D01*
X007337Y001986D02*
X006648Y001986D01*
X006648Y004211D01*
X005979Y004211D02*
X005963Y004196D01*
X005963Y002411D01*
X005538Y001986D01*
X005290Y001986D01*
X005290Y002236D02*
X004863Y002236D01*
X004863Y001711D01*
X005063Y001511D01*
X005279Y001511D01*
D15*
X005963Y002411D03*
D16*
X004248Y001963D02*
X004002Y001821D01*
X004479Y001821D01*
X004536Y001821D01*
X004536Y001821D01*
X004663Y001748D01*
X004663Y001794D01*
X004663Y002319D01*
X004780Y002436D01*
X004945Y002436D01*
X004945Y002618D01*
X004945Y002868D01*
X004945Y003118D01*
X005015Y003189D01*
X005564Y003189D01*
X005635Y003118D01*
X005635Y002868D01*
X005635Y002618D01*
X005635Y002368D01*
X005635Y002365D01*
X005665Y002396D01*
X005665Y002471D01*
X005711Y002580D01*
X005763Y002633D01*
X005763Y003796D01*
X005673Y003796D01*
X005635Y003834D01*
X005635Y003604D01*
X005564Y003534D01*
X005015Y003534D01*
X004945Y003604D01*
X004945Y003868D01*
X005015Y003939D01*
X005564Y003939D01*
X005603Y003900D01*
X005603Y004556D01*
X005673Y004626D01*
X006284Y004626D01*
X006313Y004597D01*
X006342Y004626D01*
X006953Y004626D01*
X007024Y004556D01*
X007024Y003866D01*
X006953Y003796D01*
X006848Y003796D01*
X006848Y002186D01*
X006992Y002186D01*
X006992Y002354D01*
X006992Y002604D01*
X006992Y002854D01*
X006992Y003118D01*
X006992Y003368D01*
X007062Y003439D01*
X007598Y003439D01*
X007598Y003645D01*
X007668Y003715D01*
X007798Y003715D01*
X007798Y003796D01*
X007692Y003796D01*
X007622Y003866D01*
X007622Y004556D01*
X007692Y004626D01*
X008303Y004626D01*
X008374Y004556D01*
X008374Y003866D01*
X008303Y003796D01*
X008198Y003796D01*
X008198Y003715D01*
X008358Y003715D01*
X008428Y003645D01*
X008428Y002959D01*
X008575Y003106D01*
X008507Y003173D01*
X008443Y003328D01*
X008443Y003495D01*
X008507Y003649D01*
X008625Y003767D01*
X008780Y003831D01*
X009547Y003831D01*
X009701Y003767D01*
X009819Y003649D01*
X009883Y003495D01*
X009883Y003328D01*
X009819Y003173D01*
X009701Y003055D01*
X009547Y002991D01*
X009026Y002991D01*
X008866Y002831D01*
X009547Y002831D01*
X009701Y002767D01*
X009819Y002649D01*
X009883Y002495D01*
X009883Y002328D01*
X009819Y002173D01*
X009701Y002055D01*
X009547Y001991D01*
X008780Y001991D01*
X008625Y002055D01*
X008507Y002173D01*
X008460Y002286D01*
X008409Y002286D01*
X008428Y002267D01*
X008428Y001577D01*
X008358Y001507D01*
X007668Y001507D01*
X007598Y001577D01*
X007598Y001784D01*
X007062Y001784D01*
X007060Y001786D01*
X006565Y001786D01*
X006448Y001903D01*
X006448Y002069D01*
X006448Y003796D01*
X006342Y003796D01*
X006313Y003825D01*
X006284Y003796D01*
X006163Y003796D01*
X006163Y002633D01*
X006216Y002580D01*
X006261Y002471D01*
X006261Y002352D01*
X006216Y002242D01*
X006132Y002159D01*
X006023Y002113D01*
X005948Y002113D01*
X005654Y001820D01*
X005654Y001166D01*
X005609Y001121D01*
X009747Y001121D01*
X009813Y001121D01*
X009849Y001126D01*
X009912Y001162D01*
X009948Y001225D01*
X009953Y001261D01*
X009953Y004545D01*
X009946Y004575D01*
X009907Y004640D01*
X009847Y004686D01*
X009781Y004703D01*
X009779Y004701D01*
X009767Y004701D01*
X009819Y004649D01*
X009883Y004495D01*
X009883Y004328D01*
X009819Y004173D01*
X009701Y004055D01*
X009547Y003991D01*
X008780Y003991D01*
X008625Y004055D01*
X008507Y004173D01*
X008443Y004328D01*
X008443Y004495D01*
X008507Y004649D01*
X008559Y004701D01*
X004002Y004701D01*
X004248Y004559D01*
X004248Y004559D01*
X004585Y004196D01*
X004585Y004196D01*
X004799Y003751D01*
X004799Y003751D01*
X004873Y003261D01*
X004799Y002772D01*
X004799Y002772D01*
X004585Y002326D01*
X004585Y002326D01*
X004248Y001963D01*
X004207Y001939D02*
X004663Y001939D01*
X004663Y001821D02*
X004537Y001821D01*
X004663Y002058D02*
X004336Y002058D01*
X004446Y002176D02*
X004663Y002176D01*
X004663Y002295D02*
X004556Y002295D01*
X004627Y002414D02*
X004758Y002414D01*
X004684Y002532D02*
X004945Y002532D01*
X004945Y002651D02*
X004741Y002651D01*
X004798Y002769D02*
X004945Y002769D01*
X004945Y002888D02*
X004817Y002888D01*
X004835Y003006D02*
X004945Y003006D01*
X004951Y003125D02*
X004853Y003125D01*
X004870Y003243D02*
X005763Y003243D01*
X005763Y003125D02*
X005628Y003125D01*
X005635Y003006D02*
X005763Y003006D01*
X005763Y002888D02*
X005635Y002888D01*
X005635Y002769D02*
X005763Y002769D01*
X005763Y002651D02*
X005635Y002651D01*
X005635Y002532D02*
X005691Y002532D01*
X005665Y002414D02*
X005635Y002414D01*
X006150Y002176D02*
X006448Y002176D01*
X006448Y002058D02*
X005893Y002058D01*
X005774Y001939D02*
X006448Y001939D01*
X006530Y001821D02*
X005656Y001821D01*
X005654Y001702D02*
X007598Y001702D01*
X007598Y001584D02*
X005654Y001584D01*
X005654Y001465D02*
X009953Y001465D01*
X009953Y001347D02*
X005654Y001347D01*
X005654Y001228D02*
X009949Y001228D01*
X009953Y001584D02*
X008428Y001584D01*
X008428Y001702D02*
X009953Y001702D01*
X009953Y001821D02*
X008428Y001821D01*
X008428Y001939D02*
X009953Y001939D01*
X009953Y002058D02*
X009704Y002058D01*
X009821Y002176D02*
X009953Y002176D01*
X009953Y002295D02*
X009870Y002295D01*
X009883Y002414D02*
X009953Y002414D01*
X009953Y002532D02*
X009868Y002532D01*
X009818Y002651D02*
X009953Y002651D01*
X009953Y002769D02*
X009696Y002769D01*
X009953Y002888D02*
X008923Y002888D01*
X008556Y003125D02*
X008428Y003125D01*
X008428Y003243D02*
X008478Y003243D01*
X008443Y003362D02*
X008428Y003362D01*
X008428Y003480D02*
X008443Y003480D01*
X008428Y003599D02*
X008486Y003599D01*
X008576Y003718D02*
X008198Y003718D01*
X008344Y003836D02*
X009953Y003836D01*
X009953Y003718D02*
X009751Y003718D01*
X009840Y003599D02*
X009953Y003599D01*
X009953Y003480D02*
X009883Y003480D01*
X009883Y003362D02*
X009953Y003362D01*
X009953Y003243D02*
X009848Y003243D01*
X009771Y003125D02*
X009953Y003125D01*
X009953Y003006D02*
X009583Y003006D01*
X008475Y003006D02*
X008428Y003006D01*
X007598Y003480D02*
X006848Y003480D01*
X006848Y003362D02*
X006992Y003362D01*
X006992Y003243D02*
X006848Y003243D01*
X006848Y003125D02*
X006992Y003125D01*
X006992Y003006D02*
X006848Y003006D01*
X006848Y002888D02*
X006992Y002888D01*
X006992Y002769D02*
X006848Y002769D01*
X006848Y002651D02*
X006992Y002651D01*
X006992Y002532D02*
X006848Y002532D01*
X006848Y002414D02*
X006992Y002414D01*
X006992Y002295D02*
X006848Y002295D01*
X006448Y002295D02*
X006238Y002295D01*
X006261Y002414D02*
X006448Y002414D01*
X006448Y002532D02*
X006236Y002532D01*
X006163Y002651D02*
X006448Y002651D01*
X006448Y002769D02*
X006163Y002769D01*
X006163Y002888D02*
X006448Y002888D01*
X006448Y003006D02*
X006163Y003006D01*
X006163Y003125D02*
X006448Y003125D01*
X006448Y003243D02*
X006163Y003243D01*
X006163Y003362D02*
X006448Y003362D01*
X006448Y003480D02*
X006163Y003480D01*
X006163Y003599D02*
X006448Y003599D01*
X006448Y003718D02*
X006163Y003718D01*
X005763Y003718D02*
X005635Y003718D01*
X005630Y003599D02*
X005763Y003599D01*
X005763Y003480D02*
X004840Y003480D01*
X004858Y003362D02*
X005763Y003362D01*
X004950Y003599D02*
X004822Y003599D01*
X004804Y003718D02*
X004945Y003718D01*
X004945Y003836D02*
X004758Y003836D01*
X004701Y003955D02*
X005603Y003955D01*
X005603Y004073D02*
X004644Y004073D01*
X004587Y004192D02*
X005603Y004192D01*
X005603Y004310D02*
X004479Y004310D01*
X004369Y004429D02*
X005603Y004429D01*
X005603Y004547D02*
X004259Y004547D01*
X004063Y004666D02*
X008524Y004666D01*
X008465Y004547D02*
X008374Y004547D01*
X008374Y004429D02*
X008443Y004429D01*
X008450Y004310D02*
X008374Y004310D01*
X008374Y004192D02*
X008500Y004192D01*
X008607Y004073D02*
X008374Y004073D01*
X008374Y003955D02*
X009953Y003955D01*
X009953Y004073D02*
X009719Y004073D01*
X009827Y004192D02*
X009953Y004192D01*
X009953Y004310D02*
X009876Y004310D01*
X009883Y004429D02*
X009953Y004429D01*
X009953Y004547D02*
X009861Y004547D01*
X009873Y004666D02*
X009802Y004666D01*
X007798Y003718D02*
X006848Y003718D01*
X006848Y003599D02*
X007598Y003599D01*
X007652Y003836D02*
X006994Y003836D01*
X007024Y003955D02*
X007622Y003955D01*
X007622Y004073D02*
X007024Y004073D01*
X007024Y004192D02*
X007622Y004192D01*
X007622Y004310D02*
X007024Y004310D01*
X007024Y004429D02*
X007622Y004429D01*
X007622Y004547D02*
X007024Y004547D01*
X008428Y002176D02*
X008506Y002176D01*
X008428Y002058D02*
X008623Y002058D01*
M02*
