G75*
G70*
%OFA0B0*%
%FSLAX24Y24*%
%IPPOS*%
%LPD*%
%AMOC8*
5,1,8,0,0,1.08239X$1,22.5*
%
%ADD10C,0.0000*%
%ADD11C,0.0030*%
%ADD12C,0.0020*%
D10*
X000937Y000574D02*
X000937Y006524D01*
X000939Y006587D01*
X000945Y006651D01*
X000954Y006713D01*
X000968Y006775D01*
X000985Y006836D01*
X001005Y006896D01*
X001030Y006955D01*
X001057Y007012D01*
X001088Y007067D01*
X001123Y007120D01*
X001160Y007172D01*
X001201Y007220D01*
X001245Y007266D01*
X001291Y007310D01*
X001339Y007351D01*
X001391Y007388D01*
X001444Y007423D01*
X001499Y007454D01*
X001556Y007481D01*
X001615Y007506D01*
X001675Y007526D01*
X001736Y007543D01*
X001798Y007557D01*
X001860Y007566D01*
X001924Y007572D01*
X001987Y007574D01*
X004387Y007574D01*
X003707Y006649D02*
X003709Y006699D01*
X003715Y006749D01*
X003725Y006798D01*
X003739Y006846D01*
X003756Y006893D01*
X003777Y006938D01*
X003802Y006982D01*
X003830Y007023D01*
X003862Y007062D01*
X003896Y007099D01*
X003933Y007133D01*
X003973Y007163D01*
X004015Y007190D01*
X004059Y007214D01*
X004105Y007235D01*
X004152Y007251D01*
X004200Y007264D01*
X004250Y007273D01*
X004299Y007278D01*
X004350Y007279D01*
X004400Y007276D01*
X004449Y007269D01*
X004498Y007258D01*
X004546Y007243D01*
X004592Y007225D01*
X004637Y007203D01*
X004680Y007177D01*
X004721Y007148D01*
X004760Y007116D01*
X004796Y007081D01*
X004828Y007043D01*
X004858Y007003D01*
X004885Y006960D01*
X004908Y006916D01*
X004927Y006870D01*
X004943Y006822D01*
X004955Y006773D01*
X004963Y006724D01*
X004967Y006674D01*
X004967Y006624D01*
X004963Y006574D01*
X004955Y006525D01*
X004943Y006476D01*
X004927Y006428D01*
X004908Y006382D01*
X004885Y006338D01*
X004858Y006295D01*
X004828Y006255D01*
X004796Y006217D01*
X004760Y006182D01*
X004721Y006150D01*
X004680Y006121D01*
X004637Y006095D01*
X004592Y006073D01*
X004546Y006055D01*
X004498Y006040D01*
X004449Y006029D01*
X004400Y006022D01*
X004350Y006019D01*
X004299Y006020D01*
X004250Y006025D01*
X004200Y006034D01*
X004152Y006047D01*
X004105Y006063D01*
X004059Y006084D01*
X004015Y006108D01*
X003973Y006135D01*
X003933Y006165D01*
X003896Y006199D01*
X003862Y006236D01*
X003830Y006275D01*
X003802Y006316D01*
X003777Y006360D01*
X003756Y006405D01*
X003739Y006452D01*
X003725Y006500D01*
X003715Y006549D01*
X003709Y006599D01*
X003707Y006649D01*
X004387Y007574D02*
X004450Y007572D01*
X004514Y007566D01*
X004576Y007557D01*
X004638Y007543D01*
X004699Y007526D01*
X004759Y007506D01*
X004818Y007481D01*
X004875Y007454D01*
X004930Y007423D01*
X004983Y007388D01*
X005035Y007351D01*
X005083Y007310D01*
X005129Y007266D01*
X005173Y007220D01*
X005214Y007172D01*
X005251Y007120D01*
X005286Y007067D01*
X005317Y007012D01*
X005344Y006955D01*
X005369Y006896D01*
X005389Y006836D01*
X005406Y006775D01*
X005420Y006713D01*
X005429Y006651D01*
X005435Y006587D01*
X005437Y006524D01*
X005437Y000574D01*
X000937Y000574D01*
X001407Y006649D02*
X001409Y006699D01*
X001415Y006749D01*
X001425Y006798D01*
X001439Y006846D01*
X001456Y006893D01*
X001477Y006938D01*
X001502Y006982D01*
X001530Y007023D01*
X001562Y007062D01*
X001596Y007099D01*
X001633Y007133D01*
X001673Y007163D01*
X001715Y007190D01*
X001759Y007214D01*
X001805Y007235D01*
X001852Y007251D01*
X001900Y007264D01*
X001950Y007273D01*
X001999Y007278D01*
X002050Y007279D01*
X002100Y007276D01*
X002149Y007269D01*
X002198Y007258D01*
X002246Y007243D01*
X002292Y007225D01*
X002337Y007203D01*
X002380Y007177D01*
X002421Y007148D01*
X002460Y007116D01*
X002496Y007081D01*
X002528Y007043D01*
X002558Y007003D01*
X002585Y006960D01*
X002608Y006916D01*
X002627Y006870D01*
X002643Y006822D01*
X002655Y006773D01*
X002663Y006724D01*
X002667Y006674D01*
X002667Y006624D01*
X002663Y006574D01*
X002655Y006525D01*
X002643Y006476D01*
X002627Y006428D01*
X002608Y006382D01*
X002585Y006338D01*
X002558Y006295D01*
X002528Y006255D01*
X002496Y006217D01*
X002460Y006182D01*
X002421Y006150D01*
X002380Y006121D01*
X002337Y006095D01*
X002292Y006073D01*
X002246Y006055D01*
X002198Y006040D01*
X002149Y006029D01*
X002100Y006022D01*
X002050Y006019D01*
X001999Y006020D01*
X001950Y006025D01*
X001900Y006034D01*
X001852Y006047D01*
X001805Y006063D01*
X001759Y006084D01*
X001715Y006108D01*
X001673Y006135D01*
X001633Y006165D01*
X001596Y006199D01*
X001562Y006236D01*
X001530Y006275D01*
X001502Y006316D01*
X001477Y006360D01*
X001456Y006405D01*
X001439Y006452D01*
X001425Y006500D01*
X001415Y006549D01*
X001409Y006599D01*
X001407Y006649D01*
D11*
X002752Y005379D02*
X002752Y005282D01*
X002800Y005234D01*
X002994Y005427D01*
X002800Y005427D01*
X002752Y005379D01*
X002800Y005234D02*
X002994Y005234D01*
X003042Y005282D01*
X003042Y005379D01*
X002994Y005427D01*
X003252Y005427D02*
X003252Y005282D01*
X003300Y005234D01*
X003349Y005282D01*
X003349Y005427D01*
X003397Y005427D02*
X003252Y005427D01*
X003300Y005528D02*
X003252Y005577D01*
X003252Y005722D01*
X003542Y005722D01*
X003445Y005722D02*
X003445Y005577D01*
X003397Y005528D01*
X003300Y005528D01*
X003397Y005427D02*
X003445Y005379D01*
X003445Y005282D01*
X003445Y005133D02*
X003252Y005133D01*
X003252Y004987D01*
X003300Y004939D01*
X003445Y004939D01*
X003494Y004838D02*
X003300Y004838D01*
X003252Y004790D01*
X003252Y004693D01*
X003300Y004644D01*
X003494Y004644D01*
X003542Y004693D01*
X003542Y004790D01*
X003494Y004838D01*
X003349Y004741D02*
X003252Y004838D01*
X003042Y004840D02*
X002994Y004792D01*
X003042Y004840D02*
X003042Y004937D01*
X002994Y004985D01*
X002945Y004985D01*
X002752Y004792D01*
X002752Y004985D01*
X002752Y005086D02*
X002752Y005135D01*
X002800Y005135D01*
X002800Y005086D01*
X002752Y005086D01*
X002945Y004691D02*
X002752Y004594D01*
X002945Y004497D01*
X003252Y004249D02*
X003252Y004104D01*
X003300Y004055D01*
X003397Y004055D01*
X003445Y004104D01*
X003445Y004249D01*
X003252Y003955D02*
X003252Y003859D01*
X003252Y003907D02*
X003445Y003907D01*
X003445Y003859D01*
X003445Y003759D02*
X003445Y003662D01*
X003494Y003711D02*
X003300Y003711D01*
X003252Y003759D01*
X003349Y003561D02*
X003349Y003368D01*
X003397Y003368D02*
X003445Y003416D01*
X003445Y003513D01*
X003397Y003561D01*
X003349Y003561D01*
X003252Y003513D02*
X003252Y003416D01*
X003300Y003368D01*
X003397Y003368D01*
X003397Y003266D02*
X003252Y003266D01*
X003252Y003073D02*
X003445Y003073D01*
X003445Y003218D01*
X003397Y003266D01*
X003445Y002972D02*
X003204Y002972D01*
X003155Y002924D01*
X003155Y002875D01*
X003252Y002827D02*
X003252Y002972D01*
X003252Y002827D02*
X003300Y002778D01*
X003397Y002778D01*
X003445Y002827D01*
X003445Y002972D01*
X003397Y002677D02*
X003252Y002677D01*
X003252Y002532D01*
X003300Y002484D01*
X003349Y002532D01*
X003349Y002677D01*
X003397Y002677D02*
X003445Y002629D01*
X003445Y002532D01*
X003542Y002383D02*
X003252Y002383D01*
X003252Y002189D02*
X003542Y002189D01*
X003445Y002286D01*
X003542Y002383D01*
X003042Y002383D02*
X003042Y002189D01*
X002752Y002189D01*
X002752Y002383D01*
X002752Y002484D02*
X002945Y002484D01*
X002945Y002629D01*
X002897Y002677D01*
X002752Y002677D01*
X002800Y002778D02*
X002752Y002827D01*
X002752Y002972D01*
X002800Y003073D02*
X002752Y003121D01*
X002752Y003218D01*
X002800Y003266D01*
X002897Y003266D01*
X002945Y003218D01*
X002945Y003121D01*
X002897Y003073D01*
X002800Y003073D01*
X002945Y002972D02*
X002945Y002827D01*
X002897Y002778D01*
X002800Y002778D01*
X002897Y002286D02*
X002897Y002189D01*
X002897Y003368D02*
X002800Y003368D01*
X002752Y003416D01*
X002752Y003561D01*
X003042Y003561D01*
X002945Y003561D02*
X002945Y003416D01*
X002897Y003368D01*
X002897Y003662D02*
X002800Y003662D01*
X002752Y003711D01*
X002752Y003807D01*
X002849Y003856D02*
X002849Y003662D01*
X002897Y003662D02*
X002945Y003711D01*
X002945Y003807D01*
X002897Y003856D01*
X002849Y003856D01*
X002849Y003957D02*
X002945Y004054D01*
X002945Y004102D01*
X002945Y003957D02*
X002752Y003957D01*
X003542Y003907D02*
X003591Y003907D01*
X004840Y002436D02*
X004779Y002374D01*
X004779Y002313D01*
X004840Y002436D02*
X005149Y002436D01*
X005149Y002251D01*
X005087Y002189D01*
X004964Y002189D01*
X004902Y002251D01*
X004902Y002436D01*
X004964Y002557D02*
X004902Y002619D01*
X004902Y002743D01*
X004964Y002804D01*
X005087Y002804D01*
X005149Y002743D01*
X005149Y002619D01*
X005087Y002557D01*
X004964Y002557D01*
X004902Y002926D02*
X004902Y003111D01*
X004964Y003173D01*
X005087Y003173D01*
X005149Y003111D01*
X005149Y002926D01*
X005272Y002926D02*
X004902Y002926D01*
X004964Y003294D02*
X004902Y003356D01*
X004902Y003479D01*
X004964Y003541D01*
X005087Y003541D01*
X005149Y003479D01*
X005149Y003356D01*
X005087Y003294D01*
X004964Y003294D01*
X005149Y003662D02*
X005149Y003786D01*
X005211Y003724D02*
X004964Y003724D01*
X004902Y003786D01*
X004902Y003908D02*
X004902Y004031D01*
X004902Y003970D02*
X005149Y003970D01*
X005149Y003908D01*
X005272Y003970D02*
X005334Y003970D01*
X005149Y004215D02*
X005087Y004153D01*
X004964Y004153D01*
X004902Y004215D01*
X004902Y004400D01*
X004902Y004522D02*
X004902Y004707D01*
X004964Y004769D01*
X005025Y004707D01*
X005025Y004583D01*
X005087Y004522D01*
X005149Y004583D01*
X005149Y004769D01*
X004964Y004890D02*
X004964Y004952D01*
X004902Y004952D01*
X004902Y004890D01*
X004964Y004890D01*
X004902Y005074D02*
X005149Y005074D01*
X005149Y005259D01*
X005087Y005321D01*
X004902Y005321D01*
X004964Y005442D02*
X005087Y005442D01*
X005149Y005504D01*
X005149Y005628D01*
X005087Y005689D01*
X005025Y005689D01*
X005025Y005442D01*
X004964Y005442D02*
X004902Y005504D01*
X004902Y005628D01*
X004964Y005872D02*
X004902Y005934D01*
X004964Y005872D02*
X005211Y005872D01*
X005149Y005811D02*
X005149Y005934D01*
X005149Y004400D02*
X005149Y004215D01*
X003445Y005823D02*
X003252Y005823D01*
X003349Y005823D02*
X003445Y005920D01*
X003445Y005968D01*
X003445Y006117D02*
X003445Y006214D01*
X003397Y006262D01*
X003252Y006262D01*
X003252Y006117D01*
X003300Y006069D01*
X003349Y006117D01*
X003349Y006262D01*
X003445Y006363D02*
X003445Y006460D01*
X003494Y006412D02*
X003300Y006412D01*
X003252Y006460D01*
X003300Y006560D02*
X003252Y006608D01*
X003252Y006753D01*
X003445Y006753D01*
X003445Y006854D02*
X003252Y006854D01*
X003349Y006854D02*
X003445Y006951D01*
X003445Y006999D01*
X003397Y007100D02*
X003445Y007148D01*
X003445Y007245D01*
X003397Y007293D01*
X003349Y007293D01*
X003349Y007100D01*
X003397Y007100D02*
X003300Y007100D01*
X003252Y007148D01*
X003252Y007245D01*
X003300Y006560D02*
X003445Y006560D01*
D12*
X001404Y005094D02*
X001367Y005094D01*
X001294Y005094D02*
X001294Y005057D01*
X001294Y005094D02*
X001147Y005094D01*
X001147Y005130D02*
X001147Y005057D01*
X001147Y004983D02*
X001184Y004946D01*
X001330Y004946D01*
X001294Y004910D02*
X001294Y004983D01*
X001257Y004835D02*
X001184Y004835D01*
X001147Y004799D01*
X001147Y004725D01*
X001184Y004689D01*
X001257Y004689D01*
X001294Y004725D01*
X001294Y004799D01*
X001257Y004835D01*
X001257Y004614D02*
X001184Y004614D01*
X001147Y004578D01*
X001147Y004468D01*
X001367Y004468D01*
X001294Y004468D02*
X001294Y004578D01*
X001257Y004614D01*
X001257Y004393D02*
X001184Y004393D01*
X001147Y004357D01*
X001147Y004283D01*
X001184Y004247D01*
X001257Y004247D01*
X001294Y004283D01*
X001294Y004357D01*
X001257Y004393D01*
X001257Y004172D02*
X001184Y004172D01*
X001147Y004136D01*
X001147Y004062D01*
X001184Y004026D01*
X001330Y004026D01*
X001367Y004062D01*
X001367Y004136D01*
X001330Y004172D01*
X001257Y004172D02*
X001257Y004099D01*
X001147Y003730D02*
X001147Y003584D01*
X001147Y003657D02*
X001367Y003657D01*
X001294Y003584D01*
X001147Y003509D02*
X001147Y003363D01*
X001147Y003436D02*
X001367Y003436D01*
X001294Y003363D01*
X001330Y003288D02*
X001184Y003142D01*
X001147Y003178D01*
X001147Y003252D01*
X001184Y003288D01*
X001330Y003288D01*
X001367Y003252D01*
X001367Y003178D01*
X001330Y003142D01*
X001184Y003142D01*
X001147Y003067D02*
X001147Y002921D01*
X001294Y003067D01*
X001330Y003067D01*
X001367Y003031D01*
X001367Y002957D01*
X001330Y002921D01*
X001294Y002626D02*
X001220Y002626D01*
X001147Y002552D01*
X001147Y002478D02*
X001147Y002368D01*
X001184Y002331D01*
X001257Y002331D01*
X001294Y002368D01*
X001294Y002478D01*
X001367Y002552D02*
X001294Y002626D01*
X001367Y002257D02*
X001294Y002184D01*
X001220Y002184D01*
X001147Y002257D01*
X001134Y001323D02*
X001280Y001323D01*
X001317Y001286D01*
X001317Y001176D01*
X001097Y001176D01*
X001097Y001286D01*
X001134Y001323D01*
X001097Y001102D02*
X001317Y001102D01*
X001317Y000955D02*
X001097Y001102D01*
X001097Y000955D02*
X001317Y000955D01*
X001280Y000881D02*
X001317Y000844D01*
X001317Y000771D01*
X001280Y000734D01*
X001134Y000734D01*
X001097Y000771D01*
X001097Y000844D01*
X001134Y000881D01*
X001207Y000881D01*
X001207Y000807D01*
X002197Y000784D02*
X002344Y000784D01*
X002417Y000857D01*
X002344Y000931D01*
X002197Y000931D01*
X002307Y000931D02*
X002307Y000784D01*
X003997Y000784D02*
X003997Y000894D01*
X004034Y000931D01*
X004070Y000931D01*
X004107Y000894D01*
X004107Y000784D01*
X004217Y000784D02*
X004217Y000894D01*
X004180Y000931D01*
X004144Y000931D01*
X004107Y000894D01*
X003997Y000784D02*
X004217Y000784D01*
X005047Y000771D02*
X005084Y000734D01*
X005047Y000771D02*
X005047Y000844D01*
X005084Y000881D01*
X005157Y000881D01*
X005194Y000844D01*
X005194Y000807D01*
X005157Y000734D01*
X005267Y000734D01*
X005267Y000881D01*
X005267Y000955D02*
X005120Y000955D01*
X005047Y001028D01*
X005120Y001102D01*
X005267Y001102D01*
X001367Y005867D02*
X001367Y005904D01*
X001147Y005904D01*
X001147Y005867D02*
X001147Y005941D01*
X001184Y006051D02*
X001147Y006088D01*
X001184Y006051D02*
X001330Y006051D01*
X001294Y006014D02*
X001294Y006088D01*
X001257Y006162D02*
X001294Y006199D01*
X001294Y006309D01*
X001367Y006309D02*
X001147Y006309D01*
X001147Y006199D01*
X001184Y006162D01*
X001257Y006162D01*
X001294Y005572D02*
X001294Y005462D01*
X001257Y005425D01*
X001220Y005462D01*
X001220Y005535D01*
X001184Y005572D01*
X001147Y005535D01*
X001147Y005425D01*
X001147Y005351D02*
X001147Y005241D01*
X001184Y005204D01*
X001257Y005204D01*
X001294Y005241D01*
X001294Y005351D01*
M02*
