G75*
G70*
%OFA0B0*%
%FSLAX24Y24*%
%IPPOS*%
%LPD*%
%AMOC8*
5,1,8,0,0,1.08239X$1,22.5*
%
%ADD10C,0.0030*%
%ADD11C,0.0020*%
D10*
X002722Y002189D02*
X002722Y002383D01*
X002722Y002484D02*
X002915Y002484D01*
X002915Y002629D01*
X002867Y002677D01*
X002722Y002677D01*
X002770Y002778D02*
X002722Y002827D01*
X002722Y002972D01*
X002770Y003073D02*
X002722Y003121D01*
X002722Y003218D01*
X002770Y003266D01*
X002867Y003266D01*
X002915Y003218D01*
X002915Y003121D01*
X002867Y003073D01*
X002770Y003073D01*
X002770Y003368D02*
X002867Y003368D01*
X002915Y003416D01*
X002915Y003561D01*
X003012Y003561D02*
X002722Y003561D01*
X002722Y003416D01*
X002770Y003368D01*
X002770Y003662D02*
X002867Y003662D01*
X002915Y003711D01*
X002915Y003807D01*
X002867Y003856D01*
X002818Y003856D01*
X002818Y003662D01*
X002770Y003662D02*
X002722Y003711D01*
X002722Y003807D01*
X002722Y003957D02*
X002915Y003957D01*
X002818Y003957D02*
X002915Y004054D01*
X002915Y004102D01*
X002915Y004497D02*
X002722Y004594D01*
X002915Y004691D01*
X002964Y004792D02*
X003012Y004840D01*
X003012Y004937D01*
X002964Y004985D01*
X002915Y004985D01*
X002722Y004792D01*
X002722Y004985D01*
X002722Y005086D02*
X002722Y005135D01*
X002770Y005135D01*
X002770Y005086D01*
X002722Y005086D01*
X002770Y005234D02*
X002964Y005427D01*
X002770Y005427D01*
X002722Y005379D01*
X002722Y005282D01*
X002770Y005234D01*
X002964Y005234D01*
X003012Y005282D01*
X003012Y005379D01*
X002964Y005427D01*
X003222Y005427D02*
X003222Y005282D01*
X003270Y005234D01*
X003318Y005282D01*
X003318Y005427D01*
X003367Y005427D02*
X003222Y005427D01*
X003270Y005528D02*
X003367Y005528D01*
X003415Y005577D01*
X003415Y005722D01*
X003415Y005823D02*
X003222Y005823D01*
X003222Y005722D02*
X003222Y005577D01*
X003270Y005528D01*
X003367Y005427D02*
X003415Y005379D01*
X003415Y005282D01*
X003415Y005133D02*
X003222Y005133D01*
X003222Y004987D01*
X003270Y004939D01*
X003415Y004939D01*
X003464Y004838D02*
X003270Y004838D01*
X003222Y004790D01*
X003222Y004693D01*
X003270Y004644D01*
X003464Y004644D01*
X003512Y004693D01*
X003512Y004790D01*
X003464Y004838D01*
X003318Y004741D02*
X003222Y004838D01*
X003222Y004249D02*
X003222Y004104D01*
X003270Y004055D01*
X003367Y004055D01*
X003415Y004104D01*
X003415Y004249D01*
X003415Y003907D02*
X003222Y003907D01*
X003222Y003859D02*
X003222Y003955D01*
X003222Y003759D02*
X003270Y003711D01*
X003464Y003711D01*
X003415Y003759D02*
X003415Y003662D01*
X003367Y003561D02*
X003318Y003561D01*
X003318Y003368D01*
X003270Y003368D02*
X003367Y003368D01*
X003415Y003416D01*
X003415Y003513D01*
X003367Y003561D01*
X003222Y003513D02*
X003222Y003416D01*
X003270Y003368D01*
X003222Y003266D02*
X003367Y003266D01*
X003415Y003218D01*
X003415Y003073D01*
X003222Y003073D01*
X003222Y002972D02*
X003222Y002827D01*
X003270Y002778D01*
X003367Y002778D01*
X003415Y002827D01*
X003415Y002972D01*
X003173Y002972D01*
X003125Y002924D01*
X003125Y002875D01*
X003222Y002677D02*
X003222Y002532D01*
X003270Y002484D01*
X003318Y002532D01*
X003318Y002677D01*
X003367Y002677D02*
X003222Y002677D01*
X003367Y002677D02*
X003415Y002629D01*
X003415Y002532D01*
X003512Y002383D02*
X003415Y002286D01*
X003512Y002189D01*
X003222Y002189D01*
X003222Y002383D02*
X003512Y002383D01*
X003012Y002383D02*
X003012Y002189D01*
X002722Y002189D01*
X002867Y002189D02*
X002867Y002286D01*
X002867Y002778D02*
X002770Y002778D01*
X002867Y002778D02*
X002915Y002827D01*
X002915Y002972D01*
X003415Y003859D02*
X003415Y003907D01*
X003512Y003907D02*
X003560Y003907D01*
X003512Y005722D02*
X003222Y005722D01*
X003318Y005823D02*
X003415Y005920D01*
X003415Y005968D01*
X003415Y006117D02*
X003415Y006214D01*
X003367Y006262D01*
X003222Y006262D01*
X003222Y006117D01*
X003270Y006069D01*
X003318Y006117D01*
X003318Y006262D01*
X003415Y006363D02*
X003415Y006460D01*
X003464Y006412D02*
X003270Y006412D01*
X003222Y006460D01*
X003270Y006560D02*
X003222Y006608D01*
X003222Y006753D01*
X003415Y006753D01*
X003415Y006854D02*
X003222Y006854D01*
X003318Y006854D02*
X003415Y006951D01*
X003415Y006999D01*
X003367Y007100D02*
X003415Y007148D01*
X003415Y007245D01*
X003367Y007293D01*
X003318Y007293D01*
X003318Y007100D01*
X003270Y007100D02*
X003367Y007100D01*
X003270Y007100D02*
X003222Y007148D01*
X003222Y007245D01*
X003270Y006560D02*
X003415Y006560D01*
X004872Y005934D02*
X004933Y005872D01*
X005180Y005872D01*
X005119Y005811D02*
X005119Y005934D01*
X005057Y005689D02*
X004995Y005689D01*
X004995Y005442D01*
X004933Y005442D02*
X005057Y005442D01*
X005119Y005504D01*
X005119Y005628D01*
X005057Y005689D01*
X004872Y005628D02*
X004872Y005504D01*
X004933Y005442D01*
X004872Y005321D02*
X005057Y005321D01*
X005119Y005259D01*
X005119Y005074D01*
X004872Y005074D01*
X004872Y004952D02*
X004872Y004890D01*
X004933Y004890D01*
X004933Y004952D01*
X004872Y004952D01*
X004933Y004769D02*
X004872Y004707D01*
X004872Y004522D01*
X004872Y004400D02*
X004872Y004215D01*
X004933Y004153D01*
X005057Y004153D01*
X005119Y004215D01*
X005119Y004400D01*
X005057Y004522D02*
X005119Y004583D01*
X005119Y004769D01*
X004995Y004707D02*
X004995Y004583D01*
X005057Y004522D01*
X004995Y004707D02*
X004933Y004769D01*
X004872Y004031D02*
X004872Y003908D01*
X004872Y003970D02*
X005119Y003970D01*
X005119Y003908D01*
X005119Y003786D02*
X005119Y003662D01*
X005180Y003724D02*
X004933Y003724D01*
X004872Y003786D01*
X004933Y003541D02*
X005057Y003541D01*
X005119Y003479D01*
X005119Y003356D01*
X005057Y003294D01*
X004933Y003294D01*
X004872Y003356D01*
X004872Y003479D01*
X004933Y003541D01*
X004933Y003173D02*
X004872Y003111D01*
X004872Y002926D01*
X005242Y002926D01*
X005119Y002926D02*
X005119Y003111D01*
X005057Y003173D01*
X004933Y003173D01*
X004933Y002804D02*
X004872Y002743D01*
X004872Y002619D01*
X004933Y002557D01*
X005057Y002557D01*
X005119Y002619D01*
X005119Y002743D01*
X005057Y002804D01*
X004933Y002804D01*
X004872Y002436D02*
X004872Y002251D01*
X004933Y002189D01*
X005057Y002189D01*
X005119Y002251D01*
X005119Y002436D01*
X004810Y002436D01*
X004748Y002374D01*
X004748Y002313D01*
X005242Y003970D02*
X005304Y003970D01*
D11*
X001067Y000844D02*
X001067Y000771D01*
X001103Y000734D01*
X001250Y000734D01*
X001287Y000771D01*
X001287Y000844D01*
X001250Y000881D01*
X001287Y000955D02*
X001067Y001102D01*
X001287Y001102D01*
X001287Y001176D02*
X001287Y001286D01*
X001250Y001323D01*
X001103Y001323D01*
X001067Y001286D01*
X001067Y001176D01*
X001287Y001176D01*
X001287Y000955D02*
X001067Y000955D01*
X001103Y000881D02*
X001177Y000881D01*
X001177Y000807D01*
X001103Y000881D02*
X001067Y000844D01*
X001190Y002184D02*
X001117Y002257D01*
X001153Y002331D02*
X001117Y002368D01*
X001117Y002478D01*
X001117Y002552D02*
X001190Y002626D01*
X001263Y002626D01*
X001337Y002552D01*
X001263Y002478D02*
X001263Y002368D01*
X001227Y002331D01*
X001153Y002331D01*
X001190Y002184D02*
X001263Y002184D01*
X001337Y002257D01*
X001300Y002921D02*
X001337Y002957D01*
X001337Y003031D01*
X001300Y003067D01*
X001263Y003067D01*
X001117Y002921D01*
X001117Y003067D01*
X001153Y003142D02*
X001117Y003178D01*
X001117Y003252D01*
X001153Y003288D01*
X001300Y003288D01*
X001153Y003142D01*
X001300Y003142D01*
X001337Y003178D01*
X001337Y003252D01*
X001300Y003288D01*
X001263Y003363D02*
X001337Y003436D01*
X001117Y003436D01*
X001117Y003363D02*
X001117Y003509D01*
X001117Y003584D02*
X001117Y003730D01*
X001117Y003657D02*
X001337Y003657D01*
X001263Y003584D01*
X001300Y004026D02*
X001153Y004026D01*
X001117Y004062D01*
X001117Y004136D01*
X001153Y004172D01*
X001227Y004172D01*
X001227Y004099D01*
X001300Y004026D02*
X001337Y004062D01*
X001337Y004136D01*
X001300Y004172D01*
X001227Y004247D02*
X001153Y004247D01*
X001117Y004283D01*
X001117Y004357D01*
X001153Y004393D01*
X001227Y004393D01*
X001263Y004357D01*
X001263Y004283D01*
X001227Y004247D01*
X001263Y004468D02*
X001263Y004578D01*
X001227Y004614D01*
X001153Y004614D01*
X001117Y004578D01*
X001117Y004468D01*
X001337Y004468D01*
X001227Y004689D02*
X001153Y004689D01*
X001117Y004725D01*
X001117Y004799D01*
X001153Y004835D01*
X001227Y004835D01*
X001263Y004799D01*
X001263Y004725D01*
X001227Y004689D01*
X001263Y004910D02*
X001263Y004983D01*
X001300Y004946D02*
X001153Y004946D01*
X001117Y004983D01*
X001117Y005057D02*
X001117Y005130D01*
X001117Y005094D02*
X001263Y005094D01*
X001263Y005057D01*
X001337Y005094D02*
X001374Y005094D01*
X001227Y005204D02*
X001263Y005241D01*
X001263Y005351D01*
X001227Y005425D02*
X001190Y005462D01*
X001190Y005535D01*
X001153Y005572D01*
X001117Y005535D01*
X001117Y005425D01*
X001117Y005351D02*
X001117Y005241D01*
X001153Y005204D01*
X001227Y005204D01*
X001227Y005425D02*
X001263Y005462D01*
X001263Y005572D01*
X001337Y005867D02*
X001337Y005904D01*
X001117Y005904D01*
X001117Y005867D02*
X001117Y005941D01*
X001153Y006051D02*
X001117Y006088D01*
X001153Y006051D02*
X001300Y006051D01*
X001263Y006014D02*
X001263Y006088D01*
X001227Y006162D02*
X001263Y006199D01*
X001263Y006309D01*
X001337Y006309D02*
X001117Y006309D01*
X001117Y006199D01*
X001153Y006162D01*
X001227Y006162D01*
X002167Y000931D02*
X002313Y000931D01*
X002387Y000857D01*
X002313Y000784D01*
X002167Y000784D01*
X002277Y000784D02*
X002277Y000931D01*
X003967Y000894D02*
X003967Y000784D01*
X004187Y000784D01*
X004187Y000894D01*
X004150Y000931D01*
X004113Y000931D01*
X004077Y000894D01*
X004077Y000784D01*
X004077Y000894D02*
X004040Y000931D01*
X004003Y000931D01*
X003967Y000894D01*
X005017Y000844D02*
X005017Y000771D01*
X005053Y000734D01*
X005127Y000734D02*
X005163Y000807D01*
X005163Y000844D01*
X005127Y000881D01*
X005053Y000881D01*
X005017Y000844D01*
X005090Y000955D02*
X005017Y001028D01*
X005090Y001102D01*
X005237Y001102D01*
X005237Y000955D02*
X005090Y000955D01*
X005237Y000881D02*
X005237Y000734D01*
X005127Y000734D01*
M02*
