G75*
G70*
%OFA0B0*%
%FSLAX24Y24*%
%IPPOS*%
%LPD*%
%AMOC8*
5,1,8,0,0,1.08239X$1,22.5*
%
%ADD10C,0.0000*%
%ADD11R,0.0490X0.0190*%
%ADD12R,0.0631X0.0552*%
%ADD13R,0.0631X0.0631*%
%ADD14R,0.0552X0.0631*%
%ADD15C,0.0640*%
%ADD16C,0.1221*%
D10*
X000101Y000381D02*
X000101Y005527D01*
X010221Y005527D01*
X010221Y000381D01*
X000101Y000381D01*
X001710Y002981D02*
X001712Y003029D01*
X001718Y003077D01*
X001728Y003124D01*
X001741Y003170D01*
X001759Y003215D01*
X001779Y003259D01*
X001804Y003301D01*
X001832Y003340D01*
X001862Y003377D01*
X001896Y003411D01*
X001933Y003443D01*
X001971Y003472D01*
X002012Y003497D01*
X002055Y003519D01*
X002100Y003537D01*
X002146Y003551D01*
X002193Y003562D01*
X002241Y003569D01*
X002289Y003572D01*
X002337Y003571D01*
X002385Y003566D01*
X002433Y003557D01*
X002479Y003545D01*
X002524Y003528D01*
X002568Y003508D01*
X002610Y003485D01*
X002650Y003458D01*
X002688Y003428D01*
X002723Y003395D01*
X002755Y003359D01*
X002785Y003321D01*
X002811Y003280D01*
X002833Y003237D01*
X002853Y003193D01*
X002868Y003148D01*
X002880Y003101D01*
X002888Y003053D01*
X002892Y003005D01*
X002892Y002957D01*
X002888Y002909D01*
X002880Y002861D01*
X002868Y002814D01*
X002853Y002769D01*
X002833Y002725D01*
X002811Y002682D01*
X002785Y002641D01*
X002755Y002603D01*
X002723Y002567D01*
X002688Y002534D01*
X002650Y002504D01*
X002610Y002477D01*
X002568Y002454D01*
X002524Y002434D01*
X002479Y002417D01*
X002433Y002405D01*
X002385Y002396D01*
X002337Y002391D01*
X002289Y002390D01*
X002241Y002393D01*
X002193Y002400D01*
X002146Y002411D01*
X002100Y002425D01*
X002055Y002443D01*
X002012Y002465D01*
X001971Y002490D01*
X001933Y002519D01*
X001896Y002551D01*
X001862Y002585D01*
X001832Y002622D01*
X001804Y002661D01*
X001779Y002703D01*
X001759Y002747D01*
X001741Y002792D01*
X001728Y002838D01*
X001718Y002885D01*
X001712Y002933D01*
X001710Y002981D01*
D11*
X004976Y002906D03*
X004976Y002656D03*
X004976Y002406D03*
X004976Y002156D03*
X004976Y001906D03*
X007026Y001906D03*
X007026Y002156D03*
X007026Y002406D03*
X007026Y002656D03*
X007026Y002906D03*
X007026Y003156D03*
X007026Y003406D03*
X007026Y003656D03*
X004976Y003656D03*
X004976Y003406D03*
X004976Y003156D03*
D12*
X004351Y002565D03*
X004351Y001896D03*
X007701Y003646D03*
X007701Y004315D03*
D13*
X007951Y002970D03*
X007951Y001592D03*
D14*
X006335Y004181D03*
X005666Y004181D03*
D15*
X008801Y004281D02*
X009401Y004281D01*
X009401Y003281D02*
X008801Y003281D01*
X008801Y002281D02*
X009401Y002281D01*
X009401Y001281D02*
X008801Y001281D01*
D16*
X002301Y002981D03*
M02*
