G75*
G70*
%OFA0B0*%
%FSLAX24Y24*%
%IPPOS*%
%LPD*%
%AMOC8*
5,1,8,0,0,1.08239X$1,22.5*
%
%ADD10C,0.0010*%
%ADD11C,0.0000*%
%ADD12C,0.0020*%
%ADD13C,0.0030*%
D10*
X009858Y001237D02*
X009858Y001312D01*
X010008Y001312D01*
X010008Y001237D01*
X009983Y001212D01*
X009883Y001212D01*
X009858Y001237D01*
X009858Y001359D02*
X010008Y001359D01*
X009858Y001459D01*
X010008Y001459D01*
X009983Y001506D02*
X009933Y001506D01*
X009933Y001556D01*
X009883Y001506D02*
X009858Y001531D01*
X009858Y001581D01*
X009883Y001606D01*
X009983Y001606D01*
X010008Y001581D01*
X010008Y001531D01*
X009983Y001506D01*
X009983Y002356D02*
X010008Y002381D01*
X010008Y002456D01*
X009858Y002456D01*
X009858Y002381D01*
X009883Y002356D01*
X009908Y002356D01*
X009933Y002381D01*
X009933Y002456D01*
X009933Y002381D02*
X009958Y002356D01*
X009983Y002356D01*
X010008Y003356D02*
X009908Y003356D01*
X009858Y003406D01*
X009908Y003456D01*
X010008Y003456D01*
X009933Y003456D02*
X009933Y003356D01*
X009958Y004309D02*
X009858Y004309D01*
X009958Y004309D02*
X010008Y004359D01*
X009958Y004409D01*
X009858Y004409D01*
X009858Y004456D02*
X009858Y004556D01*
X009933Y004556D01*
X009908Y004506D01*
X009908Y004481D01*
X009933Y004456D01*
X009983Y004456D01*
X010008Y004481D01*
X010008Y004531D01*
X009983Y004556D01*
D11*
X004413Y001661D02*
X003213Y001661D01*
X004413Y001661D02*
X004447Y001659D01*
X004480Y001653D01*
X004512Y001644D01*
X004543Y001631D01*
X004573Y001615D01*
X004600Y001596D01*
X004625Y001573D01*
X004648Y001548D01*
X004667Y001521D01*
X004683Y001491D01*
X004696Y001460D01*
X004705Y001428D01*
X004711Y001395D01*
X004713Y001361D01*
X004713Y001261D01*
X004715Y001227D01*
X004721Y001194D01*
X004730Y001162D01*
X004743Y001131D01*
X004759Y001101D01*
X004778Y001074D01*
X004801Y001049D01*
X004826Y001026D01*
X004853Y001007D01*
X004883Y000991D01*
X004914Y000978D01*
X004946Y000969D01*
X004979Y000963D01*
X005013Y000961D01*
X009813Y000961D01*
X009847Y000963D01*
X009880Y000969D01*
X009912Y000978D01*
X009943Y000991D01*
X009973Y001007D01*
X010000Y001026D01*
X010025Y001049D01*
X010048Y001074D01*
X010067Y001101D01*
X010083Y001131D01*
X010096Y001162D01*
X010105Y001194D01*
X010111Y001227D01*
X010113Y001261D01*
X010113Y004561D01*
X010107Y004595D01*
X010097Y004628D01*
X010084Y004661D01*
X010068Y004691D01*
X010048Y004720D01*
X010027Y004747D01*
X010002Y004772D01*
X009975Y004794D01*
X009947Y004814D01*
X009916Y004830D01*
X009884Y004844D01*
X009851Y004854D01*
X009817Y004861D01*
X009782Y004864D01*
X009748Y004865D01*
X009713Y004861D01*
X003213Y004861D01*
X002622Y003261D02*
X002624Y003309D01*
X002630Y003357D01*
X002640Y003404D01*
X002653Y003450D01*
X002671Y003495D01*
X002691Y003539D01*
X002716Y003581D01*
X002744Y003620D01*
X002774Y003657D01*
X002808Y003691D01*
X002845Y003723D01*
X002883Y003752D01*
X002924Y003777D01*
X002967Y003799D01*
X003012Y003817D01*
X003058Y003831D01*
X003105Y003842D01*
X003153Y003849D01*
X003201Y003852D01*
X003249Y003851D01*
X003297Y003846D01*
X003345Y003837D01*
X003391Y003825D01*
X003436Y003808D01*
X003480Y003788D01*
X003522Y003765D01*
X003562Y003738D01*
X003600Y003708D01*
X003635Y003675D01*
X003667Y003639D01*
X003697Y003601D01*
X003723Y003560D01*
X003745Y003517D01*
X003765Y003473D01*
X003780Y003428D01*
X003792Y003381D01*
X003800Y003333D01*
X003804Y003285D01*
X003804Y003237D01*
X003800Y003189D01*
X003792Y003141D01*
X003780Y003094D01*
X003765Y003049D01*
X003745Y003005D01*
X003723Y002962D01*
X003697Y002921D01*
X003667Y002883D01*
X003635Y002847D01*
X003600Y002814D01*
X003562Y002784D01*
X003522Y002757D01*
X003480Y002734D01*
X003436Y002714D01*
X003391Y002697D01*
X003345Y002685D01*
X003297Y002676D01*
X003249Y002671D01*
X003201Y002670D01*
X003153Y002673D01*
X003105Y002680D01*
X003058Y002691D01*
X003012Y002705D01*
X002967Y002723D01*
X002924Y002745D01*
X002883Y002770D01*
X002845Y002799D01*
X002808Y002831D01*
X002774Y002865D01*
X002744Y002902D01*
X002716Y002941D01*
X002691Y002983D01*
X002671Y003027D01*
X002653Y003072D01*
X002640Y003118D01*
X002630Y003165D01*
X002624Y003213D01*
X002622Y003261D01*
X001613Y003261D02*
X001615Y003182D01*
X001621Y003104D01*
X001630Y003026D01*
X001644Y002949D01*
X001661Y002872D01*
X001682Y002797D01*
X001707Y002722D01*
X001735Y002649D01*
X001767Y002577D01*
X001802Y002507D01*
X001841Y002438D01*
X001883Y002372D01*
X001928Y002308D01*
X001976Y002246D01*
X002027Y002187D01*
X002082Y002130D01*
X002139Y002075D01*
X002198Y002024D01*
X002260Y001976D01*
X002324Y001931D01*
X002390Y001889D01*
X002459Y001850D01*
X002529Y001815D01*
X002601Y001783D01*
X002674Y001755D01*
X002749Y001730D01*
X002824Y001709D01*
X002901Y001692D01*
X002978Y001678D01*
X003056Y001669D01*
X003134Y001663D01*
X003213Y001661D01*
X001613Y003261D02*
X001615Y003340D01*
X001621Y003418D01*
X001630Y003496D01*
X001644Y003573D01*
X001661Y003650D01*
X001682Y003725D01*
X001707Y003800D01*
X001735Y003873D01*
X001767Y003945D01*
X001802Y004015D01*
X001841Y004084D01*
X001883Y004150D01*
X001928Y004214D01*
X001976Y004276D01*
X002027Y004335D01*
X002082Y004392D01*
X002139Y004447D01*
X002198Y004498D01*
X002260Y004546D01*
X002324Y004591D01*
X002390Y004633D01*
X002459Y004672D01*
X002529Y004707D01*
X002601Y004739D01*
X002674Y004767D01*
X002749Y004792D01*
X002824Y004813D01*
X002901Y004830D01*
X002978Y004844D01*
X003056Y004853D01*
X003134Y004859D01*
X003213Y004861D01*
D12*
X007164Y002078D02*
X007164Y002041D01*
X007164Y001968D02*
X007164Y001821D01*
X007128Y001821D02*
X007201Y001821D01*
X007275Y001821D02*
X007312Y001858D01*
X007312Y002005D01*
X007348Y001968D02*
X007275Y001968D01*
X007201Y001968D02*
X007164Y001968D01*
X007054Y001931D02*
X007054Y001858D01*
X007017Y001821D01*
X006907Y001821D01*
X006907Y001968D02*
X007017Y001968D01*
X007054Y001931D01*
X007423Y001931D02*
X007423Y001895D01*
X007569Y001895D01*
X007569Y001931D02*
X007533Y001968D01*
X007459Y001968D01*
X007423Y001931D01*
X007459Y001821D02*
X007533Y001821D01*
X007569Y001858D01*
X007569Y001931D01*
X007644Y001931D02*
X007644Y001821D01*
X007644Y001931D02*
X007680Y001968D01*
X007790Y001968D01*
X007790Y001821D01*
X007864Y001821D02*
X007975Y001821D01*
X008011Y001858D01*
X008011Y001931D01*
X007975Y001968D01*
X007864Y001968D01*
X007864Y001785D01*
X007901Y001748D01*
X007938Y001748D01*
X007975Y001618D02*
X007864Y001618D01*
X007790Y001581D02*
X007790Y001508D01*
X007754Y001471D01*
X007680Y001471D01*
X007644Y001508D01*
X007644Y001581D01*
X007680Y001618D01*
X007754Y001618D01*
X007790Y001581D01*
X007864Y001471D02*
X007975Y001471D01*
X008011Y001508D01*
X008011Y001581D01*
X007975Y001618D01*
X008085Y001581D02*
X008085Y001471D01*
X008085Y001581D02*
X008122Y001618D01*
X008232Y001618D01*
X008232Y001471D01*
X008306Y001471D02*
X008453Y001471D01*
X008453Y001691D01*
X008306Y001691D01*
X008380Y001581D02*
X008453Y001581D01*
X008453Y001821D02*
X008453Y002041D01*
X008380Y001968D01*
X008306Y002041D01*
X008306Y001821D01*
X008232Y001858D02*
X008196Y001895D01*
X008085Y001895D01*
X008085Y001931D02*
X008085Y001821D01*
X008196Y001821D01*
X008232Y001858D01*
X008196Y001968D02*
X008122Y001968D01*
X008085Y001931D01*
X007569Y001581D02*
X007533Y001618D01*
X007423Y001618D01*
X007423Y001691D02*
X007423Y001471D01*
X007533Y001471D01*
X007569Y001508D01*
X007569Y001581D01*
X007348Y001581D02*
X007348Y001508D01*
X007312Y001471D01*
X007238Y001471D01*
X007202Y001545D02*
X007348Y001545D01*
X007348Y001581D02*
X007312Y001618D01*
X007238Y001618D01*
X007202Y001581D01*
X007202Y001545D01*
X007127Y001545D02*
X007054Y001618D01*
X007017Y001618D01*
X007127Y001618D02*
X007127Y001471D01*
X006722Y001618D02*
X006649Y001471D01*
X006575Y001618D01*
X006501Y001618D02*
X006428Y001691D01*
X006428Y001471D01*
X006501Y001471D02*
X006354Y001471D01*
X006280Y001471D02*
X006244Y001471D01*
X006244Y001508D01*
X006280Y001508D01*
X006280Y001471D01*
X006170Y001508D02*
X006133Y001471D01*
X006060Y001471D01*
X006023Y001508D01*
X006023Y001581D01*
X006060Y001618D01*
X006096Y001618D01*
X006170Y001581D01*
X006170Y001691D01*
X006023Y001691D01*
X006023Y001821D02*
X006133Y001821D01*
X006170Y001858D01*
X006133Y001895D01*
X006023Y001895D01*
X006023Y001931D02*
X006023Y001821D01*
X005949Y001858D02*
X005949Y001931D01*
X005912Y001968D01*
X005802Y001968D01*
X005802Y002041D02*
X005802Y001821D01*
X005912Y001821D01*
X005949Y001858D01*
X006023Y001931D02*
X006060Y001968D01*
X006133Y001968D01*
X006244Y001968D02*
X006244Y001821D01*
X006354Y001821D01*
X006391Y001858D01*
X006391Y001968D01*
X006465Y002005D02*
X006465Y001858D01*
X006502Y001821D01*
X006575Y001821D01*
X006612Y001858D01*
X006612Y002005D01*
X006575Y002041D01*
X006502Y002041D01*
X006465Y002005D01*
X006538Y001895D02*
X006465Y001821D01*
X005728Y001821D02*
X005728Y001968D01*
X005728Y001895D02*
X005654Y001968D01*
X005618Y001968D01*
X005507Y001968D02*
X005434Y001968D01*
X005397Y001931D01*
X005397Y001821D01*
X005507Y001821D01*
X005544Y001858D01*
X005507Y001895D01*
X005397Y001895D01*
X005323Y001968D02*
X005249Y001968D01*
X005286Y002005D02*
X005286Y001858D01*
X005249Y001821D01*
X005175Y001858D02*
X005139Y001821D01*
X005029Y001821D01*
X005029Y001968D01*
X004954Y001968D02*
X004954Y001821D01*
X004954Y001895D02*
X004881Y001968D01*
X004844Y001968D01*
X004770Y001931D02*
X004734Y001968D01*
X004660Y001968D01*
X004623Y001931D01*
X004623Y001895D01*
X004770Y001895D01*
X004770Y001931D02*
X004770Y001858D01*
X004734Y001821D01*
X004660Y001821D01*
X005175Y001858D02*
X005175Y001968D01*
D13*
X008151Y004315D02*
X008213Y004253D01*
X008275Y004253D01*
X008151Y004315D02*
X008151Y004623D01*
X008337Y004623D01*
X008398Y004561D01*
X008398Y004438D01*
X008337Y004376D01*
X008151Y004376D01*
X008030Y004438D02*
X007968Y004376D01*
X007845Y004376D01*
X007783Y004438D01*
X007783Y004561D01*
X007845Y004623D01*
X007968Y004623D01*
X008030Y004561D01*
X008030Y004438D01*
X007662Y004376D02*
X007476Y004376D01*
X007415Y004438D01*
X007415Y004561D01*
X007476Y004623D01*
X007662Y004623D01*
X007662Y004747D02*
X007662Y004376D01*
X007293Y004438D02*
X007293Y004561D01*
X007232Y004623D01*
X007108Y004623D01*
X007046Y004561D01*
X007046Y004438D01*
X007108Y004376D01*
X007232Y004376D01*
X007293Y004438D01*
X006925Y004623D02*
X006802Y004623D01*
X006863Y004685D02*
X006863Y004438D01*
X006802Y004376D01*
X006679Y004376D02*
X006556Y004376D01*
X006618Y004376D02*
X006618Y004623D01*
X006679Y004623D01*
X006618Y004747D02*
X006618Y004808D01*
X006372Y004623D02*
X006434Y004561D01*
X006434Y004438D01*
X006372Y004376D01*
X006187Y004376D01*
X006066Y004376D02*
X005881Y004376D01*
X005819Y004438D01*
X005881Y004500D01*
X006004Y004500D01*
X006066Y004561D01*
X006004Y004623D01*
X005819Y004623D01*
X005697Y004438D02*
X005636Y004438D01*
X005636Y004376D01*
X005697Y004376D01*
X005697Y004438D01*
X005513Y004376D02*
X005513Y004623D01*
X005328Y004623D01*
X005266Y004561D01*
X005266Y004376D01*
X005145Y004438D02*
X005145Y004561D01*
X005083Y004623D01*
X004960Y004623D01*
X004898Y004561D01*
X004898Y004500D01*
X005145Y004500D01*
X005145Y004438D02*
X005083Y004376D01*
X004960Y004376D01*
X004715Y004438D02*
X004653Y004376D01*
X004715Y004438D02*
X004715Y004685D01*
X004777Y004623D02*
X004653Y004623D01*
X006187Y004623D02*
X006372Y004623D01*
M02*
