G75*
G70*
%OFA0B0*%
%FSLAX24Y24*%
%IPPOS*%
%LPD*%
%AMOC8*
5,1,8,0,0,1.08239X$1,22.5*
%
%ADD10R,0.0181X0.0563*%
%ADD11R,0.0591X0.0512*%
%ADD12R,0.0512X0.0591*%
%ADD13R,0.0591X0.0591*%
%ADD14C,0.0600*%
%ADD15C,0.0160*%
%ADD16OC8,0.0356*%
%ADD17C,0.0060*%
%ADD18C,0.0120*%
D10*
X003091Y002630D03*
X003347Y002630D03*
X003603Y002630D03*
X003859Y002630D03*
X004115Y002630D03*
X004371Y002630D03*
X004627Y002630D03*
X004883Y002630D03*
X004883Y005618D03*
X004627Y005618D03*
X004371Y005618D03*
X004115Y005618D03*
X003859Y005618D03*
X003603Y005618D03*
X003347Y005618D03*
X003091Y005618D03*
D11*
X002287Y004859D03*
X002287Y004189D03*
D12*
X002322Y005524D03*
X001652Y005524D03*
X001652Y002524D03*
X002322Y002524D03*
D13*
X001587Y003185D03*
X001587Y004563D03*
D14*
X001687Y001724D02*
X001687Y001124D01*
X002687Y001124D02*
X002687Y001724D01*
X003687Y001724D02*
X003687Y001124D01*
X004687Y001124D02*
X004687Y001724D01*
D15*
X004627Y002630D02*
X004883Y002630D01*
X003859Y002630D02*
X003859Y001596D01*
X003687Y001424D01*
X003537Y002174D02*
X002737Y002174D01*
X002687Y002124D01*
X002687Y001424D01*
X003537Y002174D02*
X003603Y002240D01*
X003603Y002630D01*
X003087Y002634D02*
X003087Y003524D01*
X002887Y003724D01*
X001787Y003724D01*
X001587Y003924D01*
X001587Y004563D01*
X001587Y005274D01*
X001652Y005524D01*
X002287Y004859D02*
X002287Y004809D01*
X003347Y004809D01*
X003347Y005618D01*
X003091Y005618D02*
X003091Y005524D01*
X002841Y005528D01*
X002837Y005174D01*
X003091Y005524D02*
X002322Y005524D01*
X001587Y003185D02*
X001652Y002524D01*
X004371Y005618D02*
X004627Y005618D01*
D16*
X002837Y005174D03*
D17*
X001067Y005961D02*
X001067Y000704D01*
X005307Y000704D01*
X005307Y005961D01*
X005039Y005961D01*
X005063Y005937D01*
X005063Y005299D01*
X005010Y005247D01*
X004755Y005247D01*
X004702Y005299D01*
X004702Y005937D01*
X004726Y005961D01*
X004662Y005961D01*
X004488Y005889D01*
X004295Y005889D01*
X004295Y005299D01*
X004243Y005247D01*
X003987Y005247D01*
X003987Y005247D01*
X003987Y005247D01*
X003731Y005247D01*
X003731Y005247D01*
X003731Y005247D01*
X003517Y005247D01*
X003517Y004879D01*
X003517Y004738D01*
X003418Y004639D01*
X002672Y004639D01*
X002672Y004566D01*
X002619Y004513D01*
X001972Y004513D01*
X001972Y004231D01*
X001919Y004178D01*
X001757Y004178D01*
X001757Y003994D01*
X001857Y003894D01*
X002816Y003894D01*
X002957Y003894D01*
X003157Y003694D01*
X003257Y003594D01*
X003257Y003001D01*
X003475Y003001D01*
X003475Y003001D01*
X003475Y003001D01*
X003731Y003001D01*
X003731Y003001D01*
X003731Y003001D01*
X003987Y003001D01*
X003987Y003001D01*
X003987Y003001D01*
X004243Y003001D01*
X004243Y003001D01*
X004243Y003001D01*
X004499Y003001D01*
X004551Y002949D01*
X004551Y002311D01*
X004499Y002259D01*
X004243Y002259D01*
X004243Y002259D01*
X004243Y002259D01*
X004029Y002259D01*
X004029Y001917D01*
X004077Y001802D01*
X004077Y001046D01*
X004018Y000903D01*
X003908Y000793D01*
X003764Y000734D01*
X003609Y000734D01*
X003466Y000793D01*
X003356Y000903D01*
X003297Y001046D01*
X003297Y001802D01*
X003356Y001945D01*
X003415Y002004D01*
X002958Y002004D01*
X003018Y001945D01*
X003077Y001802D01*
X003077Y001046D01*
X003018Y000903D01*
X002908Y000793D01*
X002764Y000734D01*
X002609Y000734D01*
X002466Y000793D01*
X002356Y000903D01*
X002297Y001046D01*
X002297Y001802D01*
X002356Y001945D01*
X002466Y002055D01*
X002517Y002076D01*
X002517Y002194D01*
X002616Y002294D01*
X002666Y002344D01*
X002807Y002344D01*
X002911Y002344D01*
X002911Y002949D01*
X002917Y002955D01*
X002917Y003454D01*
X002816Y003554D01*
X001936Y003554D01*
X001972Y003518D01*
X001972Y002883D01*
X001998Y002857D01*
X001998Y002192D01*
X001945Y002139D01*
X001359Y002139D01*
X001306Y002192D01*
X001306Y002800D01*
X001254Y002800D01*
X001202Y002853D01*
X001202Y003518D01*
X001254Y003570D01*
X001700Y003570D01*
X001617Y003654D01*
X001417Y003854D01*
X001417Y003994D01*
X001417Y004178D01*
X001254Y004178D01*
X001202Y004231D01*
X001202Y004896D01*
X001254Y004948D01*
X001417Y004948D01*
X001417Y005139D01*
X001359Y005139D01*
X001306Y005192D01*
X001306Y005857D01*
X001359Y005909D01*
X001837Y005909D01*
X001712Y005961D01*
X001067Y005961D01*
X001067Y005910D02*
X001835Y005910D01*
X001306Y005852D02*
X001067Y005852D01*
X001067Y005793D02*
X001306Y005793D01*
X001306Y005734D02*
X001067Y005734D01*
X001067Y005676D02*
X001306Y005676D01*
X001306Y005617D02*
X001067Y005617D01*
X001067Y005559D02*
X001306Y005559D01*
X001306Y005500D02*
X001067Y005500D01*
X001067Y005442D02*
X001306Y005442D01*
X001306Y005383D02*
X001067Y005383D01*
X001067Y005325D02*
X001306Y005325D01*
X001306Y005266D02*
X001067Y005266D01*
X001067Y005208D02*
X001306Y005208D01*
X001349Y005149D02*
X001067Y005149D01*
X001067Y005090D02*
X001417Y005090D01*
X001417Y005032D02*
X001067Y005032D01*
X001067Y004973D02*
X001417Y004973D01*
X001221Y004915D02*
X001067Y004915D01*
X001067Y004856D02*
X001202Y004856D01*
X001202Y004798D02*
X001067Y004798D01*
X001067Y004739D02*
X001202Y004739D01*
X001202Y004681D02*
X001067Y004681D01*
X001067Y004622D02*
X001202Y004622D01*
X001202Y004564D02*
X001067Y004564D01*
X001067Y004505D02*
X001202Y004505D01*
X001202Y004446D02*
X001067Y004446D01*
X001067Y004388D02*
X001202Y004388D01*
X001202Y004329D02*
X001067Y004329D01*
X001067Y004271D02*
X001202Y004271D01*
X001220Y004212D02*
X001067Y004212D01*
X001067Y004154D02*
X001417Y004154D01*
X001417Y004095D02*
X001067Y004095D01*
X001067Y004037D02*
X001417Y004037D01*
X001417Y003978D02*
X001067Y003978D01*
X001067Y003920D02*
X001417Y003920D01*
X001417Y003861D02*
X001067Y003861D01*
X001067Y003803D02*
X001468Y003803D01*
X001527Y003744D02*
X001067Y003744D01*
X001067Y003685D02*
X001585Y003685D01*
X001644Y003627D02*
X001067Y003627D01*
X001067Y003568D02*
X001252Y003568D01*
X001202Y003510D02*
X001067Y003510D01*
X001067Y003451D02*
X001202Y003451D01*
X001202Y003393D02*
X001067Y003393D01*
X001067Y003334D02*
X001202Y003334D01*
X001202Y003276D02*
X001067Y003276D01*
X001067Y003217D02*
X001202Y003217D01*
X001202Y003159D02*
X001067Y003159D01*
X001067Y003100D02*
X001202Y003100D01*
X001202Y003041D02*
X001067Y003041D01*
X001067Y002983D02*
X001202Y002983D01*
X001202Y002924D02*
X001067Y002924D01*
X001067Y002866D02*
X001202Y002866D01*
X001247Y002807D02*
X001067Y002807D01*
X001067Y002749D02*
X001306Y002749D01*
X001306Y002690D02*
X001067Y002690D01*
X001067Y002632D02*
X001306Y002632D01*
X001306Y002573D02*
X001067Y002573D01*
X001067Y002515D02*
X001306Y002515D01*
X001306Y002456D02*
X001067Y002456D01*
X001067Y002397D02*
X001306Y002397D01*
X001306Y002339D02*
X001067Y002339D01*
X001067Y002280D02*
X001306Y002280D01*
X001306Y002222D02*
X001067Y002222D01*
X001067Y002163D02*
X001335Y002163D01*
X001067Y002105D02*
X002517Y002105D01*
X002517Y002163D02*
X001970Y002163D01*
X001998Y002222D02*
X002544Y002222D01*
X002603Y002280D02*
X001998Y002280D01*
X001998Y002339D02*
X002661Y002339D01*
X002911Y002397D02*
X001998Y002397D01*
X001998Y002456D02*
X002911Y002456D01*
X002911Y002515D02*
X001998Y002515D01*
X001998Y002573D02*
X002911Y002573D01*
X002911Y002632D02*
X001998Y002632D01*
X001998Y002690D02*
X002911Y002690D01*
X002911Y002749D02*
X001998Y002749D01*
X001998Y002807D02*
X002911Y002807D01*
X002911Y002866D02*
X001989Y002866D01*
X001972Y002924D02*
X002911Y002924D01*
X002917Y002983D02*
X001972Y002983D01*
X001972Y003041D02*
X002917Y003041D01*
X002917Y003100D02*
X001972Y003100D01*
X001972Y003159D02*
X002917Y003159D01*
X002917Y003217D02*
X001972Y003217D01*
X001972Y003276D02*
X002917Y003276D01*
X002917Y003334D02*
X001972Y003334D01*
X001972Y003393D02*
X002917Y003393D01*
X002917Y003451D02*
X001972Y003451D01*
X001972Y003510D02*
X002861Y003510D01*
X003107Y003744D02*
X005307Y003744D01*
X005307Y003803D02*
X003049Y003803D01*
X002990Y003861D02*
X005307Y003861D01*
X005307Y003920D02*
X001832Y003920D01*
X001773Y003978D02*
X005307Y003978D01*
X005307Y004037D02*
X001757Y004037D01*
X001757Y004095D02*
X005307Y004095D01*
X005307Y004154D02*
X001757Y004154D01*
X001954Y004212D02*
X005307Y004212D01*
X005307Y004271D02*
X001972Y004271D01*
X001972Y004329D02*
X005307Y004329D01*
X005307Y004388D02*
X001972Y004388D01*
X001972Y004446D02*
X005307Y004446D01*
X005307Y004505D02*
X001972Y004505D01*
X002670Y004564D02*
X005307Y004564D01*
X005307Y004622D02*
X002672Y004622D01*
X003166Y003685D02*
X005307Y003685D01*
X005307Y003627D02*
X003224Y003627D01*
X003257Y003568D02*
X005307Y003568D01*
X005307Y003510D02*
X003257Y003510D01*
X003257Y003451D02*
X005307Y003451D01*
X005307Y003393D02*
X003257Y003393D01*
X003257Y003334D02*
X005307Y003334D01*
X005307Y003276D02*
X003257Y003276D01*
X003257Y003217D02*
X005307Y003217D01*
X005307Y003159D02*
X003257Y003159D01*
X003257Y003100D02*
X005307Y003100D01*
X005307Y003041D02*
X003257Y003041D01*
X004029Y002222D02*
X005307Y002222D01*
X005307Y002280D02*
X004520Y002280D01*
X004551Y002339D02*
X005307Y002339D01*
X005307Y002397D02*
X004551Y002397D01*
X004551Y002456D02*
X005307Y002456D01*
X005307Y002515D02*
X004551Y002515D01*
X004551Y002573D02*
X005307Y002573D01*
X005307Y002632D02*
X004551Y002632D01*
X004551Y002690D02*
X005307Y002690D01*
X005307Y002749D02*
X004551Y002749D01*
X004551Y002807D02*
X005307Y002807D01*
X005307Y002866D02*
X004551Y002866D01*
X004551Y002924D02*
X005307Y002924D01*
X005307Y002983D02*
X004517Y002983D01*
X004029Y002163D02*
X005307Y002163D01*
X005307Y002105D02*
X004787Y002105D01*
X004764Y002114D02*
X004609Y002114D01*
X004466Y002055D01*
X004356Y001945D01*
X004297Y001802D01*
X004297Y001046D01*
X004356Y000903D01*
X004466Y000793D01*
X004609Y000734D01*
X004764Y000734D01*
X004908Y000793D01*
X005018Y000903D01*
X005077Y001046D01*
X005077Y001802D01*
X005018Y001945D01*
X004908Y002055D01*
X004764Y002114D01*
X004916Y002046D02*
X005307Y002046D01*
X005307Y001988D02*
X004975Y001988D01*
X005024Y001929D02*
X005307Y001929D01*
X005307Y001871D02*
X005048Y001871D01*
X005073Y001812D02*
X005307Y001812D01*
X005307Y001754D02*
X005077Y001754D01*
X005077Y001695D02*
X005307Y001695D01*
X005307Y001636D02*
X005077Y001636D01*
X005077Y001578D02*
X005307Y001578D01*
X005307Y001519D02*
X005077Y001519D01*
X005077Y001461D02*
X005307Y001461D01*
X005307Y001402D02*
X005077Y001402D01*
X005077Y001344D02*
X005307Y001344D01*
X005307Y001285D02*
X005077Y001285D01*
X005077Y001227D02*
X005307Y001227D01*
X005307Y001168D02*
X005077Y001168D01*
X005077Y001110D02*
X005307Y001110D01*
X005307Y001051D02*
X005077Y001051D01*
X005054Y000992D02*
X005307Y000992D01*
X005307Y000934D02*
X005030Y000934D01*
X004990Y000875D02*
X005307Y000875D01*
X005307Y000817D02*
X004931Y000817D01*
X004823Y000758D02*
X005307Y000758D01*
X004551Y000758D02*
X003823Y000758D01*
X003931Y000817D02*
X004443Y000817D01*
X004384Y000875D02*
X003990Y000875D01*
X004030Y000934D02*
X004344Y000934D01*
X004319Y000992D02*
X004054Y000992D01*
X004077Y001051D02*
X004297Y001051D01*
X004297Y001110D02*
X004077Y001110D01*
X004077Y001168D02*
X004297Y001168D01*
X004297Y001227D02*
X004077Y001227D01*
X004077Y001285D02*
X004297Y001285D01*
X004297Y001344D02*
X004077Y001344D01*
X004077Y001402D02*
X004297Y001402D01*
X004297Y001461D02*
X004077Y001461D01*
X004077Y001519D02*
X004297Y001519D01*
X004297Y001578D02*
X004077Y001578D01*
X004077Y001636D02*
X004297Y001636D01*
X004297Y001695D02*
X004077Y001695D01*
X004077Y001754D02*
X004297Y001754D01*
X004301Y001812D02*
X004073Y001812D01*
X004048Y001871D02*
X004326Y001871D01*
X004350Y001929D02*
X004029Y001929D01*
X004029Y001988D02*
X004399Y001988D01*
X004458Y002046D02*
X004029Y002046D01*
X004029Y002105D02*
X004587Y002105D01*
X003551Y000758D02*
X002823Y000758D01*
X002931Y000817D02*
X003443Y000817D01*
X003384Y000875D02*
X002990Y000875D01*
X003030Y000934D02*
X003344Y000934D01*
X003319Y000992D02*
X003054Y000992D01*
X003077Y001051D02*
X003297Y001051D01*
X003297Y001110D02*
X003077Y001110D01*
X003077Y001168D02*
X003297Y001168D01*
X003297Y001227D02*
X003077Y001227D01*
X003077Y001285D02*
X003297Y001285D01*
X003297Y001344D02*
X003077Y001344D01*
X003077Y001402D02*
X003297Y001402D01*
X003297Y001461D02*
X003077Y001461D01*
X003077Y001519D02*
X003297Y001519D01*
X003297Y001578D02*
X003077Y001578D01*
X003077Y001636D02*
X003297Y001636D01*
X003297Y001695D02*
X003077Y001695D01*
X003077Y001754D02*
X003297Y001754D01*
X003301Y001812D02*
X003073Y001812D01*
X003048Y001871D02*
X003326Y001871D01*
X003350Y001929D02*
X003024Y001929D01*
X002975Y001988D02*
X003399Y001988D01*
X002458Y002046D02*
X001067Y002046D01*
X001067Y001988D02*
X002399Y001988D01*
X002350Y001929D02*
X001067Y001929D01*
X001067Y001871D02*
X002326Y001871D01*
X002301Y001812D02*
X001067Y001812D01*
X001067Y001754D02*
X002297Y001754D01*
X002297Y001695D02*
X001067Y001695D01*
X001067Y001636D02*
X002297Y001636D01*
X002297Y001578D02*
X001067Y001578D01*
X001067Y001519D02*
X002297Y001519D01*
X002297Y001461D02*
X001067Y001461D01*
X001067Y001402D02*
X002297Y001402D01*
X002297Y001344D02*
X001067Y001344D01*
X001067Y001285D02*
X002297Y001285D01*
X002297Y001227D02*
X001067Y001227D01*
X001067Y001168D02*
X002297Y001168D01*
X002297Y001110D02*
X001067Y001110D01*
X001067Y001051D02*
X002297Y001051D01*
X002319Y000992D02*
X001067Y000992D01*
X001067Y000934D02*
X002344Y000934D01*
X002384Y000875D02*
X001067Y000875D01*
X001067Y000817D02*
X002443Y000817D01*
X002551Y000758D02*
X001067Y000758D01*
X003459Y004681D02*
X005307Y004681D01*
X005307Y004739D02*
X003517Y004739D01*
X003517Y004798D02*
X005307Y004798D01*
X005307Y004856D02*
X003517Y004856D01*
X003517Y004915D02*
X005307Y004915D01*
X005307Y004973D02*
X003517Y004973D01*
X003517Y005032D02*
X005307Y005032D01*
X005307Y005090D02*
X003517Y005090D01*
X003517Y005149D02*
X005307Y005149D01*
X005307Y005208D02*
X003517Y005208D01*
X004262Y005266D02*
X004735Y005266D01*
X004702Y005325D02*
X004295Y005325D01*
X004295Y005383D02*
X004702Y005383D01*
X004702Y005442D02*
X004295Y005442D01*
X004295Y005500D02*
X004702Y005500D01*
X004702Y005559D02*
X004295Y005559D01*
X004295Y005617D02*
X004702Y005617D01*
X004702Y005676D02*
X004295Y005676D01*
X004295Y005734D02*
X004702Y005734D01*
X004702Y005793D02*
X004295Y005793D01*
X004295Y005852D02*
X004702Y005852D01*
X004702Y005910D02*
X004539Y005910D01*
X005030Y005266D02*
X005307Y005266D01*
X005307Y005325D02*
X005063Y005325D01*
X005063Y005383D02*
X005307Y005383D01*
X005307Y005442D02*
X005063Y005442D01*
X005063Y005500D02*
X005307Y005500D01*
X005307Y005559D02*
X005063Y005559D01*
X005063Y005617D02*
X005307Y005617D01*
X005307Y005676D02*
X005063Y005676D01*
X005063Y005734D02*
X005307Y005734D01*
X005307Y005793D02*
X005063Y005793D01*
X005063Y005852D02*
X005307Y005852D01*
X005307Y005910D02*
X005063Y005910D01*
D18*
X003347Y002630D02*
X003091Y002630D01*
X003087Y002634D01*
M02*
