G75*
G70*
%OFA0B0*%
%FSLAX24Y24*%
%IPPOS*%
%LPD*%
%AMOC8*
5,1,8,0,0,1.08239X$1,22.5*
%
%ADD10C,0.0000*%
%ADD11C,0.0640*%
%ADD12C,0.1221*%
D10*
X003433Y000981D02*
X009833Y000981D01*
X009867Y000983D01*
X009900Y000989D01*
X009932Y000998D01*
X009963Y001011D01*
X009993Y001027D01*
X010020Y001046D01*
X010045Y001069D01*
X010068Y001094D01*
X010087Y001121D01*
X010103Y001151D01*
X010116Y001182D01*
X010125Y001214D01*
X010131Y001247D01*
X010133Y001281D01*
X010133Y004581D01*
X010127Y004615D01*
X010117Y004648D01*
X010104Y004681D01*
X010088Y004711D01*
X010068Y004740D01*
X010047Y004767D01*
X010022Y004792D01*
X009995Y004814D01*
X009967Y004834D01*
X009936Y004850D01*
X009904Y004864D01*
X009871Y004874D01*
X009837Y004881D01*
X009802Y004884D01*
X009768Y004885D01*
X009733Y004881D01*
X003433Y004881D01*
X003343Y004879D01*
X003252Y004872D01*
X003163Y004862D01*
X003073Y004847D01*
X002985Y004827D01*
X002898Y004804D01*
X002812Y004777D01*
X002727Y004745D01*
X002644Y004709D01*
X002562Y004670D01*
X002483Y004626D01*
X002406Y004579D01*
X002331Y004529D01*
X002258Y004475D01*
X002189Y004417D01*
X002122Y004356D01*
X002058Y004292D01*
X001997Y004225D01*
X001939Y004156D01*
X001885Y004083D01*
X001835Y004008D01*
X001788Y003931D01*
X001744Y003852D01*
X001705Y003770D01*
X001669Y003687D01*
X001637Y003602D01*
X001610Y003516D01*
X001587Y003429D01*
X001567Y003341D01*
X001552Y003251D01*
X001542Y003162D01*
X001535Y003071D01*
X001533Y002981D01*
X001533Y002881D01*
X001535Y002791D01*
X001542Y002700D01*
X001552Y002611D01*
X001567Y002521D01*
X001587Y002433D01*
X001610Y002346D01*
X001637Y002260D01*
X001669Y002175D01*
X001705Y002092D01*
X001744Y002010D01*
X001788Y001931D01*
X001835Y001854D01*
X001885Y001779D01*
X001939Y001706D01*
X001997Y001637D01*
X002058Y001570D01*
X002122Y001506D01*
X002189Y001445D01*
X002258Y001387D01*
X002331Y001333D01*
X002406Y001283D01*
X002483Y001236D01*
X002562Y001192D01*
X002644Y001153D01*
X002727Y001117D01*
X002812Y001085D01*
X002898Y001058D01*
X002985Y001035D01*
X003073Y001015D01*
X003163Y001000D01*
X003252Y000990D01*
X003343Y000983D01*
X003433Y000981D01*
X002892Y002931D02*
X002894Y002979D01*
X002900Y003027D01*
X002910Y003074D01*
X002923Y003120D01*
X002941Y003165D01*
X002961Y003209D01*
X002986Y003251D01*
X003014Y003290D01*
X003044Y003327D01*
X003078Y003361D01*
X003115Y003393D01*
X003153Y003422D01*
X003194Y003447D01*
X003237Y003469D01*
X003282Y003487D01*
X003328Y003501D01*
X003375Y003512D01*
X003423Y003519D01*
X003471Y003522D01*
X003519Y003521D01*
X003567Y003516D01*
X003615Y003507D01*
X003661Y003495D01*
X003706Y003478D01*
X003750Y003458D01*
X003792Y003435D01*
X003832Y003408D01*
X003870Y003378D01*
X003905Y003345D01*
X003937Y003309D01*
X003967Y003271D01*
X003993Y003230D01*
X004015Y003187D01*
X004035Y003143D01*
X004050Y003098D01*
X004062Y003051D01*
X004070Y003003D01*
X004074Y002955D01*
X004074Y002907D01*
X004070Y002859D01*
X004062Y002811D01*
X004050Y002764D01*
X004035Y002719D01*
X004015Y002675D01*
X003993Y002632D01*
X003967Y002591D01*
X003937Y002553D01*
X003905Y002517D01*
X003870Y002484D01*
X003832Y002454D01*
X003792Y002427D01*
X003750Y002404D01*
X003706Y002384D01*
X003661Y002367D01*
X003615Y002355D01*
X003567Y002346D01*
X003519Y002341D01*
X003471Y002340D01*
X003423Y002343D01*
X003375Y002350D01*
X003328Y002361D01*
X003282Y002375D01*
X003237Y002393D01*
X003194Y002415D01*
X003153Y002440D01*
X003115Y002469D01*
X003078Y002501D01*
X003044Y002535D01*
X003014Y002572D01*
X002986Y002611D01*
X002961Y002653D01*
X002941Y002697D01*
X002923Y002742D01*
X002910Y002788D01*
X002900Y002835D01*
X002894Y002883D01*
X002892Y002931D01*
D11*
X008883Y002431D02*
X009483Y002431D01*
X009483Y001431D02*
X008883Y001431D01*
X008883Y003431D02*
X009483Y003431D01*
X009483Y004431D02*
X008883Y004431D01*
D12*
X003483Y002931D03*
M02*
