G75*
G70*
%OFA0B0*%
%FSLAX24Y24*%
%IPPOS*%
%LPD*%
%AMOC8*
5,1,8,0,0,1.08239X$1,22.5*
%
%ADD10C,0.0000*%
%ADD11C,0.1300*%
%ADD12R,0.0221X0.0603*%
%ADD13R,0.0631X0.0552*%
%ADD14R,0.0552X0.0631*%
%ADD15R,0.0631X0.0631*%
%ADD16C,0.0640*%
D10*
X000937Y000574D02*
X000937Y006524D01*
X000939Y006587D01*
X000945Y006651D01*
X000954Y006713D01*
X000968Y006775D01*
X000985Y006836D01*
X001005Y006896D01*
X001030Y006955D01*
X001057Y007012D01*
X001088Y007067D01*
X001123Y007120D01*
X001160Y007172D01*
X001201Y007220D01*
X001245Y007266D01*
X001291Y007310D01*
X001339Y007351D01*
X001391Y007388D01*
X001444Y007423D01*
X001499Y007454D01*
X001556Y007481D01*
X001615Y007506D01*
X001675Y007526D01*
X001736Y007543D01*
X001798Y007557D01*
X001860Y007566D01*
X001924Y007572D01*
X001987Y007574D01*
X004387Y007574D01*
X003707Y006649D02*
X003709Y006699D01*
X003715Y006749D01*
X003725Y006798D01*
X003739Y006846D01*
X003756Y006893D01*
X003777Y006938D01*
X003802Y006982D01*
X003830Y007023D01*
X003862Y007062D01*
X003896Y007099D01*
X003933Y007133D01*
X003973Y007163D01*
X004015Y007190D01*
X004059Y007214D01*
X004105Y007235D01*
X004152Y007251D01*
X004200Y007264D01*
X004250Y007273D01*
X004299Y007278D01*
X004350Y007279D01*
X004400Y007276D01*
X004449Y007269D01*
X004498Y007258D01*
X004546Y007243D01*
X004592Y007225D01*
X004637Y007203D01*
X004680Y007177D01*
X004721Y007148D01*
X004760Y007116D01*
X004796Y007081D01*
X004828Y007043D01*
X004858Y007003D01*
X004885Y006960D01*
X004908Y006916D01*
X004927Y006870D01*
X004943Y006822D01*
X004955Y006773D01*
X004963Y006724D01*
X004967Y006674D01*
X004967Y006624D01*
X004963Y006574D01*
X004955Y006525D01*
X004943Y006476D01*
X004927Y006428D01*
X004908Y006382D01*
X004885Y006338D01*
X004858Y006295D01*
X004828Y006255D01*
X004796Y006217D01*
X004760Y006182D01*
X004721Y006150D01*
X004680Y006121D01*
X004637Y006095D01*
X004592Y006073D01*
X004546Y006055D01*
X004498Y006040D01*
X004449Y006029D01*
X004400Y006022D01*
X004350Y006019D01*
X004299Y006020D01*
X004250Y006025D01*
X004200Y006034D01*
X004152Y006047D01*
X004105Y006063D01*
X004059Y006084D01*
X004015Y006108D01*
X003973Y006135D01*
X003933Y006165D01*
X003896Y006199D01*
X003862Y006236D01*
X003830Y006275D01*
X003802Y006316D01*
X003777Y006360D01*
X003756Y006405D01*
X003739Y006452D01*
X003725Y006500D01*
X003715Y006549D01*
X003709Y006599D01*
X003707Y006649D01*
X004387Y007574D02*
X004450Y007572D01*
X004514Y007566D01*
X004576Y007557D01*
X004638Y007543D01*
X004699Y007526D01*
X004759Y007506D01*
X004818Y007481D01*
X004875Y007454D01*
X004930Y007423D01*
X004983Y007388D01*
X005035Y007351D01*
X005083Y007310D01*
X005129Y007266D01*
X005173Y007220D01*
X005214Y007172D01*
X005251Y007120D01*
X005286Y007067D01*
X005317Y007012D01*
X005344Y006955D01*
X005369Y006896D01*
X005389Y006836D01*
X005406Y006775D01*
X005420Y006713D01*
X005429Y006651D01*
X005435Y006587D01*
X005437Y006524D01*
X005437Y000574D01*
X000937Y000574D01*
X001407Y006649D02*
X001409Y006699D01*
X001415Y006749D01*
X001425Y006798D01*
X001439Y006846D01*
X001456Y006893D01*
X001477Y006938D01*
X001502Y006982D01*
X001530Y007023D01*
X001562Y007062D01*
X001596Y007099D01*
X001633Y007133D01*
X001673Y007163D01*
X001715Y007190D01*
X001759Y007214D01*
X001805Y007235D01*
X001852Y007251D01*
X001900Y007264D01*
X001950Y007273D01*
X001999Y007278D01*
X002050Y007279D01*
X002100Y007276D01*
X002149Y007269D01*
X002198Y007258D01*
X002246Y007243D01*
X002292Y007225D01*
X002337Y007203D01*
X002380Y007177D01*
X002421Y007148D01*
X002460Y007116D01*
X002496Y007081D01*
X002528Y007043D01*
X002558Y007003D01*
X002585Y006960D01*
X002608Y006916D01*
X002627Y006870D01*
X002643Y006822D01*
X002655Y006773D01*
X002663Y006724D01*
X002667Y006674D01*
X002667Y006624D01*
X002663Y006574D01*
X002655Y006525D01*
X002643Y006476D01*
X002627Y006428D01*
X002608Y006382D01*
X002585Y006338D01*
X002558Y006295D01*
X002528Y006255D01*
X002496Y006217D01*
X002460Y006182D01*
X002421Y006150D01*
X002380Y006121D01*
X002337Y006095D01*
X002292Y006073D01*
X002246Y006055D01*
X002198Y006040D01*
X002149Y006029D01*
X002100Y006022D01*
X002050Y006019D01*
X001999Y006020D01*
X001950Y006025D01*
X001900Y006034D01*
X001852Y006047D01*
X001805Y006063D01*
X001759Y006084D01*
X001715Y006108D01*
X001673Y006135D01*
X001633Y006165D01*
X001596Y006199D01*
X001562Y006236D01*
X001530Y006275D01*
X001502Y006316D01*
X001477Y006360D01*
X001456Y006405D01*
X001439Y006452D01*
X001425Y006500D01*
X001415Y006549D01*
X001409Y006599D01*
X001407Y006649D01*
D11*
X002037Y006649D03*
X004337Y006649D03*
D12*
X004371Y005618D03*
X004627Y005618D03*
X004883Y005618D03*
X004115Y005618D03*
X003859Y005618D03*
X003603Y005618D03*
X003347Y005618D03*
X003091Y005618D03*
X003091Y002630D03*
X003347Y002630D03*
X003603Y002630D03*
X003859Y002630D03*
X004115Y002630D03*
X004371Y002630D03*
X004627Y002630D03*
X004883Y002630D03*
D13*
X002287Y004189D03*
X002287Y004859D03*
D14*
X002322Y005524D03*
X001652Y005524D03*
X001652Y002524D03*
X002322Y002524D03*
D15*
X001587Y003185D03*
X001587Y004563D03*
D16*
X001687Y001724D02*
X001687Y001124D01*
X002687Y001124D02*
X002687Y001724D01*
X003687Y001724D02*
X003687Y001124D01*
X004687Y001124D02*
X004687Y001724D01*
M02*
