G75*
G70*
%OFA0B0*%
%FSLAX24Y24*%
%IPPOS*%
%LPD*%
%AMOC8*
5,1,8,0,0,1.08239X$1,22.5*
%
%ADD10C,0.0600*%
%ADD11C,0.0120*%
%ADD12C,0.0356*%
%ADD13C,0.0160*%
D10*
X008863Y001411D02*
X009463Y001411D01*
X009463Y002411D02*
X008863Y002411D01*
X008863Y003411D02*
X009463Y003411D01*
X009463Y004411D02*
X008863Y004411D01*
D11*
X004248Y001963D02*
X004002Y001821D01*
X004479Y001821D01*
X004536Y001821D01*
X004536Y001821D01*
X004750Y001698D01*
X004750Y001698D01*
X004873Y001484D01*
X004873Y001484D01*
X004873Y001361D01*
X004873Y001295D01*
X004873Y001270D01*
X004873Y001261D01*
X004878Y001225D01*
X004914Y001162D01*
X004977Y001126D01*
X005013Y001121D01*
X005079Y001121D01*
X008559Y001121D01*
X008507Y001173D01*
X008443Y001328D01*
X008443Y001495D01*
X008507Y001649D01*
X008625Y001767D01*
X008780Y001831D01*
X009547Y001831D01*
X009701Y001767D01*
X009819Y001649D01*
X009883Y001495D01*
X009883Y001328D01*
X009819Y001173D01*
X009767Y001121D01*
X009813Y001121D01*
X009849Y001126D01*
X009912Y001162D01*
X009948Y001225D01*
X009953Y001261D01*
X009953Y004545D01*
X009946Y004575D01*
X009907Y004640D01*
X009847Y004686D01*
X009781Y004703D01*
X009779Y004701D01*
X009725Y004701D01*
X009670Y004694D01*
X009660Y004701D01*
X004002Y004701D01*
X004248Y004559D01*
X004248Y004559D01*
X004585Y004196D01*
X004585Y004196D01*
X004799Y003751D01*
X004799Y003751D01*
X004873Y003261D01*
X004799Y002772D01*
X004799Y002772D01*
X004585Y002326D01*
X004585Y002326D01*
X004248Y001963D01*
X004248Y001963D01*
X004207Y001939D02*
X009953Y001939D01*
X009953Y001821D02*
X009572Y001821D01*
X009547Y001991D02*
X009701Y002055D01*
X009819Y002173D01*
X009883Y002328D01*
X009883Y002495D01*
X009819Y002649D01*
X009701Y002767D01*
X009547Y002831D01*
X008780Y002831D01*
X008625Y002767D01*
X008507Y002649D01*
X008443Y002495D01*
X008443Y002328D01*
X008507Y002173D01*
X008625Y002055D01*
X008780Y001991D01*
X009547Y001991D01*
X009704Y002058D02*
X009953Y002058D01*
X009953Y002176D02*
X009821Y002176D01*
X009870Y002295D02*
X009953Y002295D01*
X009953Y002414D02*
X009883Y002414D01*
X009868Y002532D02*
X009953Y002532D01*
X009953Y002651D02*
X009818Y002651D01*
X009696Y002769D02*
X009953Y002769D01*
X009953Y002888D02*
X004817Y002888D01*
X004835Y003006D02*
X008743Y003006D01*
X008780Y002991D02*
X008625Y003055D01*
X008507Y003173D01*
X008443Y003328D01*
X008443Y003495D01*
X008507Y003649D01*
X008625Y003767D01*
X008780Y003831D01*
X009547Y003831D01*
X009701Y003767D01*
X009819Y003649D01*
X009883Y003495D01*
X009883Y003328D01*
X009819Y003173D01*
X009701Y003055D01*
X009547Y002991D01*
X008780Y002991D01*
X008556Y003125D02*
X004853Y003125D01*
X004870Y003243D02*
X008478Y003243D01*
X008443Y003362D02*
X004858Y003362D01*
X004840Y003480D02*
X008443Y003480D01*
X008486Y003599D02*
X004822Y003599D01*
X004804Y003718D02*
X008576Y003718D01*
X009751Y003718D02*
X009953Y003718D01*
X009953Y003836D02*
X004758Y003836D01*
X004701Y003955D02*
X009953Y003955D01*
X009953Y004073D02*
X004644Y004073D01*
X004587Y004192D02*
X009953Y004192D01*
X009953Y004310D02*
X004479Y004310D01*
X004369Y004429D02*
X009953Y004429D01*
X009953Y004547D02*
X004259Y004547D01*
X004063Y004666D02*
X009873Y004666D01*
X009840Y003599D02*
X009953Y003599D01*
X009953Y003480D02*
X009883Y003480D01*
X009883Y003362D02*
X009953Y003362D01*
X009953Y003243D02*
X009848Y003243D01*
X009771Y003125D02*
X009953Y003125D01*
X009953Y003006D02*
X009583Y003006D01*
X008630Y002769D02*
X004798Y002769D01*
X004741Y002651D02*
X008509Y002651D01*
X008459Y002532D02*
X004684Y002532D01*
X004627Y002414D02*
X008443Y002414D01*
X008457Y002295D02*
X004556Y002295D01*
X004446Y002176D02*
X008506Y002176D01*
X008623Y002058D02*
X004336Y002058D01*
X004537Y001821D02*
X008755Y001821D01*
X008560Y001702D02*
X004742Y001702D01*
X004816Y001584D02*
X008480Y001584D01*
X008443Y001465D02*
X004873Y001465D01*
X004873Y001347D02*
X008443Y001347D01*
X008484Y001228D02*
X004878Y001228D01*
X009766Y001702D02*
X009953Y001702D01*
X009953Y001584D02*
X009846Y001584D01*
X009883Y001465D02*
X009953Y001465D01*
X009953Y001347D02*
X009883Y001347D01*
X009842Y001228D02*
X009949Y001228D01*
D12*
X005963Y002411D03*
D13*
X005963Y002461D01*
M02*
