G75*
G70*
%OFA0B0*%
%FSLAX24Y24*%
%IPPOS*%
%LPD*%
%AMOC8*
5,1,8,0,0,1.08239X$1,22.5*
%
%ADD10C,0.0010*%
%ADD11C,0.0020*%
%ADD12C,0.0030*%
D10*
X009878Y001257D02*
X009878Y001332D01*
X010028Y001332D01*
X010028Y001257D01*
X010003Y001232D01*
X009903Y001232D01*
X009878Y001257D01*
X009878Y001379D02*
X010028Y001379D01*
X009878Y001479D01*
X010028Y001479D01*
X010003Y001526D02*
X009953Y001526D01*
X009953Y001576D01*
X009903Y001526D02*
X009878Y001551D01*
X009878Y001601D01*
X009903Y001626D01*
X010003Y001626D01*
X010028Y001601D01*
X010028Y001551D01*
X010003Y001526D01*
X010003Y002376D02*
X010028Y002401D01*
X010028Y002476D01*
X009878Y002476D01*
X009878Y002401D01*
X009903Y002376D01*
X009928Y002376D01*
X009953Y002401D01*
X009978Y002376D01*
X010003Y002376D01*
X009953Y002401D02*
X009953Y002476D01*
X009953Y003376D02*
X009953Y003476D01*
X009928Y003476D02*
X009878Y003426D01*
X009928Y003376D01*
X010028Y003376D01*
X010028Y003476D02*
X009928Y003476D01*
X009978Y004329D02*
X009878Y004329D01*
X009978Y004329D02*
X010028Y004379D01*
X009978Y004429D01*
X009878Y004429D01*
X009878Y004476D02*
X009878Y004576D01*
X009953Y004576D01*
X009928Y004526D01*
X009928Y004501D01*
X009953Y004476D01*
X010003Y004476D01*
X010028Y004501D01*
X010028Y004551D01*
X010003Y004576D01*
D11*
X004690Y001565D02*
X004544Y001565D01*
X004544Y001601D01*
X004580Y001638D01*
X004654Y001638D01*
X004690Y001601D01*
X004690Y001528D01*
X004654Y001491D01*
X004580Y001491D01*
X004764Y001638D02*
X004801Y001638D01*
X004874Y001565D01*
X004874Y001638D02*
X004874Y001491D01*
X004949Y001491D02*
X004949Y001638D01*
X005095Y001638D02*
X005095Y001528D01*
X005059Y001491D01*
X004949Y001491D01*
X005169Y001491D02*
X005206Y001528D01*
X005206Y001675D01*
X005243Y001638D02*
X005169Y001638D01*
X005317Y001601D02*
X005317Y001491D01*
X005427Y001491D01*
X005464Y001528D01*
X005427Y001565D01*
X005317Y001565D01*
X005317Y001601D02*
X005354Y001638D01*
X005427Y001638D01*
X005538Y001638D02*
X005575Y001638D01*
X005648Y001565D01*
X005648Y001638D02*
X005648Y001491D01*
X005722Y001491D02*
X005832Y001491D01*
X005869Y001528D01*
X005869Y001601D01*
X005832Y001638D01*
X005722Y001638D01*
X005722Y001712D02*
X005722Y001491D01*
X005943Y001491D02*
X005943Y001601D01*
X005980Y001638D01*
X006053Y001638D01*
X006053Y001565D02*
X005943Y001565D01*
X005943Y001491D02*
X006053Y001491D01*
X006090Y001528D01*
X006053Y001565D01*
X006164Y001638D02*
X006164Y001491D01*
X006274Y001491D01*
X006311Y001528D01*
X006311Y001638D01*
X006385Y001675D02*
X006385Y001528D01*
X006422Y001491D01*
X006495Y001491D01*
X006532Y001528D01*
X006532Y001675D01*
X006495Y001712D01*
X006422Y001712D01*
X006385Y001675D01*
X006458Y001565D02*
X006385Y001491D01*
X006385Y001412D02*
X006421Y001375D01*
X006385Y001412D02*
X006311Y001412D01*
X006275Y001375D01*
X006275Y001338D01*
X006421Y001191D01*
X006275Y001191D01*
X006200Y001191D02*
X006164Y001191D01*
X006164Y001228D01*
X006200Y001228D01*
X006200Y001191D01*
X006090Y001228D02*
X005943Y001375D01*
X005943Y001228D01*
X005980Y001191D01*
X006053Y001191D01*
X006090Y001228D01*
X006090Y001375D01*
X006053Y001412D01*
X005980Y001412D01*
X005943Y001375D01*
X006496Y001338D02*
X006569Y001191D01*
X006642Y001338D01*
X006827Y001491D02*
X006937Y001491D01*
X006974Y001528D01*
X006974Y001601D01*
X006937Y001638D01*
X006827Y001638D01*
X007048Y001491D02*
X007121Y001491D01*
X007084Y001491D02*
X007084Y001638D01*
X007121Y001638D01*
X007195Y001638D02*
X007268Y001638D01*
X007232Y001675D02*
X007232Y001528D01*
X007195Y001491D01*
X007343Y001565D02*
X007489Y001565D01*
X007489Y001601D02*
X007489Y001528D01*
X007453Y001491D01*
X007379Y001491D01*
X007343Y001565D02*
X007343Y001601D01*
X007379Y001638D01*
X007453Y001638D01*
X007489Y001601D01*
X007564Y001601D02*
X007564Y001491D01*
X007710Y001491D02*
X007710Y001638D01*
X007600Y001638D01*
X007564Y001601D01*
X007785Y001638D02*
X007785Y001455D01*
X007821Y001418D01*
X007858Y001418D01*
X007895Y001491D02*
X007785Y001491D01*
X007895Y001491D02*
X007931Y001528D01*
X007931Y001601D01*
X007895Y001638D01*
X007785Y001638D01*
X008006Y001601D02*
X008006Y001491D01*
X008116Y001491D01*
X008152Y001528D01*
X008116Y001565D01*
X008006Y001565D01*
X008006Y001601D02*
X008042Y001638D01*
X008116Y001638D01*
X008227Y001712D02*
X008227Y001491D01*
X008227Y001412D02*
X008373Y001412D01*
X008373Y001191D01*
X008227Y001191D01*
X008152Y001191D02*
X008152Y001338D01*
X008042Y001338D01*
X008006Y001301D01*
X008006Y001191D01*
X007931Y001228D02*
X007895Y001191D01*
X007785Y001191D01*
X007710Y001228D02*
X007674Y001191D01*
X007600Y001191D01*
X007564Y001228D01*
X007564Y001301D01*
X007600Y001338D01*
X007674Y001338D01*
X007710Y001301D01*
X007710Y001228D01*
X007785Y001338D02*
X007895Y001338D01*
X007931Y001301D01*
X007931Y001228D01*
X008300Y001301D02*
X008373Y001301D01*
X008373Y001491D02*
X008373Y001712D01*
X008300Y001638D01*
X008227Y001712D01*
X007489Y001301D02*
X007453Y001338D01*
X007343Y001338D01*
X007343Y001412D02*
X007343Y001191D01*
X007453Y001191D01*
X007489Y001228D01*
X007489Y001301D01*
X007268Y001301D02*
X007268Y001228D01*
X007232Y001191D01*
X007158Y001191D01*
X007047Y001191D02*
X007047Y001338D01*
X006974Y001338D02*
X006937Y001338D01*
X006974Y001338D02*
X007047Y001265D01*
X007122Y001265D02*
X007268Y001265D01*
X007268Y001301D02*
X007232Y001338D01*
X007158Y001338D01*
X007122Y001301D01*
X007122Y001265D01*
X007084Y001712D02*
X007084Y001748D01*
D12*
X008233Y004223D02*
X008172Y004285D01*
X008172Y004593D01*
X008357Y004593D01*
X008418Y004532D01*
X008418Y004408D01*
X008357Y004346D01*
X008172Y004346D01*
X008050Y004408D02*
X007988Y004346D01*
X007865Y004346D01*
X007803Y004408D01*
X007803Y004532D01*
X007865Y004593D01*
X007988Y004593D01*
X008050Y004532D01*
X008050Y004408D01*
X008233Y004223D02*
X008295Y004223D01*
X007682Y004346D02*
X007497Y004346D01*
X007435Y004408D01*
X007435Y004532D01*
X007497Y004593D01*
X007682Y004593D01*
X007682Y004717D02*
X007682Y004346D01*
X007313Y004408D02*
X007313Y004532D01*
X007252Y004593D01*
X007128Y004593D01*
X007067Y004532D01*
X007067Y004408D01*
X007128Y004346D01*
X007252Y004346D01*
X007313Y004408D01*
X006945Y004593D02*
X006822Y004593D01*
X006883Y004655D02*
X006883Y004408D01*
X006822Y004346D01*
X006700Y004346D02*
X006576Y004346D01*
X006638Y004346D02*
X006638Y004593D01*
X006700Y004593D01*
X006638Y004717D02*
X006638Y004778D01*
X006392Y004593D02*
X006454Y004532D01*
X006454Y004408D01*
X006392Y004346D01*
X006207Y004346D01*
X006086Y004346D02*
X005901Y004346D01*
X005839Y004408D01*
X005901Y004470D01*
X006024Y004470D01*
X006086Y004532D01*
X006024Y004593D01*
X005839Y004593D01*
X005718Y004408D02*
X005656Y004408D01*
X005656Y004346D01*
X005718Y004346D01*
X005718Y004408D01*
X005533Y004346D02*
X005533Y004593D01*
X005348Y004593D01*
X005287Y004532D01*
X005287Y004346D01*
X005165Y004408D02*
X005165Y004532D01*
X005103Y004593D01*
X004980Y004593D01*
X004918Y004532D01*
X004918Y004470D01*
X005165Y004470D01*
X005165Y004408D02*
X005103Y004346D01*
X004980Y004346D01*
X004735Y004408D02*
X004673Y004346D01*
X004735Y004408D02*
X004735Y004655D01*
X004797Y004593D02*
X004673Y004593D01*
X006207Y004593D02*
X006392Y004593D01*
M02*
