G75*
G70*
%OFA0B0*%
%FSLAX24Y24*%
%IPPOS*%
%LPD*%
%AMOC8*
5,1,8,0,0,1.08239X$1,22.5*
%
%ADD10C,0.0010*%
%ADD11C,0.0050*%
D10*
X005146Y001126D02*
X005246Y001126D01*
X005196Y001126D02*
X005196Y001277D01*
X005146Y001226D01*
X005294Y001251D02*
X005294Y001151D01*
X005394Y001251D01*
X005394Y001151D01*
X005369Y001126D01*
X005319Y001126D01*
X005294Y001151D01*
X005294Y001251D02*
X005319Y001277D01*
X005369Y001277D01*
X005394Y001251D01*
X005441Y001277D02*
X005441Y001126D01*
X005441Y001176D02*
X005541Y001277D01*
X005466Y001201D02*
X005541Y001126D01*
X006278Y002486D02*
X006228Y002536D01*
X006278Y002586D01*
X006378Y002586D01*
X006353Y002634D02*
X006378Y002659D01*
X006378Y002709D01*
X006353Y002734D01*
X006328Y002734D01*
X006303Y002709D01*
X006303Y002659D01*
X006278Y002634D01*
X006253Y002634D01*
X006228Y002659D01*
X006228Y002709D01*
X006253Y002734D01*
X006228Y002781D02*
X006303Y002781D01*
X006278Y002831D01*
X006278Y002856D01*
X006303Y002881D01*
X006353Y002881D01*
X006378Y002856D01*
X006378Y002806D01*
X006353Y002781D01*
X006228Y002781D02*
X006228Y002881D01*
X006253Y002928D02*
X006228Y002953D01*
X006228Y003003D01*
X006253Y003028D01*
X006353Y002928D01*
X006378Y002953D01*
X006378Y003003D01*
X006353Y003028D01*
X006253Y003028D01*
X006253Y003076D02*
X006228Y003101D01*
X006228Y003151D01*
X006253Y003176D01*
X006278Y003176D01*
X006303Y003151D01*
X006328Y003176D01*
X006353Y003176D01*
X006378Y003151D01*
X006378Y003101D01*
X006353Y003076D01*
X006303Y003126D02*
X006303Y003151D01*
X006303Y003223D02*
X006278Y003273D01*
X006278Y003298D01*
X006303Y003323D01*
X006353Y003323D01*
X006378Y003298D01*
X006378Y003248D01*
X006353Y003223D01*
X006303Y003223D02*
X006228Y003223D01*
X006228Y003323D01*
X006253Y002928D02*
X006353Y002928D01*
X006303Y002586D02*
X006303Y002486D01*
X006278Y002486D02*
X006378Y002486D01*
X008328Y002336D02*
X008478Y002336D01*
X008453Y002384D02*
X008428Y002409D01*
X008428Y002484D01*
X008403Y002484D02*
X008478Y002484D01*
X008478Y002409D01*
X008453Y002384D01*
X008378Y002409D02*
X008378Y002459D01*
X008403Y002484D01*
X008403Y002531D02*
X008453Y002531D01*
X008478Y002556D01*
X008478Y002631D01*
X008503Y002631D02*
X008378Y002631D01*
X008378Y002556D01*
X008403Y002531D01*
X008528Y002581D02*
X008528Y002606D01*
X008503Y002631D01*
X008453Y002826D02*
X008353Y002826D01*
X008328Y002851D01*
X008328Y002901D01*
X008353Y002926D01*
X008453Y002926D01*
X008478Y002901D01*
X008478Y002851D01*
X008453Y002826D01*
X008428Y002973D02*
X008328Y003073D01*
X008328Y002973D02*
X008478Y002973D01*
X008403Y002998D02*
X008478Y003073D01*
X008328Y002336D02*
X008378Y002286D01*
X008328Y002236D01*
X008478Y002236D01*
X009878Y002386D02*
X009878Y002461D01*
X009903Y002486D01*
X009928Y002486D01*
X009953Y002461D01*
X009953Y002386D01*
X010028Y002386D02*
X009878Y002386D01*
X009953Y002461D02*
X009978Y002486D01*
X010003Y002486D01*
X010028Y002461D01*
X010028Y002386D01*
X010003Y001631D02*
X009903Y001631D01*
X009878Y001606D01*
X009878Y001531D01*
X010028Y001531D01*
X010028Y001606D01*
X010003Y001631D01*
X010028Y001484D02*
X009878Y001484D01*
X009878Y001384D02*
X010028Y001484D01*
X010028Y001384D02*
X009878Y001384D01*
X009903Y001336D02*
X009878Y001311D01*
X009878Y001261D01*
X009903Y001236D01*
X010003Y001236D01*
X010028Y001261D01*
X010028Y001311D01*
X010003Y001336D01*
X009953Y001336D01*
X009953Y001286D01*
X009953Y003386D02*
X009953Y003486D01*
X009928Y003486D02*
X010028Y003486D01*
X009928Y003486D02*
X009878Y003436D01*
X009928Y003386D01*
X010028Y003386D01*
X010003Y004336D02*
X010028Y004361D01*
X010028Y004411D01*
X010003Y004436D01*
X009953Y004436D01*
X009928Y004411D01*
X009928Y004386D01*
X009953Y004336D01*
X009878Y004336D01*
X009878Y004436D01*
X009878Y004484D02*
X009978Y004484D01*
X010028Y004534D01*
X009978Y004584D01*
X009878Y004584D01*
X007941Y004626D02*
X007891Y004676D01*
X007916Y004676D02*
X007841Y004676D01*
X007841Y004626D02*
X007841Y004777D01*
X007916Y004777D01*
X007941Y004751D01*
X007941Y004701D01*
X007916Y004676D01*
X007794Y004651D02*
X007769Y004626D01*
X007719Y004626D01*
X007694Y004651D01*
X007794Y004751D01*
X007794Y004651D01*
X007694Y004651D02*
X007694Y004751D01*
X007719Y004777D01*
X007769Y004777D01*
X007794Y004751D01*
X007646Y004751D02*
X007646Y004726D01*
X007621Y004701D01*
X007646Y004676D01*
X007646Y004651D01*
X007621Y004626D01*
X007571Y004626D01*
X007546Y004651D01*
X007499Y004651D02*
X007474Y004626D01*
X007424Y004626D01*
X007399Y004651D01*
X007449Y004701D02*
X007474Y004701D01*
X007499Y004676D01*
X007499Y004651D01*
X007474Y004701D02*
X007499Y004726D01*
X007499Y004751D01*
X007474Y004777D01*
X007424Y004777D01*
X007399Y004751D01*
X007546Y004751D02*
X007571Y004777D01*
X007621Y004777D01*
X007646Y004751D01*
X007621Y004701D02*
X007596Y004701D01*
X006591Y004777D02*
X006491Y004777D01*
X006491Y004626D01*
X006444Y004626D02*
X006444Y004726D01*
X006491Y004701D02*
X006541Y004701D01*
X006444Y004626D02*
X006369Y004626D01*
X006344Y004651D01*
X006344Y004726D01*
X006296Y004751D02*
X006196Y004651D01*
X006221Y004626D01*
X006271Y004626D01*
X006296Y004651D01*
X006296Y004751D01*
X006271Y004777D01*
X006221Y004777D01*
X006196Y004751D01*
X006196Y004651D01*
X006149Y004626D02*
X006049Y004626D01*
X006099Y004626D02*
X006099Y004777D01*
X006049Y004726D01*
D11*
X005633Y003781D02*
X005633Y001981D01*
X007033Y001981D01*
X007033Y003781D01*
X005633Y003781D01*
X006721Y002181D02*
X006723Y002202D01*
X006729Y002221D01*
X006738Y002240D01*
X006750Y002256D01*
X006766Y002270D01*
X006783Y002281D01*
X006802Y002289D01*
X006823Y002293D01*
X006843Y002293D01*
X006864Y002289D01*
X006883Y002281D01*
X006900Y002270D01*
X006916Y002256D01*
X006928Y002240D01*
X006937Y002221D01*
X006943Y002202D01*
X006945Y002181D01*
X006943Y002160D01*
X006937Y002141D01*
X006928Y002122D01*
X006916Y002106D01*
X006900Y002092D01*
X006883Y002081D01*
X006864Y002073D01*
X006843Y002069D01*
X006823Y002069D01*
X006802Y002073D01*
X006783Y002081D01*
X006766Y002092D01*
X006750Y002106D01*
X006738Y002122D01*
X006729Y002141D01*
X006723Y002160D01*
X006721Y002181D01*
M02*
