G75*
G70*
%OFA0B0*%
%FSLAX24Y24*%
%IPPOS*%
%LPD*%
%AMOC8*
5,1,8,0,0,1.08239X$1,22.5*
%
%ADD10C,0.0010*%
%ADD11C,0.0020*%
%ADD12C,0.0030*%
D10*
X009878Y001257D02*
X009878Y001332D01*
X010028Y001332D01*
X010028Y001257D01*
X010003Y001232D01*
X009903Y001232D01*
X009878Y001257D01*
X009878Y001379D02*
X010028Y001379D01*
X009878Y001479D01*
X010028Y001479D01*
X010003Y001526D02*
X009953Y001526D01*
X009953Y001576D01*
X009903Y001526D02*
X009878Y001551D01*
X009878Y001601D01*
X009903Y001626D01*
X010003Y001626D01*
X010028Y001601D01*
X010028Y001551D01*
X010003Y001526D01*
X010003Y002376D02*
X010028Y002401D01*
X010028Y002476D01*
X009878Y002476D01*
X009878Y002401D01*
X009903Y002376D01*
X009928Y002376D01*
X009953Y002401D01*
X009978Y002376D01*
X010003Y002376D01*
X009953Y002401D02*
X009953Y002476D01*
X009953Y003376D02*
X009953Y003476D01*
X009928Y003476D02*
X009878Y003426D01*
X009928Y003376D01*
X010028Y003376D01*
X010028Y003476D02*
X009928Y003476D01*
X009978Y004329D02*
X009878Y004329D01*
X009978Y004329D02*
X010028Y004379D01*
X009978Y004429D01*
X009878Y004429D01*
X009878Y004476D02*
X009878Y004576D01*
X009953Y004576D01*
X009928Y004526D01*
X009928Y004501D01*
X009953Y004476D01*
X010003Y004476D01*
X010028Y004501D01*
X010028Y004551D01*
X010003Y004576D01*
D11*
X004790Y001915D02*
X004644Y001915D01*
X004644Y001951D01*
X004680Y001988D01*
X004754Y001988D01*
X004790Y001951D01*
X004790Y001878D01*
X004754Y001841D01*
X004680Y001841D01*
X004864Y001988D02*
X004901Y001988D01*
X004974Y001915D01*
X004974Y001988D02*
X004974Y001841D01*
X005049Y001841D02*
X005049Y001988D01*
X005195Y001988D02*
X005195Y001878D01*
X005159Y001841D01*
X005049Y001841D01*
X005269Y001841D02*
X005306Y001878D01*
X005306Y002025D01*
X005343Y001988D02*
X005269Y001988D01*
X005417Y001951D02*
X005417Y001841D01*
X005527Y001841D01*
X005564Y001878D01*
X005527Y001915D01*
X005417Y001915D01*
X005417Y001951D02*
X005454Y001988D01*
X005527Y001988D01*
X005638Y001988D02*
X005675Y001988D01*
X005748Y001915D01*
X005748Y001988D02*
X005748Y001841D01*
X005822Y001841D02*
X005932Y001841D01*
X005969Y001878D01*
X005969Y001951D01*
X005932Y001988D01*
X005822Y001988D01*
X005822Y002062D02*
X005822Y001841D01*
X006043Y001841D02*
X006153Y001841D01*
X006190Y001878D01*
X006153Y001915D01*
X006043Y001915D01*
X006043Y001951D02*
X006043Y001841D01*
X006043Y001951D02*
X006080Y001988D01*
X006153Y001988D01*
X006264Y001988D02*
X006264Y001841D01*
X006374Y001841D01*
X006411Y001878D01*
X006411Y001988D01*
X006485Y002025D02*
X006485Y001878D01*
X006522Y001841D01*
X006595Y001841D01*
X006632Y001878D01*
X006632Y002025D01*
X006595Y002062D01*
X006522Y002062D01*
X006485Y002025D01*
X006558Y001915D02*
X006485Y001841D01*
X006448Y001712D02*
X006448Y001491D01*
X006521Y001491D02*
X006375Y001491D01*
X006300Y001491D02*
X006264Y001491D01*
X006264Y001528D01*
X006300Y001528D01*
X006300Y001491D01*
X006190Y001528D02*
X006153Y001491D01*
X006080Y001491D01*
X006043Y001528D01*
X006043Y001601D01*
X006080Y001638D01*
X006117Y001638D01*
X006190Y001601D01*
X006190Y001712D01*
X006043Y001712D01*
X006448Y001712D02*
X006521Y001638D01*
X006596Y001638D02*
X006669Y001491D01*
X006742Y001638D01*
X007037Y001638D02*
X007074Y001638D01*
X007147Y001565D01*
X007147Y001638D02*
X007147Y001491D01*
X007222Y001565D02*
X007368Y001565D01*
X007368Y001601D02*
X007368Y001528D01*
X007332Y001491D01*
X007258Y001491D01*
X007222Y001565D02*
X007222Y001601D01*
X007258Y001638D01*
X007332Y001638D01*
X007368Y001601D01*
X007443Y001638D02*
X007553Y001638D01*
X007589Y001601D01*
X007589Y001528D01*
X007553Y001491D01*
X007443Y001491D01*
X007443Y001712D01*
X007479Y001841D02*
X007553Y001841D01*
X007589Y001878D01*
X007589Y001951D01*
X007553Y001988D01*
X007479Y001988D01*
X007443Y001951D01*
X007443Y001915D01*
X007589Y001915D01*
X007664Y001951D02*
X007664Y001841D01*
X007664Y001951D02*
X007700Y001988D01*
X007810Y001988D01*
X007810Y001841D01*
X007885Y001841D02*
X007995Y001841D01*
X008031Y001878D01*
X008031Y001951D01*
X007995Y001988D01*
X007885Y001988D01*
X007885Y001805D01*
X007921Y001768D01*
X007958Y001768D01*
X007995Y001638D02*
X007885Y001638D01*
X007810Y001601D02*
X007810Y001528D01*
X007774Y001491D01*
X007700Y001491D01*
X007664Y001528D01*
X007664Y001601D01*
X007700Y001638D01*
X007774Y001638D01*
X007810Y001601D01*
X007885Y001491D02*
X007995Y001491D01*
X008031Y001528D01*
X008031Y001601D01*
X007995Y001638D01*
X008106Y001601D02*
X008106Y001491D01*
X008252Y001491D02*
X008252Y001638D01*
X008142Y001638D01*
X008106Y001601D01*
X008327Y001491D02*
X008473Y001491D01*
X008473Y001712D01*
X008327Y001712D01*
X008327Y001841D02*
X008327Y002062D01*
X008400Y001988D01*
X008473Y002062D01*
X008473Y001841D01*
X008252Y001878D02*
X008216Y001915D01*
X008106Y001915D01*
X008106Y001951D02*
X008106Y001841D01*
X008216Y001841D01*
X008252Y001878D01*
X008142Y001988D02*
X008106Y001951D01*
X008142Y001988D02*
X008216Y001988D01*
X008400Y001601D02*
X008473Y001601D01*
X007368Y001988D02*
X007295Y001988D01*
X007332Y002025D02*
X007332Y001878D01*
X007295Y001841D01*
X007221Y001841D02*
X007148Y001841D01*
X007184Y001841D02*
X007184Y001988D01*
X007221Y001988D01*
X007184Y002062D02*
X007184Y002098D01*
X007037Y001988D02*
X007074Y001951D01*
X007074Y001878D01*
X007037Y001841D01*
X006927Y001841D01*
X006927Y001988D02*
X007037Y001988D01*
D12*
X008233Y004273D02*
X008172Y004335D01*
X008172Y004643D01*
X008357Y004643D01*
X008418Y004582D01*
X008418Y004458D01*
X008357Y004396D01*
X008172Y004396D01*
X008050Y004458D02*
X007988Y004396D01*
X007865Y004396D01*
X007803Y004458D01*
X007803Y004582D01*
X007865Y004643D01*
X007988Y004643D01*
X008050Y004582D01*
X008050Y004458D01*
X008233Y004273D02*
X008295Y004273D01*
X007682Y004396D02*
X007497Y004396D01*
X007435Y004458D01*
X007435Y004582D01*
X007497Y004643D01*
X007682Y004643D01*
X007682Y004767D02*
X007682Y004396D01*
X007313Y004458D02*
X007313Y004582D01*
X007252Y004643D01*
X007128Y004643D01*
X007067Y004582D01*
X007067Y004458D01*
X007128Y004396D01*
X007252Y004396D01*
X007313Y004458D01*
X006945Y004643D02*
X006822Y004643D01*
X006883Y004705D02*
X006883Y004458D01*
X006822Y004396D01*
X006700Y004396D02*
X006576Y004396D01*
X006638Y004396D02*
X006638Y004643D01*
X006700Y004643D01*
X006638Y004767D02*
X006638Y004828D01*
X006392Y004643D02*
X006454Y004582D01*
X006454Y004458D01*
X006392Y004396D01*
X006207Y004396D01*
X006086Y004396D02*
X005901Y004396D01*
X005839Y004458D01*
X005901Y004520D01*
X006024Y004520D01*
X006086Y004582D01*
X006024Y004643D01*
X005839Y004643D01*
X005718Y004458D02*
X005656Y004458D01*
X005656Y004396D01*
X005718Y004396D01*
X005718Y004458D01*
X005533Y004396D02*
X005533Y004643D01*
X005348Y004643D01*
X005287Y004582D01*
X005287Y004396D01*
X005165Y004458D02*
X005165Y004582D01*
X005103Y004643D01*
X004980Y004643D01*
X004918Y004582D01*
X004918Y004520D01*
X005165Y004520D01*
X005165Y004458D02*
X005103Y004396D01*
X004980Y004396D01*
X004735Y004458D02*
X004673Y004396D01*
X004735Y004458D02*
X004735Y004705D01*
X004797Y004643D02*
X004673Y004643D01*
X006207Y004643D02*
X006392Y004643D01*
M02*
