G75*
G70*
%OFA0B0*%
%FSLAX24Y24*%
%IPPOS*%
%LPD*%
%AMOC8*
5,1,8,0,0,1.08239X$1,22.5*
%
%ADD10C,0.0010*%
%ADD11C,0.0100*%
%ADD12C,0.0000*%
D10*
X005329Y001006D02*
X005429Y001006D01*
X005379Y001006D02*
X005379Y001156D01*
X005329Y001106D01*
X005476Y001131D02*
X005476Y001031D01*
X005576Y001131D01*
X005576Y001031D01*
X005551Y001006D01*
X005501Y001006D01*
X005476Y001031D01*
X005476Y001131D02*
X005501Y001156D01*
X005551Y001156D01*
X005576Y001131D01*
X005624Y001106D02*
X005624Y001031D01*
X005649Y001006D01*
X005724Y001006D01*
X005724Y001106D01*
X005771Y001081D02*
X005821Y001081D01*
X005771Y001006D02*
X005771Y001156D01*
X005871Y001156D01*
X006258Y002466D02*
X006208Y002516D01*
X006258Y002566D01*
X006358Y002566D01*
X006333Y002614D02*
X006358Y002639D01*
X006358Y002689D01*
X006333Y002714D01*
X006308Y002714D01*
X006283Y002689D01*
X006283Y002639D01*
X006258Y002614D01*
X006233Y002614D01*
X006208Y002639D01*
X006208Y002689D01*
X006233Y002714D01*
X006208Y002761D02*
X006283Y002761D01*
X006258Y002811D01*
X006258Y002836D01*
X006283Y002861D01*
X006333Y002861D01*
X006358Y002836D01*
X006358Y002786D01*
X006333Y002761D01*
X006208Y002761D02*
X006208Y002861D01*
X006233Y002908D02*
X006208Y002933D01*
X006208Y002983D01*
X006233Y003008D01*
X006333Y002908D01*
X006358Y002933D01*
X006358Y002983D01*
X006333Y003008D01*
X006233Y003008D01*
X006233Y003056D02*
X006208Y003081D01*
X006208Y003131D01*
X006233Y003156D01*
X006258Y003156D01*
X006283Y003131D01*
X006308Y003156D01*
X006333Y003156D01*
X006358Y003131D01*
X006358Y003081D01*
X006333Y003056D01*
X006283Y003106D02*
X006283Y003131D01*
X006283Y003203D02*
X006208Y003203D01*
X006208Y003303D01*
X006258Y003278D02*
X006258Y003253D01*
X006283Y003203D01*
X006333Y003203D02*
X006358Y003228D01*
X006358Y003278D01*
X006333Y003303D01*
X006283Y003303D01*
X006258Y003278D01*
X006233Y002908D02*
X006333Y002908D01*
X006283Y002566D02*
X006283Y002466D01*
X006258Y002466D02*
X006358Y002466D01*
X008358Y002416D02*
X008408Y002366D01*
X008358Y002316D01*
X008508Y002316D01*
X008508Y002416D02*
X008358Y002416D01*
X008408Y002489D02*
X008408Y002539D01*
X008433Y002564D01*
X008508Y002564D01*
X008508Y002489D01*
X008483Y002464D01*
X008458Y002489D01*
X008458Y002564D01*
X008433Y002611D02*
X008483Y002611D01*
X008508Y002636D01*
X008508Y002711D01*
X008533Y002711D02*
X008408Y002711D01*
X008408Y002636D01*
X008433Y002611D01*
X008558Y002661D02*
X008558Y002686D01*
X008533Y002711D01*
X008483Y002906D02*
X008383Y002906D01*
X008358Y002931D01*
X008358Y002981D01*
X008383Y003006D01*
X008483Y003006D01*
X008508Y002981D01*
X008508Y002931D01*
X008483Y002906D01*
X008458Y003053D02*
X008358Y003153D01*
X008433Y003078D02*
X008508Y003153D01*
X008508Y003053D02*
X008358Y003053D01*
X009858Y003416D02*
X009908Y003466D01*
X010008Y003466D01*
X009933Y003466D02*
X009933Y003366D01*
X009908Y003366D02*
X009858Y003416D01*
X009908Y003366D02*
X010008Y003366D01*
X009983Y002466D02*
X010008Y002441D01*
X010008Y002366D01*
X009858Y002366D01*
X009858Y002441D01*
X009883Y002466D01*
X009908Y002466D01*
X009933Y002441D01*
X009933Y002366D01*
X009933Y002441D02*
X009958Y002466D01*
X009983Y002466D01*
X009983Y001611D02*
X009883Y001611D01*
X009858Y001586D01*
X009858Y001511D01*
X010008Y001511D01*
X010008Y001586D01*
X009983Y001611D01*
X010008Y001464D02*
X009858Y001464D01*
X009858Y001364D02*
X010008Y001464D01*
X010008Y001364D02*
X009858Y001364D01*
X009883Y001316D02*
X009858Y001291D01*
X009858Y001241D01*
X009883Y001216D01*
X009983Y001216D01*
X010008Y001241D01*
X010008Y001291D01*
X009983Y001316D01*
X009933Y001316D01*
X009933Y001266D01*
X009858Y004316D02*
X009933Y004316D01*
X009908Y004366D01*
X009908Y004391D01*
X009933Y004416D01*
X009983Y004416D01*
X010008Y004391D01*
X010008Y004341D01*
X009983Y004316D01*
X009858Y004316D02*
X009858Y004416D01*
X009858Y004464D02*
X009958Y004464D01*
X010008Y004514D01*
X009958Y004564D01*
X009858Y004564D01*
X007921Y004606D02*
X007871Y004656D01*
X007896Y004656D02*
X007821Y004656D01*
X007821Y004606D02*
X007821Y004756D01*
X007896Y004756D01*
X007921Y004731D01*
X007921Y004681D01*
X007896Y004656D01*
X007774Y004631D02*
X007749Y004606D01*
X007699Y004606D01*
X007674Y004631D01*
X007774Y004731D01*
X007774Y004631D01*
X007674Y004631D02*
X007674Y004731D01*
X007699Y004756D01*
X007749Y004756D01*
X007774Y004731D01*
X007626Y004731D02*
X007626Y004706D01*
X007601Y004681D01*
X007626Y004656D01*
X007626Y004631D01*
X007601Y004606D01*
X007551Y004606D01*
X007526Y004631D01*
X007479Y004631D02*
X007454Y004606D01*
X007404Y004606D01*
X007379Y004631D01*
X007429Y004681D02*
X007454Y004681D01*
X007479Y004656D01*
X007479Y004631D01*
X007454Y004681D02*
X007479Y004706D01*
X007479Y004731D01*
X007454Y004756D01*
X007404Y004756D01*
X007379Y004731D01*
X007526Y004731D02*
X007551Y004756D01*
X007601Y004756D01*
X007626Y004731D01*
X007601Y004681D02*
X007576Y004681D01*
X005821Y004606D02*
X005746Y004681D01*
X005721Y004656D02*
X005821Y004756D01*
X005721Y004756D02*
X005721Y004606D01*
X005674Y004631D02*
X005649Y004606D01*
X005599Y004606D01*
X005574Y004631D01*
X005674Y004731D01*
X005674Y004631D01*
X005574Y004631D02*
X005574Y004731D01*
X005599Y004756D01*
X005649Y004756D01*
X005674Y004731D01*
X005526Y004606D02*
X005426Y004606D01*
X005476Y004606D02*
X005476Y004756D01*
X005426Y004706D01*
D11*
X005613Y003761D02*
X005613Y001961D01*
X007013Y001961D01*
X007013Y003761D01*
X005613Y003761D01*
X006751Y002161D02*
X006753Y002182D01*
X006759Y002201D01*
X006768Y002220D01*
X006780Y002236D01*
X006796Y002250D01*
X006813Y002261D01*
X006832Y002269D01*
X006853Y002273D01*
X006873Y002273D01*
X006894Y002269D01*
X006913Y002261D01*
X006930Y002250D01*
X006946Y002236D01*
X006958Y002220D01*
X006967Y002201D01*
X006973Y002182D01*
X006975Y002161D01*
X006973Y002140D01*
X006967Y002121D01*
X006958Y002102D01*
X006946Y002086D01*
X006930Y002072D01*
X006913Y002061D01*
X006894Y002053D01*
X006873Y002049D01*
X006853Y002049D01*
X006832Y002053D01*
X006813Y002061D01*
X006796Y002072D01*
X006780Y002086D01*
X006768Y002102D01*
X006759Y002121D01*
X006753Y002140D01*
X006751Y002161D01*
D12*
X004413Y001661D02*
X003213Y001661D01*
X004413Y001661D02*
X004447Y001659D01*
X004480Y001653D01*
X004512Y001644D01*
X004543Y001631D01*
X004573Y001615D01*
X004600Y001596D01*
X004625Y001573D01*
X004648Y001548D01*
X004667Y001521D01*
X004683Y001491D01*
X004696Y001460D01*
X004705Y001428D01*
X004711Y001395D01*
X004713Y001361D01*
X004713Y001261D01*
X004715Y001227D01*
X004721Y001194D01*
X004730Y001162D01*
X004743Y001131D01*
X004759Y001101D01*
X004778Y001074D01*
X004801Y001049D01*
X004826Y001026D01*
X004853Y001007D01*
X004883Y000991D01*
X004914Y000978D01*
X004946Y000969D01*
X004979Y000963D01*
X005013Y000961D01*
X009813Y000961D01*
X009847Y000963D01*
X009880Y000969D01*
X009912Y000978D01*
X009943Y000991D01*
X009973Y001007D01*
X010000Y001026D01*
X010025Y001049D01*
X010048Y001074D01*
X010067Y001101D01*
X010083Y001131D01*
X010096Y001162D01*
X010105Y001194D01*
X010111Y001227D01*
X010113Y001261D01*
X010113Y004561D01*
X010107Y004595D01*
X010097Y004628D01*
X010084Y004661D01*
X010068Y004691D01*
X010048Y004720D01*
X010027Y004747D01*
X010002Y004772D01*
X009975Y004794D01*
X009947Y004814D01*
X009916Y004830D01*
X009884Y004844D01*
X009851Y004854D01*
X009817Y004861D01*
X009782Y004864D01*
X009748Y004865D01*
X009713Y004861D01*
X003213Y004861D01*
X002622Y003261D02*
X002624Y003309D01*
X002630Y003357D01*
X002640Y003404D01*
X002653Y003450D01*
X002671Y003495D01*
X002691Y003539D01*
X002716Y003581D01*
X002744Y003620D01*
X002774Y003657D01*
X002808Y003691D01*
X002845Y003723D01*
X002883Y003752D01*
X002924Y003777D01*
X002967Y003799D01*
X003012Y003817D01*
X003058Y003831D01*
X003105Y003842D01*
X003153Y003849D01*
X003201Y003852D01*
X003249Y003851D01*
X003297Y003846D01*
X003345Y003837D01*
X003391Y003825D01*
X003436Y003808D01*
X003480Y003788D01*
X003522Y003765D01*
X003562Y003738D01*
X003600Y003708D01*
X003635Y003675D01*
X003667Y003639D01*
X003697Y003601D01*
X003723Y003560D01*
X003745Y003517D01*
X003765Y003473D01*
X003780Y003428D01*
X003792Y003381D01*
X003800Y003333D01*
X003804Y003285D01*
X003804Y003237D01*
X003800Y003189D01*
X003792Y003141D01*
X003780Y003094D01*
X003765Y003049D01*
X003745Y003005D01*
X003723Y002962D01*
X003697Y002921D01*
X003667Y002883D01*
X003635Y002847D01*
X003600Y002814D01*
X003562Y002784D01*
X003522Y002757D01*
X003480Y002734D01*
X003436Y002714D01*
X003391Y002697D01*
X003345Y002685D01*
X003297Y002676D01*
X003249Y002671D01*
X003201Y002670D01*
X003153Y002673D01*
X003105Y002680D01*
X003058Y002691D01*
X003012Y002705D01*
X002967Y002723D01*
X002924Y002745D01*
X002883Y002770D01*
X002845Y002799D01*
X002808Y002831D01*
X002774Y002865D01*
X002744Y002902D01*
X002716Y002941D01*
X002691Y002983D01*
X002671Y003027D01*
X002653Y003072D01*
X002640Y003118D01*
X002630Y003165D01*
X002624Y003213D01*
X002622Y003261D01*
X001613Y003261D02*
X001615Y003182D01*
X001621Y003104D01*
X001630Y003026D01*
X001644Y002949D01*
X001661Y002872D01*
X001682Y002797D01*
X001707Y002722D01*
X001735Y002649D01*
X001767Y002577D01*
X001802Y002507D01*
X001841Y002438D01*
X001883Y002372D01*
X001928Y002308D01*
X001976Y002246D01*
X002027Y002187D01*
X002082Y002130D01*
X002139Y002075D01*
X002198Y002024D01*
X002260Y001976D01*
X002324Y001931D01*
X002390Y001889D01*
X002459Y001850D01*
X002529Y001815D01*
X002601Y001783D01*
X002674Y001755D01*
X002749Y001730D01*
X002824Y001709D01*
X002901Y001692D01*
X002978Y001678D01*
X003056Y001669D01*
X003134Y001663D01*
X003213Y001661D01*
X001613Y003261D02*
X001615Y003340D01*
X001621Y003418D01*
X001630Y003496D01*
X001644Y003573D01*
X001661Y003650D01*
X001682Y003725D01*
X001707Y003800D01*
X001735Y003873D01*
X001767Y003945D01*
X001802Y004015D01*
X001841Y004084D01*
X001883Y004150D01*
X001928Y004214D01*
X001976Y004276D01*
X002027Y004335D01*
X002082Y004392D01*
X002139Y004447D01*
X002198Y004498D01*
X002260Y004546D01*
X002324Y004591D01*
X002390Y004633D01*
X002459Y004672D01*
X002529Y004707D01*
X002601Y004739D01*
X002674Y004767D01*
X002749Y004792D01*
X002824Y004813D01*
X002901Y004830D01*
X002978Y004844D01*
X003056Y004853D01*
X003134Y004859D01*
X003213Y004861D01*
M02*
