G75*
G70*
%OFA0B0*%
%FSLAX24Y24*%
%IPPOS*%
%LPD*%
%AMOC8*
5,1,8,0,0,1.08239X$1,22.5*
%
%ADD10C,0.0030*%
%ADD11C,0.0010*%
%ADD12C,0.0040*%
%ADD13C,0.0100*%
D10*
X001326Y000672D02*
X001388Y000672D01*
X001449Y000734D01*
X001449Y001042D01*
X001264Y001042D01*
X001202Y000981D01*
X001202Y000857D01*
X001264Y000796D01*
X001449Y000796D01*
X001571Y000796D02*
X001571Y001042D01*
X001756Y001042D01*
X001818Y000981D01*
X001818Y000796D01*
X001939Y000857D02*
X001939Y000981D01*
X002001Y001042D01*
X002124Y001042D01*
X002186Y000981D01*
X002186Y000919D01*
X001939Y000919D01*
X001939Y000857D02*
X002001Y000796D01*
X002124Y000796D01*
X002369Y000857D02*
X002431Y000796D01*
X002369Y000857D02*
X002369Y001104D01*
X002307Y001042D02*
X002431Y001042D01*
X002553Y001042D02*
X002615Y001042D01*
X002615Y000796D01*
X002676Y000796D02*
X002553Y000796D01*
X002798Y000857D02*
X002860Y000796D01*
X003045Y000796D01*
X002798Y000857D02*
X002798Y000981D01*
X002860Y001042D01*
X003045Y001042D01*
X002615Y001166D02*
X002615Y001228D01*
X003535Y001104D02*
X003535Y000857D01*
X003597Y000796D01*
X003720Y000796D01*
X003782Y000857D01*
X003782Y001104D01*
X003720Y001166D01*
X003597Y001166D01*
X003535Y001104D01*
X003658Y000919D02*
X003782Y000796D01*
X003903Y000857D02*
X003965Y000796D01*
X004150Y000796D01*
X004150Y001042D01*
X004333Y001042D02*
X004457Y001042D01*
X004518Y000981D01*
X004518Y000796D01*
X004333Y000796D01*
X004272Y000857D01*
X004333Y000919D01*
X004518Y000919D01*
X004640Y000857D02*
X004702Y000796D01*
X004887Y000796D01*
X004887Y001166D01*
X004887Y001042D02*
X004702Y001042D01*
X004640Y000981D01*
X004640Y000857D01*
X003903Y000857D02*
X003903Y001042D01*
X005376Y000981D02*
X005500Y000981D01*
X005745Y001042D02*
X005930Y001042D01*
X005992Y000981D01*
X005992Y000796D01*
X006113Y000857D02*
X006175Y000796D01*
X006360Y000796D01*
X006481Y000857D02*
X006543Y000796D01*
X006667Y000796D01*
X006728Y000857D01*
X006728Y000981D01*
X006667Y001042D01*
X006543Y001042D01*
X006481Y000981D01*
X006481Y000857D01*
X006360Y001042D02*
X006175Y001042D01*
X006113Y000981D01*
X006113Y000857D01*
X005745Y000796D02*
X005745Y001042D01*
X005623Y001166D02*
X005376Y001166D01*
X005376Y000796D01*
X005623Y000796D01*
X006850Y000857D02*
X006911Y000796D01*
X007097Y000796D01*
X007097Y001166D01*
X007097Y001042D02*
X006911Y001042D01*
X006850Y000981D01*
X006850Y000857D01*
X007218Y000857D02*
X007218Y000981D01*
X007280Y001042D01*
X007403Y001042D01*
X007465Y000981D01*
X007465Y000919D01*
X007218Y000919D01*
X007218Y000857D02*
X007280Y000796D01*
X007403Y000796D01*
X007586Y000796D02*
X007586Y001042D01*
X007586Y000919D02*
X007710Y001042D01*
X007771Y001042D01*
X001081Y000981D02*
X001081Y000796D01*
X000896Y000796D01*
X000834Y000857D01*
X000896Y000919D01*
X001081Y000919D01*
X001081Y000981D02*
X001019Y001042D01*
X000896Y001042D01*
X000713Y001166D02*
X000713Y000796D01*
X000466Y000796D02*
X000466Y001166D01*
X000589Y001042D01*
X000713Y001166D01*
D11*
X003796Y002036D02*
X003846Y001986D01*
X003796Y002036D02*
X003946Y002036D01*
X003946Y001986D02*
X003946Y002086D01*
X003921Y002133D02*
X003821Y002233D01*
X003921Y002233D01*
X003946Y002208D01*
X003946Y002158D01*
X003921Y002133D01*
X003821Y002133D01*
X003796Y002158D01*
X003796Y002208D01*
X003821Y002233D01*
X003846Y002280D02*
X003921Y002280D01*
X003946Y002305D01*
X003946Y002380D01*
X003846Y002380D01*
X003871Y002428D02*
X003871Y002478D01*
X003946Y002428D02*
X003796Y002428D01*
X003796Y002528D01*
X005896Y002558D02*
X005921Y002533D01*
X005946Y002533D01*
X005971Y002558D01*
X005971Y002608D01*
X005996Y002633D01*
X006021Y002633D01*
X006046Y002608D01*
X006046Y002558D01*
X006021Y002533D01*
X006046Y002486D02*
X005946Y002486D01*
X005896Y002436D01*
X005946Y002386D01*
X006046Y002386D01*
X005971Y002386D02*
X005971Y002486D01*
X005896Y002558D02*
X005896Y002608D01*
X005921Y002633D01*
X005896Y002680D02*
X005971Y002680D01*
X005946Y002730D01*
X005946Y002755D01*
X005971Y002780D01*
X006021Y002780D01*
X006046Y002755D01*
X006046Y002705D01*
X006021Y002680D01*
X005896Y002680D02*
X005896Y002780D01*
X005921Y002828D02*
X005896Y002853D01*
X005896Y002903D01*
X005921Y002928D01*
X006021Y002828D01*
X006046Y002853D01*
X006046Y002903D01*
X006021Y002928D01*
X005921Y002928D01*
X005921Y002975D02*
X005896Y003000D01*
X005896Y003050D01*
X005921Y003075D01*
X005946Y003075D01*
X005971Y003050D01*
X005996Y003075D01*
X006021Y003075D01*
X006046Y003050D01*
X006046Y003000D01*
X006021Y002975D01*
X005971Y003025D02*
X005971Y003050D01*
X005971Y003122D02*
X005946Y003172D01*
X005946Y003197D01*
X005971Y003222D01*
X006021Y003222D01*
X006046Y003197D01*
X006046Y003147D01*
X006021Y003122D01*
X005971Y003122D02*
X005896Y003122D01*
X005896Y003222D01*
X005921Y002828D02*
X006021Y002828D01*
X007396Y002722D02*
X007496Y002622D01*
X007471Y002647D02*
X007546Y002722D01*
X007546Y002622D02*
X007396Y002622D01*
X007421Y002575D02*
X007396Y002550D01*
X007396Y002500D01*
X007421Y002475D01*
X007521Y002475D01*
X007546Y002500D01*
X007546Y002550D01*
X007521Y002575D01*
X007421Y002575D01*
X007446Y002280D02*
X007446Y002205D01*
X007471Y002180D01*
X007521Y002180D01*
X007546Y002205D01*
X007546Y002280D01*
X007571Y002280D02*
X007446Y002280D01*
X007571Y002280D02*
X007596Y002255D01*
X007596Y002230D01*
X007546Y002133D02*
X007546Y002058D01*
X007521Y002033D01*
X007496Y002058D01*
X007496Y002133D01*
X007471Y002133D02*
X007546Y002133D01*
X007471Y002133D02*
X007446Y002108D01*
X007446Y002058D01*
X007396Y001986D02*
X007546Y001986D01*
X007446Y001936D02*
X007396Y001986D01*
X007446Y001936D02*
X007396Y001886D01*
X007546Y001886D01*
X007956Y002511D02*
X007956Y002611D01*
X007906Y002561D02*
X008006Y002561D01*
X009746Y002311D02*
X009746Y002236D01*
X009896Y002236D01*
X009896Y002311D01*
X009871Y002336D01*
X009846Y002336D01*
X009821Y002311D01*
X009821Y002236D01*
X009821Y002311D02*
X009796Y002336D01*
X009771Y002336D01*
X009746Y002311D01*
X009771Y001480D02*
X009746Y001455D01*
X009746Y001380D01*
X009896Y001380D01*
X009896Y001455D01*
X009871Y001480D01*
X009771Y001480D01*
X009746Y001333D02*
X009896Y001333D01*
X009746Y001233D01*
X009896Y001233D01*
X009871Y001186D02*
X009896Y001161D01*
X009896Y001111D01*
X009871Y001086D01*
X009771Y001086D01*
X009746Y001111D01*
X009746Y001161D01*
X009771Y001186D01*
X009821Y001186D02*
X009821Y001136D01*
X009821Y001186D02*
X009871Y001186D01*
X009896Y003236D02*
X009796Y003236D01*
X009746Y003286D01*
X009796Y003336D01*
X009896Y003336D01*
X009821Y003336D02*
X009821Y003236D01*
X008246Y003761D02*
X008221Y003736D01*
X008246Y003761D02*
X008246Y003811D01*
X008221Y003836D01*
X008196Y003836D01*
X008171Y003811D01*
X008171Y003786D01*
X008171Y003811D02*
X008146Y003836D01*
X008121Y003836D01*
X008096Y003811D01*
X008096Y003761D01*
X008121Y003736D01*
X008121Y003883D02*
X008096Y003908D01*
X008096Y003958D01*
X008121Y003983D01*
X008146Y003983D01*
X008171Y003958D01*
X008196Y003983D01*
X008221Y003983D01*
X008246Y003958D01*
X008246Y003908D01*
X008221Y003883D01*
X008171Y003933D02*
X008171Y003958D01*
X008221Y004030D02*
X008121Y004030D01*
X008096Y004055D01*
X008096Y004105D01*
X008121Y004130D01*
X008221Y004030D01*
X008246Y004055D01*
X008246Y004105D01*
X008221Y004130D01*
X008121Y004130D01*
X008096Y004178D02*
X008096Y004253D01*
X008121Y004278D01*
X008171Y004278D01*
X008196Y004253D01*
X008196Y004178D01*
X008196Y004228D02*
X008246Y004278D01*
X008246Y004178D02*
X008096Y004178D01*
X009746Y004136D02*
X009821Y004136D01*
X009796Y004186D01*
X009796Y004211D01*
X009821Y004236D01*
X009871Y004236D01*
X009896Y004211D01*
X009896Y004161D01*
X009871Y004136D01*
X009746Y004136D02*
X009746Y004236D01*
X009746Y004283D02*
X009846Y004283D01*
X009896Y004333D01*
X009846Y004383D01*
X009746Y004383D01*
X006151Y004536D02*
X006075Y004611D01*
X006050Y004586D02*
X006151Y004686D01*
X006050Y004686D02*
X006050Y004536D01*
X006003Y004561D02*
X005978Y004536D01*
X005928Y004536D01*
X005903Y004561D01*
X006003Y004661D01*
X006003Y004561D01*
X005903Y004561D02*
X005903Y004661D01*
X005928Y004686D01*
X005978Y004686D01*
X006003Y004661D01*
X005856Y004536D02*
X005756Y004536D01*
X005806Y004536D02*
X005806Y004686D01*
X005756Y004636D01*
D12*
X005101Y004651D02*
X005024Y004727D01*
X005024Y005034D01*
X004948Y004958D02*
X005101Y004958D01*
X004794Y004881D02*
X004794Y004804D01*
X004487Y004804D01*
X004487Y004727D02*
X004487Y004881D01*
X004564Y004958D01*
X004717Y004958D01*
X004794Y004881D01*
X004564Y004651D02*
X004487Y004727D01*
X004564Y004651D02*
X004717Y004651D01*
X004334Y004651D02*
X004334Y004881D01*
X004257Y004958D01*
X004027Y004958D01*
X004027Y004651D01*
X003873Y004651D02*
X003797Y004651D01*
X003797Y004727D01*
X003873Y004727D01*
X003873Y004651D01*
X003643Y004727D02*
X003566Y004804D01*
X003413Y004804D01*
X003336Y004881D01*
X003413Y004958D01*
X003643Y004958D01*
X003183Y004958D02*
X002953Y004958D01*
X002876Y004881D01*
X002876Y004727D01*
X002953Y004651D01*
X003183Y004651D01*
X003336Y004651D02*
X003566Y004651D01*
X003643Y004727D01*
X002723Y004651D02*
X002569Y004651D01*
X002646Y004651D02*
X002646Y004958D01*
X002569Y004958D01*
X002416Y004958D02*
X002262Y004958D01*
X002339Y005034D02*
X002339Y004727D01*
X002416Y004651D01*
X002109Y004727D02*
X002109Y004881D01*
X002032Y004958D01*
X001879Y004958D01*
X001802Y004881D01*
X001802Y004727D01*
X001879Y004651D01*
X002032Y004651D01*
X002109Y004727D01*
X001648Y004727D02*
X001648Y004881D01*
X001572Y004958D01*
X001341Y004958D01*
X001341Y005111D02*
X001341Y004651D01*
X001572Y004651D01*
X001648Y004727D01*
X001188Y004727D02*
X001188Y004881D01*
X001111Y004958D01*
X000958Y004958D01*
X000881Y004881D01*
X000881Y004727D01*
X000958Y004651D01*
X001111Y004651D01*
X001188Y004727D01*
X000728Y004727D02*
X000651Y004651D01*
X000497Y004651D01*
X000421Y004727D01*
X000421Y005034D01*
X000497Y005111D01*
X000651Y005111D01*
X000728Y005034D01*
X000728Y004881D02*
X000574Y004881D01*
X000728Y004881D02*
X000728Y004727D01*
X002646Y005111D02*
X002646Y005188D01*
D13*
X005301Y003681D02*
X005301Y001881D01*
X006701Y001881D01*
X006701Y003681D01*
X005301Y003681D01*
X006439Y002081D02*
X006441Y002102D01*
X006447Y002121D01*
X006456Y002140D01*
X006468Y002156D01*
X006484Y002170D01*
X006501Y002181D01*
X006520Y002189D01*
X006541Y002193D01*
X006561Y002193D01*
X006582Y002189D01*
X006601Y002181D01*
X006618Y002170D01*
X006634Y002156D01*
X006646Y002140D01*
X006655Y002121D01*
X006661Y002102D01*
X006663Y002081D01*
X006661Y002060D01*
X006655Y002041D01*
X006646Y002022D01*
X006634Y002006D01*
X006618Y001992D01*
X006601Y001981D01*
X006582Y001973D01*
X006561Y001969D01*
X006541Y001969D01*
X006520Y001973D01*
X006501Y001981D01*
X006484Y001992D01*
X006468Y002006D01*
X006456Y002022D01*
X006447Y002041D01*
X006441Y002060D01*
X006439Y002081D01*
M02*
