%
M48
M72
T01C0.0236
T02C0.0315
T03C0.0394
T04C0.0400
T05C0.1260
%
T01
X11630Y2930
X13530Y3030
X15330Y5730
X13180Y7680
T02
X14580Y9730
X18680Y9480
X18680Y10480
T03
X17080Y6730
X17080Y5730
X17080Y4730
X17080Y3730
X17080Y2730
X16080Y2730
X16080Y3730
X16080Y4730
X16080Y5730
X16080Y6730
T04
X18730Y5780
X18730Y4780
X18730Y3780
X19730Y3780
X19730Y4780
X19730Y5780
X19380Y7180
X19380Y8280
T05
X10135Y2661
X19584Y2661
X19584Y16047
X10135Y16047
M30
