%
M48
M72
T01C0.0236
T02C0.0315
T03C0.0394
T04C0.0400
T05C0.1260
%
T01
X11670Y2970
X13570Y3070
X15370Y5770
T02
X18720Y9520
X18720Y10520
X14620Y9770
X11320Y9770
T03
X16120Y6770
X16120Y5770
X16120Y4770
X16120Y3770
X16120Y2770
X17120Y2770
X17120Y3770
X17120Y4770
X17120Y5770
X17120Y6770
T04
X18770Y5820
X18770Y4820
X18770Y3820
X19770Y3820
X19770Y4820
X19770Y5820
X19420Y7220
X19420Y8320
T05
X10175Y2701
X19624Y2701
X19624Y16087
X10175Y16087
M30
