G75*
G70*
%OFA0B0*%
%FSLAX24Y24*%
%IPPOS*%
%LPD*%
%AMOC8*
5,1,8,0,0,1.08239X$1,22.5*
%
%ADD10C,0.1300*%
%ADD11R,0.0280X0.0910*%
%ADD12R,0.0640X0.0640*%
%ADD13OC8,0.0640*%
%ADD14R,0.0552X0.0631*%
%ADD15R,0.0700X0.0700*%
%ADD16C,0.0700*%
%ADD17R,0.0670X0.0500*%
%ADD18R,0.0720X0.0060*%
%ADD19R,0.1300X0.0512*%
%ADD20R,0.0780X0.0780*%
%ADD21C,0.0780*%
%ADD22C,0.0591*%
%ADD23R,0.0434X0.0591*%
%ADD24R,0.0290X0.0540*%
D10*
X010175Y002701D03*
X019624Y002701D03*
X019624Y016087D03*
X010175Y016087D03*
D11*
X011570Y005845D03*
X012070Y005845D03*
X012570Y005845D03*
X013070Y005845D03*
X013570Y005845D03*
X014070Y005845D03*
X014570Y005845D03*
X014570Y003795D03*
X014070Y003795D03*
X013570Y003795D03*
X013070Y003795D03*
X012570Y003795D03*
X012070Y003795D03*
X011570Y003795D03*
D12*
X018770Y005820D03*
D13*
X018770Y004820D03*
X018770Y003820D03*
X019770Y003820D03*
X019770Y004820D03*
X019770Y005820D03*
D14*
X012994Y002820D03*
X012246Y002820D03*
D15*
X017120Y002770D03*
D16*
X017120Y003770D03*
X017120Y004770D03*
X017120Y005770D03*
X017120Y006770D03*
X016120Y006770D03*
X016120Y005770D03*
X016120Y004770D03*
X016120Y003770D03*
X016120Y002770D03*
D17*
X017920Y002720D03*
X017920Y002120D03*
D18*
X017920Y002420D03*
D19*
X016881Y011733D03*
X016881Y013307D03*
X019559Y013307D03*
X019559Y011733D03*
D20*
X019420Y007220D03*
D21*
X019420Y008320D03*
D22*
X018720Y009520D03*
X018720Y010520D03*
D23*
X012694Y006937D03*
X011946Y006937D03*
X012320Y007803D03*
D24*
X011820Y011546D03*
X011320Y011546D03*
X010820Y011546D03*
X010320Y011546D03*
X010320Y013798D03*
X010820Y013798D03*
X011320Y013798D03*
X011820Y013798D03*
M02*
