G75*
G70*
%OFA0B0*%
%FSLAX24Y24*%
%IPPOS*%
%LPD*%
%AMOC8*
5,1,8,0,0,1.08239X$1,22.5*
%
%ADD10C,0.0000*%
D10*
X008994Y002307D02*
X008994Y016481D01*
X008996Y016535D01*
X009001Y016588D01*
X009010Y016641D01*
X009023Y016693D01*
X009039Y016745D01*
X009059Y016795D01*
X009082Y016843D01*
X009109Y016890D01*
X009138Y016935D01*
X009171Y016978D01*
X009206Y017018D01*
X009244Y017056D01*
X009284Y017091D01*
X009327Y017124D01*
X009372Y017153D01*
X009419Y017180D01*
X009467Y017203D01*
X009517Y017223D01*
X009569Y017239D01*
X009621Y017252D01*
X009674Y017261D01*
X009727Y017266D01*
X009781Y017268D01*
X020018Y017268D01*
X020072Y017266D01*
X020125Y017261D01*
X020178Y017252D01*
X020230Y017239D01*
X020282Y017223D01*
X020332Y017203D01*
X020380Y017180D01*
X020427Y017153D01*
X020472Y017124D01*
X020515Y017091D01*
X020555Y017056D01*
X020593Y017018D01*
X020628Y016978D01*
X020661Y016935D01*
X020690Y016890D01*
X020717Y016843D01*
X020740Y016795D01*
X020760Y016745D01*
X020776Y016693D01*
X020789Y016641D01*
X020798Y016588D01*
X020803Y016535D01*
X020805Y016481D01*
X020805Y002307D01*
X020803Y002253D01*
X020798Y002200D01*
X020789Y002147D01*
X020776Y002095D01*
X020760Y002043D01*
X020740Y001993D01*
X020717Y001945D01*
X020690Y001898D01*
X020661Y001853D01*
X020628Y001810D01*
X020593Y001770D01*
X020555Y001732D01*
X020515Y001697D01*
X020472Y001664D01*
X020427Y001635D01*
X020380Y001608D01*
X020332Y001585D01*
X020282Y001565D01*
X020230Y001549D01*
X020178Y001536D01*
X020125Y001527D01*
X020072Y001522D01*
X020018Y001520D01*
X009781Y001520D01*
X009727Y001522D01*
X009674Y001527D01*
X009621Y001536D01*
X009569Y001549D01*
X009517Y001565D01*
X009467Y001585D01*
X009419Y001608D01*
X009372Y001635D01*
X009327Y001664D01*
X009284Y001697D01*
X009244Y001732D01*
X009206Y001770D01*
X009171Y001810D01*
X009138Y001853D01*
X009109Y001898D01*
X009082Y001945D01*
X009059Y001993D01*
X009039Y002043D01*
X009023Y002095D01*
X009010Y002147D01*
X009001Y002200D01*
X008996Y002253D01*
X008994Y002307D01*
X009545Y002701D02*
X009547Y002751D01*
X009553Y002801D01*
X009563Y002850D01*
X009577Y002898D01*
X009594Y002945D01*
X009615Y002990D01*
X009640Y003034D01*
X009668Y003075D01*
X009700Y003114D01*
X009734Y003151D01*
X009771Y003185D01*
X009811Y003215D01*
X009853Y003242D01*
X009897Y003266D01*
X009943Y003287D01*
X009990Y003303D01*
X010038Y003316D01*
X010088Y003325D01*
X010137Y003330D01*
X010188Y003331D01*
X010238Y003328D01*
X010287Y003321D01*
X010336Y003310D01*
X010384Y003295D01*
X010430Y003277D01*
X010475Y003255D01*
X010518Y003229D01*
X010559Y003200D01*
X010598Y003168D01*
X010634Y003133D01*
X010666Y003095D01*
X010696Y003055D01*
X010723Y003012D01*
X010746Y002968D01*
X010765Y002922D01*
X010781Y002874D01*
X010793Y002825D01*
X010801Y002776D01*
X010805Y002726D01*
X010805Y002676D01*
X010801Y002626D01*
X010793Y002577D01*
X010781Y002528D01*
X010765Y002480D01*
X010746Y002434D01*
X010723Y002390D01*
X010696Y002347D01*
X010666Y002307D01*
X010634Y002269D01*
X010598Y002234D01*
X010559Y002202D01*
X010518Y002173D01*
X010475Y002147D01*
X010430Y002125D01*
X010384Y002107D01*
X010336Y002092D01*
X010287Y002081D01*
X010238Y002074D01*
X010188Y002071D01*
X010137Y002072D01*
X010088Y002077D01*
X010038Y002086D01*
X009990Y002099D01*
X009943Y002115D01*
X009897Y002136D01*
X009853Y002160D01*
X009811Y002187D01*
X009771Y002217D01*
X009734Y002251D01*
X009700Y002288D01*
X009668Y002327D01*
X009640Y002368D01*
X009615Y002412D01*
X009594Y002457D01*
X009577Y002504D01*
X009563Y002552D01*
X009553Y002601D01*
X009547Y002651D01*
X009545Y002701D01*
X018994Y002701D02*
X018996Y002751D01*
X019002Y002801D01*
X019012Y002850D01*
X019026Y002898D01*
X019043Y002945D01*
X019064Y002990D01*
X019089Y003034D01*
X019117Y003075D01*
X019149Y003114D01*
X019183Y003151D01*
X019220Y003185D01*
X019260Y003215D01*
X019302Y003242D01*
X019346Y003266D01*
X019392Y003287D01*
X019439Y003303D01*
X019487Y003316D01*
X019537Y003325D01*
X019586Y003330D01*
X019637Y003331D01*
X019687Y003328D01*
X019736Y003321D01*
X019785Y003310D01*
X019833Y003295D01*
X019879Y003277D01*
X019924Y003255D01*
X019967Y003229D01*
X020008Y003200D01*
X020047Y003168D01*
X020083Y003133D01*
X020115Y003095D01*
X020145Y003055D01*
X020172Y003012D01*
X020195Y002968D01*
X020214Y002922D01*
X020230Y002874D01*
X020242Y002825D01*
X020250Y002776D01*
X020254Y002726D01*
X020254Y002676D01*
X020250Y002626D01*
X020242Y002577D01*
X020230Y002528D01*
X020214Y002480D01*
X020195Y002434D01*
X020172Y002390D01*
X020145Y002347D01*
X020115Y002307D01*
X020083Y002269D01*
X020047Y002234D01*
X020008Y002202D01*
X019967Y002173D01*
X019924Y002147D01*
X019879Y002125D01*
X019833Y002107D01*
X019785Y002092D01*
X019736Y002081D01*
X019687Y002074D01*
X019637Y002071D01*
X019586Y002072D01*
X019537Y002077D01*
X019487Y002086D01*
X019439Y002099D01*
X019392Y002115D01*
X019346Y002136D01*
X019302Y002160D01*
X019260Y002187D01*
X019220Y002217D01*
X019183Y002251D01*
X019149Y002288D01*
X019117Y002327D01*
X019089Y002368D01*
X019064Y002412D01*
X019043Y002457D01*
X019026Y002504D01*
X019012Y002552D01*
X019002Y002601D01*
X018996Y002651D01*
X018994Y002701D01*
X018994Y016087D02*
X018996Y016137D01*
X019002Y016187D01*
X019012Y016236D01*
X019026Y016284D01*
X019043Y016331D01*
X019064Y016376D01*
X019089Y016420D01*
X019117Y016461D01*
X019149Y016500D01*
X019183Y016537D01*
X019220Y016571D01*
X019260Y016601D01*
X019302Y016628D01*
X019346Y016652D01*
X019392Y016673D01*
X019439Y016689D01*
X019487Y016702D01*
X019537Y016711D01*
X019586Y016716D01*
X019637Y016717D01*
X019687Y016714D01*
X019736Y016707D01*
X019785Y016696D01*
X019833Y016681D01*
X019879Y016663D01*
X019924Y016641D01*
X019967Y016615D01*
X020008Y016586D01*
X020047Y016554D01*
X020083Y016519D01*
X020115Y016481D01*
X020145Y016441D01*
X020172Y016398D01*
X020195Y016354D01*
X020214Y016308D01*
X020230Y016260D01*
X020242Y016211D01*
X020250Y016162D01*
X020254Y016112D01*
X020254Y016062D01*
X020250Y016012D01*
X020242Y015963D01*
X020230Y015914D01*
X020214Y015866D01*
X020195Y015820D01*
X020172Y015776D01*
X020145Y015733D01*
X020115Y015693D01*
X020083Y015655D01*
X020047Y015620D01*
X020008Y015588D01*
X019967Y015559D01*
X019924Y015533D01*
X019879Y015511D01*
X019833Y015493D01*
X019785Y015478D01*
X019736Y015467D01*
X019687Y015460D01*
X019637Y015457D01*
X019586Y015458D01*
X019537Y015463D01*
X019487Y015472D01*
X019439Y015485D01*
X019392Y015501D01*
X019346Y015522D01*
X019302Y015546D01*
X019260Y015573D01*
X019220Y015603D01*
X019183Y015637D01*
X019149Y015674D01*
X019117Y015713D01*
X019089Y015754D01*
X019064Y015798D01*
X019043Y015843D01*
X019026Y015890D01*
X019012Y015938D01*
X019002Y015987D01*
X018996Y016037D01*
X018994Y016087D01*
X009545Y016087D02*
X009547Y016137D01*
X009553Y016187D01*
X009563Y016236D01*
X009577Y016284D01*
X009594Y016331D01*
X009615Y016376D01*
X009640Y016420D01*
X009668Y016461D01*
X009700Y016500D01*
X009734Y016537D01*
X009771Y016571D01*
X009811Y016601D01*
X009853Y016628D01*
X009897Y016652D01*
X009943Y016673D01*
X009990Y016689D01*
X010038Y016702D01*
X010088Y016711D01*
X010137Y016716D01*
X010188Y016717D01*
X010238Y016714D01*
X010287Y016707D01*
X010336Y016696D01*
X010384Y016681D01*
X010430Y016663D01*
X010475Y016641D01*
X010518Y016615D01*
X010559Y016586D01*
X010598Y016554D01*
X010634Y016519D01*
X010666Y016481D01*
X010696Y016441D01*
X010723Y016398D01*
X010746Y016354D01*
X010765Y016308D01*
X010781Y016260D01*
X010793Y016211D01*
X010801Y016162D01*
X010805Y016112D01*
X010805Y016062D01*
X010801Y016012D01*
X010793Y015963D01*
X010781Y015914D01*
X010765Y015866D01*
X010746Y015820D01*
X010723Y015776D01*
X010696Y015733D01*
X010666Y015693D01*
X010634Y015655D01*
X010598Y015620D01*
X010559Y015588D01*
X010518Y015559D01*
X010475Y015533D01*
X010430Y015511D01*
X010384Y015493D01*
X010336Y015478D01*
X010287Y015467D01*
X010238Y015460D01*
X010188Y015457D01*
X010137Y015458D01*
X010088Y015463D01*
X010038Y015472D01*
X009990Y015485D01*
X009943Y015501D01*
X009897Y015522D01*
X009853Y015546D01*
X009811Y015573D01*
X009771Y015603D01*
X009734Y015637D01*
X009700Y015674D01*
X009668Y015713D01*
X009640Y015754D01*
X009615Y015798D01*
X009594Y015843D01*
X009577Y015890D01*
X009563Y015938D01*
X009553Y015987D01*
X009547Y016037D01*
X009545Y016087D01*
M02*
