G75*
G70*
%OFA0B0*%
%FSLAX24Y24*%
%IPPOS*%
%LPD*%
%AMOC8*
5,1,8,0,0,1.08239X$1,22.5*
%
%ADD10C,0.0000*%
%ADD11R,0.0600X0.0600*%
%ADD12OC8,0.0600*%
%ADD13R,0.0660X0.0660*%
%ADD14C,0.0660*%
%ADD15R,0.2390X0.2390*%
%ADD16R,0.0740X0.0740*%
%ADD17C,0.0740*%
%ADD18C,0.0551*%
%ADD19C,0.0320*%
%ADD20C,0.0472*%
%ADD21C,0.0160*%
%ADD22C,0.0356*%
D10*
X008994Y002307D02*
X008994Y016481D01*
X008996Y016535D01*
X009001Y016588D01*
X009010Y016641D01*
X009023Y016693D01*
X009039Y016745D01*
X009059Y016795D01*
X009082Y016843D01*
X009109Y016890D01*
X009138Y016935D01*
X009171Y016978D01*
X009206Y017018D01*
X009244Y017056D01*
X009284Y017091D01*
X009327Y017124D01*
X009372Y017153D01*
X009419Y017180D01*
X009467Y017203D01*
X009517Y017223D01*
X009569Y017239D01*
X009621Y017252D01*
X009674Y017261D01*
X009727Y017266D01*
X009781Y017268D01*
X020018Y017268D01*
X020072Y017266D01*
X020125Y017261D01*
X020178Y017252D01*
X020230Y017239D01*
X020282Y017223D01*
X020332Y017203D01*
X020380Y017180D01*
X020427Y017153D01*
X020472Y017124D01*
X020515Y017091D01*
X020555Y017056D01*
X020593Y017018D01*
X020628Y016978D01*
X020661Y016935D01*
X020690Y016890D01*
X020717Y016843D01*
X020740Y016795D01*
X020760Y016745D01*
X020776Y016693D01*
X020789Y016641D01*
X020798Y016588D01*
X020803Y016535D01*
X020805Y016481D01*
X020805Y002307D01*
X020803Y002253D01*
X020798Y002200D01*
X020789Y002147D01*
X020776Y002095D01*
X020760Y002043D01*
X020740Y001993D01*
X020717Y001945D01*
X020690Y001898D01*
X020661Y001853D01*
X020628Y001810D01*
X020593Y001770D01*
X020555Y001732D01*
X020515Y001697D01*
X020472Y001664D01*
X020427Y001635D01*
X020380Y001608D01*
X020332Y001585D01*
X020282Y001565D01*
X020230Y001549D01*
X020178Y001536D01*
X020125Y001527D01*
X020072Y001522D01*
X020018Y001520D01*
X009781Y001520D01*
X009727Y001522D01*
X009674Y001527D01*
X009621Y001536D01*
X009569Y001549D01*
X009517Y001565D01*
X009467Y001585D01*
X009419Y001608D01*
X009372Y001635D01*
X009327Y001664D01*
X009284Y001697D01*
X009244Y001732D01*
X009206Y001770D01*
X009171Y001810D01*
X009138Y001853D01*
X009109Y001898D01*
X009082Y001945D01*
X009059Y001993D01*
X009039Y002043D01*
X009023Y002095D01*
X009010Y002147D01*
X009001Y002200D01*
X008996Y002253D01*
X008994Y002307D01*
X009545Y002701D02*
X009547Y002751D01*
X009553Y002801D01*
X009563Y002850D01*
X009577Y002898D01*
X009594Y002945D01*
X009615Y002990D01*
X009640Y003034D01*
X009668Y003075D01*
X009700Y003114D01*
X009734Y003151D01*
X009771Y003185D01*
X009811Y003215D01*
X009853Y003242D01*
X009897Y003266D01*
X009943Y003287D01*
X009990Y003303D01*
X010038Y003316D01*
X010088Y003325D01*
X010137Y003330D01*
X010188Y003331D01*
X010238Y003328D01*
X010287Y003321D01*
X010336Y003310D01*
X010384Y003295D01*
X010430Y003277D01*
X010475Y003255D01*
X010518Y003229D01*
X010559Y003200D01*
X010598Y003168D01*
X010634Y003133D01*
X010666Y003095D01*
X010696Y003055D01*
X010723Y003012D01*
X010746Y002968D01*
X010765Y002922D01*
X010781Y002874D01*
X010793Y002825D01*
X010801Y002776D01*
X010805Y002726D01*
X010805Y002676D01*
X010801Y002626D01*
X010793Y002577D01*
X010781Y002528D01*
X010765Y002480D01*
X010746Y002434D01*
X010723Y002390D01*
X010696Y002347D01*
X010666Y002307D01*
X010634Y002269D01*
X010598Y002234D01*
X010559Y002202D01*
X010518Y002173D01*
X010475Y002147D01*
X010430Y002125D01*
X010384Y002107D01*
X010336Y002092D01*
X010287Y002081D01*
X010238Y002074D01*
X010188Y002071D01*
X010137Y002072D01*
X010088Y002077D01*
X010038Y002086D01*
X009990Y002099D01*
X009943Y002115D01*
X009897Y002136D01*
X009853Y002160D01*
X009811Y002187D01*
X009771Y002217D01*
X009734Y002251D01*
X009700Y002288D01*
X009668Y002327D01*
X009640Y002368D01*
X009615Y002412D01*
X009594Y002457D01*
X009577Y002504D01*
X009563Y002552D01*
X009553Y002601D01*
X009547Y002651D01*
X009545Y002701D01*
X018994Y002701D02*
X018996Y002751D01*
X019002Y002801D01*
X019012Y002850D01*
X019026Y002898D01*
X019043Y002945D01*
X019064Y002990D01*
X019089Y003034D01*
X019117Y003075D01*
X019149Y003114D01*
X019183Y003151D01*
X019220Y003185D01*
X019260Y003215D01*
X019302Y003242D01*
X019346Y003266D01*
X019392Y003287D01*
X019439Y003303D01*
X019487Y003316D01*
X019537Y003325D01*
X019586Y003330D01*
X019637Y003331D01*
X019687Y003328D01*
X019736Y003321D01*
X019785Y003310D01*
X019833Y003295D01*
X019879Y003277D01*
X019924Y003255D01*
X019967Y003229D01*
X020008Y003200D01*
X020047Y003168D01*
X020083Y003133D01*
X020115Y003095D01*
X020145Y003055D01*
X020172Y003012D01*
X020195Y002968D01*
X020214Y002922D01*
X020230Y002874D01*
X020242Y002825D01*
X020250Y002776D01*
X020254Y002726D01*
X020254Y002676D01*
X020250Y002626D01*
X020242Y002577D01*
X020230Y002528D01*
X020214Y002480D01*
X020195Y002434D01*
X020172Y002390D01*
X020145Y002347D01*
X020115Y002307D01*
X020083Y002269D01*
X020047Y002234D01*
X020008Y002202D01*
X019967Y002173D01*
X019924Y002147D01*
X019879Y002125D01*
X019833Y002107D01*
X019785Y002092D01*
X019736Y002081D01*
X019687Y002074D01*
X019637Y002071D01*
X019586Y002072D01*
X019537Y002077D01*
X019487Y002086D01*
X019439Y002099D01*
X019392Y002115D01*
X019346Y002136D01*
X019302Y002160D01*
X019260Y002187D01*
X019220Y002217D01*
X019183Y002251D01*
X019149Y002288D01*
X019117Y002327D01*
X019089Y002368D01*
X019064Y002412D01*
X019043Y002457D01*
X019026Y002504D01*
X019012Y002552D01*
X019002Y002601D01*
X018996Y002651D01*
X018994Y002701D01*
X018994Y016087D02*
X018996Y016137D01*
X019002Y016187D01*
X019012Y016236D01*
X019026Y016284D01*
X019043Y016331D01*
X019064Y016376D01*
X019089Y016420D01*
X019117Y016461D01*
X019149Y016500D01*
X019183Y016537D01*
X019220Y016571D01*
X019260Y016601D01*
X019302Y016628D01*
X019346Y016652D01*
X019392Y016673D01*
X019439Y016689D01*
X019487Y016702D01*
X019537Y016711D01*
X019586Y016716D01*
X019637Y016717D01*
X019687Y016714D01*
X019736Y016707D01*
X019785Y016696D01*
X019833Y016681D01*
X019879Y016663D01*
X019924Y016641D01*
X019967Y016615D01*
X020008Y016586D01*
X020047Y016554D01*
X020083Y016519D01*
X020115Y016481D01*
X020145Y016441D01*
X020172Y016398D01*
X020195Y016354D01*
X020214Y016308D01*
X020230Y016260D01*
X020242Y016211D01*
X020250Y016162D01*
X020254Y016112D01*
X020254Y016062D01*
X020250Y016012D01*
X020242Y015963D01*
X020230Y015914D01*
X020214Y015866D01*
X020195Y015820D01*
X020172Y015776D01*
X020145Y015733D01*
X020115Y015693D01*
X020083Y015655D01*
X020047Y015620D01*
X020008Y015588D01*
X019967Y015559D01*
X019924Y015533D01*
X019879Y015511D01*
X019833Y015493D01*
X019785Y015478D01*
X019736Y015467D01*
X019687Y015460D01*
X019637Y015457D01*
X019586Y015458D01*
X019537Y015463D01*
X019487Y015472D01*
X019439Y015485D01*
X019392Y015501D01*
X019346Y015522D01*
X019302Y015546D01*
X019260Y015573D01*
X019220Y015603D01*
X019183Y015637D01*
X019149Y015674D01*
X019117Y015713D01*
X019089Y015754D01*
X019064Y015798D01*
X019043Y015843D01*
X019026Y015890D01*
X019012Y015938D01*
X019002Y015987D01*
X018996Y016037D01*
X018994Y016087D01*
X009545Y016087D02*
X009547Y016137D01*
X009553Y016187D01*
X009563Y016236D01*
X009577Y016284D01*
X009594Y016331D01*
X009615Y016376D01*
X009640Y016420D01*
X009668Y016461D01*
X009700Y016500D01*
X009734Y016537D01*
X009771Y016571D01*
X009811Y016601D01*
X009853Y016628D01*
X009897Y016652D01*
X009943Y016673D01*
X009990Y016689D01*
X010038Y016702D01*
X010088Y016711D01*
X010137Y016716D01*
X010188Y016717D01*
X010238Y016714D01*
X010287Y016707D01*
X010336Y016696D01*
X010384Y016681D01*
X010430Y016663D01*
X010475Y016641D01*
X010518Y016615D01*
X010559Y016586D01*
X010598Y016554D01*
X010634Y016519D01*
X010666Y016481D01*
X010696Y016441D01*
X010723Y016398D01*
X010746Y016354D01*
X010765Y016308D01*
X010781Y016260D01*
X010793Y016211D01*
X010801Y016162D01*
X010805Y016112D01*
X010805Y016062D01*
X010801Y016012D01*
X010793Y015963D01*
X010781Y015914D01*
X010765Y015866D01*
X010746Y015820D01*
X010723Y015776D01*
X010696Y015733D01*
X010666Y015693D01*
X010634Y015655D01*
X010598Y015620D01*
X010559Y015588D01*
X010518Y015559D01*
X010475Y015533D01*
X010430Y015511D01*
X010384Y015493D01*
X010336Y015478D01*
X010287Y015467D01*
X010238Y015460D01*
X010188Y015457D01*
X010137Y015458D01*
X010088Y015463D01*
X010038Y015472D01*
X009990Y015485D01*
X009943Y015501D01*
X009897Y015522D01*
X009853Y015546D01*
X009811Y015573D01*
X009771Y015603D01*
X009734Y015637D01*
X009700Y015674D01*
X009668Y015713D01*
X009640Y015754D01*
X009615Y015798D01*
X009594Y015843D01*
X009577Y015890D01*
X009563Y015938D01*
X009553Y015987D01*
X009547Y016037D01*
X009545Y016087D01*
D11*
X018770Y005820D03*
D12*
X018770Y004820D03*
X018770Y003820D03*
X019770Y003820D03*
X019770Y004820D03*
X019770Y005820D03*
D13*
X017120Y002770D03*
D14*
X017120Y003770D03*
X017120Y004770D03*
X017120Y005770D03*
X017120Y006770D03*
X016120Y006770D03*
X016120Y005770D03*
X016120Y004770D03*
X016120Y003770D03*
X016120Y002770D03*
D15*
X012970Y004849D03*
X012970Y009770D03*
X012970Y014691D03*
D16*
X019420Y007220D03*
D17*
X019420Y008320D03*
D18*
X018720Y009520D03*
X018720Y010520D03*
D19*
X014620Y009770D02*
X012970Y009770D01*
X011320Y009770D01*
D20*
X011320Y009770D03*
X014620Y009770D03*
D21*
X014388Y010070D02*
X014305Y010070D01*
X014305Y011023D01*
X014223Y011105D01*
X011717Y011105D01*
X011635Y011023D01*
X011635Y010070D01*
X011552Y010070D01*
X011533Y010089D01*
X011395Y010146D01*
X011245Y010146D01*
X011107Y010089D01*
X011001Y009983D01*
X010944Y009845D01*
X010944Y009695D01*
X011001Y009557D01*
X011107Y009451D01*
X011245Y009394D01*
X011395Y009394D01*
X011533Y009451D01*
X011552Y009470D01*
X011635Y009470D01*
X011635Y008517D01*
X011717Y008435D01*
X014223Y008435D01*
X014305Y008517D01*
X014305Y009470D01*
X014388Y009470D01*
X014407Y009451D01*
X014545Y009394D01*
X014695Y009394D01*
X014833Y009451D01*
X014939Y009557D01*
X014996Y009695D01*
X014996Y009845D01*
X014939Y009983D01*
X014833Y010089D01*
X014695Y010146D01*
X014545Y010146D01*
X014407Y010089D01*
X014388Y010070D01*
X014397Y010079D02*
X014305Y010079D01*
X014305Y010238D02*
X018415Y010238D01*
X018368Y010285D02*
X018485Y010168D01*
X018637Y010104D01*
X018803Y010104D01*
X018955Y010168D01*
X019072Y010285D01*
X019136Y010437D01*
X019136Y010603D01*
X019072Y010755D01*
X018955Y010872D01*
X018803Y010936D01*
X018637Y010936D01*
X018485Y010872D01*
X018368Y010755D01*
X018304Y010603D01*
X018304Y010437D01*
X018368Y010285D01*
X018322Y010396D02*
X014305Y010396D01*
X014305Y010555D02*
X018304Y010555D01*
X018350Y010713D02*
X014305Y010713D01*
X014305Y010872D02*
X018484Y010872D01*
X018956Y010872D02*
X020625Y010872D01*
X020625Y011030D02*
X014298Y011030D01*
X014843Y010079D02*
X020625Y010079D01*
X020625Y009921D02*
X018839Y009921D01*
X018803Y009936D02*
X018637Y009936D01*
X018485Y009872D01*
X018368Y009755D01*
X018304Y009603D01*
X018304Y009437D01*
X018368Y009285D01*
X018485Y009168D01*
X018637Y009104D01*
X018803Y009104D01*
X018955Y009168D01*
X019072Y009285D01*
X019136Y009437D01*
X019136Y009603D01*
X019072Y009755D01*
X018955Y009872D01*
X018803Y009936D01*
X018601Y009921D02*
X014965Y009921D01*
X014996Y009762D02*
X018374Y009762D01*
X018305Y009604D02*
X014958Y009604D01*
X014819Y009445D02*
X018304Y009445D01*
X018367Y009287D02*
X014305Y009287D01*
X014305Y009445D02*
X014421Y009445D01*
X014305Y009128D02*
X018580Y009128D01*
X018860Y009128D02*
X020625Y009128D01*
X020625Y008970D02*
X014305Y008970D01*
X014305Y008811D02*
X019273Y008811D01*
X019319Y008830D02*
X019131Y008752D01*
X018988Y008609D01*
X018910Y008421D01*
X018910Y008219D01*
X018988Y008031D01*
X019131Y007888D01*
X019319Y007810D01*
X019521Y007810D01*
X019709Y007888D01*
X019852Y008031D01*
X019930Y008219D01*
X019930Y008421D01*
X019852Y008609D01*
X019709Y008752D01*
X019521Y008830D01*
X019319Y008830D01*
X019567Y008811D02*
X020625Y008811D01*
X020625Y008653D02*
X019809Y008653D01*
X019900Y008494D02*
X020625Y008494D01*
X020625Y008336D02*
X019930Y008336D01*
X019913Y008177D02*
X020625Y008177D01*
X020625Y008019D02*
X019840Y008019D01*
X019814Y007770D02*
X019440Y007770D01*
X019440Y007240D01*
X019400Y007240D01*
X019400Y007770D01*
X019026Y007770D01*
X018981Y007758D01*
X018939Y007734D01*
X018906Y007701D01*
X018882Y007659D01*
X018870Y007614D01*
X018870Y007240D01*
X019400Y007240D01*
X019400Y007200D01*
X019440Y007200D01*
X019440Y007240D01*
X019970Y007240D01*
X019970Y007614D01*
X019958Y007659D01*
X019934Y007701D01*
X019901Y007734D01*
X019859Y007758D01*
X019814Y007770D01*
X019933Y007702D02*
X020625Y007702D01*
X020625Y007860D02*
X019642Y007860D01*
X019440Y007702D02*
X019400Y007702D01*
X019400Y007543D02*
X019440Y007543D01*
X019440Y007385D02*
X019400Y007385D01*
X019400Y007226D02*
X017247Y007226D01*
X017213Y007240D02*
X017027Y007240D01*
X016854Y007168D01*
X016722Y007036D01*
X016650Y006863D01*
X016650Y006677D01*
X016722Y006504D01*
X016854Y006372D01*
X017027Y006300D01*
X017213Y006300D01*
X017386Y006372D01*
X017518Y006504D01*
X017590Y006677D01*
X017590Y006863D01*
X017518Y007036D01*
X017386Y007168D01*
X017213Y007240D01*
X016993Y007226D02*
X016247Y007226D01*
X016213Y007240D02*
X016386Y007168D01*
X016518Y007036D01*
X016590Y006863D01*
X016590Y006677D01*
X016518Y006504D01*
X016386Y006372D01*
X016213Y006300D01*
X016027Y006300D01*
X015854Y006372D01*
X015722Y006504D01*
X015650Y006677D01*
X015650Y006863D01*
X015722Y007036D01*
X015854Y007168D01*
X016027Y007240D01*
X016213Y007240D01*
X015993Y007226D02*
X009174Y007226D01*
X009174Y007068D02*
X015753Y007068D01*
X015669Y006909D02*
X009174Y006909D01*
X009174Y006751D02*
X015650Y006751D01*
X015685Y006592D02*
X009174Y006592D01*
X009174Y006434D02*
X015792Y006434D01*
X015854Y006168D02*
X015722Y006036D01*
X015664Y005896D01*
X015657Y005908D01*
X015640Y005950D01*
X015627Y005963D01*
X015604Y006004D01*
X015579Y006011D01*
X015550Y006040D01*
X015433Y006088D01*
X015307Y006088D01*
X015190Y006040D01*
X015100Y005950D01*
X015052Y005833D01*
X015052Y005707D01*
X015100Y005590D01*
X015129Y005561D01*
X015136Y005536D01*
X015136Y005536D01*
X015136Y005536D01*
X015177Y005513D01*
X015190Y005500D01*
X015231Y005483D01*
X015296Y005447D01*
X015459Y005358D01*
X015472Y005333D01*
X015505Y005324D01*
X015650Y005179D01*
X015757Y005072D01*
X015722Y005036D01*
X015650Y004863D01*
X015650Y004677D01*
X015722Y004504D01*
X015854Y004372D01*
X016027Y004300D01*
X016213Y004300D01*
X016260Y004319D01*
X016400Y004179D01*
X016529Y004050D01*
X016735Y004050D01*
X016722Y004036D01*
X016650Y003863D01*
X016650Y003811D01*
X016590Y003751D01*
X016590Y003863D01*
X016518Y004036D01*
X016386Y004168D01*
X016213Y004240D01*
X016027Y004240D01*
X015854Y004168D01*
X015722Y004036D01*
X015650Y003863D01*
X015650Y003677D01*
X015722Y003504D01*
X015735Y003490D01*
X015679Y003490D01*
X015550Y003361D01*
X015379Y003190D01*
X013865Y003190D01*
X013840Y003250D01*
X013750Y003340D01*
X013633Y003388D01*
X013507Y003388D01*
X013390Y003340D01*
X013300Y003250D01*
X013252Y003133D01*
X013252Y003007D01*
X013300Y002890D01*
X013390Y002800D01*
X013507Y002752D01*
X013517Y002752D01*
X013519Y002750D01*
X013598Y002750D01*
X013676Y002741D01*
X013679Y002743D01*
X013682Y002743D01*
X013690Y002750D01*
X015561Y002750D01*
X015610Y002799D01*
X015610Y002788D01*
X016102Y002788D01*
X015599Y002788D01*
X015610Y002752D02*
X015610Y002730D01*
X015623Y002651D01*
X015647Y002574D01*
X015684Y002503D01*
X015731Y002438D01*
X015788Y002381D01*
X015853Y002334D01*
X015924Y002297D01*
X016001Y002273D01*
X016080Y002260D01*
X016102Y002260D01*
X016102Y002752D01*
X016138Y002752D01*
X016138Y002788D01*
X016650Y002788D01*
X016630Y002788D02*
X016630Y002810D01*
X016617Y002889D01*
X016593Y002966D01*
X016556Y003037D01*
X016532Y003071D01*
X016640Y003179D01*
X016843Y003382D01*
X016854Y003372D01*
X017027Y003300D01*
X017213Y003300D01*
X017386Y003372D01*
X017518Y003504D01*
X017590Y003677D01*
X017590Y003863D01*
X017518Y004036D01*
X017505Y004050D01*
X018378Y004050D01*
X018330Y004002D01*
X018330Y003638D01*
X018588Y003380D01*
X018952Y003380D01*
X019210Y003638D01*
X019210Y004002D01*
X019162Y004050D01*
X019361Y004050D01*
X019533Y004222D01*
X019568Y004256D01*
X019859Y004380D01*
X019952Y004380D01*
X020020Y004448D01*
X020025Y004450D01*
X020025Y004450D01*
X020025Y004450D01*
X020027Y004455D01*
X020210Y004638D01*
X020210Y005002D01*
X019952Y005260D01*
X019588Y005260D01*
X019330Y005002D01*
X019330Y004877D01*
X019245Y004556D01*
X019222Y004533D01*
X019179Y004490D01*
X019062Y004490D01*
X019210Y004638D01*
X019210Y005002D01*
X018952Y005260D01*
X018588Y005260D01*
X018330Y005002D01*
X018330Y004638D01*
X018478Y004490D01*
X017505Y004490D01*
X017518Y004504D01*
X017590Y004677D01*
X017590Y004863D01*
X017518Y005036D01*
X017386Y005168D01*
X017213Y005240D01*
X017027Y005240D01*
X016854Y005168D01*
X016722Y005036D01*
X016650Y004863D01*
X016650Y004677D01*
X016722Y004504D01*
X016735Y004490D01*
X016711Y004490D01*
X016571Y004630D01*
X016590Y004677D01*
X016590Y004863D01*
X016518Y005036D01*
X016505Y005050D01*
X016711Y005050D01*
X016980Y005319D01*
X017027Y005300D01*
X017213Y005300D01*
X017386Y005372D01*
X017518Y005504D01*
X017538Y005550D01*
X017703Y005550D01*
X017703Y005550D01*
X018330Y005550D01*
X018330Y005462D01*
X018412Y005380D01*
X019128Y005380D01*
X019210Y005462D01*
X019210Y006178D01*
X019128Y006260D01*
X018412Y006260D01*
X018330Y006178D01*
X018330Y005990D01*
X017538Y005990D01*
X017518Y006036D01*
X017386Y006168D01*
X017213Y006240D01*
X017027Y006240D01*
X016854Y006168D01*
X016722Y006036D01*
X016650Y005863D01*
X016650Y005677D01*
X016669Y005630D01*
X016529Y005490D01*
X016505Y005490D01*
X016518Y005504D01*
X016590Y005677D01*
X016590Y005863D01*
X016518Y006036D01*
X016386Y006168D01*
X016213Y006240D01*
X016027Y006240D01*
X015854Y006168D01*
X015802Y006117D02*
X014290Y006117D01*
X014305Y006102D02*
X014223Y006184D01*
X011717Y006184D01*
X011635Y006102D01*
X011635Y003596D01*
X011717Y003514D01*
X014223Y003514D01*
X014305Y003596D01*
X014305Y006102D01*
X014305Y005958D02*
X015108Y005958D01*
X015052Y005800D02*
X014305Y005800D01*
X014305Y005641D02*
X015079Y005641D01*
X015232Y005483D02*
X014305Y005483D01*
X014305Y005324D02*
X015504Y005324D01*
X015663Y005166D02*
X014305Y005166D01*
X014305Y005007D02*
X015709Y005007D01*
X015650Y004849D02*
X014305Y004849D01*
X014305Y004690D02*
X015650Y004690D01*
X015710Y004532D02*
X014305Y004532D01*
X014305Y004373D02*
X015852Y004373D01*
X015965Y004215D02*
X014305Y004215D01*
X014305Y004056D02*
X015741Y004056D01*
X015664Y003898D02*
X014305Y003898D01*
X014305Y003739D02*
X015650Y003739D01*
X015690Y003581D02*
X014290Y003581D01*
X013826Y003264D02*
X015452Y003264D01*
X015611Y003422D02*
X010551Y003422D01*
X010634Y003388D02*
X010336Y003511D01*
X010014Y003511D01*
X009716Y003388D01*
X009489Y003160D01*
X009365Y002862D01*
X009365Y002540D01*
X009489Y002242D01*
X009716Y002014D01*
X010014Y001891D01*
X010336Y001891D01*
X010634Y002014D01*
X010862Y002242D01*
X010985Y002540D01*
X010985Y002862D01*
X010862Y003160D01*
X010634Y003388D01*
X010758Y003264D02*
X013314Y003264D01*
X013252Y003105D02*
X010884Y003105D01*
X010950Y002947D02*
X013277Y002947D01*
X013420Y002788D02*
X010985Y002788D01*
X010985Y002630D02*
X015629Y002630D01*
X015610Y002752D02*
X016102Y002752D01*
X016102Y002788D01*
X016138Y002788D02*
X016630Y002788D01*
X016630Y002752D02*
X016138Y002752D01*
X016138Y002260D01*
X016160Y002260D01*
X016239Y002273D01*
X016316Y002297D01*
X016387Y002334D01*
X016452Y002381D01*
X016509Y002438D01*
X016556Y002503D01*
X016593Y002574D01*
X016617Y002651D01*
X016630Y002730D01*
X016630Y002752D01*
X016611Y002630D02*
X016650Y002630D01*
X016650Y002471D02*
X016533Y002471D01*
X016650Y002382D02*
X016732Y002300D01*
X017508Y002300D01*
X017590Y002382D01*
X017590Y003158D01*
X017508Y003240D01*
X016732Y003240D01*
X016650Y003158D01*
X016650Y002382D01*
X016720Y002313D02*
X016345Y002313D01*
X016138Y002313D02*
X016102Y002313D01*
X016102Y002471D02*
X016138Y002471D01*
X016138Y002630D02*
X016102Y002630D01*
X015895Y002313D02*
X010891Y002313D01*
X010956Y002471D02*
X015707Y002471D01*
X015470Y002970D02*
X015770Y003270D01*
X016420Y003270D01*
X016920Y003770D01*
X017120Y003770D01*
X017550Y003581D02*
X018387Y003581D01*
X018330Y003739D02*
X017590Y003739D01*
X017576Y003898D02*
X018330Y003898D01*
X018546Y003422D02*
X017437Y003422D01*
X017590Y003105D02*
X018915Y003105D01*
X018937Y003160D02*
X018814Y002862D01*
X018814Y002540D01*
X018937Y002242D01*
X019165Y002014D01*
X019463Y001891D01*
X019785Y001891D01*
X020083Y002014D01*
X020311Y002242D01*
X020434Y002540D01*
X020434Y002862D01*
X020311Y003160D01*
X020083Y003388D01*
X019996Y003424D01*
X020210Y003638D01*
X020210Y004002D01*
X019952Y004260D01*
X019588Y004260D01*
X019330Y004002D01*
X019330Y003638D01*
X019459Y003509D01*
X019165Y003388D01*
X018937Y003160D01*
X019041Y003264D02*
X016725Y003264D01*
X016640Y003179D02*
X016640Y003179D01*
X016650Y003105D02*
X016566Y003105D01*
X016599Y002947D02*
X016650Y002947D01*
X016664Y003898D02*
X016576Y003898D01*
X016523Y004056D02*
X016499Y004056D01*
X016364Y004215D02*
X016275Y004215D01*
X016620Y004270D02*
X019270Y004270D01*
X019442Y004442D01*
X019557Y004876D01*
X019770Y004820D01*
X019856Y004617D01*
X019442Y004442D01*
X019770Y004770D01*
X019770Y004820D01*
X020104Y004532D02*
X020625Y004532D01*
X020625Y004690D02*
X020210Y004690D01*
X020210Y004849D02*
X020625Y004849D01*
X020625Y005007D02*
X020205Y005007D01*
X020047Y005166D02*
X020625Y005166D01*
X020625Y005324D02*
X017271Y005324D01*
X017389Y005166D02*
X018493Y005166D01*
X018335Y005007D02*
X017531Y005007D01*
X017590Y004849D02*
X018330Y004849D01*
X018330Y004690D02*
X017590Y004690D01*
X017530Y004532D02*
X018436Y004532D01*
X019104Y004532D02*
X019220Y004532D01*
X019210Y004690D02*
X019280Y004690D01*
X019322Y004849D02*
X019210Y004849D01*
X019205Y005007D02*
X019335Y005007D01*
X019493Y005166D02*
X019047Y005166D01*
X019210Y005483D02*
X019485Y005483D01*
X019588Y005380D02*
X019330Y005638D01*
X019330Y006002D01*
X019588Y006260D01*
X019952Y006260D01*
X020210Y006002D01*
X020210Y005638D01*
X019952Y005380D01*
X019588Y005380D01*
X019330Y005641D02*
X019210Y005641D01*
X019210Y005800D02*
X019330Y005800D01*
X019330Y005958D02*
X019210Y005958D01*
X019210Y006117D02*
X019444Y006117D01*
X019440Y006670D02*
X019814Y006670D01*
X019859Y006682D01*
X019901Y006706D01*
X019934Y006739D01*
X019958Y006781D01*
X019970Y006826D01*
X019970Y007200D01*
X019440Y007200D01*
X019440Y006670D01*
X019400Y006670D02*
X019400Y007200D01*
X018870Y007200D01*
X018870Y006826D01*
X018882Y006781D01*
X018906Y006739D01*
X018939Y006706D01*
X018981Y006682D01*
X019026Y006670D01*
X019400Y006670D01*
X019400Y006751D02*
X019440Y006751D01*
X019440Y006909D02*
X019400Y006909D01*
X019400Y007068D02*
X019440Y007068D01*
X019440Y007226D02*
X020625Y007226D01*
X020625Y007068D02*
X019970Y007068D01*
X019970Y006909D02*
X020625Y006909D01*
X020625Y006751D02*
X019940Y006751D01*
X019970Y007385D02*
X020625Y007385D01*
X020625Y007543D02*
X019970Y007543D01*
X019198Y007860D02*
X009174Y007860D01*
X009174Y007702D02*
X018907Y007702D01*
X018870Y007543D02*
X009174Y007543D01*
X009174Y007385D02*
X018870Y007385D01*
X018870Y007068D02*
X017487Y007068D01*
X017571Y006909D02*
X018870Y006909D01*
X018900Y006751D02*
X017590Y006751D01*
X017555Y006592D02*
X020625Y006592D01*
X020625Y006434D02*
X017448Y006434D01*
X017438Y006117D02*
X018330Y006117D01*
X018720Y005770D02*
X017612Y005770D01*
X017612Y005770D01*
X017120Y005770D01*
X016620Y005270D01*
X015870Y005270D01*
X015621Y005519D01*
X015323Y005684D01*
X015370Y005770D01*
X015456Y005817D01*
X015621Y005519D01*
X015370Y005770D01*
X015632Y005958D02*
X015689Y005958D01*
X015604Y006004D02*
X015604Y006004D01*
X015604Y006004D01*
X015296Y005447D02*
X015296Y005447D01*
X016120Y004770D02*
X016620Y004270D01*
X016670Y004532D02*
X016710Y004532D01*
X016650Y004690D02*
X016590Y004690D01*
X016590Y004849D02*
X016650Y004849D01*
X016709Y005007D02*
X016531Y005007D01*
X016827Y005166D02*
X016851Y005166D01*
X016665Y005641D02*
X016575Y005641D01*
X016590Y005800D02*
X016650Y005800D01*
X016689Y005958D02*
X016551Y005958D01*
X016438Y006117D02*
X016802Y006117D01*
X016792Y006434D02*
X016448Y006434D01*
X016555Y006592D02*
X016685Y006592D01*
X016650Y006751D02*
X016590Y006751D01*
X016571Y006909D02*
X016669Y006909D01*
X016753Y007068D02*
X016487Y007068D01*
X017497Y005483D02*
X018330Y005483D01*
X018720Y005770D02*
X018770Y005820D01*
X020055Y005483D02*
X020625Y005483D01*
X020625Y005641D02*
X020210Y005641D01*
X020210Y005800D02*
X020625Y005800D01*
X020625Y005958D02*
X020210Y005958D01*
X020096Y006117D02*
X020625Y006117D01*
X020625Y006275D02*
X009174Y006275D01*
X009174Y006117D02*
X011650Y006117D01*
X011635Y005958D02*
X009174Y005958D01*
X009174Y005800D02*
X011635Y005800D01*
X011635Y005641D02*
X009174Y005641D01*
X009174Y005483D02*
X011635Y005483D01*
X011635Y005324D02*
X009174Y005324D01*
X009174Y005166D02*
X011635Y005166D01*
X011635Y005007D02*
X009174Y005007D01*
X009174Y004849D02*
X011635Y004849D01*
X011635Y004690D02*
X009174Y004690D01*
X009174Y004532D02*
X011635Y004532D01*
X011635Y004373D02*
X009174Y004373D01*
X009174Y004215D02*
X011635Y004215D01*
X011635Y004056D02*
X009174Y004056D01*
X009174Y003898D02*
X011635Y003898D01*
X011635Y003739D02*
X009174Y003739D01*
X009174Y003581D02*
X011650Y003581D01*
X011670Y002970D02*
X010420Y003720D01*
X009799Y003422D02*
X009174Y003422D01*
X009174Y003264D02*
X009592Y003264D01*
X009466Y003105D02*
X009174Y003105D01*
X009174Y002947D02*
X009400Y002947D01*
X009365Y002788D02*
X009174Y002788D01*
X009174Y002630D02*
X009365Y002630D01*
X009394Y002471D02*
X009174Y002471D01*
X009174Y002313D02*
X009459Y002313D01*
X009577Y002154D02*
X009200Y002154D01*
X009181Y002212D02*
X009174Y002307D01*
X009174Y016481D01*
X009181Y016576D01*
X009240Y016756D01*
X009352Y016910D01*
X009506Y017022D01*
X009686Y017081D01*
X009781Y017088D01*
X020018Y017088D01*
X020113Y017081D01*
X020293Y017022D01*
X020447Y016910D01*
X020559Y016756D01*
X020618Y016576D01*
X020625Y016481D01*
X020625Y002307D01*
X020618Y002212D01*
X020559Y002032D01*
X020447Y001878D01*
X020293Y001766D01*
X020113Y001707D01*
X020018Y001700D01*
X019943Y001700D01*
X009781Y001700D01*
X009686Y001707D01*
X009506Y001766D01*
X009506Y001766D01*
X009352Y001878D01*
X009240Y002032D01*
X009181Y002212D01*
X009266Y001996D02*
X009762Y001996D01*
X009408Y001837D02*
X020391Y001837D01*
X020533Y001996D02*
X020037Y001996D01*
X020222Y002154D02*
X020599Y002154D01*
X020625Y002313D02*
X020340Y002313D01*
X020405Y002471D02*
X020625Y002471D01*
X020625Y002630D02*
X020434Y002630D01*
X020434Y002788D02*
X020625Y002788D01*
X020625Y002947D02*
X020399Y002947D01*
X020333Y003105D02*
X020625Y003105D01*
X020625Y003264D02*
X020207Y003264D01*
X020000Y003422D02*
X020625Y003422D01*
X020625Y003581D02*
X020153Y003581D01*
X020210Y003739D02*
X020625Y003739D01*
X020625Y003898D02*
X020210Y003898D01*
X020156Y004056D02*
X020625Y004056D01*
X020625Y004215D02*
X019998Y004215D01*
X019843Y004373D02*
X020625Y004373D01*
X019542Y004215D02*
X019526Y004215D01*
X019384Y004056D02*
X019367Y004056D01*
X019330Y003898D02*
X019210Y003898D01*
X019210Y003739D02*
X019330Y003739D01*
X019387Y003581D02*
X019153Y003581D01*
X019248Y003422D02*
X018994Y003422D01*
X018849Y002947D02*
X017590Y002947D01*
X017590Y002788D02*
X018814Y002788D01*
X018814Y002630D02*
X017590Y002630D01*
X017590Y002471D02*
X018843Y002471D01*
X018908Y002313D02*
X017520Y002313D01*
X019026Y002154D02*
X010773Y002154D01*
X010588Y001996D02*
X019211Y001996D01*
X015470Y002970D02*
X013610Y002970D01*
X013569Y003018D01*
X013570Y003070D01*
X013570Y003020D01*
X013610Y002970D01*
X009174Y008019D02*
X019000Y008019D01*
X018927Y008177D02*
X009174Y008177D01*
X009174Y008336D02*
X018910Y008336D01*
X018940Y008494D02*
X014282Y008494D01*
X014305Y008653D02*
X019031Y008653D01*
X019073Y009287D02*
X020625Y009287D01*
X020625Y009445D02*
X019136Y009445D01*
X019135Y009604D02*
X020625Y009604D01*
X020625Y009762D02*
X019066Y009762D01*
X019025Y010238D02*
X020625Y010238D01*
X020625Y010396D02*
X019118Y010396D01*
X019136Y010555D02*
X020625Y010555D01*
X020625Y010713D02*
X019090Y010713D01*
X020625Y011189D02*
X009174Y011189D01*
X009174Y011347D02*
X020625Y011347D01*
X020625Y011506D02*
X009174Y011506D01*
X009174Y011664D02*
X020625Y011664D01*
X020625Y011823D02*
X009174Y011823D01*
X009174Y011981D02*
X020625Y011981D01*
X020625Y012140D02*
X009174Y012140D01*
X009174Y012298D02*
X020625Y012298D01*
X020625Y012457D02*
X009174Y012457D01*
X009174Y012615D02*
X020625Y012615D01*
X020625Y012774D02*
X009174Y012774D01*
X009174Y012932D02*
X020625Y012932D01*
X020625Y013091D02*
X009174Y013091D01*
X009174Y013249D02*
X020625Y013249D01*
X020625Y013408D02*
X014321Y013408D01*
X014333Y013427D02*
X014345Y013473D01*
X014345Y014611D01*
X013050Y014611D01*
X013050Y013316D01*
X014189Y013316D01*
X014234Y013329D01*
X014275Y013352D01*
X014309Y013386D01*
X014333Y013427D01*
X014345Y013566D02*
X020625Y013566D01*
X020625Y013725D02*
X014345Y013725D01*
X014345Y013883D02*
X020625Y013883D01*
X020625Y014042D02*
X014345Y014042D01*
X014345Y014200D02*
X020625Y014200D01*
X020625Y014359D02*
X014345Y014359D01*
X014345Y014517D02*
X020625Y014517D01*
X020625Y014676D02*
X013050Y014676D01*
X013050Y014611D02*
X013050Y014771D01*
X014345Y014771D01*
X014345Y015910D01*
X014333Y015956D01*
X014309Y015997D01*
X014275Y016030D01*
X014234Y016054D01*
X014189Y016066D01*
X013050Y016066D01*
X013050Y014771D01*
X012890Y014771D01*
X012890Y014611D01*
X013050Y014611D01*
X013050Y014517D02*
X012890Y014517D01*
X012890Y014611D02*
X012890Y013316D01*
X011751Y013316D01*
X011706Y013329D01*
X011665Y013352D01*
X011631Y013386D01*
X011607Y013427D01*
X011595Y013473D01*
X011595Y014611D01*
X012890Y014611D01*
X012890Y014676D02*
X009174Y014676D01*
X009174Y014834D02*
X011595Y014834D01*
X011595Y014771D02*
X012890Y014771D01*
X012890Y016066D01*
X011751Y016066D01*
X011706Y016054D01*
X011665Y016030D01*
X011631Y015997D01*
X011607Y015956D01*
X011595Y015910D01*
X011595Y014771D01*
X011595Y014993D02*
X009174Y014993D01*
X009174Y015151D02*
X011595Y015151D01*
X011595Y015310D02*
X010415Y015310D01*
X010336Y015277D02*
X010634Y015400D01*
X010862Y015628D01*
X010985Y015926D01*
X010985Y016248D01*
X010862Y016546D01*
X010634Y016774D01*
X010336Y016897D01*
X010014Y016897D01*
X009716Y016774D01*
X009489Y016546D01*
X009365Y016248D01*
X009365Y015926D01*
X009489Y015628D01*
X009716Y015400D01*
X010014Y015277D01*
X010336Y015277D01*
X010702Y015468D02*
X011595Y015468D01*
X011595Y015627D02*
X010860Y015627D01*
X010927Y015785D02*
X011595Y015785D01*
X011604Y015944D02*
X010985Y015944D01*
X010985Y016102D02*
X018814Y016102D01*
X018814Y016248D02*
X018814Y015926D01*
X018937Y015628D01*
X019165Y015400D01*
X019463Y015277D01*
X019785Y015277D01*
X020083Y015400D01*
X020311Y015628D01*
X020434Y015926D01*
X020434Y016248D01*
X020311Y016546D01*
X020083Y016774D01*
X019785Y016897D01*
X019463Y016897D01*
X019165Y016774D01*
X018937Y016546D01*
X018814Y016248D01*
X018819Y016261D02*
X010980Y016261D01*
X010914Y016419D02*
X018885Y016419D01*
X018969Y016578D02*
X010830Y016578D01*
X010671Y016736D02*
X019128Y016736D01*
X019457Y016895D02*
X010342Y016895D01*
X010008Y016895D02*
X009341Y016895D01*
X009234Y016736D02*
X009679Y016736D01*
X009520Y016578D02*
X009182Y016578D01*
X009174Y016419D02*
X009436Y016419D01*
X009370Y016261D02*
X009174Y016261D01*
X009174Y016102D02*
X009365Y016102D01*
X009365Y015944D02*
X009174Y015944D01*
X009174Y015785D02*
X009424Y015785D01*
X009490Y015627D02*
X009174Y015627D01*
X009174Y015468D02*
X009649Y015468D01*
X009936Y015310D02*
X009174Y015310D01*
X009174Y014517D02*
X011595Y014517D01*
X011595Y014359D02*
X009174Y014359D01*
X009174Y014200D02*
X011595Y014200D01*
X011595Y014042D02*
X009174Y014042D01*
X009174Y013883D02*
X011595Y013883D01*
X011595Y013725D02*
X009174Y013725D01*
X009174Y013566D02*
X011595Y013566D01*
X011619Y013408D02*
X009174Y013408D01*
X009174Y011030D02*
X011642Y011030D01*
X011635Y010872D02*
X009174Y010872D01*
X009174Y010713D02*
X011635Y010713D01*
X011635Y010555D02*
X009174Y010555D01*
X009174Y010396D02*
X011635Y010396D01*
X011635Y010238D02*
X009174Y010238D01*
X009174Y010079D02*
X011097Y010079D01*
X010975Y009921D02*
X009174Y009921D01*
X009174Y009762D02*
X010944Y009762D01*
X010982Y009604D02*
X009174Y009604D01*
X009174Y009445D02*
X011121Y009445D01*
X011519Y009445D02*
X011635Y009445D01*
X011635Y009287D02*
X009174Y009287D01*
X009174Y009128D02*
X011635Y009128D01*
X011635Y008970D02*
X009174Y008970D01*
X009174Y008811D02*
X011635Y008811D01*
X011635Y008653D02*
X009174Y008653D01*
X009174Y008494D02*
X011658Y008494D01*
X011635Y010079D02*
X011543Y010079D01*
X012890Y013408D02*
X013050Y013408D01*
X013050Y013566D02*
X012890Y013566D01*
X012890Y013725D02*
X013050Y013725D01*
X013050Y013883D02*
X012890Y013883D01*
X012890Y014042D02*
X013050Y014042D01*
X013050Y014200D02*
X012890Y014200D01*
X012890Y014359D02*
X013050Y014359D01*
X013050Y014834D02*
X012890Y014834D01*
X012890Y014993D02*
X013050Y014993D01*
X013050Y015151D02*
X012890Y015151D01*
X012890Y015310D02*
X013050Y015310D01*
X013050Y015468D02*
X012890Y015468D01*
X012890Y015627D02*
X013050Y015627D01*
X013050Y015785D02*
X012890Y015785D01*
X012890Y015944D02*
X013050Y015944D01*
X014336Y015944D02*
X018814Y015944D01*
X018872Y015785D02*
X014345Y015785D01*
X014345Y015627D02*
X018939Y015627D01*
X019097Y015468D02*
X014345Y015468D01*
X014345Y015310D02*
X019384Y015310D01*
X019864Y015310D02*
X020625Y015310D01*
X020625Y015468D02*
X020150Y015468D01*
X020309Y015627D02*
X020625Y015627D01*
X020625Y015785D02*
X020376Y015785D01*
X020434Y015944D02*
X020625Y015944D01*
X020625Y016102D02*
X020434Y016102D01*
X020429Y016261D02*
X020625Y016261D01*
X020625Y016419D02*
X020363Y016419D01*
X020279Y016578D02*
X020617Y016578D01*
X020565Y016736D02*
X020120Y016736D01*
X019791Y016895D02*
X020458Y016895D01*
X020197Y017053D02*
X009602Y017053D01*
X014345Y015151D02*
X020625Y015151D01*
X020625Y014993D02*
X014345Y014993D01*
X014345Y014834D02*
X020625Y014834D01*
D22*
X015370Y005770D03*
X013570Y003070D03*
X011670Y002970D03*
M02*
