G75*
G70*
%OFA0B0*%
%FSLAX24Y24*%
%IPPOS*%
%LPD*%
%AMOC8*
5,1,8,0,0,1.08239X$1,22.5*
%
%ADD10C,0.0000*%
%ADD11C,0.0160*%
%ADD12C,0.0100*%
%ADD13C,0.0040*%
%ADD14C,0.0060*%
%ADD15C,0.0030*%
D10*
X008994Y002307D02*
X008994Y016481D01*
X008996Y016535D01*
X009001Y016588D01*
X009010Y016641D01*
X009023Y016693D01*
X009039Y016745D01*
X009059Y016795D01*
X009082Y016843D01*
X009109Y016890D01*
X009138Y016935D01*
X009171Y016978D01*
X009206Y017018D01*
X009244Y017056D01*
X009284Y017091D01*
X009327Y017124D01*
X009372Y017153D01*
X009419Y017180D01*
X009467Y017203D01*
X009517Y017223D01*
X009569Y017239D01*
X009621Y017252D01*
X009674Y017261D01*
X009727Y017266D01*
X009781Y017268D01*
X020018Y017268D01*
X020072Y017266D01*
X020125Y017261D01*
X020178Y017252D01*
X020230Y017239D01*
X020282Y017223D01*
X020332Y017203D01*
X020380Y017180D01*
X020427Y017153D01*
X020472Y017124D01*
X020515Y017091D01*
X020555Y017056D01*
X020593Y017018D01*
X020628Y016978D01*
X020661Y016935D01*
X020690Y016890D01*
X020717Y016843D01*
X020740Y016795D01*
X020760Y016745D01*
X020776Y016693D01*
X020789Y016641D01*
X020798Y016588D01*
X020803Y016535D01*
X020805Y016481D01*
X020805Y002307D01*
X020803Y002253D01*
X020798Y002200D01*
X020789Y002147D01*
X020776Y002095D01*
X020760Y002043D01*
X020740Y001993D01*
X020717Y001945D01*
X020690Y001898D01*
X020661Y001853D01*
X020628Y001810D01*
X020593Y001770D01*
X020555Y001732D01*
X020515Y001697D01*
X020472Y001664D01*
X020427Y001635D01*
X020380Y001608D01*
X020332Y001585D01*
X020282Y001565D01*
X020230Y001549D01*
X020178Y001536D01*
X020125Y001527D01*
X020072Y001522D01*
X020018Y001520D01*
X009781Y001520D01*
X009727Y001522D01*
X009674Y001527D01*
X009621Y001536D01*
X009569Y001549D01*
X009517Y001565D01*
X009467Y001585D01*
X009419Y001608D01*
X009372Y001635D01*
X009327Y001664D01*
X009284Y001697D01*
X009244Y001732D01*
X009206Y001770D01*
X009171Y001810D01*
X009138Y001853D01*
X009109Y001898D01*
X009082Y001945D01*
X009059Y001993D01*
X009039Y002043D01*
X009023Y002095D01*
X009010Y002147D01*
X009001Y002200D01*
X008996Y002253D01*
X008994Y002307D01*
X009545Y002701D02*
X009547Y002751D01*
X009553Y002801D01*
X009563Y002850D01*
X009577Y002898D01*
X009594Y002945D01*
X009615Y002990D01*
X009640Y003034D01*
X009668Y003075D01*
X009700Y003114D01*
X009734Y003151D01*
X009771Y003185D01*
X009811Y003215D01*
X009853Y003242D01*
X009897Y003266D01*
X009943Y003287D01*
X009990Y003303D01*
X010038Y003316D01*
X010088Y003325D01*
X010137Y003330D01*
X010188Y003331D01*
X010238Y003328D01*
X010287Y003321D01*
X010336Y003310D01*
X010384Y003295D01*
X010430Y003277D01*
X010475Y003255D01*
X010518Y003229D01*
X010559Y003200D01*
X010598Y003168D01*
X010634Y003133D01*
X010666Y003095D01*
X010696Y003055D01*
X010723Y003012D01*
X010746Y002968D01*
X010765Y002922D01*
X010781Y002874D01*
X010793Y002825D01*
X010801Y002776D01*
X010805Y002726D01*
X010805Y002676D01*
X010801Y002626D01*
X010793Y002577D01*
X010781Y002528D01*
X010765Y002480D01*
X010746Y002434D01*
X010723Y002390D01*
X010696Y002347D01*
X010666Y002307D01*
X010634Y002269D01*
X010598Y002234D01*
X010559Y002202D01*
X010518Y002173D01*
X010475Y002147D01*
X010430Y002125D01*
X010384Y002107D01*
X010336Y002092D01*
X010287Y002081D01*
X010238Y002074D01*
X010188Y002071D01*
X010137Y002072D01*
X010088Y002077D01*
X010038Y002086D01*
X009990Y002099D01*
X009943Y002115D01*
X009897Y002136D01*
X009853Y002160D01*
X009811Y002187D01*
X009771Y002217D01*
X009734Y002251D01*
X009700Y002288D01*
X009668Y002327D01*
X009640Y002368D01*
X009615Y002412D01*
X009594Y002457D01*
X009577Y002504D01*
X009563Y002552D01*
X009553Y002601D01*
X009547Y002651D01*
X009545Y002701D01*
X018994Y002701D02*
X018996Y002751D01*
X019002Y002801D01*
X019012Y002850D01*
X019026Y002898D01*
X019043Y002945D01*
X019064Y002990D01*
X019089Y003034D01*
X019117Y003075D01*
X019149Y003114D01*
X019183Y003151D01*
X019220Y003185D01*
X019260Y003215D01*
X019302Y003242D01*
X019346Y003266D01*
X019392Y003287D01*
X019439Y003303D01*
X019487Y003316D01*
X019537Y003325D01*
X019586Y003330D01*
X019637Y003331D01*
X019687Y003328D01*
X019736Y003321D01*
X019785Y003310D01*
X019833Y003295D01*
X019879Y003277D01*
X019924Y003255D01*
X019967Y003229D01*
X020008Y003200D01*
X020047Y003168D01*
X020083Y003133D01*
X020115Y003095D01*
X020145Y003055D01*
X020172Y003012D01*
X020195Y002968D01*
X020214Y002922D01*
X020230Y002874D01*
X020242Y002825D01*
X020250Y002776D01*
X020254Y002726D01*
X020254Y002676D01*
X020250Y002626D01*
X020242Y002577D01*
X020230Y002528D01*
X020214Y002480D01*
X020195Y002434D01*
X020172Y002390D01*
X020145Y002347D01*
X020115Y002307D01*
X020083Y002269D01*
X020047Y002234D01*
X020008Y002202D01*
X019967Y002173D01*
X019924Y002147D01*
X019879Y002125D01*
X019833Y002107D01*
X019785Y002092D01*
X019736Y002081D01*
X019687Y002074D01*
X019637Y002071D01*
X019586Y002072D01*
X019537Y002077D01*
X019487Y002086D01*
X019439Y002099D01*
X019392Y002115D01*
X019346Y002136D01*
X019302Y002160D01*
X019260Y002187D01*
X019220Y002217D01*
X019183Y002251D01*
X019149Y002288D01*
X019117Y002327D01*
X019089Y002368D01*
X019064Y002412D01*
X019043Y002457D01*
X019026Y002504D01*
X019012Y002552D01*
X019002Y002601D01*
X018996Y002651D01*
X018994Y002701D01*
X018994Y016087D02*
X018996Y016137D01*
X019002Y016187D01*
X019012Y016236D01*
X019026Y016284D01*
X019043Y016331D01*
X019064Y016376D01*
X019089Y016420D01*
X019117Y016461D01*
X019149Y016500D01*
X019183Y016537D01*
X019220Y016571D01*
X019260Y016601D01*
X019302Y016628D01*
X019346Y016652D01*
X019392Y016673D01*
X019439Y016689D01*
X019487Y016702D01*
X019537Y016711D01*
X019586Y016716D01*
X019637Y016717D01*
X019687Y016714D01*
X019736Y016707D01*
X019785Y016696D01*
X019833Y016681D01*
X019879Y016663D01*
X019924Y016641D01*
X019967Y016615D01*
X020008Y016586D01*
X020047Y016554D01*
X020083Y016519D01*
X020115Y016481D01*
X020145Y016441D01*
X020172Y016398D01*
X020195Y016354D01*
X020214Y016308D01*
X020230Y016260D01*
X020242Y016211D01*
X020250Y016162D01*
X020254Y016112D01*
X020254Y016062D01*
X020250Y016012D01*
X020242Y015963D01*
X020230Y015914D01*
X020214Y015866D01*
X020195Y015820D01*
X020172Y015776D01*
X020145Y015733D01*
X020115Y015693D01*
X020083Y015655D01*
X020047Y015620D01*
X020008Y015588D01*
X019967Y015559D01*
X019924Y015533D01*
X019879Y015511D01*
X019833Y015493D01*
X019785Y015478D01*
X019736Y015467D01*
X019687Y015460D01*
X019637Y015457D01*
X019586Y015458D01*
X019537Y015463D01*
X019487Y015472D01*
X019439Y015485D01*
X019392Y015501D01*
X019346Y015522D01*
X019302Y015546D01*
X019260Y015573D01*
X019220Y015603D01*
X019183Y015637D01*
X019149Y015674D01*
X019117Y015713D01*
X019089Y015754D01*
X019064Y015798D01*
X019043Y015843D01*
X019026Y015890D01*
X019012Y015938D01*
X019002Y015987D01*
X018996Y016037D01*
X018994Y016087D01*
X009545Y016087D02*
X009547Y016137D01*
X009553Y016187D01*
X009563Y016236D01*
X009577Y016284D01*
X009594Y016331D01*
X009615Y016376D01*
X009640Y016420D01*
X009668Y016461D01*
X009700Y016500D01*
X009734Y016537D01*
X009771Y016571D01*
X009811Y016601D01*
X009853Y016628D01*
X009897Y016652D01*
X009943Y016673D01*
X009990Y016689D01*
X010038Y016702D01*
X010088Y016711D01*
X010137Y016716D01*
X010188Y016717D01*
X010238Y016714D01*
X010287Y016707D01*
X010336Y016696D01*
X010384Y016681D01*
X010430Y016663D01*
X010475Y016641D01*
X010518Y016615D01*
X010559Y016586D01*
X010598Y016554D01*
X010634Y016519D01*
X010666Y016481D01*
X010696Y016441D01*
X010723Y016398D01*
X010746Y016354D01*
X010765Y016308D01*
X010781Y016260D01*
X010793Y016211D01*
X010801Y016162D01*
X010805Y016112D01*
X010805Y016062D01*
X010801Y016012D01*
X010793Y015963D01*
X010781Y015914D01*
X010765Y015866D01*
X010746Y015820D01*
X010723Y015776D01*
X010696Y015733D01*
X010666Y015693D01*
X010634Y015655D01*
X010598Y015620D01*
X010559Y015588D01*
X010518Y015559D01*
X010475Y015533D01*
X010430Y015511D01*
X010384Y015493D01*
X010336Y015478D01*
X010287Y015467D01*
X010238Y015460D01*
X010188Y015457D01*
X010137Y015458D01*
X010088Y015463D01*
X010038Y015472D01*
X009990Y015485D01*
X009943Y015501D01*
X009897Y015522D01*
X009853Y015546D01*
X009811Y015573D01*
X009771Y015603D01*
X009734Y015637D01*
X009700Y015674D01*
X009668Y015713D01*
X009640Y015754D01*
X009615Y015798D01*
X009594Y015843D01*
X009577Y015890D01*
X009563Y015938D01*
X009553Y015987D01*
X009547Y016037D01*
X009545Y016087D01*
D11*
X011370Y005420D02*
X011370Y004270D01*
X014770Y004270D02*
X014770Y005370D01*
D12*
X011540Y004520D02*
X011542Y004546D01*
X011548Y004572D01*
X011557Y004596D01*
X011570Y004619D01*
X011586Y004640D01*
X011605Y004658D01*
X011626Y004674D01*
X011650Y004686D01*
X011674Y004694D01*
X011700Y004699D01*
X011727Y004700D01*
X011753Y004697D01*
X011778Y004690D01*
X011802Y004680D01*
X011825Y004666D01*
X011845Y004650D01*
X011862Y004630D01*
X011877Y004608D01*
X011888Y004584D01*
X011896Y004559D01*
X011900Y004533D01*
X011900Y004507D01*
X011896Y004481D01*
X011888Y004456D01*
X011877Y004432D01*
X011862Y004410D01*
X011845Y004390D01*
X011825Y004374D01*
X011802Y004360D01*
X011778Y004350D01*
X011753Y004343D01*
X011727Y004340D01*
X011700Y004341D01*
X011674Y004346D01*
X011650Y004354D01*
X011626Y004366D01*
X011605Y004382D01*
X011586Y004400D01*
X011570Y004421D01*
X011557Y004444D01*
X011548Y004468D01*
X011542Y004494D01*
X011540Y004520D01*
X012120Y011620D02*
X012620Y011620D01*
X012620Y013720D01*
X012120Y013720D01*
X010020Y013720D02*
X009520Y013720D01*
X009520Y011620D01*
X010070Y011620D01*
D13*
X010593Y014503D02*
X010440Y014656D01*
X010440Y014810D01*
X010593Y014963D01*
X010747Y014733D02*
X010747Y014579D01*
X010824Y014503D01*
X011054Y014503D01*
X011207Y014503D02*
X011361Y014656D01*
X011361Y014810D01*
X011207Y014963D01*
X011054Y014810D02*
X010824Y014810D01*
X010747Y014733D01*
X011975Y014886D02*
X012051Y014963D01*
X012205Y014963D01*
X012282Y014886D01*
X012282Y014810D01*
X011975Y014503D01*
X012282Y014503D01*
X012435Y014579D02*
X012742Y014886D01*
X012742Y014579D01*
X012665Y014503D01*
X012512Y014503D01*
X012435Y014579D01*
X012435Y014886D01*
X012512Y014963D01*
X012665Y014963D01*
X012742Y014886D01*
X012895Y014810D02*
X013049Y014963D01*
X013049Y014503D01*
X013202Y014503D02*
X012895Y014503D01*
X013356Y014579D02*
X013433Y014503D01*
X013586Y014503D01*
X013663Y014579D01*
X013663Y014656D01*
X013586Y014733D01*
X013509Y014733D01*
X013586Y014733D02*
X013663Y014810D01*
X013663Y014886D01*
X013586Y014963D01*
X013433Y014963D01*
X013356Y014886D01*
X014277Y014886D02*
X014277Y014579D01*
X014353Y014503D01*
X014507Y014503D01*
X014584Y014579D01*
X014584Y014733D01*
X014430Y014733D01*
X014277Y014886D02*
X014353Y014963D01*
X014507Y014963D01*
X014584Y014886D01*
X014737Y014733D02*
X014737Y014579D01*
X014814Y014503D01*
X014967Y014503D01*
X015044Y014579D01*
X015044Y014733D01*
X014967Y014810D01*
X014814Y014810D01*
X014737Y014733D01*
X015197Y014810D02*
X015428Y014810D01*
X015504Y014733D01*
X015504Y014579D01*
X015428Y014503D01*
X015197Y014503D01*
X015197Y014963D01*
X015658Y014733D02*
X015658Y014579D01*
X015735Y014503D01*
X015888Y014503D01*
X015965Y014579D01*
X015965Y014733D01*
X015888Y014810D01*
X015735Y014810D01*
X015658Y014733D01*
X016118Y014810D02*
X016272Y014810D01*
X016195Y014886D02*
X016195Y014579D01*
X016272Y014503D01*
X016425Y014503D02*
X016579Y014503D01*
X016502Y014503D02*
X016502Y014810D01*
X016425Y014810D01*
X016502Y014963D02*
X016502Y015040D01*
X016809Y014810D02*
X016732Y014733D01*
X016732Y014579D01*
X016809Y014503D01*
X017039Y014503D01*
X017192Y014503D02*
X017423Y014503D01*
X017499Y014579D01*
X017423Y014656D01*
X017269Y014656D01*
X017192Y014733D01*
X017269Y014810D01*
X017499Y014810D01*
X017039Y014810D02*
X016809Y014810D01*
X018113Y014963D02*
X018113Y014503D01*
X018420Y014503D01*
X018574Y014810D02*
X018727Y014810D01*
X018650Y014886D02*
X018650Y014579D01*
X018727Y014503D01*
X018881Y014579D02*
X018881Y014733D01*
X018957Y014810D01*
X019187Y014810D01*
X019187Y014963D02*
X019187Y014503D01*
X018957Y014503D01*
X018881Y014579D01*
X019341Y014579D02*
X019418Y014579D01*
X019418Y014503D01*
X019341Y014503D01*
X019341Y014579D01*
D14*
X016988Y015756D02*
X016774Y015756D01*
X016667Y015863D01*
X016667Y016077D01*
X016774Y016183D01*
X016988Y016183D01*
X017094Y016077D01*
X017094Y015970D01*
X016667Y015970D01*
X016450Y016183D02*
X016130Y016183D01*
X016023Y016077D01*
X016023Y015863D01*
X016130Y015756D01*
X016450Y015756D01*
X016450Y016397D01*
X015805Y016077D02*
X015698Y016183D01*
X015485Y016183D01*
X015378Y016077D01*
X015378Y015863D01*
X015485Y015756D01*
X015698Y015756D01*
X015805Y015863D01*
X015805Y016077D01*
X015161Y015756D02*
X015161Y016397D01*
X014734Y016397D02*
X015161Y015756D01*
X014734Y015756D02*
X014734Y016397D01*
X013872Y016183D02*
X013872Y015756D01*
X013872Y016077D02*
X013445Y016077D01*
X013445Y016183D02*
X013445Y015756D01*
X013227Y015756D02*
X013227Y016397D01*
X013445Y016183D02*
X013658Y016397D01*
X013872Y016183D01*
X013227Y016077D02*
X012800Y016077D01*
X012800Y016397D02*
X012800Y015756D01*
D15*
X011660Y012775D02*
X011564Y012678D01*
X011660Y012775D02*
X011660Y012485D01*
X011564Y012485D02*
X011757Y012485D01*
X011462Y012485D02*
X011269Y012485D01*
X011366Y012485D02*
X011366Y012775D01*
X011269Y012678D01*
X011168Y012775D02*
X010974Y012775D01*
X011071Y012775D02*
X011071Y012485D01*
X010873Y012485D02*
X010873Y012775D01*
X010873Y012630D02*
X010680Y012630D01*
X010578Y012582D02*
X010578Y012533D01*
X010530Y012485D01*
X010433Y012485D01*
X010385Y012533D01*
X010433Y012630D02*
X010530Y012630D01*
X010578Y012582D01*
X010680Y012485D02*
X010680Y012775D01*
X010578Y012727D02*
X010530Y012775D01*
X010433Y012775D01*
X010385Y012727D01*
X010385Y012678D01*
X010433Y012630D01*
X011655Y008496D02*
X011655Y008303D01*
X011655Y008400D02*
X011365Y008400D01*
X011462Y008303D01*
X011413Y008202D02*
X011607Y008008D01*
X011655Y008057D01*
X011655Y008153D01*
X011607Y008202D01*
X011413Y008202D01*
X011365Y008153D01*
X011365Y008057D01*
X011413Y008008D01*
X011607Y008008D01*
X011413Y007907D02*
X011365Y007907D01*
X011365Y007714D01*
X011413Y007612D02*
X011365Y007564D01*
X011365Y007467D01*
X011413Y007419D01*
X011462Y007419D01*
X011510Y007467D01*
X011510Y007612D01*
X011607Y007612D02*
X011413Y007612D01*
X011607Y007612D02*
X011655Y007564D01*
X011655Y007467D01*
X011607Y007419D01*
X011510Y007318D02*
X011558Y007269D01*
X011558Y007124D01*
X011655Y007124D02*
X011365Y007124D01*
X011365Y007269D01*
X011413Y007318D01*
X011510Y007318D01*
X011607Y007714D02*
X011655Y007714D01*
X011607Y007714D02*
X011413Y007907D01*
X011413Y007023D02*
X011365Y006975D01*
X011365Y006878D01*
X011413Y006830D01*
X011607Y006830D01*
X011655Y006878D01*
X011655Y006975D01*
X011607Y007023D01*
X011655Y006728D02*
X011365Y006728D01*
X011462Y006632D01*
X011365Y006535D01*
X011655Y006535D01*
X012232Y004975D02*
X012328Y004878D01*
X012328Y004685D01*
X012328Y004830D02*
X012135Y004830D01*
X012135Y004878D02*
X012135Y004685D01*
X012135Y004878D02*
X012232Y004975D01*
X012430Y004975D02*
X012623Y004975D01*
X012526Y004975D02*
X012526Y004685D01*
X012821Y004685D02*
X012821Y004975D01*
X012724Y004975D02*
X012918Y004975D01*
X013019Y004975D02*
X013116Y004975D01*
X013067Y004975D02*
X013067Y004685D01*
X013019Y004685D02*
X013116Y004685D01*
X013215Y004685D02*
X013215Y004975D01*
X013409Y004685D01*
X013409Y004975D01*
X013510Y004975D02*
X013510Y004927D01*
X013607Y004830D01*
X013607Y004685D01*
X013607Y004830D02*
X013704Y004927D01*
X013704Y004975D01*
X013805Y004927D02*
X013853Y004975D01*
X013950Y004975D01*
X013998Y004927D01*
X013998Y004878D01*
X013805Y004685D01*
X013998Y004685D01*
X014099Y004830D02*
X014244Y004975D01*
X014244Y004685D01*
X014293Y004830D02*
X014099Y004830D01*
X013068Y002425D02*
X012874Y002232D01*
X012923Y002280D02*
X013068Y002135D01*
X012874Y002135D02*
X012874Y002425D01*
X012773Y002377D02*
X012580Y002183D01*
X012628Y002135D01*
X012725Y002135D01*
X012773Y002183D01*
X012773Y002377D01*
X012725Y002425D01*
X012628Y002425D01*
X012580Y002377D01*
X012580Y002183D01*
X012478Y002135D02*
X012285Y002135D01*
X012382Y002135D02*
X012382Y002425D01*
X012285Y002328D01*
X018365Y002330D02*
X018365Y002475D01*
X018413Y002523D01*
X018510Y002523D01*
X018558Y002475D01*
X018558Y002330D01*
X018655Y002330D02*
X018365Y002330D01*
X018365Y002228D02*
X018365Y002132D01*
X018365Y002180D02*
X018607Y002180D01*
X018655Y002132D01*
X018655Y002083D01*
X018607Y002035D01*
X018655Y002624D02*
X018655Y002818D01*
X018655Y002721D02*
X018365Y002721D01*
X018462Y002624D01*
X020210Y006835D02*
X020210Y007028D01*
X020113Y006932D02*
X020307Y006932D01*
X020307Y007130D02*
X020355Y007178D01*
X020355Y007275D01*
X020307Y007323D01*
X020258Y007323D01*
X020210Y007275D01*
X020210Y007226D01*
X020210Y007275D02*
X020162Y007323D01*
X020113Y007323D01*
X020065Y007275D01*
X020065Y007178D01*
X020113Y007130D01*
X020162Y007424D02*
X020355Y007521D01*
X020162Y007618D01*
X020160Y007935D02*
X020257Y007935D01*
X020305Y007983D01*
X020305Y008128D01*
X020353Y008128D02*
X020112Y008128D01*
X020112Y007983D01*
X020160Y007935D01*
X020402Y008032D02*
X020402Y008080D01*
X020353Y008128D01*
X020305Y008230D02*
X020112Y008230D01*
X020112Y008375D01*
X020160Y008423D01*
X020305Y008423D01*
X020257Y008524D02*
X020160Y008524D01*
X020112Y008573D01*
X020112Y008718D01*
X020015Y008718D02*
X020305Y008718D01*
X020305Y008573D01*
X020257Y008524D01*
X018305Y009635D02*
X018305Y009828D01*
X018305Y009930D02*
X018305Y010075D01*
X018257Y010123D01*
X018063Y010123D01*
X018015Y010075D01*
X018015Y009930D01*
X018305Y009930D01*
X018305Y009635D02*
X018015Y009635D01*
X018015Y010224D02*
X018015Y010369D01*
X018063Y010418D01*
X018160Y010418D01*
X018208Y010369D01*
X018208Y010224D01*
X018305Y010224D02*
X018015Y010224D01*
X018208Y010321D02*
X018305Y010418D01*
X020362Y011885D02*
X020555Y011885D01*
X020458Y011885D02*
X020362Y011982D01*
X020362Y012030D01*
X020410Y012131D02*
X020362Y012179D01*
X020362Y012276D01*
X020410Y012324D01*
X020458Y012324D01*
X020458Y012131D01*
X020410Y012131D02*
X020507Y012131D01*
X020555Y012179D01*
X020555Y012276D01*
X020555Y012425D02*
X020555Y012570D01*
X020507Y012619D01*
X020458Y012570D01*
X020458Y012474D01*
X020410Y012425D01*
X020362Y012474D01*
X020362Y012619D01*
X020410Y012720D02*
X020362Y012768D01*
X020362Y012865D01*
X020410Y012913D01*
X020458Y012913D01*
X020458Y012720D01*
X020410Y012720D02*
X020507Y012720D01*
X020555Y012768D01*
X020555Y012865D01*
X020507Y013063D02*
X020313Y013063D01*
X020362Y013111D02*
X020362Y013014D01*
X020507Y013063D02*
X020555Y013111D01*
X018365Y015741D02*
X018172Y015741D01*
X018268Y015741D02*
X018268Y016032D01*
X018172Y015935D01*
X018073Y015790D02*
X018073Y015741D01*
X018024Y015741D01*
X018024Y015790D01*
X018073Y015790D01*
X017923Y015790D02*
X017923Y015983D01*
X017730Y015790D01*
X017778Y015741D01*
X017875Y015741D01*
X017923Y015790D01*
X017923Y015983D02*
X017875Y016032D01*
X017778Y016032D01*
X017730Y015983D01*
X017730Y015790D01*
X017628Y015935D02*
X017532Y015741D01*
X017435Y015935D01*
M02*
