G75*
G70*
%OFA0B0*%
%FSLAX24Y24*%
%IPPOS*%
%LPD*%
%AMOC8*
5,1,8,0,0,1.08239X$1,22.5*
%
%ADD10C,0.1300*%
%ADD11R,0.0280X0.0910*%
%ADD12R,0.0640X0.0640*%
%ADD13OC8,0.0640*%
%ADD14R,0.0552X0.0631*%
%ADD15R,0.0700X0.0700*%
%ADD16C,0.0700*%
%ADD17R,0.0670X0.0500*%
%ADD18R,0.0720X0.0060*%
%ADD19R,0.1300X0.0512*%
%ADD20R,0.0780X0.0780*%
%ADD21C,0.0780*%
%ADD22C,0.0591*%
%ADD23R,0.0434X0.0591*%
%ADD24R,0.0540X0.0290*%
%ADD25R,0.0631X0.0552*%
D10*
X010135Y002661D03*
X019584Y002661D03*
X019584Y016047D03*
X010135Y016047D03*
D11*
X011530Y005805D03*
X012030Y005805D03*
X012530Y005805D03*
X013030Y005805D03*
X013530Y005805D03*
X014030Y005805D03*
X014530Y005805D03*
X014530Y003755D03*
X014030Y003755D03*
X013530Y003755D03*
X013030Y003755D03*
X012530Y003755D03*
X012030Y003755D03*
X011530Y003755D03*
D12*
X018730Y005780D03*
D13*
X018730Y004780D03*
X018730Y003780D03*
X019730Y003780D03*
X019730Y004780D03*
X019730Y005780D03*
D14*
X012954Y002780D03*
X012206Y002780D03*
D15*
X017080Y002730D03*
D16*
X017080Y003730D03*
X017080Y004730D03*
X017080Y005730D03*
X017080Y006730D03*
X016080Y006730D03*
X016080Y005730D03*
X016080Y004730D03*
X016080Y003730D03*
X016080Y002730D03*
D17*
X017880Y002680D03*
X017880Y002080D03*
D18*
X017880Y002380D03*
D19*
X016841Y011693D03*
X016841Y013267D03*
X019519Y013267D03*
X019519Y011693D03*
D20*
X019380Y007180D03*
D21*
X019380Y008280D03*
D22*
X018680Y009480D03*
X018680Y010480D03*
D23*
X010529Y013578D03*
X009781Y013578D03*
X010155Y014444D03*
D24*
X010531Y012359D03*
X010531Y011859D03*
X010531Y011359D03*
X010531Y010859D03*
X012783Y010859D03*
X012783Y011359D03*
X012783Y011859D03*
X012783Y012359D03*
D25*
X012580Y007654D03*
X012580Y006906D03*
M02*
