G75*
G70*
%OFA0B0*%
%FSLAX24Y24*%
%IPPOS*%
%LPD*%
%AMOC8*
5,1,8,0,0,1.08239X$1,22.5*
%
%ADD10C,0.0000*%
%ADD11C,0.0160*%
%ADD12C,0.0100*%
%ADD13C,0.0040*%
%ADD14C,0.0060*%
%ADD15C,0.0030*%
%ADD16C,0.0020*%
D10*
X008954Y002267D02*
X008954Y016441D01*
X008956Y016495D01*
X008961Y016548D01*
X008970Y016601D01*
X008983Y016653D01*
X008999Y016705D01*
X009019Y016755D01*
X009042Y016803D01*
X009069Y016850D01*
X009098Y016895D01*
X009131Y016938D01*
X009166Y016978D01*
X009204Y017016D01*
X009244Y017051D01*
X009287Y017084D01*
X009332Y017113D01*
X009379Y017140D01*
X009427Y017163D01*
X009477Y017183D01*
X009529Y017199D01*
X009581Y017212D01*
X009634Y017221D01*
X009687Y017226D01*
X009741Y017228D01*
X019978Y017228D01*
X020032Y017226D01*
X020085Y017221D01*
X020138Y017212D01*
X020190Y017199D01*
X020242Y017183D01*
X020292Y017163D01*
X020340Y017140D01*
X020387Y017113D01*
X020432Y017084D01*
X020475Y017051D01*
X020515Y017016D01*
X020553Y016978D01*
X020588Y016938D01*
X020621Y016895D01*
X020650Y016850D01*
X020677Y016803D01*
X020700Y016755D01*
X020720Y016705D01*
X020736Y016653D01*
X020749Y016601D01*
X020758Y016548D01*
X020763Y016495D01*
X020765Y016441D01*
X020765Y002267D01*
X020763Y002213D01*
X020758Y002160D01*
X020749Y002107D01*
X020736Y002055D01*
X020720Y002003D01*
X020700Y001953D01*
X020677Y001905D01*
X020650Y001858D01*
X020621Y001813D01*
X020588Y001770D01*
X020553Y001730D01*
X020515Y001692D01*
X020475Y001657D01*
X020432Y001624D01*
X020387Y001595D01*
X020340Y001568D01*
X020292Y001545D01*
X020242Y001525D01*
X020190Y001509D01*
X020138Y001496D01*
X020085Y001487D01*
X020032Y001482D01*
X019978Y001480D01*
X009741Y001480D01*
X009687Y001482D01*
X009634Y001487D01*
X009581Y001496D01*
X009529Y001509D01*
X009477Y001525D01*
X009427Y001545D01*
X009379Y001568D01*
X009332Y001595D01*
X009287Y001624D01*
X009244Y001657D01*
X009204Y001692D01*
X009166Y001730D01*
X009131Y001770D01*
X009098Y001813D01*
X009069Y001858D01*
X009042Y001905D01*
X009019Y001953D01*
X008999Y002003D01*
X008983Y002055D01*
X008970Y002107D01*
X008961Y002160D01*
X008956Y002213D01*
X008954Y002267D01*
X009505Y002661D02*
X009507Y002711D01*
X009513Y002761D01*
X009523Y002810D01*
X009537Y002858D01*
X009554Y002905D01*
X009575Y002950D01*
X009600Y002994D01*
X009628Y003035D01*
X009660Y003074D01*
X009694Y003111D01*
X009731Y003145D01*
X009771Y003175D01*
X009813Y003202D01*
X009857Y003226D01*
X009903Y003247D01*
X009950Y003263D01*
X009998Y003276D01*
X010048Y003285D01*
X010097Y003290D01*
X010148Y003291D01*
X010198Y003288D01*
X010247Y003281D01*
X010296Y003270D01*
X010344Y003255D01*
X010390Y003237D01*
X010435Y003215D01*
X010478Y003189D01*
X010519Y003160D01*
X010558Y003128D01*
X010594Y003093D01*
X010626Y003055D01*
X010656Y003015D01*
X010683Y002972D01*
X010706Y002928D01*
X010725Y002882D01*
X010741Y002834D01*
X010753Y002785D01*
X010761Y002736D01*
X010765Y002686D01*
X010765Y002636D01*
X010761Y002586D01*
X010753Y002537D01*
X010741Y002488D01*
X010725Y002440D01*
X010706Y002394D01*
X010683Y002350D01*
X010656Y002307D01*
X010626Y002267D01*
X010594Y002229D01*
X010558Y002194D01*
X010519Y002162D01*
X010478Y002133D01*
X010435Y002107D01*
X010390Y002085D01*
X010344Y002067D01*
X010296Y002052D01*
X010247Y002041D01*
X010198Y002034D01*
X010148Y002031D01*
X010097Y002032D01*
X010048Y002037D01*
X009998Y002046D01*
X009950Y002059D01*
X009903Y002075D01*
X009857Y002096D01*
X009813Y002120D01*
X009771Y002147D01*
X009731Y002177D01*
X009694Y002211D01*
X009660Y002248D01*
X009628Y002287D01*
X009600Y002328D01*
X009575Y002372D01*
X009554Y002417D01*
X009537Y002464D01*
X009523Y002512D01*
X009513Y002561D01*
X009507Y002611D01*
X009505Y002661D01*
X018954Y002661D02*
X018956Y002711D01*
X018962Y002761D01*
X018972Y002810D01*
X018986Y002858D01*
X019003Y002905D01*
X019024Y002950D01*
X019049Y002994D01*
X019077Y003035D01*
X019109Y003074D01*
X019143Y003111D01*
X019180Y003145D01*
X019220Y003175D01*
X019262Y003202D01*
X019306Y003226D01*
X019352Y003247D01*
X019399Y003263D01*
X019447Y003276D01*
X019497Y003285D01*
X019546Y003290D01*
X019597Y003291D01*
X019647Y003288D01*
X019696Y003281D01*
X019745Y003270D01*
X019793Y003255D01*
X019839Y003237D01*
X019884Y003215D01*
X019927Y003189D01*
X019968Y003160D01*
X020007Y003128D01*
X020043Y003093D01*
X020075Y003055D01*
X020105Y003015D01*
X020132Y002972D01*
X020155Y002928D01*
X020174Y002882D01*
X020190Y002834D01*
X020202Y002785D01*
X020210Y002736D01*
X020214Y002686D01*
X020214Y002636D01*
X020210Y002586D01*
X020202Y002537D01*
X020190Y002488D01*
X020174Y002440D01*
X020155Y002394D01*
X020132Y002350D01*
X020105Y002307D01*
X020075Y002267D01*
X020043Y002229D01*
X020007Y002194D01*
X019968Y002162D01*
X019927Y002133D01*
X019884Y002107D01*
X019839Y002085D01*
X019793Y002067D01*
X019745Y002052D01*
X019696Y002041D01*
X019647Y002034D01*
X019597Y002031D01*
X019546Y002032D01*
X019497Y002037D01*
X019447Y002046D01*
X019399Y002059D01*
X019352Y002075D01*
X019306Y002096D01*
X019262Y002120D01*
X019220Y002147D01*
X019180Y002177D01*
X019143Y002211D01*
X019109Y002248D01*
X019077Y002287D01*
X019049Y002328D01*
X019024Y002372D01*
X019003Y002417D01*
X018986Y002464D01*
X018972Y002512D01*
X018962Y002561D01*
X018956Y002611D01*
X018954Y002661D01*
X018954Y016047D02*
X018956Y016097D01*
X018962Y016147D01*
X018972Y016196D01*
X018986Y016244D01*
X019003Y016291D01*
X019024Y016336D01*
X019049Y016380D01*
X019077Y016421D01*
X019109Y016460D01*
X019143Y016497D01*
X019180Y016531D01*
X019220Y016561D01*
X019262Y016588D01*
X019306Y016612D01*
X019352Y016633D01*
X019399Y016649D01*
X019447Y016662D01*
X019497Y016671D01*
X019546Y016676D01*
X019597Y016677D01*
X019647Y016674D01*
X019696Y016667D01*
X019745Y016656D01*
X019793Y016641D01*
X019839Y016623D01*
X019884Y016601D01*
X019927Y016575D01*
X019968Y016546D01*
X020007Y016514D01*
X020043Y016479D01*
X020075Y016441D01*
X020105Y016401D01*
X020132Y016358D01*
X020155Y016314D01*
X020174Y016268D01*
X020190Y016220D01*
X020202Y016171D01*
X020210Y016122D01*
X020214Y016072D01*
X020214Y016022D01*
X020210Y015972D01*
X020202Y015923D01*
X020190Y015874D01*
X020174Y015826D01*
X020155Y015780D01*
X020132Y015736D01*
X020105Y015693D01*
X020075Y015653D01*
X020043Y015615D01*
X020007Y015580D01*
X019968Y015548D01*
X019927Y015519D01*
X019884Y015493D01*
X019839Y015471D01*
X019793Y015453D01*
X019745Y015438D01*
X019696Y015427D01*
X019647Y015420D01*
X019597Y015417D01*
X019546Y015418D01*
X019497Y015423D01*
X019447Y015432D01*
X019399Y015445D01*
X019352Y015461D01*
X019306Y015482D01*
X019262Y015506D01*
X019220Y015533D01*
X019180Y015563D01*
X019143Y015597D01*
X019109Y015634D01*
X019077Y015673D01*
X019049Y015714D01*
X019024Y015758D01*
X019003Y015803D01*
X018986Y015850D01*
X018972Y015898D01*
X018962Y015947D01*
X018956Y015997D01*
X018954Y016047D01*
X009505Y016047D02*
X009507Y016097D01*
X009513Y016147D01*
X009523Y016196D01*
X009537Y016244D01*
X009554Y016291D01*
X009575Y016336D01*
X009600Y016380D01*
X009628Y016421D01*
X009660Y016460D01*
X009694Y016497D01*
X009731Y016531D01*
X009771Y016561D01*
X009813Y016588D01*
X009857Y016612D01*
X009903Y016633D01*
X009950Y016649D01*
X009998Y016662D01*
X010048Y016671D01*
X010097Y016676D01*
X010148Y016677D01*
X010198Y016674D01*
X010247Y016667D01*
X010296Y016656D01*
X010344Y016641D01*
X010390Y016623D01*
X010435Y016601D01*
X010478Y016575D01*
X010519Y016546D01*
X010558Y016514D01*
X010594Y016479D01*
X010626Y016441D01*
X010656Y016401D01*
X010683Y016358D01*
X010706Y016314D01*
X010725Y016268D01*
X010741Y016220D01*
X010753Y016171D01*
X010761Y016122D01*
X010765Y016072D01*
X010765Y016022D01*
X010761Y015972D01*
X010753Y015923D01*
X010741Y015874D01*
X010725Y015826D01*
X010706Y015780D01*
X010683Y015736D01*
X010656Y015693D01*
X010626Y015653D01*
X010594Y015615D01*
X010558Y015580D01*
X010519Y015548D01*
X010478Y015519D01*
X010435Y015493D01*
X010390Y015471D01*
X010344Y015453D01*
X010296Y015438D01*
X010247Y015427D01*
X010198Y015420D01*
X010148Y015417D01*
X010097Y015418D01*
X010048Y015423D01*
X009998Y015432D01*
X009950Y015445D01*
X009903Y015461D01*
X009857Y015482D01*
X009813Y015506D01*
X009771Y015533D01*
X009731Y015563D01*
X009694Y015597D01*
X009660Y015634D01*
X009628Y015673D01*
X009600Y015714D01*
X009575Y015758D01*
X009554Y015803D01*
X009537Y015850D01*
X009523Y015898D01*
X009513Y015947D01*
X009507Y015997D01*
X009505Y016047D01*
D11*
X011330Y005380D02*
X011330Y004230D01*
X014730Y004230D02*
X014730Y005330D01*
D12*
X011500Y004480D02*
X011502Y004506D01*
X011508Y004532D01*
X011517Y004556D01*
X011530Y004579D01*
X011546Y004600D01*
X011565Y004618D01*
X011586Y004634D01*
X011610Y004646D01*
X011634Y004654D01*
X011660Y004659D01*
X011687Y004660D01*
X011713Y004657D01*
X011738Y004650D01*
X011762Y004640D01*
X011785Y004626D01*
X011805Y004610D01*
X011822Y004590D01*
X011837Y004568D01*
X011848Y004544D01*
X011856Y004519D01*
X011860Y004493D01*
X011860Y004467D01*
X011856Y004441D01*
X011848Y004416D01*
X011837Y004392D01*
X011822Y004370D01*
X011805Y004350D01*
X011785Y004334D01*
X011762Y004320D01*
X011738Y004310D01*
X011713Y004303D01*
X011687Y004300D01*
X011660Y004301D01*
X011634Y004306D01*
X011610Y004314D01*
X011586Y004326D01*
X011565Y004342D01*
X011546Y004360D01*
X011530Y004381D01*
X011517Y004404D01*
X011508Y004428D01*
X011502Y004454D01*
X011500Y004480D01*
X010680Y010130D02*
X012630Y010130D01*
X012630Y010580D01*
X012430Y010880D02*
X012430Y012630D01*
X010880Y012630D01*
X010880Y010880D01*
X010680Y010580D02*
X010680Y010130D01*
X011097Y010880D02*
X011099Y010928D01*
X011105Y010976D01*
X011115Y011023D01*
X011129Y011069D01*
X011146Y011114D01*
X011167Y011157D01*
X011192Y011199D01*
X011220Y011238D01*
X011251Y011275D01*
X011285Y011309D01*
X011322Y011340D01*
X011361Y011368D01*
X011403Y011393D01*
X011446Y011414D01*
X011491Y011431D01*
X011537Y011445D01*
X011584Y011455D01*
X011632Y011461D01*
X011680Y011463D01*
X011728Y011461D01*
X011776Y011455D01*
X011823Y011445D01*
X011869Y011431D01*
X011914Y011414D01*
X011957Y011393D01*
X011999Y011368D01*
X012038Y011340D01*
X012075Y011309D01*
X012109Y011275D01*
X012140Y011238D01*
X012168Y011199D01*
X012193Y011157D01*
X012214Y011114D01*
X012231Y011069D01*
X012245Y011023D01*
X012255Y010976D01*
X012261Y010928D01*
X012263Y010880D01*
X012261Y010832D01*
X012255Y010784D01*
X012245Y010737D01*
X012231Y010691D01*
X012214Y010646D01*
X012193Y010603D01*
X012168Y010561D01*
X012140Y010522D01*
X012109Y010485D01*
X012075Y010451D01*
X012038Y010420D01*
X011999Y010392D01*
X011957Y010367D01*
X011914Y010346D01*
X011869Y010329D01*
X011823Y010315D01*
X011776Y010305D01*
X011728Y010299D01*
X011680Y010297D01*
X011632Y010299D01*
X011584Y010305D01*
X011537Y010315D01*
X011491Y010329D01*
X011446Y010346D01*
X011403Y010367D01*
X011361Y010392D01*
X011322Y010420D01*
X011285Y010451D01*
X011251Y010485D01*
X011220Y010522D01*
X011192Y010561D01*
X011167Y010603D01*
X011146Y010646D01*
X011129Y010691D01*
X011115Y010737D01*
X011105Y010784D01*
X011099Y010832D01*
X011097Y010880D01*
X010680Y012680D02*
X010680Y013080D01*
X012630Y013080D01*
X012630Y012680D01*
D13*
X012625Y014813D02*
X012472Y014813D01*
X012395Y014889D01*
X012702Y015196D01*
X012702Y014889D01*
X012625Y014813D01*
X012855Y014813D02*
X013162Y014813D01*
X013009Y014813D02*
X013009Y015273D01*
X012855Y015120D01*
X012702Y015196D02*
X012625Y015273D01*
X012472Y015273D01*
X012395Y015196D01*
X012395Y014889D01*
X012242Y014813D02*
X011935Y014813D01*
X012242Y015120D01*
X012242Y015196D01*
X012165Y015273D01*
X012011Y015273D01*
X011935Y015196D01*
X011321Y015120D02*
X011321Y014966D01*
X011167Y014813D01*
X011014Y014813D02*
X010784Y014813D01*
X010707Y014889D01*
X010707Y015043D01*
X010784Y015120D01*
X011014Y015120D01*
X011167Y015273D02*
X011321Y015120D01*
X010553Y015273D02*
X010400Y015120D01*
X010400Y014966D01*
X010553Y014813D01*
X013316Y014889D02*
X013393Y014813D01*
X013546Y014813D01*
X013623Y014889D01*
X013623Y014966D01*
X013546Y015043D01*
X013469Y015043D01*
X013546Y015043D02*
X013623Y015120D01*
X013623Y015196D01*
X013546Y015273D01*
X013393Y015273D01*
X013316Y015196D01*
X014237Y015196D02*
X014237Y014889D01*
X014313Y014813D01*
X014467Y014813D01*
X014544Y014889D01*
X014544Y015043D01*
X014390Y015043D01*
X014237Y015196D02*
X014313Y015273D01*
X014467Y015273D01*
X014544Y015196D01*
X014697Y015043D02*
X014697Y014889D01*
X014774Y014813D01*
X014927Y014813D01*
X015004Y014889D01*
X015004Y015043D01*
X014927Y015120D01*
X014774Y015120D01*
X014697Y015043D01*
X015157Y015120D02*
X015388Y015120D01*
X015464Y015043D01*
X015464Y014889D01*
X015388Y014813D01*
X015157Y014813D01*
X015157Y015273D01*
X015618Y015043D02*
X015618Y014889D01*
X015695Y014813D01*
X015848Y014813D01*
X015925Y014889D01*
X015925Y015043D01*
X015848Y015120D01*
X015695Y015120D01*
X015618Y015043D01*
X016078Y015120D02*
X016232Y015120D01*
X016155Y015196D02*
X016155Y014889D01*
X016232Y014813D01*
X016385Y014813D02*
X016539Y014813D01*
X016462Y014813D02*
X016462Y015120D01*
X016385Y015120D01*
X016462Y015273D02*
X016462Y015350D01*
X016769Y015120D02*
X016692Y015043D01*
X016692Y014889D01*
X016769Y014813D01*
X016999Y014813D01*
X017152Y014813D02*
X017383Y014813D01*
X017459Y014889D01*
X017383Y014966D01*
X017229Y014966D01*
X017152Y015043D01*
X017229Y015120D01*
X017459Y015120D01*
X016999Y015120D02*
X016769Y015120D01*
X018073Y015273D02*
X018073Y014813D01*
X018380Y014813D01*
X018610Y014889D02*
X018610Y015196D01*
X018534Y015120D02*
X018687Y015120D01*
X018841Y015043D02*
X018841Y014889D01*
X018917Y014813D01*
X019147Y014813D01*
X019147Y015273D01*
X019147Y015120D02*
X018917Y015120D01*
X018841Y015043D01*
X018687Y014813D02*
X018610Y014889D01*
X019301Y014889D02*
X019378Y014889D01*
X019378Y014813D01*
X019301Y014813D01*
X019301Y014889D01*
D14*
X017054Y015930D02*
X016627Y015930D01*
X016627Y016037D02*
X016734Y016143D01*
X016948Y016143D01*
X017054Y016037D01*
X017054Y015930D01*
X016948Y015716D02*
X016734Y015716D01*
X016627Y015823D01*
X016627Y016037D01*
X016410Y016143D02*
X016090Y016143D01*
X015983Y016037D01*
X015983Y015823D01*
X016090Y015716D01*
X016410Y015716D01*
X016410Y016357D01*
X015765Y016037D02*
X015765Y015823D01*
X015658Y015716D01*
X015445Y015716D01*
X015338Y015823D01*
X015338Y016037D01*
X015445Y016143D01*
X015658Y016143D01*
X015765Y016037D01*
X015121Y015716D02*
X015121Y016357D01*
X014694Y016357D02*
X015121Y015716D01*
X014694Y015716D02*
X014694Y016357D01*
X013832Y016143D02*
X013832Y015716D01*
X013832Y016037D02*
X013405Y016037D01*
X013405Y016143D02*
X013405Y015716D01*
X013187Y015716D02*
X013187Y016357D01*
X013405Y016143D02*
X013618Y016357D01*
X013832Y016143D01*
X013187Y016037D02*
X012760Y016037D01*
X012760Y016357D02*
X012760Y015716D01*
D15*
X017395Y015895D02*
X017492Y015701D01*
X017588Y015895D01*
X017690Y015943D02*
X017738Y015992D01*
X017835Y015992D01*
X017883Y015943D01*
X017690Y015750D01*
X017738Y015701D01*
X017835Y015701D01*
X017883Y015750D01*
X017883Y015943D01*
X017690Y015943D02*
X017690Y015750D01*
X017984Y015750D02*
X018033Y015750D01*
X018033Y015701D01*
X017984Y015701D01*
X017984Y015750D01*
X018132Y015701D02*
X018325Y015895D01*
X018325Y015943D01*
X018277Y015992D01*
X018180Y015992D01*
X018132Y015943D01*
X018132Y015701D02*
X018325Y015701D01*
X020322Y013071D02*
X020322Y012974D01*
X020273Y013023D02*
X020467Y013023D01*
X020515Y013071D01*
X020418Y012873D02*
X020418Y012680D01*
X020370Y012680D02*
X020322Y012728D01*
X020322Y012825D01*
X020370Y012873D01*
X020418Y012873D01*
X020515Y012825D02*
X020515Y012728D01*
X020467Y012680D01*
X020370Y012680D01*
X020322Y012579D02*
X020322Y012434D01*
X020370Y012385D01*
X020418Y012434D01*
X020418Y012530D01*
X020467Y012579D01*
X020515Y012530D01*
X020515Y012385D01*
X020418Y012284D02*
X020418Y012091D01*
X020370Y012091D02*
X020322Y012139D01*
X020322Y012236D01*
X020370Y012284D01*
X020418Y012284D01*
X020515Y012236D02*
X020515Y012139D01*
X020467Y012091D01*
X020370Y012091D01*
X020322Y011990D02*
X020322Y011942D01*
X020418Y011845D01*
X020322Y011845D02*
X020515Y011845D01*
X018265Y010378D02*
X018168Y010281D01*
X018168Y010329D02*
X018168Y010184D01*
X018265Y010184D02*
X017975Y010184D01*
X017975Y010329D01*
X018023Y010378D01*
X018120Y010378D01*
X018168Y010329D01*
X018217Y010083D02*
X018023Y010083D01*
X017975Y010035D01*
X017975Y009890D01*
X018265Y009890D01*
X018265Y010035D01*
X018217Y010083D01*
X018265Y009788D02*
X018265Y009595D01*
X017975Y009595D01*
X019975Y008678D02*
X020265Y008678D01*
X020265Y008533D01*
X020217Y008484D01*
X020120Y008484D01*
X020072Y008533D01*
X020072Y008678D01*
X020120Y008383D02*
X020265Y008383D01*
X020120Y008383D02*
X020072Y008335D01*
X020072Y008190D01*
X020265Y008190D01*
X020265Y008088D02*
X020265Y007943D01*
X020217Y007895D01*
X020120Y007895D01*
X020072Y007943D01*
X020072Y008088D01*
X020313Y008088D01*
X020362Y008040D01*
X020362Y007992D01*
X020122Y007578D02*
X020315Y007481D01*
X020122Y007384D01*
X020122Y007283D02*
X020170Y007235D01*
X020218Y007283D01*
X020267Y007283D01*
X020315Y007235D01*
X020315Y007138D01*
X020267Y007090D01*
X020170Y007186D02*
X020170Y007235D01*
X020122Y007283D02*
X020073Y007283D01*
X020025Y007235D01*
X020025Y007138D01*
X020073Y007090D01*
X020170Y006988D02*
X020170Y006795D01*
X020073Y006892D02*
X020267Y006892D01*
X018615Y002778D02*
X018615Y002584D01*
X018615Y002681D02*
X018325Y002681D01*
X018422Y002584D01*
X018470Y002483D02*
X018518Y002435D01*
X018518Y002290D01*
X018615Y002290D02*
X018325Y002290D01*
X018325Y002435D01*
X018373Y002483D01*
X018470Y002483D01*
X018325Y002188D02*
X018325Y002092D01*
X018325Y002140D02*
X018567Y002140D01*
X018615Y002092D01*
X018615Y002043D01*
X018567Y001995D01*
X014253Y004790D02*
X014059Y004790D01*
X014204Y004935D01*
X014204Y004645D01*
X013958Y004645D02*
X013765Y004645D01*
X013958Y004838D01*
X013958Y004887D01*
X013910Y004935D01*
X013813Y004935D01*
X013765Y004887D01*
X013664Y004887D02*
X013664Y004935D01*
X013664Y004887D02*
X013567Y004790D01*
X013567Y004645D01*
X013567Y004790D02*
X013470Y004887D01*
X013470Y004935D01*
X013369Y004935D02*
X013369Y004645D01*
X013175Y004935D01*
X013175Y004645D01*
X013076Y004645D02*
X012979Y004645D01*
X013027Y004645D02*
X013027Y004935D01*
X012979Y004935D02*
X013076Y004935D01*
X012878Y004935D02*
X012684Y004935D01*
X012781Y004935D02*
X012781Y004645D01*
X012486Y004645D02*
X012486Y004935D01*
X012390Y004935D02*
X012583Y004935D01*
X012288Y004838D02*
X012288Y004645D01*
X012288Y004790D02*
X012095Y004790D01*
X012095Y004838D02*
X012192Y004935D01*
X012288Y004838D01*
X012095Y004838D02*
X012095Y004645D01*
X012342Y002385D02*
X012342Y002095D01*
X012438Y002095D02*
X012245Y002095D01*
X012245Y002288D02*
X012342Y002385D01*
X012540Y002337D02*
X012540Y002143D01*
X012733Y002337D01*
X012733Y002143D01*
X012685Y002095D01*
X012588Y002095D01*
X012540Y002143D01*
X012540Y002337D02*
X012588Y002385D01*
X012685Y002385D01*
X012733Y002337D01*
X012834Y002385D02*
X012834Y002095D01*
X012834Y002192D02*
X013028Y002385D01*
X012883Y002240D02*
X013028Y002095D01*
D16*
X012221Y011690D02*
X012074Y011690D01*
X012147Y011690D02*
X012147Y011910D01*
X012074Y011837D01*
X012000Y011690D02*
X011853Y011690D01*
X011926Y011690D02*
X011926Y011910D01*
X011853Y011837D01*
X011779Y011910D02*
X011632Y011910D01*
X011705Y011910D02*
X011705Y011690D01*
X011558Y011690D02*
X011558Y011910D01*
X011558Y011800D02*
X011411Y011800D01*
X011337Y011763D02*
X011337Y011727D01*
X011300Y011690D01*
X011227Y011690D01*
X011190Y011727D01*
X011227Y011800D02*
X011300Y011800D01*
X011337Y011763D01*
X011411Y011690D02*
X011411Y011910D01*
X011337Y011873D02*
X011300Y011910D01*
X011227Y011910D01*
X011190Y011873D01*
X011190Y011837D01*
X011227Y011800D01*
X010600Y012990D02*
X010453Y012990D01*
X010526Y012990D02*
X010526Y013210D01*
X010453Y013137D01*
X010379Y013173D02*
X010232Y013027D01*
X010269Y012990D01*
X010342Y012990D01*
X010379Y013027D01*
X010379Y013173D01*
X010342Y013210D01*
X010269Y013210D01*
X010232Y013173D01*
X010232Y013027D01*
X010158Y013173D02*
X010011Y013027D01*
X010011Y012990D01*
X009937Y013027D02*
X009900Y012990D01*
X009827Y012990D01*
X009790Y013027D01*
X009827Y013100D02*
X009937Y013100D01*
X009937Y013027D02*
X009937Y013173D01*
X009900Y013210D01*
X009827Y013210D01*
X009790Y013173D01*
X009790Y013137D01*
X009827Y013100D01*
X010011Y013210D02*
X010158Y013210D01*
X010158Y013173D01*
M02*
