%
M48
M72
T01C0.0197
T02C0.0394
T03C0.1181
%
T01
X851Y3815
X1351Y3815
X1851Y3815
X2351Y3815
X2851Y3815
X3351Y3815
X3851Y4315
X3851Y5065
X3851Y5565
X3851Y6065
X3851Y6815
X3851Y7565
X3851Y8065
X3851Y8565
X4351Y9315
X4601Y9815
X4351Y10315
X4601Y10815
X8601Y10315
X8851Y10815
X9351Y11315
X9601Y10815
X10601Y10065
X11101Y10065
X11601Y10065
X12101Y10065
X12601Y10065
X13101Y10065
X13601Y10065
X14101Y10065
X14101Y9565
X13601Y9565
X13101Y9565
X12601Y9565
X12101Y9565
X11601Y9565
X11101Y9565
X10601Y9565
X10601Y9065
X11101Y9065
X11601Y9065
X12101Y9065
X12601Y9065
X13101Y9065
X13601Y9065
X14101Y9065
X14101Y8565
X13601Y8565
X13101Y8565
X12601Y8565
X12101Y8565
X11601Y8565
X11101Y8565
X10601Y8565
X12601Y8065
X13101Y8065
X13601Y8065
X14101Y8065
X14101Y7565
X13601Y7565
X13101Y7565
X12601Y7565
X12601Y7065
X13101Y7065
X13601Y7065
X14101Y7065
X14101Y6565
X13601Y6565
X13101Y6565
X12601Y6565
X12601Y6065
X13101Y6065
X13601Y6065
X14101Y6065
X14101Y5565
X13601Y5565
X13101Y5565
X12601Y5565
X15601Y5565
X16101Y5565
X16601Y5565
X17101Y5565
X17101Y6065
X16601Y6065
X16101Y6065
X15601Y6065
X15601Y6565
X16101Y6565
X16601Y6565
X17101Y6565
X17101Y7065
X16601Y7065
X16101Y7065
X15601Y7065
X15601Y7565
X16101Y7565
X16601Y7565
X17101Y7565
X17101Y8065
X16601Y8065
X16101Y8065
X15601Y8065
X15601Y8565
X16101Y8565
X16601Y8565
X17101Y8565
X17601Y8565
X18101Y8565
X18601Y8565
X19101Y8565
X19601Y8565
X20101Y8565
X20101Y9065
X19601Y9065
X19101Y9065
X18601Y9065
X18101Y9065
X17601Y9065
X17101Y9065
X16601Y9065
X16101Y9065
X15601Y9065
X15601Y9565
X16101Y9565
X16601Y9565
X17101Y9565
X17601Y9565
X18101Y9565
X18601Y9565
X19101Y9565
X19601Y9565
X20101Y9565
X20851Y9315
X21101Y9815
X20101Y10065
X19601Y10065
X19101Y10065
X18601Y10065
X18101Y10065
X17601Y10065
X17101Y10065
X16601Y10065
X16101Y10065
X15601Y10065
X16101Y10815
X15851Y11315
X16101Y11815
X15851Y12315
X13851Y11815
X13601Y12315
X13601Y11315
X13851Y10815
X9601Y11815
X9351Y12315
X8851Y9815
X8601Y9315
X6851Y8065
X6851Y7565
X7351Y7565
X7351Y7065
X6851Y7065
X7851Y7065
X7851Y6565
X8351Y6565
X8351Y6065
X7851Y6065
X7351Y6065
X6851Y6065
X6851Y5565
X7351Y5565
X7851Y5565
X8351Y5565
X8351Y5065
X7851Y5065
X7351Y5065
X6851Y5065
X6851Y4565
X7351Y4565
X7851Y4565
X8351Y4565
X8351Y4065
X7851Y4065
X7351Y4065
X6851Y4065
X5851Y4065
X5851Y4565
X5851Y5315
X5851Y5815
X5851Y6565
X5851Y7065
X6851Y6565
X7351Y6565
X5851Y7815
X5851Y8315
X2351Y7815
X1851Y7815
X20101Y10815
X20351Y11315
X21101Y10815
X20851Y10315
X20101Y11815
X20351Y12315
X25101Y10815
X25351Y10315
X25101Y9815
X25351Y9315
T02
X26101Y9065
X26101Y8065
X25101Y8065
X24101Y8065
X23101Y8065
X22101Y8065
X21101Y8065
X21101Y7065
X20101Y7065
X19101Y7065
X18101Y7065
X18101Y6065
X19101Y6065
X20101Y6065
X21101Y6065
X22101Y6065
X23101Y6065
X24101Y6065
X25101Y6065
X26101Y6065
X27101Y6065
X27101Y5065
X26101Y5065
X25101Y5065
X24101Y5065
X23101Y5065
X22101Y5065
X21101Y5065
X20101Y5065
X19101Y5065
X18101Y5065
X18101Y4065
X17101Y4065
X19101Y4065
X20101Y4065
X21101Y4065
X22101Y4065
X23101Y4065
X24101Y4065
X25101Y4065
X26101Y4065
X27101Y4065
X27101Y7065
X26101Y7065
X25101Y7065
X24101Y7065
X23101Y7065
X22101Y7065
X27101Y8065
X22101Y12065
X21101Y12065
X11601Y7065
X10601Y7065
X10601Y6065
X9601Y6065
X9601Y5065
X10601Y5065
X11601Y5065
X11601Y6065
X11601Y4065
X12601Y4065
X10601Y4065
X9601Y4065
X12601Y3065
X12601Y2065
X12601Y1065
X17101Y1065
X17101Y2065
X17101Y3065
T03
X15849Y4433
X13880Y4433
X14865Y11716
M30
