G75*
G70*
%OFA0B0*%
%FSLAX24Y24*%
%IPPOS*%
%LPD*%
%AMOC8*
5,1,8,0,0,1.08239X$1,22.5*
%
%ADD10C,0.0000*%
%ADD11R,0.0800X0.0260*%
%ADD12R,0.0880X0.0400*%
%ADD13R,0.0480X0.0880*%
%ADD14R,0.1417X0.0866*%
%ADD15R,0.0390X0.0272*%
%ADD16R,0.0551X0.0394*%
%ADD17R,0.0357X0.0357*%
%ADD18C,0.0160*%
%ADD19OC8,0.0357*%
%ADD20C,0.0357*%
%ADD21R,0.0700X0.0700*%
D10*
X000101Y003252D02*
X011715Y003252D01*
X011715Y000102D01*
X013683Y000102D01*
X013683Y003252D01*
X016046Y003252D01*
X016046Y000102D01*
X018014Y000102D01*
X018014Y003252D01*
X029628Y003252D01*
X029629Y003252D02*
X029618Y003720D01*
X029584Y004188D01*
X029529Y004653D01*
X029451Y005115D01*
X029352Y005573D01*
X029230Y006025D01*
X029088Y006471D01*
X028924Y006910D01*
X028740Y007341D01*
X028535Y007762D01*
X028310Y008173D01*
X028066Y008574D01*
X027804Y008962D01*
X027523Y009337D01*
X027225Y009698D01*
X026910Y010044D01*
X026578Y010376D01*
X026232Y010691D01*
X025871Y010989D01*
X025496Y011270D01*
X025108Y011532D01*
X024707Y011776D01*
X024296Y012001D01*
X023875Y012206D01*
X023444Y012390D01*
X023005Y012554D01*
X022559Y012696D01*
X022107Y012818D01*
X021649Y012917D01*
X021187Y012995D01*
X020722Y013050D01*
X020254Y013084D01*
X019786Y013095D01*
X019786Y013094D02*
X009943Y013094D01*
X014274Y011716D02*
X014276Y011764D01*
X014282Y011812D01*
X014292Y011859D01*
X014305Y011905D01*
X014323Y011950D01*
X014343Y011994D01*
X014368Y012036D01*
X014396Y012075D01*
X014426Y012112D01*
X014460Y012146D01*
X014497Y012178D01*
X014535Y012207D01*
X014576Y012232D01*
X014619Y012254D01*
X014664Y012272D01*
X014710Y012286D01*
X014757Y012297D01*
X014805Y012304D01*
X014853Y012307D01*
X014901Y012306D01*
X014949Y012301D01*
X014997Y012292D01*
X015043Y012280D01*
X015088Y012263D01*
X015132Y012243D01*
X015174Y012220D01*
X015214Y012193D01*
X015252Y012163D01*
X015287Y012130D01*
X015319Y012094D01*
X015349Y012056D01*
X015375Y012015D01*
X015397Y011972D01*
X015417Y011928D01*
X015432Y011883D01*
X015444Y011836D01*
X015452Y011788D01*
X015456Y011740D01*
X015456Y011692D01*
X015452Y011644D01*
X015444Y011596D01*
X015432Y011549D01*
X015417Y011504D01*
X015397Y011460D01*
X015375Y011417D01*
X015349Y011376D01*
X015319Y011338D01*
X015287Y011302D01*
X015252Y011269D01*
X015214Y011239D01*
X015174Y011212D01*
X015132Y011189D01*
X015088Y011169D01*
X015043Y011152D01*
X014997Y011140D01*
X014949Y011131D01*
X014901Y011126D01*
X014853Y011125D01*
X014805Y011128D01*
X014757Y011135D01*
X014710Y011146D01*
X014664Y011160D01*
X014619Y011178D01*
X014576Y011200D01*
X014535Y011225D01*
X014497Y011254D01*
X014460Y011286D01*
X014426Y011320D01*
X014396Y011357D01*
X014368Y011396D01*
X014343Y011438D01*
X014323Y011482D01*
X014305Y011527D01*
X014292Y011573D01*
X014282Y011620D01*
X014276Y011668D01*
X014274Y011716D01*
X013289Y004433D02*
X013291Y004481D01*
X013297Y004529D01*
X013307Y004576D01*
X013320Y004622D01*
X013338Y004667D01*
X013358Y004711D01*
X013383Y004753D01*
X013411Y004792D01*
X013441Y004829D01*
X013475Y004863D01*
X013512Y004895D01*
X013550Y004924D01*
X013591Y004949D01*
X013634Y004971D01*
X013679Y004989D01*
X013725Y005003D01*
X013772Y005014D01*
X013820Y005021D01*
X013868Y005024D01*
X013916Y005023D01*
X013964Y005018D01*
X014012Y005009D01*
X014058Y004997D01*
X014103Y004980D01*
X014147Y004960D01*
X014189Y004937D01*
X014229Y004910D01*
X014267Y004880D01*
X014302Y004847D01*
X014334Y004811D01*
X014364Y004773D01*
X014390Y004732D01*
X014412Y004689D01*
X014432Y004645D01*
X014447Y004600D01*
X014459Y004553D01*
X014467Y004505D01*
X014471Y004457D01*
X014471Y004409D01*
X014467Y004361D01*
X014459Y004313D01*
X014447Y004266D01*
X014432Y004221D01*
X014412Y004177D01*
X014390Y004134D01*
X014364Y004093D01*
X014334Y004055D01*
X014302Y004019D01*
X014267Y003986D01*
X014229Y003956D01*
X014189Y003929D01*
X014147Y003906D01*
X014103Y003886D01*
X014058Y003869D01*
X014012Y003857D01*
X013964Y003848D01*
X013916Y003843D01*
X013868Y003842D01*
X013820Y003845D01*
X013772Y003852D01*
X013725Y003863D01*
X013679Y003877D01*
X013634Y003895D01*
X013591Y003917D01*
X013550Y003942D01*
X013512Y003971D01*
X013475Y004003D01*
X013441Y004037D01*
X013411Y004074D01*
X013383Y004113D01*
X013358Y004155D01*
X013338Y004199D01*
X013320Y004244D01*
X013307Y004290D01*
X013297Y004337D01*
X013291Y004385D01*
X013289Y004433D01*
X015258Y004433D02*
X015260Y004481D01*
X015266Y004529D01*
X015276Y004576D01*
X015289Y004622D01*
X015307Y004667D01*
X015327Y004711D01*
X015352Y004753D01*
X015380Y004792D01*
X015410Y004829D01*
X015444Y004863D01*
X015481Y004895D01*
X015519Y004924D01*
X015560Y004949D01*
X015603Y004971D01*
X015648Y004989D01*
X015694Y005003D01*
X015741Y005014D01*
X015789Y005021D01*
X015837Y005024D01*
X015885Y005023D01*
X015933Y005018D01*
X015981Y005009D01*
X016027Y004997D01*
X016072Y004980D01*
X016116Y004960D01*
X016158Y004937D01*
X016198Y004910D01*
X016236Y004880D01*
X016271Y004847D01*
X016303Y004811D01*
X016333Y004773D01*
X016359Y004732D01*
X016381Y004689D01*
X016401Y004645D01*
X016416Y004600D01*
X016428Y004553D01*
X016436Y004505D01*
X016440Y004457D01*
X016440Y004409D01*
X016436Y004361D01*
X016428Y004313D01*
X016416Y004266D01*
X016401Y004221D01*
X016381Y004177D01*
X016359Y004134D01*
X016333Y004093D01*
X016303Y004055D01*
X016271Y004019D01*
X016236Y003986D01*
X016198Y003956D01*
X016158Y003929D01*
X016116Y003906D01*
X016072Y003886D01*
X016027Y003869D01*
X015981Y003857D01*
X015933Y003848D01*
X015885Y003843D01*
X015837Y003842D01*
X015789Y003845D01*
X015741Y003852D01*
X015694Y003863D01*
X015648Y003877D01*
X015603Y003895D01*
X015560Y003917D01*
X015519Y003942D01*
X015481Y003971D01*
X015444Y004003D01*
X015410Y004037D01*
X015380Y004074D01*
X015352Y004113D01*
X015327Y004155D01*
X015307Y004199D01*
X015289Y004244D01*
X015276Y004290D01*
X015266Y004337D01*
X015260Y004385D01*
X015258Y004433D01*
X009943Y013095D02*
X009475Y013084D01*
X009007Y013050D01*
X008542Y012995D01*
X008080Y012917D01*
X007622Y012818D01*
X007170Y012696D01*
X006724Y012554D01*
X006285Y012390D01*
X005854Y012206D01*
X005433Y012001D01*
X005021Y011776D01*
X004621Y011532D01*
X004233Y011270D01*
X003858Y010989D01*
X003497Y010691D01*
X003151Y010376D01*
X002819Y010044D01*
X002504Y009698D01*
X002206Y009337D01*
X001925Y008962D01*
X001663Y008574D01*
X001419Y008174D01*
X001194Y007762D01*
X000989Y007341D01*
X000805Y006910D01*
X000641Y006471D01*
X000499Y006025D01*
X000377Y005573D01*
X000278Y005115D01*
X000200Y004653D01*
X000145Y004188D01*
X000111Y003720D01*
X000100Y003252D01*
D11*
X010391Y010815D03*
X010391Y011315D03*
X010391Y011815D03*
X010391Y012315D03*
X012811Y012315D03*
X012811Y011815D03*
X012811Y011315D03*
X012811Y010815D03*
X016891Y010815D03*
X016891Y011315D03*
X016891Y011815D03*
X016891Y012315D03*
X019311Y012315D03*
X019311Y011815D03*
X019311Y011315D03*
X019311Y010815D03*
D12*
X021881Y010965D03*
X021881Y010365D03*
X021881Y009765D03*
X021881Y009165D03*
X024321Y009165D03*
X024321Y009765D03*
X024321Y010365D03*
X024321Y010965D03*
X007821Y010965D03*
X007821Y010365D03*
X007821Y009765D03*
X007821Y009165D03*
X005381Y009165D03*
X005381Y009765D03*
X005381Y010365D03*
X005381Y010965D03*
D13*
X003011Y004595D03*
X002101Y004595D03*
X001191Y004595D03*
D14*
X002101Y007035D03*
D15*
X004343Y007691D03*
X004343Y008065D03*
X004343Y008439D03*
X005363Y008439D03*
X005363Y007691D03*
X005363Y005939D03*
X004343Y005939D03*
X004343Y005565D03*
X004343Y005191D03*
X005363Y005191D03*
D16*
X005284Y004689D03*
X004418Y004315D03*
X005284Y003941D03*
X005284Y006441D03*
X004418Y006815D03*
X005284Y007189D03*
D17*
X005851Y007065D03*
X005851Y006565D03*
X006851Y006565D03*
X006851Y007065D03*
X006851Y007565D03*
X006851Y008065D03*
X005851Y008315D03*
X005851Y007815D03*
X003851Y008065D03*
X003851Y007565D03*
X002351Y007815D03*
X001851Y007815D03*
X003851Y008565D03*
X003851Y006815D03*
X003851Y006065D03*
X003851Y005565D03*
X003851Y005065D03*
X003851Y004315D03*
X003351Y003815D03*
X002851Y003815D03*
X002351Y003815D03*
X001851Y003815D03*
X001351Y003815D03*
X000851Y003815D03*
X005851Y004065D03*
X005851Y004565D03*
X006851Y004565D03*
X006851Y004065D03*
X008351Y004065D03*
X008351Y004565D03*
X008351Y005065D03*
X008351Y005565D03*
X008351Y006065D03*
X008351Y006565D03*
X006851Y006065D03*
X006851Y005565D03*
X006851Y005065D03*
X005851Y005315D03*
X005851Y005815D03*
X010601Y008565D03*
X011101Y008565D03*
X011601Y008565D03*
X012101Y008565D03*
X012601Y008565D03*
X013101Y008565D03*
X013601Y008565D03*
X014101Y008565D03*
X015601Y008565D03*
X016101Y008565D03*
X016601Y008565D03*
X017101Y008565D03*
X017601Y008565D03*
X018101Y008565D03*
X018601Y008565D03*
X019101Y008565D03*
X019601Y008565D03*
X020101Y008565D03*
X020101Y010065D03*
X019601Y010065D03*
X019101Y010065D03*
X018601Y010065D03*
X018101Y010065D03*
X017601Y010065D03*
X017101Y010065D03*
X016601Y010065D03*
X016101Y010065D03*
X015601Y010065D03*
X014101Y010065D03*
X013601Y010065D03*
X013101Y010065D03*
X012601Y010065D03*
X012101Y010065D03*
X011601Y010065D03*
X011101Y010065D03*
X010601Y010065D03*
X009351Y012315D03*
X004601Y010815D03*
X012601Y007065D03*
X013101Y007065D03*
X013601Y007065D03*
X014101Y007065D03*
X015601Y007065D03*
X016101Y007065D03*
X016601Y007065D03*
X017101Y007065D03*
X017101Y005565D03*
X016601Y005565D03*
X016101Y005565D03*
X015601Y005565D03*
X014101Y005565D03*
X013601Y005565D03*
X013101Y005565D03*
X012601Y005565D03*
X021101Y010815D03*
X015851Y012315D03*
D18*
X016601Y012315D01*
X016601Y011815D02*
X016101Y011815D01*
X015851Y011315D02*
X016601Y011315D01*
X016601Y010815D02*
X016101Y010815D01*
X013851Y010815D02*
X012851Y010815D01*
X012851Y011315D02*
X013601Y011315D01*
X013851Y011815D02*
X012851Y011815D01*
X012851Y012315D02*
X013601Y012315D01*
X010351Y012315D02*
X009351Y012315D01*
X009601Y011815D02*
X010351Y011815D01*
X010351Y011315D02*
X009351Y011315D01*
X009601Y010815D02*
X010351Y010815D01*
X008851Y010815D02*
X008351Y010815D01*
X008226Y010940D01*
X008101Y010315D02*
X008601Y010315D01*
X008851Y009815D02*
X008101Y009815D01*
X008351Y009315D02*
X008226Y009190D01*
X008351Y009315D02*
X008601Y009315D01*
X005851Y008315D02*
X005351Y008440D01*
X004351Y008440D02*
X003851Y008565D01*
X003851Y008065D02*
X004351Y008065D01*
X004351Y007690D02*
X003851Y007565D01*
X005351Y007690D02*
X005851Y007815D01*
X005851Y007065D02*
X005351Y007065D01*
X004351Y006815D02*
X003851Y006815D01*
X005351Y006565D02*
X005851Y006565D01*
X005851Y005815D02*
X005351Y005940D01*
X004351Y005940D02*
X003851Y006065D01*
X003851Y005565D02*
X004351Y005565D01*
X004351Y005190D02*
X003851Y005065D01*
X003101Y004565D02*
X003101Y003815D01*
X002851Y003815D01*
X003351Y003815D01*
X003851Y004315D02*
X004601Y004315D01*
X005351Y004565D02*
X005851Y004565D01*
X005851Y004065D02*
X005351Y004065D01*
X005351Y005190D02*
X005851Y005315D01*
X002351Y003815D02*
X001851Y003815D01*
X002101Y003815D02*
X002351Y003815D01*
X002101Y003815D02*
X002101Y004565D01*
X001101Y004565D02*
X001101Y003815D01*
X001351Y003815D01*
X000851Y003815D01*
X002101Y007315D02*
X002101Y007815D01*
X002351Y007815D01*
X001851Y007815D01*
X004351Y009315D02*
X004851Y009315D01*
X004976Y009190D01*
X004601Y009815D02*
X005351Y009815D01*
X005351Y010315D02*
X004351Y010315D01*
X004601Y010815D02*
X004851Y010815D01*
X004976Y010940D01*
X019601Y010815D02*
X020101Y010815D01*
X020351Y011315D02*
X019601Y011315D01*
X019601Y011815D02*
X020101Y011815D01*
X020351Y012315D02*
X019601Y012315D01*
X021351Y010815D02*
X021476Y010940D01*
X021351Y010815D02*
X021101Y010815D01*
X020851Y010315D02*
X021601Y010315D01*
X021601Y009815D02*
X021101Y009815D01*
X020851Y009315D02*
X021351Y009315D01*
X021476Y009190D01*
X024601Y009815D02*
X025101Y009815D01*
X025351Y010315D02*
X024601Y010315D01*
X024851Y010815D02*
X024726Y010940D01*
X024851Y010815D02*
X025101Y010815D01*
X024851Y009315D02*
X025351Y009315D01*
X024851Y009315D02*
X024726Y009190D01*
D19*
X025351Y009315D03*
X025101Y009815D03*
X025351Y010315D03*
X025101Y010815D03*
X021101Y009815D03*
X020851Y010315D03*
X020101Y010815D03*
X020351Y011315D03*
X020101Y011815D03*
X020351Y012315D03*
X016101Y011815D03*
X015851Y011315D03*
X016101Y010815D03*
X013851Y010815D03*
X013601Y011315D03*
X013851Y011815D03*
X013601Y012315D03*
X009601Y011815D03*
X009351Y011315D03*
X009601Y010815D03*
X008851Y010815D03*
X008601Y010315D03*
X008851Y009815D03*
X008601Y009315D03*
X010601Y009065D03*
X011101Y009065D03*
X011601Y009065D03*
X012101Y009065D03*
X012601Y009065D03*
X013101Y009065D03*
X013601Y009065D03*
X014101Y009065D03*
X015601Y009065D03*
X016101Y009065D03*
X016601Y009065D03*
X017101Y009065D03*
X017601Y009065D03*
X018101Y009065D03*
X018601Y009065D03*
X019101Y009065D03*
X019601Y009065D03*
X020101Y009065D03*
X020851Y009315D03*
X017101Y007565D03*
X016601Y007565D03*
X016101Y007565D03*
X015601Y007565D03*
X014101Y007565D03*
X013601Y007565D03*
X013101Y007565D03*
X012601Y007565D03*
X012601Y006065D03*
X013101Y006065D03*
X013601Y006065D03*
X014101Y006065D03*
X015601Y006065D03*
X016101Y006065D03*
X016601Y006065D03*
X017101Y006065D03*
X007851Y006065D03*
X007851Y005565D03*
X007851Y005065D03*
X007851Y004565D03*
X007851Y004065D03*
X007851Y006565D03*
X007851Y007065D03*
X004351Y009315D03*
X004601Y009815D03*
X004351Y010315D03*
D20*
X007351Y007565D03*
X007351Y007065D03*
X007351Y006565D03*
X007351Y006065D03*
X007351Y005565D03*
X007351Y005065D03*
X007351Y004565D03*
X007351Y004065D03*
X012601Y006565D03*
X013101Y006565D03*
X013601Y006565D03*
X014101Y006565D03*
X015601Y006565D03*
X016101Y006565D03*
X016601Y006565D03*
X017101Y006565D03*
X017101Y008065D03*
X016601Y008065D03*
X016101Y008065D03*
X015601Y008065D03*
X014101Y008065D03*
X013601Y008065D03*
X013101Y008065D03*
X012601Y008065D03*
X012601Y009565D03*
X013101Y009565D03*
X013601Y009565D03*
X014101Y009565D03*
X015601Y009565D03*
X016101Y009565D03*
X016601Y009565D03*
X017101Y009565D03*
X017601Y009565D03*
X018101Y009565D03*
X018601Y009565D03*
X019101Y009565D03*
X019601Y009565D03*
X020101Y009565D03*
X012101Y009565D03*
X011601Y009565D03*
X011101Y009565D03*
X010601Y009565D03*
D21*
X010601Y007065D03*
X011601Y007065D03*
X011601Y006065D03*
X010601Y006065D03*
X009601Y006065D03*
X009601Y005065D03*
X010601Y005065D03*
X011601Y005065D03*
X011601Y004065D03*
X012601Y004065D03*
X010601Y004065D03*
X009601Y004065D03*
X012601Y003065D03*
X012601Y002065D03*
X012601Y001065D03*
X017101Y001065D03*
X017101Y002065D03*
X017101Y003065D03*
X017101Y004065D03*
X018101Y004065D03*
X019101Y004065D03*
X020101Y004065D03*
X021101Y004065D03*
X022101Y004065D03*
X023101Y004065D03*
X024101Y004065D03*
X025101Y004065D03*
X026101Y004065D03*
X027101Y004065D03*
X027101Y005065D03*
X026101Y005065D03*
X025101Y005065D03*
X024101Y005065D03*
X023101Y005065D03*
X022101Y005065D03*
X021101Y005065D03*
X020101Y005065D03*
X019101Y005065D03*
X018101Y005065D03*
X018101Y006065D03*
X019101Y006065D03*
X020101Y006065D03*
X021101Y006065D03*
X022101Y006065D03*
X023101Y006065D03*
X024101Y006065D03*
X025101Y006065D03*
X026101Y006065D03*
X027101Y006065D03*
X027101Y007065D03*
X026101Y007065D03*
X025101Y007065D03*
X024101Y007065D03*
X023101Y007065D03*
X022101Y007065D03*
X021101Y007065D03*
X020101Y007065D03*
X019101Y007065D03*
X018101Y007065D03*
X021101Y008065D03*
X022101Y008065D03*
X023101Y008065D03*
X024101Y008065D03*
X025101Y008065D03*
X026101Y008065D03*
X027101Y008065D03*
X026101Y009065D03*
X022101Y012065D03*
X021101Y012065D03*
M02*
