G75*
G70*
%OFA0B0*%
%FSLAX24Y24*%
%IPPOS*%
%LPD*%
%AMOC8*
5,1,8,0,0,1.08239X$1,22.5*
%
%ADD10R,0.0800X0.0260*%
%ADD11R,0.0880X0.0400*%
%ADD12R,0.0480X0.0880*%
%ADD13R,0.1417X0.0866*%
%ADD14R,0.0390X0.0272*%
%ADD15R,0.0551X0.0394*%
D10*
X010391Y010815D03*
X010391Y011315D03*
X010391Y011815D03*
X010391Y012315D03*
X012811Y012315D03*
X012811Y011815D03*
X012811Y011315D03*
X012811Y010815D03*
X016891Y010815D03*
X016891Y011315D03*
X016891Y011815D03*
X016891Y012315D03*
X019311Y012315D03*
X019311Y011815D03*
X019311Y011315D03*
X019311Y010815D03*
D11*
X021881Y010965D03*
X021881Y010365D03*
X021881Y009765D03*
X021881Y009165D03*
X024321Y009165D03*
X024321Y009765D03*
X024321Y010365D03*
X024321Y010965D03*
X007821Y010965D03*
X007821Y010365D03*
X007821Y009765D03*
X007821Y009165D03*
X005381Y009165D03*
X005381Y009765D03*
X005381Y010365D03*
X005381Y010965D03*
D12*
X003011Y004595D03*
X002101Y004595D03*
X001191Y004595D03*
D13*
X002101Y007035D03*
D14*
X004343Y007691D03*
X004343Y008065D03*
X004343Y008439D03*
X005363Y008439D03*
X005363Y007691D03*
X005363Y005939D03*
X004343Y005939D03*
X004343Y005565D03*
X004343Y005191D03*
X005363Y005191D03*
D15*
X005284Y003941D03*
X004418Y004315D03*
X005284Y004689D03*
X005284Y006441D03*
X004418Y006815D03*
X005284Y007189D03*
M02*
