G75*
G70*
%OFA0B0*%
%FSLAX24Y24*%
%IPPOS*%
%LPD*%
%AMOC8*
5,1,8,0,0,1.08239X$1,22.5*
%
%ADD10C,0.1261*%
%ADD11R,0.0880X0.0340*%
%ADD12R,0.0960X0.0480*%
%ADD13R,0.0631X0.0474*%
%ADD14R,0.0474X0.0631*%
%ADD15R,0.0560X0.0960*%
%ADD16R,0.1497X0.0946*%
%ADD17C,0.0476*%
%ADD18C,0.0780*%
%ADD19C,0.0555*%
D10*
X013900Y005239D03*
X015869Y005239D03*
X014885Y012523D03*
D11*
X012831Y012371D03*
X012831Y011871D03*
X012831Y011371D03*
X010411Y011371D03*
X010411Y011871D03*
X010411Y012371D03*
X010411Y012871D03*
X012831Y012871D03*
X016911Y012871D03*
X016911Y012371D03*
X016911Y011871D03*
X016911Y011371D03*
X019331Y011371D03*
X019331Y011871D03*
X019331Y012371D03*
X019331Y012871D03*
D12*
X021901Y011521D03*
X021901Y010921D03*
X021901Y010321D03*
X021901Y009721D03*
X024341Y009721D03*
X024341Y010321D03*
X024341Y010921D03*
X024341Y011521D03*
X007841Y011521D03*
X007841Y010921D03*
X007841Y010321D03*
X007841Y009721D03*
X005401Y009721D03*
X005401Y010321D03*
X005401Y010921D03*
X005401Y011521D03*
D13*
X005554Y008745D03*
X004688Y008371D03*
X005554Y007997D03*
X005554Y007245D03*
X004688Y006871D03*
X005554Y006497D03*
X005554Y005745D03*
X004688Y005371D03*
X005554Y004997D03*
D14*
X003495Y009438D03*
X002747Y009438D03*
X003121Y010304D03*
D15*
X003031Y005401D03*
X002121Y005401D03*
X001211Y005401D03*
X006711Y005401D03*
X007621Y005401D03*
X008531Y005401D03*
D16*
X007621Y007841D03*
X002121Y007841D03*
D17*
X003621Y004371D03*
X004121Y004371D03*
X004621Y004371D03*
X005121Y004371D03*
X005621Y004371D03*
X006121Y004371D03*
X006121Y004871D03*
X006121Y005371D03*
X006121Y005871D03*
X006121Y006371D03*
X006121Y006871D03*
X006121Y007371D03*
X006121Y007871D03*
X006621Y007871D03*
X006621Y008371D03*
X006121Y008371D03*
X006121Y008871D03*
X006621Y008871D03*
X007121Y008871D03*
X007621Y008871D03*
X008621Y009871D03*
X009121Y009871D03*
X009621Y009871D03*
X010121Y009871D03*
X010621Y009871D03*
X011121Y009871D03*
X011621Y009871D03*
X012121Y009871D03*
X012621Y009871D03*
X013121Y009871D03*
X013621Y009871D03*
X014121Y009871D03*
X014621Y009871D03*
X015121Y009871D03*
X015621Y009871D03*
X016121Y009871D03*
X016621Y009871D03*
X017121Y009871D03*
X017621Y009871D03*
X018121Y009871D03*
X018621Y009871D03*
X019121Y009871D03*
X019621Y009871D03*
X020121Y009871D03*
X020621Y009871D03*
X021121Y009871D03*
X021121Y010371D03*
X020621Y010371D03*
X020121Y010371D03*
X019621Y010371D03*
X019121Y010371D03*
X018621Y010371D03*
X018121Y010371D03*
X017621Y010371D03*
X017121Y010371D03*
X016621Y010371D03*
X016121Y010371D03*
X015621Y010371D03*
X015121Y010371D03*
X014621Y010371D03*
X014121Y010371D03*
X013621Y010371D03*
X013121Y010371D03*
X012621Y010371D03*
X012121Y010371D03*
X011621Y010371D03*
X011121Y010371D03*
X010621Y010371D03*
X010121Y010371D03*
X009621Y010371D03*
X009121Y010371D03*
X008621Y010371D03*
X008621Y010871D03*
X009121Y010871D03*
X009621Y010871D03*
X010121Y010871D03*
X010621Y010871D03*
X011121Y010871D03*
X011621Y010871D03*
X012121Y010871D03*
X012621Y010871D03*
X013121Y010871D03*
X013621Y010871D03*
X014121Y010871D03*
X014621Y010871D03*
X015121Y010871D03*
X015621Y010871D03*
X016121Y010871D03*
X016621Y010871D03*
X017121Y010871D03*
X017621Y010871D03*
X018121Y010871D03*
X018621Y010871D03*
X019121Y010871D03*
X019621Y010871D03*
X020121Y010871D03*
X020621Y010871D03*
X021121Y010871D03*
X021121Y011371D03*
X020621Y011371D03*
X020121Y011371D03*
X020121Y011871D03*
X020621Y011871D03*
X020621Y012371D03*
X021121Y012371D03*
X021621Y012371D03*
X022121Y012371D03*
X022621Y012371D03*
X023121Y012371D03*
X023621Y012371D03*
X024121Y012371D03*
X023121Y012871D03*
X022621Y012871D03*
X022121Y012871D03*
X021621Y012871D03*
X021121Y012871D03*
X020621Y012871D03*
X020121Y012871D03*
X020121Y013371D03*
X020621Y013371D03*
X019621Y013371D03*
X019121Y013371D03*
X018621Y013371D03*
X018121Y013371D03*
X017621Y013371D03*
X017121Y013371D03*
X016621Y013371D03*
X016121Y013371D03*
X015621Y013371D03*
X015121Y013371D03*
X014621Y013371D03*
X014121Y013371D03*
X013621Y013371D03*
X013121Y013371D03*
X012621Y013371D03*
X012121Y013371D03*
X011621Y013371D03*
X011121Y013371D03*
X010621Y013371D03*
X010121Y013371D03*
X009621Y013371D03*
X009121Y013371D03*
X008621Y013371D03*
X008121Y013371D03*
X008121Y012871D03*
X008621Y012871D03*
X009121Y012871D03*
X009621Y012871D03*
X009621Y012371D03*
X009121Y012371D03*
X008621Y012371D03*
X008121Y012371D03*
X007621Y012371D03*
X007121Y012371D03*
X006621Y012371D03*
X006121Y012371D03*
X005621Y012371D03*
X005121Y012371D03*
X006621Y012871D03*
X007121Y012871D03*
X007621Y012871D03*
X009121Y011871D03*
X009621Y011871D03*
X009621Y011371D03*
X009121Y011371D03*
X008621Y011371D03*
X004621Y011371D03*
X004121Y011371D03*
X004121Y010871D03*
X003621Y010871D03*
X004621Y010871D03*
X004621Y010371D03*
X004121Y010371D03*
X003621Y010371D03*
X004121Y009871D03*
X004621Y009871D03*
X004121Y009371D03*
X004121Y008871D03*
X003621Y008871D03*
X003121Y008871D03*
X002621Y008871D03*
X002121Y008871D03*
X002121Y009371D03*
X003621Y008371D03*
X004121Y008371D03*
X004121Y007871D03*
X004621Y007871D03*
X004621Y007371D03*
X004121Y007371D03*
X003621Y007371D03*
X003621Y006871D03*
X004121Y006871D03*
X004121Y006371D03*
X003621Y006371D03*
X004621Y006371D03*
X004621Y005871D03*
X004121Y005871D03*
X003621Y005871D03*
X003621Y005371D03*
X004121Y005371D03*
X004121Y004871D03*
X003621Y004871D03*
X004621Y004871D03*
X012621Y006871D03*
X013121Y006871D03*
X013621Y006871D03*
X014121Y006871D03*
X014121Y007371D03*
X013621Y007371D03*
X013121Y007371D03*
X012621Y007371D03*
X012621Y007871D03*
X013121Y007871D03*
X013621Y007871D03*
X014121Y007871D03*
X014121Y008371D03*
X013621Y008371D03*
X013121Y008371D03*
X012621Y008371D03*
X012621Y008871D03*
X013121Y008871D03*
X013621Y008871D03*
X014121Y008871D03*
X014121Y009371D03*
X013621Y009371D03*
X013121Y009371D03*
X012621Y009371D03*
X015621Y009371D03*
X016121Y009371D03*
X016621Y009371D03*
X017121Y009371D03*
X017121Y008871D03*
X016621Y008871D03*
X016121Y008871D03*
X015621Y008871D03*
X015621Y008371D03*
X016121Y008371D03*
X016621Y008371D03*
X017121Y008371D03*
X017121Y007871D03*
X016621Y007871D03*
X016121Y007871D03*
X015621Y007871D03*
X015621Y007371D03*
X016121Y007371D03*
X016621Y007371D03*
X017121Y007371D03*
X017121Y006871D03*
X016621Y006871D03*
X016121Y006871D03*
X015621Y006871D03*
X015621Y011371D03*
X016121Y011371D03*
X016121Y011871D03*
X015621Y011871D03*
X016121Y012371D03*
X016121Y012871D03*
X015621Y012871D03*
X014121Y012871D03*
X013621Y012871D03*
X013621Y012371D03*
X013621Y011871D03*
X014121Y011871D03*
X014121Y011371D03*
X014621Y011371D03*
X015121Y011371D03*
X013621Y011371D03*
X020121Y012371D03*
X025121Y011371D03*
X025121Y010871D03*
X025121Y010371D03*
X025121Y009871D03*
X004621Y008871D03*
D18*
X008621Y008871D03*
X009621Y008871D03*
X010621Y008871D03*
X011621Y008871D03*
X011621Y007871D03*
X010621Y007871D03*
X009621Y007871D03*
X009621Y006871D03*
X010621Y006871D03*
X011621Y006871D03*
X011621Y005871D03*
X012621Y005871D03*
X012621Y004871D03*
X011621Y004871D03*
X010621Y004871D03*
X009621Y004871D03*
X009621Y005871D03*
X010621Y005871D03*
X012621Y003871D03*
X012621Y002871D03*
X012621Y001871D03*
X012621Y000871D03*
X017121Y000871D03*
X017121Y001871D03*
X017121Y002871D03*
X017121Y003871D03*
X017121Y004871D03*
X018121Y004871D03*
X019121Y004871D03*
X020121Y004871D03*
X021121Y004871D03*
X022121Y004871D03*
X023121Y004871D03*
X024121Y004871D03*
X025121Y004871D03*
X026121Y004871D03*
X027121Y004871D03*
X027121Y005871D03*
X026121Y005871D03*
X025121Y005871D03*
X024121Y005871D03*
X023121Y005871D03*
X022121Y005871D03*
X021121Y005871D03*
X020121Y005871D03*
X019121Y005871D03*
X018121Y005871D03*
X017121Y005871D03*
X018121Y006871D03*
X019121Y006871D03*
X020121Y006871D03*
X021121Y006871D03*
X022121Y006871D03*
X023121Y006871D03*
X024121Y006871D03*
X025121Y006871D03*
X026121Y006871D03*
X027121Y006871D03*
X027121Y007871D03*
X026121Y007871D03*
X025121Y007871D03*
X024121Y007871D03*
X023121Y007871D03*
X022121Y007871D03*
X021121Y007871D03*
X020121Y007871D03*
X019121Y007871D03*
X018121Y007871D03*
X018121Y008871D03*
X019121Y008871D03*
X020121Y008871D03*
X021121Y008871D03*
X022121Y008871D03*
X023121Y008871D03*
X024121Y008871D03*
X025121Y008871D03*
X026121Y008871D03*
X027121Y008871D03*
X027121Y009871D03*
X026121Y009871D03*
X026121Y010871D03*
D19*
X008621Y007871D03*
X003121Y007871D03*
X002871Y004621D03*
X002121Y004621D03*
X001371Y004621D03*
X006871Y004621D03*
X007621Y004621D03*
X008371Y004621D03*
M02*
