G75*
G70*
%OFA0B0*%
%FSLAX24Y24*%
%IPPOS*%
%LPD*%
%AMOC8*
5,1,8,0,0,1.08239X$1,22.5*
%
%ADD10C,0.0039*%
%ADD11C,0.0000*%
%ADD12C,0.0396*%
%ADD13C,0.0700*%
%ADD14C,0.0475*%
D10*
X000121Y004058D02*
X011735Y004058D01*
X011735Y000121D01*
X013704Y000121D01*
X013704Y004058D01*
X016066Y004058D01*
X016066Y000121D01*
X018034Y000121D01*
X018034Y004058D01*
X029649Y004058D01*
X029638Y004526D01*
X029604Y004994D01*
X029549Y005459D01*
X029471Y005921D01*
X029372Y006379D01*
X029250Y006831D01*
X029108Y007277D01*
X028944Y007716D01*
X028760Y008147D01*
X028555Y008568D01*
X028330Y008979D01*
X028086Y009380D01*
X027824Y009768D01*
X027543Y010143D01*
X027245Y010504D01*
X026930Y010850D01*
X026598Y011182D01*
X026252Y011497D01*
X025891Y011795D01*
X025516Y012076D01*
X025128Y012338D01*
X024727Y012582D01*
X024316Y012807D01*
X023895Y013012D01*
X023464Y013196D01*
X023025Y013360D01*
X022579Y013502D01*
X022127Y013624D01*
X021669Y013723D01*
X021207Y013801D01*
X020742Y013856D01*
X020274Y013890D01*
X019806Y013901D01*
X019806Y013900D02*
X009963Y013900D01*
X013309Y005239D02*
X013311Y005287D01*
X013317Y005335D01*
X013327Y005382D01*
X013340Y005428D01*
X013358Y005473D01*
X013378Y005517D01*
X013403Y005559D01*
X013431Y005598D01*
X013461Y005635D01*
X013495Y005669D01*
X013532Y005701D01*
X013570Y005730D01*
X013611Y005755D01*
X013654Y005777D01*
X013699Y005795D01*
X013745Y005809D01*
X013792Y005820D01*
X013840Y005827D01*
X013888Y005830D01*
X013936Y005829D01*
X013984Y005824D01*
X014032Y005815D01*
X014078Y005803D01*
X014123Y005786D01*
X014167Y005766D01*
X014209Y005743D01*
X014249Y005716D01*
X014287Y005686D01*
X014322Y005653D01*
X014354Y005617D01*
X014384Y005579D01*
X014410Y005538D01*
X014432Y005495D01*
X014452Y005451D01*
X014467Y005406D01*
X014479Y005359D01*
X014487Y005311D01*
X014491Y005263D01*
X014491Y005215D01*
X014487Y005167D01*
X014479Y005119D01*
X014467Y005072D01*
X014452Y005027D01*
X014432Y004983D01*
X014410Y004940D01*
X014384Y004899D01*
X014354Y004861D01*
X014322Y004825D01*
X014287Y004792D01*
X014249Y004762D01*
X014209Y004735D01*
X014167Y004712D01*
X014123Y004692D01*
X014078Y004675D01*
X014032Y004663D01*
X013984Y004654D01*
X013936Y004649D01*
X013888Y004648D01*
X013840Y004651D01*
X013792Y004658D01*
X013745Y004669D01*
X013699Y004683D01*
X013654Y004701D01*
X013611Y004723D01*
X013570Y004748D01*
X013532Y004777D01*
X013495Y004809D01*
X013461Y004843D01*
X013431Y004880D01*
X013403Y004919D01*
X013378Y004961D01*
X013358Y005005D01*
X013340Y005050D01*
X013327Y005096D01*
X013317Y005143D01*
X013311Y005191D01*
X013309Y005239D01*
X015278Y005239D02*
X015280Y005287D01*
X015286Y005335D01*
X015296Y005382D01*
X015309Y005428D01*
X015327Y005473D01*
X015347Y005517D01*
X015372Y005559D01*
X015400Y005598D01*
X015430Y005635D01*
X015464Y005669D01*
X015501Y005701D01*
X015539Y005730D01*
X015580Y005755D01*
X015623Y005777D01*
X015668Y005795D01*
X015714Y005809D01*
X015761Y005820D01*
X015809Y005827D01*
X015857Y005830D01*
X015905Y005829D01*
X015953Y005824D01*
X016001Y005815D01*
X016047Y005803D01*
X016092Y005786D01*
X016136Y005766D01*
X016178Y005743D01*
X016218Y005716D01*
X016256Y005686D01*
X016291Y005653D01*
X016323Y005617D01*
X016353Y005579D01*
X016379Y005538D01*
X016401Y005495D01*
X016421Y005451D01*
X016436Y005406D01*
X016448Y005359D01*
X016456Y005311D01*
X016460Y005263D01*
X016460Y005215D01*
X016456Y005167D01*
X016448Y005119D01*
X016436Y005072D01*
X016421Y005027D01*
X016401Y004983D01*
X016379Y004940D01*
X016353Y004899D01*
X016323Y004861D01*
X016291Y004825D01*
X016256Y004792D01*
X016218Y004762D01*
X016178Y004735D01*
X016136Y004712D01*
X016092Y004692D01*
X016047Y004675D01*
X016001Y004663D01*
X015953Y004654D01*
X015905Y004649D01*
X015857Y004648D01*
X015809Y004651D01*
X015761Y004658D01*
X015714Y004669D01*
X015668Y004683D01*
X015623Y004701D01*
X015580Y004723D01*
X015539Y004748D01*
X015501Y004777D01*
X015464Y004809D01*
X015430Y004843D01*
X015400Y004880D01*
X015372Y004919D01*
X015347Y004961D01*
X015327Y005005D01*
X015309Y005050D01*
X015296Y005096D01*
X015286Y005143D01*
X015280Y005191D01*
X015278Y005239D01*
X009963Y013901D02*
X009495Y013890D01*
X009027Y013856D01*
X008562Y013801D01*
X008100Y013723D01*
X007642Y013624D01*
X007190Y013502D01*
X006744Y013360D01*
X006305Y013196D01*
X005874Y013012D01*
X005453Y012807D01*
X005041Y012582D01*
X004641Y012338D01*
X004253Y012076D01*
X003878Y011795D01*
X003517Y011497D01*
X003171Y011182D01*
X002839Y010850D01*
X002524Y010504D01*
X002226Y010143D01*
X001945Y009768D01*
X001683Y009380D01*
X001439Y008980D01*
X001214Y008568D01*
X001009Y008147D01*
X000825Y007716D01*
X000661Y007277D01*
X000519Y006831D01*
X000397Y006379D01*
X000298Y005921D01*
X000220Y005459D01*
X000165Y004994D01*
X000131Y004526D01*
X000120Y004058D01*
D11*
X013309Y005239D02*
X013311Y005287D01*
X013317Y005335D01*
X013327Y005382D01*
X013340Y005428D01*
X013358Y005473D01*
X013378Y005517D01*
X013403Y005559D01*
X013431Y005598D01*
X013461Y005635D01*
X013495Y005669D01*
X013532Y005701D01*
X013570Y005730D01*
X013611Y005755D01*
X013654Y005777D01*
X013699Y005795D01*
X013745Y005809D01*
X013792Y005820D01*
X013840Y005827D01*
X013888Y005830D01*
X013936Y005829D01*
X013984Y005824D01*
X014032Y005815D01*
X014078Y005803D01*
X014123Y005786D01*
X014167Y005766D01*
X014209Y005743D01*
X014249Y005716D01*
X014287Y005686D01*
X014322Y005653D01*
X014354Y005617D01*
X014384Y005579D01*
X014410Y005538D01*
X014432Y005495D01*
X014452Y005451D01*
X014467Y005406D01*
X014479Y005359D01*
X014487Y005311D01*
X014491Y005263D01*
X014491Y005215D01*
X014487Y005167D01*
X014479Y005119D01*
X014467Y005072D01*
X014452Y005027D01*
X014432Y004983D01*
X014410Y004940D01*
X014384Y004899D01*
X014354Y004861D01*
X014322Y004825D01*
X014287Y004792D01*
X014249Y004762D01*
X014209Y004735D01*
X014167Y004712D01*
X014123Y004692D01*
X014078Y004675D01*
X014032Y004663D01*
X013984Y004654D01*
X013936Y004649D01*
X013888Y004648D01*
X013840Y004651D01*
X013792Y004658D01*
X013745Y004669D01*
X013699Y004683D01*
X013654Y004701D01*
X013611Y004723D01*
X013570Y004748D01*
X013532Y004777D01*
X013495Y004809D01*
X013461Y004843D01*
X013431Y004880D01*
X013403Y004919D01*
X013378Y004961D01*
X013358Y005005D01*
X013340Y005050D01*
X013327Y005096D01*
X013317Y005143D01*
X013311Y005191D01*
X013309Y005239D01*
X015278Y005239D02*
X015280Y005287D01*
X015286Y005335D01*
X015296Y005382D01*
X015309Y005428D01*
X015327Y005473D01*
X015347Y005517D01*
X015372Y005559D01*
X015400Y005598D01*
X015430Y005635D01*
X015464Y005669D01*
X015501Y005701D01*
X015539Y005730D01*
X015580Y005755D01*
X015623Y005777D01*
X015668Y005795D01*
X015714Y005809D01*
X015761Y005820D01*
X015809Y005827D01*
X015857Y005830D01*
X015905Y005829D01*
X015953Y005824D01*
X016001Y005815D01*
X016047Y005803D01*
X016092Y005786D01*
X016136Y005766D01*
X016178Y005743D01*
X016218Y005716D01*
X016256Y005686D01*
X016291Y005653D01*
X016323Y005617D01*
X016353Y005579D01*
X016379Y005538D01*
X016401Y005495D01*
X016421Y005451D01*
X016436Y005406D01*
X016448Y005359D01*
X016456Y005311D01*
X016460Y005263D01*
X016460Y005215D01*
X016456Y005167D01*
X016448Y005119D01*
X016436Y005072D01*
X016421Y005027D01*
X016401Y004983D01*
X016379Y004940D01*
X016353Y004899D01*
X016323Y004861D01*
X016291Y004825D01*
X016256Y004792D01*
X016218Y004762D01*
X016178Y004735D01*
X016136Y004712D01*
X016092Y004692D01*
X016047Y004675D01*
X016001Y004663D01*
X015953Y004654D01*
X015905Y004649D01*
X015857Y004648D01*
X015809Y004651D01*
X015761Y004658D01*
X015714Y004669D01*
X015668Y004683D01*
X015623Y004701D01*
X015580Y004723D01*
X015539Y004748D01*
X015501Y004777D01*
X015464Y004809D01*
X015430Y004843D01*
X015400Y004880D01*
X015372Y004919D01*
X015347Y004961D01*
X015327Y005005D01*
X015309Y005050D01*
X015296Y005096D01*
X015286Y005143D01*
X015280Y005191D01*
X015278Y005239D01*
X014294Y012523D02*
X014296Y012571D01*
X014302Y012619D01*
X014312Y012666D01*
X014325Y012712D01*
X014343Y012757D01*
X014363Y012801D01*
X014388Y012843D01*
X014416Y012882D01*
X014446Y012919D01*
X014480Y012953D01*
X014517Y012985D01*
X014555Y013014D01*
X014596Y013039D01*
X014639Y013061D01*
X014684Y013079D01*
X014730Y013093D01*
X014777Y013104D01*
X014825Y013111D01*
X014873Y013114D01*
X014921Y013113D01*
X014969Y013108D01*
X015017Y013099D01*
X015063Y013087D01*
X015108Y013070D01*
X015152Y013050D01*
X015194Y013027D01*
X015234Y013000D01*
X015272Y012970D01*
X015307Y012937D01*
X015339Y012901D01*
X015369Y012863D01*
X015395Y012822D01*
X015417Y012779D01*
X015437Y012735D01*
X015452Y012690D01*
X015464Y012643D01*
X015472Y012595D01*
X015476Y012547D01*
X015476Y012499D01*
X015472Y012451D01*
X015464Y012403D01*
X015452Y012356D01*
X015437Y012311D01*
X015417Y012267D01*
X015395Y012224D01*
X015369Y012183D01*
X015339Y012145D01*
X015307Y012109D01*
X015272Y012076D01*
X015234Y012046D01*
X015194Y012019D01*
X015152Y011996D01*
X015108Y011976D01*
X015063Y011959D01*
X015017Y011947D01*
X014969Y011938D01*
X014921Y011933D01*
X014873Y011932D01*
X014825Y011935D01*
X014777Y011942D01*
X014730Y011953D01*
X014684Y011967D01*
X014639Y011985D01*
X014596Y012007D01*
X014555Y012032D01*
X014517Y012061D01*
X014480Y012093D01*
X014446Y012127D01*
X014416Y012164D01*
X014388Y012203D01*
X014363Y012245D01*
X014343Y012289D01*
X014325Y012334D01*
X014312Y012380D01*
X014302Y012427D01*
X014296Y012475D01*
X014294Y012523D01*
D12*
X014121Y012871D03*
X013621Y012871D03*
X013621Y013371D03*
X013121Y013371D03*
X012621Y013371D03*
X012121Y013371D03*
X011621Y013371D03*
X011121Y013371D03*
X010621Y013371D03*
X010121Y013371D03*
X009621Y013371D03*
X009121Y013371D03*
X008621Y013371D03*
X008121Y013371D03*
X008121Y012871D03*
X008621Y012871D03*
X009121Y012871D03*
X009621Y012871D03*
X009621Y012371D03*
X009121Y012371D03*
X008621Y012371D03*
X008121Y012371D03*
X007621Y012371D03*
X007121Y012371D03*
X006621Y012371D03*
X006121Y012371D03*
X005621Y012371D03*
X005121Y012371D03*
X006621Y012871D03*
X007121Y012871D03*
X007621Y012871D03*
X009121Y011871D03*
X009621Y011871D03*
X009621Y011371D03*
X009121Y011371D03*
X008621Y011371D03*
X008621Y010871D03*
X009121Y010871D03*
X009621Y010871D03*
X010121Y010871D03*
X010621Y010871D03*
X011121Y010871D03*
X011621Y010871D03*
X012121Y010871D03*
X012621Y010871D03*
X013121Y010871D03*
X013621Y010871D03*
X014121Y010871D03*
X014621Y010871D03*
X015121Y010871D03*
X015621Y010871D03*
X016121Y010871D03*
X016621Y010871D03*
X017121Y010871D03*
X017621Y010871D03*
X018121Y010871D03*
X018621Y010871D03*
X019121Y010871D03*
X019621Y010871D03*
X020121Y010871D03*
X020621Y010871D03*
X021121Y010871D03*
X021121Y011371D03*
X020621Y011371D03*
X020121Y011371D03*
X020121Y011871D03*
X020621Y011871D03*
X020621Y012371D03*
X021121Y012371D03*
X021621Y012371D03*
X022121Y012371D03*
X022621Y012371D03*
X023121Y012371D03*
X023621Y012371D03*
X024121Y012371D03*
X023121Y012871D03*
X022621Y012871D03*
X022121Y012871D03*
X021621Y012871D03*
X021121Y012871D03*
X020621Y012871D03*
X020121Y012871D03*
X020121Y013371D03*
X020621Y013371D03*
X019621Y013371D03*
X019121Y013371D03*
X018621Y013371D03*
X018121Y013371D03*
X017621Y013371D03*
X017121Y013371D03*
X016621Y013371D03*
X016121Y013371D03*
X015621Y013371D03*
X015121Y013371D03*
X014621Y013371D03*
X014121Y013371D03*
X015621Y012871D03*
X016121Y012871D03*
X016121Y012371D03*
X016121Y011871D03*
X015621Y011871D03*
X015621Y011371D03*
X016121Y011371D03*
X015121Y011371D03*
X014621Y011371D03*
X014121Y011371D03*
X013621Y011371D03*
X013621Y011871D03*
X014121Y011871D03*
X013621Y012371D03*
X013621Y010371D03*
X013121Y010371D03*
X012621Y010371D03*
X012121Y010371D03*
X011621Y010371D03*
X011121Y010371D03*
X010621Y010371D03*
X010121Y010371D03*
X009621Y010371D03*
X009121Y010371D03*
X008621Y010371D03*
X008621Y009871D03*
X009121Y009871D03*
X009621Y009871D03*
X010121Y009871D03*
X010621Y009871D03*
X011121Y009871D03*
X011621Y009871D03*
X012121Y009871D03*
X012621Y009871D03*
X013121Y009871D03*
X013621Y009871D03*
X014121Y009871D03*
X014621Y009871D03*
X015121Y009871D03*
X015621Y009871D03*
X016121Y009871D03*
X016621Y009871D03*
X017121Y009871D03*
X017621Y009871D03*
X018121Y009871D03*
X018621Y009871D03*
X019121Y009871D03*
X019621Y009871D03*
X020121Y009871D03*
X020621Y009871D03*
X021121Y009871D03*
X021121Y010371D03*
X020621Y010371D03*
X020121Y010371D03*
X019621Y010371D03*
X019121Y010371D03*
X018621Y010371D03*
X018121Y010371D03*
X017621Y010371D03*
X017121Y010371D03*
X016621Y010371D03*
X016121Y010371D03*
X015621Y010371D03*
X015121Y010371D03*
X014621Y010371D03*
X014121Y010371D03*
X014121Y009371D03*
X013621Y009371D03*
X013121Y009371D03*
X012621Y009371D03*
X012621Y008871D03*
X013121Y008871D03*
X013621Y008871D03*
X014121Y008871D03*
X014121Y008371D03*
X013621Y008371D03*
X013121Y008371D03*
X012621Y008371D03*
X012621Y007871D03*
X013121Y007871D03*
X013621Y007871D03*
X014121Y007871D03*
X014121Y007371D03*
X013621Y007371D03*
X013121Y007371D03*
X012621Y007371D03*
X012621Y006871D03*
X013121Y006871D03*
X013621Y006871D03*
X014121Y006871D03*
X015621Y006871D03*
X016121Y006871D03*
X016621Y006871D03*
X017121Y006871D03*
X017121Y007371D03*
X016621Y007371D03*
X016121Y007371D03*
X015621Y007371D03*
X015621Y007871D03*
X016121Y007871D03*
X016621Y007871D03*
X017121Y007871D03*
X017121Y008371D03*
X016621Y008371D03*
X016121Y008371D03*
X015621Y008371D03*
X015621Y008871D03*
X016121Y008871D03*
X016621Y008871D03*
X017121Y008871D03*
X017121Y009371D03*
X016621Y009371D03*
X016121Y009371D03*
X015621Y009371D03*
X020121Y012371D03*
X025121Y011371D03*
X025121Y010871D03*
X025121Y010371D03*
X025121Y009871D03*
X007621Y008871D03*
X007121Y008871D03*
X006621Y008871D03*
X006121Y008871D03*
X006121Y008371D03*
X006621Y008371D03*
X006621Y007871D03*
X006121Y007871D03*
X006121Y007371D03*
X006121Y006871D03*
X006121Y006371D03*
X006121Y005871D03*
X006121Y005371D03*
X006121Y004871D03*
X006121Y004371D03*
X005621Y004371D03*
X005121Y004371D03*
X004621Y004371D03*
X004121Y004371D03*
X003621Y004371D03*
X003621Y004871D03*
X004121Y004871D03*
X004621Y004871D03*
X004121Y005371D03*
X003621Y005371D03*
X003621Y005871D03*
X004121Y005871D03*
X004621Y005871D03*
X004621Y006371D03*
X004121Y006371D03*
X003621Y006371D03*
X003621Y006871D03*
X004121Y006871D03*
X004121Y007371D03*
X003621Y007371D03*
X004121Y007871D03*
X004621Y007871D03*
X004621Y007371D03*
X004121Y008371D03*
X003621Y008371D03*
X003621Y008871D03*
X004121Y008871D03*
X004621Y008871D03*
X004121Y009371D03*
X003121Y008871D03*
X002621Y008871D03*
X002121Y008871D03*
X002121Y009371D03*
X004121Y009871D03*
X004621Y009871D03*
X004621Y010371D03*
X004121Y010371D03*
X003621Y010371D03*
X003621Y010871D03*
X004121Y010871D03*
X004621Y010871D03*
X004621Y011371D03*
X004121Y011371D03*
D13*
X008621Y008871D03*
X009621Y008871D03*
X010621Y008871D03*
X011621Y008871D03*
X011621Y007871D03*
X010621Y007871D03*
X009621Y007871D03*
X009621Y006871D03*
X010621Y006871D03*
X011621Y006871D03*
X011621Y005871D03*
X012621Y005871D03*
X012621Y004871D03*
X011621Y004871D03*
X010621Y004871D03*
X009621Y004871D03*
X009621Y005871D03*
X010621Y005871D03*
X012621Y003871D03*
X012621Y002871D03*
X012621Y001871D03*
X012621Y000871D03*
X017121Y000871D03*
X017121Y001871D03*
X017121Y002871D03*
X017121Y003871D03*
X017121Y004871D03*
X018121Y004871D03*
X019121Y004871D03*
X020121Y004871D03*
X021121Y004871D03*
X022121Y004871D03*
X023121Y004871D03*
X024121Y004871D03*
X025121Y004871D03*
X026121Y004871D03*
X027121Y004871D03*
X027121Y005871D03*
X026121Y005871D03*
X025121Y005871D03*
X024121Y005871D03*
X023121Y005871D03*
X022121Y005871D03*
X021121Y005871D03*
X020121Y005871D03*
X019121Y005871D03*
X018121Y005871D03*
X017121Y005871D03*
X018121Y006871D03*
X019121Y006871D03*
X020121Y006871D03*
X021121Y006871D03*
X022121Y006871D03*
X023121Y006871D03*
X024121Y006871D03*
X025121Y006871D03*
X026121Y006871D03*
X027121Y006871D03*
X027121Y007871D03*
X026121Y007871D03*
X025121Y007871D03*
X024121Y007871D03*
X023121Y007871D03*
X022121Y007871D03*
X021121Y007871D03*
X020121Y007871D03*
X019121Y007871D03*
X018121Y007871D03*
X018121Y008871D03*
X019121Y008871D03*
X020121Y008871D03*
X021121Y008871D03*
X022121Y008871D03*
X023121Y008871D03*
X024121Y008871D03*
X025121Y008871D03*
X026121Y008871D03*
X027121Y008871D03*
X027121Y009871D03*
X026121Y009871D03*
X026121Y010871D03*
D14*
X008621Y007871D03*
X003121Y007871D03*
X002871Y004621D03*
X002121Y004621D03*
X001371Y004621D03*
X006871Y004621D03*
X007621Y004621D03*
X008371Y004621D03*
M02*
