G75*
G70*
%OFA0B0*%
%FSLAX24Y24*%
%IPPOS*%
%LPD*%
%AMOC8*
5,1,8,0,0,1.08239X$1,22.5*
%
%ADD10C,0.0039*%
%ADD11C,0.0000*%
%ADD12C,0.0040*%
D10*
X000121Y004058D02*
X011735Y004058D01*
X011735Y000121D01*
X013704Y000121D01*
X013704Y004058D01*
X016066Y004058D01*
X016066Y000121D01*
X018034Y000121D01*
X018034Y004058D01*
X029649Y004058D01*
X029638Y004526D01*
X029604Y004994D01*
X029549Y005459D01*
X029471Y005921D01*
X029372Y006379D01*
X029250Y006831D01*
X029108Y007277D01*
X028944Y007716D01*
X028760Y008147D01*
X028555Y008568D01*
X028330Y008979D01*
X028086Y009380D01*
X027824Y009768D01*
X027543Y010143D01*
X027245Y010504D01*
X026930Y010850D01*
X026598Y011182D01*
X026252Y011497D01*
X025891Y011795D01*
X025516Y012076D01*
X025128Y012338D01*
X024727Y012582D01*
X024316Y012807D01*
X023895Y013012D01*
X023464Y013196D01*
X023025Y013360D01*
X022579Y013502D01*
X022127Y013624D01*
X021669Y013723D01*
X021207Y013801D01*
X020742Y013856D01*
X020274Y013890D01*
X019806Y013901D01*
X019806Y013900D02*
X009963Y013900D01*
X013309Y005239D02*
X013311Y005287D01*
X013317Y005335D01*
X013327Y005382D01*
X013340Y005428D01*
X013358Y005473D01*
X013378Y005517D01*
X013403Y005559D01*
X013431Y005598D01*
X013461Y005635D01*
X013495Y005669D01*
X013532Y005701D01*
X013570Y005730D01*
X013611Y005755D01*
X013654Y005777D01*
X013699Y005795D01*
X013745Y005809D01*
X013792Y005820D01*
X013840Y005827D01*
X013888Y005830D01*
X013936Y005829D01*
X013984Y005824D01*
X014032Y005815D01*
X014078Y005803D01*
X014123Y005786D01*
X014167Y005766D01*
X014209Y005743D01*
X014249Y005716D01*
X014287Y005686D01*
X014322Y005653D01*
X014354Y005617D01*
X014384Y005579D01*
X014410Y005538D01*
X014432Y005495D01*
X014452Y005451D01*
X014467Y005406D01*
X014479Y005359D01*
X014487Y005311D01*
X014491Y005263D01*
X014491Y005215D01*
X014487Y005167D01*
X014479Y005119D01*
X014467Y005072D01*
X014452Y005027D01*
X014432Y004983D01*
X014410Y004940D01*
X014384Y004899D01*
X014354Y004861D01*
X014322Y004825D01*
X014287Y004792D01*
X014249Y004762D01*
X014209Y004735D01*
X014167Y004712D01*
X014123Y004692D01*
X014078Y004675D01*
X014032Y004663D01*
X013984Y004654D01*
X013936Y004649D01*
X013888Y004648D01*
X013840Y004651D01*
X013792Y004658D01*
X013745Y004669D01*
X013699Y004683D01*
X013654Y004701D01*
X013611Y004723D01*
X013570Y004748D01*
X013532Y004777D01*
X013495Y004809D01*
X013461Y004843D01*
X013431Y004880D01*
X013403Y004919D01*
X013378Y004961D01*
X013358Y005005D01*
X013340Y005050D01*
X013327Y005096D01*
X013317Y005143D01*
X013311Y005191D01*
X013309Y005239D01*
X015278Y005239D02*
X015280Y005287D01*
X015286Y005335D01*
X015296Y005382D01*
X015309Y005428D01*
X015327Y005473D01*
X015347Y005517D01*
X015372Y005559D01*
X015400Y005598D01*
X015430Y005635D01*
X015464Y005669D01*
X015501Y005701D01*
X015539Y005730D01*
X015580Y005755D01*
X015623Y005777D01*
X015668Y005795D01*
X015714Y005809D01*
X015761Y005820D01*
X015809Y005827D01*
X015857Y005830D01*
X015905Y005829D01*
X015953Y005824D01*
X016001Y005815D01*
X016047Y005803D01*
X016092Y005786D01*
X016136Y005766D01*
X016178Y005743D01*
X016218Y005716D01*
X016256Y005686D01*
X016291Y005653D01*
X016323Y005617D01*
X016353Y005579D01*
X016379Y005538D01*
X016401Y005495D01*
X016421Y005451D01*
X016436Y005406D01*
X016448Y005359D01*
X016456Y005311D01*
X016460Y005263D01*
X016460Y005215D01*
X016456Y005167D01*
X016448Y005119D01*
X016436Y005072D01*
X016421Y005027D01*
X016401Y004983D01*
X016379Y004940D01*
X016353Y004899D01*
X016323Y004861D01*
X016291Y004825D01*
X016256Y004792D01*
X016218Y004762D01*
X016178Y004735D01*
X016136Y004712D01*
X016092Y004692D01*
X016047Y004675D01*
X016001Y004663D01*
X015953Y004654D01*
X015905Y004649D01*
X015857Y004648D01*
X015809Y004651D01*
X015761Y004658D01*
X015714Y004669D01*
X015668Y004683D01*
X015623Y004701D01*
X015580Y004723D01*
X015539Y004748D01*
X015501Y004777D01*
X015464Y004809D01*
X015430Y004843D01*
X015400Y004880D01*
X015372Y004919D01*
X015347Y004961D01*
X015327Y005005D01*
X015309Y005050D01*
X015296Y005096D01*
X015286Y005143D01*
X015280Y005191D01*
X015278Y005239D01*
X009963Y013901D02*
X009495Y013890D01*
X009027Y013856D01*
X008562Y013801D01*
X008100Y013723D01*
X007642Y013624D01*
X007190Y013502D01*
X006744Y013360D01*
X006305Y013196D01*
X005874Y013012D01*
X005453Y012807D01*
X005041Y012582D01*
X004641Y012338D01*
X004253Y012076D01*
X003878Y011795D01*
X003517Y011497D01*
X003171Y011182D01*
X002839Y010850D01*
X002524Y010504D01*
X002226Y010143D01*
X001945Y009768D01*
X001683Y009380D01*
X001439Y008980D01*
X001214Y008568D01*
X001009Y008147D01*
X000825Y007716D01*
X000661Y007277D01*
X000519Y006831D01*
X000397Y006379D01*
X000298Y005921D01*
X000220Y005459D01*
X000165Y004994D01*
X000131Y004526D01*
X000120Y004058D01*
D11*
X013309Y005239D02*
X013311Y005287D01*
X013317Y005335D01*
X013327Y005382D01*
X013340Y005428D01*
X013358Y005473D01*
X013378Y005517D01*
X013403Y005559D01*
X013431Y005598D01*
X013461Y005635D01*
X013495Y005669D01*
X013532Y005701D01*
X013570Y005730D01*
X013611Y005755D01*
X013654Y005777D01*
X013699Y005795D01*
X013745Y005809D01*
X013792Y005820D01*
X013840Y005827D01*
X013888Y005830D01*
X013936Y005829D01*
X013984Y005824D01*
X014032Y005815D01*
X014078Y005803D01*
X014123Y005786D01*
X014167Y005766D01*
X014209Y005743D01*
X014249Y005716D01*
X014287Y005686D01*
X014322Y005653D01*
X014354Y005617D01*
X014384Y005579D01*
X014410Y005538D01*
X014432Y005495D01*
X014452Y005451D01*
X014467Y005406D01*
X014479Y005359D01*
X014487Y005311D01*
X014491Y005263D01*
X014491Y005215D01*
X014487Y005167D01*
X014479Y005119D01*
X014467Y005072D01*
X014452Y005027D01*
X014432Y004983D01*
X014410Y004940D01*
X014384Y004899D01*
X014354Y004861D01*
X014322Y004825D01*
X014287Y004792D01*
X014249Y004762D01*
X014209Y004735D01*
X014167Y004712D01*
X014123Y004692D01*
X014078Y004675D01*
X014032Y004663D01*
X013984Y004654D01*
X013936Y004649D01*
X013888Y004648D01*
X013840Y004651D01*
X013792Y004658D01*
X013745Y004669D01*
X013699Y004683D01*
X013654Y004701D01*
X013611Y004723D01*
X013570Y004748D01*
X013532Y004777D01*
X013495Y004809D01*
X013461Y004843D01*
X013431Y004880D01*
X013403Y004919D01*
X013378Y004961D01*
X013358Y005005D01*
X013340Y005050D01*
X013327Y005096D01*
X013317Y005143D01*
X013311Y005191D01*
X013309Y005239D01*
X015278Y005239D02*
X015280Y005287D01*
X015286Y005335D01*
X015296Y005382D01*
X015309Y005428D01*
X015327Y005473D01*
X015347Y005517D01*
X015372Y005559D01*
X015400Y005598D01*
X015430Y005635D01*
X015464Y005669D01*
X015501Y005701D01*
X015539Y005730D01*
X015580Y005755D01*
X015623Y005777D01*
X015668Y005795D01*
X015714Y005809D01*
X015761Y005820D01*
X015809Y005827D01*
X015857Y005830D01*
X015905Y005829D01*
X015953Y005824D01*
X016001Y005815D01*
X016047Y005803D01*
X016092Y005786D01*
X016136Y005766D01*
X016178Y005743D01*
X016218Y005716D01*
X016256Y005686D01*
X016291Y005653D01*
X016323Y005617D01*
X016353Y005579D01*
X016379Y005538D01*
X016401Y005495D01*
X016421Y005451D01*
X016436Y005406D01*
X016448Y005359D01*
X016456Y005311D01*
X016460Y005263D01*
X016460Y005215D01*
X016456Y005167D01*
X016448Y005119D01*
X016436Y005072D01*
X016421Y005027D01*
X016401Y004983D01*
X016379Y004940D01*
X016353Y004899D01*
X016323Y004861D01*
X016291Y004825D01*
X016256Y004792D01*
X016218Y004762D01*
X016178Y004735D01*
X016136Y004712D01*
X016092Y004692D01*
X016047Y004675D01*
X016001Y004663D01*
X015953Y004654D01*
X015905Y004649D01*
X015857Y004648D01*
X015809Y004651D01*
X015761Y004658D01*
X015714Y004669D01*
X015668Y004683D01*
X015623Y004701D01*
X015580Y004723D01*
X015539Y004748D01*
X015501Y004777D01*
X015464Y004809D01*
X015430Y004843D01*
X015400Y004880D01*
X015372Y004919D01*
X015347Y004961D01*
X015327Y005005D01*
X015309Y005050D01*
X015296Y005096D01*
X015286Y005143D01*
X015280Y005191D01*
X015278Y005239D01*
X014294Y012523D02*
X014296Y012571D01*
X014302Y012619D01*
X014312Y012666D01*
X014325Y012712D01*
X014343Y012757D01*
X014363Y012801D01*
X014388Y012843D01*
X014416Y012882D01*
X014446Y012919D01*
X014480Y012953D01*
X014517Y012985D01*
X014555Y013014D01*
X014596Y013039D01*
X014639Y013061D01*
X014684Y013079D01*
X014730Y013093D01*
X014777Y013104D01*
X014825Y013111D01*
X014873Y013114D01*
X014921Y013113D01*
X014969Y013108D01*
X015017Y013099D01*
X015063Y013087D01*
X015108Y013070D01*
X015152Y013050D01*
X015194Y013027D01*
X015234Y013000D01*
X015272Y012970D01*
X015307Y012937D01*
X015339Y012901D01*
X015369Y012863D01*
X015395Y012822D01*
X015417Y012779D01*
X015437Y012735D01*
X015452Y012690D01*
X015464Y012643D01*
X015472Y012595D01*
X015476Y012547D01*
X015476Y012499D01*
X015472Y012451D01*
X015464Y012403D01*
X015452Y012356D01*
X015437Y012311D01*
X015417Y012267D01*
X015395Y012224D01*
X015369Y012183D01*
X015339Y012145D01*
X015307Y012109D01*
X015272Y012076D01*
X015234Y012046D01*
X015194Y012019D01*
X015152Y011996D01*
X015108Y011976D01*
X015063Y011959D01*
X015017Y011947D01*
X014969Y011938D01*
X014921Y011933D01*
X014873Y011932D01*
X014825Y011935D01*
X014777Y011942D01*
X014730Y011953D01*
X014684Y011967D01*
X014639Y011985D01*
X014596Y012007D01*
X014555Y012032D01*
X014517Y012061D01*
X014480Y012093D01*
X014446Y012127D01*
X014416Y012164D01*
X014388Y012203D01*
X014363Y012245D01*
X014343Y012289D01*
X014325Y012334D01*
X014312Y012380D01*
X014302Y012427D01*
X014296Y012475D01*
X014294Y012523D01*
D12*
X014794Y009351D02*
X015101Y009351D01*
X014948Y009351D02*
X014794Y009198D01*
X014794Y009121D01*
X014717Y008967D02*
X014641Y008891D01*
X014641Y008737D01*
X014717Y008660D01*
X014794Y008660D01*
X014871Y008737D01*
X014948Y008660D01*
X015024Y008660D01*
X015101Y008737D01*
X015101Y008891D01*
X015024Y008967D01*
X014871Y008814D02*
X014871Y008737D01*
X014794Y008507D02*
X015101Y008354D01*
X014794Y008200D01*
X014871Y008047D02*
X015024Y008047D01*
X015101Y007970D01*
X015101Y007816D01*
X015024Y007740D01*
X014871Y007740D01*
X014794Y007816D01*
X014794Y007970D01*
X014871Y008047D01*
X015101Y007586D02*
X015101Y007433D01*
X015101Y007510D02*
X014641Y007510D01*
X014641Y007586D01*
X014794Y007279D02*
X015024Y007279D01*
X015101Y007203D01*
X015101Y006972D01*
X014794Y006972D01*
X014794Y006819D02*
X014794Y006666D01*
X014717Y006742D02*
X015024Y006742D01*
X015101Y006666D01*
X015101Y006512D02*
X015101Y006359D01*
X015101Y006435D02*
X014794Y006435D01*
X014794Y006512D01*
X014641Y006435D02*
X014564Y006435D01*
X014794Y006129D02*
X014871Y006205D01*
X015024Y006205D01*
X015101Y006129D01*
X015101Y005975D01*
X015024Y005898D01*
X014871Y005898D01*
X014794Y005975D01*
X014794Y006129D01*
X014794Y005745D02*
X014794Y005515D01*
X014871Y005438D01*
X015101Y005438D01*
X015101Y005745D02*
X014794Y005745D01*
X027641Y005772D02*
X027718Y005695D01*
X027871Y005695D01*
X027948Y005772D01*
X027948Y005925D01*
X027871Y006002D01*
X027718Y006002D01*
X027641Y005925D01*
X027641Y005772D01*
X027948Y005542D02*
X027641Y005388D01*
X027948Y005235D01*
X027948Y005081D02*
X027871Y005005D01*
X027794Y005081D01*
X027718Y005081D01*
X027641Y005005D01*
X027641Y004851D01*
X027718Y004775D01*
X027948Y004621D02*
X027948Y004544D01*
X027794Y004391D01*
X027641Y004391D02*
X027948Y004391D01*
X028266Y004468D02*
X028343Y004391D01*
X028496Y004391D01*
X028573Y004468D01*
X028573Y004698D01*
X028726Y004698D02*
X028266Y004698D01*
X028266Y004468D01*
X028025Y004775D02*
X028101Y004851D01*
X028101Y005005D01*
X028025Y005081D01*
X027948Y005081D01*
X027871Y005005D02*
X027871Y004928D01*
X028266Y004928D02*
X028266Y005081D01*
X028266Y004928D02*
X028343Y004851D01*
X028496Y004851D01*
X028573Y004928D01*
X028573Y005081D01*
X028496Y005158D01*
X028419Y005158D01*
X028419Y004851D01*
X028891Y004928D02*
X028891Y005081D01*
X028968Y005158D01*
X029275Y005158D01*
X028968Y004851D01*
X028891Y004928D01*
X028968Y004851D02*
X029275Y004851D01*
X029351Y004928D01*
X029351Y005081D01*
X029275Y005158D01*
X028968Y005312D02*
X028968Y005388D01*
X028891Y005388D01*
X028891Y005312D01*
X028968Y005312D01*
X028891Y005542D02*
X028891Y005849D01*
X028891Y005695D02*
X029351Y005695D01*
X029198Y005542D01*
X028726Y005772D02*
X028266Y005772D01*
X028266Y006002D01*
X028343Y006079D01*
X028496Y006079D01*
X028573Y006002D01*
X028573Y005772D01*
X028573Y005619D02*
X028266Y005465D01*
X028573Y005312D01*
X028891Y004544D02*
X029198Y004698D01*
X029198Y004391D02*
X028891Y004544D01*
X028101Y006156D02*
X028101Y006232D01*
X027641Y006232D01*
X027641Y006156D02*
X027641Y006309D01*
X027718Y006463D02*
X027641Y006539D01*
X027641Y006769D01*
X027948Y006769D01*
X027948Y006923D02*
X027948Y007076D01*
X028025Y007000D02*
X027718Y007000D01*
X027641Y007076D01*
X027641Y007230D02*
X027641Y007383D01*
X027641Y007306D02*
X027948Y007306D01*
X027948Y007230D01*
X028101Y007306D02*
X028178Y007306D01*
X028266Y007153D02*
X028573Y007153D01*
X028573Y007306D02*
X028419Y007153D01*
X028419Y007000D02*
X028419Y006769D01*
X028343Y006693D01*
X028266Y006769D01*
X028266Y007000D01*
X028496Y007000D01*
X028573Y006923D01*
X028573Y006769D01*
X028496Y006539D02*
X028573Y006463D01*
X028573Y006309D01*
X028496Y006232D01*
X028343Y006232D01*
X028266Y006309D01*
X028266Y006463D01*
X028343Y006539D01*
X028496Y006539D01*
X027948Y006463D02*
X027718Y006463D01*
X028573Y007306D02*
X028573Y007383D01*
X028496Y007537D02*
X028573Y007613D01*
X028573Y007844D01*
X028726Y007844D02*
X028266Y007844D01*
X028266Y007613D01*
X028343Y007537D01*
X028496Y007537D01*
X027948Y007613D02*
X027948Y007767D01*
X027871Y007844D01*
X027718Y007844D01*
X027641Y007767D01*
X027641Y007613D01*
X027718Y007537D01*
X027871Y007537D01*
X027948Y007613D01*
X027948Y007997D02*
X027641Y007997D01*
X027948Y007997D02*
X027948Y008227D01*
X027871Y008304D01*
X027641Y008304D01*
M02*
