%
M48
M72
T01C0.0197
T02C0.0394
T03C0.1181
%
T01
X1371Y3835
X2121Y3835
X2871Y3835
X3621Y4085
X4121Y4085
X4621Y4085
X4121Y4585
X3621Y4585
X3621Y5085
X4121Y5085
X4621Y5085
X4621Y5585
X4121Y5585
X3621Y5585
X3621Y6085
X4121Y6085
X4121Y6585
X3621Y6585
X4621Y6585
X4621Y7085
X4121Y7085
X3121Y7085
X3371Y7585
X4121Y7585
X4121Y8085
X4621Y8085
X4121Y8585
X4121Y9085
X4621Y9085
X4621Y9585
X4121Y9585
X3621Y9585
X3621Y10085
X4121Y10085
X4621Y10085
X4621Y10585
X4121Y10585
X5621Y11585
X6121Y11585
X6621Y11585
X7121Y11585
X7621Y11585
X8121Y11585
X8621Y11585
X9121Y11585
X9621Y11585
X9621Y12085
X9121Y12085
X8621Y12085
X8121Y12085
X7621Y12085
X7121Y12085
X6621Y12085
X8121Y12585
X8621Y12585
X9121Y12585
X9621Y12585
X10121Y12585
X10621Y12585
X11121Y12585
X11621Y12585
X12121Y12585
X12621Y12585
X13121Y12585
X13621Y12585
X14121Y12585
X14621Y12585
X15121Y12585
X15621Y12585
X16121Y12585
X16621Y12585
X17121Y12585
X17621Y12585
X18121Y12585
X18621Y12585
X19121Y12585
X19621Y12585
X20121Y12585
X20621Y12585
X21121Y12585
X21621Y12585
X21621Y12085
X22121Y12085
X22621Y12085
X23121Y12085
X23121Y11585
X23621Y11585
X24121Y11585
X25121Y11085
X25121Y10585
X25121Y10085
X25121Y9585
X25121Y9085
X21121Y9085
X20621Y9085
X20121Y9085
X19621Y9085
X19121Y9085
X18621Y9085
X18121Y9085
X17621Y9085
X17121Y9085
X16621Y9085
X16121Y9085
X15621Y9085
X15121Y9085
X14621Y9085
X14121Y9085
X13621Y9085
X13121Y9085
X12621Y9085
X12121Y9085
X11621Y9085
X11121Y9085
X10621Y9085
X10121Y9085
X9621Y9085
X9121Y9085
X8621Y9085
X8621Y9585
X9121Y9585
X9621Y9585
X10121Y9585
X10621Y9585
X11121Y9585
X11621Y9585
X12121Y9585
X12621Y9585
X13121Y9585
X13621Y9585
X14121Y9585
X14621Y9585
X15121Y9585
X15621Y9585
X16121Y9585
X16621Y9585
X17121Y9585
X17621Y9585
X18121Y9585
X18621Y9585
X19121Y9585
X19621Y9585
X20121Y9585
X20621Y9585
X21121Y9585
X21121Y10085
X20621Y10085
X20121Y10085
X19621Y10085
X19121Y10085
X18621Y10085
X18121Y10085
X17621Y10085
X17121Y10085
X16621Y10085
X16121Y10085
X15621Y10085
X15121Y10085
X14621Y10085
X14121Y10085
X13621Y10085
X13121Y10085
X12621Y10085
X12121Y10085
X11621Y10085
X11121Y10085
X10621Y10085
X10121Y10085
X9621Y10085
X9121Y10085
X8621Y10085
X8621Y10585
X9121Y10585
X9621Y10585
X9621Y11085
X9121Y11085
X13621Y11085
X14121Y11085
X14121Y10585
X14621Y10585
X15121Y10585
X15621Y10585
X16121Y10585
X16121Y11085
X15621Y11085
X16121Y11585
X16121Y12085
X13621Y12085
X13621Y11585
X13621Y10585
X13621Y8585
X13121Y8585
X12621Y8585
X12621Y8085
X13121Y8085
X13621Y8085
X14121Y8085
X14121Y7585
X13621Y7585
X13121Y7585
X12621Y7585
X12621Y7085
X13121Y7085
X13621Y7085
X14121Y7085
X14121Y6585
X13621Y6585
X13121Y6585
X12621Y6585
X12621Y6085
X13121Y6085
X13621Y6085
X14121Y6085
X15621Y6085
X16121Y6085
X16621Y6085
X17121Y6085
X17121Y6585
X16621Y6585
X16121Y6585
X15621Y6585
X15621Y7085
X16121Y7085
X16621Y7085
X17121Y7085
X17121Y7585
X16621Y7585
X16121Y7585
X15621Y7585
X15621Y8085
X16121Y8085
X16621Y8085
X17121Y8085
X17121Y8585
X16621Y8585
X16121Y8585
X15621Y8585
X14121Y8585
X8621Y7085
X6621Y7085
X6121Y7085
X6121Y7585
X6621Y7585
X6621Y8085
X7121Y8085
X7621Y8085
X6121Y8085
X6121Y6585
X6121Y6085
X6121Y5585
X6121Y5085
X6121Y4585
X6121Y4085
X6871Y3835
X7621Y3835
X8371Y3835
X2621Y8085
X2621Y9085
X20121Y10585
X20621Y10585
X21121Y10585
X21121Y11085
X20621Y11085
X20121Y11085
X20121Y11585
X20621Y11585
X21121Y11585
X21621Y11585
X22121Y11585
X22621Y11585
X21121Y12085
X20621Y12085
X20121Y12085
T02
X26121Y10085
X26121Y9085
X27121Y9085
X27121Y8085
X26121Y8085
X25121Y8085
X24121Y8085
X23121Y8085
X22121Y8085
X21121Y8085
X20121Y8085
X19121Y8085
X18121Y8085
X18121Y7085
X19121Y7085
X20121Y7085
X21121Y7085
X22121Y7085
X23121Y7085
X24121Y7085
X25121Y7085
X26121Y7085
X27121Y7085
X27121Y6085
X26121Y6085
X25121Y6085
X24121Y6085
X23121Y6085
X22121Y6085
X21121Y6085
X20121Y6085
X19121Y6085
X18121Y6085
X18121Y5085
X17121Y5085
X19121Y5085
X20121Y5085
X21121Y5085
X22121Y5085
X23121Y5085
X24121Y5085
X25121Y5085
X26121Y5085
X27121Y5085
X27121Y4085
X26121Y4085
X25121Y4085
X24121Y4085
X23121Y4085
X22121Y4085
X21121Y4085
X20121Y4085
X19121Y4085
X18121Y4085
X17121Y4085
X17121Y3085
X17121Y2085
X17121Y1085
X12621Y1085
X12621Y2085
X12621Y3085
X12621Y4085
X11621Y4085
X10621Y4085
X9621Y4085
X9621Y5085
X10621Y5085
X11621Y5085
X12621Y5085
X11621Y6085
X10621Y6085
X9621Y6085
X9621Y7085
X10621Y7085
X11621Y7085
X11621Y8085
X10621Y8085
X9621Y8085
X8621Y8085
T03
X13900Y4453
X15869Y4453
X14885Y11736
M30
