G75*
G70*
%OFA0B0*%
%FSLAX24Y24*%
%IPPOS*%
%LPD*%
%AMOC8*
5,1,8,0,0,1.08239X$1,22.5*
%
%ADD10C,0.1261*%
%ADD11C,0.0437*%
%ADD12C,0.0780*%
D10*
X013900Y004453D03*
X015869Y004453D03*
X014885Y011736D03*
D11*
X001371Y003835D03*
X002121Y003835D03*
X002871Y003835D03*
X003621Y004085D03*
X004121Y004085D03*
X004621Y004085D03*
X004121Y004585D03*
X003621Y004585D03*
X003621Y005085D03*
X004121Y005085D03*
X004621Y005085D03*
X004621Y005585D03*
X004121Y005585D03*
X003621Y005585D03*
X003621Y006085D03*
X004121Y006085D03*
X004121Y006585D03*
X003621Y006585D03*
X004621Y006585D03*
X004621Y007085D03*
X004121Y007085D03*
X003121Y007085D03*
X003371Y007585D03*
X004121Y007585D03*
X004121Y008085D03*
X004621Y008085D03*
X004121Y008585D03*
X004121Y009085D03*
X004621Y009085D03*
X004621Y009585D03*
X004121Y009585D03*
X003621Y009585D03*
X003621Y010085D03*
X004121Y010085D03*
X004621Y010085D03*
X004621Y010585D03*
X004121Y010585D03*
X005621Y011585D03*
X006121Y011585D03*
X006621Y011585D03*
X007121Y011585D03*
X007621Y011585D03*
X008121Y011585D03*
X008621Y011585D03*
X009121Y011585D03*
X009621Y011585D03*
X009621Y012085D03*
X009121Y012085D03*
X008621Y012085D03*
X008121Y012085D03*
X007621Y012085D03*
X007121Y012085D03*
X006621Y012085D03*
X008121Y012585D03*
X008621Y012585D03*
X009121Y012585D03*
X009621Y012585D03*
X010121Y012585D03*
X010621Y012585D03*
X011121Y012585D03*
X011621Y012585D03*
X012121Y012585D03*
X012621Y012585D03*
X013121Y012585D03*
X013621Y012585D03*
X014121Y012585D03*
X014621Y012585D03*
X015121Y012585D03*
X015621Y012585D03*
X016121Y012585D03*
X016621Y012585D03*
X017121Y012585D03*
X017621Y012585D03*
X018121Y012585D03*
X018621Y012585D03*
X019121Y012585D03*
X019621Y012585D03*
X020121Y012585D03*
X020621Y012585D03*
X021121Y012585D03*
X021621Y012585D03*
X021621Y012085D03*
X022121Y012085D03*
X022621Y012085D03*
X023121Y012085D03*
X023121Y011585D03*
X023621Y011585D03*
X024121Y011585D03*
X025121Y011085D03*
X025121Y010585D03*
X025121Y010085D03*
X025121Y009585D03*
X025121Y009085D03*
X021121Y009085D03*
X020621Y009085D03*
X020121Y009085D03*
X019621Y009085D03*
X019121Y009085D03*
X018621Y009085D03*
X018121Y009085D03*
X017621Y009085D03*
X017121Y009085D03*
X016621Y009085D03*
X016121Y009085D03*
X015621Y009085D03*
X015121Y009085D03*
X014621Y009085D03*
X014121Y009085D03*
X013621Y009085D03*
X013121Y009085D03*
X012621Y009085D03*
X012121Y009085D03*
X011621Y009085D03*
X011121Y009085D03*
X010621Y009085D03*
X010121Y009085D03*
X009621Y009085D03*
X009121Y009085D03*
X008621Y009085D03*
X008621Y009585D03*
X009121Y009585D03*
X009621Y009585D03*
X010121Y009585D03*
X010621Y009585D03*
X011121Y009585D03*
X011621Y009585D03*
X012121Y009585D03*
X012621Y009585D03*
X013121Y009585D03*
X013621Y009585D03*
X014121Y009585D03*
X014621Y009585D03*
X015121Y009585D03*
X015621Y009585D03*
X016121Y009585D03*
X016621Y009585D03*
X017121Y009585D03*
X017621Y009585D03*
X018121Y009585D03*
X018621Y009585D03*
X019121Y009585D03*
X019621Y009585D03*
X020121Y009585D03*
X020621Y009585D03*
X021121Y009585D03*
X021121Y010085D03*
X020621Y010085D03*
X020121Y010085D03*
X019621Y010085D03*
X019121Y010085D03*
X018621Y010085D03*
X018121Y010085D03*
X017621Y010085D03*
X017121Y010085D03*
X016621Y010085D03*
X016121Y010085D03*
X015621Y010085D03*
X015121Y010085D03*
X014621Y010085D03*
X014121Y010085D03*
X013621Y010085D03*
X013121Y010085D03*
X012621Y010085D03*
X012121Y010085D03*
X011621Y010085D03*
X011121Y010085D03*
X010621Y010085D03*
X010121Y010085D03*
X009621Y010085D03*
X009121Y010085D03*
X008621Y010085D03*
X008621Y010585D03*
X009121Y010585D03*
X009621Y010585D03*
X009621Y011085D03*
X009121Y011085D03*
X013621Y011085D03*
X014121Y011085D03*
X014121Y010585D03*
X014621Y010585D03*
X015121Y010585D03*
X015621Y010585D03*
X016121Y010585D03*
X016121Y011085D03*
X015621Y011085D03*
X016121Y011585D03*
X016121Y012085D03*
X013621Y012085D03*
X013621Y011585D03*
X013621Y010585D03*
X013621Y008585D03*
X013121Y008585D03*
X012621Y008585D03*
X012621Y008085D03*
X013121Y008085D03*
X013621Y008085D03*
X014121Y008085D03*
X014121Y007585D03*
X013621Y007585D03*
X013121Y007585D03*
X012621Y007585D03*
X012621Y007085D03*
X013121Y007085D03*
X013621Y007085D03*
X014121Y007085D03*
X014121Y006585D03*
X013621Y006585D03*
X013121Y006585D03*
X012621Y006585D03*
X012621Y006085D03*
X013121Y006085D03*
X013621Y006085D03*
X014121Y006085D03*
X015621Y006085D03*
X016121Y006085D03*
X016621Y006085D03*
X017121Y006085D03*
X017121Y006585D03*
X016621Y006585D03*
X016121Y006585D03*
X015621Y006585D03*
X015621Y007085D03*
X016121Y007085D03*
X016621Y007085D03*
X017121Y007085D03*
X017121Y007585D03*
X016621Y007585D03*
X016121Y007585D03*
X015621Y007585D03*
X015621Y008085D03*
X016121Y008085D03*
X016621Y008085D03*
X017121Y008085D03*
X017121Y008585D03*
X016621Y008585D03*
X016121Y008585D03*
X015621Y008585D03*
X014121Y008585D03*
X008621Y007085D03*
X006621Y007085D03*
X006121Y007085D03*
X006121Y007585D03*
X006621Y007585D03*
X006621Y008085D03*
X007121Y008085D03*
X007621Y008085D03*
X006121Y008085D03*
X006121Y006585D03*
X006121Y006085D03*
X006121Y005585D03*
X006121Y005085D03*
X006121Y004585D03*
X006121Y004085D03*
X006871Y003835D03*
X007621Y003835D03*
X008371Y003835D03*
X002621Y008085D03*
X002621Y009085D03*
X020121Y010585D03*
X020621Y010585D03*
X021121Y010585D03*
X021121Y011085D03*
X020621Y011085D03*
X020121Y011085D03*
X020121Y011585D03*
X020621Y011585D03*
X021121Y011585D03*
X021621Y011585D03*
X022121Y011585D03*
X022621Y011585D03*
X021121Y012085D03*
X020621Y012085D03*
X020121Y012085D03*
D12*
X026121Y010085D03*
X026121Y009085D03*
X027121Y009085D03*
X027121Y008085D03*
X026121Y008085D03*
X025121Y008085D03*
X024121Y008085D03*
X023121Y008085D03*
X022121Y008085D03*
X021121Y008085D03*
X020121Y008085D03*
X019121Y008085D03*
X018121Y008085D03*
X018121Y007085D03*
X019121Y007085D03*
X020121Y007085D03*
X021121Y007085D03*
X022121Y007085D03*
X023121Y007085D03*
X024121Y007085D03*
X025121Y007085D03*
X026121Y007085D03*
X027121Y007085D03*
X027121Y006085D03*
X026121Y006085D03*
X025121Y006085D03*
X024121Y006085D03*
X023121Y006085D03*
X022121Y006085D03*
X021121Y006085D03*
X020121Y006085D03*
X019121Y006085D03*
X018121Y006085D03*
X018121Y005085D03*
X017121Y005085D03*
X019121Y005085D03*
X020121Y005085D03*
X021121Y005085D03*
X022121Y005085D03*
X023121Y005085D03*
X024121Y005085D03*
X025121Y005085D03*
X026121Y005085D03*
X027121Y005085D03*
X027121Y004085D03*
X026121Y004085D03*
X025121Y004085D03*
X024121Y004085D03*
X023121Y004085D03*
X022121Y004085D03*
X021121Y004085D03*
X020121Y004085D03*
X019121Y004085D03*
X018121Y004085D03*
X017121Y004085D03*
X017121Y003085D03*
X017121Y002085D03*
X017121Y001085D03*
X012621Y001085D03*
X012621Y002085D03*
X012621Y003085D03*
X012621Y004085D03*
X011621Y004085D03*
X010621Y004085D03*
X009621Y004085D03*
X009621Y005085D03*
X010621Y005085D03*
X011621Y005085D03*
X012621Y005085D03*
X011621Y006085D03*
X010621Y006085D03*
X009621Y006085D03*
X009621Y007085D03*
X010621Y007085D03*
X011621Y007085D03*
X011621Y008085D03*
X010621Y008085D03*
X009621Y008085D03*
X008621Y008085D03*
M02*
