G75*
G70*
%OFA0B0*%
%FSLAX24Y24*%
%IPPOS*%
%LPD*%
%AMOC8*
5,1,8,0,0,1.08239X$1,22.5*
%
%ADD10C,0.0039*%
%ADD11C,0.0000*%
%ADD12C,0.0040*%
D10*
X000121Y003272D02*
X011735Y003272D01*
X011735Y000122D01*
X013704Y000122D01*
X013704Y003272D01*
X016066Y003272D01*
X016066Y000122D01*
X018034Y000122D01*
X018034Y003272D01*
X029649Y003272D01*
X029638Y003740D01*
X029604Y004208D01*
X029549Y004673D01*
X029471Y005135D01*
X029372Y005593D01*
X029250Y006045D01*
X029108Y006491D01*
X028944Y006930D01*
X028760Y007361D01*
X028555Y007782D01*
X028330Y008193D01*
X028086Y008594D01*
X027824Y008982D01*
X027543Y009357D01*
X027245Y009718D01*
X026930Y010064D01*
X026598Y010396D01*
X026252Y010711D01*
X025891Y011009D01*
X025516Y011290D01*
X025128Y011552D01*
X024727Y011796D01*
X024316Y012021D01*
X023895Y012226D01*
X023464Y012410D01*
X023025Y012574D01*
X022579Y012716D01*
X022127Y012838D01*
X021669Y012937D01*
X021207Y013015D01*
X020742Y013070D01*
X020274Y013104D01*
X019806Y013115D01*
X019806Y013114D02*
X009963Y013114D01*
X013309Y004453D02*
X013311Y004501D01*
X013317Y004549D01*
X013327Y004596D01*
X013340Y004642D01*
X013358Y004687D01*
X013378Y004731D01*
X013403Y004773D01*
X013431Y004812D01*
X013461Y004849D01*
X013495Y004883D01*
X013532Y004915D01*
X013570Y004944D01*
X013611Y004969D01*
X013654Y004991D01*
X013699Y005009D01*
X013745Y005023D01*
X013792Y005034D01*
X013840Y005041D01*
X013888Y005044D01*
X013936Y005043D01*
X013984Y005038D01*
X014032Y005029D01*
X014078Y005017D01*
X014123Y005000D01*
X014167Y004980D01*
X014209Y004957D01*
X014249Y004930D01*
X014287Y004900D01*
X014322Y004867D01*
X014354Y004831D01*
X014384Y004793D01*
X014410Y004752D01*
X014432Y004709D01*
X014452Y004665D01*
X014467Y004620D01*
X014479Y004573D01*
X014487Y004525D01*
X014491Y004477D01*
X014491Y004429D01*
X014487Y004381D01*
X014479Y004333D01*
X014467Y004286D01*
X014452Y004241D01*
X014432Y004197D01*
X014410Y004154D01*
X014384Y004113D01*
X014354Y004075D01*
X014322Y004039D01*
X014287Y004006D01*
X014249Y003976D01*
X014209Y003949D01*
X014167Y003926D01*
X014123Y003906D01*
X014078Y003889D01*
X014032Y003877D01*
X013984Y003868D01*
X013936Y003863D01*
X013888Y003862D01*
X013840Y003865D01*
X013792Y003872D01*
X013745Y003883D01*
X013699Y003897D01*
X013654Y003915D01*
X013611Y003937D01*
X013570Y003962D01*
X013532Y003991D01*
X013495Y004023D01*
X013461Y004057D01*
X013431Y004094D01*
X013403Y004133D01*
X013378Y004175D01*
X013358Y004219D01*
X013340Y004264D01*
X013327Y004310D01*
X013317Y004357D01*
X013311Y004405D01*
X013309Y004453D01*
X015278Y004453D02*
X015280Y004501D01*
X015286Y004549D01*
X015296Y004596D01*
X015309Y004642D01*
X015327Y004687D01*
X015347Y004731D01*
X015372Y004773D01*
X015400Y004812D01*
X015430Y004849D01*
X015464Y004883D01*
X015501Y004915D01*
X015539Y004944D01*
X015580Y004969D01*
X015623Y004991D01*
X015668Y005009D01*
X015714Y005023D01*
X015761Y005034D01*
X015809Y005041D01*
X015857Y005044D01*
X015905Y005043D01*
X015953Y005038D01*
X016001Y005029D01*
X016047Y005017D01*
X016092Y005000D01*
X016136Y004980D01*
X016178Y004957D01*
X016218Y004930D01*
X016256Y004900D01*
X016291Y004867D01*
X016323Y004831D01*
X016353Y004793D01*
X016379Y004752D01*
X016401Y004709D01*
X016421Y004665D01*
X016436Y004620D01*
X016448Y004573D01*
X016456Y004525D01*
X016460Y004477D01*
X016460Y004429D01*
X016456Y004381D01*
X016448Y004333D01*
X016436Y004286D01*
X016421Y004241D01*
X016401Y004197D01*
X016379Y004154D01*
X016353Y004113D01*
X016323Y004075D01*
X016291Y004039D01*
X016256Y004006D01*
X016218Y003976D01*
X016178Y003949D01*
X016136Y003926D01*
X016092Y003906D01*
X016047Y003889D01*
X016001Y003877D01*
X015953Y003868D01*
X015905Y003863D01*
X015857Y003862D01*
X015809Y003865D01*
X015761Y003872D01*
X015714Y003883D01*
X015668Y003897D01*
X015623Y003915D01*
X015580Y003937D01*
X015539Y003962D01*
X015501Y003991D01*
X015464Y004023D01*
X015430Y004057D01*
X015400Y004094D01*
X015372Y004133D01*
X015347Y004175D01*
X015327Y004219D01*
X015309Y004264D01*
X015296Y004310D01*
X015286Y004357D01*
X015280Y004405D01*
X015278Y004453D01*
X009963Y013115D02*
X009495Y013104D01*
X009027Y013070D01*
X008562Y013015D01*
X008100Y012937D01*
X007642Y012838D01*
X007190Y012716D01*
X006744Y012574D01*
X006305Y012410D01*
X005874Y012226D01*
X005453Y012021D01*
X005041Y011796D01*
X004641Y011552D01*
X004253Y011290D01*
X003878Y011009D01*
X003517Y010711D01*
X003171Y010396D01*
X002839Y010064D01*
X002524Y009718D01*
X002226Y009357D01*
X001945Y008982D01*
X001683Y008594D01*
X001439Y008194D01*
X001214Y007782D01*
X001009Y007361D01*
X000825Y006930D01*
X000661Y006491D01*
X000519Y006045D01*
X000397Y005593D01*
X000298Y005135D01*
X000220Y004673D01*
X000165Y004208D01*
X000131Y003740D01*
X000120Y003272D01*
D11*
X013309Y004453D02*
X013311Y004501D01*
X013317Y004549D01*
X013327Y004596D01*
X013340Y004642D01*
X013358Y004687D01*
X013378Y004731D01*
X013403Y004773D01*
X013431Y004812D01*
X013461Y004849D01*
X013495Y004883D01*
X013532Y004915D01*
X013570Y004944D01*
X013611Y004969D01*
X013654Y004991D01*
X013699Y005009D01*
X013745Y005023D01*
X013792Y005034D01*
X013840Y005041D01*
X013888Y005044D01*
X013936Y005043D01*
X013984Y005038D01*
X014032Y005029D01*
X014078Y005017D01*
X014123Y005000D01*
X014167Y004980D01*
X014209Y004957D01*
X014249Y004930D01*
X014287Y004900D01*
X014322Y004867D01*
X014354Y004831D01*
X014384Y004793D01*
X014410Y004752D01*
X014432Y004709D01*
X014452Y004665D01*
X014467Y004620D01*
X014479Y004573D01*
X014487Y004525D01*
X014491Y004477D01*
X014491Y004429D01*
X014487Y004381D01*
X014479Y004333D01*
X014467Y004286D01*
X014452Y004241D01*
X014432Y004197D01*
X014410Y004154D01*
X014384Y004113D01*
X014354Y004075D01*
X014322Y004039D01*
X014287Y004006D01*
X014249Y003976D01*
X014209Y003949D01*
X014167Y003926D01*
X014123Y003906D01*
X014078Y003889D01*
X014032Y003877D01*
X013984Y003868D01*
X013936Y003863D01*
X013888Y003862D01*
X013840Y003865D01*
X013792Y003872D01*
X013745Y003883D01*
X013699Y003897D01*
X013654Y003915D01*
X013611Y003937D01*
X013570Y003962D01*
X013532Y003991D01*
X013495Y004023D01*
X013461Y004057D01*
X013431Y004094D01*
X013403Y004133D01*
X013378Y004175D01*
X013358Y004219D01*
X013340Y004264D01*
X013327Y004310D01*
X013317Y004357D01*
X013311Y004405D01*
X013309Y004453D01*
X015278Y004453D02*
X015280Y004501D01*
X015286Y004549D01*
X015296Y004596D01*
X015309Y004642D01*
X015327Y004687D01*
X015347Y004731D01*
X015372Y004773D01*
X015400Y004812D01*
X015430Y004849D01*
X015464Y004883D01*
X015501Y004915D01*
X015539Y004944D01*
X015580Y004969D01*
X015623Y004991D01*
X015668Y005009D01*
X015714Y005023D01*
X015761Y005034D01*
X015809Y005041D01*
X015857Y005044D01*
X015905Y005043D01*
X015953Y005038D01*
X016001Y005029D01*
X016047Y005017D01*
X016092Y005000D01*
X016136Y004980D01*
X016178Y004957D01*
X016218Y004930D01*
X016256Y004900D01*
X016291Y004867D01*
X016323Y004831D01*
X016353Y004793D01*
X016379Y004752D01*
X016401Y004709D01*
X016421Y004665D01*
X016436Y004620D01*
X016448Y004573D01*
X016456Y004525D01*
X016460Y004477D01*
X016460Y004429D01*
X016456Y004381D01*
X016448Y004333D01*
X016436Y004286D01*
X016421Y004241D01*
X016401Y004197D01*
X016379Y004154D01*
X016353Y004113D01*
X016323Y004075D01*
X016291Y004039D01*
X016256Y004006D01*
X016218Y003976D01*
X016178Y003949D01*
X016136Y003926D01*
X016092Y003906D01*
X016047Y003889D01*
X016001Y003877D01*
X015953Y003868D01*
X015905Y003863D01*
X015857Y003862D01*
X015809Y003865D01*
X015761Y003872D01*
X015714Y003883D01*
X015668Y003897D01*
X015623Y003915D01*
X015580Y003937D01*
X015539Y003962D01*
X015501Y003991D01*
X015464Y004023D01*
X015430Y004057D01*
X015400Y004094D01*
X015372Y004133D01*
X015347Y004175D01*
X015327Y004219D01*
X015309Y004264D01*
X015296Y004310D01*
X015286Y004357D01*
X015280Y004405D01*
X015278Y004453D01*
X014294Y011736D02*
X014296Y011784D01*
X014302Y011832D01*
X014312Y011879D01*
X014325Y011925D01*
X014343Y011970D01*
X014363Y012014D01*
X014388Y012056D01*
X014416Y012095D01*
X014446Y012132D01*
X014480Y012166D01*
X014517Y012198D01*
X014555Y012227D01*
X014596Y012252D01*
X014639Y012274D01*
X014684Y012292D01*
X014730Y012306D01*
X014777Y012317D01*
X014825Y012324D01*
X014873Y012327D01*
X014921Y012326D01*
X014969Y012321D01*
X015017Y012312D01*
X015063Y012300D01*
X015108Y012283D01*
X015152Y012263D01*
X015194Y012240D01*
X015234Y012213D01*
X015272Y012183D01*
X015307Y012150D01*
X015339Y012114D01*
X015369Y012076D01*
X015395Y012035D01*
X015417Y011992D01*
X015437Y011948D01*
X015452Y011903D01*
X015464Y011856D01*
X015472Y011808D01*
X015476Y011760D01*
X015476Y011712D01*
X015472Y011664D01*
X015464Y011616D01*
X015452Y011569D01*
X015437Y011524D01*
X015417Y011480D01*
X015395Y011437D01*
X015369Y011396D01*
X015339Y011358D01*
X015307Y011322D01*
X015272Y011289D01*
X015234Y011259D01*
X015194Y011232D01*
X015152Y011209D01*
X015108Y011189D01*
X015063Y011172D01*
X015017Y011160D01*
X014969Y011151D01*
X014921Y011146D01*
X014873Y011145D01*
X014825Y011148D01*
X014777Y011155D01*
X014730Y011166D01*
X014684Y011180D01*
X014639Y011198D01*
X014596Y011220D01*
X014555Y011245D01*
X014517Y011274D01*
X014480Y011306D01*
X014446Y011340D01*
X014416Y011377D01*
X014388Y011416D01*
X014363Y011458D01*
X014343Y011502D01*
X014325Y011547D01*
X014312Y011593D01*
X014302Y011640D01*
X014296Y011688D01*
X014294Y011736D01*
D12*
X014794Y008565D02*
X015101Y008565D01*
X014948Y008565D02*
X014794Y008411D01*
X014794Y008335D01*
X014717Y008181D02*
X014641Y008104D01*
X014641Y007951D01*
X014717Y007874D01*
X014794Y007874D01*
X014871Y007951D01*
X014948Y007874D01*
X015024Y007874D01*
X015101Y007951D01*
X015101Y008104D01*
X015024Y008181D01*
X014871Y008028D02*
X014871Y007951D01*
X014794Y007721D02*
X015101Y007567D01*
X014794Y007414D01*
X014871Y007260D02*
X015024Y007260D01*
X015101Y007184D01*
X015101Y007030D01*
X015024Y006954D01*
X014871Y006954D01*
X014794Y007030D01*
X014794Y007184D01*
X014871Y007260D01*
X015101Y006800D02*
X015101Y006647D01*
X015101Y006723D02*
X014641Y006723D01*
X014641Y006800D01*
X014794Y006493D02*
X015024Y006493D01*
X015101Y006417D01*
X015101Y006186D01*
X014794Y006186D01*
X014794Y006033D02*
X014794Y005879D01*
X014717Y005956D02*
X015024Y005956D01*
X015101Y005879D01*
X015101Y005726D02*
X015101Y005573D01*
X015101Y005649D02*
X014794Y005649D01*
X014794Y005726D01*
X014641Y005649D02*
X014564Y005649D01*
X014794Y005342D02*
X014871Y005419D01*
X015024Y005419D01*
X015101Y005342D01*
X015101Y005189D01*
X015024Y005112D01*
X014871Y005112D01*
X014794Y005189D01*
X014794Y005342D01*
X014794Y004959D02*
X014794Y004729D01*
X014871Y004652D01*
X015101Y004652D01*
X015101Y004959D02*
X014794Y004959D01*
X027641Y004986D02*
X027718Y004909D01*
X027871Y004909D01*
X027948Y004986D01*
X027948Y005139D01*
X027871Y005216D01*
X027718Y005216D01*
X027641Y005139D01*
X027641Y004986D01*
X027948Y004756D02*
X027641Y004602D01*
X027948Y004449D01*
X027948Y004295D02*
X027871Y004219D01*
X027794Y004295D01*
X027718Y004295D01*
X027641Y004219D01*
X027641Y004065D01*
X027718Y003988D01*
X027871Y004142D02*
X027871Y004219D01*
X027948Y004295D02*
X028025Y004295D01*
X028101Y004219D01*
X028101Y004065D01*
X028025Y003988D01*
X028266Y003912D02*
X028266Y003681D01*
X028343Y003605D01*
X028496Y003605D01*
X028573Y003681D01*
X028573Y003912D01*
X028726Y003912D02*
X028266Y003912D01*
X028343Y004065D02*
X028496Y004065D01*
X028573Y004142D01*
X028573Y004295D01*
X028496Y004372D01*
X028419Y004372D01*
X028419Y004065D01*
X028343Y004065D02*
X028266Y004142D01*
X028266Y004295D01*
X028573Y004526D02*
X028266Y004679D01*
X028573Y004832D01*
X028573Y004986D02*
X028573Y005216D01*
X028496Y005293D01*
X028343Y005293D01*
X028266Y005216D01*
X028266Y004986D01*
X028726Y004986D01*
X028891Y005063D02*
X028891Y004756D01*
X028891Y004909D02*
X029351Y004909D01*
X029198Y004756D01*
X028968Y004602D02*
X028891Y004602D01*
X028891Y004526D01*
X028968Y004526D01*
X028968Y004602D01*
X028968Y004372D02*
X028891Y004295D01*
X028891Y004142D01*
X028968Y004065D01*
X029275Y004372D01*
X028968Y004372D01*
X029275Y004372D02*
X029351Y004295D01*
X029351Y004142D01*
X029275Y004065D01*
X028968Y004065D01*
X029198Y003912D02*
X028891Y003758D01*
X029198Y003605D01*
X027948Y003605D02*
X027641Y003605D01*
X027794Y003605D02*
X027948Y003758D01*
X027948Y003835D01*
X028101Y005369D02*
X028101Y005446D01*
X027641Y005446D01*
X027641Y005369D02*
X027641Y005523D01*
X027718Y005676D02*
X027641Y005753D01*
X027641Y005983D01*
X027948Y005983D01*
X027948Y006137D02*
X027948Y006290D01*
X028025Y006213D02*
X027718Y006213D01*
X027641Y006290D01*
X027641Y006444D02*
X027641Y006597D01*
X027641Y006520D02*
X027948Y006520D01*
X027948Y006444D01*
X028101Y006520D02*
X028178Y006520D01*
X028343Y006751D02*
X028496Y006751D01*
X028573Y006827D01*
X028573Y007057D01*
X028726Y007057D02*
X028266Y007057D01*
X028266Y006827D01*
X028343Y006751D01*
X028573Y006597D02*
X028573Y006520D01*
X028419Y006367D01*
X028266Y006367D02*
X028573Y006367D01*
X028496Y006213D02*
X028266Y006213D01*
X028266Y005983D01*
X028343Y005907D01*
X028419Y005983D01*
X028419Y006213D01*
X028496Y006213D02*
X028573Y006137D01*
X028573Y005983D01*
X028496Y005753D02*
X028573Y005676D01*
X028573Y005523D01*
X028496Y005446D01*
X028343Y005446D01*
X028266Y005523D01*
X028266Y005676D01*
X028343Y005753D01*
X028496Y005753D01*
X027948Y005676D02*
X027718Y005676D01*
X027718Y006751D02*
X027641Y006827D01*
X027641Y006981D01*
X027718Y007057D01*
X027871Y007057D01*
X027948Y006981D01*
X027948Y006827D01*
X027871Y006751D01*
X027718Y006751D01*
X027641Y007211D02*
X027948Y007211D01*
X027948Y007441D01*
X027871Y007518D01*
X027641Y007518D01*
M02*
