G75*
G70*
%OFA0B0*%
%FSLAX24Y24*%
%IPPOS*%
%LPD*%
%AMOC8*
5,1,8,0,0,1.08239X$1,22.5*
%
%ADD10C,0.0039*%
%ADD11C,0.0000*%
%ADD12C,0.0020*%
%ADD13C,0.0100*%
%ADD14C,0.0040*%
D10*
X000121Y004058D02*
X011735Y004058D01*
X011735Y000121D01*
X013704Y000121D01*
X013704Y004058D01*
X016066Y004058D01*
X016066Y000121D01*
X018034Y000121D01*
X018034Y004058D01*
X029649Y004058D01*
X029638Y004526D01*
X029604Y004994D01*
X029549Y005459D01*
X029471Y005921D01*
X029372Y006379D01*
X029250Y006831D01*
X029108Y007277D01*
X028944Y007716D01*
X028760Y008147D01*
X028555Y008568D01*
X028330Y008979D01*
X028086Y009380D01*
X027824Y009768D01*
X027543Y010143D01*
X027245Y010504D01*
X026930Y010850D01*
X026598Y011182D01*
X026252Y011497D01*
X025891Y011795D01*
X025516Y012076D01*
X025128Y012338D01*
X024727Y012582D01*
X024316Y012807D01*
X023895Y013012D01*
X023464Y013196D01*
X023025Y013360D01*
X022579Y013502D01*
X022127Y013624D01*
X021669Y013723D01*
X021207Y013801D01*
X020742Y013856D01*
X020274Y013890D01*
X019806Y013901D01*
X019806Y013900D02*
X009963Y013900D01*
X013309Y005239D02*
X013311Y005287D01*
X013317Y005335D01*
X013327Y005382D01*
X013340Y005428D01*
X013358Y005473D01*
X013378Y005517D01*
X013403Y005559D01*
X013431Y005598D01*
X013461Y005635D01*
X013495Y005669D01*
X013532Y005701D01*
X013570Y005730D01*
X013611Y005755D01*
X013654Y005777D01*
X013699Y005795D01*
X013745Y005809D01*
X013792Y005820D01*
X013840Y005827D01*
X013888Y005830D01*
X013936Y005829D01*
X013984Y005824D01*
X014032Y005815D01*
X014078Y005803D01*
X014123Y005786D01*
X014167Y005766D01*
X014209Y005743D01*
X014249Y005716D01*
X014287Y005686D01*
X014322Y005653D01*
X014354Y005617D01*
X014384Y005579D01*
X014410Y005538D01*
X014432Y005495D01*
X014452Y005451D01*
X014467Y005406D01*
X014479Y005359D01*
X014487Y005311D01*
X014491Y005263D01*
X014491Y005215D01*
X014487Y005167D01*
X014479Y005119D01*
X014467Y005072D01*
X014452Y005027D01*
X014432Y004983D01*
X014410Y004940D01*
X014384Y004899D01*
X014354Y004861D01*
X014322Y004825D01*
X014287Y004792D01*
X014249Y004762D01*
X014209Y004735D01*
X014167Y004712D01*
X014123Y004692D01*
X014078Y004675D01*
X014032Y004663D01*
X013984Y004654D01*
X013936Y004649D01*
X013888Y004648D01*
X013840Y004651D01*
X013792Y004658D01*
X013745Y004669D01*
X013699Y004683D01*
X013654Y004701D01*
X013611Y004723D01*
X013570Y004748D01*
X013532Y004777D01*
X013495Y004809D01*
X013461Y004843D01*
X013431Y004880D01*
X013403Y004919D01*
X013378Y004961D01*
X013358Y005005D01*
X013340Y005050D01*
X013327Y005096D01*
X013317Y005143D01*
X013311Y005191D01*
X013309Y005239D01*
X015278Y005239D02*
X015280Y005287D01*
X015286Y005335D01*
X015296Y005382D01*
X015309Y005428D01*
X015327Y005473D01*
X015347Y005517D01*
X015372Y005559D01*
X015400Y005598D01*
X015430Y005635D01*
X015464Y005669D01*
X015501Y005701D01*
X015539Y005730D01*
X015580Y005755D01*
X015623Y005777D01*
X015668Y005795D01*
X015714Y005809D01*
X015761Y005820D01*
X015809Y005827D01*
X015857Y005830D01*
X015905Y005829D01*
X015953Y005824D01*
X016001Y005815D01*
X016047Y005803D01*
X016092Y005786D01*
X016136Y005766D01*
X016178Y005743D01*
X016218Y005716D01*
X016256Y005686D01*
X016291Y005653D01*
X016323Y005617D01*
X016353Y005579D01*
X016379Y005538D01*
X016401Y005495D01*
X016421Y005451D01*
X016436Y005406D01*
X016448Y005359D01*
X016456Y005311D01*
X016460Y005263D01*
X016460Y005215D01*
X016456Y005167D01*
X016448Y005119D01*
X016436Y005072D01*
X016421Y005027D01*
X016401Y004983D01*
X016379Y004940D01*
X016353Y004899D01*
X016323Y004861D01*
X016291Y004825D01*
X016256Y004792D01*
X016218Y004762D01*
X016178Y004735D01*
X016136Y004712D01*
X016092Y004692D01*
X016047Y004675D01*
X016001Y004663D01*
X015953Y004654D01*
X015905Y004649D01*
X015857Y004648D01*
X015809Y004651D01*
X015761Y004658D01*
X015714Y004669D01*
X015668Y004683D01*
X015623Y004701D01*
X015580Y004723D01*
X015539Y004748D01*
X015501Y004777D01*
X015464Y004809D01*
X015430Y004843D01*
X015400Y004880D01*
X015372Y004919D01*
X015347Y004961D01*
X015327Y005005D01*
X015309Y005050D01*
X015296Y005096D01*
X015286Y005143D01*
X015280Y005191D01*
X015278Y005239D01*
X009963Y013901D02*
X009495Y013890D01*
X009027Y013856D01*
X008562Y013801D01*
X008100Y013723D01*
X007642Y013624D01*
X007190Y013502D01*
X006744Y013360D01*
X006305Y013196D01*
X005874Y013012D01*
X005453Y012807D01*
X005041Y012582D01*
X004641Y012338D01*
X004253Y012076D01*
X003878Y011795D01*
X003517Y011497D01*
X003171Y011182D01*
X002839Y010850D01*
X002524Y010504D01*
X002226Y010143D01*
X001945Y009768D01*
X001683Y009380D01*
X001439Y008980D01*
X001214Y008568D01*
X001009Y008147D01*
X000825Y007716D01*
X000661Y007277D01*
X000519Y006831D01*
X000397Y006379D01*
X000298Y005921D01*
X000220Y005459D01*
X000165Y004994D01*
X000131Y004526D01*
X000120Y004058D01*
D11*
X013309Y005239D02*
X013311Y005287D01*
X013317Y005335D01*
X013327Y005382D01*
X013340Y005428D01*
X013358Y005473D01*
X013378Y005517D01*
X013403Y005559D01*
X013431Y005598D01*
X013461Y005635D01*
X013495Y005669D01*
X013532Y005701D01*
X013570Y005730D01*
X013611Y005755D01*
X013654Y005777D01*
X013699Y005795D01*
X013745Y005809D01*
X013792Y005820D01*
X013840Y005827D01*
X013888Y005830D01*
X013936Y005829D01*
X013984Y005824D01*
X014032Y005815D01*
X014078Y005803D01*
X014123Y005786D01*
X014167Y005766D01*
X014209Y005743D01*
X014249Y005716D01*
X014287Y005686D01*
X014322Y005653D01*
X014354Y005617D01*
X014384Y005579D01*
X014410Y005538D01*
X014432Y005495D01*
X014452Y005451D01*
X014467Y005406D01*
X014479Y005359D01*
X014487Y005311D01*
X014491Y005263D01*
X014491Y005215D01*
X014487Y005167D01*
X014479Y005119D01*
X014467Y005072D01*
X014452Y005027D01*
X014432Y004983D01*
X014410Y004940D01*
X014384Y004899D01*
X014354Y004861D01*
X014322Y004825D01*
X014287Y004792D01*
X014249Y004762D01*
X014209Y004735D01*
X014167Y004712D01*
X014123Y004692D01*
X014078Y004675D01*
X014032Y004663D01*
X013984Y004654D01*
X013936Y004649D01*
X013888Y004648D01*
X013840Y004651D01*
X013792Y004658D01*
X013745Y004669D01*
X013699Y004683D01*
X013654Y004701D01*
X013611Y004723D01*
X013570Y004748D01*
X013532Y004777D01*
X013495Y004809D01*
X013461Y004843D01*
X013431Y004880D01*
X013403Y004919D01*
X013378Y004961D01*
X013358Y005005D01*
X013340Y005050D01*
X013327Y005096D01*
X013317Y005143D01*
X013311Y005191D01*
X013309Y005239D01*
X015278Y005239D02*
X015280Y005287D01*
X015286Y005335D01*
X015296Y005382D01*
X015309Y005428D01*
X015327Y005473D01*
X015347Y005517D01*
X015372Y005559D01*
X015400Y005598D01*
X015430Y005635D01*
X015464Y005669D01*
X015501Y005701D01*
X015539Y005730D01*
X015580Y005755D01*
X015623Y005777D01*
X015668Y005795D01*
X015714Y005809D01*
X015761Y005820D01*
X015809Y005827D01*
X015857Y005830D01*
X015905Y005829D01*
X015953Y005824D01*
X016001Y005815D01*
X016047Y005803D01*
X016092Y005786D01*
X016136Y005766D01*
X016178Y005743D01*
X016218Y005716D01*
X016256Y005686D01*
X016291Y005653D01*
X016323Y005617D01*
X016353Y005579D01*
X016379Y005538D01*
X016401Y005495D01*
X016421Y005451D01*
X016436Y005406D01*
X016448Y005359D01*
X016456Y005311D01*
X016460Y005263D01*
X016460Y005215D01*
X016456Y005167D01*
X016448Y005119D01*
X016436Y005072D01*
X016421Y005027D01*
X016401Y004983D01*
X016379Y004940D01*
X016353Y004899D01*
X016323Y004861D01*
X016291Y004825D01*
X016256Y004792D01*
X016218Y004762D01*
X016178Y004735D01*
X016136Y004712D01*
X016092Y004692D01*
X016047Y004675D01*
X016001Y004663D01*
X015953Y004654D01*
X015905Y004649D01*
X015857Y004648D01*
X015809Y004651D01*
X015761Y004658D01*
X015714Y004669D01*
X015668Y004683D01*
X015623Y004701D01*
X015580Y004723D01*
X015539Y004748D01*
X015501Y004777D01*
X015464Y004809D01*
X015430Y004843D01*
X015400Y004880D01*
X015372Y004919D01*
X015347Y004961D01*
X015327Y005005D01*
X015309Y005050D01*
X015296Y005096D01*
X015286Y005143D01*
X015280Y005191D01*
X015278Y005239D01*
X014294Y012523D02*
X014296Y012571D01*
X014302Y012619D01*
X014312Y012666D01*
X014325Y012712D01*
X014343Y012757D01*
X014363Y012801D01*
X014388Y012843D01*
X014416Y012882D01*
X014446Y012919D01*
X014480Y012953D01*
X014517Y012985D01*
X014555Y013014D01*
X014596Y013039D01*
X014639Y013061D01*
X014684Y013079D01*
X014730Y013093D01*
X014777Y013104D01*
X014825Y013111D01*
X014873Y013114D01*
X014921Y013113D01*
X014969Y013108D01*
X015017Y013099D01*
X015063Y013087D01*
X015108Y013070D01*
X015152Y013050D01*
X015194Y013027D01*
X015234Y013000D01*
X015272Y012970D01*
X015307Y012937D01*
X015339Y012901D01*
X015369Y012863D01*
X015395Y012822D01*
X015417Y012779D01*
X015437Y012735D01*
X015452Y012690D01*
X015464Y012643D01*
X015472Y012595D01*
X015476Y012547D01*
X015476Y012499D01*
X015472Y012451D01*
X015464Y012403D01*
X015452Y012356D01*
X015437Y012311D01*
X015417Y012267D01*
X015395Y012224D01*
X015369Y012183D01*
X015339Y012145D01*
X015307Y012109D01*
X015272Y012076D01*
X015234Y012046D01*
X015194Y012019D01*
X015152Y011996D01*
X015108Y011976D01*
X015063Y011959D01*
X015017Y011947D01*
X014969Y011938D01*
X014921Y011933D01*
X014873Y011932D01*
X014825Y011935D01*
X014777Y011942D01*
X014730Y011953D01*
X014684Y011967D01*
X014639Y011985D01*
X014596Y012007D01*
X014555Y012032D01*
X014517Y012061D01*
X014480Y012093D01*
X014446Y012127D01*
X014416Y012164D01*
X014388Y012203D01*
X014363Y012245D01*
X014343Y012289D01*
X014325Y012334D01*
X014312Y012380D01*
X014302Y012427D01*
X014296Y012475D01*
X014294Y012523D01*
D12*
X011611Y012699D02*
X011574Y012662D01*
X011538Y012662D01*
X011501Y012699D01*
X011501Y012772D01*
X011538Y012809D01*
X011574Y012809D01*
X011611Y012772D01*
X011611Y012699D01*
X011501Y012699D02*
X011464Y012662D01*
X011427Y012662D01*
X011391Y012699D01*
X011391Y012772D01*
X011427Y012809D01*
X011464Y012809D01*
X011501Y012772D01*
X011501Y012588D02*
X011501Y012441D01*
X011574Y012367D02*
X011611Y012330D01*
X011611Y012257D01*
X011574Y012220D01*
X011427Y012220D01*
X011391Y012257D01*
X011391Y012330D01*
X011427Y012367D01*
X011391Y012146D02*
X011391Y012073D01*
X011391Y012110D02*
X011611Y012110D01*
X011611Y012146D02*
X011611Y012073D01*
X011574Y011999D02*
X011611Y011962D01*
X011611Y011889D01*
X011574Y011852D01*
X011427Y011852D01*
X011391Y011889D01*
X011391Y011962D01*
X011427Y011999D01*
X011574Y011999D01*
X011574Y011778D02*
X011611Y011741D01*
X011611Y011668D01*
X011574Y011631D01*
X011501Y011668D02*
X011501Y011741D01*
X011538Y011778D01*
X011574Y011778D01*
X011501Y011668D02*
X011464Y011631D01*
X011427Y011631D01*
X011391Y011668D01*
X011391Y011741D01*
X011427Y011778D01*
X006861Y010933D02*
X006861Y010860D01*
X006824Y010823D01*
X006788Y010823D01*
X006751Y010860D01*
X006751Y010933D01*
X006788Y010970D01*
X006824Y010970D01*
X006861Y010933D01*
X006751Y010933D02*
X006714Y010970D01*
X006677Y010970D01*
X006641Y010933D01*
X006641Y010860D01*
X006677Y010823D01*
X006714Y010823D01*
X006751Y010860D01*
X006641Y010749D02*
X006861Y010749D01*
X006861Y010602D02*
X006641Y010602D01*
X006714Y010675D01*
X006641Y010749D01*
X006677Y010528D02*
X006641Y010491D01*
X006641Y010418D01*
X006677Y010381D01*
X006714Y010381D01*
X006751Y010418D01*
X006751Y010491D01*
X006788Y010528D01*
X006824Y010528D01*
X006861Y010491D01*
X006861Y010418D01*
X006824Y010381D01*
X006918Y006601D02*
X006881Y006564D01*
X006881Y006528D01*
X006918Y006491D01*
X006991Y006491D01*
X007028Y006454D01*
X007028Y006418D01*
X006991Y006381D01*
X006918Y006381D01*
X006881Y006418D01*
X006918Y006601D02*
X006991Y006601D01*
X007028Y006564D01*
X007102Y006564D02*
X007102Y006418D01*
X007139Y006381D01*
X007212Y006381D01*
X007249Y006418D01*
X007249Y006564D01*
X007212Y006601D01*
X007139Y006601D01*
X007102Y006564D01*
X007323Y006601D02*
X007470Y006601D01*
X007396Y006601D02*
X007396Y006381D01*
X007544Y006381D02*
X007691Y006528D01*
X007691Y006564D01*
X007654Y006601D01*
X007581Y006601D01*
X007544Y006564D01*
X007544Y006381D02*
X007691Y006381D01*
X007765Y006381D02*
X007912Y006528D01*
X007912Y006564D01*
X007875Y006601D01*
X007802Y006601D01*
X007765Y006564D01*
X007765Y006381D02*
X007912Y006381D01*
X007986Y006418D02*
X008023Y006381D01*
X008096Y006381D01*
X008133Y006418D01*
X008133Y006454D01*
X008096Y006491D01*
X008059Y006491D01*
X008096Y006491D02*
X008133Y006528D01*
X008133Y006564D01*
X008096Y006601D01*
X008023Y006601D01*
X007986Y006564D01*
X002633Y006564D02*
X002633Y006528D01*
X002596Y006491D01*
X002633Y006454D01*
X002633Y006418D01*
X002596Y006381D01*
X002523Y006381D01*
X002486Y006418D01*
X002412Y006381D02*
X002265Y006381D01*
X002412Y006528D01*
X002412Y006564D01*
X002375Y006601D01*
X002302Y006601D01*
X002265Y006564D01*
X002191Y006564D02*
X002154Y006601D01*
X002081Y006601D01*
X002044Y006564D01*
X001970Y006601D02*
X001823Y006601D01*
X001896Y006601D02*
X001896Y006381D01*
X002044Y006381D02*
X002191Y006528D01*
X002191Y006564D01*
X002191Y006381D02*
X002044Y006381D01*
X001749Y006418D02*
X001749Y006564D01*
X001712Y006601D01*
X001639Y006601D01*
X001602Y006564D01*
X001602Y006418D01*
X001639Y006381D01*
X001712Y006381D01*
X001749Y006418D01*
X001528Y006418D02*
X001491Y006381D01*
X001418Y006381D01*
X001381Y006418D01*
X001418Y006491D02*
X001491Y006491D01*
X001528Y006454D01*
X001528Y006418D01*
X001418Y006491D02*
X001381Y006528D01*
X001381Y006564D01*
X001418Y006601D01*
X001491Y006601D01*
X001528Y006564D01*
X002486Y006564D02*
X002523Y006601D01*
X002596Y006601D01*
X002633Y006564D01*
X002596Y006491D02*
X002559Y006491D01*
X017891Y011668D02*
X017927Y011631D01*
X017964Y011631D01*
X018001Y011668D01*
X018001Y011741D01*
X018038Y011778D01*
X018074Y011778D01*
X018111Y011741D01*
X018111Y011668D01*
X018074Y011631D01*
X017891Y011668D02*
X017891Y011741D01*
X017927Y011778D01*
X017927Y011852D02*
X018074Y011852D01*
X018111Y011889D01*
X018111Y011962D01*
X018074Y011999D01*
X017927Y011999D01*
X017891Y011962D01*
X017891Y011889D01*
X017927Y011852D01*
X017891Y012073D02*
X017891Y012146D01*
X017891Y012110D02*
X018111Y012110D01*
X018111Y012146D02*
X018111Y012073D01*
X018074Y012220D02*
X018111Y012257D01*
X018111Y012330D01*
X018074Y012367D01*
X018001Y012441D02*
X018001Y012588D01*
X018038Y012662D02*
X018001Y012699D01*
X018001Y012772D01*
X018038Y012809D01*
X018074Y012809D01*
X018111Y012772D01*
X018111Y012699D01*
X018074Y012662D01*
X018038Y012662D01*
X018001Y012699D02*
X017964Y012662D01*
X017927Y012662D01*
X017891Y012699D01*
X017891Y012772D01*
X017927Y012809D01*
X017964Y012809D01*
X018001Y012772D01*
X017927Y012367D02*
X017891Y012330D01*
X017891Y012257D01*
X017927Y012220D01*
X018074Y012220D01*
X023141Y010933D02*
X023177Y010970D01*
X023214Y010970D01*
X023251Y010933D01*
X023251Y010860D01*
X023214Y010823D01*
X023177Y010823D01*
X023141Y010860D01*
X023141Y010933D01*
X023251Y010933D02*
X023288Y010970D01*
X023324Y010970D01*
X023361Y010933D01*
X023361Y010860D01*
X023324Y010823D01*
X023288Y010823D01*
X023251Y010860D01*
X023141Y010749D02*
X023361Y010749D01*
X023361Y010602D02*
X023141Y010602D01*
X023214Y010675D01*
X023141Y010749D01*
X023177Y010528D02*
X023141Y010491D01*
X023141Y010418D01*
X023177Y010381D01*
X023214Y010381D01*
X023251Y010418D01*
X023251Y010491D01*
X023288Y010528D01*
X023324Y010528D01*
X023361Y010491D01*
X023361Y010418D01*
X023324Y010381D01*
D13*
X023871Y009371D02*
X022371Y009371D01*
X022371Y011871D01*
X023871Y011871D01*
X023871Y009371D01*
X022496Y011621D02*
X022498Y011643D01*
X022504Y011664D01*
X022513Y011683D01*
X022525Y011701D01*
X022541Y011717D01*
X022558Y011729D01*
X022578Y011738D01*
X022599Y011744D01*
X022621Y011746D01*
X022643Y011744D01*
X022664Y011738D01*
X022683Y011729D01*
X022701Y011717D01*
X022717Y011701D01*
X022729Y011683D01*
X022738Y011664D01*
X022744Y011643D01*
X022746Y011621D01*
X022744Y011599D01*
X022738Y011578D01*
X022729Y011559D01*
X022717Y011541D01*
X022701Y011525D01*
X022684Y011513D01*
X022664Y011504D01*
X022643Y011498D01*
X022621Y011496D01*
X022599Y011498D01*
X022578Y011504D01*
X022558Y011513D01*
X022541Y011525D01*
X022525Y011541D01*
X022513Y011558D01*
X022504Y011578D01*
X022498Y011599D01*
X022496Y011621D01*
X018871Y011121D02*
X017371Y011121D01*
X017371Y013121D01*
X018871Y013121D01*
X018871Y011121D01*
X017496Y012871D02*
X017498Y012893D01*
X017504Y012914D01*
X017513Y012933D01*
X017525Y012951D01*
X017541Y012967D01*
X017558Y012979D01*
X017578Y012988D01*
X017599Y012994D01*
X017621Y012996D01*
X017643Y012994D01*
X017664Y012988D01*
X017683Y012979D01*
X017701Y012967D01*
X017717Y012951D01*
X017729Y012933D01*
X017738Y012914D01*
X017744Y012893D01*
X017746Y012871D01*
X017744Y012849D01*
X017738Y012828D01*
X017729Y012809D01*
X017717Y012791D01*
X017701Y012775D01*
X017684Y012763D01*
X017664Y012754D01*
X017643Y012748D01*
X017621Y012746D01*
X017599Y012748D01*
X017578Y012754D01*
X017558Y012763D01*
X017541Y012775D01*
X017525Y012791D01*
X017513Y012808D01*
X017504Y012828D01*
X017498Y012849D01*
X017496Y012871D01*
X012371Y013121D02*
X012371Y011121D01*
X010871Y011121D01*
X010871Y013121D01*
X012371Y013121D01*
X010996Y012871D02*
X010998Y012893D01*
X011004Y012914D01*
X011013Y012933D01*
X011025Y012951D01*
X011041Y012967D01*
X011058Y012979D01*
X011078Y012988D01*
X011099Y012994D01*
X011121Y012996D01*
X011143Y012994D01*
X011164Y012988D01*
X011183Y012979D01*
X011201Y012967D01*
X011217Y012951D01*
X011229Y012933D01*
X011238Y012914D01*
X011244Y012893D01*
X011246Y012871D01*
X011244Y012849D01*
X011238Y012828D01*
X011229Y012809D01*
X011217Y012791D01*
X011201Y012775D01*
X011184Y012763D01*
X011164Y012754D01*
X011143Y012748D01*
X011121Y012746D01*
X011099Y012748D01*
X011078Y012754D01*
X011058Y012763D01*
X011041Y012775D01*
X011025Y012791D01*
X011013Y012808D01*
X011004Y012828D01*
X010998Y012849D01*
X010996Y012871D01*
X007371Y011871D02*
X007371Y009371D01*
X005871Y009371D01*
X005871Y011871D01*
X007371Y011871D01*
X005996Y011621D02*
X005998Y011643D01*
X006004Y011664D01*
X006013Y011683D01*
X006025Y011701D01*
X006041Y011717D01*
X006058Y011729D01*
X006078Y011738D01*
X006099Y011744D01*
X006121Y011746D01*
X006143Y011744D01*
X006164Y011738D01*
X006183Y011729D01*
X006201Y011717D01*
X006217Y011701D01*
X006229Y011683D01*
X006238Y011664D01*
X006244Y011643D01*
X006246Y011621D01*
X006244Y011599D01*
X006238Y011578D01*
X006229Y011559D01*
X006217Y011541D01*
X006201Y011525D01*
X006184Y011513D01*
X006164Y011504D01*
X006143Y011498D01*
X006121Y011496D01*
X006099Y011498D01*
X006078Y011504D01*
X006058Y011513D01*
X006041Y011525D01*
X006025Y011541D01*
X006013Y011558D01*
X006004Y011578D01*
X005998Y011599D01*
X005996Y011621D01*
X006371Y007371D02*
X006371Y005871D01*
X008871Y005871D01*
X008871Y007371D01*
X006371Y007371D01*
X003371Y007371D02*
X003371Y005871D01*
X000871Y005871D01*
X000871Y007371D01*
X003371Y007371D01*
D14*
X014564Y008431D02*
X014641Y008431D01*
X014794Y008431D02*
X015101Y008431D01*
X015101Y008355D02*
X015101Y008508D01*
X015024Y008662D02*
X014871Y008662D01*
X014794Y008738D01*
X014794Y008892D01*
X014871Y008969D01*
X015024Y008969D01*
X015101Y008892D01*
X015101Y008738D01*
X015024Y008662D01*
X014794Y008431D02*
X014794Y008355D01*
X014794Y008201D02*
X014794Y008048D01*
X014717Y008125D02*
X015024Y008125D01*
X015101Y008201D01*
X015101Y007894D02*
X014794Y007894D01*
X015101Y007894D02*
X015101Y007664D01*
X015024Y007588D01*
X014794Y007588D01*
X014641Y007357D02*
X015101Y007357D01*
X015101Y007281D02*
X015101Y007434D01*
X014641Y007357D02*
X014641Y007281D01*
X014871Y007127D02*
X014794Y007050D01*
X014794Y006897D01*
X014871Y006820D01*
X015024Y006820D01*
X015101Y006897D01*
X015101Y007050D01*
X015024Y007127D01*
X014871Y007127D01*
X014794Y006667D02*
X015101Y006513D01*
X014794Y006360D01*
X014794Y006206D02*
X014871Y006130D01*
X014948Y006206D01*
X015024Y006206D01*
X015101Y006130D01*
X015101Y005976D01*
X015024Y005900D01*
X014794Y005746D02*
X014794Y005669D01*
X014948Y005516D01*
X015101Y005516D02*
X014794Y005516D01*
X014717Y005900D02*
X014641Y005976D01*
X014641Y006130D01*
X014717Y006206D01*
X014794Y006206D01*
X014871Y006130D02*
X014871Y006053D01*
X014794Y009122D02*
X014794Y009352D01*
X014871Y009429D01*
X015101Y009429D01*
X015101Y009122D02*
X014794Y009122D01*
X027439Y007306D02*
X027516Y007306D01*
X027669Y007306D02*
X027976Y007306D01*
X027976Y007230D02*
X027976Y007383D01*
X027899Y007537D02*
X027976Y007613D01*
X027976Y007767D01*
X027899Y007844D01*
X027746Y007844D01*
X027669Y007767D01*
X027669Y007613D01*
X027746Y007537D01*
X027899Y007537D01*
X027669Y007306D02*
X027669Y007230D01*
X027669Y007076D02*
X027669Y006923D01*
X027592Y007000D02*
X027899Y007000D01*
X027976Y007076D01*
X027976Y006769D02*
X027669Y006769D01*
X027976Y006769D02*
X027976Y006539D01*
X027899Y006463D01*
X027669Y006463D01*
X027516Y006232D02*
X027976Y006232D01*
X027976Y006156D02*
X027976Y006309D01*
X027516Y006232D02*
X027516Y006156D01*
X027746Y006002D02*
X027669Y005925D01*
X027669Y005772D01*
X027746Y005695D01*
X027899Y005695D01*
X027976Y005772D01*
X027976Y005925D01*
X027899Y006002D01*
X027746Y006002D01*
X028141Y005772D02*
X028601Y005772D01*
X028601Y006002D01*
X028524Y006079D01*
X028371Y006079D01*
X028294Y006002D01*
X028294Y005772D01*
X028766Y005695D02*
X029226Y005695D01*
X029226Y005542D02*
X029226Y005849D01*
X028919Y005542D02*
X028766Y005695D01*
X028601Y005465D02*
X028294Y005619D01*
X028294Y005312D02*
X028601Y005465D01*
X029149Y005388D02*
X029149Y005312D01*
X029226Y005312D01*
X029226Y005388D01*
X029149Y005388D01*
X029149Y005158D02*
X028842Y005158D01*
X029149Y004851D01*
X029226Y004928D01*
X029226Y005081D01*
X029149Y005158D01*
X028842Y005158D02*
X028766Y005081D01*
X028766Y004928D01*
X028842Y004851D01*
X029149Y004851D01*
X028919Y004698D02*
X029226Y004544D01*
X028919Y004391D01*
X028601Y004468D02*
X028524Y004391D01*
X028371Y004391D01*
X028294Y004468D01*
X028294Y004698D01*
X028141Y004698D02*
X028601Y004698D01*
X028601Y004468D01*
X028524Y004851D02*
X028371Y004851D01*
X028294Y004928D01*
X028294Y005081D01*
X028371Y005158D01*
X028448Y005158D01*
X028448Y004851D01*
X028524Y004851D02*
X028601Y004928D01*
X028601Y005081D01*
X027976Y005005D02*
X027976Y004851D01*
X027899Y004775D01*
X027669Y004621D02*
X027669Y004544D01*
X027823Y004391D01*
X027976Y004391D02*
X027669Y004391D01*
X027592Y004775D02*
X027516Y004851D01*
X027516Y005005D01*
X027592Y005081D01*
X027669Y005081D01*
X027746Y005005D01*
X027823Y005081D01*
X027899Y005081D01*
X027976Y005005D01*
X027746Y005005D02*
X027746Y004928D01*
X027669Y005235D02*
X027976Y005388D01*
X027669Y005542D01*
X028371Y006232D02*
X028524Y006232D01*
X028601Y006309D01*
X028601Y006463D01*
X028524Y006539D01*
X028371Y006539D01*
X028294Y006463D01*
X028294Y006309D01*
X028371Y006232D01*
X028524Y006693D02*
X028448Y006769D01*
X028448Y007000D01*
X028371Y007000D02*
X028601Y007000D01*
X028601Y006769D01*
X028524Y006693D01*
X028294Y006769D02*
X028294Y006923D01*
X028371Y007000D01*
X028448Y007153D02*
X028294Y007306D01*
X028294Y007383D01*
X028371Y007537D02*
X028294Y007613D01*
X028294Y007844D01*
X028141Y007844D02*
X028601Y007844D01*
X028601Y007613D01*
X028524Y007537D01*
X028371Y007537D01*
X028294Y007153D02*
X028601Y007153D01*
X027976Y007997D02*
X027669Y007997D01*
X027669Y008227D01*
X027746Y008304D01*
X027976Y008304D01*
M02*
