G75*
G70*
%OFA0B0*%
%FSLAX24Y24*%
%IPPOS*%
%LPD*%
%AMOC8*
5,1,8,0,0,1.08239X$1,22.5*
%
%ADD10C,0.0000*%
D10*
X000101Y003252D02*
X011715Y003252D01*
X011715Y000102D01*
X013683Y000102D01*
X013683Y003252D01*
X016046Y003252D01*
X016046Y000102D01*
X018014Y000102D01*
X018014Y003252D01*
X029628Y003252D01*
X029629Y003252D02*
X029618Y003720D01*
X029584Y004188D01*
X029529Y004653D01*
X029451Y005115D01*
X029352Y005573D01*
X029230Y006025D01*
X029088Y006471D01*
X028924Y006910D01*
X028740Y007341D01*
X028535Y007762D01*
X028310Y008173D01*
X028066Y008574D01*
X027804Y008962D01*
X027523Y009337D01*
X027225Y009698D01*
X026910Y010044D01*
X026578Y010376D01*
X026232Y010691D01*
X025871Y010989D01*
X025496Y011270D01*
X025108Y011532D01*
X024707Y011776D01*
X024296Y012001D01*
X023875Y012206D01*
X023444Y012390D01*
X023005Y012554D01*
X022559Y012696D01*
X022107Y012818D01*
X021649Y012917D01*
X021187Y012995D01*
X020722Y013050D01*
X020254Y013084D01*
X019786Y013095D01*
X019786Y013094D02*
X009943Y013094D01*
X014274Y011716D02*
X014276Y011764D01*
X014282Y011812D01*
X014292Y011859D01*
X014305Y011905D01*
X014323Y011950D01*
X014343Y011994D01*
X014368Y012036D01*
X014396Y012075D01*
X014426Y012112D01*
X014460Y012146D01*
X014497Y012178D01*
X014535Y012207D01*
X014576Y012232D01*
X014619Y012254D01*
X014664Y012272D01*
X014710Y012286D01*
X014757Y012297D01*
X014805Y012304D01*
X014853Y012307D01*
X014901Y012306D01*
X014949Y012301D01*
X014997Y012292D01*
X015043Y012280D01*
X015088Y012263D01*
X015132Y012243D01*
X015174Y012220D01*
X015214Y012193D01*
X015252Y012163D01*
X015287Y012130D01*
X015319Y012094D01*
X015349Y012056D01*
X015375Y012015D01*
X015397Y011972D01*
X015417Y011928D01*
X015432Y011883D01*
X015444Y011836D01*
X015452Y011788D01*
X015456Y011740D01*
X015456Y011692D01*
X015452Y011644D01*
X015444Y011596D01*
X015432Y011549D01*
X015417Y011504D01*
X015397Y011460D01*
X015375Y011417D01*
X015349Y011376D01*
X015319Y011338D01*
X015287Y011302D01*
X015252Y011269D01*
X015214Y011239D01*
X015174Y011212D01*
X015132Y011189D01*
X015088Y011169D01*
X015043Y011152D01*
X014997Y011140D01*
X014949Y011131D01*
X014901Y011126D01*
X014853Y011125D01*
X014805Y011128D01*
X014757Y011135D01*
X014710Y011146D01*
X014664Y011160D01*
X014619Y011178D01*
X014576Y011200D01*
X014535Y011225D01*
X014497Y011254D01*
X014460Y011286D01*
X014426Y011320D01*
X014396Y011357D01*
X014368Y011396D01*
X014343Y011438D01*
X014323Y011482D01*
X014305Y011527D01*
X014292Y011573D01*
X014282Y011620D01*
X014276Y011668D01*
X014274Y011716D01*
X013289Y004433D02*
X013291Y004481D01*
X013297Y004529D01*
X013307Y004576D01*
X013320Y004622D01*
X013338Y004667D01*
X013358Y004711D01*
X013383Y004753D01*
X013411Y004792D01*
X013441Y004829D01*
X013475Y004863D01*
X013512Y004895D01*
X013550Y004924D01*
X013591Y004949D01*
X013634Y004971D01*
X013679Y004989D01*
X013725Y005003D01*
X013772Y005014D01*
X013820Y005021D01*
X013868Y005024D01*
X013916Y005023D01*
X013964Y005018D01*
X014012Y005009D01*
X014058Y004997D01*
X014103Y004980D01*
X014147Y004960D01*
X014189Y004937D01*
X014229Y004910D01*
X014267Y004880D01*
X014302Y004847D01*
X014334Y004811D01*
X014364Y004773D01*
X014390Y004732D01*
X014412Y004689D01*
X014432Y004645D01*
X014447Y004600D01*
X014459Y004553D01*
X014467Y004505D01*
X014471Y004457D01*
X014471Y004409D01*
X014467Y004361D01*
X014459Y004313D01*
X014447Y004266D01*
X014432Y004221D01*
X014412Y004177D01*
X014390Y004134D01*
X014364Y004093D01*
X014334Y004055D01*
X014302Y004019D01*
X014267Y003986D01*
X014229Y003956D01*
X014189Y003929D01*
X014147Y003906D01*
X014103Y003886D01*
X014058Y003869D01*
X014012Y003857D01*
X013964Y003848D01*
X013916Y003843D01*
X013868Y003842D01*
X013820Y003845D01*
X013772Y003852D01*
X013725Y003863D01*
X013679Y003877D01*
X013634Y003895D01*
X013591Y003917D01*
X013550Y003942D01*
X013512Y003971D01*
X013475Y004003D01*
X013441Y004037D01*
X013411Y004074D01*
X013383Y004113D01*
X013358Y004155D01*
X013338Y004199D01*
X013320Y004244D01*
X013307Y004290D01*
X013297Y004337D01*
X013291Y004385D01*
X013289Y004433D01*
X015258Y004433D02*
X015260Y004481D01*
X015266Y004529D01*
X015276Y004576D01*
X015289Y004622D01*
X015307Y004667D01*
X015327Y004711D01*
X015352Y004753D01*
X015380Y004792D01*
X015410Y004829D01*
X015444Y004863D01*
X015481Y004895D01*
X015519Y004924D01*
X015560Y004949D01*
X015603Y004971D01*
X015648Y004989D01*
X015694Y005003D01*
X015741Y005014D01*
X015789Y005021D01*
X015837Y005024D01*
X015885Y005023D01*
X015933Y005018D01*
X015981Y005009D01*
X016027Y004997D01*
X016072Y004980D01*
X016116Y004960D01*
X016158Y004937D01*
X016198Y004910D01*
X016236Y004880D01*
X016271Y004847D01*
X016303Y004811D01*
X016333Y004773D01*
X016359Y004732D01*
X016381Y004689D01*
X016401Y004645D01*
X016416Y004600D01*
X016428Y004553D01*
X016436Y004505D01*
X016440Y004457D01*
X016440Y004409D01*
X016436Y004361D01*
X016428Y004313D01*
X016416Y004266D01*
X016401Y004221D01*
X016381Y004177D01*
X016359Y004134D01*
X016333Y004093D01*
X016303Y004055D01*
X016271Y004019D01*
X016236Y003986D01*
X016198Y003956D01*
X016158Y003929D01*
X016116Y003906D01*
X016072Y003886D01*
X016027Y003869D01*
X015981Y003857D01*
X015933Y003848D01*
X015885Y003843D01*
X015837Y003842D01*
X015789Y003845D01*
X015741Y003852D01*
X015694Y003863D01*
X015648Y003877D01*
X015603Y003895D01*
X015560Y003917D01*
X015519Y003942D01*
X015481Y003971D01*
X015444Y004003D01*
X015410Y004037D01*
X015380Y004074D01*
X015352Y004113D01*
X015327Y004155D01*
X015307Y004199D01*
X015289Y004244D01*
X015276Y004290D01*
X015266Y004337D01*
X015260Y004385D01*
X015258Y004433D01*
X009943Y013095D02*
X009475Y013084D01*
X009007Y013050D01*
X008542Y012995D01*
X008080Y012917D01*
X007622Y012818D01*
X007170Y012696D01*
X006724Y012554D01*
X006285Y012390D01*
X005854Y012206D01*
X005433Y012001D01*
X005021Y011776D01*
X004621Y011532D01*
X004233Y011270D01*
X003858Y010989D01*
X003497Y010691D01*
X003151Y010376D01*
X002819Y010044D01*
X002504Y009698D01*
X002206Y009337D01*
X001925Y008962D01*
X001663Y008574D01*
X001419Y008174D01*
X001194Y007762D01*
X000989Y007341D01*
X000805Y006910D01*
X000641Y006471D01*
X000499Y006025D01*
X000377Y005573D01*
X000278Y005115D01*
X000200Y004653D01*
X000145Y004188D01*
X000111Y003720D01*
X000100Y003252D01*
M02*
