%
M48
M72
T01C0.0236
T02C0.0315
T03C0.0394
T04C0.1181
%
T01
X3621Y4371
X4121Y4371
X4621Y4371
X5121Y4371
X5621Y4371
X6121Y4371
X6121Y4871
X6121Y5371
X6121Y5871
X6121Y6371
X6121Y6871
X6121Y7371
X6121Y7871
X6621Y7871
X6621Y8371
X6121Y8371
X6121Y8871
X6621Y8871
X7121Y8871
X7621Y8871
X8621Y9871
X9121Y9871
X9621Y9871
X10121Y9871
X10621Y9871
X11121Y9871
X11621Y9871
X12121Y9871
X12621Y9871
X13121Y9871
X13621Y9871
X14121Y9871
X14621Y9871
X15121Y9871
X15621Y9871
X16121Y9871
X16621Y9871
X17121Y9871
X17621Y9871
X18121Y9871
X18621Y9871
X19121Y9871
X19621Y9871
X20121Y9871
X20621Y9871
X21121Y9871
X21121Y10371
X20621Y10371
X20121Y10371
X19621Y10371
X19121Y10371
X18621Y10371
X18121Y10371
X17621Y10371
X17121Y10371
X16621Y10371
X16121Y10371
X15621Y10371
X15121Y10371
X14621Y10371
X14121Y10371
X13621Y10371
X13121Y10371
X12621Y10371
X12121Y10371
X11621Y10371
X11121Y10371
X10621Y10371
X10121Y10371
X9621Y10371
X9121Y10371
X8621Y10371
X8621Y10871
X9121Y10871
X9621Y10871
X10121Y10871
X10621Y10871
X11121Y10871
X11621Y10871
X12121Y10871
X12621Y10871
X13121Y10871
X13621Y10871
X14121Y10871
X14621Y10871
X15121Y10871
X15621Y10871
X16121Y10871
X16621Y10871
X17121Y10871
X17621Y10871
X18121Y10871
X18621Y10871
X19121Y10871
X19621Y10871
X20121Y10871
X20621Y10871
X21121Y10871
X21121Y11371
X20621Y11371
X20121Y11371
X20121Y11871
X20621Y11871
X20621Y12371
X21121Y12371
X21621Y12371
X22121Y12371
X22621Y12371
X23121Y12371
X23621Y12371
X24121Y12371
X23121Y12871
X22621Y12871
X22121Y12871
X21621Y12871
X21121Y12871
X20621Y12871
X20121Y12871
X20121Y13371
X20621Y13371
X19621Y13371
X19121Y13371
X18621Y13371
X18121Y13371
X17621Y13371
X17121Y13371
X16621Y13371
X16121Y13371
X15621Y13371
X15121Y13371
X14621Y13371
X14121Y13371
X13621Y13371
X13121Y13371
X12621Y13371
X12121Y13371
X11621Y13371
X11121Y13371
X10621Y13371
X10121Y13371
X9621Y13371
X9121Y13371
X8621Y13371
X8121Y13371
X8121Y12871
X8621Y12871
X9121Y12871
X9621Y12871
X9621Y12371
X9121Y12371
X8621Y12371
X8121Y12371
X7621Y12371
X7121Y12371
X6621Y12371
X6121Y12371
X5621Y12371
X5121Y12371
X6621Y12871
X7121Y12871
X7621Y12871
X9121Y11871
X9621Y11871
X9621Y11371
X9121Y11371
X8621Y11371
X4621Y11371
X4121Y11371
X4121Y10871
X3621Y10871
X4621Y10871
X4621Y10371
X4121Y10371
X3621Y10371
X4121Y9871
X4621Y9871
X4121Y9371
X4121Y8871
X3621Y8871
X3121Y8871
X2621Y8871
X2121Y8871
X2121Y9371
X3621Y8371
X4121Y8371
X4121Y7871
X4621Y7871
X4621Y7371
X4121Y7371
X3621Y7371
X3621Y6871
X4121Y6871
X4121Y6371
X3621Y6371
X4621Y6371
X4621Y5871
X4121Y5871
X3621Y5871
X3621Y5371
X4121Y5371
X4121Y4871
X3621Y4871
X4621Y4871
X12621Y6871
X13121Y6871
X13621Y6871
X14121Y6871
X14121Y7371
X13621Y7371
X13121Y7371
X12621Y7371
X12621Y7871
X13121Y7871
X13621Y7871
X14121Y7871
X14121Y8371
X13621Y8371
X13121Y8371
X12621Y8371
X12621Y8871
X13121Y8871
X13621Y8871
X14121Y8871
X14121Y9371
X13621Y9371
X13121Y9371
X12621Y9371
X15621Y9371
X16121Y9371
X16621Y9371
X17121Y9371
X17121Y8871
X16621Y8871
X16121Y8871
X15621Y8871
X15621Y8371
X16121Y8371
X16621Y8371
X17121Y8371
X17121Y7871
X16621Y7871
X16121Y7871
X15621Y7871
X15621Y7371
X16121Y7371
X16621Y7371
X17121Y7371
X17121Y6871
X16621Y6871
X16121Y6871
X15621Y6871
X15621Y11371
X16121Y11371
X16121Y11871
X15621Y11871
X16121Y12371
X16121Y12871
X15621Y12871
X14121Y12871
X13621Y12871
X13621Y12371
X13621Y11871
X14121Y11871
X14121Y11371
X14621Y11371
X15121Y11371
X13621Y11371
X20121Y12371
X25121Y11371
X25121Y10871
X25121Y10371
X25121Y9871
X4621Y8871
T02
X3121Y7871
X8621Y7871
X8371Y4621
X7621Y4621
X6871Y4621
X2871Y4621
X2121Y4621
X1371Y4621
T03
X9621Y4871
X10621Y4871
X11621Y4871
X12621Y4871
X12621Y5871
X11621Y5871
X10621Y5871
X9621Y5871
X9621Y6871
X10621Y6871
X11621Y6871
X11621Y7871
X10621Y7871
X9621Y7871
X9621Y8871
X10621Y8871
X11621Y8871
X8621Y8871
X17121Y5871
X18121Y5871
X19121Y5871
X20121Y5871
X21121Y5871
X22121Y5871
X23121Y5871
X24121Y5871
X25121Y5871
X26121Y5871
X27121Y5871
X27121Y6871
X26121Y6871
X25121Y6871
X24121Y6871
X23121Y6871
X22121Y6871
X21121Y6871
X20121Y6871
X19121Y6871
X18121Y6871
X18121Y7871
X19121Y7871
X20121Y7871
X21121Y7871
X22121Y7871
X23121Y7871
X24121Y7871
X25121Y7871
X26121Y7871
X27121Y7871
X27121Y8871
X26121Y8871
X25121Y8871
X24121Y8871
X23121Y8871
X22121Y8871
X21121Y8871
X20121Y8871
X19121Y8871
X18121Y8871
X26121Y9871
X27121Y9871
X26121Y10871
X26121Y4871
X25121Y4871
X24121Y4871
X23121Y4871
X22121Y4871
X21121Y4871
X20121Y4871
X19121Y4871
X18121Y4871
X17121Y4871
X17121Y3871
X17121Y2871
X17121Y1871
X17121Y871
X12621Y871
X12621Y1871
X12621Y2871
X12621Y3871
X27121Y4871
T04
X15869Y5239
X13900Y5239
X14885Y12523
M30
