%
M48
M72
T01C0.0320
T02C0.0400
T03C0.0512
%
T01
X5156Y3180
X5156Y4180
X5156Y5180
X5156Y6180
X5156Y7180
X5156Y8180
X5156Y9180
X5156Y10180
X5156Y11180
X5156Y12180
X5156Y13180
X5156Y14180
X5156Y15180
X5156Y16180
X11156Y16180
X11156Y15180
X11156Y14180
X11156Y13180
X11156Y12180
X11156Y11180
X11156Y10180
X12148Y10175
X12148Y9175
X11156Y9180
X11156Y8180
X11156Y7180
X11156Y6180
X11156Y5180
X11156Y4180
X11156Y3180
X7453Y9215
X7453Y10215
X22156Y15680
X22156Y16680
T02
X9156Y18805
X9156Y19805
X8156Y19905
X7156Y19805
X7156Y18805
X8156Y18905
T03
X14156Y16680
X14156Y15680
X14156Y14680
X14156Y13680
X14156Y12680
X14156Y11680
X14156Y10680
X14156Y9680
X14156Y8680
X14156Y7680
X14156Y6680
X14156Y5680
X21156Y5680
X21156Y6680
X21156Y7680
X21156Y8680
X21156Y9680
X21156Y10680
X21156Y11680
X21156Y12680
X21156Y13680
X21156Y14680
X21156Y15680
X21156Y16680
M30
