G75*
G70*
%OFA0B0*%
%FSLAX24Y24*%
%IPPOS*%
%LPD*%
%AMOC8*
5,1,8,0,0,1.08239X$1,22.5*
%
%ADD10C,0.0000*%
%ADD11C,0.0080*%
D10*
X003656Y003649D02*
X003656Y019397D01*
X003658Y019491D01*
X003665Y019584D01*
X003676Y019677D01*
X003692Y019770D01*
X003712Y019861D01*
X003736Y019952D01*
X003764Y020041D01*
X003797Y020129D01*
X003834Y020215D01*
X003875Y020299D01*
X003920Y020382D01*
X003969Y020462D01*
X004021Y020539D01*
X004077Y020614D01*
X004137Y020686D01*
X004200Y020756D01*
X004266Y020822D01*
X004336Y020885D01*
X004408Y020945D01*
X004483Y021001D01*
X004560Y021053D01*
X004641Y021102D01*
X004723Y021147D01*
X004807Y021188D01*
X004893Y021225D01*
X004981Y021258D01*
X005070Y021286D01*
X005161Y021310D01*
X005252Y021330D01*
X005345Y021346D01*
X005438Y021357D01*
X005531Y021364D01*
X005625Y021366D01*
X005625Y021365D02*
X021373Y021365D01*
X021373Y021366D02*
X021467Y021364D01*
X021560Y021357D01*
X021653Y021346D01*
X021746Y021330D01*
X021837Y021310D01*
X021928Y021286D01*
X022017Y021258D01*
X022105Y021225D01*
X022191Y021188D01*
X022275Y021147D01*
X022358Y021102D01*
X022438Y021053D01*
X022515Y021001D01*
X022590Y020945D01*
X022662Y020885D01*
X022732Y020822D01*
X022798Y020756D01*
X022861Y020686D01*
X022921Y020614D01*
X022977Y020539D01*
X023029Y020462D01*
X023078Y020382D01*
X023123Y020299D01*
X023164Y020215D01*
X023201Y020129D01*
X023234Y020041D01*
X023262Y019952D01*
X023286Y019861D01*
X023306Y019770D01*
X023322Y019677D01*
X023333Y019584D01*
X023340Y019491D01*
X023342Y019397D01*
X023341Y019397D02*
X023341Y003649D01*
X023342Y003649D02*
X023340Y003555D01*
X023333Y003462D01*
X023322Y003369D01*
X023306Y003276D01*
X023286Y003185D01*
X023262Y003094D01*
X023234Y003005D01*
X023201Y002917D01*
X023164Y002831D01*
X023123Y002747D01*
X023078Y002665D01*
X023029Y002584D01*
X022977Y002507D01*
X022921Y002432D01*
X022861Y002360D01*
X022798Y002290D01*
X022732Y002224D01*
X022662Y002161D01*
X022590Y002101D01*
X022515Y002045D01*
X022438Y001993D01*
X022358Y001944D01*
X022275Y001899D01*
X022191Y001858D01*
X022105Y001821D01*
X022017Y001788D01*
X021928Y001760D01*
X021837Y001736D01*
X021746Y001716D01*
X021653Y001700D01*
X021560Y001689D01*
X021467Y001682D01*
X021373Y001680D01*
X005625Y001680D01*
X005528Y001682D01*
X005432Y001689D01*
X005336Y001701D01*
X005241Y001718D01*
X005147Y001739D01*
X005053Y001765D01*
X004962Y001795D01*
X004871Y001830D01*
X004783Y001869D01*
X004697Y001912D01*
X004613Y001960D01*
X004531Y002012D01*
X004452Y002067D01*
X004376Y002127D01*
X004303Y002190D01*
X004233Y002257D01*
X004166Y002327D01*
X004103Y002400D01*
X004043Y002476D01*
X003988Y002555D01*
X003936Y002637D01*
X003888Y002721D01*
X003845Y002807D01*
X003806Y002895D01*
X003771Y002986D01*
X003741Y003077D01*
X003715Y003171D01*
X003694Y003265D01*
X003677Y003360D01*
X003665Y003456D01*
X003658Y003552D01*
X003656Y003649D01*
D11*
X015880Y011063D02*
X015880Y011983D01*
X016187Y011676D01*
X016494Y011983D01*
X016494Y011063D01*
X016801Y011063D02*
X016801Y011676D01*
X017108Y011983D01*
X017415Y011676D01*
X017415Y011063D01*
X017722Y011063D02*
X018182Y011063D01*
X018336Y011216D01*
X018336Y011830D01*
X018182Y011983D01*
X017722Y011983D01*
X017722Y011063D01*
X017415Y011523D02*
X016801Y011523D01*
X016801Y012563D02*
X016341Y012563D01*
X016341Y013483D01*
X016801Y013483D01*
X016955Y013330D01*
X016955Y013176D01*
X016801Y013023D01*
X016341Y013023D01*
X016801Y013023D02*
X016955Y012869D01*
X016955Y012716D01*
X016801Y012563D01*
X017262Y012716D02*
X017415Y012563D01*
X017722Y012563D01*
X017875Y012716D01*
X017875Y013330D01*
X017722Y013483D01*
X017415Y013483D01*
X017262Y013330D01*
X017262Y012716D01*
X018182Y012563D02*
X018182Y013483D01*
X018643Y013483D01*
X018796Y013330D01*
X018796Y013176D01*
X018643Y013023D01*
X018182Y013023D01*
X018182Y012563D02*
X018643Y012563D01*
X018796Y012716D01*
X018796Y012869D01*
X018643Y013023D01*
X018643Y011983D02*
X018643Y011063D01*
X019257Y011063D01*
X018950Y011523D02*
X018643Y011523D01*
X018643Y011983D02*
X019257Y011983D01*
X018950Y010483D02*
X018643Y010483D01*
X018489Y010330D01*
X018489Y010176D01*
X018643Y010023D01*
X018950Y010023D01*
X019103Y009869D01*
X019103Y009716D01*
X018950Y009563D01*
X018643Y009563D01*
X018489Y009716D01*
X018182Y009563D02*
X017875Y009563D01*
X018029Y009563D02*
X018029Y010483D01*
X018182Y010483D02*
X017875Y010483D01*
X017569Y010483D02*
X017569Y009563D01*
X017569Y010023D02*
X016955Y010023D01*
X016955Y009563D02*
X016955Y010483D01*
X016648Y010483D02*
X016034Y010483D01*
X016341Y010483D02*
X016341Y009563D01*
X018950Y010483D02*
X019103Y010330D01*
M02*
