G75*
G70*
%OFA0B0*%
%FSLAX24Y24*%
%IPPOS*%
%LPD*%
%AMOC8*
5,1,8,0,0,1.08239X$1,22.5*
%
%ADD10C,0.0000*%
%ADD11C,0.0080*%
%ADD12OC8,0.0740*%
%ADD13C,0.0520*%
%ADD14R,0.0768X0.0768*%
%ADD15C,0.0768*%
%ADD16OC8,0.0520*%
%ADD17C,0.0160*%
D10*
X003656Y003649D02*
X003656Y019397D01*
X003658Y019491D01*
X003665Y019584D01*
X003676Y019677D01*
X003692Y019770D01*
X003712Y019861D01*
X003736Y019952D01*
X003764Y020041D01*
X003797Y020129D01*
X003834Y020215D01*
X003875Y020299D01*
X003920Y020382D01*
X003969Y020462D01*
X004021Y020539D01*
X004077Y020614D01*
X004137Y020686D01*
X004200Y020756D01*
X004266Y020822D01*
X004336Y020885D01*
X004408Y020945D01*
X004483Y021001D01*
X004560Y021053D01*
X004641Y021102D01*
X004723Y021147D01*
X004807Y021188D01*
X004893Y021225D01*
X004981Y021258D01*
X005070Y021286D01*
X005161Y021310D01*
X005252Y021330D01*
X005345Y021346D01*
X005438Y021357D01*
X005531Y021364D01*
X005625Y021366D01*
X005625Y021365D02*
X021373Y021365D01*
X021373Y021366D02*
X021467Y021364D01*
X021560Y021357D01*
X021653Y021346D01*
X021746Y021330D01*
X021837Y021310D01*
X021928Y021286D01*
X022017Y021258D01*
X022105Y021225D01*
X022191Y021188D01*
X022275Y021147D01*
X022358Y021102D01*
X022438Y021053D01*
X022515Y021001D01*
X022590Y020945D01*
X022662Y020885D01*
X022732Y020822D01*
X022798Y020756D01*
X022861Y020686D01*
X022921Y020614D01*
X022977Y020539D01*
X023029Y020462D01*
X023078Y020382D01*
X023123Y020299D01*
X023164Y020215D01*
X023201Y020129D01*
X023234Y020041D01*
X023262Y019952D01*
X023286Y019861D01*
X023306Y019770D01*
X023322Y019677D01*
X023333Y019584D01*
X023340Y019491D01*
X023342Y019397D01*
X023341Y019397D02*
X023341Y003649D01*
X023342Y003649D02*
X023340Y003555D01*
X023333Y003462D01*
X023322Y003369D01*
X023306Y003276D01*
X023286Y003185D01*
X023262Y003094D01*
X023234Y003005D01*
X023201Y002917D01*
X023164Y002831D01*
X023123Y002747D01*
X023078Y002665D01*
X023029Y002584D01*
X022977Y002507D01*
X022921Y002432D01*
X022861Y002360D01*
X022798Y002290D01*
X022732Y002224D01*
X022662Y002161D01*
X022590Y002101D01*
X022515Y002045D01*
X022438Y001993D01*
X022358Y001944D01*
X022275Y001899D01*
X022191Y001858D01*
X022105Y001821D01*
X022017Y001788D01*
X021928Y001760D01*
X021837Y001736D01*
X021746Y001716D01*
X021653Y001700D01*
X021560Y001689D01*
X021467Y001682D01*
X021373Y001680D01*
X005625Y001680D01*
X005528Y001682D01*
X005432Y001689D01*
X005336Y001701D01*
X005241Y001718D01*
X005147Y001739D01*
X005053Y001765D01*
X004962Y001795D01*
X004871Y001830D01*
X004783Y001869D01*
X004697Y001912D01*
X004613Y001960D01*
X004531Y002012D01*
X004452Y002067D01*
X004376Y002127D01*
X004303Y002190D01*
X004233Y002257D01*
X004166Y002327D01*
X004103Y002400D01*
X004043Y002476D01*
X003988Y002555D01*
X003936Y002637D01*
X003888Y002721D01*
X003845Y002807D01*
X003806Y002895D01*
X003771Y002986D01*
X003741Y003077D01*
X003715Y003171D01*
X003694Y003265D01*
X003677Y003360D01*
X003665Y003456D01*
X003658Y003552D01*
X003656Y003649D01*
D11*
X015880Y011063D02*
X015880Y011983D01*
X016187Y011676D01*
X016494Y011983D01*
X016494Y011063D01*
X016801Y011063D02*
X016801Y011676D01*
X017108Y011983D01*
X017415Y011676D01*
X017415Y011063D01*
X017722Y011063D02*
X018182Y011063D01*
X018336Y011216D01*
X018336Y011830D01*
X018182Y011983D01*
X017722Y011983D01*
X017722Y011063D01*
X017415Y011523D02*
X016801Y011523D01*
X016801Y012563D02*
X016341Y012563D01*
X016341Y013483D01*
X016801Y013483D01*
X016955Y013330D01*
X016955Y013176D01*
X016801Y013023D01*
X016341Y013023D01*
X016801Y013023D02*
X016955Y012869D01*
X016955Y012716D01*
X016801Y012563D01*
X017262Y012716D02*
X017415Y012563D01*
X017722Y012563D01*
X017875Y012716D01*
X017875Y013330D01*
X017722Y013483D01*
X017415Y013483D01*
X017262Y013330D01*
X017262Y012716D01*
X018182Y012563D02*
X018182Y013483D01*
X018643Y013483D01*
X018796Y013330D01*
X018796Y013176D01*
X018643Y013023D01*
X018182Y013023D01*
X018182Y012563D02*
X018643Y012563D01*
X018796Y012716D01*
X018796Y012869D01*
X018643Y013023D01*
X018643Y011983D02*
X018643Y011063D01*
X019257Y011063D01*
X018950Y011523D02*
X018643Y011523D01*
X018643Y011983D02*
X019257Y011983D01*
X018950Y010483D02*
X018643Y010483D01*
X018489Y010330D01*
X018489Y010176D01*
X018643Y010023D01*
X018950Y010023D01*
X019103Y009869D01*
X019103Y009716D01*
X018950Y009563D01*
X018643Y009563D01*
X018489Y009716D01*
X018182Y009563D02*
X017875Y009563D01*
X018029Y009563D02*
X018029Y010483D01*
X018182Y010483D02*
X017875Y010483D01*
X017569Y010483D02*
X017569Y009563D01*
X017569Y010023D02*
X016955Y010023D01*
X016955Y009563D02*
X016955Y010483D01*
X016648Y010483D02*
X016034Y010483D01*
X016341Y010483D02*
X016341Y009563D01*
X018950Y010483D02*
X019103Y010330D01*
D12*
X009156Y018805D03*
X009156Y019805D03*
X008156Y019905D03*
X007156Y019805D03*
X007156Y018805D03*
X008156Y018905D03*
D13*
X005416Y016180D02*
X004896Y016180D01*
X004896Y015180D02*
X005416Y015180D01*
X005416Y014180D02*
X004896Y014180D01*
X004896Y013180D02*
X005416Y013180D01*
X005416Y012180D02*
X004896Y012180D01*
X004896Y011180D02*
X005416Y011180D01*
X005416Y010180D02*
X004896Y010180D01*
X004896Y009180D02*
X005416Y009180D01*
X005416Y008180D02*
X004896Y008180D01*
X004896Y007180D02*
X005416Y007180D01*
X005416Y006180D02*
X004896Y006180D01*
X004896Y005180D02*
X005416Y005180D01*
X005416Y004180D02*
X004896Y004180D01*
X004896Y003180D02*
X005416Y003180D01*
X010896Y003180D02*
X011416Y003180D01*
X011416Y004180D02*
X010896Y004180D01*
X010896Y005180D02*
X011416Y005180D01*
X011416Y006180D02*
X010896Y006180D01*
X010896Y007180D02*
X011416Y007180D01*
X011416Y008180D02*
X010896Y008180D01*
X010896Y009180D02*
X011416Y009180D01*
X011416Y010180D02*
X010896Y010180D01*
X010896Y011180D02*
X011416Y011180D01*
X011416Y012180D02*
X010896Y012180D01*
X010896Y013180D02*
X011416Y013180D01*
X011416Y014180D02*
X010896Y014180D01*
X010896Y015180D02*
X011416Y015180D01*
X011416Y016180D02*
X010896Y016180D01*
D14*
X014156Y016680D03*
D15*
X014156Y015680D03*
X014156Y014680D03*
X014156Y013680D03*
X014156Y012680D03*
X014156Y011680D03*
X014156Y010680D03*
X014156Y009680D03*
X014156Y008680D03*
X014156Y007680D03*
X014156Y006680D03*
X014156Y005680D03*
X021156Y005680D03*
X021156Y006680D03*
X021156Y007680D03*
X021156Y008680D03*
X021156Y009680D03*
X021156Y010680D03*
X021156Y011680D03*
X021156Y012680D03*
X021156Y013680D03*
X021156Y014680D03*
X021156Y015680D03*
X021156Y016680D03*
D16*
X022156Y016680D03*
X022156Y015680D03*
X012148Y010175D03*
X012148Y009175D03*
X007453Y009215D03*
X007453Y010215D03*
D17*
X007453Y009775D01*
X007635Y009775D01*
X007893Y010033D01*
X007893Y010215D01*
X007453Y010215D01*
X007453Y010215D01*
X007453Y010215D01*
X007453Y009775D01*
X007270Y009775D01*
X007013Y010033D01*
X007013Y010215D01*
X007453Y010215D01*
X007893Y010215D01*
X007893Y010398D01*
X007635Y010655D01*
X007453Y010655D01*
X007453Y010215D01*
X007453Y010215D01*
X007453Y010215D01*
X007013Y010215D01*
X007013Y010398D01*
X007270Y010655D01*
X007453Y010655D01*
X007453Y010215D01*
X007453Y010239D02*
X007453Y010239D01*
X007453Y010081D02*
X007453Y010081D01*
X007453Y009922D02*
X007453Y009922D01*
X007781Y009922D02*
X008916Y009922D01*
X008916Y009764D02*
X006912Y009764D01*
X006754Y009922D02*
X007124Y009922D01*
X007013Y010081D02*
X006595Y010081D01*
X006437Y010239D02*
X007013Y010239D01*
X007013Y010398D02*
X006258Y010398D01*
X006292Y010383D02*
X006204Y010420D01*
X005770Y010420D01*
X005654Y010536D01*
X005500Y010600D01*
X004813Y010600D01*
X004658Y010536D01*
X004540Y010418D01*
X004476Y010264D01*
X004476Y010096D01*
X004540Y009942D01*
X004658Y009824D01*
X004813Y009760D01*
X005500Y009760D01*
X005654Y009824D01*
X005770Y009940D01*
X006057Y009940D01*
X006953Y009044D01*
X007020Y008977D01*
X007109Y008940D01*
X007134Y008940D01*
X007279Y008795D01*
X007627Y008795D01*
X007771Y008940D01*
X010542Y008940D01*
X010658Y008824D01*
X010813Y008760D01*
X011500Y008760D01*
X011654Y008824D01*
X011772Y008942D01*
X011777Y008952D01*
X011974Y008755D01*
X012322Y008755D01*
X012568Y009001D01*
X012568Y009349D01*
X012322Y009595D01*
X011974Y009595D01*
X011779Y009401D01*
X011772Y009418D01*
X011654Y009536D01*
X011500Y009600D01*
X010813Y009600D01*
X010658Y009536D01*
X010542Y009420D01*
X009396Y009420D01*
X009396Y018295D01*
X009686Y018585D01*
X009686Y019025D01*
X009406Y019305D01*
X009686Y019585D01*
X009686Y020025D01*
X009376Y020335D01*
X008937Y020335D01*
X008686Y020085D01*
X008686Y020125D01*
X008376Y020435D01*
X007937Y020435D01*
X007626Y020125D01*
X007626Y020085D01*
X007376Y020335D01*
X006937Y020335D01*
X006626Y020025D01*
X006626Y019585D01*
X006893Y019319D01*
X006606Y019033D01*
X006606Y018825D01*
X007136Y018825D01*
X007136Y018785D01*
X006606Y018785D01*
X006606Y018577D01*
X006929Y018255D01*
X007136Y018255D01*
X007136Y018785D01*
X007176Y018785D01*
X007176Y018255D01*
X007384Y018255D01*
X007706Y018577D01*
X007706Y018605D01*
X007937Y018375D01*
X008376Y018375D01*
X008626Y018625D01*
X008626Y018585D01*
X008916Y018295D01*
X008916Y009420D01*
X007842Y009420D01*
X007627Y009635D01*
X007279Y009635D01*
X007160Y009516D01*
X006360Y010316D01*
X006292Y010383D01*
X006156Y010180D02*
X005156Y010180D01*
X004804Y009764D02*
X004136Y009764D01*
X004136Y009922D02*
X004560Y009922D01*
X004483Y010081D02*
X004136Y010081D01*
X004136Y010239D02*
X004476Y010239D01*
X004532Y010398D02*
X004136Y010398D01*
X004136Y010556D02*
X004707Y010556D01*
X004813Y010760D02*
X004658Y010824D01*
X004540Y010942D01*
X004476Y011096D01*
X004476Y011264D01*
X004540Y011418D01*
X004658Y011536D01*
X004813Y011600D01*
X005500Y011600D01*
X005654Y011536D01*
X005772Y011418D01*
X005836Y011264D01*
X005836Y011096D01*
X005772Y010942D01*
X005654Y010824D01*
X005500Y010760D01*
X004813Y010760D01*
X004609Y010873D02*
X004136Y010873D01*
X004136Y010715D02*
X008916Y010715D01*
X008916Y010873D02*
X005703Y010873D01*
X005810Y011032D02*
X008916Y011032D01*
X008916Y011190D02*
X005836Y011190D01*
X005801Y011349D02*
X008916Y011349D01*
X008916Y011507D02*
X005683Y011507D01*
X005500Y011760D02*
X005654Y011824D01*
X005772Y011942D01*
X005836Y012096D01*
X005836Y012264D01*
X005772Y012418D01*
X005654Y012536D01*
X005500Y012600D01*
X004813Y012600D01*
X004658Y012536D01*
X004540Y012418D01*
X004476Y012264D01*
X004476Y012096D01*
X004540Y011942D01*
X004658Y011824D01*
X004136Y011824D01*
X004136Y011666D02*
X008916Y011666D01*
X008916Y011824D02*
X005654Y011824D01*
X005500Y011760D02*
X004813Y011760D01*
X004658Y011824D01*
X004524Y011983D02*
X004136Y011983D01*
X004136Y012141D02*
X004476Y012141D01*
X004491Y012300D02*
X004136Y012300D01*
X004136Y012458D02*
X004580Y012458D01*
X004777Y012775D02*
X004136Y012775D01*
X004136Y012617D02*
X008916Y012617D01*
X008916Y012775D02*
X005536Y012775D01*
X005500Y012760D02*
X005654Y012824D01*
X005772Y012942D01*
X005836Y013096D01*
X005836Y013264D01*
X005772Y013418D01*
X005654Y013536D01*
X005500Y013600D01*
X004813Y013600D01*
X004658Y013536D01*
X004540Y013418D01*
X004476Y013264D01*
X004476Y013096D01*
X004540Y012942D01*
X004658Y012824D01*
X004813Y012760D01*
X005500Y012760D01*
X005764Y012934D02*
X008916Y012934D01*
X008916Y013092D02*
X005835Y013092D01*
X005836Y013251D02*
X008916Y013251D01*
X008916Y013409D02*
X005776Y013409D01*
X005578Y013568D02*
X008916Y013568D01*
X008916Y013726D02*
X004136Y013726D01*
X004136Y013568D02*
X004734Y013568D01*
X004813Y013760D02*
X004658Y013824D01*
X004540Y013942D01*
X004476Y014096D01*
X004476Y014264D01*
X004540Y014418D01*
X004658Y014536D01*
X004813Y014600D01*
X005500Y014600D01*
X005654Y014536D01*
X005772Y014418D01*
X005836Y014264D01*
X005836Y014096D01*
X005772Y013942D01*
X005654Y013824D01*
X005500Y013760D01*
X004813Y013760D01*
X004598Y013885D02*
X004136Y013885D01*
X004136Y014043D02*
X004499Y014043D01*
X004476Y014202D02*
X004136Y014202D01*
X004136Y014360D02*
X004516Y014360D01*
X004641Y014519D02*
X004136Y014519D01*
X004136Y014677D02*
X008916Y014677D01*
X008916Y014519D02*
X005672Y014519D01*
X005796Y014360D02*
X008916Y014360D01*
X008916Y014202D02*
X005836Y014202D01*
X005814Y014043D02*
X008916Y014043D01*
X008916Y013885D02*
X005715Y013885D01*
X005500Y014760D02*
X004813Y014760D01*
X004658Y014824D01*
X004540Y014942D01*
X004476Y015096D01*
X004476Y015264D01*
X004540Y015418D01*
X004658Y015536D01*
X004813Y015600D01*
X005500Y015600D01*
X005654Y015536D01*
X005772Y015418D01*
X005836Y015264D01*
X005836Y015096D01*
X005772Y014942D01*
X005654Y014824D01*
X005500Y014760D01*
X005666Y014836D02*
X008916Y014836D01*
X008916Y014994D02*
X005794Y014994D01*
X005836Y015153D02*
X008916Y015153D01*
X008916Y015311D02*
X005817Y015311D01*
X005721Y015470D02*
X008916Y015470D01*
X008916Y015628D02*
X004136Y015628D01*
X004136Y015470D02*
X004592Y015470D01*
X004496Y015311D02*
X004136Y015311D01*
X004136Y015153D02*
X004476Y015153D01*
X004519Y014994D02*
X004136Y014994D01*
X004136Y014836D02*
X004647Y014836D01*
X004813Y015760D02*
X004658Y015824D01*
X004540Y015942D01*
X004476Y016096D01*
X004476Y016264D01*
X004540Y016418D01*
X004658Y016536D01*
X004813Y016600D01*
X005500Y016600D01*
X005654Y016536D01*
X005772Y016418D01*
X005836Y016264D01*
X005836Y016096D01*
X005772Y015942D01*
X005654Y015824D01*
X005500Y015760D01*
X004813Y015760D01*
X004749Y015787D02*
X004136Y015787D01*
X004136Y015945D02*
X004539Y015945D01*
X004476Y016104D02*
X004136Y016104D01*
X004136Y016262D02*
X004476Y016262D01*
X004543Y016421D02*
X004136Y016421D01*
X004136Y016579D02*
X004762Y016579D01*
X004136Y016738D02*
X008916Y016738D01*
X008916Y016896D02*
X004136Y016896D01*
X004136Y017055D02*
X008916Y017055D01*
X008916Y017213D02*
X004136Y017213D01*
X004136Y017372D02*
X008916Y017372D01*
X008916Y017530D02*
X004136Y017530D01*
X004136Y017689D02*
X008916Y017689D01*
X008916Y017847D02*
X004136Y017847D01*
X004136Y018006D02*
X008916Y018006D01*
X008916Y018164D02*
X004136Y018164D01*
X004136Y018323D02*
X006861Y018323D01*
X006703Y018481D02*
X004136Y018481D01*
X004136Y018640D02*
X006606Y018640D01*
X006606Y018957D02*
X004136Y018957D01*
X004136Y019115D02*
X006689Y019115D01*
X006847Y019274D02*
X004136Y019274D01*
X004136Y019397D02*
X004146Y019563D01*
X004220Y019888D01*
X004365Y020188D01*
X004572Y020449D01*
X004833Y020657D01*
X005133Y020802D01*
X005458Y020876D01*
X005625Y020885D01*
X021373Y020885D01*
X021540Y020876D01*
X021865Y020802D01*
X022165Y020657D01*
X022425Y020449D01*
X022633Y020188D01*
X022778Y019888D01*
X022852Y019563D01*
X022861Y019397D01*
X022861Y003649D01*
X022852Y003482D01*
X022778Y003157D01*
X022633Y002857D01*
X022425Y002596D01*
X022165Y002388D01*
X021865Y002244D01*
X021540Y002169D01*
X021373Y002160D01*
X021277Y002160D01*
X005625Y002160D01*
X005458Y002169D01*
X005133Y002244D01*
X004833Y002388D01*
X004572Y002596D01*
X004365Y002857D01*
X004220Y003157D01*
X004146Y003482D01*
X004136Y003649D01*
X004136Y019397D01*
X004138Y019432D02*
X006780Y019432D01*
X006626Y019591D02*
X004152Y019591D01*
X004188Y019749D02*
X006626Y019749D01*
X006626Y019908D02*
X004229Y019908D01*
X004306Y020066D02*
X006668Y020066D01*
X006826Y020225D02*
X004393Y020225D01*
X004520Y020383D02*
X007885Y020383D01*
X007726Y020225D02*
X007486Y020225D01*
X008428Y020383D02*
X022478Y020383D01*
X022605Y020225D02*
X009486Y020225D01*
X009645Y020066D02*
X022692Y020066D01*
X022769Y019908D02*
X009686Y019908D01*
X009686Y019749D02*
X022810Y019749D01*
X022846Y019591D02*
X009686Y019591D01*
X009533Y019432D02*
X022859Y019432D01*
X022861Y019274D02*
X009437Y019274D01*
X009596Y019115D02*
X022861Y019115D01*
X022861Y018957D02*
X009686Y018957D01*
X009686Y018798D02*
X022861Y018798D01*
X022861Y018640D02*
X009686Y018640D01*
X009582Y018481D02*
X022861Y018481D01*
X022861Y018323D02*
X009423Y018323D01*
X009396Y018164D02*
X022861Y018164D01*
X022861Y018006D02*
X009396Y018006D01*
X009396Y017847D02*
X022861Y017847D01*
X022861Y017689D02*
X009396Y017689D01*
X009396Y017530D02*
X022861Y017530D01*
X022861Y017372D02*
X009396Y017372D01*
X009396Y017213D02*
X013695Y017213D01*
X013706Y017224D02*
X013613Y017130D01*
X013613Y016230D01*
X013706Y016136D01*
X013843Y016136D01*
X013695Y015988D01*
X013613Y015788D01*
X013613Y015572D01*
X013695Y015372D01*
X013848Y015219D01*
X013942Y015180D01*
X013848Y015141D01*
X013695Y014988D01*
X013613Y014788D01*
X013613Y014572D01*
X013695Y014372D01*
X013848Y014219D01*
X013942Y014180D01*
X013848Y014141D01*
X013695Y013988D01*
X013613Y013788D01*
X013613Y013572D01*
X013695Y013372D01*
X013848Y013219D01*
X013942Y013180D01*
X013848Y013141D01*
X013695Y012988D01*
X013613Y012788D01*
X013613Y012572D01*
X013695Y012372D01*
X013848Y012219D01*
X013942Y012180D01*
X013848Y012141D01*
X011836Y012141D01*
X011836Y012096D02*
X011836Y012264D01*
X011772Y012418D01*
X011654Y012536D01*
X011500Y012600D01*
X010813Y012600D01*
X010658Y012536D01*
X010540Y012418D01*
X010476Y012264D01*
X010476Y012096D01*
X010540Y011942D01*
X010658Y011824D01*
X009396Y011824D01*
X009396Y011666D02*
X013613Y011666D01*
X013613Y011572D02*
X013613Y011788D01*
X013695Y011988D01*
X013848Y012141D01*
X013768Y012300D02*
X011822Y012300D01*
X011732Y012458D02*
X013660Y012458D01*
X013613Y012617D02*
X009396Y012617D01*
X009396Y012775D02*
X010777Y012775D01*
X010813Y012760D02*
X011500Y012760D01*
X011654Y012824D01*
X011772Y012942D01*
X011836Y013096D01*
X011836Y013264D01*
X011772Y013418D01*
X011654Y013536D01*
X011500Y013600D01*
X010813Y013600D01*
X010658Y013536D01*
X010540Y013418D01*
X010476Y013264D01*
X010476Y013096D01*
X010540Y012942D01*
X010658Y012824D01*
X010813Y012760D01*
X010549Y012934D02*
X009396Y012934D01*
X009396Y013092D02*
X010478Y013092D01*
X010476Y013251D02*
X009396Y013251D01*
X009396Y013409D02*
X010537Y013409D01*
X010734Y013568D02*
X009396Y013568D01*
X009396Y013726D02*
X013613Y013726D01*
X013614Y013568D02*
X011578Y013568D01*
X011500Y013760D02*
X011654Y013824D01*
X011772Y013942D01*
X011836Y014096D01*
X011836Y014264D01*
X011772Y014418D01*
X011654Y014536D01*
X011500Y014600D01*
X010813Y014600D01*
X010658Y014536D01*
X010540Y014418D01*
X010476Y014264D01*
X010476Y014096D01*
X010540Y013942D01*
X010658Y013824D01*
X010813Y013760D01*
X011500Y013760D01*
X011715Y013885D02*
X013652Y013885D01*
X013750Y014043D02*
X011814Y014043D01*
X011836Y014202D02*
X013890Y014202D01*
X013707Y014360D02*
X011796Y014360D01*
X011672Y014519D02*
X013635Y014519D01*
X013613Y014677D02*
X009396Y014677D01*
X009396Y014519D02*
X010641Y014519D01*
X010516Y014360D02*
X009396Y014360D01*
X009396Y014202D02*
X010476Y014202D01*
X010499Y014043D02*
X009396Y014043D01*
X009396Y013885D02*
X010598Y013885D01*
X010813Y014760D02*
X010658Y014824D01*
X010540Y014942D01*
X010476Y015096D01*
X010476Y015264D01*
X010540Y015418D01*
X010658Y015536D01*
X010813Y015600D01*
X011500Y015600D01*
X011654Y015536D01*
X011772Y015418D01*
X011836Y015264D01*
X011836Y015096D01*
X011772Y014942D01*
X011654Y014824D01*
X011500Y014760D01*
X010813Y014760D01*
X010647Y014836D02*
X009396Y014836D01*
X009396Y014994D02*
X010519Y014994D01*
X010476Y015153D02*
X009396Y015153D01*
X009396Y015311D02*
X010496Y015311D01*
X010592Y015470D02*
X009396Y015470D01*
X009396Y015628D02*
X013613Y015628D01*
X013613Y015787D02*
X011564Y015787D01*
X011500Y015760D02*
X011654Y015824D01*
X011772Y015942D01*
X011836Y016096D01*
X011836Y016264D01*
X011772Y016418D01*
X011654Y016536D01*
X011500Y016600D01*
X010813Y016600D01*
X010658Y016536D01*
X010540Y016418D01*
X010476Y016264D01*
X010476Y016096D01*
X010540Y015942D01*
X010658Y015824D01*
X010813Y015760D01*
X011500Y015760D01*
X011774Y015945D02*
X013678Y015945D01*
X013811Y016104D02*
X011836Y016104D01*
X011836Y016262D02*
X013613Y016262D01*
X013613Y016421D02*
X011770Y016421D01*
X011551Y016579D02*
X013613Y016579D01*
X013613Y016738D02*
X009396Y016738D01*
X009396Y016896D02*
X013613Y016896D01*
X013613Y017055D02*
X009396Y017055D01*
X009396Y016579D02*
X010762Y016579D01*
X010543Y016421D02*
X009396Y016421D01*
X009396Y016262D02*
X010476Y016262D01*
X010476Y016104D02*
X009396Y016104D01*
X009396Y015945D02*
X010539Y015945D01*
X010749Y015787D02*
X009396Y015787D01*
X008916Y015787D02*
X005564Y015787D01*
X005774Y015945D02*
X008916Y015945D01*
X008916Y016104D02*
X005836Y016104D01*
X005836Y016262D02*
X008916Y016262D01*
X008916Y016421D02*
X005770Y016421D01*
X005551Y016579D02*
X008916Y016579D01*
X008889Y018323D02*
X007452Y018323D01*
X007610Y018481D02*
X007831Y018481D01*
X008482Y018481D02*
X008731Y018481D01*
X009156Y018805D02*
X009156Y009180D01*
X007156Y009180D01*
X006156Y010180D01*
X006075Y009922D02*
X005752Y009922D01*
X005508Y009764D02*
X006233Y009764D01*
X006392Y009605D02*
X005532Y009605D01*
X005519Y009609D02*
X005451Y009620D01*
X005156Y009620D01*
X004862Y009620D01*
X004793Y009609D01*
X004728Y009588D01*
X004666Y009556D01*
X004610Y009516D01*
X004561Y009467D01*
X004520Y009411D01*
X004489Y009349D01*
X004467Y009283D01*
X004456Y009215D01*
X004456Y009180D01*
X004456Y009145D01*
X004467Y009077D01*
X004489Y009011D01*
X004520Y008949D01*
X004561Y008893D01*
X004610Y008844D01*
X004666Y008804D01*
X004728Y008772D01*
X004793Y008751D01*
X004862Y008740D01*
X005156Y008740D01*
X005156Y009180D01*
X004456Y009180D01*
X005156Y009180D01*
X005156Y009180D01*
X005156Y009180D01*
X005156Y009620D01*
X005156Y009180D01*
X005156Y009180D01*
X005156Y008740D01*
X005451Y008740D01*
X005519Y008751D01*
X005585Y008772D01*
X005647Y008804D01*
X005703Y008844D01*
X005752Y008893D01*
X005793Y008949D01*
X005824Y009011D01*
X005846Y009077D01*
X005856Y009145D01*
X005856Y009180D01*
X005156Y009180D01*
X005856Y009180D01*
X005856Y009215D01*
X005846Y009283D01*
X005824Y009349D01*
X005793Y009411D01*
X005752Y009467D01*
X005703Y009516D01*
X005647Y009556D01*
X005585Y009588D01*
X005519Y009609D01*
X005767Y009447D02*
X006550Y009447D01*
X006709Y009288D02*
X005844Y009288D01*
X005854Y009130D02*
X006867Y009130D01*
X007034Y008971D02*
X005804Y008971D01*
X005659Y008813D02*
X007262Y008813D01*
X007644Y008813D02*
X010686Y008813D01*
X010813Y008600D02*
X010658Y008536D01*
X010540Y008418D01*
X010476Y008264D01*
X010476Y008096D01*
X010540Y007942D01*
X010658Y007824D01*
X010813Y007760D01*
X011500Y007760D01*
X011654Y007824D01*
X011772Y007942D01*
X011836Y008096D01*
X011836Y008264D01*
X011772Y008418D01*
X011654Y008536D01*
X011500Y008600D01*
X010813Y008600D01*
X010618Y008496D02*
X005695Y008496D01*
X005654Y008536D02*
X005500Y008600D01*
X004813Y008600D01*
X004658Y008536D01*
X004540Y008418D01*
X004476Y008264D01*
X004476Y008096D01*
X004540Y007942D01*
X004658Y007824D01*
X004813Y007760D01*
X005500Y007760D01*
X005654Y007824D01*
X005772Y007942D01*
X005836Y008096D01*
X005836Y008264D01*
X005772Y008418D01*
X005654Y008536D01*
X005806Y008337D02*
X010507Y008337D01*
X010476Y008179D02*
X005836Y008179D01*
X005805Y008020D02*
X010508Y008020D01*
X010621Y007862D02*
X005692Y007862D01*
X005634Y007545D02*
X010679Y007545D01*
X010658Y007536D02*
X010540Y007418D01*
X010476Y007264D01*
X010476Y007096D01*
X010540Y006942D01*
X010658Y006824D01*
X010813Y006760D01*
X011500Y006760D01*
X011654Y006824D01*
X011772Y006942D01*
X011836Y007096D01*
X011836Y007264D01*
X011772Y007418D01*
X011654Y007536D01*
X011500Y007600D01*
X010813Y007600D01*
X010658Y007536D01*
X010527Y007386D02*
X005786Y007386D01*
X005772Y007418D02*
X005654Y007536D01*
X005500Y007600D01*
X004813Y007600D01*
X004658Y007536D01*
X004540Y007418D01*
X004476Y007264D01*
X004476Y007096D01*
X004540Y006942D01*
X004658Y006824D01*
X004813Y006760D01*
X005500Y006760D01*
X005654Y006824D01*
X005772Y006942D01*
X005836Y007096D01*
X005836Y007264D01*
X005772Y007418D01*
X005836Y007228D02*
X010476Y007228D01*
X010488Y007069D02*
X005825Y007069D01*
X005741Y006911D02*
X010572Y006911D01*
X010658Y006536D02*
X010540Y006418D01*
X010476Y006264D01*
X010476Y006096D01*
X010540Y005942D01*
X010658Y005824D01*
X010813Y005760D01*
X011500Y005760D01*
X011654Y005824D01*
X011772Y005942D01*
X011836Y006096D01*
X011836Y006264D01*
X011772Y006418D01*
X011654Y006536D01*
X011500Y006600D01*
X010813Y006600D01*
X010658Y006536D01*
X010557Y006435D02*
X005755Y006435D01*
X005772Y006418D02*
X005654Y006536D01*
X005500Y006600D01*
X004813Y006600D01*
X004658Y006536D01*
X004540Y006418D01*
X004476Y006264D01*
X004476Y006096D01*
X004540Y005942D01*
X004658Y005824D01*
X004813Y005760D01*
X005500Y005760D01*
X005654Y005824D01*
X005772Y005942D01*
X005836Y006096D01*
X005836Y006264D01*
X005772Y006418D01*
X005831Y006277D02*
X010482Y006277D01*
X010476Y006118D02*
X005836Y006118D01*
X005780Y005960D02*
X010533Y005960D01*
X010714Y005801D02*
X005599Y005801D01*
X005500Y005600D02*
X005654Y005536D01*
X005772Y005418D01*
X005836Y005264D01*
X005836Y005096D01*
X005772Y004942D01*
X005654Y004824D01*
X005500Y004760D01*
X004813Y004760D01*
X004658Y004824D01*
X004540Y004942D01*
X004476Y005096D01*
X004476Y005264D01*
X004540Y005418D01*
X004658Y005536D01*
X004813Y005600D01*
X005500Y005600D01*
X005706Y005484D02*
X010606Y005484D01*
X010658Y005536D02*
X010540Y005418D01*
X010476Y005264D01*
X010476Y005096D01*
X010540Y004942D01*
X010658Y004824D01*
X010813Y004760D01*
X011500Y004760D01*
X011654Y004824D01*
X011772Y004942D01*
X011836Y005096D01*
X011836Y005264D01*
X011772Y005418D01*
X011654Y005536D01*
X011500Y005600D01*
X010813Y005600D01*
X010658Y005536D01*
X010502Y005326D02*
X005811Y005326D01*
X005836Y005167D02*
X010476Y005167D01*
X010513Y005009D02*
X005800Y005009D01*
X005680Y004850D02*
X010632Y004850D01*
X010813Y004600D02*
X010658Y004536D01*
X010540Y004418D01*
X010476Y004264D01*
X010476Y004096D01*
X010540Y003942D01*
X010658Y003824D01*
X010813Y003760D01*
X011500Y003760D01*
X011654Y003824D01*
X011772Y003942D01*
X011836Y004096D01*
X011836Y004264D01*
X011772Y004418D01*
X011654Y004536D01*
X011500Y004600D01*
X010813Y004600D01*
X010655Y004533D02*
X005657Y004533D01*
X005654Y004536D02*
X005500Y004600D01*
X004813Y004600D01*
X004658Y004536D01*
X004540Y004418D01*
X004476Y004264D01*
X004476Y004096D01*
X004540Y003942D01*
X004658Y003824D01*
X004813Y003760D01*
X005500Y003760D01*
X005654Y003824D01*
X005772Y003942D01*
X005836Y004096D01*
X005836Y004264D01*
X005772Y004418D01*
X005654Y004536D01*
X005790Y004375D02*
X010522Y004375D01*
X010476Y004216D02*
X005836Y004216D01*
X005820Y004058D02*
X010493Y004058D01*
X010583Y003899D02*
X005729Y003899D01*
X005543Y003582D02*
X010769Y003582D01*
X010813Y003600D02*
X010658Y003536D01*
X010540Y003418D01*
X010476Y003264D01*
X010476Y003096D01*
X010540Y002942D01*
X010658Y002824D01*
X010813Y002760D01*
X011500Y002760D01*
X011654Y002824D01*
X011772Y002942D01*
X011836Y003096D01*
X011836Y003264D01*
X011772Y003418D01*
X011654Y003536D01*
X011500Y003600D01*
X010813Y003600D01*
X010546Y003424D02*
X005767Y003424D01*
X005772Y003418D02*
X005654Y003536D01*
X005500Y003600D01*
X004813Y003600D01*
X004658Y003536D01*
X004540Y003418D01*
X004476Y003264D01*
X004476Y003096D01*
X004540Y002942D01*
X004658Y002824D01*
X004813Y002760D01*
X005500Y002760D01*
X005654Y002824D01*
X005772Y002942D01*
X005836Y003096D01*
X005836Y003264D01*
X005772Y003418D01*
X005836Y003265D02*
X010477Y003265D01*
X010476Y003107D02*
X005836Y003107D01*
X005775Y002948D02*
X010538Y002948D01*
X010742Y002790D02*
X005571Y002790D01*
X004987Y002314D02*
X022011Y002314D01*
X022271Y002473D02*
X004727Y002473D01*
X004544Y002631D02*
X022453Y002631D01*
X022580Y002790D02*
X011571Y002790D01*
X011775Y002948D02*
X022677Y002948D01*
X022754Y003107D02*
X011836Y003107D01*
X011836Y003265D02*
X022803Y003265D01*
X022839Y003424D02*
X011767Y003424D01*
X011543Y003582D02*
X022858Y003582D01*
X022861Y003741D02*
X004136Y003741D01*
X004136Y003899D02*
X004583Y003899D01*
X004493Y004058D02*
X004136Y004058D01*
X004136Y004216D02*
X004476Y004216D01*
X004522Y004375D02*
X004136Y004375D01*
X004136Y004533D02*
X004655Y004533D01*
X004632Y004850D02*
X004136Y004850D01*
X004136Y004692D02*
X022861Y004692D01*
X022861Y004850D02*
X011680Y004850D01*
X011800Y005009D02*
X022861Y005009D01*
X022861Y005167D02*
X021339Y005167D01*
X021265Y005136D02*
X021048Y005136D01*
X020848Y005219D01*
X020695Y005372D01*
X020613Y005572D01*
X020613Y005788D01*
X020695Y005988D01*
X020848Y006141D01*
X020942Y006180D01*
X020848Y006219D01*
X020695Y006372D01*
X020613Y006572D01*
X020613Y006788D01*
X020695Y006988D01*
X020848Y007141D01*
X020942Y007180D01*
X020848Y007219D01*
X020695Y007372D01*
X020613Y007572D01*
X020613Y007788D01*
X020695Y007988D01*
X020848Y008141D01*
X020942Y008180D01*
X020848Y008219D01*
X020695Y008372D01*
X020613Y008572D01*
X020613Y008788D01*
X020695Y008988D01*
X020848Y009141D01*
X020942Y009180D01*
X020848Y009219D01*
X020695Y009372D01*
X020613Y009572D01*
X020613Y009788D01*
X020695Y009988D01*
X020848Y010141D01*
X020942Y010180D01*
X020848Y010219D01*
X020695Y010372D01*
X020613Y010572D01*
X020613Y010788D01*
X020695Y010988D01*
X020848Y011141D01*
X020942Y011180D01*
X020848Y011219D01*
X020695Y011372D01*
X020613Y011572D01*
X020613Y011788D01*
X020695Y011988D01*
X020848Y012141D01*
X020210Y012141D01*
X020210Y011983D02*
X020693Y011983D01*
X020627Y011824D02*
X020210Y011824D01*
X020210Y011666D02*
X020613Y011666D01*
X020639Y011507D02*
X020210Y011507D01*
X020210Y011349D02*
X020719Y011349D01*
X020918Y011190D02*
X020210Y011190D01*
X020210Y011032D02*
X020739Y011032D01*
X020648Y010873D02*
X020210Y010873D01*
X020210Y010715D02*
X020613Y010715D01*
X020619Y010556D02*
X020210Y010556D01*
X020210Y010398D02*
X020685Y010398D01*
X020828Y010239D02*
X020210Y010239D01*
X020210Y010081D02*
X020788Y010081D01*
X020668Y009922D02*
X020210Y009922D01*
X020210Y009764D02*
X020613Y009764D01*
X020613Y009605D02*
X020210Y009605D01*
X020210Y009447D02*
X020664Y009447D01*
X020779Y009288D02*
X020210Y009288D01*
X020210Y009170D02*
X020207Y009133D01*
X020201Y009095D01*
X020193Y009059D01*
X020181Y009023D01*
X020166Y008988D01*
X020149Y008954D01*
X020130Y008922D01*
X020107Y008892D01*
X020083Y008863D01*
X020056Y008836D01*
X020028Y008812D01*
X019997Y008790D01*
X019965Y008770D01*
X019931Y008753D01*
X019896Y008739D01*
X019861Y008727D01*
X019824Y008718D01*
X019787Y008712D01*
X019749Y008709D01*
X015615Y008709D01*
X015577Y008712D01*
X015540Y008718D01*
X015503Y008727D01*
X015468Y008739D01*
X015433Y008753D01*
X015399Y008770D01*
X015367Y008790D01*
X015336Y008812D01*
X015308Y008836D01*
X015281Y008863D01*
X015257Y008892D01*
X015234Y008922D01*
X015215Y008954D01*
X015198Y008988D01*
X015183Y009023D01*
X015171Y009059D01*
X015163Y009095D01*
X015157Y009133D01*
X015154Y009170D01*
X015154Y013875D01*
X015157Y013912D01*
X015163Y013950D01*
X015171Y013986D01*
X015183Y014022D01*
X015198Y014057D01*
X015215Y014091D01*
X015234Y014123D01*
X015257Y014153D01*
X015281Y014182D01*
X015308Y014209D01*
X015336Y014233D01*
X015367Y014255D01*
X015399Y014275D01*
X015433Y014292D01*
X015468Y014307D01*
X015503Y014318D01*
X015540Y014327D01*
X015577Y014333D01*
X015615Y014336D01*
X019749Y014336D01*
X019787Y014333D01*
X019824Y014327D01*
X019861Y014318D01*
X019896Y014307D01*
X019931Y014292D01*
X019965Y014275D01*
X019997Y014255D01*
X020028Y014233D01*
X020056Y014209D01*
X020083Y014182D01*
X020107Y014153D01*
X020130Y014123D01*
X020149Y014091D01*
X020166Y014057D01*
X020181Y014022D01*
X020193Y013986D01*
X020201Y013950D01*
X020207Y013912D01*
X020210Y013875D01*
X020210Y009170D01*
X020207Y009130D02*
X020837Y009130D01*
X020688Y008971D02*
X020158Y008971D01*
X020028Y008813D02*
X020623Y008813D01*
X020613Y008654D02*
X014700Y008654D01*
X014700Y008572D02*
X014700Y008788D01*
X014617Y008988D01*
X014464Y009141D01*
X014370Y009180D01*
X014464Y009219D01*
X014617Y009372D01*
X014700Y009572D01*
X014700Y009788D01*
X014617Y009988D01*
X014464Y010141D01*
X014370Y010180D01*
X014464Y010219D01*
X014617Y010372D01*
X014700Y010572D01*
X014700Y010788D01*
X014617Y010988D01*
X014464Y011141D01*
X014370Y011180D01*
X014464Y011219D01*
X014617Y011372D01*
X014700Y011572D01*
X014700Y011788D01*
X014617Y011988D01*
X014464Y012141D01*
X014370Y012180D01*
X014464Y012219D01*
X014617Y012372D01*
X014700Y012572D01*
X014700Y012788D01*
X014617Y012988D01*
X014464Y013141D01*
X014370Y013180D01*
X014464Y013219D01*
X014617Y013372D01*
X014700Y013572D01*
X014700Y013788D01*
X014617Y013988D01*
X014464Y014141D01*
X014370Y014180D01*
X014464Y014219D01*
X014617Y014372D01*
X014700Y014572D01*
X014700Y014788D01*
X014617Y014988D01*
X014464Y015141D01*
X014370Y015180D01*
X014464Y015219D01*
X014617Y015372D01*
X014700Y015572D01*
X014700Y015788D01*
X014617Y015988D01*
X014469Y016136D01*
X014607Y016136D01*
X014700Y016230D01*
X014700Y017130D01*
X014607Y017224D01*
X013706Y017224D01*
X014617Y017213D02*
X021022Y017213D01*
X021048Y017224D02*
X020848Y017141D01*
X020695Y016988D01*
X020613Y016788D01*
X020613Y016572D01*
X020695Y016372D01*
X020848Y016219D01*
X020942Y016180D01*
X020848Y016141D01*
X020695Y015988D01*
X020613Y015788D01*
X020613Y015572D01*
X020695Y015372D01*
X020848Y015219D01*
X020942Y015180D01*
X020848Y015141D01*
X020695Y014988D01*
X020613Y014788D01*
X020613Y014572D01*
X020695Y014372D01*
X020848Y014219D01*
X020942Y014180D01*
X020848Y014141D01*
X020695Y013988D01*
X020613Y013788D01*
X020613Y013572D01*
X020695Y013372D01*
X020848Y013219D01*
X020942Y013180D01*
X020848Y013141D01*
X020695Y012988D01*
X020613Y012788D01*
X020613Y012572D01*
X020695Y012372D01*
X020848Y012219D01*
X020942Y012180D01*
X020848Y012141D01*
X020768Y012300D02*
X020210Y012300D01*
X020210Y012458D02*
X020660Y012458D01*
X020613Y012617D02*
X020210Y012617D01*
X020210Y012775D02*
X020613Y012775D01*
X020673Y012934D02*
X020210Y012934D01*
X020210Y013092D02*
X020799Y013092D01*
X020817Y013251D02*
X020210Y013251D01*
X020210Y013409D02*
X020680Y013409D01*
X020614Y013568D02*
X020210Y013568D01*
X020210Y013726D02*
X020613Y013726D01*
X020652Y013885D02*
X020209Y013885D01*
X020172Y014043D02*
X020750Y014043D01*
X020890Y014202D02*
X020063Y014202D01*
X020613Y014677D02*
X014700Y014677D01*
X014681Y014836D02*
X020632Y014836D01*
X020701Y014994D02*
X014612Y014994D01*
X014437Y015153D02*
X020876Y015153D01*
X020756Y015311D02*
X014557Y015311D01*
X014658Y015470D02*
X020655Y015470D01*
X020613Y015628D02*
X014700Y015628D01*
X014700Y015787D02*
X020613Y015787D01*
X020678Y015945D02*
X014635Y015945D01*
X014502Y016104D02*
X020811Y016104D01*
X020805Y016262D02*
X014700Y016262D01*
X014700Y016421D02*
X020675Y016421D01*
X020613Y016579D02*
X014700Y016579D01*
X014700Y016738D02*
X020613Y016738D01*
X020657Y016896D02*
X014700Y016896D01*
X014700Y017055D02*
X020762Y017055D01*
X021048Y017224D02*
X021265Y017224D01*
X021464Y017141D01*
X021617Y016988D01*
X021700Y016788D01*
X021700Y016572D01*
X021617Y016372D01*
X021464Y016219D01*
X021370Y016180D01*
X021464Y016141D01*
X021617Y015988D01*
X021700Y015788D01*
X021700Y015572D01*
X021617Y015372D01*
X021464Y015219D01*
X021370Y015180D01*
X021464Y015141D01*
X021617Y014988D01*
X021700Y014788D01*
X021700Y014572D01*
X021617Y014372D01*
X021464Y014219D01*
X021370Y014180D01*
X021464Y014141D01*
X021617Y013988D01*
X021700Y013788D01*
X021700Y013572D01*
X021617Y013372D01*
X021464Y013219D01*
X021370Y013180D01*
X021464Y013141D01*
X021617Y012988D01*
X021700Y012788D01*
X021700Y012572D01*
X021617Y012372D01*
X021464Y012219D01*
X021370Y012180D01*
X021464Y012141D01*
X021617Y011988D01*
X021700Y011788D01*
X021700Y011572D01*
X021617Y011372D01*
X021464Y011219D01*
X021370Y011180D01*
X021464Y011141D01*
X021617Y010988D01*
X021700Y010788D01*
X021700Y010572D01*
X021617Y010372D01*
X021464Y010219D01*
X021370Y010180D01*
X021464Y010141D01*
X021617Y009988D01*
X021700Y009788D01*
X021700Y009572D01*
X021617Y009372D01*
X021464Y009219D01*
X021370Y009180D01*
X021464Y009141D01*
X021617Y008988D01*
X021700Y008788D01*
X021700Y008572D01*
X021617Y008372D01*
X021464Y008219D01*
X021370Y008180D01*
X021464Y008141D01*
X021617Y007988D01*
X021700Y007788D01*
X021700Y007572D01*
X021617Y007372D01*
X021464Y007219D01*
X021370Y007180D01*
X021464Y007141D01*
X021617Y006988D01*
X021700Y006788D01*
X021700Y006572D01*
X021617Y006372D01*
X021464Y006219D01*
X021370Y006180D01*
X021464Y006141D01*
X021617Y005988D01*
X021700Y005788D01*
X021700Y005572D01*
X021617Y005372D01*
X021464Y005219D01*
X021265Y005136D01*
X020974Y005167D02*
X014392Y005167D01*
X014373Y005157D02*
X014452Y005198D01*
X014524Y005250D01*
X014586Y005313D01*
X014639Y005384D01*
X014679Y005464D01*
X014706Y005548D01*
X014720Y005632D01*
X014204Y005632D01*
X014204Y005117D01*
X014288Y005130D01*
X014373Y005157D01*
X014204Y005167D02*
X014108Y005167D01*
X014108Y005117D02*
X014108Y005632D01*
X013593Y005632D01*
X013606Y005548D01*
X013634Y005464D01*
X013674Y005384D01*
X013726Y005313D01*
X013789Y005250D01*
X013861Y005198D01*
X013940Y005157D01*
X014024Y005130D01*
X014108Y005117D01*
X013921Y005167D02*
X011836Y005167D01*
X011811Y005326D02*
X013717Y005326D01*
X013627Y005484D02*
X011706Y005484D01*
X011599Y005801D02*
X013605Y005801D01*
X013606Y005812D02*
X013593Y005728D01*
X014108Y005728D01*
X014108Y005632D01*
X014204Y005632D01*
X014204Y005728D01*
X014720Y005728D01*
X014706Y005812D01*
X014679Y005896D01*
X014639Y005976D01*
X014586Y006047D01*
X014524Y006110D01*
X014452Y006162D01*
X014396Y006191D01*
X014464Y006219D01*
X014617Y006372D01*
X014700Y006572D01*
X014700Y006788D01*
X014617Y006988D01*
X014464Y007141D01*
X014370Y007180D01*
X014464Y007219D01*
X014617Y007372D01*
X014700Y007572D01*
X014700Y007788D01*
X014617Y007988D01*
X014464Y008141D01*
X014370Y008180D01*
X014464Y008219D01*
X014617Y008372D01*
X014700Y008572D01*
X014669Y008496D02*
X020644Y008496D01*
X020730Y008337D02*
X014583Y008337D01*
X014374Y008179D02*
X020939Y008179D01*
X020727Y008020D02*
X014586Y008020D01*
X014670Y007862D02*
X020643Y007862D01*
X020613Y007703D02*
X014700Y007703D01*
X014689Y007545D02*
X020624Y007545D01*
X020690Y007386D02*
X014623Y007386D01*
X014473Y007228D02*
X020840Y007228D01*
X020776Y007069D02*
X014537Y007069D01*
X014650Y006911D02*
X020663Y006911D01*
X020613Y006752D02*
X014700Y006752D01*
X014700Y006594D02*
X020613Y006594D01*
X020669Y006435D02*
X014644Y006435D01*
X014522Y006277D02*
X020791Y006277D01*
X020825Y006118D02*
X014513Y006118D01*
X014647Y005960D02*
X020684Y005960D01*
X020618Y005801D02*
X014708Y005801D01*
X014686Y005484D02*
X020649Y005484D01*
X020613Y005643D02*
X014204Y005643D01*
X014108Y005643D02*
X004136Y005643D01*
X004136Y005801D02*
X004714Y005801D01*
X004533Y005960D02*
X004136Y005960D01*
X004136Y006118D02*
X004476Y006118D01*
X004482Y006277D02*
X004136Y006277D01*
X004136Y006435D02*
X004557Y006435D01*
X004797Y006594D02*
X004136Y006594D01*
X004136Y006752D02*
X013613Y006752D01*
X013613Y006788D02*
X013613Y006572D01*
X013695Y006372D01*
X013848Y006219D01*
X013917Y006191D01*
X013861Y006162D01*
X013789Y006110D01*
X013726Y006047D01*
X013674Y005976D01*
X013634Y005896D01*
X013606Y005812D01*
X013666Y005960D02*
X011780Y005960D01*
X011836Y006118D02*
X013800Y006118D01*
X013791Y006277D02*
X011831Y006277D01*
X011755Y006435D02*
X013669Y006435D01*
X013613Y006594D02*
X011516Y006594D01*
X011741Y006911D02*
X013663Y006911D01*
X013695Y006988D02*
X013613Y006788D01*
X013695Y006988D02*
X013848Y007141D01*
X013942Y007180D01*
X013848Y007219D01*
X013695Y007372D01*
X013613Y007572D01*
X013613Y007788D01*
X013695Y007988D01*
X013848Y008141D01*
X013942Y008180D01*
X013848Y008219D01*
X013695Y008372D01*
X013613Y008572D01*
X013613Y008788D01*
X013695Y008988D01*
X013848Y009141D01*
X013942Y009180D01*
X013848Y009219D01*
X013695Y009372D01*
X013613Y009572D01*
X013613Y009788D01*
X013695Y009988D01*
X013848Y010141D01*
X013942Y010180D01*
X013848Y010219D01*
X013695Y010372D01*
X013613Y010572D01*
X013613Y010788D01*
X013695Y010988D01*
X013848Y011141D01*
X013942Y011180D01*
X013848Y011219D01*
X013695Y011372D01*
X013613Y011572D01*
X013639Y011507D02*
X011683Y011507D01*
X011654Y011536D02*
X011772Y011418D01*
X011836Y011264D01*
X011836Y011096D01*
X011772Y010942D01*
X011654Y010824D01*
X011500Y010760D01*
X010813Y010760D01*
X010658Y010824D01*
X010540Y010942D01*
X010476Y011096D01*
X010476Y011264D01*
X010540Y011418D01*
X010658Y011536D01*
X010813Y011600D01*
X011500Y011600D01*
X011654Y011536D01*
X011801Y011349D02*
X013719Y011349D01*
X013918Y011190D02*
X011836Y011190D01*
X011810Y011032D02*
X013739Y011032D01*
X013648Y010873D02*
X011703Y010873D01*
X011585Y010588D02*
X011519Y010609D01*
X011451Y010620D01*
X011156Y010620D01*
X010862Y010620D01*
X010793Y010609D01*
X010728Y010588D01*
X010666Y010556D01*
X010610Y010516D01*
X010561Y010467D01*
X010520Y010411D01*
X010489Y010349D01*
X010467Y010283D01*
X010456Y010215D01*
X010456Y010180D01*
X010456Y010145D01*
X010467Y010077D01*
X010489Y010011D01*
X010520Y009949D01*
X010561Y009893D01*
X010610Y009844D01*
X010666Y009804D01*
X010728Y009772D01*
X010793Y009751D01*
X010862Y009740D01*
X011156Y009740D01*
X011156Y010180D01*
X010456Y010180D01*
X011156Y010180D01*
X011156Y010180D01*
X011156Y010180D01*
X011156Y010620D01*
X011156Y010180D01*
X011156Y010180D01*
X012156Y010180D01*
X012148Y010175D02*
X012588Y010175D01*
X012148Y010175D01*
X012148Y010175D01*
X012148Y009735D01*
X012330Y009735D01*
X012588Y009993D01*
X012588Y010175D01*
X012588Y010357D01*
X012330Y010615D01*
X012148Y010615D01*
X012148Y010175D01*
X012148Y010175D01*
X012148Y010175D01*
X012148Y009735D01*
X011965Y009735D01*
X011775Y009925D01*
X011752Y009893D01*
X011703Y009844D01*
X011647Y009804D01*
X011585Y009772D01*
X011519Y009751D01*
X011451Y009740D01*
X011156Y009740D01*
X011156Y010180D01*
X011156Y010239D02*
X011156Y010239D01*
X011156Y010081D02*
X011156Y010081D01*
X011156Y009922D02*
X011156Y009922D01*
X011156Y009764D02*
X011156Y009764D01*
X010754Y009764D02*
X009396Y009764D01*
X009396Y009922D02*
X010540Y009922D01*
X010467Y010081D02*
X009396Y010081D01*
X009396Y010239D02*
X010460Y010239D01*
X010513Y010398D02*
X009396Y010398D01*
X009396Y010556D02*
X010665Y010556D01*
X010609Y010873D02*
X009396Y010873D01*
X009396Y010715D02*
X013613Y010715D01*
X013619Y010556D02*
X012389Y010556D01*
X012547Y010398D02*
X013685Y010398D01*
X013828Y010239D02*
X012588Y010239D01*
X012588Y010081D02*
X013788Y010081D01*
X013668Y009922D02*
X012517Y009922D01*
X012358Y009764D02*
X013613Y009764D01*
X013613Y009605D02*
X009396Y009605D01*
X009396Y009447D02*
X010569Y009447D01*
X011156Y009180D02*
X009156Y009180D01*
X008916Y009447D02*
X007816Y009447D01*
X007657Y009605D02*
X008916Y009605D01*
X008916Y010081D02*
X007893Y010081D01*
X007893Y010239D02*
X008916Y010239D01*
X008916Y010398D02*
X007893Y010398D01*
X007734Y010556D02*
X008916Y010556D01*
X009396Y011032D02*
X010503Y011032D01*
X010476Y011190D02*
X009396Y011190D01*
X009396Y011349D02*
X010512Y011349D01*
X010629Y011507D02*
X009396Y011507D01*
X009396Y011983D02*
X010524Y011983D01*
X010476Y012141D02*
X009396Y012141D01*
X009396Y012300D02*
X010491Y012300D01*
X010580Y012458D02*
X009396Y012458D01*
X008916Y012458D02*
X005732Y012458D01*
X005822Y012300D02*
X008916Y012300D01*
X008916Y012141D02*
X005836Y012141D01*
X005789Y011983D02*
X008916Y011983D01*
X007453Y010556D02*
X007453Y010556D01*
X007453Y010398D02*
X007453Y010398D01*
X007171Y010556D02*
X005606Y010556D01*
X004503Y011032D02*
X004136Y011032D01*
X004136Y011190D02*
X004476Y011190D01*
X004512Y011349D02*
X004136Y011349D01*
X004136Y011507D02*
X004629Y011507D01*
X004549Y012934D02*
X004136Y012934D01*
X004136Y013092D02*
X004478Y013092D01*
X004476Y013251D02*
X004136Y013251D01*
X004136Y013409D02*
X004537Y013409D01*
X004781Y009605D02*
X004136Y009605D01*
X004136Y009447D02*
X004546Y009447D01*
X004469Y009288D02*
X004136Y009288D01*
X004136Y009130D02*
X004459Y009130D01*
X004509Y008971D02*
X004136Y008971D01*
X004136Y008813D02*
X004654Y008813D01*
X004618Y008496D02*
X004136Y008496D01*
X004136Y008654D02*
X013613Y008654D01*
X013623Y008813D02*
X012379Y008813D01*
X012537Y008971D02*
X013688Y008971D01*
X013837Y009130D02*
X012568Y009130D01*
X012568Y009288D02*
X013779Y009288D01*
X013664Y009447D02*
X012470Y009447D01*
X012148Y009764D02*
X012148Y009764D01*
X012148Y009922D02*
X012148Y009922D01*
X012148Y010081D02*
X012148Y010081D01*
X012148Y010175D02*
X012148Y010615D01*
X011965Y010615D01*
X011779Y010429D01*
X011752Y010467D01*
X011703Y010516D01*
X011647Y010556D01*
X011585Y010588D01*
X011647Y010556D02*
X011906Y010556D01*
X012148Y010556D02*
X012148Y010556D01*
X012148Y010398D02*
X012148Y010398D01*
X012148Y010239D02*
X012148Y010239D01*
X011778Y009922D02*
X011773Y009922D01*
X011937Y009764D02*
X011558Y009764D01*
X011744Y009447D02*
X011825Y009447D01*
X011916Y008813D02*
X011627Y008813D01*
X011695Y008496D02*
X013644Y008496D01*
X013730Y008337D02*
X011806Y008337D01*
X011836Y008179D02*
X013939Y008179D01*
X013727Y008020D02*
X011805Y008020D01*
X011692Y007862D02*
X013643Y007862D01*
X013613Y007703D02*
X004136Y007703D01*
X004136Y007545D02*
X004679Y007545D01*
X004527Y007386D02*
X004136Y007386D01*
X004136Y007228D02*
X004476Y007228D01*
X004488Y007069D02*
X004136Y007069D01*
X004136Y006911D02*
X004572Y006911D01*
X005516Y006594D02*
X010797Y006594D01*
X011825Y007069D02*
X013776Y007069D01*
X013840Y007228D02*
X011836Y007228D01*
X011786Y007386D02*
X013690Y007386D01*
X013624Y007545D02*
X011634Y007545D01*
X014108Y005484D02*
X014204Y005484D01*
X014204Y005326D02*
X014108Y005326D01*
X014596Y005326D02*
X020742Y005326D01*
X021571Y005326D02*
X022861Y005326D01*
X022861Y005484D02*
X021664Y005484D01*
X021700Y005643D02*
X022861Y005643D01*
X022861Y005801D02*
X021695Y005801D01*
X021629Y005960D02*
X022861Y005960D01*
X022861Y006118D02*
X021488Y006118D01*
X021522Y006277D02*
X022861Y006277D01*
X022861Y006435D02*
X021644Y006435D01*
X021700Y006594D02*
X022861Y006594D01*
X022861Y006752D02*
X021700Y006752D01*
X021650Y006911D02*
X022861Y006911D01*
X022861Y007069D02*
X021537Y007069D01*
X021473Y007228D02*
X022861Y007228D01*
X022861Y007386D02*
X021623Y007386D01*
X021689Y007545D02*
X022861Y007545D01*
X022861Y007703D02*
X021700Y007703D01*
X021670Y007862D02*
X022861Y007862D01*
X022861Y008020D02*
X021586Y008020D01*
X021374Y008179D02*
X022861Y008179D01*
X022861Y008337D02*
X021583Y008337D01*
X021669Y008496D02*
X022861Y008496D01*
X022861Y008654D02*
X021700Y008654D01*
X021690Y008813D02*
X022861Y008813D01*
X022861Y008971D02*
X021625Y008971D01*
X021476Y009130D02*
X022861Y009130D01*
X022861Y009288D02*
X021534Y009288D01*
X021648Y009447D02*
X022861Y009447D01*
X022861Y009605D02*
X021700Y009605D01*
X021700Y009764D02*
X022861Y009764D01*
X022861Y009922D02*
X021645Y009922D01*
X021525Y010081D02*
X022861Y010081D01*
X022861Y010239D02*
X021485Y010239D01*
X021628Y010398D02*
X022861Y010398D01*
X022861Y010556D02*
X021694Y010556D01*
X021700Y010715D02*
X022861Y010715D01*
X022861Y010873D02*
X021665Y010873D01*
X021574Y011032D02*
X022861Y011032D01*
X022861Y011190D02*
X021395Y011190D01*
X021594Y011349D02*
X022861Y011349D01*
X022861Y011507D02*
X021673Y011507D01*
X021700Y011666D02*
X022861Y011666D01*
X022861Y011824D02*
X021685Y011824D01*
X021620Y011983D02*
X022861Y011983D01*
X022861Y012141D02*
X021465Y012141D01*
X021545Y012300D02*
X022861Y012300D01*
X022861Y012458D02*
X021653Y012458D01*
X021700Y012617D02*
X022861Y012617D01*
X022861Y012775D02*
X021700Y012775D01*
X021640Y012934D02*
X022861Y012934D01*
X022861Y013092D02*
X021514Y013092D01*
X021496Y013251D02*
X022861Y013251D01*
X022861Y013409D02*
X021633Y013409D01*
X021698Y013568D02*
X022861Y013568D01*
X022861Y013726D02*
X021700Y013726D01*
X021660Y013885D02*
X022861Y013885D01*
X022861Y014043D02*
X021563Y014043D01*
X021422Y014202D02*
X022861Y014202D01*
X022861Y014360D02*
X021606Y014360D01*
X021678Y014519D02*
X022861Y014519D01*
X022861Y014677D02*
X021700Y014677D01*
X021681Y014836D02*
X022861Y014836D01*
X022861Y014994D02*
X021612Y014994D01*
X021437Y015153D02*
X022861Y015153D01*
X022861Y015311D02*
X022410Y015311D01*
X022339Y015240D02*
X022596Y015498D01*
X022596Y015680D01*
X022156Y015680D01*
X021716Y015680D01*
X021716Y015498D01*
X021974Y015240D01*
X022156Y015240D01*
X022156Y015680D01*
X022156Y015680D01*
X021716Y015680D01*
X021716Y015862D01*
X021974Y016120D01*
X022156Y016120D01*
X022156Y015680D01*
X022156Y015680D01*
X022156Y015680D01*
X022156Y016120D01*
X022339Y016120D01*
X022596Y015862D01*
X022596Y015680D01*
X022156Y015680D01*
X022156Y015240D01*
X022339Y015240D01*
X022156Y015311D02*
X022156Y015311D01*
X022156Y015470D02*
X022156Y015470D01*
X022156Y015628D02*
X022156Y015628D01*
X022156Y015680D02*
X022156Y015680D01*
X022156Y015787D02*
X022156Y015787D01*
X022156Y015945D02*
X022156Y015945D01*
X022156Y016104D02*
X022156Y016104D01*
X021958Y016104D02*
X021502Y016104D01*
X021508Y016262D02*
X021980Y016262D01*
X021982Y016260D02*
X022330Y016260D01*
X022576Y016506D01*
X022576Y016854D01*
X022330Y017100D01*
X021982Y017100D01*
X021736Y016854D01*
X021736Y016506D01*
X021982Y016260D01*
X021822Y016421D02*
X021638Y016421D01*
X021700Y016579D02*
X021736Y016579D01*
X021736Y016738D02*
X021700Y016738D01*
X021656Y016896D02*
X021778Y016896D01*
X021937Y017055D02*
X021551Y017055D01*
X021291Y017213D02*
X022861Y017213D01*
X022861Y017055D02*
X022376Y017055D01*
X022534Y016896D02*
X022861Y016896D01*
X022861Y016738D02*
X022576Y016738D01*
X022576Y016579D02*
X022861Y016579D01*
X022861Y016421D02*
X022491Y016421D01*
X022332Y016262D02*
X022861Y016262D01*
X022861Y016104D02*
X022355Y016104D01*
X022514Y015945D02*
X022861Y015945D01*
X022861Y015787D02*
X022596Y015787D01*
X022596Y015628D02*
X022861Y015628D01*
X022861Y015470D02*
X022568Y015470D01*
X021903Y015311D02*
X021557Y015311D01*
X021658Y015470D02*
X021745Y015470D01*
X021716Y015628D02*
X021700Y015628D01*
X021700Y015787D02*
X021716Y015787D01*
X021635Y015945D02*
X021799Y015945D01*
X020635Y014519D02*
X014678Y014519D01*
X014606Y014360D02*
X020707Y014360D01*
X015301Y014202D02*
X014422Y014202D01*
X014563Y014043D02*
X015192Y014043D01*
X015155Y013885D02*
X014660Y013885D01*
X014700Y013726D02*
X015154Y013726D01*
X015154Y013568D02*
X014698Y013568D01*
X014633Y013409D02*
X015154Y013409D01*
X015154Y013251D02*
X014496Y013251D01*
X014514Y013092D02*
X015154Y013092D01*
X015154Y012934D02*
X014640Y012934D01*
X014700Y012775D02*
X015154Y012775D01*
X015154Y012617D02*
X014700Y012617D01*
X014653Y012458D02*
X015154Y012458D01*
X015154Y012300D02*
X014545Y012300D01*
X014465Y012141D02*
X015154Y012141D01*
X015154Y011983D02*
X014620Y011983D01*
X014685Y011824D02*
X015154Y011824D01*
X015154Y011666D02*
X014700Y011666D01*
X014673Y011507D02*
X015154Y011507D01*
X015154Y011349D02*
X014594Y011349D01*
X014395Y011190D02*
X015154Y011190D01*
X015154Y011032D02*
X014574Y011032D01*
X014665Y010873D02*
X015154Y010873D01*
X015154Y010715D02*
X014700Y010715D01*
X014694Y010556D02*
X015154Y010556D01*
X015154Y010398D02*
X014628Y010398D01*
X014485Y010239D02*
X015154Y010239D01*
X015154Y010081D02*
X014525Y010081D01*
X014645Y009922D02*
X015154Y009922D01*
X015154Y009764D02*
X014700Y009764D01*
X014700Y009605D02*
X015154Y009605D01*
X015154Y009447D02*
X014648Y009447D01*
X014534Y009288D02*
X015154Y009288D01*
X015157Y009130D02*
X014476Y009130D01*
X014625Y008971D02*
X015206Y008971D01*
X015336Y008813D02*
X014690Y008813D01*
X013627Y011824D02*
X011654Y011824D01*
X011772Y011942D01*
X011836Y012096D01*
X011789Y011983D02*
X013693Y011983D01*
X013613Y012775D02*
X011536Y012775D01*
X011764Y012934D02*
X013673Y012934D01*
X013799Y013092D02*
X011835Y013092D01*
X011836Y013251D02*
X013817Y013251D01*
X013680Y013409D02*
X011776Y013409D01*
X011666Y014836D02*
X013632Y014836D01*
X013701Y014994D02*
X011794Y014994D01*
X011836Y015153D02*
X013876Y015153D01*
X013756Y015311D02*
X011817Y015311D01*
X011721Y015470D02*
X013655Y015470D01*
X011654Y011824D02*
X011500Y011760D01*
X010813Y011760D01*
X010658Y011824D01*
X011156Y010556D02*
X011156Y010556D01*
X011156Y010398D02*
X011156Y010398D01*
X007248Y009605D02*
X007071Y009605D01*
X005156Y009605D02*
X005156Y009605D01*
X005156Y009447D02*
X005156Y009447D01*
X005156Y009288D02*
X005156Y009288D01*
X005156Y009180D02*
X005156Y009180D01*
X005156Y009130D02*
X005156Y009130D01*
X005156Y008971D02*
X005156Y008971D01*
X005156Y008813D02*
X005156Y008813D01*
X004507Y008337D02*
X004136Y008337D01*
X004136Y008179D02*
X004476Y008179D01*
X004508Y008020D02*
X004136Y008020D01*
X004136Y007862D02*
X004621Y007862D01*
X004606Y005484D02*
X004136Y005484D01*
X004136Y005326D02*
X004502Y005326D01*
X004476Y005167D02*
X004136Y005167D01*
X004136Y005009D02*
X004513Y005009D01*
X004769Y003582D02*
X004140Y003582D01*
X004159Y003424D02*
X004546Y003424D01*
X004477Y003265D02*
X004195Y003265D01*
X004244Y003107D02*
X004476Y003107D01*
X004538Y002948D02*
X004321Y002948D01*
X004365Y002857D02*
X004365Y002857D01*
X004418Y002790D02*
X004742Y002790D01*
X011657Y004533D02*
X022861Y004533D01*
X022861Y004375D02*
X011790Y004375D01*
X011836Y004216D02*
X022861Y004216D01*
X022861Y004058D02*
X011820Y004058D01*
X011729Y003899D02*
X022861Y003899D01*
X007176Y018323D02*
X007136Y018323D01*
X007136Y018481D02*
X007176Y018481D01*
X007176Y018640D02*
X007136Y018640D01*
X007136Y018798D02*
X004136Y018798D01*
X004688Y020542D02*
X022310Y020542D01*
X022075Y020700D02*
X004923Y020700D01*
X005383Y020859D02*
X021615Y020859D01*
X008826Y020225D02*
X008586Y020225D01*
M02*
