G75*
G70*
%OFA0B0*%
%FSLAX24Y24*%
%IPPOS*%
%LPD*%
%AMOC8*
5,1,8,0,0,1.08239X$1,22.5*
%
%ADD10C,0.0000*%
%ADD11C,0.0030*%
%ADD12C,0.0040*%
D10*
X008033Y011970D02*
X008033Y025749D01*
X008032Y025749D02*
X008034Y025843D01*
X008041Y025936D01*
X008052Y026029D01*
X008068Y026122D01*
X008088Y026213D01*
X008112Y026304D01*
X008140Y026393D01*
X008173Y026481D01*
X008210Y026567D01*
X008251Y026651D01*
X008296Y026734D01*
X008345Y026814D01*
X008397Y026891D01*
X008453Y026966D01*
X008513Y027038D01*
X008576Y027108D01*
X008642Y027174D01*
X008712Y027237D01*
X008784Y027297D01*
X008859Y027353D01*
X008936Y027405D01*
X009016Y027454D01*
X009099Y027499D01*
X009183Y027540D01*
X009269Y027577D01*
X009357Y027610D01*
X009446Y027638D01*
X009537Y027662D01*
X009628Y027682D01*
X009721Y027698D01*
X009814Y027709D01*
X009907Y027716D01*
X010001Y027718D01*
X025749Y027718D01*
X025843Y027716D01*
X025936Y027709D01*
X026029Y027698D01*
X026122Y027682D01*
X026213Y027662D01*
X026304Y027638D01*
X026393Y027610D01*
X026481Y027577D01*
X026567Y027540D01*
X026651Y027499D01*
X026733Y027454D01*
X026814Y027405D01*
X026891Y027353D01*
X026966Y027297D01*
X027038Y027237D01*
X027108Y027174D01*
X027174Y027108D01*
X027237Y027038D01*
X027297Y026966D01*
X027353Y026891D01*
X027405Y026814D01*
X027454Y026733D01*
X027499Y026651D01*
X027540Y026567D01*
X027577Y026481D01*
X027610Y026393D01*
X027638Y026304D01*
X027662Y026213D01*
X027682Y026122D01*
X027698Y026029D01*
X027709Y025936D01*
X027716Y025843D01*
X027718Y025749D01*
X027718Y011970D01*
X027714Y011783D01*
X027700Y011596D01*
X027678Y011410D01*
X027647Y011225D01*
X027607Y011042D01*
X027559Y010861D01*
X027501Y010682D01*
X027436Y010507D01*
X027362Y010335D01*
X027280Y010166D01*
X027191Y010002D01*
X027093Y009841D01*
X026988Y009686D01*
X026876Y009536D01*
X026756Y009392D01*
X026630Y009253D01*
X026498Y009121D01*
X026359Y008995D01*
X026215Y008875D01*
X026065Y008763D01*
X025910Y008658D01*
X025750Y008560D01*
X025585Y008471D01*
X025416Y008389D01*
X025244Y008315D01*
X025069Y008250D01*
X024890Y008192D01*
X024709Y008144D01*
X024526Y008104D01*
X024341Y008073D01*
X024155Y008051D01*
X023968Y008037D01*
X023781Y008033D01*
X011970Y008033D01*
X011783Y008037D01*
X011596Y008051D01*
X011410Y008073D01*
X011225Y008104D01*
X011042Y008144D01*
X010861Y008192D01*
X010682Y008250D01*
X010507Y008315D01*
X010335Y008389D01*
X010166Y008471D01*
X010001Y008560D01*
X009841Y008658D01*
X009686Y008763D01*
X009536Y008875D01*
X009392Y008995D01*
X009253Y009121D01*
X009121Y009253D01*
X008995Y009392D01*
X008875Y009536D01*
X008763Y009686D01*
X008658Y009841D01*
X008560Y010002D01*
X008471Y010166D01*
X008389Y010335D01*
X008315Y010507D01*
X008250Y010682D01*
X008192Y010861D01*
X008144Y011042D01*
X008104Y011225D01*
X008073Y011410D01*
X008051Y011596D01*
X008037Y011783D01*
X008033Y011970D01*
X017245Y025749D02*
X017247Y025799D01*
X017253Y025849D01*
X017263Y025898D01*
X017277Y025946D01*
X017294Y025993D01*
X017315Y026038D01*
X017340Y026082D01*
X017368Y026123D01*
X017400Y026162D01*
X017434Y026199D01*
X017471Y026233D01*
X017511Y026263D01*
X017553Y026290D01*
X017597Y026314D01*
X017643Y026335D01*
X017690Y026351D01*
X017738Y026364D01*
X017788Y026373D01*
X017837Y026378D01*
X017888Y026379D01*
X017938Y026376D01*
X017987Y026369D01*
X018036Y026358D01*
X018084Y026343D01*
X018130Y026325D01*
X018175Y026303D01*
X018218Y026277D01*
X018259Y026248D01*
X018298Y026216D01*
X018334Y026181D01*
X018366Y026143D01*
X018396Y026103D01*
X018423Y026060D01*
X018446Y026016D01*
X018465Y025970D01*
X018481Y025922D01*
X018493Y025873D01*
X018501Y025824D01*
X018505Y025774D01*
X018505Y025724D01*
X018501Y025674D01*
X018493Y025625D01*
X018481Y025576D01*
X018465Y025528D01*
X018446Y025482D01*
X018423Y025438D01*
X018396Y025395D01*
X018366Y025355D01*
X018334Y025317D01*
X018298Y025282D01*
X018259Y025250D01*
X018218Y025221D01*
X018175Y025195D01*
X018130Y025173D01*
X018084Y025155D01*
X018036Y025140D01*
X017987Y025129D01*
X017938Y025122D01*
X017888Y025119D01*
X017837Y025120D01*
X017788Y025125D01*
X017738Y025134D01*
X017690Y025147D01*
X017643Y025163D01*
X017597Y025184D01*
X017553Y025208D01*
X017511Y025235D01*
X017471Y025265D01*
X017434Y025299D01*
X017400Y025336D01*
X017368Y025375D01*
X017340Y025416D01*
X017315Y025460D01*
X017294Y025505D01*
X017277Y025552D01*
X017263Y025600D01*
X017253Y025649D01*
X017247Y025699D01*
X017245Y025749D01*
D11*
X010498Y009409D02*
X010559Y009348D01*
X010683Y009348D01*
X010745Y009409D01*
X010745Y009656D01*
X010683Y009718D01*
X010559Y009718D01*
X010498Y009656D01*
X010498Y009409D01*
X010866Y009348D02*
X010866Y009718D01*
X011113Y009718D01*
X011234Y009718D02*
X011481Y009718D01*
X011358Y009533D02*
X011234Y009533D01*
X011234Y009348D02*
X011234Y009718D01*
X010989Y009533D02*
X010866Y009533D01*
X012708Y009656D02*
X012708Y009409D01*
X012769Y009348D01*
X012893Y009348D01*
X012954Y009409D01*
X012954Y009656D01*
X012893Y009718D01*
X012769Y009718D01*
X012708Y009656D01*
X013076Y009718D02*
X013076Y009348D01*
X013323Y009348D02*
X013076Y009718D01*
X013323Y009718D02*
X013323Y009348D01*
X009344Y014198D02*
X009221Y014198D01*
X009097Y014321D01*
X009221Y014505D02*
X009283Y014443D01*
X009406Y014443D01*
X009468Y014505D01*
X009468Y014690D01*
X009468Y014812D02*
X009344Y014935D01*
X009221Y014935D01*
X009097Y014812D01*
X009221Y014690D02*
X009221Y014505D01*
X009468Y014321D02*
X009344Y014198D01*
X008768Y014398D02*
X008768Y014645D01*
X008768Y014766D02*
X008768Y014889D01*
X008768Y014828D02*
X008521Y014828D01*
X008521Y014766D01*
X008397Y014828D02*
X008336Y014828D01*
X008521Y015012D02*
X008521Y015197D01*
X008583Y015258D01*
X008768Y015258D01*
X008706Y015380D02*
X008583Y015380D01*
X008521Y015442D01*
X008521Y015565D01*
X008583Y015627D01*
X008644Y015627D01*
X008644Y015380D01*
X008706Y015380D02*
X008768Y015442D01*
X008768Y015565D01*
X009097Y015611D02*
X009097Y015487D01*
X009159Y015425D01*
X009097Y015611D02*
X009159Y015672D01*
X009221Y015672D01*
X009468Y015425D01*
X009468Y015672D01*
X009406Y015794D02*
X009159Y016041D01*
X009406Y016041D01*
X009468Y015979D01*
X009468Y015855D01*
X009406Y015794D01*
X009159Y015794D01*
X009097Y015855D01*
X009097Y015979D01*
X009159Y016041D01*
X009221Y016162D02*
X009097Y016285D01*
X009468Y016285D01*
X009468Y016162D02*
X009468Y016409D01*
X009468Y016530D02*
X009468Y016777D01*
X009468Y016654D02*
X009097Y016654D01*
X009221Y016530D01*
X008768Y016546D02*
X008706Y016485D01*
X008583Y016485D01*
X008521Y016546D01*
X008521Y016670D01*
X008583Y016732D01*
X008706Y016732D01*
X008768Y016670D01*
X008768Y016546D01*
X008768Y016853D02*
X008768Y016977D01*
X008768Y016915D02*
X008397Y016915D01*
X008397Y016853D01*
X008397Y017099D02*
X008397Y017160D01*
X008768Y017160D01*
X008768Y017099D02*
X008768Y017222D01*
X008706Y017344D02*
X008768Y017406D01*
X008768Y017529D01*
X008706Y017591D01*
X008583Y017591D01*
X008521Y017529D01*
X008521Y017406D01*
X008583Y017344D01*
X008706Y017344D01*
X008706Y017712D02*
X008521Y017712D01*
X008706Y017712D02*
X008768Y017774D01*
X008706Y017836D01*
X008768Y017898D01*
X008706Y017959D01*
X008521Y017959D01*
X008521Y018081D02*
X008521Y018142D01*
X008768Y018142D01*
X008768Y018081D02*
X008768Y018204D01*
X008768Y018326D02*
X008521Y018326D01*
X008521Y018511D01*
X008583Y018573D01*
X008768Y018573D01*
X008706Y018695D02*
X008768Y018756D01*
X008768Y018941D01*
X008829Y018941D02*
X008521Y018941D01*
X008521Y018756D01*
X008583Y018695D01*
X008706Y018695D01*
X008891Y018818D02*
X008891Y018880D01*
X008829Y018941D01*
X009036Y019047D02*
X009097Y019047D01*
X009221Y019047D02*
X009468Y019047D01*
X009468Y018986D02*
X009468Y019109D01*
X009406Y019231D02*
X009468Y019293D01*
X009468Y019478D01*
X009468Y019599D02*
X009468Y019785D01*
X009406Y019846D01*
X009344Y019785D01*
X009344Y019661D01*
X009283Y019599D01*
X009221Y019661D01*
X009221Y019846D01*
X009221Y019478D02*
X009221Y019293D01*
X009283Y019231D01*
X009406Y019231D01*
X009221Y019047D02*
X009221Y018986D01*
X009221Y018864D02*
X009221Y018740D01*
X009159Y018802D02*
X009406Y018802D01*
X009468Y018864D01*
X009406Y018619D02*
X009283Y018619D01*
X009221Y018557D01*
X009221Y018434D01*
X009283Y018372D01*
X009406Y018372D01*
X009468Y018434D01*
X009468Y018557D01*
X009406Y018619D01*
X009406Y018250D02*
X009283Y018250D01*
X009221Y018189D01*
X009221Y018004D01*
X009097Y018004D02*
X009468Y018004D01*
X009468Y018189D01*
X009406Y018250D01*
X009406Y017882D02*
X009283Y017882D01*
X009221Y017820D01*
X009221Y017697D01*
X009283Y017635D01*
X009406Y017635D01*
X009468Y017697D01*
X009468Y017820D01*
X009406Y017882D01*
X009406Y017514D02*
X009283Y017514D01*
X009283Y017390D01*
X009406Y017267D02*
X009159Y017267D01*
X009097Y017329D01*
X009097Y017452D01*
X009159Y017514D01*
X009406Y017514D02*
X009468Y017452D01*
X009468Y017329D01*
X009406Y017267D01*
X008768Y016116D02*
X008397Y016116D01*
X008397Y016363D01*
X008583Y016240D02*
X008583Y016116D01*
X008521Y015012D02*
X008768Y015012D01*
X008768Y014398D02*
X008397Y014398D01*
X008336Y018142D02*
X008397Y018142D01*
X008397Y019431D02*
X008397Y019616D01*
X008459Y019678D01*
X008583Y019678D01*
X008644Y019616D01*
X008644Y019431D01*
X008644Y019555D02*
X008768Y019678D01*
X008706Y019799D02*
X008768Y019861D01*
X008768Y019985D01*
X008706Y020046D01*
X008583Y020046D01*
X008521Y019985D01*
X008521Y019861D01*
X008583Y019799D01*
X008706Y019799D01*
X008768Y019431D02*
X008397Y019431D01*
X008397Y020168D02*
X008768Y020168D01*
X008768Y020353D01*
X008706Y020415D01*
X008583Y020415D01*
X008521Y020353D01*
X008521Y020168D01*
X008583Y020536D02*
X008521Y020598D01*
X008521Y020721D01*
X008583Y020783D01*
X008706Y020783D01*
X008768Y020721D01*
X008768Y020598D01*
X008706Y020536D01*
X008583Y020536D01*
X008521Y020904D02*
X008521Y021028D01*
X008459Y020966D02*
X008706Y020966D01*
X008768Y021028D01*
X009097Y021074D02*
X009468Y021074D01*
X009468Y020889D01*
X009406Y020827D01*
X009283Y020827D01*
X009221Y020889D01*
X009221Y021074D01*
X009406Y021195D02*
X009406Y021257D01*
X009468Y021257D01*
X009468Y021195D01*
X009406Y021195D01*
X009468Y020705D02*
X009406Y020643D01*
X009159Y020643D01*
X009221Y020582D02*
X009221Y020705D01*
X009097Y020398D02*
X009468Y020398D01*
X009468Y020336D02*
X009468Y020460D01*
X009097Y020398D02*
X009097Y020336D01*
X009798Y023898D02*
X009921Y023898D01*
X009859Y023898D02*
X009859Y024268D01*
X009798Y024268D02*
X009921Y024268D01*
X010043Y024268D02*
X010043Y023898D01*
X010043Y024021D02*
X010228Y024021D01*
X010290Y024083D01*
X010290Y024206D01*
X010228Y024268D01*
X010043Y024268D01*
X010167Y024021D02*
X010290Y023898D01*
X015548Y023856D02*
X015548Y023795D01*
X015609Y023733D01*
X015733Y023733D01*
X015795Y023671D01*
X015795Y023609D01*
X015733Y023548D01*
X015609Y023548D01*
X015548Y023609D01*
X015548Y023856D02*
X015609Y023918D01*
X015733Y023918D01*
X015795Y023856D01*
X015916Y023918D02*
X016163Y023918D01*
X016039Y023918D02*
X016039Y023548D01*
X016284Y023548D02*
X016284Y023795D01*
X016408Y023918D01*
X016531Y023795D01*
X016531Y023548D01*
X016531Y023733D02*
X016284Y023733D01*
X016653Y023918D02*
X016900Y023918D01*
X017021Y023918D02*
X017021Y023609D01*
X017083Y023548D01*
X017206Y023548D01*
X017268Y023609D01*
X017268Y023918D01*
X017389Y023856D02*
X017389Y023795D01*
X017451Y023733D01*
X017574Y023733D01*
X017636Y023671D01*
X017636Y023609D01*
X017574Y023548D01*
X017451Y023548D01*
X017389Y023609D01*
X017389Y023856D02*
X017451Y023918D01*
X017574Y023918D01*
X017636Y023856D01*
X016776Y023918D02*
X016776Y023548D01*
X016947Y018100D02*
X016947Y017853D01*
X016947Y017976D02*
X017318Y017976D01*
X017256Y017731D02*
X017318Y017670D01*
X017318Y017546D01*
X017256Y017484D01*
X017318Y017363D02*
X017071Y017363D01*
X016947Y017239D01*
X017071Y017116D01*
X017318Y017116D01*
X017133Y017116D02*
X017133Y017363D01*
X017071Y017484D02*
X017133Y017546D01*
X017133Y017670D01*
X017194Y017731D01*
X017256Y017731D01*
X017009Y017731D02*
X016947Y017670D01*
X016947Y017546D01*
X017009Y017484D01*
X017071Y017484D01*
X016947Y016995D02*
X016947Y016748D01*
X017318Y016748D01*
X017133Y016748D02*
X017133Y016871D01*
X017268Y015950D02*
X016897Y015950D01*
X016897Y015703D02*
X017268Y015703D01*
X017144Y015826D01*
X017268Y015950D01*
X017206Y015581D02*
X016959Y015581D01*
X016897Y015520D01*
X016897Y015396D01*
X016959Y015334D01*
X017206Y015334D01*
X017268Y015396D01*
X017268Y015520D01*
X017206Y015581D01*
X017268Y015213D02*
X017268Y014966D01*
X016897Y014966D01*
X016959Y014845D02*
X016897Y014783D01*
X016897Y014659D01*
X016959Y014598D01*
X017021Y014598D01*
X017083Y014659D01*
X017083Y014783D01*
X017144Y014845D01*
X017206Y014845D01*
X017268Y014783D01*
X017268Y014659D01*
X017206Y014598D01*
X019597Y014698D02*
X019597Y014883D01*
X019659Y014945D01*
X019721Y014945D01*
X019783Y014883D01*
X019783Y014698D01*
X019968Y014698D02*
X019968Y014883D01*
X019906Y014945D01*
X019844Y014945D01*
X019783Y014883D01*
X019597Y015066D02*
X019968Y015066D01*
X019968Y015313D01*
X019968Y015434D02*
X019597Y015434D01*
X019783Y015496D02*
X019968Y015681D01*
X019844Y015434D02*
X019597Y015681D01*
X019597Y014698D02*
X019968Y014698D01*
X019968Y016998D02*
X019597Y016998D01*
X019597Y017245D02*
X019968Y017245D01*
X019844Y017121D01*
X019968Y016998D01*
X019968Y017366D02*
X019597Y017366D01*
X019783Y017366D02*
X019783Y017613D01*
X019968Y017613D02*
X019597Y017613D01*
X019597Y017734D02*
X019597Y017858D01*
X019597Y017796D02*
X019968Y017796D01*
X019968Y017734D02*
X019968Y017858D01*
X025298Y019059D02*
X025359Y018998D01*
X025483Y018998D01*
X025545Y019059D01*
X025545Y019183D01*
X025421Y019183D01*
X025298Y019306D02*
X025298Y019059D01*
X025298Y019306D02*
X025359Y019368D01*
X025483Y019368D01*
X025545Y019306D01*
X025666Y019368D02*
X025913Y018998D01*
X025913Y019368D01*
X026034Y019368D02*
X026220Y019368D01*
X026281Y019306D01*
X026281Y019059D01*
X026220Y018998D01*
X026034Y018998D01*
X026034Y019368D01*
X025666Y019368D02*
X025666Y018998D01*
X025728Y019948D02*
X025851Y019948D01*
X025913Y020009D01*
X026034Y020009D02*
X026096Y019948D01*
X026220Y019948D01*
X026281Y020009D01*
X026034Y020009D02*
X026034Y020256D01*
X026096Y020318D01*
X026220Y020318D01*
X026281Y020256D01*
X025913Y020256D02*
X025851Y020318D01*
X025728Y020318D01*
X025666Y020256D01*
X025666Y020009D01*
X025728Y019948D01*
X025545Y020071D02*
X025421Y019948D01*
X025298Y020071D01*
X025298Y020318D01*
X025545Y020318D02*
X025545Y020071D01*
X025666Y020998D02*
X025913Y021368D01*
X025666Y021368D02*
X025913Y020998D01*
X025421Y020998D02*
X025421Y021368D01*
X025298Y021368D02*
X025545Y021368D01*
X025545Y021998D02*
X025421Y022121D01*
X025483Y022121D02*
X025298Y022121D01*
X025298Y021998D02*
X025298Y022368D01*
X025483Y022368D01*
X025545Y022306D01*
X025545Y022183D01*
X025483Y022121D01*
X025666Y021998D02*
X025913Y022368D01*
X025666Y022368D02*
X025913Y021998D01*
X018768Y011086D02*
X018583Y010901D01*
X018644Y010839D02*
X018397Y011086D01*
X018397Y010839D02*
X018768Y010839D01*
X018706Y010718D02*
X018459Y010718D01*
X018397Y010656D01*
X018397Y010533D01*
X018459Y010471D01*
X018706Y010471D01*
X018768Y010533D01*
X018768Y010656D01*
X018706Y010718D01*
X018768Y009981D02*
X018644Y009858D01*
X018644Y009920D02*
X018644Y009734D01*
X018768Y009734D02*
X018397Y009734D01*
X018397Y009920D01*
X018459Y009981D01*
X018583Y009981D01*
X018644Y009920D01*
X018768Y009613D02*
X018397Y009613D01*
X018397Y009366D02*
X018768Y009366D01*
X018644Y009489D01*
X018768Y009613D01*
X018583Y009245D02*
X018644Y009183D01*
X018644Y008998D01*
X018768Y008998D02*
X018397Y008998D01*
X018397Y009183D01*
X018459Y009245D01*
X018583Y009245D01*
D12*
X023242Y016103D02*
X023242Y016363D01*
X023329Y016450D01*
X023503Y016450D01*
X023589Y016363D01*
X023589Y016103D01*
X023763Y016103D02*
X023242Y016103D01*
X023242Y016618D02*
X023242Y016879D01*
X023329Y016965D01*
X023503Y016965D01*
X023589Y016879D01*
X023589Y016618D01*
X023763Y016618D02*
X023242Y016618D01*
X023589Y016792D02*
X023763Y016965D01*
X023676Y017134D02*
X023763Y017221D01*
X023763Y017394D01*
X023676Y017481D01*
X023329Y017481D01*
X023242Y017394D01*
X023242Y017221D01*
X023329Y017134D01*
X023676Y017134D01*
X023676Y017650D02*
X023329Y017650D01*
X023242Y017736D01*
X023242Y017910D01*
X023329Y017997D01*
X023503Y017997D02*
X023503Y017823D01*
X023503Y017997D02*
X023676Y017997D01*
X023763Y017910D01*
X023763Y017736D01*
X023676Y017650D01*
X023476Y019403D02*
X023563Y019489D01*
X023563Y019663D01*
X023476Y019750D01*
X023389Y019750D01*
X023303Y019663D01*
X023303Y019489D01*
X023216Y019403D01*
X023129Y019403D01*
X023042Y019489D01*
X023042Y019663D01*
X023129Y019750D01*
X023042Y019918D02*
X023563Y019918D01*
X023563Y020265D01*
X023563Y020434D02*
X023042Y020434D01*
X023042Y020694D01*
X023129Y020781D01*
X023303Y020781D01*
X023389Y020694D01*
X023389Y020434D01*
X023389Y020607D02*
X023563Y020781D01*
X023563Y020950D02*
X023563Y021123D01*
X023563Y021036D02*
X023042Y021036D01*
X023042Y020950D02*
X023042Y021123D01*
X023216Y021293D02*
X023042Y021467D01*
X023216Y021640D01*
X023563Y021640D01*
X023563Y021809D02*
X023042Y021809D01*
X023303Y021640D02*
X023303Y021293D01*
X023216Y021293D02*
X023563Y021293D01*
X023563Y021809D02*
X023563Y022156D01*
X023042Y020265D02*
X023042Y019918D01*
X023303Y019918D02*
X023303Y020092D01*
M02*
