G75*
G70*
%OFA0B0*%
%FSLAX24Y24*%
%IPPOS*%
%LPD*%
%AMOC8*
5,1,8,0,0,1.08239X$1,22.5*
%
%ADD10C,0.1300*%
%ADD11R,0.0276X0.0512*%
%ADD12C,0.1135*%
%ADD13R,0.0780X0.0780*%
%ADD14OC8,0.0780*%
%ADD15C,0.0555*%
%ADD16C,0.0740*%
%ADD17C,0.0600*%
%ADD18C,0.0640*%
%ADD19OC8,0.0600*%
D10*
X017875Y025749D03*
D11*
X019489Y025041D03*
X020198Y025041D03*
X021458Y025041D03*
X022167Y025041D03*
X023426Y025041D03*
X024135Y025041D03*
X025395Y025041D03*
X026104Y025041D03*
X026104Y026458D03*
X025395Y026458D03*
X024135Y026458D03*
X023426Y026458D03*
X022167Y026458D03*
X021458Y026458D03*
X020198Y026458D03*
X019489Y026458D03*
X016261Y026458D03*
X015552Y026458D03*
X014293Y026458D03*
X013584Y026458D03*
X012324Y026458D03*
X011615Y026458D03*
X010356Y026458D03*
X009647Y026458D03*
X009647Y025041D03*
X010356Y025041D03*
X011615Y025041D03*
X012324Y025041D03*
X013584Y025041D03*
X014293Y025041D03*
X015552Y025041D03*
X016261Y025041D03*
D12*
X013502Y022009D02*
X012406Y022009D01*
X012406Y013741D02*
X013502Y013741D01*
D13*
X022671Y016076D03*
D14*
X021671Y016076D03*
X021671Y017076D03*
X022671Y017076D03*
X022671Y018076D03*
X021671Y018076D03*
D15*
X022206Y012227D02*
X022206Y011712D01*
X020237Y011712D02*
X020237Y012227D01*
X015513Y012227D02*
X015513Y011712D01*
X013545Y011712D02*
X013545Y012227D01*
X010395Y012227D02*
X010395Y011712D01*
X008426Y011712D02*
X008426Y012227D01*
X025356Y012227D02*
X025356Y011712D01*
X027324Y011712D02*
X027324Y012227D01*
D16*
X019281Y012470D03*
X019281Y011470D03*
X016470Y011470D03*
X016470Y012470D03*
D17*
X011033Y010813D02*
X011033Y010253D01*
X012033Y010253D02*
X012033Y010813D01*
X013033Y010813D02*
X013033Y010253D01*
D18*
X024133Y019233D02*
X024733Y019233D01*
X024733Y020233D02*
X024133Y020233D01*
X024133Y021233D02*
X024733Y021233D01*
X024733Y022233D02*
X024133Y022233D01*
D19*
X018933Y017283D03*
X017933Y017283D03*
X017933Y016283D03*
X018933Y016283D03*
X018933Y015283D03*
X017933Y015283D03*
M02*
