G75*
G70*
%OFA0B0*%
%FSLAX24Y24*%
%IPPOS*%
%LPD*%
%AMOC8*
5,1,8,0,0,1.08239X$1,22.5*
%
%ADD10C,0.0000*%
D10*
X008033Y011970D02*
X008033Y025749D01*
X008032Y025749D02*
X008034Y025843D01*
X008041Y025936D01*
X008052Y026029D01*
X008068Y026122D01*
X008088Y026213D01*
X008112Y026304D01*
X008140Y026393D01*
X008173Y026481D01*
X008210Y026567D01*
X008251Y026651D01*
X008296Y026734D01*
X008345Y026814D01*
X008397Y026891D01*
X008453Y026966D01*
X008513Y027038D01*
X008576Y027108D01*
X008642Y027174D01*
X008712Y027237D01*
X008784Y027297D01*
X008859Y027353D01*
X008936Y027405D01*
X009016Y027454D01*
X009099Y027499D01*
X009183Y027540D01*
X009269Y027577D01*
X009357Y027610D01*
X009446Y027638D01*
X009537Y027662D01*
X009628Y027682D01*
X009721Y027698D01*
X009814Y027709D01*
X009907Y027716D01*
X010001Y027718D01*
X025749Y027718D01*
X025843Y027716D01*
X025936Y027709D01*
X026029Y027698D01*
X026122Y027682D01*
X026213Y027662D01*
X026304Y027638D01*
X026393Y027610D01*
X026481Y027577D01*
X026567Y027540D01*
X026651Y027499D01*
X026733Y027454D01*
X026814Y027405D01*
X026891Y027353D01*
X026966Y027297D01*
X027038Y027237D01*
X027108Y027174D01*
X027174Y027108D01*
X027237Y027038D01*
X027297Y026966D01*
X027353Y026891D01*
X027405Y026814D01*
X027454Y026733D01*
X027499Y026651D01*
X027540Y026567D01*
X027577Y026481D01*
X027610Y026393D01*
X027638Y026304D01*
X027662Y026213D01*
X027682Y026122D01*
X027698Y026029D01*
X027709Y025936D01*
X027716Y025843D01*
X027718Y025749D01*
X027718Y011970D01*
X027714Y011783D01*
X027700Y011596D01*
X027678Y011410D01*
X027647Y011225D01*
X027607Y011042D01*
X027559Y010861D01*
X027501Y010682D01*
X027436Y010507D01*
X027362Y010335D01*
X027280Y010166D01*
X027191Y010002D01*
X027093Y009841D01*
X026988Y009686D01*
X026876Y009536D01*
X026756Y009392D01*
X026630Y009253D01*
X026498Y009121D01*
X026359Y008995D01*
X026215Y008875D01*
X026065Y008763D01*
X025910Y008658D01*
X025750Y008560D01*
X025585Y008471D01*
X025416Y008389D01*
X025244Y008315D01*
X025069Y008250D01*
X024890Y008192D01*
X024709Y008144D01*
X024526Y008104D01*
X024341Y008073D01*
X024155Y008051D01*
X023968Y008037D01*
X023781Y008033D01*
X011970Y008033D01*
X011783Y008037D01*
X011596Y008051D01*
X011410Y008073D01*
X011225Y008104D01*
X011042Y008144D01*
X010861Y008192D01*
X010682Y008250D01*
X010507Y008315D01*
X010335Y008389D01*
X010166Y008471D01*
X010001Y008560D01*
X009841Y008658D01*
X009686Y008763D01*
X009536Y008875D01*
X009392Y008995D01*
X009253Y009121D01*
X009121Y009253D01*
X008995Y009392D01*
X008875Y009536D01*
X008763Y009686D01*
X008658Y009841D01*
X008560Y010002D01*
X008471Y010166D01*
X008389Y010335D01*
X008315Y010507D01*
X008250Y010682D01*
X008192Y010861D01*
X008144Y011042D01*
X008104Y011225D01*
X008073Y011410D01*
X008051Y011596D01*
X008037Y011783D01*
X008033Y011970D01*
X017245Y025749D02*
X017247Y025799D01*
X017253Y025849D01*
X017263Y025898D01*
X017277Y025946D01*
X017294Y025993D01*
X017315Y026038D01*
X017340Y026082D01*
X017368Y026123D01*
X017400Y026162D01*
X017434Y026199D01*
X017471Y026233D01*
X017511Y026263D01*
X017553Y026290D01*
X017597Y026314D01*
X017643Y026335D01*
X017690Y026351D01*
X017738Y026364D01*
X017788Y026373D01*
X017837Y026378D01*
X017888Y026379D01*
X017938Y026376D01*
X017987Y026369D01*
X018036Y026358D01*
X018084Y026343D01*
X018130Y026325D01*
X018175Y026303D01*
X018218Y026277D01*
X018259Y026248D01*
X018298Y026216D01*
X018334Y026181D01*
X018366Y026143D01*
X018396Y026103D01*
X018423Y026060D01*
X018446Y026016D01*
X018465Y025970D01*
X018481Y025922D01*
X018493Y025873D01*
X018501Y025824D01*
X018505Y025774D01*
X018505Y025724D01*
X018501Y025674D01*
X018493Y025625D01*
X018481Y025576D01*
X018465Y025528D01*
X018446Y025482D01*
X018423Y025438D01*
X018396Y025395D01*
X018366Y025355D01*
X018334Y025317D01*
X018298Y025282D01*
X018259Y025250D01*
X018218Y025221D01*
X018175Y025195D01*
X018130Y025173D01*
X018084Y025155D01*
X018036Y025140D01*
X017987Y025129D01*
X017938Y025122D01*
X017888Y025119D01*
X017837Y025120D01*
X017788Y025125D01*
X017738Y025134D01*
X017690Y025147D01*
X017643Y025163D01*
X017597Y025184D01*
X017553Y025208D01*
X017511Y025235D01*
X017471Y025265D01*
X017434Y025299D01*
X017400Y025336D01*
X017368Y025375D01*
X017340Y025416D01*
X017315Y025460D01*
X017294Y025505D01*
X017277Y025552D01*
X017263Y025600D01*
X017253Y025649D01*
X017247Y025699D01*
X017245Y025749D01*
M02*
