G75*
G70*
%OFA0B0*%
%FSLAX24Y24*%
%IPPOS*%
%LPD*%
%AMOC8*
5,1,8,0,0,1.08239X$1,22.5*
%
%ADD10R,0.0460X0.0180*%
%ADD11R,0.0180X0.0460*%
%ADD12R,0.0354X0.0511*%
%ADD13R,0.0551X0.0551*%
%ADD14R,0.0590X0.0511*%
%ADD15R,0.0314X0.0472*%
%ADD16R,0.1560X0.1560*%
%ADD17R,0.0551X0.0472*%
D10*
X017880Y018955D03*
X017880Y019270D03*
X017880Y019585D03*
X017880Y019900D03*
X017880Y020215D03*
X017880Y020530D03*
X017880Y020845D03*
X017880Y021160D03*
X021260Y021160D03*
X021260Y020845D03*
X021260Y020530D03*
X021260Y020215D03*
X021260Y019900D03*
X021260Y019585D03*
X021260Y019270D03*
X021260Y018955D03*
D11*
X020672Y018368D03*
X020357Y018368D03*
X020042Y018368D03*
X019727Y018368D03*
X019412Y018368D03*
X019097Y018368D03*
X018782Y018368D03*
X018467Y018368D03*
X018467Y021748D03*
X018782Y021748D03*
X019097Y021748D03*
X019412Y021748D03*
X019727Y021748D03*
X020042Y021748D03*
X020357Y021748D03*
X020672Y021748D03*
D12*
X016759Y014066D03*
X017507Y014066D03*
X018159Y014066D03*
X018907Y014066D03*
X018533Y013200D03*
X017133Y013200D03*
X010433Y022600D03*
X010807Y023466D03*
X010059Y023466D03*
D13*
X010001Y025060D03*
X010001Y026438D03*
X011970Y026438D03*
X011970Y025060D03*
X013938Y025060D03*
X013938Y026438D03*
X015907Y026438D03*
X015907Y025060D03*
X015944Y023083D03*
X017322Y023083D03*
X019844Y025060D03*
X019844Y026438D03*
X021812Y026438D03*
X021812Y025060D03*
X023781Y025060D03*
X023781Y026438D03*
X025749Y026438D03*
X025749Y025060D03*
X017875Y010690D03*
X017875Y009312D03*
D14*
X008983Y022853D03*
D15*
X009357Y024172D03*
X008609Y024172D03*
D16*
X012954Y017875D03*
D17*
X017333Y021659D03*
X017333Y022407D03*
X017875Y012344D03*
X017875Y011596D03*
M02*
