%
M48
M72
T01C0.0236
T02C0.0315
T03C0.0360
T04C0.0400
T05C0.0730
T06C0.1260
%
T01
X17833Y13133
X18533Y20233
X19433Y21133
X19333Y22633
X18883Y22633
X19033Y24933
X19433Y25633
X20833Y26433
X21433Y25633
X21033Y25033
X23033Y25033
X23433Y25633
X25033Y25033
X25333Y25633
X15533Y25633
X15133Y25033
X14933Y26433
X13633Y25633
X13133Y25033
X11633Y25633
X11233Y25033
X9633Y25633
X9233Y25033
X8533Y24683
T02
X16470Y12470
X16470Y11470
X15513Y11970
X13545Y11970
X10395Y11970
X8426Y11970
X19281Y11470
X19281Y12470
X20237Y11970
X22206Y11970
X25356Y11970
X27324Y11970
T03
X11033Y10533
X12033Y10533
X13033Y10533
X17933Y15283
X18933Y15283
X18933Y16283
X17933Y16283
X17933Y17283
X18933Y17283
T04
X21671Y17076
X21671Y16076
X22671Y16076
X22671Y17076
X22671Y18076
X21671Y18076
X24433Y19233
X24433Y20233
X24433Y21233
X24433Y22233
T05
X12954Y22009
X12954Y13741
T06
X17875Y25749
M30
