<?xml version="1.0" encoding="UTF-8" standalone="no"?>
<!-- Created with Inkscape (http://www.inkscape.org/) -->

<svg
   xmlns:dc="http://purl.org/dc/elements/1.1/"
   xmlns:cc="http://creativecommons.org/ns#"
   xmlns:rdf="http://www.w3.org/1999/02/22-rdf-syntax-ns#"
   xmlns:svg="http://www.w3.org/2000/svg"
   xmlns="http://www.w3.org/2000/svg"
   xmlns:sodipodi="http://sodipodi.sourceforge.net/DTD/sodipodi-0.dtd"
   xmlns:inkscape="http://www.inkscape.org/namespaces/inkscape"
   id="svg2"
   version="1.1"
   inkscape:version="0.48.1 r9760"
   width="53.75"
   height="68.75"
   xml:space="preserve"
   sodipodi:docname="stencil.eps"><metadata
     id="metadata8"><rdf:RDF><cc:Work
         rdf:about=""><dc:format>image/svg+xml</dc:format><dc:type
           rdf:resource="http://purl.org/dc/dcmitype/StillImage" /><dc:title></dc:title></cc:Work></rdf:RDF></metadata><defs
     id="defs6" /><sodipodi:namedview
     pagecolor="#ffffff"
     bordercolor="#666666"
     borderopacity="1"
     objecttolerance="10"
     gridtolerance="10"
     guidetolerance="10"
     inkscape:pageopacity="0"
     inkscape:pageshadow="2"
     inkscape:window-width="1680"
     inkscape:window-height="975"
     id="namedview4"
     showgrid="false"
     inkscape:zoom="10.007273"
     inkscape:cx="17.041387"
     inkscape:cy="38.166088"
     inkscape:window-x="1280"
     inkscape:window-y="25"
     inkscape:window-maximized="1"
     inkscape:current-layer="g10" /><g
     id="g10"
     inkscape:groupmode="layer"
     inkscape:label="ink_ext_XXXXXX"
     transform="matrix(1.25,0,0,-1.25,0,68.75)"><g
       id="g12"
       transform="scale(0.1,0.1)"
       style="stroke:#000000;stroke-opacity:1;stroke-width:0.28346455999999998;stroke-miterlimit:4;stroke-dasharray:none;fill:none"><path
         d="m 217.492,170.531 10.1562,0 0,37.6562 -10.1562,0 0,-37.6562 z"
         style="fill:none;fill-opacity:1;fill-rule:nonzero;stroke:#000000;stroke-opacity:1;stroke-width:0.28346455999999998;stroke-miterlimit:4;stroke-dasharray:none"
         id="path14" /><path
         d="m 235.918,170.531 10.1562,0 0,37.6562 -10.1562,0 0,-37.6562 z"
         style="fill:none;fill-opacity:1;fill-rule:nonzero;stroke:#000000;stroke-opacity:1;stroke-width:0.28346455999999998;stroke-miterlimit:4;stroke-dasharray:none"
         id="path16" /><path
         d="m 254.34,170.531 10.1602,0 0,37.6562 -10.1602,0 0,-37.6562 z"
         style="fill:none;fill-opacity:1;fill-rule:nonzero;stroke:#000000;stroke-opacity:1;stroke-width:0.28346455999999998;stroke-miterlimit:4;stroke-dasharray:none"
         id="path18" /><path
         d="m 272.766,170.531 10.1602,0 0,37.6562 -10.1602,0 0,-37.6562 z"
         style="fill:none;fill-opacity:1;fill-rule:nonzero;stroke:#000000;stroke-opacity:1;stroke-width:0.28346455999999998;stroke-miterlimit:4;stroke-dasharray:none"
         id="path20" /><path
         d="m 291.191,170.531 10.1602,0 0,37.6562 -10.1602,0 0,-37.6562 z"
         style="fill:none;fill-opacity:1;fill-rule:nonzero;stroke:#000000;stroke-opacity:1;stroke-width:0.28346455999999998;stroke-miterlimit:4;stroke-dasharray:none"
         id="path22" /><path
         d="m 309.617,170.531 10.1602,0 0,37.6562 -10.1602,0 0,-37.6562 z"
         style="fill:none;fill-opacity:1;fill-rule:nonzero;stroke:#000000;stroke-opacity:1;stroke-width:0.28346455999999998;stroke-miterlimit:4;stroke-dasharray:none"
         id="path24" /><path
         d="m 328.043,170.531 10.1602,0 0,37.6562 -10.1602,0 0,-37.6562 z"
         style="fill:none;fill-opacity:1;fill-rule:nonzero;stroke:#000000;stroke-opacity:1;stroke-width:0.28346455999999998;stroke-miterlimit:4;stroke-dasharray:none"
         id="path26" /><path
         d="m 346.469,170.531 10.1562,0 0,37.6562 -10.1562,0 0,-37.6562 z"
         style="fill:none;fill-opacity:1;fill-rule:nonzero;stroke:#000000;stroke-opacity:1;stroke-width:0.28346455999999998;stroke-miterlimit:4;stroke-dasharray:none"
         id="path28" /><path
         d="m 346.469,385.684 10.1562,0 0,37.6523 -10.1562,0 0,-37.6523 z"
         style="fill:none;fill-opacity:1;fill-rule:nonzero;stroke:#000000;stroke-opacity:1;stroke-width:0.28346455999999998;stroke-miterlimit:4;stroke-dasharray:none"
         id="path30" /><path
         d="m 328.043,385.684 10.1602,0 0,37.6523 -10.1602,0 0,-37.6523 z"
         style="fill:none;fill-opacity:1;fill-rule:nonzero;stroke:#000000;stroke-opacity:1;stroke-width:0.28346455999999998;stroke-miterlimit:4;stroke-dasharray:none"
         id="path32" /><path
         d="m 309.617,385.684 10.1602,0 0,37.6523 -10.1602,0 0,-37.6523 z"
         style="fill:none;fill-opacity:1;fill-rule:nonzero;stroke:#000000;stroke-opacity:1;stroke-width:0.28346455999999998;stroke-miterlimit:4;stroke-dasharray:none"
         id="path34" /><path
         d="m 291.191,385.684 10.1602,0 0,37.6523 -10.1602,0 0,-37.6523 z"
         style="fill:none;fill-opacity:1;fill-rule:nonzero;stroke:#000000;stroke-opacity:1;stroke-width:0.28346455999999998;stroke-miterlimit:4;stroke-dasharray:none"
         id="path36" /><path
         d="m 272.766,385.684 10.1602,0 0,37.6523 -10.1602,0 0,-37.6523 z"
         style="fill:none;fill-opacity:1;fill-rule:nonzero;stroke:#000000;stroke-opacity:1;stroke-width:0.28346455999999998;stroke-miterlimit:4;stroke-dasharray:none"
         id="path38" /><path
         d="m 254.34,385.684 10.1602,0 0,37.6523 -10.1602,0 0,-37.6523 z"
         style="fill:none;fill-opacity:1;fill-rule:nonzero;stroke:#000000;stroke-opacity:1;stroke-width:0.28346455999999998;stroke-miterlimit:4;stroke-dasharray:none"
         id="path40" /><path
         d="m 235.918,385.684 10.1562,0 0,37.6523 -10.1562,0 0,-37.6523 z"
         style="fill:none;fill-opacity:1;fill-rule:nonzero;stroke:#000000;stroke-opacity:1;stroke-width:0.28346455999999998;stroke-miterlimit:4;stroke-dasharray:none"
         id="path42" /><path
         d="m 217.492,385.684 10.1562,0 0,37.6523 -10.1562,0 0,-37.6523 z"
         style="fill:none;fill-opacity:1;fill-rule:nonzero;stroke:#000000;stroke-opacity:1;stroke-width:0.28346455999999998;stroke-miterlimit:4;stroke-dasharray:none"
         id="path44" /><path
         d="m 144.84,284.656 39.6406,0 0,33.9688 -39.6406,0 0,-33.9688 z"
         style="fill:none;fill-opacity:1;fill-rule:nonzero;stroke:#000000;stroke-opacity:1;stroke-width:0.28346455999999998;stroke-miterlimit:4;stroke-dasharray:none"
         id="path46" /><path
         d="m 144.84,332.844 39.6406,0 0,33.9727 -39.6406,0 0,-33.9727 z"
         style="fill:none;fill-opacity:1;fill-rule:nonzero;stroke:#000000;stroke-opacity:1;stroke-width:0.28346455999999998;stroke-miterlimit:4;stroke-dasharray:none"
         id="path48" /><path
         d="m 101.98,161.914 33.9688,0 0,39.6406 -33.9688,0 0,-39.6406 z"
         style="fill:none;fill-opacity:1;fill-rule:nonzero;stroke:#000000;stroke-opacity:1;stroke-width:0.28346455999999998;stroke-miterlimit:4;stroke-dasharray:none"
         id="path50" /><path
         d="m 150.168,161.914 33.9688,0 0,39.6406 -33.9688,0 0,-39.6406 z"
         style="fill:none;fill-opacity:1;fill-rule:nonzero;stroke:#000000;stroke-opacity:1;stroke-width:0.28346455999999998;stroke-miterlimit:4;stroke-dasharray:none"
         id="path52" /><path
         d="m 94.4375,308.723 39.6406,0 0,39.6367 -39.6406,0 0,-39.6367 z"
         style="fill:none;fill-opacity:1;fill-rule:nonzero;stroke:#000000;stroke-opacity:1;stroke-width:0.28346455999999998;stroke-miterlimit:4;stroke-dasharray:none"
         id="path54" /><path
         d="m 94.4375,209.508 39.6406,0 0,39.6406 -39.6406,0 0,-39.6406 z"
         style="fill:none;fill-opacity:1;fill-rule:nonzero;stroke:#000000;stroke-opacity:1;stroke-width:0.28346455999999998;stroke-miterlimit:4;stroke-dasharray:none"
         id="path56" /><path
         d="m 101.98,377.914 33.9688,0 0,39.6406 -33.9688,0 0,-39.6406 z"
         style="fill:none;fill-opacity:1;fill-rule:nonzero;stroke:#000000;stroke-opacity:1;stroke-width:0.28346455999999998;stroke-miterlimit:4;stroke-dasharray:none"
         id="path58" /><path
         d="m 150.168,377.914 33.9688,0 0,39.6406 -33.9688,0 0,-39.6406 z"
         style="fill:none;fill-opacity:1;fill-rule:nonzero;stroke:#000000;stroke-opacity:1;stroke-width:0.28346455999999998;stroke-miterlimit:4;stroke-dasharray:none"
         id="path60" /></g></g></svg>