G75*
G70*
%OFA0B0*%
%FSLAX24Y24*%
%IPPOS*%
%LPD*%
%AMOC8*
5,1,8,0,0,1.08239X$1,22.5*
%
%ADD10C,0.0634*%
%ADD11R,0.0276X0.0906*%
%ADD12C,0.0640*%
%ADD13R,0.0631X0.0552*%
D10*
X001680Y005264D03*
X001680Y006264D03*
X001680Y007264D03*
X001680Y008264D03*
X001680Y009264D03*
X001680Y010264D03*
X001680Y011264D03*
X001680Y012264D03*
X001680Y013264D03*
X001680Y014264D03*
X001680Y015264D03*
X001680Y016264D03*
X007680Y016264D03*
X007680Y015264D03*
X007680Y014264D03*
X007680Y013264D03*
X007680Y012264D03*
X007680Y011264D03*
X007680Y010264D03*
X007680Y009264D03*
X007680Y008264D03*
X007680Y007264D03*
X007680Y006264D03*
X007680Y005264D03*
D11*
X006430Y004287D03*
X005930Y004287D03*
X005430Y004287D03*
X004930Y004287D03*
X004430Y004287D03*
X003930Y004287D03*
X003430Y004287D03*
X002930Y004287D03*
X002930Y002240D03*
X003430Y002240D03*
X003930Y002240D03*
X004430Y002240D03*
X004930Y002240D03*
X005430Y002240D03*
X005930Y002240D03*
X006430Y002240D03*
D12*
X001680Y001264D03*
X001680Y002264D03*
X001680Y003264D03*
X001680Y004264D03*
X007680Y004264D03*
X007680Y003264D03*
X007680Y002264D03*
X007680Y001264D03*
D13*
X002430Y004740D03*
X002430Y005488D03*
M02*
