G75*
G70*
%OFA0B0*%
%FSLAX24Y24*%
%IPPOS*%
%LPD*%
%AMOC8*
5,1,8,0,0,1.08239X$1,22.5*
%
%ADD10C,0.0000*%
D10*
X000680Y000264D02*
X001680Y000264D01*
X007680Y000264D01*
X007740Y000266D01*
X007801Y000271D01*
X007860Y000280D01*
X007919Y000293D01*
X007978Y000309D01*
X008035Y000329D01*
X008090Y000352D01*
X008145Y000379D01*
X008197Y000408D01*
X008248Y000441D01*
X008297Y000477D01*
X008343Y000515D01*
X008387Y000557D01*
X008429Y000601D01*
X008467Y000647D01*
X008503Y000696D01*
X008536Y000747D01*
X008565Y000799D01*
X008592Y000854D01*
X008615Y000909D01*
X008635Y000966D01*
X008651Y001025D01*
X008664Y001084D01*
X008673Y001143D01*
X008678Y001204D01*
X008680Y001264D01*
X008680Y016264D01*
X008678Y016324D01*
X008673Y016385D01*
X008664Y016444D01*
X008651Y016503D01*
X008635Y016562D01*
X008615Y016619D01*
X008592Y016674D01*
X008565Y016729D01*
X008536Y016781D01*
X008503Y016832D01*
X008467Y016881D01*
X008429Y016927D01*
X008387Y016971D01*
X008343Y017013D01*
X008297Y017051D01*
X008248Y017087D01*
X008197Y017120D01*
X008145Y017149D01*
X008090Y017176D01*
X008035Y017199D01*
X007978Y017219D01*
X007919Y017235D01*
X007860Y017248D01*
X007801Y017257D01*
X007740Y017262D01*
X007680Y017264D01*
X001680Y017264D01*
X001620Y017262D01*
X001559Y017257D01*
X001500Y017248D01*
X001441Y017235D01*
X001382Y017219D01*
X001325Y017199D01*
X001270Y017176D01*
X001215Y017149D01*
X001163Y017120D01*
X001112Y017087D01*
X001063Y017051D01*
X001017Y017013D01*
X000973Y016971D01*
X000931Y016927D01*
X000893Y016881D01*
X000857Y016832D01*
X000824Y016781D01*
X000795Y016729D01*
X000768Y016674D01*
X000745Y016619D01*
X000725Y016562D01*
X000709Y016503D01*
X000696Y016444D01*
X000687Y016385D01*
X000682Y016324D01*
X000680Y016264D01*
X000680Y001264D01*
X000682Y001204D01*
X000687Y001143D01*
X000696Y001084D01*
X000709Y001025D01*
X000725Y000966D01*
X000745Y000909D01*
X000768Y000854D01*
X000795Y000799D01*
X000824Y000747D01*
X000857Y000696D01*
X000893Y000647D01*
X000931Y000601D01*
X000973Y000557D01*
X001017Y000515D01*
X001063Y000477D01*
X001112Y000441D01*
X001163Y000408D01*
X001215Y000379D01*
X001270Y000352D01*
X001325Y000329D01*
X001382Y000309D01*
X001441Y000293D01*
X001500Y000280D01*
X001559Y000271D01*
X001620Y000266D01*
X001680Y000264D01*
M02*
