%
M48
M72
T01C0.0394
T02C0.0400
%
T01
X1680Y5264
X1680Y6264
X1680Y7264
X1680Y8264
X1680Y9264
X1680Y10264
X1680Y11264
X1680Y12264
X1680Y13264
X1680Y14264
X1680Y15264
X1680Y16264
X7680Y16264
X7680Y15264
X7680Y14264
X7680Y13264
X7680Y12264
X7680Y11264
X7680Y10264
X7680Y9264
X7680Y8264
X7680Y7264
X7680Y6264
X7680Y5264
T02
X1680Y1264
X1680Y2264
X1680Y3264
X1680Y4264
X7680Y4264
X7680Y3264
X7680Y2264
X7680Y1264
M30
