%
M48
M72
T01C0.0236
T02C0.0320
T03C0.0360
T04C0.1260
%
T01
X2691Y2581
X3691Y2581
X4691Y2581
X5691Y2581
X6691Y2581
X7691Y2581
X8691Y2581
X9691Y2581
X9691Y5581
X8691Y5581
X7691Y5581
X6691Y5581
X5691Y5581
X4691Y5581
X3691Y5581
X2691Y5581
X2691Y8581
X3691Y8581
X4691Y8581
X5691Y8581
X6691Y8581
X7691Y8581
X8691Y8581
X9691Y8581
X9691Y11581
X8691Y11581
X7691Y11581
X6691Y11581
X5691Y11581
X4691Y11581
X3691Y11581
X2691Y11581
X2691Y14581
X3691Y14581
X4691Y14581
X5691Y14581
X6691Y14581
X7691Y14581
X8691Y14581
X9691Y14581
X9691Y17581
X8691Y17581
X7691Y17581
X6691Y17581
X5691Y17581
X4691Y17581
X3691Y17581
X2691Y17581
X2691Y20581
X3691Y20581
X4691Y20581
X5691Y20581
X6691Y20581
X7691Y20581
X8691Y20581
X9691Y20581
X9691Y23581
X8691Y23581
X7691Y23581
X6691Y23581
X5691Y23581
X4691Y23581
X3691Y23581
X2691Y23581
T02
X11691Y18581
X11691Y17581
X11691Y16581
X11691Y15581
X11691Y14581
X11691Y13581
X11691Y12581
X11691Y11581
X9691Y1581
X8691Y1581
X7691Y1581
X6691Y1581
X5691Y1581
X4691Y1581
X3691Y1581
X2691Y1581
T03
X2691Y3581
X2691Y4581
X3691Y4581
X3691Y3581
X4691Y3581
X4691Y4581
X5691Y4581
X5691Y3581
X6691Y3581
X6691Y4581
X7691Y4581
X7691Y3581
X8691Y3581
X8691Y4581
X9691Y4581
X9691Y3581
X9691Y6581
X9691Y7581
X8691Y7581
X8691Y6581
X7691Y6581
X7691Y7581
X6691Y7581
X6691Y6581
X5691Y6581
X5691Y7581
X4691Y7581
X4691Y6581
X3691Y6581
X3691Y7581
X2691Y7581
X2691Y6581
X2691Y9581
X2691Y10581
X2691Y12581
X2691Y13581
X2691Y15581
X2691Y16581
X2691Y18581
X2691Y19581
X2691Y21581
X2691Y22581
X2691Y24581
X2691Y25581
X3691Y25581
X3691Y24581
X3691Y22581
X3691Y21581
X3691Y19581
X3691Y18581
X3691Y16581
X3691Y15581
X3691Y13581
X3691Y12581
X3691Y10581
X3691Y9581
X4691Y9581
X4691Y10581
X4691Y12581
X4691Y13581
X4691Y15581
X4691Y16581
X4691Y18581
X4691Y19581
X4691Y21581
X4691Y22581
X4691Y24581
X4691Y25581
X5691Y25581
X5691Y24581
X5691Y22581
X5691Y21581
X5691Y19581
X5691Y18581
X5691Y16581
X5691Y15581
X5691Y13581
X5691Y12581
X5691Y10581
X5691Y9581
X6691Y9581
X6691Y10581
X6691Y12581
X6691Y13581
X6691Y15581
X6691Y16581
X6691Y18581
X6691Y19581
X6691Y21581
X6691Y22581
X6691Y24581
X6691Y25581
X7691Y25581
X7691Y24581
X8691Y24581
X8691Y25581
X9691Y25581
X9691Y24581
X9691Y22581
X9691Y21581
X9691Y19581
X9691Y18581
X9691Y16581
X9691Y15581
X9691Y13581
X9691Y12581
X9691Y10581
X9691Y9581
X8691Y9581
X8691Y10581
X7691Y10581
X7691Y9581
X7691Y12581
X7691Y13581
X8691Y13581
X8691Y12581
X8691Y15581
X8691Y16581
X7691Y16581
X7691Y15581
X7691Y18581
X7691Y19581
X8691Y19581
X8691Y18581
X8691Y21581
X8691Y22581
X7691Y22581
X7691Y21581
T04
X1183Y1191
X11517Y1191
X11517Y26281
X1183Y26281
M30
