G75*
G70*
%OFA0B0*%
%FSLAX24Y24*%
%IPPOS*%
%LPD*%
%AMOC8*
5,1,8,0,0,1.08239X$1,22.5*
%
%ADD10C,0.1340*%
%ADD11OC8,0.0640*%
%ADD12C,0.0600*%
%ADD13C,0.0476*%
D10*
X001183Y001191D03*
X011517Y001191D03*
X011517Y026281D03*
X001183Y026281D03*
D11*
X002691Y025581D03*
X002691Y024581D03*
X002691Y022581D03*
X002691Y021581D03*
X002691Y019581D03*
X002691Y018581D03*
X002691Y016581D03*
X002691Y015581D03*
X002691Y013581D03*
X002691Y012581D03*
X002691Y010581D03*
X002691Y009581D03*
X003691Y009581D03*
X003691Y010581D03*
X003691Y012581D03*
X003691Y013581D03*
X003691Y015581D03*
X003691Y016581D03*
X003691Y018581D03*
X003691Y019581D03*
X003691Y021581D03*
X003691Y022581D03*
X003691Y024581D03*
X003691Y025581D03*
X004691Y025581D03*
X004691Y024581D03*
X004691Y022581D03*
X004691Y021581D03*
X004691Y019581D03*
X004691Y018581D03*
X004691Y016581D03*
X004691Y015581D03*
X004691Y013581D03*
X004691Y012581D03*
X004691Y010581D03*
X004691Y009581D03*
X005691Y009581D03*
X005691Y010581D03*
X005691Y012581D03*
X005691Y013581D03*
X005691Y015581D03*
X005691Y016581D03*
X005691Y018581D03*
X005691Y019581D03*
X005691Y021581D03*
X005691Y022581D03*
X005691Y024581D03*
X005691Y025581D03*
X006691Y025581D03*
X006691Y024581D03*
X006691Y022581D03*
X006691Y021581D03*
X006691Y019581D03*
X006691Y018581D03*
X006691Y016581D03*
X006691Y015581D03*
X006691Y013581D03*
X006691Y012581D03*
X006691Y010581D03*
X006691Y009581D03*
X007691Y009581D03*
X007691Y010581D03*
X008691Y010581D03*
X008691Y009581D03*
X009691Y009581D03*
X009691Y010581D03*
X009691Y012581D03*
X009691Y013581D03*
X009691Y015581D03*
X009691Y016581D03*
X009691Y018581D03*
X009691Y019581D03*
X009691Y021581D03*
X009691Y022581D03*
X009691Y024581D03*
X009691Y025581D03*
X008691Y025581D03*
X008691Y024581D03*
X007691Y024581D03*
X007691Y025581D03*
X007691Y022581D03*
X007691Y021581D03*
X008691Y021581D03*
X008691Y022581D03*
X008691Y019581D03*
X008691Y018581D03*
X007691Y018581D03*
X007691Y019581D03*
X007691Y016581D03*
X007691Y015581D03*
X008691Y015581D03*
X008691Y016581D03*
X008691Y013581D03*
X008691Y012581D03*
X007691Y012581D03*
X007691Y013581D03*
X007691Y007581D03*
X007691Y006581D03*
X008691Y006581D03*
X008691Y007581D03*
X009691Y007581D03*
X009691Y006581D03*
X009691Y004581D03*
X009691Y003581D03*
X008691Y003581D03*
X008691Y004581D03*
X007691Y004581D03*
X007691Y003581D03*
X006691Y003581D03*
X006691Y004581D03*
X005691Y004581D03*
X005691Y003581D03*
X004691Y003581D03*
X004691Y004581D03*
X003691Y004581D03*
X003691Y003581D03*
X002691Y003581D03*
X002691Y004581D03*
X002691Y006581D03*
X002691Y007581D03*
X003691Y007581D03*
X003691Y006581D03*
X004691Y006581D03*
X004691Y007581D03*
X005691Y007581D03*
X005691Y006581D03*
X006691Y006581D03*
X006691Y007581D03*
D12*
X006691Y001841D02*
X006691Y001321D01*
X007691Y001321D02*
X007691Y001841D01*
X008691Y001841D02*
X008691Y001321D01*
X009691Y001321D02*
X009691Y001841D01*
X005691Y001841D02*
X005691Y001321D01*
X004691Y001321D02*
X004691Y001841D01*
X003691Y001841D02*
X003691Y001321D01*
X002691Y001321D02*
X002691Y001841D01*
X011431Y011581D02*
X011951Y011581D01*
X011951Y012581D02*
X011431Y012581D01*
X011431Y013581D02*
X011951Y013581D01*
X011951Y014581D02*
X011431Y014581D01*
X011431Y015581D02*
X011951Y015581D01*
X011951Y016581D02*
X011431Y016581D01*
X011431Y017581D02*
X011951Y017581D01*
X011951Y018581D02*
X011431Y018581D01*
D13*
X009691Y017581D03*
X008691Y017581D03*
X007691Y017581D03*
X006691Y017581D03*
X005691Y017581D03*
X004691Y017581D03*
X003691Y017581D03*
X002691Y017581D03*
X002691Y014581D03*
X003691Y014581D03*
X004691Y014581D03*
X005691Y014581D03*
X006691Y014581D03*
X007691Y014581D03*
X008691Y014581D03*
X009691Y014581D03*
X009691Y011581D03*
X008691Y011581D03*
X007691Y011581D03*
X006691Y011581D03*
X005691Y011581D03*
X004691Y011581D03*
X003691Y011581D03*
X002691Y011581D03*
X002691Y008581D03*
X003691Y008581D03*
X004691Y008581D03*
X005691Y008581D03*
X006691Y008581D03*
X007691Y008581D03*
X008691Y008581D03*
X009691Y008581D03*
X009691Y005581D03*
X008691Y005581D03*
X007691Y005581D03*
X006691Y005581D03*
X005691Y005581D03*
X004691Y005581D03*
X003691Y005581D03*
X002691Y005581D03*
X002691Y002581D03*
X003691Y002581D03*
X004691Y002581D03*
X005691Y002581D03*
X006691Y002581D03*
X007691Y002581D03*
X008691Y002581D03*
X009691Y002581D03*
X009691Y020581D03*
X008691Y020581D03*
X007691Y020581D03*
X006691Y020581D03*
X005691Y020581D03*
X004691Y020581D03*
X003691Y020581D03*
X002691Y020581D03*
X002691Y023581D03*
X003691Y023581D03*
X004691Y023581D03*
X005691Y023581D03*
X006691Y023581D03*
X007691Y023581D03*
X008691Y023581D03*
X009691Y023581D03*
M02*
