G75*
G70*
%OFA0B0*%
%FSLAX24Y24*%
%IPPOS*%
%LPD*%
%AMOC8*
5,1,8,0,0,1.08239X$1,22.5*
%
%ADD10C,0.0000*%
%ADD11C,0.0120*%
%ADD12OC8,0.0560*%
%ADD13C,0.0520*%
%ADD14C,0.0240*%
%ADD15C,0.0396*%
D10*
X000100Y000100D02*
X000100Y027265D01*
X012502Y027265D01*
X012502Y000100D01*
X000100Y000100D01*
X000553Y001191D02*
X000555Y001241D01*
X000561Y001291D01*
X000571Y001340D01*
X000585Y001388D01*
X000602Y001435D01*
X000623Y001480D01*
X000648Y001524D01*
X000676Y001565D01*
X000708Y001604D01*
X000742Y001641D01*
X000779Y001675D01*
X000819Y001705D01*
X000861Y001732D01*
X000905Y001756D01*
X000951Y001777D01*
X000998Y001793D01*
X001046Y001806D01*
X001096Y001815D01*
X001145Y001820D01*
X001196Y001821D01*
X001246Y001818D01*
X001295Y001811D01*
X001344Y001800D01*
X001392Y001785D01*
X001438Y001767D01*
X001483Y001745D01*
X001526Y001719D01*
X001567Y001690D01*
X001606Y001658D01*
X001642Y001623D01*
X001674Y001585D01*
X001704Y001545D01*
X001731Y001502D01*
X001754Y001458D01*
X001773Y001412D01*
X001789Y001364D01*
X001801Y001315D01*
X001809Y001266D01*
X001813Y001216D01*
X001813Y001166D01*
X001809Y001116D01*
X001801Y001067D01*
X001789Y001018D01*
X001773Y000970D01*
X001754Y000924D01*
X001731Y000880D01*
X001704Y000837D01*
X001674Y000797D01*
X001642Y000759D01*
X001606Y000724D01*
X001567Y000692D01*
X001526Y000663D01*
X001483Y000637D01*
X001438Y000615D01*
X001392Y000597D01*
X001344Y000582D01*
X001295Y000571D01*
X001246Y000564D01*
X001196Y000561D01*
X001145Y000562D01*
X001096Y000567D01*
X001046Y000576D01*
X000998Y000589D01*
X000951Y000605D01*
X000905Y000626D01*
X000861Y000650D01*
X000819Y000677D01*
X000779Y000707D01*
X000742Y000741D01*
X000708Y000778D01*
X000676Y000817D01*
X000648Y000858D01*
X000623Y000902D01*
X000602Y000947D01*
X000585Y000994D01*
X000571Y001042D01*
X000561Y001091D01*
X000555Y001141D01*
X000553Y001191D01*
X010887Y001191D02*
X010889Y001241D01*
X010895Y001291D01*
X010905Y001340D01*
X010919Y001388D01*
X010936Y001435D01*
X010957Y001480D01*
X010982Y001524D01*
X011010Y001565D01*
X011042Y001604D01*
X011076Y001641D01*
X011113Y001675D01*
X011153Y001705D01*
X011195Y001732D01*
X011239Y001756D01*
X011285Y001777D01*
X011332Y001793D01*
X011380Y001806D01*
X011430Y001815D01*
X011479Y001820D01*
X011530Y001821D01*
X011580Y001818D01*
X011629Y001811D01*
X011678Y001800D01*
X011726Y001785D01*
X011772Y001767D01*
X011817Y001745D01*
X011860Y001719D01*
X011901Y001690D01*
X011940Y001658D01*
X011976Y001623D01*
X012008Y001585D01*
X012038Y001545D01*
X012065Y001502D01*
X012088Y001458D01*
X012107Y001412D01*
X012123Y001364D01*
X012135Y001315D01*
X012143Y001266D01*
X012147Y001216D01*
X012147Y001166D01*
X012143Y001116D01*
X012135Y001067D01*
X012123Y001018D01*
X012107Y000970D01*
X012088Y000924D01*
X012065Y000880D01*
X012038Y000837D01*
X012008Y000797D01*
X011976Y000759D01*
X011940Y000724D01*
X011901Y000692D01*
X011860Y000663D01*
X011817Y000637D01*
X011772Y000615D01*
X011726Y000597D01*
X011678Y000582D01*
X011629Y000571D01*
X011580Y000564D01*
X011530Y000561D01*
X011479Y000562D01*
X011430Y000567D01*
X011380Y000576D01*
X011332Y000589D01*
X011285Y000605D01*
X011239Y000626D01*
X011195Y000650D01*
X011153Y000677D01*
X011113Y000707D01*
X011076Y000741D01*
X011042Y000778D01*
X011010Y000817D01*
X010982Y000858D01*
X010957Y000902D01*
X010936Y000947D01*
X010919Y000994D01*
X010905Y001042D01*
X010895Y001091D01*
X010889Y001141D01*
X010887Y001191D01*
X010887Y026281D02*
X010889Y026331D01*
X010895Y026381D01*
X010905Y026430D01*
X010919Y026478D01*
X010936Y026525D01*
X010957Y026570D01*
X010982Y026614D01*
X011010Y026655D01*
X011042Y026694D01*
X011076Y026731D01*
X011113Y026765D01*
X011153Y026795D01*
X011195Y026822D01*
X011239Y026846D01*
X011285Y026867D01*
X011332Y026883D01*
X011380Y026896D01*
X011430Y026905D01*
X011479Y026910D01*
X011530Y026911D01*
X011580Y026908D01*
X011629Y026901D01*
X011678Y026890D01*
X011726Y026875D01*
X011772Y026857D01*
X011817Y026835D01*
X011860Y026809D01*
X011901Y026780D01*
X011940Y026748D01*
X011976Y026713D01*
X012008Y026675D01*
X012038Y026635D01*
X012065Y026592D01*
X012088Y026548D01*
X012107Y026502D01*
X012123Y026454D01*
X012135Y026405D01*
X012143Y026356D01*
X012147Y026306D01*
X012147Y026256D01*
X012143Y026206D01*
X012135Y026157D01*
X012123Y026108D01*
X012107Y026060D01*
X012088Y026014D01*
X012065Y025970D01*
X012038Y025927D01*
X012008Y025887D01*
X011976Y025849D01*
X011940Y025814D01*
X011901Y025782D01*
X011860Y025753D01*
X011817Y025727D01*
X011772Y025705D01*
X011726Y025687D01*
X011678Y025672D01*
X011629Y025661D01*
X011580Y025654D01*
X011530Y025651D01*
X011479Y025652D01*
X011430Y025657D01*
X011380Y025666D01*
X011332Y025679D01*
X011285Y025695D01*
X011239Y025716D01*
X011195Y025740D01*
X011153Y025767D01*
X011113Y025797D01*
X011076Y025831D01*
X011042Y025868D01*
X011010Y025907D01*
X010982Y025948D01*
X010957Y025992D01*
X010936Y026037D01*
X010919Y026084D01*
X010905Y026132D01*
X010895Y026181D01*
X010889Y026231D01*
X010887Y026281D01*
X000553Y026281D02*
X000555Y026331D01*
X000561Y026381D01*
X000571Y026430D01*
X000585Y026478D01*
X000602Y026525D01*
X000623Y026570D01*
X000648Y026614D01*
X000676Y026655D01*
X000708Y026694D01*
X000742Y026731D01*
X000779Y026765D01*
X000819Y026795D01*
X000861Y026822D01*
X000905Y026846D01*
X000951Y026867D01*
X000998Y026883D01*
X001046Y026896D01*
X001096Y026905D01*
X001145Y026910D01*
X001196Y026911D01*
X001246Y026908D01*
X001295Y026901D01*
X001344Y026890D01*
X001392Y026875D01*
X001438Y026857D01*
X001483Y026835D01*
X001526Y026809D01*
X001567Y026780D01*
X001606Y026748D01*
X001642Y026713D01*
X001674Y026675D01*
X001704Y026635D01*
X001731Y026592D01*
X001754Y026548D01*
X001773Y026502D01*
X001789Y026454D01*
X001801Y026405D01*
X001809Y026356D01*
X001813Y026306D01*
X001813Y026256D01*
X001809Y026206D01*
X001801Y026157D01*
X001789Y026108D01*
X001773Y026060D01*
X001754Y026014D01*
X001731Y025970D01*
X001704Y025927D01*
X001674Y025887D01*
X001642Y025849D01*
X001606Y025814D01*
X001567Y025782D01*
X001526Y025753D01*
X001483Y025727D01*
X001438Y025705D01*
X001392Y025687D01*
X001344Y025672D01*
X001295Y025661D01*
X001246Y025654D01*
X001196Y025651D01*
X001145Y025652D01*
X001096Y025657D01*
X001046Y025666D01*
X000998Y025679D01*
X000951Y025695D01*
X000905Y025716D01*
X000861Y025740D01*
X000819Y025767D01*
X000779Y025797D01*
X000742Y025831D01*
X000708Y025868D01*
X000676Y025907D01*
X000648Y025948D01*
X000623Y025992D01*
X000602Y026037D01*
X000585Y026084D01*
X000571Y026132D01*
X000561Y026181D01*
X000555Y026231D01*
X000553Y026281D01*
D11*
X000554Y022087D02*
X001434Y022087D01*
X001434Y021500D02*
X000554Y021500D01*
X000554Y021166D02*
X001141Y021166D01*
X001434Y020873D01*
X001141Y020579D01*
X000554Y020579D01*
X000700Y020246D02*
X000554Y020099D01*
X000554Y019805D01*
X000700Y019659D01*
X000554Y019325D02*
X001434Y019325D01*
X001141Y019031D01*
X001434Y018738D01*
X000554Y018738D01*
X000554Y018404D02*
X001141Y018404D01*
X001434Y018111D01*
X001141Y017817D01*
X000554Y017817D01*
X000554Y017483D02*
X001434Y017483D01*
X000554Y016896D01*
X001434Y016896D01*
X000994Y017817D02*
X000994Y018404D01*
X001288Y019659D02*
X001434Y019805D01*
X001434Y020099D01*
X001288Y020246D01*
X000700Y020246D01*
X000994Y020579D02*
X000994Y021166D01*
X000994Y021500D02*
X000994Y022087D01*
X000554Y015642D02*
X001434Y015642D01*
X001141Y015348D01*
X001434Y015055D01*
X000554Y015055D01*
X000554Y014721D02*
X001141Y014721D01*
X001434Y014427D01*
X001141Y014134D01*
X000554Y014134D01*
X000554Y013507D02*
X001434Y013507D01*
X001434Y013800D02*
X001434Y013213D01*
X001434Y012879D02*
X001434Y012439D01*
X001288Y012292D01*
X000994Y012292D01*
X000847Y012439D01*
X000847Y012879D01*
X000847Y012586D02*
X000554Y012292D01*
X000554Y011959D02*
X000554Y011665D01*
X000554Y011812D02*
X001434Y011812D01*
X001434Y011959D02*
X001434Y011665D01*
X001434Y011345D02*
X000554Y010758D01*
X000554Y011345D02*
X001434Y010758D01*
X001434Y009503D02*
X001434Y009063D01*
X001288Y008916D01*
X001141Y008916D01*
X000994Y009063D01*
X000994Y009503D01*
X000994Y009063D02*
X000847Y008916D01*
X000700Y008916D01*
X000554Y009063D01*
X000554Y009503D01*
X001434Y009503D01*
X001288Y008582D02*
X000700Y008582D01*
X000554Y008436D01*
X000554Y008142D01*
X000700Y007995D01*
X001288Y007995D01*
X001434Y008142D01*
X001434Y008436D01*
X001288Y008582D01*
X001141Y007662D02*
X001434Y007368D01*
X001141Y007074D01*
X000554Y007074D01*
X000554Y006741D02*
X001434Y006741D01*
X001434Y006300D01*
X001288Y006154D01*
X000994Y006154D01*
X000847Y006300D01*
X000847Y006741D01*
X000847Y006447D02*
X000554Y006154D01*
X000554Y005820D02*
X000554Y005380D01*
X000700Y005233D01*
X001288Y005233D01*
X001434Y005380D01*
X001434Y005820D01*
X000554Y005820D01*
X000994Y007074D02*
X000994Y007662D01*
X001141Y007662D02*
X000554Y007662D01*
X000554Y012879D02*
X001434Y012879D01*
X000994Y014134D02*
X000994Y014721D01*
D12*
X002691Y015581D03*
X002691Y016581D03*
X002691Y018581D03*
X002691Y019581D03*
X002691Y021581D03*
X002691Y022581D03*
X002691Y024581D03*
X002691Y025581D03*
X003691Y025581D03*
X003691Y024581D03*
X003691Y022581D03*
X003691Y021581D03*
X003691Y019581D03*
X003691Y018581D03*
X003691Y016581D03*
X003691Y015581D03*
X003691Y013581D03*
X003691Y012581D03*
X003691Y010581D03*
X003691Y009581D03*
X004691Y009581D03*
X004691Y010581D03*
X004691Y012581D03*
X004691Y013581D03*
X004691Y015581D03*
X004691Y016581D03*
X004691Y018581D03*
X004691Y019581D03*
X004691Y021581D03*
X004691Y022581D03*
X004691Y024581D03*
X004691Y025581D03*
X005691Y025581D03*
X005691Y024581D03*
X005691Y022581D03*
X005691Y021581D03*
X005691Y019581D03*
X005691Y018581D03*
X005691Y016581D03*
X005691Y015581D03*
X005691Y013581D03*
X005691Y012581D03*
X005691Y010581D03*
X005691Y009581D03*
X006691Y009581D03*
X006691Y010581D03*
X006691Y012581D03*
X006691Y013581D03*
X006691Y015581D03*
X006691Y016581D03*
X006691Y018581D03*
X006691Y019581D03*
X006691Y021581D03*
X006691Y022581D03*
X006691Y024581D03*
X006691Y025581D03*
X007691Y025581D03*
X007691Y024581D03*
X008691Y024581D03*
X008691Y025581D03*
X009691Y025581D03*
X009691Y024581D03*
X009691Y022581D03*
X009691Y021581D03*
X009691Y019581D03*
X009691Y018581D03*
X009691Y016581D03*
X009691Y015581D03*
X009691Y013581D03*
X009691Y012581D03*
X009691Y010581D03*
X009691Y009581D03*
X008691Y009581D03*
X008691Y010581D03*
X007691Y010581D03*
X007691Y009581D03*
X007691Y007581D03*
X007691Y006581D03*
X008691Y006581D03*
X008691Y007581D03*
X009691Y007581D03*
X009691Y006581D03*
X009691Y004581D03*
X009691Y003581D03*
X008691Y003581D03*
X008691Y004581D03*
X007691Y004581D03*
X007691Y003581D03*
X006691Y003581D03*
X006691Y004581D03*
X005691Y004581D03*
X005691Y003581D03*
X004691Y003581D03*
X004691Y004581D03*
X003691Y004581D03*
X003691Y003581D03*
X002691Y003581D03*
X002691Y004581D03*
X002691Y006581D03*
X002691Y007581D03*
X003691Y007581D03*
X003691Y006581D03*
X004691Y006581D03*
X004691Y007581D03*
X005691Y007581D03*
X005691Y006581D03*
X006691Y006581D03*
X006691Y007581D03*
X007691Y012581D03*
X007691Y013581D03*
X008691Y013581D03*
X008691Y012581D03*
X008691Y015581D03*
X008691Y016581D03*
X007691Y016581D03*
X007691Y015581D03*
X007691Y018581D03*
X007691Y019581D03*
X008691Y019581D03*
X008691Y018581D03*
X008691Y021581D03*
X008691Y022581D03*
X007691Y022581D03*
X007691Y021581D03*
X002691Y013581D03*
X002691Y012581D03*
X002691Y010581D03*
X002691Y009581D03*
D13*
X002691Y001841D02*
X002691Y001321D01*
X003691Y001321D02*
X003691Y001841D01*
X004691Y001841D02*
X004691Y001321D01*
X005691Y001321D02*
X005691Y001841D01*
X006691Y001841D02*
X006691Y001321D01*
X007691Y001321D02*
X007691Y001841D01*
X008691Y001841D02*
X008691Y001321D01*
X009691Y001321D02*
X009691Y001841D01*
X011431Y011581D02*
X011951Y011581D01*
X011951Y012581D02*
X011431Y012581D01*
X011431Y013581D02*
X011951Y013581D01*
X011951Y014581D02*
X011431Y014581D01*
X011431Y015581D02*
X011951Y015581D01*
X011951Y016581D02*
X011431Y016581D01*
X011431Y017581D02*
X011951Y017581D01*
X011951Y018581D02*
X011431Y018581D01*
D14*
X009691Y017581D02*
X009191Y017581D01*
X009191Y014581D01*
X009691Y014581D01*
X009191Y014581D02*
X009191Y011581D01*
X009691Y011581D01*
X009191Y011581D02*
X009191Y008581D01*
X009691Y008581D01*
X009191Y008581D02*
X009191Y005581D01*
X009691Y005581D01*
X009191Y005581D02*
X009191Y002581D01*
X009691Y002581D01*
X008691Y002581D02*
X008191Y002581D01*
X008191Y005581D01*
X008691Y005581D01*
X008191Y005581D02*
X008191Y008581D01*
X008691Y008581D01*
X008191Y008581D02*
X008191Y011581D01*
X008691Y011581D01*
X008191Y011581D02*
X008191Y014581D01*
X008691Y014581D01*
X008191Y014581D02*
X008191Y017581D01*
X008691Y017581D01*
X009191Y017581D02*
X009191Y020581D01*
X009691Y020581D01*
X009191Y020581D02*
X009191Y023581D01*
X009691Y023581D01*
X008691Y023581D02*
X008191Y023581D01*
X008191Y020581D01*
X008691Y020581D01*
X008191Y020581D02*
X008191Y017581D01*
X007691Y017581D02*
X007191Y017581D01*
X007191Y014581D01*
X007691Y014581D01*
X007191Y014581D02*
X007191Y011581D01*
X007691Y011581D01*
X007191Y011581D02*
X007191Y008581D01*
X007691Y008581D01*
X007191Y008581D02*
X007191Y005581D01*
X007691Y005581D01*
X007191Y005581D02*
X007191Y002581D01*
X007691Y002581D01*
X006691Y002581D02*
X006191Y002581D01*
X006191Y005581D01*
X006691Y005581D01*
X006191Y005581D02*
X006191Y008581D01*
X006691Y008581D01*
X006191Y008581D02*
X006191Y011581D01*
X006691Y011581D01*
X006191Y011581D02*
X006191Y014581D01*
X006691Y014581D01*
X006191Y014581D02*
X006191Y017581D01*
X006691Y017581D01*
X007191Y017581D02*
X007191Y020581D01*
X007691Y020581D01*
X007191Y020581D02*
X007191Y023581D01*
X007691Y023581D01*
X006691Y023581D02*
X006191Y023581D01*
X006191Y020581D01*
X006691Y020581D01*
X006191Y020581D02*
X006191Y017581D01*
X005691Y017581D02*
X005191Y017581D01*
X005191Y014581D01*
X005691Y014581D01*
X005191Y014581D02*
X005191Y011581D01*
X005691Y011581D01*
X005191Y011581D02*
X005191Y008581D01*
X005691Y008581D01*
X005191Y008581D02*
X005191Y005581D01*
X005691Y005581D01*
X005191Y005581D02*
X005191Y002581D01*
X005691Y002581D01*
X004691Y002581D02*
X004191Y002581D01*
X004191Y005581D01*
X004691Y005581D01*
X004191Y005581D02*
X004191Y008581D01*
X004691Y008581D01*
X004191Y008581D02*
X004191Y011581D01*
X004691Y011581D01*
X004191Y011581D02*
X004191Y014581D01*
X004691Y014581D01*
X004191Y014581D02*
X004191Y017581D01*
X004691Y017581D01*
X005191Y017581D02*
X005191Y020581D01*
X005691Y020581D01*
X005191Y020581D02*
X005191Y023581D01*
X005691Y023581D01*
X004691Y023581D02*
X004191Y023581D01*
X004191Y020581D01*
X004691Y020581D01*
X004191Y020581D02*
X004191Y017581D01*
X003691Y017581D02*
X003191Y017581D01*
X003191Y014581D01*
X003691Y014581D01*
X003191Y014581D02*
X003191Y011581D01*
X003691Y011581D01*
X003191Y011581D02*
X003191Y008581D01*
X003691Y008581D01*
X003191Y008581D02*
X003191Y005581D01*
X003691Y005581D01*
X003191Y005581D02*
X003191Y002581D01*
X003691Y002581D01*
X002691Y002581D02*
X002191Y002581D01*
X002191Y005581D01*
X002691Y005581D01*
X002191Y005581D02*
X002191Y008581D01*
X002691Y008581D01*
X002191Y008581D02*
X002191Y011581D01*
X002691Y011581D01*
X002191Y011581D02*
X002191Y014581D01*
X002691Y014581D01*
X002191Y014581D02*
X002191Y017581D01*
X002691Y017581D01*
X003191Y017581D02*
X003191Y020581D01*
X003691Y020581D01*
X003191Y020581D02*
X003191Y023581D01*
X003691Y023581D01*
X002691Y023581D02*
X002191Y023581D01*
X002191Y020581D01*
X002691Y020581D01*
X002191Y020581D02*
X002191Y017581D01*
D15*
X002691Y017581D03*
X003691Y017581D03*
X004691Y017581D03*
X005691Y017581D03*
X006691Y017581D03*
X007691Y017581D03*
X008691Y017581D03*
X009691Y017581D03*
X009691Y014581D03*
X008691Y014581D03*
X007691Y014581D03*
X006691Y014581D03*
X005691Y014581D03*
X004691Y014581D03*
X003691Y014581D03*
X002691Y014581D03*
X002691Y011581D03*
X003691Y011581D03*
X004691Y011581D03*
X005691Y011581D03*
X006691Y011581D03*
X007691Y011581D03*
X008691Y011581D03*
X009691Y011581D03*
X009691Y008581D03*
X008691Y008581D03*
X007691Y008581D03*
X006691Y008581D03*
X005691Y008581D03*
X004691Y008581D03*
X003691Y008581D03*
X002691Y008581D03*
X002691Y005581D03*
X003691Y005581D03*
X004691Y005581D03*
X005691Y005581D03*
X006691Y005581D03*
X007691Y005581D03*
X008691Y005581D03*
X009691Y005581D03*
X009691Y002581D03*
X008691Y002581D03*
X007691Y002581D03*
X006691Y002581D03*
X005691Y002581D03*
X004691Y002581D03*
X003691Y002581D03*
X002691Y002581D03*
X002691Y020581D03*
X003691Y020581D03*
X004691Y020581D03*
X005691Y020581D03*
X006691Y020581D03*
X007691Y020581D03*
X008691Y020581D03*
X009691Y020581D03*
X009691Y023581D03*
X008691Y023581D03*
X007691Y023581D03*
X006691Y023581D03*
X005691Y023581D03*
X004691Y023581D03*
X003691Y023581D03*
X002691Y023581D03*
M02*
