%
M48
M72
T01C0.0315
T02C0.0320
T03C0.0354
T04C0.0360
T05C0.0400
T06C0.1181
%
T01
X11409Y17147
X11409Y17934
X11409Y18722
X11409Y19509
X11409Y20296
X11409Y21084
X11409Y21871
X11409Y22659
X11409Y23446
X11409Y24233
X20070Y24233
X20070Y23446
X20070Y22659
X20070Y21871
X20070Y21084
X20070Y20296
X20070Y19509
X20070Y18722
X20070Y17934
X20070Y17147
T02
X4689Y5890
X4689Y7890
X6089Y8590
X8089Y8590
X8289Y12640
X7289Y12640
X6289Y12640
X5289Y12640
X4289Y12640
X3289Y12640
X2289Y12640
X2289Y15640
X2289Y16990
X3289Y16990
X3289Y15640
X4289Y15640
X5289Y15640
X5289Y16990
X4289Y16990
X6289Y15640
X7289Y15640
X8289Y15640
X9289Y15640
X10289Y15640
X11289Y15640
X12289Y15640
X13289Y15640
X14289Y15640
X15289Y15640
X15289Y12640
X14289Y12640
X13289Y12640
X12289Y12640
X11289Y12640
X10289Y12640
X9289Y12640
X6889Y17590
X6889Y19490
X5289Y19990
X4289Y19990
X3289Y19990
X2289Y19990
T03
X4289Y11490
X4289Y10490
X5289Y10490
X5289Y11490
X6289Y11490
X6289Y10490
T04
X3139Y10490
X3139Y11490
X2139Y11490
X2139Y10490
X16239Y14740
X16239Y15740
X17239Y15740
X17239Y14740
T05
X12289Y10990
X11289Y10990
X10289Y10990
X9289Y10990
X9139Y21990
X8139Y21990
X7139Y21990
X6139Y21990
T06
X13439Y7240
X17589Y22740
M30
