G75*
G70*
%OFA0B0*%
%FSLAX24Y24*%
%IPPOS*%
%LPD*%
%AMOC8*
5,1,8,0,0,1.08239X$1,22.5*
%
%ADD10C,0.0000*%
%ADD11R,0.0800X0.0260*%
%ADD12R,0.0790X0.0590*%
%ADD13R,0.0790X0.1500*%
%ADD14R,0.1000X0.2000*%
%ADD15R,0.0512X0.0630*%
%ADD16R,0.0591X0.0512*%
D10*
X001189Y005227D02*
X001189Y024912D01*
X020874Y024912D01*
X020874Y005227D01*
X001189Y005227D01*
X012848Y007240D02*
X012850Y007288D01*
X012856Y007336D01*
X012866Y007383D01*
X012879Y007429D01*
X012897Y007474D01*
X012917Y007518D01*
X012942Y007560D01*
X012970Y007599D01*
X013000Y007636D01*
X013034Y007670D01*
X013071Y007702D01*
X013109Y007731D01*
X013150Y007756D01*
X013193Y007778D01*
X013238Y007796D01*
X013284Y007810D01*
X013331Y007821D01*
X013379Y007828D01*
X013427Y007831D01*
X013475Y007830D01*
X013523Y007825D01*
X013571Y007816D01*
X013617Y007804D01*
X013662Y007787D01*
X013706Y007767D01*
X013748Y007744D01*
X013788Y007717D01*
X013826Y007687D01*
X013861Y007654D01*
X013893Y007618D01*
X013923Y007580D01*
X013949Y007539D01*
X013971Y007496D01*
X013991Y007452D01*
X014006Y007407D01*
X014018Y007360D01*
X014026Y007312D01*
X014030Y007264D01*
X014030Y007216D01*
X014026Y007168D01*
X014018Y007120D01*
X014006Y007073D01*
X013991Y007028D01*
X013971Y006984D01*
X013949Y006941D01*
X013923Y006900D01*
X013893Y006862D01*
X013861Y006826D01*
X013826Y006793D01*
X013788Y006763D01*
X013748Y006736D01*
X013706Y006713D01*
X013662Y006693D01*
X013617Y006676D01*
X013571Y006664D01*
X013523Y006655D01*
X013475Y006650D01*
X013427Y006649D01*
X013379Y006652D01*
X013331Y006659D01*
X013284Y006670D01*
X013238Y006684D01*
X013193Y006702D01*
X013150Y006724D01*
X013109Y006749D01*
X013071Y006778D01*
X013034Y006810D01*
X013000Y006844D01*
X012970Y006881D01*
X012942Y006920D01*
X012917Y006962D01*
X012897Y007006D01*
X012879Y007051D01*
X012866Y007097D01*
X012856Y007144D01*
X012850Y007192D01*
X012848Y007240D01*
X016998Y022740D02*
X017000Y022788D01*
X017006Y022836D01*
X017016Y022883D01*
X017029Y022929D01*
X017047Y022974D01*
X017067Y023018D01*
X017092Y023060D01*
X017120Y023099D01*
X017150Y023136D01*
X017184Y023170D01*
X017221Y023202D01*
X017259Y023231D01*
X017300Y023256D01*
X017343Y023278D01*
X017388Y023296D01*
X017434Y023310D01*
X017481Y023321D01*
X017529Y023328D01*
X017577Y023331D01*
X017625Y023330D01*
X017673Y023325D01*
X017721Y023316D01*
X017767Y023304D01*
X017812Y023287D01*
X017856Y023267D01*
X017898Y023244D01*
X017938Y023217D01*
X017976Y023187D01*
X018011Y023154D01*
X018043Y023118D01*
X018073Y023080D01*
X018099Y023039D01*
X018121Y022996D01*
X018141Y022952D01*
X018156Y022907D01*
X018168Y022860D01*
X018176Y022812D01*
X018180Y022764D01*
X018180Y022716D01*
X018176Y022668D01*
X018168Y022620D01*
X018156Y022573D01*
X018141Y022528D01*
X018121Y022484D01*
X018099Y022441D01*
X018073Y022400D01*
X018043Y022362D01*
X018011Y022326D01*
X017976Y022293D01*
X017938Y022263D01*
X017898Y022236D01*
X017856Y022213D01*
X017812Y022193D01*
X017767Y022176D01*
X017721Y022164D01*
X017673Y022155D01*
X017625Y022150D01*
X017577Y022149D01*
X017529Y022152D01*
X017481Y022159D01*
X017434Y022170D01*
X017388Y022184D01*
X017343Y022202D01*
X017300Y022224D01*
X017259Y022249D01*
X017221Y022278D01*
X017184Y022310D01*
X017150Y022344D01*
X017120Y022381D01*
X017092Y022420D01*
X017067Y022462D01*
X017047Y022506D01*
X017029Y022551D01*
X017016Y022597D01*
X017006Y022644D01*
X017000Y022692D01*
X016998Y022740D01*
D11*
X015809Y011740D03*
X015809Y011240D03*
X015809Y010740D03*
X015809Y010240D03*
X015809Y009740D03*
X015809Y009240D03*
X015809Y008740D03*
X015809Y008240D03*
X015809Y007740D03*
X015809Y007240D03*
X015809Y006740D03*
X015809Y006240D03*
X019769Y006240D03*
X019769Y006740D03*
X019769Y007240D03*
X019769Y007740D03*
X019769Y008240D03*
X019769Y008740D03*
X019769Y009240D03*
X019769Y009740D03*
X019769Y010240D03*
X019769Y010740D03*
X019769Y011240D03*
X019769Y011740D03*
D12*
X008499Y007800D03*
X008499Y006900D03*
X008499Y006000D03*
D13*
X010979Y006890D03*
D14*
X003039Y006540D03*
X002039Y006540D03*
X002039Y008790D03*
X003039Y008790D03*
D15*
X005396Y018190D03*
X006183Y018190D03*
X006183Y019040D03*
X005396Y019040D03*
D16*
X005139Y009364D03*
X005139Y008616D03*
M02*
