G75*
G70*
%OFA0B0*%
%FSLAX24Y24*%
%IPPOS*%
%LPD*%
%AMOC8*
5,1,8,0,0,1.08239X$1,22.5*
%
%ADD10C,0.0000*%
%ADD11C,0.0680*%
%ADD12C,0.0560*%
%ADD13C,0.0640*%
%ADD14C,0.0555*%
%ADD15C,0.0790*%
%ADD16OC8,0.0790*%
%ADD17C,0.0560*%
%ADD18C,0.1221*%
%ADD19OC8,0.0600*%
%ADD20R,0.0631X0.0631*%
%ADD21R,0.0631X0.0552*%
D10*
X001189Y005227D02*
X001189Y024912D01*
X020874Y024912D01*
X020874Y005227D01*
X001189Y005227D01*
X012848Y007240D02*
X012850Y007288D01*
X012856Y007336D01*
X012866Y007383D01*
X012879Y007429D01*
X012897Y007474D01*
X012917Y007518D01*
X012942Y007560D01*
X012970Y007599D01*
X013000Y007636D01*
X013034Y007670D01*
X013071Y007702D01*
X013109Y007731D01*
X013150Y007756D01*
X013193Y007778D01*
X013238Y007796D01*
X013284Y007810D01*
X013331Y007821D01*
X013379Y007828D01*
X013427Y007831D01*
X013475Y007830D01*
X013523Y007825D01*
X013571Y007816D01*
X013617Y007804D01*
X013662Y007787D01*
X013706Y007767D01*
X013748Y007744D01*
X013788Y007717D01*
X013826Y007687D01*
X013861Y007654D01*
X013893Y007618D01*
X013923Y007580D01*
X013949Y007539D01*
X013971Y007496D01*
X013991Y007452D01*
X014006Y007407D01*
X014018Y007360D01*
X014026Y007312D01*
X014030Y007264D01*
X014030Y007216D01*
X014026Y007168D01*
X014018Y007120D01*
X014006Y007073D01*
X013991Y007028D01*
X013971Y006984D01*
X013949Y006941D01*
X013923Y006900D01*
X013893Y006862D01*
X013861Y006826D01*
X013826Y006793D01*
X013788Y006763D01*
X013748Y006736D01*
X013706Y006713D01*
X013662Y006693D01*
X013617Y006676D01*
X013571Y006664D01*
X013523Y006655D01*
X013475Y006650D01*
X013427Y006649D01*
X013379Y006652D01*
X013331Y006659D01*
X013284Y006670D01*
X013238Y006684D01*
X013193Y006702D01*
X013150Y006724D01*
X013109Y006749D01*
X013071Y006778D01*
X013034Y006810D01*
X013000Y006844D01*
X012970Y006881D01*
X012942Y006920D01*
X012917Y006962D01*
X012897Y007006D01*
X012879Y007051D01*
X012866Y007097D01*
X012856Y007144D01*
X012850Y007192D01*
X012848Y007240D01*
X016998Y022740D02*
X017000Y022788D01*
X017006Y022836D01*
X017016Y022883D01*
X017029Y022929D01*
X017047Y022974D01*
X017067Y023018D01*
X017092Y023060D01*
X017120Y023099D01*
X017150Y023136D01*
X017184Y023170D01*
X017221Y023202D01*
X017259Y023231D01*
X017300Y023256D01*
X017343Y023278D01*
X017388Y023296D01*
X017434Y023310D01*
X017481Y023321D01*
X017529Y023328D01*
X017577Y023331D01*
X017625Y023330D01*
X017673Y023325D01*
X017721Y023316D01*
X017767Y023304D01*
X017812Y023287D01*
X017856Y023267D01*
X017898Y023244D01*
X017938Y023217D01*
X017976Y023187D01*
X018011Y023154D01*
X018043Y023118D01*
X018073Y023080D01*
X018099Y023039D01*
X018121Y022996D01*
X018141Y022952D01*
X018156Y022907D01*
X018168Y022860D01*
X018176Y022812D01*
X018180Y022764D01*
X018180Y022716D01*
X018176Y022668D01*
X018168Y022620D01*
X018156Y022573D01*
X018141Y022528D01*
X018121Y022484D01*
X018099Y022441D01*
X018073Y022400D01*
X018043Y022362D01*
X018011Y022326D01*
X017976Y022293D01*
X017938Y022263D01*
X017898Y022236D01*
X017856Y022213D01*
X017812Y022193D01*
X017767Y022176D01*
X017721Y022164D01*
X017673Y022155D01*
X017625Y022150D01*
X017577Y022149D01*
X017529Y022152D01*
X017481Y022159D01*
X017434Y022170D01*
X017388Y022184D01*
X017343Y022202D01*
X017300Y022224D01*
X017259Y022249D01*
X017221Y022278D01*
X017184Y022310D01*
X017150Y022344D01*
X017120Y022381D01*
X017092Y022420D01*
X017067Y022462D01*
X017047Y022506D01*
X017029Y022551D01*
X017016Y022597D01*
X017006Y022644D01*
X017000Y022692D01*
X016998Y022740D01*
D11*
X006289Y011490D03*
X006289Y010490D03*
X005289Y010490D03*
X005289Y011490D03*
X004289Y011490D03*
X004289Y010490D03*
D12*
X004289Y012380D02*
X004289Y012900D01*
X005289Y012900D02*
X005289Y012380D01*
X006289Y012380D02*
X006289Y012900D01*
X007289Y012900D02*
X007289Y012380D01*
X008289Y012380D02*
X008289Y012900D01*
X009289Y012900D02*
X009289Y012380D01*
X010289Y012380D02*
X010289Y012900D01*
X011289Y012900D02*
X011289Y012380D01*
X012289Y012380D02*
X012289Y012900D01*
X013289Y012900D02*
X013289Y012380D01*
X014289Y012380D02*
X014289Y012900D01*
X015289Y012900D02*
X015289Y012380D01*
X015289Y015380D02*
X015289Y015900D01*
X014289Y015900D02*
X014289Y015380D01*
X013289Y015380D02*
X013289Y015900D01*
X012289Y015900D02*
X012289Y015380D01*
X011289Y015380D02*
X011289Y015900D01*
X010289Y015900D02*
X010289Y015380D01*
X009289Y015380D02*
X009289Y015900D01*
X008289Y015900D02*
X008289Y015380D01*
X007289Y015380D02*
X007289Y015900D01*
X006289Y015900D02*
X006289Y015380D01*
X005289Y015380D02*
X005289Y015900D01*
X005289Y016730D02*
X005289Y017250D01*
X004289Y017250D02*
X004289Y016730D01*
X004289Y015900D02*
X004289Y015380D01*
X003289Y015380D02*
X003289Y015900D01*
X003289Y016730D02*
X003289Y017250D01*
X002289Y017250D02*
X002289Y016730D01*
X002289Y015900D02*
X002289Y015380D01*
X002289Y012900D02*
X002289Y012380D01*
X003289Y012380D02*
X003289Y012900D01*
X003289Y019730D02*
X003289Y020250D01*
X002289Y020250D02*
X002289Y019730D01*
X004289Y019730D02*
X004289Y020250D01*
X005289Y020250D02*
X005289Y019730D01*
D13*
X006139Y021690D02*
X006139Y022290D01*
X007139Y022290D02*
X007139Y021690D01*
X008139Y021690D02*
X008139Y022290D01*
X009139Y022290D02*
X009139Y021690D01*
X009289Y011290D02*
X009289Y010690D01*
X010289Y010690D02*
X010289Y011290D01*
X011289Y011290D02*
X011289Y010690D01*
X012289Y010690D02*
X012289Y011290D01*
D14*
X011409Y017147D03*
X011409Y017934D03*
X011409Y018722D03*
X011409Y019509D03*
X011409Y020296D03*
X011409Y021084D03*
X011409Y021871D03*
X011409Y022659D03*
X011409Y023446D03*
X011409Y024233D03*
X020070Y024233D03*
X020070Y023446D03*
X020070Y022659D03*
X020070Y021871D03*
X020070Y021084D03*
X020070Y020296D03*
X020070Y019509D03*
X020070Y018722D03*
X020070Y017934D03*
X020070Y017147D03*
D15*
X006089Y008590D03*
X004689Y005890D03*
D16*
X004689Y007890D03*
X008089Y008590D03*
D17*
X006889Y017590D03*
X006889Y019490D03*
D18*
X013439Y007240D03*
X017589Y022740D03*
D19*
X017239Y015740D03*
X017239Y014740D03*
X016239Y014740D03*
X016239Y015740D03*
X003139Y011490D03*
X003139Y010490D03*
X002139Y010490D03*
X002139Y011490D03*
D20*
X004200Y009490D03*
X005578Y009490D03*
X010589Y018901D03*
X010589Y020279D03*
D21*
X010589Y018014D03*
X010589Y017266D03*
X007389Y011064D03*
X007389Y010316D03*
M02*
