G75*
G70*
%OFA0B0*%
%FSLAX24Y24*%
%IPPOS*%
%LPD*%
%AMOC8*
5,1,8,0,0,1.08239X$1,22.5*
%
%ADD10C,0.0060*%
%ADD11C,0.0100*%
%ADD12C,0.0040*%
%ADD13C,0.0400*%
D10*
X017912Y008000D02*
X018019Y008000D01*
X018232Y008000D02*
X018766Y008000D01*
X018873Y007894D01*
X018873Y007787D01*
X018553Y007569D02*
X018659Y007463D01*
X018659Y007249D01*
X018553Y007142D01*
X018339Y007142D01*
X018232Y007249D01*
X018232Y007463D01*
X018339Y007569D01*
X018553Y007569D01*
X018553Y008217D02*
X018339Y008217D01*
X018232Y008323D01*
X018232Y008537D01*
X018339Y008644D01*
X018446Y008644D01*
X018446Y008217D01*
X018553Y008217D02*
X018659Y008323D01*
X018659Y008537D01*
X018553Y008861D02*
X018659Y008968D01*
X018659Y009288D01*
X018553Y009612D02*
X018659Y009719D01*
X018553Y009612D02*
X018126Y009612D01*
X018232Y009506D02*
X018232Y009719D01*
X018339Y009935D02*
X018339Y010362D01*
X018553Y010580D02*
X018446Y010687D01*
X018446Y011007D01*
X018339Y011007D02*
X018232Y010900D01*
X018232Y010687D01*
X018339Y011007D02*
X018659Y011007D01*
X018659Y010687D01*
X018553Y010580D01*
X018339Y011224D02*
X018339Y011651D01*
X018339Y011869D02*
X018232Y011976D01*
X018232Y012296D01*
X018446Y012189D02*
X018446Y011976D01*
X018339Y011869D01*
X018446Y012189D02*
X018553Y012296D01*
X018659Y012189D01*
X018659Y011869D01*
X018659Y012513D02*
X018019Y012513D01*
X018232Y012834D02*
X018446Y012513D01*
X018659Y012834D01*
X018553Y013051D02*
X018339Y013051D01*
X018232Y013157D01*
X018232Y013371D01*
X018339Y013478D01*
X018446Y013478D01*
X018446Y013051D01*
X018553Y013051D02*
X018659Y013157D01*
X018659Y013371D01*
X018553Y013802D02*
X018659Y013909D01*
X018553Y013802D02*
X018126Y013802D01*
X018232Y013695D02*
X018232Y013909D01*
X018339Y014125D02*
X018553Y014125D01*
X018659Y014231D01*
X018659Y014552D01*
X018659Y014769D02*
X018019Y014769D01*
X018232Y014876D02*
X018232Y015089D01*
X018339Y015196D01*
X018659Y015196D01*
X018339Y014769D02*
X018232Y014876D01*
X018232Y014552D02*
X018232Y014231D01*
X018339Y014125D01*
X018126Y016058D02*
X018019Y016165D01*
X018019Y016379D01*
X018126Y016485D01*
X018232Y016485D01*
X018659Y016058D01*
X018659Y016485D01*
X018659Y016703D02*
X018553Y016703D01*
X018553Y016810D01*
X018659Y016810D01*
X018659Y016703D01*
X018553Y017025D02*
X018126Y017452D01*
X018553Y017452D01*
X018659Y017345D01*
X018659Y017132D01*
X018553Y017025D01*
X018126Y017025D01*
X018019Y017132D01*
X018019Y017345D01*
X018126Y017452D01*
X018232Y009288D02*
X018232Y008968D01*
X018339Y008861D01*
X018553Y008861D01*
X018232Y006926D02*
X018232Y006819D01*
X018446Y006605D01*
X018659Y006605D02*
X018232Y006605D01*
X018126Y006388D02*
X018339Y006388D01*
X018446Y006281D01*
X018446Y005961D01*
X018659Y005961D02*
X018019Y005961D01*
X018019Y006281D01*
X018126Y006388D01*
D11*
X012939Y008040D02*
X012939Y011790D01*
X008789Y011790D01*
X008789Y008090D01*
X009939Y020790D02*
X005439Y020790D01*
X005439Y024890D01*
X009939Y024890D02*
X009939Y020790D01*
D12*
X005306Y006320D02*
X004959Y006320D01*
X005133Y006147D02*
X005133Y006494D01*
X005059Y007570D02*
X005406Y007570D01*
X006459Y008070D02*
X006806Y008070D01*
X006633Y007897D02*
X006633Y008244D01*
X007459Y008070D02*
X007806Y008070D01*
X003369Y009210D02*
X003369Y009470D01*
X003283Y009557D01*
X003196Y009557D01*
X003109Y009470D01*
X003109Y009210D01*
X002849Y009210D02*
X002849Y009470D01*
X002936Y009557D01*
X003022Y009557D01*
X003109Y009470D01*
X002936Y009726D02*
X002849Y009812D01*
X002849Y009986D01*
X002936Y010073D01*
X003022Y010073D01*
X003369Y009726D01*
X003369Y010073D01*
X003369Y009210D02*
X002849Y009210D01*
X002419Y009260D02*
X002419Y009520D01*
X002333Y009607D01*
X002246Y009607D01*
X002159Y009520D01*
X002159Y009260D01*
X002419Y009260D02*
X001899Y009260D01*
X001899Y009520D01*
X001986Y009607D01*
X002072Y009607D01*
X002159Y009520D01*
X002072Y009776D02*
X001899Y009949D01*
X002419Y009949D01*
X002419Y009776D02*
X002419Y010123D01*
X006596Y020010D02*
X006509Y020097D01*
X006509Y020444D01*
X006596Y020531D01*
X006769Y020531D01*
X006856Y020444D01*
X006856Y020097D01*
X006769Y020010D01*
X006596Y020010D01*
X006683Y020184D02*
X006856Y020010D01*
X007025Y020097D02*
X007112Y020010D01*
X007285Y020010D01*
X007372Y020097D01*
X007372Y020531D01*
X007541Y020357D02*
X007541Y020010D01*
X007541Y020270D02*
X007887Y020270D01*
X007887Y020357D02*
X007887Y020010D01*
X008056Y020010D02*
X008056Y020531D01*
X008316Y020531D01*
X008403Y020444D01*
X008403Y020097D01*
X008316Y020010D01*
X008056Y020010D01*
X007887Y020357D02*
X007714Y020531D01*
X007541Y020357D01*
X007025Y020531D02*
X007025Y020097D01*
X008572Y020010D02*
X008919Y020357D01*
X008919Y020444D01*
X008832Y020531D01*
X008659Y020531D01*
X008572Y020444D01*
X008572Y020010D02*
X008919Y020010D01*
X009549Y020023D02*
X009896Y019676D01*
X009809Y019762D02*
X010069Y020023D01*
X010069Y019676D02*
X009549Y019676D01*
X009636Y019507D02*
X009549Y019420D01*
X009549Y019247D01*
X009636Y019160D01*
X009983Y019160D01*
X010069Y019247D01*
X010069Y019420D01*
X009983Y019507D01*
X009636Y019507D01*
X010709Y024010D02*
X011056Y024010D01*
X010883Y024010D02*
X010883Y024531D01*
X010709Y024357D01*
X015333Y017031D02*
X015333Y016510D01*
X015506Y016510D02*
X015159Y016510D01*
X015159Y016857D02*
X015333Y017031D01*
X016309Y016731D02*
X016309Y016210D01*
X016569Y016210D01*
X016656Y016297D01*
X016656Y016384D01*
X016569Y016470D01*
X016309Y016470D01*
X016569Y016470D02*
X016656Y016557D01*
X016656Y016644D01*
X016569Y016731D01*
X016309Y016731D01*
X016825Y016644D02*
X016912Y016731D01*
X017085Y016731D01*
X017172Y016644D01*
X017172Y016557D01*
X017085Y016470D01*
X017172Y016384D01*
X017172Y016297D01*
X017085Y016210D01*
X016912Y016210D01*
X016825Y016297D01*
X016998Y016470D02*
X017085Y016470D01*
X017035Y014231D02*
X016775Y013970D01*
X017122Y013970D01*
X017035Y013710D02*
X017035Y014231D01*
X016606Y014144D02*
X016606Y014057D01*
X016519Y013970D01*
X016259Y013970D01*
X016259Y013710D02*
X016259Y014231D01*
X016519Y014231D01*
X016606Y014144D01*
X016519Y013970D02*
X016606Y013884D01*
X016606Y013797D01*
X016519Y013710D01*
X016259Y013710D01*
X018949Y015554D02*
X019469Y015554D01*
X019469Y015385D02*
X019122Y015385D01*
X019296Y015554D02*
X019122Y015814D01*
X019296Y015554D02*
X019469Y015814D01*
X019799Y015698D02*
X020319Y015698D01*
X020319Y015529D02*
X019972Y015529D01*
X020146Y015698D02*
X019972Y015958D01*
X020146Y015698D02*
X020319Y015958D01*
X020319Y015529D02*
X020319Y015269D01*
X020233Y015182D01*
X019972Y015182D01*
X020233Y015011D02*
X020233Y014924D01*
X020319Y014924D01*
X020319Y015011D01*
X020233Y015011D01*
X020233Y014755D02*
X020059Y014755D01*
X019972Y014669D01*
X019972Y014495D01*
X020059Y014408D01*
X020233Y014408D01*
X020319Y014495D01*
X020319Y014669D01*
X020233Y014755D01*
X020319Y014240D02*
X020319Y013980D01*
X020233Y013893D01*
X020059Y013893D01*
X019972Y013980D01*
X019972Y014240D01*
X020233Y013722D02*
X020319Y013722D01*
X020319Y013635D01*
X020233Y013635D01*
X020233Y013722D01*
X020319Y013465D02*
X020233Y013378D01*
X019886Y013378D01*
X019972Y013291D02*
X019972Y013465D01*
X019972Y013123D02*
X020059Y013036D01*
X020146Y013123D01*
X020233Y013123D01*
X020319Y013036D01*
X020319Y012862D01*
X020233Y012776D01*
X020233Y012607D02*
X020319Y012520D01*
X020319Y012347D01*
X020233Y012260D01*
X020319Y012090D02*
X020319Y011916D01*
X020319Y012003D02*
X019799Y012003D01*
X019799Y011916D01*
X019972Y011747D02*
X020146Y011487D01*
X020319Y011747D01*
X020319Y011487D02*
X019799Y011487D01*
X019972Y011231D02*
X020059Y011318D01*
X020319Y011318D01*
X020319Y010971D02*
X019972Y010971D01*
X019972Y011231D01*
X019972Y010714D02*
X020319Y010714D01*
X020319Y010627D02*
X020319Y010801D01*
X020319Y010459D02*
X020059Y010459D01*
X019972Y010372D01*
X019972Y010198D01*
X020059Y010112D01*
X019972Y009941D02*
X019972Y009768D01*
X019886Y009855D02*
X020233Y009855D01*
X020319Y009941D01*
X020319Y010112D02*
X019799Y010112D01*
X019469Y009968D02*
X018949Y009968D01*
X018949Y009799D02*
X019469Y009452D01*
X019799Y009599D02*
X020319Y009252D01*
X020319Y008737D02*
X019799Y009084D01*
X019469Y008937D02*
X018949Y009284D01*
X019122Y008766D02*
X019209Y008766D01*
X019209Y008679D01*
X019122Y008679D01*
X019122Y008766D01*
X019383Y008766D02*
X019469Y008766D01*
X019469Y008679D01*
X019383Y008679D01*
X019383Y008766D01*
X019383Y008510D02*
X019209Y008510D01*
X019122Y008423D01*
X019122Y008163D01*
X019643Y008163D01*
X019469Y008163D02*
X019469Y008423D01*
X019383Y008510D01*
X019469Y007993D02*
X019383Y007906D01*
X019036Y007906D01*
X019122Y007819D02*
X019122Y007993D01*
X019122Y007649D02*
X019122Y007476D01*
X019036Y007562D02*
X019383Y007562D01*
X019469Y007649D01*
X019469Y007307D02*
X019209Y007307D01*
X019122Y007220D01*
X019122Y007047D01*
X019209Y006960D01*
X018949Y006960D02*
X019469Y006960D01*
X019799Y006760D02*
X020319Y006760D01*
X020319Y007107D02*
X020059Y007107D01*
X019972Y007020D01*
X019972Y006847D01*
X020059Y006760D01*
X019972Y007276D02*
X019972Y007449D01*
X019886Y007362D02*
X020233Y007362D01*
X020319Y007449D01*
X020233Y007706D02*
X020319Y007793D01*
X020233Y007706D02*
X019886Y007706D01*
X019972Y007619D02*
X019972Y007793D01*
X019972Y007963D02*
X019972Y008223D01*
X020059Y008310D01*
X020233Y008310D01*
X020319Y008223D01*
X020319Y007963D01*
X020493Y007963D02*
X019972Y007963D01*
X019972Y008479D02*
X020059Y008479D01*
X020059Y008566D01*
X019972Y008566D01*
X019972Y008479D01*
X020233Y008479D02*
X020319Y008479D01*
X020319Y008566D01*
X020233Y008566D01*
X020233Y008479D01*
X019209Y009968D02*
X019122Y010055D01*
X019122Y010228D01*
X019209Y010315D01*
X019469Y010315D01*
X019383Y010484D02*
X019469Y010570D01*
X019469Y010830D01*
X019209Y010830D01*
X019122Y010744D01*
X019122Y010570D01*
X019296Y010570D02*
X019296Y010830D01*
X019209Y010999D02*
X019383Y010999D01*
X019469Y011086D01*
X019469Y011346D01*
X019469Y011515D02*
X019122Y011515D01*
X019122Y011601D01*
X019209Y011688D01*
X019122Y011775D01*
X019209Y011862D01*
X019469Y011862D01*
X019469Y011688D02*
X019209Y011688D01*
X019122Y011346D02*
X019122Y011086D01*
X019209Y010999D01*
X019296Y010570D02*
X019383Y010484D01*
X019712Y010714D02*
X019799Y010714D01*
X019972Y010714D02*
X019972Y010627D01*
X019383Y012030D02*
X019296Y012117D01*
X019296Y012377D01*
X019209Y012377D02*
X019469Y012377D01*
X019469Y012117D01*
X019383Y012030D01*
X019122Y012117D02*
X019122Y012291D01*
X019209Y012377D01*
X019122Y012546D02*
X019122Y012806D01*
X019209Y012893D01*
X019469Y012893D01*
X019469Y013062D02*
X019383Y013062D01*
X019383Y013148D01*
X019469Y013148D01*
X019469Y013062D01*
X019383Y013319D02*
X019469Y013406D01*
X019469Y013580D01*
X019383Y013666D01*
X019209Y013666D01*
X019122Y013580D01*
X019122Y013406D01*
X019209Y013319D01*
X019383Y013319D01*
X019469Y013835D02*
X019122Y013835D01*
X019122Y014009D02*
X019122Y014095D01*
X019122Y014009D02*
X019296Y013835D01*
X019209Y014265D02*
X019383Y014265D01*
X019469Y014351D01*
X019469Y014612D01*
X019556Y014612D02*
X019122Y014612D01*
X019122Y014351D01*
X019209Y014265D01*
X019643Y014438D02*
X019643Y014525D01*
X019556Y014612D01*
X019469Y014780D02*
X019469Y014867D01*
X019383Y014867D01*
X019383Y014780D01*
X019469Y014780D01*
X019383Y015038D02*
X019469Y015125D01*
X019469Y015385D01*
X019383Y015038D02*
X019122Y015038D01*
X019886Y013123D02*
X019799Y013036D01*
X019799Y012862D01*
X019886Y012776D01*
X019886Y012607D02*
X019799Y012520D01*
X019799Y012347D01*
X019886Y012260D01*
X020059Y012434D02*
X020059Y012520D01*
X020146Y012607D01*
X020233Y012607D01*
X020059Y012520D02*
X019972Y012607D01*
X019886Y012607D01*
X020059Y012949D02*
X020059Y013036D01*
X019972Y013123D02*
X019886Y013123D01*
X019469Y012546D02*
X019122Y012546D01*
X013769Y011520D02*
X013769Y011173D01*
X013769Y011346D02*
X013249Y011346D01*
X013422Y011173D01*
X013336Y011004D02*
X013249Y010917D01*
X013249Y010657D01*
X013769Y010657D01*
X013769Y010917D01*
X013683Y011004D01*
X013336Y011004D01*
X013422Y010488D02*
X013249Y010315D01*
X013422Y010141D01*
X013769Y010141D01*
X013683Y009973D02*
X013249Y009973D01*
X013422Y010488D02*
X013769Y010488D01*
X013509Y010488D02*
X013509Y010141D01*
X013683Y009973D02*
X013769Y009886D01*
X013769Y009712D01*
X013683Y009626D01*
X013249Y009626D01*
X013336Y009457D02*
X013249Y009370D01*
X013249Y009197D01*
X013336Y009110D01*
X013683Y009110D01*
X013769Y009197D01*
X013769Y009370D01*
X013683Y009457D01*
X013336Y009457D01*
X013596Y009284D02*
X013769Y009457D01*
X004433Y020810D02*
X004519Y020897D01*
X004519Y021070D01*
X004433Y021157D01*
X003999Y021157D01*
X003999Y020810D02*
X004433Y020810D01*
X004519Y021326D02*
X003999Y021673D01*
X003999Y021841D02*
X003999Y022102D01*
X004086Y022188D01*
X004433Y022188D01*
X004519Y022102D01*
X004519Y021841D01*
X003999Y021841D01*
X003469Y021891D02*
X002949Y021891D01*
X002949Y022152D01*
X003036Y022238D01*
X003209Y022238D01*
X003296Y022152D01*
X003296Y021891D01*
X003296Y022065D02*
X003469Y022238D01*
X002949Y021723D02*
X003469Y021376D01*
X003469Y021207D02*
X003469Y020860D01*
X002949Y020860D01*
X002569Y020810D02*
X002049Y020810D01*
X002049Y021157D01*
X002049Y021326D02*
X002569Y021326D01*
X002569Y021673D01*
X002569Y021841D02*
X002569Y022015D01*
X002569Y021928D02*
X002049Y021928D01*
X002049Y021841D02*
X002049Y022015D01*
X002049Y022185D02*
X002049Y022445D01*
X002136Y022532D01*
X002309Y022532D01*
X002396Y022445D01*
X002396Y022185D01*
X002569Y022185D02*
X002049Y022185D01*
X002309Y020984D02*
X002309Y020810D01*
D13*
X013939Y023540D02*
X015439Y023540D01*
X014689Y024290D01*
X013939Y023540D01*
X014689Y024290D02*
X014689Y021290D01*
M02*
