%
M48
M72
T01C0.0236
T02C0.0315
T03C0.0320
%
T01
X9606Y5927
X10806Y9327
T02
X2263Y1597
X3050Y1597
X3838Y1597
X4625Y1597
X5413Y1597
X6200Y1597
X6987Y1597
X7775Y1597
X8562Y1597
X9350Y1597
X9350Y10258
X8562Y10258
X7775Y10258
X6987Y10258
X6200Y10258
X5413Y10258
X4625Y10258
X3838Y10258
X3050Y10258
X2263Y10258
T03
X7806Y8427
X7806Y7427
X7806Y6427
X7806Y5427
X7806Y4427
X7806Y3427
M30
