G75*
G70*
%OFA0B0*%
%FSLAX24Y24*%
%IPPOS*%
%LPD*%
%AMOC8*
5,1,8,0,0,1.08239X$1,22.5*
%
%ADD10C,0.0000*%
%ADD11C,0.0515*%
%ADD12C,0.0520*%
%ADD13R,0.0591X0.0591*%
%ADD14R,0.0512X0.0630*%
%ADD15C,0.0240*%
%ADD16C,0.0356*%
D10*
X001606Y001227D02*
X001806Y001027D01*
X009406Y001027D01*
X009527Y001033D01*
X009648Y001044D01*
X009768Y001061D01*
X009888Y001083D01*
X010006Y001111D01*
X010122Y001145D01*
X010237Y001184D01*
X010350Y001229D01*
X010461Y001279D01*
X010569Y001334D01*
X010674Y001394D01*
X010776Y001459D01*
X010876Y001529D01*
X010971Y001604D01*
X011063Y001683D01*
X011152Y001766D01*
X011236Y001854D01*
X011316Y001945D01*
X011391Y002040D01*
X011462Y002139D01*
X011528Y002241D01*
X011589Y002346D01*
X011645Y002453D01*
X011696Y002563D01*
X011741Y002676D01*
X011782Y002790D01*
X011816Y002907D01*
X011845Y003025D01*
X011869Y003144D01*
X011887Y003264D01*
X011899Y003384D01*
X011905Y003506D01*
X011906Y003627D01*
X011906Y008227D01*
X011905Y008348D01*
X011899Y008470D01*
X011887Y008590D01*
X011869Y008710D01*
X011845Y008829D01*
X011816Y008947D01*
X011782Y009064D01*
X011741Y009178D01*
X011696Y009291D01*
X011645Y009401D01*
X011589Y009508D01*
X011528Y009613D01*
X011462Y009715D01*
X011391Y009814D01*
X011316Y009909D01*
X011236Y010000D01*
X011152Y010088D01*
X011063Y010171D01*
X010971Y010250D01*
X010876Y010325D01*
X010776Y010395D01*
X010674Y010460D01*
X010569Y010520D01*
X010461Y010575D01*
X010350Y010625D01*
X010237Y010670D01*
X010122Y010709D01*
X010006Y010743D01*
X009888Y010771D01*
X009768Y010793D01*
X009648Y010810D01*
X009527Y010821D01*
X009406Y010827D01*
X001806Y010827D01*
X001606Y010627D01*
X001606Y001227D01*
D11*
X002263Y001597D03*
X003050Y001597D03*
X003838Y001597D03*
X004625Y001597D03*
X005413Y001597D03*
X006200Y001597D03*
X006987Y001597D03*
X007775Y001597D03*
X008562Y001597D03*
X009350Y001597D03*
X009350Y010258D03*
X008562Y010258D03*
X007775Y010258D03*
X006987Y010258D03*
X006200Y010258D03*
X005413Y010258D03*
X004625Y010258D03*
X003838Y010258D03*
X003050Y010258D03*
X002263Y010258D03*
D12*
X007546Y008427D02*
X008066Y008427D01*
X008066Y007427D02*
X007546Y007427D01*
X007546Y006427D02*
X008066Y006427D01*
X008066Y005427D02*
X007546Y005427D01*
X007546Y004427D02*
X008066Y004427D01*
X008066Y003427D02*
X007546Y003427D01*
D13*
X010806Y003238D03*
X010806Y004616D03*
X010806Y007238D03*
X010806Y008616D03*
D14*
X010430Y006427D03*
X009682Y006427D03*
X009682Y005427D03*
X010430Y005427D03*
D15*
X010806Y005051D01*
X010806Y004616D01*
X011382Y004505D02*
X011626Y004505D01*
X011626Y004267D02*
X011382Y004267D01*
X011382Y004265D02*
X011382Y004967D01*
X011339Y005070D01*
X011260Y005149D01*
X011186Y005179D01*
X011145Y005278D01*
X010966Y005457D01*
X010966Y005798D01*
X010924Y005901D01*
X010897Y005927D01*
X010924Y005954D01*
X010966Y006057D01*
X010966Y006397D01*
X011145Y006577D01*
X011186Y006675D01*
X011260Y006706D01*
X011339Y006784D01*
X011382Y006887D01*
X011382Y007589D01*
X011339Y007692D01*
X011260Y007771D01*
X011157Y007814D01*
X010455Y007814D01*
X010352Y007771D01*
X010274Y007692D01*
X010231Y007589D01*
X010231Y007022D01*
X010119Y007022D01*
X010056Y006996D01*
X009994Y007022D01*
X009696Y007022D01*
X009706Y007048D01*
X009706Y007207D01*
X009706Y009257D01*
X009645Y009404D01*
X009533Y009516D01*
X009041Y010009D01*
X009100Y010151D01*
X009100Y010365D01*
X009024Y010547D01*
X009401Y010547D01*
X009655Y010528D01*
X010148Y010405D01*
X010602Y010176D01*
X010993Y009851D01*
X011302Y009447D01*
X011514Y008985D01*
X011617Y008487D01*
X011626Y008234D01*
X011626Y008231D01*
X011625Y008177D01*
X011626Y008174D01*
X011626Y003680D01*
X011625Y003677D01*
X011626Y003623D01*
X011626Y003621D01*
X011617Y003367D01*
X011514Y002869D01*
X011302Y002407D01*
X010993Y002004D01*
X010602Y001679D01*
X010148Y001449D01*
X009838Y001372D01*
X009887Y001490D01*
X009887Y001703D01*
X009805Y001901D01*
X009654Y002052D01*
X009456Y002134D01*
X009243Y002134D01*
X009045Y002052D01*
X008956Y001963D01*
X008867Y002052D01*
X008669Y002134D01*
X008455Y002134D01*
X008258Y002052D01*
X008168Y001963D01*
X008079Y002052D01*
X007882Y002134D01*
X007668Y002134D01*
X007470Y002052D01*
X007381Y001963D01*
X007292Y002052D01*
X007094Y002134D01*
X006880Y002134D01*
X006683Y002052D01*
X006594Y001963D01*
X006504Y002052D01*
X006307Y002134D01*
X006093Y002134D01*
X005896Y002052D01*
X005806Y001963D01*
X005717Y002052D01*
X005519Y002134D01*
X005306Y002134D01*
X005108Y002052D01*
X005019Y001963D01*
X004930Y002052D01*
X004732Y002134D01*
X004518Y002134D01*
X004321Y002052D01*
X004231Y001963D01*
X004142Y002052D01*
X003945Y002134D01*
X003731Y002134D01*
X003533Y002052D01*
X003444Y001963D01*
X003355Y002052D01*
X003157Y002134D01*
X002943Y002134D01*
X002746Y002052D01*
X002657Y001963D01*
X002567Y002052D01*
X002370Y002134D01*
X002156Y002134D01*
X001959Y002052D01*
X001886Y001980D01*
X001886Y009875D01*
X001959Y009802D01*
X002156Y009720D01*
X002370Y009720D01*
X002567Y009802D01*
X002657Y009892D01*
X002746Y009802D01*
X002943Y009720D01*
X003157Y009720D01*
X003355Y009802D01*
X003444Y009892D01*
X003533Y009802D01*
X003731Y009720D01*
X003945Y009720D01*
X004142Y009802D01*
X004231Y009892D01*
X004321Y009802D01*
X004518Y009720D01*
X004732Y009720D01*
X004930Y009802D01*
X005019Y009892D01*
X005108Y009802D01*
X005306Y009720D01*
X005519Y009720D01*
X005717Y009802D01*
X005806Y009892D01*
X005896Y009802D01*
X006093Y009720D01*
X006307Y009720D01*
X006504Y009802D01*
X006594Y009892D01*
X006683Y009802D01*
X006880Y009720D01*
X007094Y009720D01*
X007292Y009802D01*
X007375Y009885D01*
X007375Y009879D01*
X007436Y009732D01*
X008406Y008762D01*
X008406Y007851D01*
X008372Y007885D01*
X008174Y007967D01*
X007439Y007967D01*
X007240Y007885D01*
X007089Y007733D01*
X007006Y007535D01*
X007006Y007320D01*
X007089Y007121D01*
X007240Y006969D01*
X007342Y006927D01*
X007240Y006885D01*
X007089Y006733D01*
X007006Y006535D01*
X007006Y006320D01*
X007089Y006121D01*
X007240Y005969D01*
X007342Y005927D01*
X007240Y005885D01*
X007089Y005733D01*
X007006Y005535D01*
X007006Y005320D01*
X007089Y005121D01*
X007240Y004969D01*
X007342Y004927D01*
X007240Y004885D01*
X007089Y004733D01*
X007006Y004535D01*
X007006Y004320D01*
X007089Y004121D01*
X007240Y003969D01*
X007342Y003927D01*
X007240Y003885D01*
X007089Y003733D01*
X007006Y003535D01*
X007006Y003320D01*
X007089Y003121D01*
X007240Y002969D01*
X007439Y002887D01*
X008174Y002887D01*
X008372Y002969D01*
X008524Y003121D01*
X008606Y003320D01*
X008606Y003535D01*
X008524Y003733D01*
X008372Y003885D01*
X008270Y003927D01*
X008372Y003969D01*
X008524Y004121D01*
X008606Y004320D01*
X008606Y004535D01*
X008524Y004733D01*
X008372Y004885D01*
X008270Y004927D01*
X008372Y004969D01*
X008524Y005121D01*
X008606Y005320D01*
X008606Y005535D01*
X008569Y005624D01*
X008945Y006001D01*
X009006Y006148D01*
X009006Y006262D01*
X009146Y006402D01*
X009146Y006057D01*
X009155Y006035D01*
X009148Y006018D01*
X009148Y005836D01*
X009155Y005819D01*
X009146Y005798D01*
X009146Y005057D01*
X009189Y004954D01*
X009268Y004875D01*
X009371Y004832D01*
X009994Y004832D01*
X010056Y004858D01*
X010119Y004832D01*
X010231Y004832D01*
X010231Y004265D01*
X010274Y004162D01*
X010352Y004084D01*
X010455Y004041D01*
X011157Y004041D01*
X011260Y004084D01*
X011339Y004162D01*
X011382Y004265D01*
X011626Y004028D02*
X008431Y004028D01*
X008467Y003790D02*
X011626Y003790D01*
X011624Y003551D02*
X008599Y003551D01*
X008603Y003313D02*
X011606Y003313D01*
X011556Y003074D02*
X008477Y003074D01*
X008421Y002120D02*
X007916Y002120D01*
X007634Y002120D02*
X007128Y002120D01*
X006847Y002120D02*
X006341Y002120D01*
X006059Y002120D02*
X005553Y002120D01*
X005272Y002120D02*
X004766Y002120D01*
X004484Y002120D02*
X003979Y002120D01*
X003697Y002120D02*
X003191Y002120D01*
X002910Y002120D02*
X002404Y002120D01*
X002122Y002120D02*
X001886Y002120D01*
X001886Y002359D02*
X011265Y002359D01*
X011389Y002597D02*
X001886Y002597D01*
X001886Y002836D02*
X011498Y002836D01*
X011082Y002120D02*
X009490Y002120D01*
X009209Y002120D02*
X008703Y002120D01*
X009813Y001881D02*
X010846Y001881D01*
X010531Y001643D02*
X009887Y001643D01*
X009852Y001404D02*
X009968Y001404D01*
X007136Y003074D02*
X001886Y003074D01*
X001886Y003313D02*
X007009Y003313D01*
X007013Y003551D02*
X001886Y003551D01*
X001886Y003790D02*
X007145Y003790D01*
X007182Y004028D02*
X001886Y004028D01*
X001886Y004267D02*
X007028Y004267D01*
X007006Y004505D02*
X001886Y004505D01*
X001886Y004744D02*
X007099Y004744D01*
X007227Y004982D02*
X001886Y004982D01*
X001886Y005221D02*
X007047Y005221D01*
X007006Y005460D02*
X001886Y005460D01*
X001886Y005698D02*
X007074Y005698D01*
X007320Y005937D02*
X001886Y005937D01*
X001886Y006175D02*
X007066Y006175D01*
X007006Y006414D02*
X001886Y006414D01*
X001886Y006652D02*
X007055Y006652D01*
X007254Y006891D02*
X001886Y006891D01*
X001886Y007129D02*
X007085Y007129D01*
X007006Y007368D02*
X001886Y007368D01*
X001886Y007606D02*
X007036Y007606D01*
X007200Y007845D02*
X001886Y007845D01*
X001886Y008084D02*
X008406Y008084D01*
X008406Y008322D02*
X001886Y008322D01*
X001886Y008561D02*
X008406Y008561D01*
X008369Y008799D02*
X001886Y008799D01*
X001886Y009038D02*
X008130Y009038D01*
X007892Y009276D02*
X001886Y009276D01*
X001886Y009515D02*
X007653Y009515D01*
X007427Y009753D02*
X007174Y009753D01*
X006801Y009753D02*
X006386Y009753D01*
X006014Y009753D02*
X005599Y009753D01*
X005226Y009753D02*
X004811Y009753D01*
X004439Y009753D02*
X004024Y009753D01*
X003651Y009753D02*
X003237Y009753D01*
X002864Y009753D02*
X002449Y009753D01*
X002077Y009753D02*
X001886Y009753D01*
X007775Y009959D02*
X008806Y008927D01*
X008806Y007177D01*
X008056Y006427D01*
X007806Y006427D01*
X008606Y006427D02*
X008606Y006227D01*
X007806Y005427D01*
X008385Y004982D02*
X009177Y004982D01*
X009146Y005221D02*
X008565Y005221D01*
X008606Y005460D02*
X009146Y005460D01*
X009146Y005698D02*
X008643Y005698D01*
X008881Y005937D02*
X009148Y005937D01*
X009146Y006175D02*
X009006Y006175D01*
X008606Y006427D02*
X009306Y007127D01*
X009306Y009177D01*
X008562Y009921D01*
X008562Y010258D01*
X009057Y010469D02*
X009892Y010469D01*
X010493Y010230D02*
X009100Y010230D01*
X009057Y009992D02*
X010823Y009992D01*
X010897Y009785D02*
X010715Y009785D01*
X010547Y009716D01*
X010418Y009587D01*
X010348Y009418D01*
X010348Y009236D01*
X010380Y009160D01*
X010352Y009149D01*
X010274Y009070D01*
X010231Y008967D01*
X010231Y008265D01*
X010274Y008162D01*
X010352Y008084D01*
X010455Y008041D01*
X011157Y008041D01*
X011260Y008084D01*
X011339Y008162D01*
X011382Y008265D01*
X011382Y008967D01*
X011339Y009070D01*
X011260Y009149D01*
X011233Y009160D01*
X011264Y009236D01*
X011264Y009418D01*
X011195Y009587D01*
X011066Y009716D01*
X010897Y009785D01*
X010975Y009753D02*
X011068Y009753D01*
X011224Y009515D02*
X011250Y009515D01*
X011264Y009276D02*
X011380Y009276D01*
X011352Y009038D02*
X011489Y009038D01*
X011552Y008799D02*
X011382Y008799D01*
X011382Y008561D02*
X011602Y008561D01*
X011623Y008322D02*
X011382Y008322D01*
X011260Y008084D02*
X011626Y008084D01*
X011626Y007845D02*
X009706Y007845D01*
X009706Y007606D02*
X010238Y007606D01*
X010231Y007368D02*
X009706Y007368D01*
X009706Y007129D02*
X010231Y007129D01*
X010806Y007238D02*
X010806Y006803D01*
X010430Y006427D01*
X010982Y006414D02*
X011626Y006414D01*
X011626Y006652D02*
X011177Y006652D01*
X011382Y006891D02*
X011626Y006891D01*
X011626Y007129D02*
X011382Y007129D01*
X011382Y007368D02*
X011626Y007368D01*
X011626Y007606D02*
X011374Y007606D01*
X010352Y008084D02*
X009706Y008084D01*
X009706Y008322D02*
X010231Y008322D01*
X010231Y008561D02*
X009706Y008561D01*
X009706Y008799D02*
X010231Y008799D01*
X010260Y009038D02*
X009706Y009038D01*
X009698Y009276D02*
X010348Y009276D01*
X010388Y009515D02*
X009534Y009515D01*
X009296Y009753D02*
X010638Y009753D01*
X010806Y009327D02*
X010806Y008616D01*
X009682Y006427D02*
X009682Y005427D01*
X009682Y005851D01*
X009606Y005927D01*
X010906Y005937D02*
X011626Y005937D01*
X011626Y006175D02*
X010966Y006175D01*
X010966Y005698D02*
X011626Y005698D01*
X011626Y005460D02*
X010966Y005460D01*
X011169Y005221D02*
X011626Y005221D01*
X011626Y004982D02*
X011375Y004982D01*
X011382Y004744D02*
X011626Y004744D01*
X010231Y004744D02*
X008513Y004744D01*
X008606Y004505D02*
X010231Y004505D01*
X010231Y004267D02*
X008584Y004267D01*
X007775Y009959D02*
X007775Y010258D01*
D16*
X010806Y009327D03*
X009606Y005927D03*
M02*
