G75*
G70*
%OFA0B0*%
%FSLAX24Y24*%
%IPPOS*%
%LPD*%
%AMOC8*
5,1,8,0,0,1.08239X$1,22.5*
%
%ADD10C,0.0030*%
%ADD11C,0.0040*%
%ADD12C,0.0060*%
%ADD13C,0.0120*%
%ADD14C,0.0020*%
D10*
X011321Y003042D02*
X011321Y003227D01*
X011383Y003289D01*
X011506Y003289D01*
X011568Y003227D01*
X011568Y003042D01*
X011691Y003042D02*
X011321Y003042D01*
X011383Y003411D02*
X011630Y003411D01*
X011691Y003472D01*
X011691Y003596D01*
X011630Y003657D01*
X011383Y003657D01*
X011321Y003596D01*
X011321Y003472D01*
X011383Y003411D01*
X011321Y003779D02*
X011691Y003779D01*
X011568Y003902D01*
X011691Y004026D01*
X011321Y004026D01*
X011321Y004147D02*
X011691Y004147D01*
X011691Y004394D01*
X011691Y004515D02*
X011321Y004515D01*
X011321Y004701D01*
X011383Y004762D01*
X011506Y004762D01*
X011568Y004701D01*
X011568Y004515D01*
X011568Y004639D02*
X011691Y004762D01*
X011321Y004394D02*
X011321Y004147D01*
X011506Y004147D02*
X011506Y004271D01*
X011568Y007342D02*
X011568Y007527D01*
X011506Y007589D01*
X011383Y007589D01*
X011321Y007527D01*
X011321Y007342D01*
X011691Y007342D01*
X011568Y007466D02*
X011691Y007589D01*
X011630Y007711D02*
X011691Y007772D01*
X011691Y007896D01*
X011630Y007957D01*
X011568Y007957D01*
X011506Y007896D01*
X011506Y007772D01*
X011444Y007711D01*
X011383Y007711D01*
X011321Y007772D01*
X011321Y007896D01*
X011383Y007957D01*
X011383Y008079D02*
X011444Y008079D01*
X011506Y008141D01*
X011506Y008264D01*
X011568Y008326D01*
X011630Y008326D01*
X011691Y008264D01*
X011691Y008141D01*
X011630Y008079D01*
X011383Y008079D02*
X011321Y008141D01*
X011321Y008264D01*
X011383Y008326D01*
X011321Y008447D02*
X011321Y008571D01*
X011321Y008509D02*
X011691Y008509D01*
X011691Y008447D02*
X011691Y008571D01*
D11*
X003786Y007817D02*
X003786Y007557D01*
X003266Y007557D01*
X003266Y007817D01*
X003353Y007904D01*
X003439Y007904D01*
X003526Y007817D01*
X003526Y007557D01*
X003613Y007388D02*
X003700Y007388D01*
X003786Y007301D01*
X003786Y007128D01*
X003700Y007041D01*
X003700Y006872D02*
X003266Y006872D01*
X003353Y007041D02*
X003266Y007128D01*
X003266Y007301D01*
X003353Y007388D01*
X003526Y007301D02*
X003613Y007388D01*
X003526Y007301D02*
X003526Y007128D01*
X003439Y007041D01*
X003353Y007041D01*
X003700Y006872D02*
X003786Y006786D01*
X003786Y006612D01*
X003700Y006525D01*
X003266Y006525D01*
X003526Y005841D02*
X003613Y005841D01*
X003613Y005494D01*
X003700Y005494D02*
X003786Y005581D01*
X003786Y005754D01*
X003700Y005494D02*
X003526Y005494D01*
X003439Y005581D01*
X003439Y005754D01*
X003526Y005841D01*
X003526Y005325D02*
X003613Y005325D01*
X003613Y004979D01*
X003700Y004979D02*
X003786Y005065D01*
X003786Y005239D01*
X003526Y005325D02*
X003439Y005239D01*
X003439Y005065D01*
X003526Y004979D01*
X003700Y004979D01*
X003700Y004810D02*
X003613Y004810D01*
X003526Y004723D01*
X003526Y004463D01*
X003439Y004294D02*
X003786Y003947D01*
X003439Y003947D02*
X003786Y004294D01*
X003786Y004463D02*
X003786Y004723D01*
X003700Y004810D01*
X003526Y004723D02*
X003439Y004810D01*
X003353Y004810D01*
X003266Y004723D01*
X003266Y004463D01*
X003786Y004463D01*
X003786Y007817D02*
X003700Y007904D01*
X003613Y007904D01*
X003526Y007817D01*
D12*
X002660Y002357D02*
X002426Y002357D01*
X002309Y002474D01*
X002309Y002824D01*
X002893Y002824D01*
X003010Y002708D01*
X003010Y002591D01*
X002776Y002474D02*
X002776Y002824D01*
X002660Y003057D02*
X002776Y003174D01*
X002776Y003407D01*
X002660Y003524D01*
X002426Y003524D01*
X002309Y003407D01*
X002309Y003174D01*
X002426Y003057D01*
X002660Y003057D01*
X002776Y002474D02*
X002660Y002357D01*
X002776Y003757D02*
X002076Y003757D01*
X002309Y003757D02*
X002309Y004107D01*
X002426Y004224D01*
X002660Y004224D01*
X002776Y004107D01*
X002776Y003757D01*
X002660Y004457D02*
X002426Y004457D01*
X002309Y004573D01*
X002309Y004807D01*
X002426Y004924D01*
X002660Y004924D01*
X002776Y004807D01*
X002776Y004573D01*
X002660Y004457D01*
X002309Y005156D02*
X002309Y005390D01*
X002192Y005273D02*
X002660Y005273D01*
X002776Y005390D01*
X002776Y005623D02*
X002776Y005856D01*
X002776Y005740D02*
X002309Y005740D01*
X002309Y005623D01*
X002076Y005740D02*
X001959Y005740D01*
X002309Y006206D02*
X002426Y006089D01*
X002660Y006089D01*
X002776Y006206D01*
X002776Y006556D01*
X002776Y006789D02*
X002776Y007139D01*
X002660Y007256D01*
X002543Y007139D01*
X002543Y006906D01*
X002426Y006789D01*
X002309Y006906D01*
X002309Y007256D01*
X002660Y007489D02*
X002660Y007606D01*
X002776Y007606D01*
X002776Y007489D01*
X002660Y007489D01*
X002776Y007839D02*
X002309Y007839D01*
X002309Y008189D01*
X002426Y008306D01*
X002776Y008306D01*
X002660Y008538D02*
X002426Y008538D01*
X002309Y008655D01*
X002309Y008889D01*
X002426Y009006D01*
X002543Y009006D01*
X002543Y008538D01*
X002660Y008538D02*
X002776Y008655D01*
X002776Y008889D01*
X002660Y009355D02*
X002776Y009472D01*
X002660Y009355D02*
X002192Y009355D01*
X002309Y009238D02*
X002309Y009472D01*
X002309Y006556D02*
X002309Y006206D01*
D13*
X003306Y008927D02*
X008806Y008927D01*
X008806Y002927D01*
X003306Y002927D01*
D14*
X009487Y004734D02*
X009487Y004807D01*
X009523Y004844D01*
X009633Y004844D01*
X009560Y004844D02*
X009487Y004917D01*
X009633Y004917D02*
X009633Y004697D01*
X009523Y004697D01*
X009487Y004734D01*
X009708Y004734D02*
X009854Y004881D01*
X009818Y004917D01*
X009744Y004917D01*
X009708Y004881D01*
X009708Y004734D01*
X009744Y004697D01*
X009818Y004697D01*
X009854Y004734D01*
X009854Y004881D01*
X009929Y004917D02*
X010075Y004917D01*
X009929Y004770D01*
X009929Y004734D01*
X009965Y004697D01*
X010039Y004697D01*
X010075Y004734D01*
X010223Y004697D02*
X010223Y004917D01*
X010296Y004917D02*
X010150Y004917D01*
X010296Y004770D02*
X010223Y004697D01*
X010179Y006937D02*
X010179Y007157D01*
X010289Y007157D01*
X010326Y007121D01*
X010326Y007047D01*
X010289Y007011D01*
X010179Y007011D01*
X010253Y007011D02*
X010326Y006937D01*
X010105Y006974D02*
X010068Y006937D01*
X009995Y006937D01*
X009958Y006974D01*
X010105Y007121D01*
X010105Y006974D01*
X010105Y007121D02*
X010068Y007157D01*
X009995Y007157D01*
X009958Y007121D01*
X009958Y006974D01*
X009884Y006937D02*
X009737Y006937D01*
X009884Y007084D01*
X009884Y007121D01*
X009847Y007157D01*
X009774Y007157D01*
X009737Y007121D01*
X009590Y007157D02*
X009590Y006937D01*
X009663Y006937D02*
X009516Y006937D01*
X009516Y007084D02*
X009590Y007157D01*
M02*
