G75*
G70*
%OFA0B0*%
%FSLAX24Y24*%
%IPPOS*%
%LPD*%
%AMOC8*
5,1,8,0,0,1.08239X$1,22.5*
%
%ADD10C,0.0000*%
D10*
X001606Y001227D02*
X001806Y001027D01*
X009406Y001027D01*
X009527Y001033D01*
X009648Y001044D01*
X009768Y001061D01*
X009888Y001083D01*
X010006Y001111D01*
X010122Y001145D01*
X010237Y001184D01*
X010350Y001229D01*
X010461Y001279D01*
X010569Y001334D01*
X010674Y001394D01*
X010776Y001459D01*
X010876Y001529D01*
X010971Y001604D01*
X011063Y001683D01*
X011152Y001766D01*
X011236Y001854D01*
X011316Y001945D01*
X011391Y002040D01*
X011462Y002139D01*
X011528Y002241D01*
X011589Y002346D01*
X011645Y002453D01*
X011696Y002563D01*
X011741Y002676D01*
X011782Y002790D01*
X011816Y002907D01*
X011845Y003025D01*
X011869Y003144D01*
X011887Y003264D01*
X011899Y003384D01*
X011905Y003506D01*
X011906Y003627D01*
X011906Y008227D01*
X011905Y008348D01*
X011899Y008470D01*
X011887Y008590D01*
X011869Y008710D01*
X011845Y008829D01*
X011816Y008947D01*
X011782Y009064D01*
X011741Y009178D01*
X011696Y009291D01*
X011645Y009401D01*
X011589Y009508D01*
X011528Y009613D01*
X011462Y009715D01*
X011391Y009814D01*
X011316Y009909D01*
X011236Y010000D01*
X011152Y010088D01*
X011063Y010171D01*
X010971Y010250D01*
X010876Y010325D01*
X010776Y010395D01*
X010674Y010460D01*
X010569Y010520D01*
X010461Y010575D01*
X010350Y010625D01*
X010237Y010670D01*
X010122Y010709D01*
X010006Y010743D01*
X009888Y010771D01*
X009768Y010793D01*
X009648Y010810D01*
X009527Y010821D01*
X009406Y010827D01*
X001806Y010827D01*
X001606Y010627D01*
X001606Y001227D01*
M02*
